M48
; DRILL file {KiCad 9.0.0} date 2025-07-06T20:29:46+0300
; FORMAT={-:-/ absolute / inch / decimal}
; #@! TF.CreationDate,2025-07-06T20:29:46+03:00
; #@! TF.GenerationSoftware,Kicad,Pcbnew,9.0.0
; #@! TF.FileFunction,Plated,1,2,PTH
FMAT,2
INCH
; #@! TA.AperFunction,Plated,PTH,ViaDrill
T1C0.0118
; #@! TA.AperFunction,Plated,PTH,ComponentDrill
T2C0.0315
; #@! TA.AperFunction,Plated,PTH,ComponentDrill
T3C0.0394
%
G90
G05
T1
X-5.5625Y-0.7013
X-5.4991Y-0.5705
X-5.1514Y-0.1754
X-5.123Y-0.3885
X-5.114Y-0.3254
X-4.9587Y-0.449
X-4.8854Y-0.2634
X-4.5832Y1.7492
X-4.5586Y1.3581
X-4.5069Y0.6276
X-3.7895Y1.2505
X-3.7626Y0.73
X0.2342Y0.4632
X0.6908Y0.5245
X0.895Y-0.2372
X1.0896Y-0.3362
X1.1508Y-0.3774
X1.1759Y0.0497
X1.5422Y0.987
X1.6262Y1.6594
X2.1531Y0.9008
X2.202Y1.4469
X2.2266Y-0.3298
X2.3428Y-0.1279
X2.3569Y-0.0433
X3.0451Y1.2782
T2
X-4.8792Y-1.0326
X-4.8705Y-0.9329
X-4.8618Y-0.8333
X-4.853Y-0.7337
X-4.8443Y-0.6341
X-4.8356Y-0.5345
X-4.8269Y-0.4348
X-4.1662Y-1.0949
X-4.1575Y-0.9953
X-4.1487Y-0.8957
X-4.14Y-0.7961
X-4.1313Y-0.6965
X-4.1226Y-0.5968
X-4.1139Y-0.4972
X1.3631Y-0.4906
X1.37Y-0.5903
X1.377Y-0.6901
X1.384Y-0.7898
X1.391Y-0.8896
X1.3979Y-0.9893
X1.4049Y-1.0891
X2.0771Y-0.4406
X2.084Y-0.5404
X2.091Y-0.6401
X2.098Y-0.7399
X2.105Y-0.8397
X2.1119Y-0.9394
X2.1189Y-1.0392
T3
X-4.9712Y-0.7275
X-4.309Y0.0297
X-4.0728Y0.0297
X1.2663Y-0.8022
X1.3169Y0.0297
X1.5531Y0.0297
M30
