%TF.GenerationSoftware,KiCad,Pcbnew,9.0.0*%
%TF.CreationDate,2025-07-06T20:28:58+03:00*%
%TF.ProjectId,NIOKR,4e494f4b-522e-46b6-9963-61645f706362,rev?*%
%TF.SameCoordinates,Original*%
%TF.FileFunction,Soldermask,Bot*%
%TF.FilePolarity,Negative*%
%FSLAX46Y46*%
G04 Gerber Fmt 4.6, Leading zero omitted, Abs format (unit mm)*
G04 Created by KiCad (PCBNEW 9.0.0) date 2025-07-06 20:28:58*
%MOMM*%
%LPD*%
G01*
G04 APERTURE LIST*
G04 Aperture macros list*
%AMRoundRect*
0 Rectangle with rounded corners*
0 $1 Rounding radius*
0 $2 $3 $4 $5 $6 $7 $8 $9 X,Y pos of 4 corners*
0 Add a 4 corners polygon primitive as box body*
4,1,4,$2,$3,$4,$5,$6,$7,$8,$9,$2,$3,0*
0 Add four circle primitives for the rounded corners*
1,1,$1+$1,$2,$3*
1,1,$1+$1,$4,$5*
1,1,$1+$1,$6,$7*
1,1,$1+$1,$8,$9*
0 Add four rect primitives between the rounded corners*
20,1,$1+$1,$2,$3,$4,$5,0*
20,1,$1+$1,$4,$5,$6,$7,0*
20,1,$1+$1,$6,$7,$8,$9,0*
20,1,$1+$1,$8,$9,$2,$3,0*%
G04 Aperture macros list end*
%ADD10RoundRect,0.250000X-0.792903X-0.457635X0.701389X-0.588369X0.792903X0.457635X-0.701389X0.588369X0*%
%ADD11RoundRect,0.250000X-0.711551X-0.576038X0.784795X-0.471404X0.711551X0.576038X-0.784795X0.471404X0*%
%ADD12C,0.900000*%
%ADD13C,1.900000*%
%ADD14C,3.000000*%
%ADD15C,5.100000*%
%ADD16RoundRect,0.250000X0.927177X1.026081X-0.872206X1.073199X-0.927177X-1.026081X0.872206X-1.073199X0*%
%ADD17C,0.600000*%
%ADD18RoundRect,0.250000X0.979608X0.976150X-0.814844X1.117376X-0.979608X-0.976150X0.814844X-1.117376X0*%
%ADD19RoundRect,0.250000X0.814844X1.117376X-0.979608X0.976150X-0.814844X-1.117376X0.979608X-0.976150X0*%
%ADD20RoundRect,0.250000X0.872206X1.073199X-0.927177X1.026081X-0.872206X-1.073199X0.927177X-1.026081X0*%
%ADD21C,2.540000*%
%ADD22RoundRect,0.250000X1.120251X0.810888X-0.630015X1.231089X-1.120251X-0.810888X0.630015X-1.231089X0*%
%ADD23RoundRect,0.250000X0.630015X1.231089X-1.120251X0.810888X-0.630015X-1.231089X1.120251X-0.810888X0*%
%ADD24RoundRect,0.250000X0.691104X0.441446X-0.603949X0.554749X-0.691104X-0.441446X0.603949X-0.554749X0*%
%ADD25RoundRect,0.250000X0.613538X0.544124X-0.683295X0.453440X-0.613538X-0.544124X0.683295X-0.453440X0*%
%ADD26RoundRect,0.250000X0.751653X0.327899X-0.509731X0.642397X-0.751653X-0.327899X0.509731X-0.642397X0*%
%ADD27RoundRect,0.250000X0.641175X0.511268X-0.658627X0.488580X-0.641175X-0.511268X0.658627X-0.488580X0*%
%ADD28RoundRect,0.250000X0.667054X0.477011X-0.632154X0.522380X-0.667054X-0.477011X0.632154X-0.522380X0*%
%ADD29RoundRect,0.250000X0.520865X0.633403X-0.745816X0.340967X-0.520865X-0.633403X0.745816X-0.340967X0*%
G04 APERTURE END LIST*
D10*
%TO.C,U1*%
X-123931435Y-26227011D03*
X-123710059Y-23696677D03*
X-123488683Y-21166342D03*
X-123267308Y-18636008D03*
X-123045932Y-16105673D03*
X-122824557Y-13575339D03*
X-122603181Y-11045004D03*
X-104492361Y-12629495D03*
X-104713737Y-15159830D03*
X-104935113Y-17690164D03*
X-105156488Y-20220499D03*
X-105377864Y-22750834D03*
X-105599239Y-25281168D03*
X-105820615Y-27811503D03*
%TD*%
D11*
%TO.C,U2*%
X35684649Y-27663064D03*
X35507467Y-25129252D03*
X35330286Y-22595439D03*
X35153105Y-20061626D03*
X34975923Y-17527814D03*
X34798742Y-14994001D03*
X34621560Y-12460188D03*
X52757275Y-11192016D03*
X52934456Y-13725828D03*
X53111638Y-16259641D03*
X53288819Y-18793454D03*
X53466000Y-21327266D03*
X53643182Y-23861079D03*
X53820363Y-26394892D03*
%TD*%
D12*
%TO.C,L-PSW1*%
X-172558800Y-23503500D03*
X-172508800Y-20503500D03*
%TD*%
D13*
%TO.C,R-S2*%
X50213485Y45701273D03*
D14*
X55866044Y51455278D03*
D15*
X55711600Y45557300D03*
D14*
X60806741Y49125147D03*
D13*
X61209715Y45413327D03*
D16*
X63905679Y49043999D03*
X52767106Y51536427D03*
%TD*%
D17*
%TO.C,mbites4*%
X-13460600Y1914600D03*
X-13460600Y914600D03*
X-13460600Y-85400D03*
X-13460600Y-1085400D03*
X-13460600Y-2085400D03*
X-13460600Y-3085400D03*
%TD*%
D13*
%TO.C,R-S1*%
X69539555Y29635325D03*
D14*
X75485509Y35085612D03*
D15*
X75022600Y29203800D03*
D14*
X80297485Y32500099D03*
D13*
X80505645Y28772275D03*
D18*
X83387929Y32256875D03*
X72395065Y35328835D03*
%TD*%
D13*
%TO.C,L-S0*%
X-168948545Y27320775D03*
D14*
X-163928409Y33634112D03*
D15*
X-163465500Y27752300D03*
D14*
X-158771212Y31833190D03*
D13*
X-157982455Y28183825D03*
D19*
X-155680768Y32076413D03*
X-167018852Y33390889D03*
%TD*%
D13*
%TO.C,R-S5*%
X-8229145Y34460575D03*
D14*
X-3209009Y40773912D03*
D15*
X-2746100Y34892100D03*
D14*
X1948188Y38972990D03*
D13*
X2736945Y35323625D03*
D19*
X5038632Y39216213D03*
X-6299452Y40530689D03*
%TD*%
D13*
%TO.C,L-S8*%
X-130751615Y27919227D03*
D14*
X-125407944Y33961178D03*
D15*
X-125253500Y28063200D03*
D14*
X-120352068Y31892817D03*
D13*
X-119755385Y28207173D03*
D20*
X-117253130Y31973965D03*
X-128506882Y33880030D03*
%TD*%
D13*
%TO.C,L-S2*%
X-131209715Y45413327D03*
D14*
X-125866044Y51455278D03*
D15*
X-125711600Y45557300D03*
D14*
X-120810168Y49386917D03*
D13*
X-120213485Y45701273D03*
D20*
X-117711230Y49468065D03*
X-128964982Y51374130D03*
%TD*%
D13*
%TO.C,R-S6*%
X86609455Y10737825D03*
D14*
X92555409Y16188112D03*
D15*
X92092500Y10306300D03*
D14*
X97367385Y13602599D03*
D13*
X97575545Y9874775D03*
D18*
X100457829Y13359375D03*
X89464965Y16431335D03*
%TD*%
D21*
%TO.C,L-BAT+1*%
X-109449000Y754900D03*
%TD*%
%TO.C,L-GND1*%
X-103449000Y754900D03*
%TD*%
D13*
%TO.C,R-S8*%
X49755385Y28207173D03*
D14*
X55407944Y33961178D03*
D15*
X55253500Y28063200D03*
D14*
X60348641Y31631047D03*
D13*
X60751615Y27919227D03*
D16*
X63447579Y31549899D03*
X52309006Y34042327D03*
%TD*%
D13*
%TO.C,L-S11*%
X-74110045Y17877625D03*
D14*
X-68164091Y23327912D03*
D15*
X-68627000Y17446100D03*
D14*
X-63352115Y20742399D03*
D13*
X-63143955Y17014575D03*
D18*
X-60261671Y20499175D03*
X-71254535Y23571135D03*
%TD*%
D13*
%TO.C,L-S20*%
X-55980135Y-29572350D03*
D14*
X-49254772Y-25119317D03*
D15*
X-50632100Y-30856300D03*
D14*
X-44906503Y-28425758D03*
D13*
X-45284065Y-32140250D03*
D22*
X-41892156Y-29149439D03*
X-52269119Y-24395637D03*
%TD*%
D17*
%TO.C,mbites1*%
X-56539400Y22914800D03*
X-56539400Y21914800D03*
X-56539400Y20914800D03*
X-56539400Y19914800D03*
X-56539400Y18914800D03*
X-56539400Y17914800D03*
%TD*%
D13*
%TO.C,L-S18*%
X-91957835Y-20934850D03*
D14*
X-85232472Y-16481817D03*
D15*
X-86609800Y-22218800D03*
D14*
X-80884203Y-19788258D03*
D13*
X-81261765Y-23502750D03*
D22*
X-77869856Y-20511939D03*
X-88246819Y-15758137D03*
%TD*%
D17*
%TO.C,mbites2*%
X-56536600Y1917300D03*
X-56536600Y917300D03*
X-56536600Y-82700D03*
X-56536600Y-1082700D03*
X-56536600Y-2082700D03*
X-56536600Y-3082700D03*
%TD*%
D13*
%TO.C,L-S5*%
X-72736945Y35323625D03*
D14*
X-66790991Y40773912D03*
D15*
X-67253900Y34892100D03*
D14*
X-61979015Y38188399D03*
D13*
X-61770855Y34460575D03*
D18*
X-58888571Y37945175D03*
X-69881435Y41017135D03*
%TD*%
D13*
%TO.C,R-S14*%
X49297285Y10713173D03*
D14*
X54949844Y16467178D03*
D15*
X54795400Y10569200D03*
D14*
X59890541Y14137047D03*
D13*
X60293515Y10425227D03*
D16*
X62989479Y14055899D03*
X51850906Y16548327D03*
%TD*%
D13*
%TO.C,R-S4*%
X10213855Y35912075D03*
D14*
X15233991Y42225412D03*
D15*
X15696900Y36343600D03*
D14*
X20391188Y40424490D03*
D13*
X21179945Y36775125D03*
D19*
X23481632Y40667713D03*
X12143548Y41982189D03*
%TD*%
D13*
%TO.C,R-S3*%
X29680485Y50794327D03*
D14*
X35024156Y56836278D03*
D15*
X35178600Y50938300D03*
D14*
X40080032Y54767917D03*
D13*
X40676715Y51082273D03*
D20*
X43178970Y54849065D03*
X31925218Y56755130D03*
%TD*%
D13*
%TO.C,L-S14*%
X-130293515Y10425227D03*
D14*
X-124949844Y16467178D03*
D15*
X-124795400Y10569200D03*
D14*
X-119893968Y14398817D03*
D13*
X-119297285Y10713173D03*
D20*
X-116795030Y14479965D03*
X-128048782Y16386030D03*
%TD*%
D13*
%TO.C,R-S18*%
X11261765Y-23502750D03*
D14*
X15232472Y-16481817D03*
D15*
X16609800Y-22218800D03*
D14*
X20607902Y-17453804D03*
D13*
X21957835Y-20934850D03*
D23*
X23622249Y-16730124D03*
X12218126Y-17205498D03*
%TD*%
D13*
%TO.C,L-S9*%
X-111134815Y33588273D03*
D14*
X-105482256Y39342278D03*
D15*
X-105636700Y33444300D03*
D14*
X-100541559Y37012147D03*
D13*
X-100138585Y33300327D03*
D16*
X-97442621Y36930999D03*
X-108581194Y39423427D03*
%TD*%
D13*
%TO.C,L-S3*%
X-110676715Y51082273D03*
D14*
X-105024156Y56836278D03*
D15*
X-105178600Y50938300D03*
D14*
X-100083459Y54506147D03*
D13*
X-99680485Y50794327D03*
D16*
X-96984521Y54424999D03*
X-108123094Y56917427D03*
%TD*%
D13*
%TO.C,R-S7*%
X68166455Y12189325D03*
D14*
X74112409Y17639612D03*
D15*
X73649500Y11757800D03*
D14*
X78924385Y15054099D03*
D13*
X79132545Y11326275D03*
D18*
X82014829Y14810875D03*
X71021965Y17882835D03*
%TD*%
D13*
%TO.C,L-S6*%
X-167575545Y9874775D03*
D14*
X-162555409Y16188112D03*
D15*
X-162092500Y10306300D03*
D14*
X-157398212Y14387190D03*
D13*
X-156609455Y10737825D03*
D19*
X-154307768Y14630413D03*
X-165645852Y15944889D03*
%TD*%
D13*
%TO.C,R-S10*%
X11586855Y18465975D03*
D14*
X16606991Y24779312D03*
D15*
X17069900Y18897500D03*
D14*
X21764188Y22978390D03*
D13*
X22552945Y19329025D03*
D19*
X24854632Y23221613D03*
X13516548Y24536089D03*
%TD*%
D13*
%TO.C,L-S7*%
X-149132545Y11326275D03*
D14*
X-144112409Y17639612D03*
D15*
X-143649500Y11757800D03*
D14*
X-138955212Y15838690D03*
D13*
X-138166455Y12189325D03*
D19*
X-135864768Y16081913D03*
X-147202852Y17396389D03*
%TD*%
D13*
%TO.C,R-S9*%
X30138585Y33300327D03*
D14*
X35482256Y39342278D03*
D15*
X35636700Y33444300D03*
D14*
X40538132Y37273917D03*
D13*
X41134815Y33588273D03*
D20*
X43637070Y37355065D03*
X32383318Y39261130D03*
%TD*%
D13*
%TO.C,R-S19*%
X-6727135Y-27821450D03*
D14*
X-2756428Y-20800517D03*
D15*
X-1379100Y-26537500D03*
D14*
X2619002Y-21772504D03*
D13*
X3968935Y-25253550D03*
D23*
X5633349Y-21048824D03*
X-5770774Y-21524198D03*
%TD*%
D17*
%TO.C,mbites3*%
X-13459000Y22917200D03*
X-13459000Y21917200D03*
X-13459000Y20917200D03*
X-13459000Y19917200D03*
X-13459000Y18917200D03*
X-13459000Y17917200D03*
%TD*%
D13*
%TO.C,R-S11*%
X-6856045Y17014575D03*
D14*
X-1835909Y23327912D03*
D15*
X-1373000Y17446100D03*
D14*
X3321288Y21526990D03*
D13*
X4110045Y17877625D03*
D19*
X6411732Y21770213D03*
X-4926352Y23084689D03*
%TD*%
D13*
%TO.C,L-S1*%
X-150505645Y28772275D03*
D14*
X-145485509Y35085612D03*
D15*
X-145022600Y29203800D03*
D14*
X-140328312Y33284690D03*
D13*
X-139539555Y29635325D03*
D19*
X-137237868Y33527913D03*
X-148575952Y34842389D03*
%TD*%
D13*
%TO.C,R-S13*%
X66793455Y-5256775D03*
D14*
X72739409Y193512D03*
D15*
X72276500Y-5688300D03*
D14*
X77551385Y-2392001D03*
D13*
X77759545Y-6119825D03*
D18*
X80641829Y-2635225D03*
X69648965Y436735D03*
%TD*%
D17*
%TO.C,mbites6*%
X-54539400Y1914600D03*
X-54539400Y914600D03*
X-54539400Y-85400D03*
X-54539400Y-1085400D03*
X-54539400Y-2085400D03*
X-54539400Y-3085400D03*
%TD*%
D21*
%TO.C,L-BAT+2*%
X-126268800Y-18479400D03*
%TD*%
D13*
%TO.C,L-S17*%
X-75483045Y431525D03*
D14*
X-69537091Y5881812D03*
D15*
X-70000000Y0D03*
D14*
X-64725115Y3296299D03*
D13*
X-64516955Y-431525D03*
D18*
X-61634671Y3053075D03*
X-72627535Y6125035D03*
%TD*%
D21*
%TO.C,R-BAT+1*%
X39449000Y754900D03*
%TD*%
D13*
%TO.C,L-S4*%
X-91179945Y36775125D03*
D14*
X-85233991Y42225412D03*
D15*
X-85696900Y36343600D03*
D14*
X-80422015Y39639899D03*
D13*
X-80213855Y35912075D03*
D18*
X-77331571Y39396675D03*
X-88324435Y42468635D03*
%TD*%
D12*
%TO.C,R-PSW1*%
X102558800Y-20751000D03*
X102508800Y-23751000D03*
%TD*%
D13*
%TO.C,L-S15*%
X-111592915Y16094273D03*
D14*
X-105940356Y21848278D03*
D15*
X-106094800Y15950300D03*
D14*
X-100999659Y19518147D03*
D13*
X-100596685Y15806327D03*
D16*
X-97900721Y19436999D03*
X-109039294Y21929427D03*
%TD*%
D13*
%TO.C,R-S20*%
X-24715935Y-32140250D03*
D14*
X-20745228Y-25119317D03*
D15*
X-19367900Y-30856300D03*
D14*
X-15369798Y-26091304D03*
D13*
X-14019865Y-29572350D03*
D23*
X-12355451Y-25367624D03*
X-23759574Y-25842998D03*
%TD*%
D21*
%TO.C,R-GND1*%
X33449000Y754900D03*
%TD*%
D13*
%TO.C,L-S19*%
X-73969035Y-25253550D03*
D14*
X-67243672Y-20800517D03*
D15*
X-68621000Y-26537500D03*
D14*
X-62895403Y-24106958D03*
D13*
X-63272965Y-27821450D03*
D22*
X-59881056Y-24830639D03*
X-70258019Y-20076837D03*
%TD*%
D13*
%TO.C,R-S16*%
X12959955Y1019975D03*
D14*
X17980091Y7333312D03*
D15*
X18443000Y1451500D03*
D14*
X23137288Y5532390D03*
D13*
X23926045Y1883025D03*
D19*
X26227732Y5775613D03*
X14889648Y7090089D03*
%TD*%
D13*
%TO.C,R-S12*%
X85236455Y-6708275D03*
D14*
X91182409Y-1257988D03*
D15*
X90719500Y-7139800D03*
D14*
X95994385Y-3843501D03*
D13*
X96202545Y-7571325D03*
D18*
X99084829Y-4086725D03*
X88091965Y-1014765D03*
%TD*%
D13*
%TO.C,L-S10*%
X-92552945Y19329025D03*
D14*
X-86606991Y24779312D03*
D15*
X-87069900Y18897500D03*
D14*
X-81795015Y22193799D03*
D13*
X-81586855Y18465975D03*
D18*
X-78704571Y21950575D03*
X-89697435Y25022535D03*
%TD*%
D13*
%TO.C,R-S0*%
X87982455Y28183825D03*
D14*
X93928409Y33634112D03*
D15*
X93465500Y27752300D03*
D14*
X98740385Y31048599D03*
D13*
X98948545Y27320775D03*
D18*
X101830829Y30805375D03*
X90837965Y33877335D03*
%TD*%
D17*
%TO.C,mbites8*%
X-15460600Y1914800D03*
X-15460600Y914800D03*
X-15460600Y-85200D03*
X-15460600Y-1085200D03*
X-15460600Y-2085200D03*
X-15460600Y-3085200D03*
%TD*%
D13*
%TO.C,L-S13*%
X-147759545Y-6119825D03*
D14*
X-142739409Y193512D03*
D15*
X-142276500Y-5688300D03*
D14*
X-137582212Y-1607410D03*
D13*
X-136793455Y-5256775D03*
D19*
X-134491768Y-1364187D03*
X-145829852Y-49711D03*
%TD*%
D17*
%TO.C,mbites5*%
X-54539400Y22914600D03*
X-54539400Y21914600D03*
X-54539400Y20914600D03*
X-54539400Y19914600D03*
X-54539400Y18914600D03*
X-54539400Y17914600D03*
%TD*%
D13*
%TO.C,L-S16*%
X-93926045Y1883025D03*
D14*
X-87980091Y7333312D03*
D15*
X-88443000Y1451500D03*
D14*
X-83168115Y4747799D03*
D13*
X-82959955Y1019975D03*
D18*
X-80077671Y4504575D03*
X-91070535Y7576535D03*
%TD*%
D13*
%TO.C,R-S17*%
X-5483045Y-431525D03*
D14*
X-462909Y5881812D03*
D15*
X0Y0D03*
D14*
X4694288Y4080890D03*
D13*
X5483045Y431525D03*
D19*
X7784732Y4324113D03*
X-3553352Y5638589D03*
%TD*%
D13*
%TO.C,R-S15*%
X30596685Y15806327D03*
D14*
X35940356Y21848278D03*
D15*
X36094800Y15950300D03*
D14*
X40996232Y19779917D03*
D13*
X41592915Y16094273D03*
D20*
X44095170Y19861065D03*
X32841418Y21767130D03*
%TD*%
D17*
%TO.C,mbites7*%
X-15458900Y22917300D03*
X-15458900Y21917300D03*
X-15458900Y20917300D03*
X-15458900Y19917300D03*
X-15458900Y18917300D03*
X-15458900Y17917300D03*
%TD*%
D21*
%TO.C,R-BAT+2*%
X32163700Y-20376500D03*
%TD*%
D13*
%TO.C,L-S12*%
X-166202545Y-7571325D03*
D14*
X-161182409Y-1257988D03*
D15*
X-160719500Y-7139800D03*
D14*
X-156025212Y-3058910D03*
D13*
X-155236455Y-6708275D03*
D19*
X-152934768Y-2815687D03*
X-164272852Y-1501211D03*
%TD*%
D24*
%TO.C,L-D5*%
X-66109569Y27765535D03*
X-69496631Y28061865D03*
%TD*%
%TO.C,R-D6*%
X93236831Y3179735D03*
X89849769Y3476065D03*
%TD*%
%TO.C,R-D0*%
X94609831Y20625735D03*
X91222769Y20922065D03*
%TD*%
%TO.C,L-D10*%
X-85925569Y11770935D03*
X-89312631Y12067265D03*
%TD*%
D25*
%TO.C,L-D0*%
X-161220441Y20892486D03*
X-164612159Y20655314D03*
%TD*%
%TO.C,R-D10*%
X19315059Y12037686D03*
X15923341Y11800514D03*
%TD*%
D26*
%TO.C,L-D18*%
X-86594397Y-29436667D03*
X-89893403Y-28614133D03*
%TD*%
D24*
%TO.C,R-D12*%
X91863831Y-14266365D03*
X88476769Y-13970035D03*
%TD*%
D25*
%TO.C,L-D13*%
X-140031441Y-12548114D03*
X-143423159Y-12785286D03*
%TD*%
D24*
%TO.C,L-D16*%
X-87298669Y-5675065D03*
X-90685731Y-5378735D03*
%TD*%
%TO.C,R-D7*%
X74793831Y4631135D03*
X71406769Y4927465D03*
%TD*%
D25*
%TO.C,R-D4*%
X17941959Y29483786D03*
X14550241Y29246614D03*
%TD*%
D27*
%TO.C,L-D2*%
X-123828659Y38589369D03*
X-127228141Y38530031D03*
%TD*%
D28*
%TO.C,R-D8*%
X56769264Y21006271D03*
X53371336Y21124929D03*
%TD*%
%TO.C,R-D2*%
X57227364Y38500371D03*
X53829436Y38619029D03*
%TD*%
%TO.C,L-D15*%
X-104579136Y8893371D03*
X-107977064Y9012029D03*
%TD*%
D25*
%TO.C,R-D11*%
X872059Y10586186D03*
X-2519659Y10349014D03*
%TD*%
D27*
%TO.C,L-D14*%
X-122912459Y3601269D03*
X-126311941Y3541931D03*
%TD*%
D24*
%TO.C,L-D17*%
X-68855669Y-7126565D03*
X-72242731Y-6830235D03*
%TD*%
D25*
%TO.C,R-D5*%
X-501041Y28032286D03*
X-3892759Y27795114D03*
%TD*%
D26*
%TO.C,L-D20*%
X-50616697Y-38074167D03*
X-53915703Y-37251633D03*
%TD*%
D25*
%TO.C,L-D12*%
X-158474441Y-13999614D03*
X-161866159Y-14236786D03*
%TD*%
D28*
%TO.C,L-D3*%
X-103662936Y43881371D03*
X-107060864Y44000029D03*
%TD*%
%TO.C,L-D9*%
X-104121036Y26387371D03*
X-107518964Y26506029D03*
%TD*%
D29*
%TO.C,R-D18*%
X19900329Y-28642983D03*
X16587471Y-29407817D03*
%TD*%
%TO.C,R-D19*%
X1911529Y-32961683D03*
X-1401329Y-33726517D03*
%TD*%
D27*
%TO.C,R-D03*%
X37029741Y43929669D03*
X33630259Y43870331D03*
%TD*%
D28*
%TO.C,R-D14*%
X56311164Y3512271D03*
X52913236Y3630929D03*
%TD*%
D27*
%TO.C,R-D9*%
X37519741Y26476369D03*
X34120259Y26417031D03*
%TD*%
D29*
%TO.C,R-D20*%
X-16077371Y-37280483D03*
X-19390229Y-38045317D03*
%TD*%
D25*
%TO.C,L-D1*%
X-142777541Y22343986D03*
X-146169259Y22106814D03*
%TD*%
D24*
%TO.C,L-D4*%
X-84552569Y29217035D03*
X-87939631Y29513365D03*
%TD*%
D26*
%TO.C,L-D19*%
X-68605597Y-33755367D03*
X-71904603Y-32932833D03*
%TD*%
D24*
%TO.C,R-D1*%
X76166931Y22077235D03*
X72779869Y22373565D03*
%TD*%
D25*
%TO.C,L-D7*%
X-141404441Y4897886D03*
X-144796159Y4660714D03*
%TD*%
%TO.C,R-D17*%
X2245059Y-6859814D03*
X-1146659Y-7096986D03*
%TD*%
D27*
%TO.C,L-D8*%
X-123370559Y21095269D03*
X-126770041Y21035931D03*
%TD*%
%TO.C,R-D15*%
X37977841Y8982369D03*
X34578359Y8923031D03*
%TD*%
D24*
%TO.C,R-D13*%
X73420831Y-12814865D03*
X70033769Y-12518535D03*
%TD*%
D25*
%TO.C,L-D6*%
X-159847441Y3446486D03*
X-163239159Y3209314D03*
%TD*%
D24*
%TO.C,L-D11*%
X-67482669Y10319435D03*
X-70869731Y10615765D03*
%TD*%
D25*
%TO.C,R-D16*%
X20688059Y-5408314D03*
X17296341Y-5645486D03*
%TD*%
M02*
