%TF.GenerationSoftware,KiCad,Pcbnew,9.0.0*%
%TF.CreationDate,2025-07-06T20:28:58+03:00*%
%TF.ProjectId,NIOKR,4e494f4b-522e-46b6-9963-61645f706362,rev?*%
%TF.SameCoordinates,Original*%
%TF.FileFunction,Soldermask,Top*%
%TF.FilePolarity,Negative*%
%FSLAX46Y46*%
G04 Gerber Fmt 4.6, Leading zero omitted, Abs format (unit mm)*
G04 Created by KiCad (PCBNEW 9.0.0) date 2025-07-06 20:28:58*
%MOMM*%
%LPD*%
G01*
G04 APERTURE LIST*
G04 Aperture macros list*
%AMRoundRect*
0 Rectangle with rounded corners*
0 $1 Rounding radius*
0 $2 $3 $4 $5 $6 $7 $8 $9 X,Y pos of 4 corners*
0 Add a 4 corners polygon primitive as box body*
4,1,4,$2,$3,$4,$5,$6,$7,$8,$9,$2,$3,0*
0 Add four circle primitives for the rounded corners*
1,1,$1+$1,$2,$3*
1,1,$1+$1,$4,$5*
1,1,$1+$1,$6,$7*
1,1,$1+$1,$8,$9*
0 Add four rect primitives between the rounded corners*
20,1,$1+$1,$2,$3,$4,$5,0*
20,1,$1+$1,$4,$5,$6,$7,0*
20,1,$1+$1,$6,$7,$8,$9,0*
20,1,$1+$1,$8,$9,$2,$3,0*%
G04 Aperture macros list end*
%ADD10RoundRect,0.250000X-0.792903X-0.457635X0.701389X-0.588369X0.792903X0.457635X-0.701389X0.588369X0*%
%ADD11RoundRect,0.250000X-0.711551X-0.576038X0.784795X-0.471404X0.711551X0.576038X-0.784795X0.471404X0*%
%ADD12C,0.900000*%
%ADD13RoundRect,0.175000X0.325000X-0.175000X0.325000X0.175000X-0.325000X0.175000X-0.325000X-0.175000X0*%
%ADD14RoundRect,0.250000X-1.150000X-0.250000X1.150000X-0.250000X1.150000X0.250000X-1.150000X0.250000X0*%
%ADD15C,1.900000*%
%ADD16C,3.000000*%
%ADD17C,5.100000*%
%ADD18C,0.600000*%
%ADD19C,2.540000*%
%ADD20RoundRect,0.175000X-0.325000X0.175000X-0.325000X-0.175000X0.325000X-0.175000X0.325000X0.175000X0*%
%ADD21RoundRect,0.250000X1.150000X0.250000X-1.150000X0.250000X-1.150000X-0.250000X1.150000X-0.250000X0*%
G04 APERTURE END LIST*
D10*
%TO.C,U1*%
X-123931435Y-26227011D03*
X-123710059Y-23696677D03*
X-123488683Y-21166342D03*
X-123267308Y-18636008D03*
X-123045932Y-16105673D03*
X-122824557Y-13575339D03*
X-122603181Y-11045004D03*
X-104492361Y-12629495D03*
X-104713737Y-15159830D03*
X-104935113Y-17690164D03*
X-105156488Y-20220499D03*
X-105377864Y-22750834D03*
X-105599239Y-25281168D03*
X-105820615Y-27811503D03*
%TD*%
D11*
%TO.C,U2*%
X35684649Y-27663064D03*
X35507467Y-25129252D03*
X35330286Y-22595439D03*
X35153105Y-20061626D03*
X34975923Y-17527814D03*
X34798742Y-14994001D03*
X34621560Y-12460188D03*
X52757275Y-11192016D03*
X52934456Y-13725828D03*
X53111638Y-16259641D03*
X53288819Y-18793454D03*
X53466000Y-21327266D03*
X53643182Y-23861079D03*
X53820363Y-26394892D03*
%TD*%
D12*
%TO.C,L-PSW1*%
X-172558800Y-23503500D03*
X-172508800Y-20503500D03*
D13*
X-170708800Y-19753500D03*
X-170708800Y-22753500D03*
X-170708800Y-24253500D03*
D14*
X-172608800Y-18153500D03*
X-172608800Y-26103500D03*
%TD*%
D15*
%TO.C,R-S2*%
X50213485Y45701273D03*
D16*
X55866044Y51455278D03*
D17*
X55711600Y45557300D03*
D16*
X60806741Y49125147D03*
D15*
X61209715Y45413327D03*
%TD*%
D18*
%TO.C,mbites4*%
X-13460600Y1914600D03*
X-13460600Y914600D03*
X-13460600Y-85400D03*
X-13460600Y-1085400D03*
X-13460600Y-2085400D03*
X-13460600Y-3085400D03*
%TD*%
D15*
%TO.C,R-S1*%
X69539555Y29635325D03*
D16*
X75485509Y35085612D03*
D17*
X75022600Y29203800D03*
D16*
X80297485Y32500099D03*
D15*
X80505645Y28772275D03*
%TD*%
%TO.C,L-S0*%
X-168948545Y27320775D03*
D16*
X-163928409Y33634112D03*
D17*
X-163465500Y27752300D03*
D16*
X-158771212Y31833190D03*
D15*
X-157982455Y28183825D03*
%TD*%
%TO.C,R-S5*%
X-8229145Y34460575D03*
D16*
X-3209009Y40773912D03*
D17*
X-2746100Y34892100D03*
D16*
X1948188Y38972990D03*
D15*
X2736945Y35323625D03*
%TD*%
%TO.C,L-S8*%
X-130751615Y27919227D03*
D16*
X-125407944Y33961178D03*
D17*
X-125253500Y28063200D03*
D16*
X-120352068Y31892817D03*
D15*
X-119755385Y28207173D03*
%TD*%
%TO.C,L-S2*%
X-131209715Y45413327D03*
D16*
X-125866044Y51455278D03*
D17*
X-125711600Y45557300D03*
D16*
X-120810168Y49386917D03*
D15*
X-120213485Y45701273D03*
%TD*%
%TO.C,R-S6*%
X86609455Y10737825D03*
D16*
X92555409Y16188112D03*
D17*
X92092500Y10306300D03*
D16*
X97367385Y13602599D03*
D15*
X97575545Y9874775D03*
%TD*%
D19*
%TO.C,L-BAT+1*%
X-109449000Y754900D03*
%TD*%
%TO.C,L-GND1*%
X-103449000Y754900D03*
%TD*%
D15*
%TO.C,R-S8*%
X49755385Y28207173D03*
D16*
X55407944Y33961178D03*
D17*
X55253500Y28063200D03*
D16*
X60348641Y31631047D03*
D15*
X60751615Y27919227D03*
%TD*%
%TO.C,L-S11*%
X-74110045Y17877625D03*
D16*
X-68164091Y23327912D03*
D17*
X-68627000Y17446100D03*
D16*
X-63352115Y20742399D03*
D15*
X-63143955Y17014575D03*
%TD*%
%TO.C,L-S20*%
X-55980135Y-29572350D03*
D16*
X-49254772Y-25119317D03*
D17*
X-50632100Y-30856300D03*
D16*
X-44906503Y-28425758D03*
D15*
X-45284065Y-32140250D03*
%TD*%
D18*
%TO.C,mbites1*%
X-56539400Y22914800D03*
X-56539400Y21914800D03*
X-56539400Y20914800D03*
X-56539400Y19914800D03*
X-56539400Y18914800D03*
X-56539400Y17914800D03*
%TD*%
D15*
%TO.C,L-S18*%
X-91957835Y-20934850D03*
D16*
X-85232472Y-16481817D03*
D17*
X-86609800Y-22218800D03*
D16*
X-80884203Y-19788258D03*
D15*
X-81261765Y-23502750D03*
%TD*%
D18*
%TO.C,mbites2*%
X-56536600Y1917300D03*
X-56536600Y917300D03*
X-56536600Y-82700D03*
X-56536600Y-1082700D03*
X-56536600Y-2082700D03*
X-56536600Y-3082700D03*
%TD*%
D15*
%TO.C,L-S5*%
X-72736945Y35323625D03*
D16*
X-66790991Y40773912D03*
D17*
X-67253900Y34892100D03*
D16*
X-61979015Y38188399D03*
D15*
X-61770855Y34460575D03*
%TD*%
%TO.C,R-S14*%
X49297285Y10713173D03*
D16*
X54949844Y16467178D03*
D17*
X54795400Y10569200D03*
D16*
X59890541Y14137047D03*
D15*
X60293515Y10425227D03*
%TD*%
%TO.C,R-S4*%
X10213855Y35912075D03*
D16*
X15233991Y42225412D03*
D17*
X15696900Y36343600D03*
D16*
X20391188Y40424490D03*
D15*
X21179945Y36775125D03*
%TD*%
%TO.C,R-S3*%
X29680485Y50794327D03*
D16*
X35024156Y56836278D03*
D17*
X35178600Y50938300D03*
D16*
X40080032Y54767917D03*
D15*
X40676715Y51082273D03*
%TD*%
%TO.C,L-S14*%
X-130293515Y10425227D03*
D16*
X-124949844Y16467178D03*
D17*
X-124795400Y10569200D03*
D16*
X-119893968Y14398817D03*
D15*
X-119297285Y10713173D03*
%TD*%
%TO.C,R-S18*%
X11261765Y-23502750D03*
D16*
X15232472Y-16481817D03*
D17*
X16609800Y-22218800D03*
D16*
X20607902Y-17453804D03*
D15*
X21957835Y-20934850D03*
%TD*%
%TO.C,L-S9*%
X-111134815Y33588273D03*
D16*
X-105482256Y39342278D03*
D17*
X-105636700Y33444300D03*
D16*
X-100541559Y37012147D03*
D15*
X-100138585Y33300327D03*
%TD*%
%TO.C,L-S3*%
X-110676715Y51082273D03*
D16*
X-105024156Y56836278D03*
D17*
X-105178600Y50938300D03*
D16*
X-100083459Y54506147D03*
D15*
X-99680485Y50794327D03*
%TD*%
%TO.C,R-S7*%
X68166455Y12189325D03*
D16*
X74112409Y17639612D03*
D17*
X73649500Y11757800D03*
D16*
X78924385Y15054099D03*
D15*
X79132545Y11326275D03*
%TD*%
%TO.C,L-S6*%
X-167575545Y9874775D03*
D16*
X-162555409Y16188112D03*
D17*
X-162092500Y10306300D03*
D16*
X-157398212Y14387190D03*
D15*
X-156609455Y10737825D03*
%TD*%
%TO.C,R-S10*%
X11586855Y18465975D03*
D16*
X16606991Y24779312D03*
D17*
X17069900Y18897500D03*
D16*
X21764188Y22978390D03*
D15*
X22552945Y19329025D03*
%TD*%
%TO.C,L-S7*%
X-149132545Y11326275D03*
D16*
X-144112409Y17639612D03*
D17*
X-143649500Y11757800D03*
D16*
X-138955212Y15838690D03*
D15*
X-138166455Y12189325D03*
%TD*%
%TO.C,R-S9*%
X30138585Y33300327D03*
D16*
X35482256Y39342278D03*
D17*
X35636700Y33444300D03*
D16*
X40538132Y37273917D03*
D15*
X41134815Y33588273D03*
%TD*%
%TO.C,R-S19*%
X-6727135Y-27821450D03*
D16*
X-2756428Y-20800517D03*
D17*
X-1379100Y-26537500D03*
D16*
X2619002Y-21772504D03*
D15*
X3968935Y-25253550D03*
%TD*%
D18*
%TO.C,mbites3*%
X-13459000Y22917200D03*
X-13459000Y21917200D03*
X-13459000Y20917200D03*
X-13459000Y19917200D03*
X-13459000Y18917200D03*
X-13459000Y17917200D03*
%TD*%
D15*
%TO.C,R-S11*%
X-6856045Y17014575D03*
D16*
X-1835909Y23327912D03*
D17*
X-1373000Y17446100D03*
D16*
X3321288Y21526990D03*
D15*
X4110045Y17877625D03*
%TD*%
%TO.C,L-S1*%
X-150505645Y28772275D03*
D16*
X-145485509Y35085612D03*
D17*
X-145022600Y29203800D03*
D16*
X-140328312Y33284690D03*
D15*
X-139539555Y29635325D03*
%TD*%
%TO.C,R-S13*%
X66793455Y-5256775D03*
D16*
X72739409Y193512D03*
D17*
X72276500Y-5688300D03*
D16*
X77551385Y-2392001D03*
D15*
X77759545Y-6119825D03*
%TD*%
D18*
%TO.C,mbites6*%
X-54539400Y1914600D03*
X-54539400Y914600D03*
X-54539400Y-85400D03*
X-54539400Y-1085400D03*
X-54539400Y-2085400D03*
X-54539400Y-3085400D03*
%TD*%
D19*
%TO.C,L-BAT+2*%
X-126268800Y-18479400D03*
%TD*%
D15*
%TO.C,L-S17*%
X-75483045Y431525D03*
D16*
X-69537091Y5881812D03*
D17*
X-70000000Y0D03*
D16*
X-64725115Y3296299D03*
D15*
X-64516955Y-431525D03*
%TD*%
D19*
%TO.C,R-BAT+1*%
X39449000Y754900D03*
%TD*%
D15*
%TO.C,L-S4*%
X-91179945Y36775125D03*
D16*
X-85233991Y42225412D03*
D17*
X-85696900Y36343600D03*
D16*
X-80422015Y39639899D03*
D15*
X-80213855Y35912075D03*
%TD*%
D12*
%TO.C,R-PSW1*%
X102558800Y-20751000D03*
X102508800Y-23751000D03*
D20*
X100708800Y-24501000D03*
X100708800Y-21501000D03*
X100708800Y-20001000D03*
D21*
X102608800Y-26101000D03*
X102608800Y-18151000D03*
%TD*%
D15*
%TO.C,L-S15*%
X-111592915Y16094273D03*
D16*
X-105940356Y21848278D03*
D17*
X-106094800Y15950300D03*
D16*
X-100999659Y19518147D03*
D15*
X-100596685Y15806327D03*
%TD*%
%TO.C,R-S20*%
X-24715935Y-32140250D03*
D16*
X-20745228Y-25119317D03*
D17*
X-19367900Y-30856300D03*
D16*
X-15369798Y-26091304D03*
D15*
X-14019865Y-29572350D03*
%TD*%
D19*
%TO.C,R-GND1*%
X33449000Y754900D03*
%TD*%
D15*
%TO.C,L-S19*%
X-73969035Y-25253550D03*
D16*
X-67243672Y-20800517D03*
D17*
X-68621000Y-26537500D03*
D16*
X-62895403Y-24106958D03*
D15*
X-63272965Y-27821450D03*
%TD*%
%TO.C,R-S16*%
X12959955Y1019975D03*
D16*
X17980091Y7333312D03*
D17*
X18443000Y1451500D03*
D16*
X23137288Y5532390D03*
D15*
X23926045Y1883025D03*
%TD*%
%TO.C,R-S12*%
X85236455Y-6708275D03*
D16*
X91182409Y-1257988D03*
D17*
X90719500Y-7139800D03*
D16*
X95994385Y-3843501D03*
D15*
X96202545Y-7571325D03*
%TD*%
%TO.C,L-S10*%
X-92552945Y19329025D03*
D16*
X-86606991Y24779312D03*
D17*
X-87069900Y18897500D03*
D16*
X-81795015Y22193799D03*
D15*
X-81586855Y18465975D03*
%TD*%
%TO.C,R-S0*%
X87982455Y28183825D03*
D16*
X93928409Y33634112D03*
D17*
X93465500Y27752300D03*
D16*
X98740385Y31048599D03*
D15*
X98948545Y27320775D03*
%TD*%
D18*
%TO.C,mbites8*%
X-15460600Y1914800D03*
X-15460600Y914800D03*
X-15460600Y-85200D03*
X-15460600Y-1085200D03*
X-15460600Y-2085200D03*
X-15460600Y-3085200D03*
%TD*%
D15*
%TO.C,L-S13*%
X-147759545Y-6119825D03*
D16*
X-142739409Y193512D03*
D17*
X-142276500Y-5688300D03*
D16*
X-137582212Y-1607410D03*
D15*
X-136793455Y-5256775D03*
%TD*%
D18*
%TO.C,mbites5*%
X-54539400Y22914600D03*
X-54539400Y21914600D03*
X-54539400Y20914600D03*
X-54539400Y19914600D03*
X-54539400Y18914600D03*
X-54539400Y17914600D03*
%TD*%
D15*
%TO.C,L-S16*%
X-93926045Y1883025D03*
D16*
X-87980091Y7333312D03*
D17*
X-88443000Y1451500D03*
D16*
X-83168115Y4747799D03*
D15*
X-82959955Y1019975D03*
%TD*%
%TO.C,R-S17*%
X-5483045Y-431525D03*
D16*
X-462909Y5881812D03*
D17*
X0Y0D03*
D16*
X4694288Y4080890D03*
D15*
X5483045Y431525D03*
%TD*%
%TO.C,R-S15*%
X30596685Y15806327D03*
D16*
X35940356Y21848278D03*
D17*
X36094800Y15950300D03*
D16*
X40996232Y19779917D03*
D15*
X41592915Y16094273D03*
%TD*%
D18*
%TO.C,mbites7*%
X-15458900Y22917300D03*
X-15458900Y21917300D03*
X-15458900Y20917300D03*
X-15458900Y19917300D03*
X-15458900Y18917300D03*
X-15458900Y17917300D03*
%TD*%
D19*
%TO.C,R-BAT+2*%
X32163700Y-20376500D03*
%TD*%
D15*
%TO.C,L-S12*%
X-166202545Y-7571325D03*
D16*
X-161182409Y-1257988D03*
D17*
X-160719500Y-7139800D03*
D16*
X-156025212Y-3058910D03*
D15*
X-155236455Y-6708275D03*
%TD*%
M02*
