M48
; DRILL file {KiCad 9.0.0} date 2025-07-06T20:29:46+0300
; FORMAT={-:-/ absolute / inch / decimal}
; #@! TF.CreationDate,2025-07-06T20:29:46+03:00
; #@! TF.GenerationSoftware,Kicad,Pcbnew,9.0.0
; #@! TF.FileFunction,NonPlated,1,2,NPTH
FMAT,2
INCH
; #@! TA.AperFunction,NonPlated,NPTH,ComponentDrill
T1C0.0236
; #@! TA.AperFunction,NonPlated,NPTH,ComponentDrill
T2C0.0276
; #@! TA.AperFunction,NonPlated,NPTH,ComponentDrill
T3C0.0748
; #@! TA.AperFunction,NonPlated,NPTH,ComponentDrill
T4C0.1181
; #@! TA.AperFunction,NonPlated,NPTH,ComponentDrill
T5C0.2008
%
G90
G05
T1
X-2.226Y0.9022
X-2.226Y0.8628
X-2.226Y0.8234
X-2.226Y0.784
X-2.226Y0.7447
X-2.226Y0.7053
X-2.2259Y0.0755
X-2.2259Y0.0361
X-2.2259Y-0.0033
X-2.2259Y-0.0426
X-2.2259Y-0.082
X-2.2259Y-0.1214
X-2.1472Y0.9021
X-2.1472Y0.8628
X-2.1472Y0.8234
X-2.1472Y0.784
X-2.1472Y0.7447
X-2.1472Y0.7053
X-2.1472Y0.0754
X-2.1472Y0.036
X-2.1472Y-0.0034
X-2.1472Y-0.0427
X-2.1472Y-0.0821
X-2.1472Y-0.1215
X-0.6087Y0.0754
X-0.6087Y0.036
X-0.6087Y-0.0034
X-0.6087Y-0.0427
X-0.6087Y-0.0821
X-0.6087Y-0.1215
X-0.6086Y0.9023
X-0.6086Y0.8629
X-0.6086Y0.8235
X-0.6086Y0.7841
X-0.6086Y0.7448
X-0.6086Y0.7054
X-0.5299Y0.0754
X-0.5299Y0.036
X-0.5299Y-0.0034
X-0.5299Y-0.0427
X-0.5299Y-0.0821
X-0.5299Y-0.1215
X-0.5299Y0.9023
X-0.5299Y0.8629
X-0.5299Y0.8235
X-0.5299Y0.7841
X-0.5299Y0.7448
X-0.5299Y0.7054
T2
X-6.7937Y-0.9253
X-6.7917Y-0.8072
X4.0358Y-0.9351
X4.0377Y-0.817
T3
X-6.6515Y1.0756
X-6.5975Y0.3888
X-6.5434Y-0.2981
X-6.2198Y1.1096
X-6.1657Y0.4227
X-6.1117Y-0.2641
X-5.9254Y1.1328
X-5.8714Y0.4459
X-5.8173Y-0.2409
X-5.4937Y1.1667
X-5.4396Y0.4799
X-5.3856Y-0.207
X-5.1657Y1.7879
X-5.1477Y1.0992
X-5.1297Y0.4104
X-4.7328Y1.7993
X-4.7148Y1.1105
X-4.6967Y0.4218
X-4.3934Y0.6336
X-4.3754Y1.3224
X-4.3574Y2.0111
X-3.9605Y0.6223
X-3.9425Y1.311
X-3.9244Y1.9998
X-3.6979Y0.0741
X-3.6438Y0.761
X-3.6204Y-0.8242
X-3.5898Y1.4478
X-3.2661Y0.0402
X-3.2121Y0.727
X-3.1993Y-0.9253
X-3.158Y1.4139
X-2.9718Y0.017
X-2.9177Y0.7038
X-2.9122Y-0.9942
X-2.8637Y1.3907
X-2.54Y-0.017
X-2.4911Y-1.0953
X-2.486Y0.6699
X-2.4319Y1.3567
X-2.2039Y-1.1643
X-1.7828Y-1.2654
X-0.9731Y-1.2654
X-0.552Y-1.1643
X-0.324Y1.3567
X-0.2699Y0.6699
X-0.2648Y-1.0953
X-0.2159Y-0.017
X0.1078Y1.3907
X0.1563Y-0.9942
X0.1618Y0.7038
X0.2159Y0.017
X0.4021Y1.4139
X0.4434Y-0.9253
X0.4562Y0.727
X0.5102Y0.0402
X0.8339Y1.4478
X0.8645Y-0.8242
X0.8879Y0.761
X0.942Y0.0741
X1.1685Y1.9998
X1.1866Y1.311
X1.2046Y0.6223
X1.6014Y2.0111
X1.6195Y1.3224
X1.6375Y0.6336
X1.9408Y0.4218
X1.9589Y1.1105
X1.9769Y1.7993
X2.3738Y0.4104
X2.3918Y1.0992
X2.4098Y1.7879
X2.6297Y-0.207
X2.6837Y0.4799
X2.7378Y1.1667
X3.0614Y-0.2409
X3.1155Y0.4459
X3.1695Y1.1328
X3.3558Y-0.2641
X3.4098Y0.4227
X3.4639Y1.1096
X3.7875Y-0.2981
X3.8416Y0.3888
X3.8956Y1.0756
T4
X-6.4539Y1.3242
X-6.3998Y0.6373
X-6.3458Y-0.0495
X-6.2508Y1.2533
X-6.1968Y0.5664
X-6.1427Y-0.1204
X-5.7278Y1.3813
X-5.6737Y0.6945
X-5.6197Y0.0076
X-5.5247Y1.3104
X-5.4707Y0.6236
X-5.4166Y-0.0633
X-4.9554Y2.0258
X-4.9373Y1.3371
X-4.9193Y0.6483
X-4.7563Y1.9444
X-4.7383Y1.2556
X-4.7202Y0.5669
X-4.1709Y0.8602
X-4.1528Y1.5489
X-4.1348Y2.2376
X-3.9764Y0.7684
X-3.9583Y1.4572
X-3.9403Y2.1459
X-3.4638Y0.2887
X-3.4097Y0.9756
X-3.3557Y1.6624
X-3.3556Y-0.6489
X-3.2743Y0.1869
X-3.2203Y0.8738
X-3.1844Y-0.7791
X-3.1662Y1.5606
X-2.7377Y0.2316
X-2.6836Y0.9184
X-2.6474Y-0.8189
X-2.6296Y1.6053
X-2.5482Y0.1298
X-2.4942Y0.8166
X-2.4762Y-0.9491
X-2.4401Y1.5035
X-1.9392Y-0.9889
X-1.768Y-1.1191
X-0.8167Y-0.9889
X-0.6051Y-1.0272
X-0.1263Y1.6053
X-0.1085Y-0.8189
X-0.0723Y0.9184
X-0.0182Y0.2316
X0.0767Y1.5344
X0.1031Y-0.8572
X0.1308Y0.8475
X0.1848Y0.1607
X0.5997Y-0.6489
X0.5998Y1.6624
X0.6538Y0.9756
X0.7079Y0.2887
X0.8028Y1.5915
X0.8113Y-0.6872
X0.8569Y0.9047
X0.9109Y0.2178
X1.3789Y2.2376
X1.3969Y1.5489
X1.415Y0.8602
X1.578Y2.1562
X1.596Y1.4675
X1.614Y0.7787
X2.1634Y0.6483
X2.1814Y1.3371
X2.1995Y2.0258
X2.3579Y0.5566
X2.3759Y1.2453
X2.394Y1.9341
X2.8638Y0.0076
X2.9178Y0.6945
X2.9719Y1.3813
X3.0532Y-0.0942
X3.1073Y0.5927
X3.1613Y1.2795
X3.5899Y-0.0495
X3.6439Y0.6373
X3.698Y1.3242
X3.7793Y-0.1513
X3.8334Y0.5355
X3.8874Y1.2224
T5
X-6.4356Y1.0926
X-6.3816Y0.4058
X-6.3275Y-0.2811
X-5.7096Y1.1498
X-5.6555Y0.4629
X-5.6014Y-0.2239
X-4.9493Y1.7936
X-4.9312Y1.1049
X-4.9132Y0.4161
X-4.177Y0.628
X-4.1589Y1.3167
X-4.1409Y2.0054
X-3.482Y0.0571
X-3.4279Y0.744
X-3.4098Y-0.8748
X-3.3739Y1.4309
X-2.7559Y0.0
X-2.7019Y0.6869
X-2.7016Y-1.0448
X-2.6478Y1.3737
X-1.9934Y-1.2148
X-0.7625Y-1.2148
X-0.1081Y1.3737
X-0.0543Y-1.0448
X-0.0541Y0.6869
X0.0Y0.0
X0.618Y1.4309
X0.6539Y-0.8748
X0.672Y0.744
X0.7261Y0.0571
X1.385Y2.0054
X1.403Y1.3167
X1.4211Y0.628
X2.1573Y0.4161
X2.1753Y1.1049
X2.1934Y1.7936
X2.8455Y-0.2239
X2.8996Y0.4629
X2.9536Y1.1498
X3.5716Y-0.2811
X3.6257Y0.4058
X3.6797Y1.0926
M30
