%TF.GenerationSoftware,KiCad,Pcbnew,9.0.0*%
%TF.CreationDate,2025-07-06T20:28:58+03:00*%
%TF.ProjectId,NIOKR,4e494f4b-522e-46b6-9963-61645f706362,rev?*%
%TF.SameCoordinates,Original*%
%TF.FileFunction,Paste,Bot*%
%TF.FilePolarity,Positive*%
%FSLAX46Y46*%
G04 Gerber Fmt 4.6, Leading zero omitted, Abs format (unit mm)*
G04 Created by KiCad (PCBNEW 9.0.0) date 2025-07-06 20:28:58*
%MOMM*%
%LPD*%
G01*
G04 APERTURE LIST*
G04 Aperture macros list*
%AMRoundRect*
0 Rectangle with rounded corners*
0 $1 Rounding radius*
0 $2 $3 $4 $5 $6 $7 $8 $9 X,Y pos of 4 corners*
0 Add a 4 corners polygon primitive as box body*
4,1,4,$2,$3,$4,$5,$6,$7,$8,$9,$2,$3,0*
0 Add four circle primitives for the rounded corners*
1,1,$1+$1,$2,$3*
1,1,$1+$1,$4,$5*
1,1,$1+$1,$6,$7*
1,1,$1+$1,$8,$9*
0 Add four rect primitives between the rounded corners*
20,1,$1+$1,$2,$3,$4,$5,0*
20,1,$1+$1,$4,$5,$6,$7,0*
20,1,$1+$1,$6,$7,$8,$9,0*
20,1,$1+$1,$8,$9,$2,$3,0*%
G04 Aperture macros list end*
%ADD10RoundRect,0.250000X0.927177X1.026081X-0.872206X1.073199X-0.927177X-1.026081X0.872206X-1.073199X0*%
%ADD11RoundRect,0.250000X0.979608X0.976150X-0.814844X1.117376X-0.979608X-0.976150X0.814844X-1.117376X0*%
%ADD12RoundRect,0.250000X0.814844X1.117376X-0.979608X0.976150X-0.814844X-1.117376X0.979608X-0.976150X0*%
%ADD13RoundRect,0.250000X0.872206X1.073199X-0.927177X1.026081X-0.872206X-1.073199X0.927177X-1.026081X0*%
%ADD14RoundRect,0.250000X1.120251X0.810888X-0.630015X1.231089X-1.120251X-0.810888X0.630015X-1.231089X0*%
%ADD15RoundRect,0.250000X0.630015X1.231089X-1.120251X0.810888X-0.630015X-1.231089X1.120251X-0.810888X0*%
%ADD16RoundRect,0.250000X0.691104X0.441446X-0.603949X0.554749X-0.691104X-0.441446X0.603949X-0.554749X0*%
%ADD17RoundRect,0.250000X0.613538X0.544124X-0.683295X0.453440X-0.613538X-0.544124X0.683295X-0.453440X0*%
%ADD18RoundRect,0.250000X0.751653X0.327899X-0.509731X0.642397X-0.751653X-0.327899X0.509731X-0.642397X0*%
%ADD19RoundRect,0.250000X0.641175X0.511268X-0.658627X0.488580X-0.641175X-0.511268X0.658627X-0.488580X0*%
%ADD20RoundRect,0.250000X0.667054X0.477011X-0.632154X0.522380X-0.667054X-0.477011X0.632154X-0.522380X0*%
%ADD21RoundRect,0.250000X0.520865X0.633403X-0.745816X0.340967X-0.520865X-0.633403X0.745816X-0.340967X0*%
G04 APERTURE END LIST*
D10*
%TO.C,R-S2*%
X63905679Y49043999D03*
X52767106Y51536427D03*
%TD*%
D11*
%TO.C,R-S1*%
X83387929Y32256875D03*
X72395065Y35328835D03*
%TD*%
D12*
%TO.C,L-S0*%
X-155680768Y32076413D03*
X-167018852Y33390889D03*
%TD*%
%TO.C,R-S5*%
X5038632Y39216213D03*
X-6299452Y40530689D03*
%TD*%
D13*
%TO.C,L-S8*%
X-117253130Y31973965D03*
X-128506882Y33880030D03*
%TD*%
%TO.C,L-S2*%
X-117711230Y49468065D03*
X-128964982Y51374130D03*
%TD*%
D11*
%TO.C,R-S6*%
X100457829Y13359375D03*
X89464965Y16431335D03*
%TD*%
D10*
%TO.C,R-S8*%
X63447579Y31549899D03*
X52309006Y34042327D03*
%TD*%
D11*
%TO.C,L-S11*%
X-60261671Y20499175D03*
X-71254535Y23571135D03*
%TD*%
D14*
%TO.C,L-S20*%
X-41892156Y-29149439D03*
X-52269119Y-24395637D03*
%TD*%
%TO.C,L-S18*%
X-77869856Y-20511939D03*
X-88246819Y-15758137D03*
%TD*%
D11*
%TO.C,L-S5*%
X-58888571Y37945175D03*
X-69881435Y41017135D03*
%TD*%
D10*
%TO.C,R-S14*%
X62989479Y14055899D03*
X51850906Y16548327D03*
%TD*%
D12*
%TO.C,R-S4*%
X23481632Y40667713D03*
X12143548Y41982189D03*
%TD*%
D13*
%TO.C,R-S3*%
X43178970Y54849065D03*
X31925218Y56755130D03*
%TD*%
%TO.C,L-S14*%
X-116795030Y14479965D03*
X-128048782Y16386030D03*
%TD*%
D15*
%TO.C,R-S18*%
X23622249Y-16730124D03*
X12218126Y-17205498D03*
%TD*%
D10*
%TO.C,L-S9*%
X-97442621Y36930999D03*
X-108581194Y39423427D03*
%TD*%
%TO.C,L-S3*%
X-96984521Y54424999D03*
X-108123094Y56917427D03*
%TD*%
D11*
%TO.C,R-S7*%
X82014829Y14810875D03*
X71021965Y17882835D03*
%TD*%
D12*
%TO.C,L-S6*%
X-154307768Y14630413D03*
X-165645852Y15944889D03*
%TD*%
%TO.C,R-S10*%
X24854632Y23221613D03*
X13516548Y24536089D03*
%TD*%
%TO.C,L-S7*%
X-135864768Y16081913D03*
X-147202852Y17396389D03*
%TD*%
D13*
%TO.C,R-S9*%
X43637070Y37355065D03*
X32383318Y39261130D03*
%TD*%
D15*
%TO.C,R-S19*%
X5633349Y-21048824D03*
X-5770774Y-21524198D03*
%TD*%
D12*
%TO.C,R-S11*%
X6411732Y21770213D03*
X-4926352Y23084689D03*
%TD*%
%TO.C,L-S1*%
X-137237868Y33527913D03*
X-148575952Y34842389D03*
%TD*%
D11*
%TO.C,R-S13*%
X80641829Y-2635225D03*
X69648965Y436735D03*
%TD*%
%TO.C,L-S17*%
X-61634671Y3053075D03*
X-72627535Y6125035D03*
%TD*%
%TO.C,L-S4*%
X-77331571Y39396675D03*
X-88324435Y42468635D03*
%TD*%
D10*
%TO.C,L-S15*%
X-97900721Y19436999D03*
X-109039294Y21929427D03*
%TD*%
D15*
%TO.C,R-S20*%
X-12355451Y-25367624D03*
X-23759574Y-25842998D03*
%TD*%
D14*
%TO.C,L-S19*%
X-59881056Y-24830639D03*
X-70258019Y-20076837D03*
%TD*%
D12*
%TO.C,R-S16*%
X26227732Y5775613D03*
X14889648Y7090089D03*
%TD*%
D11*
%TO.C,R-S12*%
X99084829Y-4086725D03*
X88091965Y-1014765D03*
%TD*%
%TO.C,L-S10*%
X-78704571Y21950575D03*
X-89697435Y25022535D03*
%TD*%
%TO.C,R-S0*%
X101830829Y30805375D03*
X90837965Y33877335D03*
%TD*%
D12*
%TO.C,L-S13*%
X-134491768Y-1364187D03*
X-145829852Y-49711D03*
%TD*%
D11*
%TO.C,L-S16*%
X-80077671Y4504575D03*
X-91070535Y7576535D03*
%TD*%
D12*
%TO.C,R-S17*%
X7784732Y4324113D03*
X-3553352Y5638589D03*
%TD*%
D13*
%TO.C,R-S15*%
X44095170Y19861065D03*
X32841418Y21767130D03*
%TD*%
D12*
%TO.C,L-S12*%
X-152934768Y-2815687D03*
X-164272852Y-1501211D03*
%TD*%
D16*
%TO.C,L-D5*%
X-66109569Y27765535D03*
X-69496631Y28061865D03*
%TD*%
%TO.C,R-D6*%
X93236831Y3179735D03*
X89849769Y3476065D03*
%TD*%
%TO.C,R-D0*%
X94609831Y20625735D03*
X91222769Y20922065D03*
%TD*%
%TO.C,L-D10*%
X-85925569Y11770935D03*
X-89312631Y12067265D03*
%TD*%
D17*
%TO.C,L-D0*%
X-161220441Y20892486D03*
X-164612159Y20655314D03*
%TD*%
%TO.C,R-D10*%
X19315059Y12037686D03*
X15923341Y11800514D03*
%TD*%
D18*
%TO.C,L-D18*%
X-86594397Y-29436667D03*
X-89893403Y-28614133D03*
%TD*%
D16*
%TO.C,R-D12*%
X91863831Y-14266365D03*
X88476769Y-13970035D03*
%TD*%
D17*
%TO.C,L-D13*%
X-140031441Y-12548114D03*
X-143423159Y-12785286D03*
%TD*%
D16*
%TO.C,L-D16*%
X-87298669Y-5675065D03*
X-90685731Y-5378735D03*
%TD*%
%TO.C,R-D7*%
X74793831Y4631135D03*
X71406769Y4927465D03*
%TD*%
D17*
%TO.C,R-D4*%
X17941959Y29483786D03*
X14550241Y29246614D03*
%TD*%
D19*
%TO.C,L-D2*%
X-123828659Y38589369D03*
X-127228141Y38530031D03*
%TD*%
D20*
%TO.C,R-D8*%
X56769264Y21006271D03*
X53371336Y21124929D03*
%TD*%
%TO.C,R-D2*%
X57227364Y38500371D03*
X53829436Y38619029D03*
%TD*%
%TO.C,L-D15*%
X-104579136Y8893371D03*
X-107977064Y9012029D03*
%TD*%
D17*
%TO.C,R-D11*%
X872059Y10586186D03*
X-2519659Y10349014D03*
%TD*%
D19*
%TO.C,L-D14*%
X-122912459Y3601269D03*
X-126311941Y3541931D03*
%TD*%
D16*
%TO.C,L-D17*%
X-68855669Y-7126565D03*
X-72242731Y-6830235D03*
%TD*%
D17*
%TO.C,R-D5*%
X-501041Y28032286D03*
X-3892759Y27795114D03*
%TD*%
D18*
%TO.C,L-D20*%
X-50616697Y-38074167D03*
X-53915703Y-37251633D03*
%TD*%
D17*
%TO.C,L-D12*%
X-158474441Y-13999614D03*
X-161866159Y-14236786D03*
%TD*%
D20*
%TO.C,L-D3*%
X-103662936Y43881371D03*
X-107060864Y44000029D03*
%TD*%
%TO.C,L-D9*%
X-104121036Y26387371D03*
X-107518964Y26506029D03*
%TD*%
D21*
%TO.C,R-D18*%
X19900329Y-28642983D03*
X16587471Y-29407817D03*
%TD*%
%TO.C,R-D19*%
X1911529Y-32961683D03*
X-1401329Y-33726517D03*
%TD*%
D19*
%TO.C,R-D03*%
X37029741Y43929669D03*
X33630259Y43870331D03*
%TD*%
D20*
%TO.C,R-D14*%
X56311164Y3512271D03*
X52913236Y3630929D03*
%TD*%
D19*
%TO.C,R-D9*%
X37519741Y26476369D03*
X34120259Y26417031D03*
%TD*%
D21*
%TO.C,R-D20*%
X-16077371Y-37280483D03*
X-19390229Y-38045317D03*
%TD*%
D17*
%TO.C,L-D1*%
X-142777541Y22343986D03*
X-146169259Y22106814D03*
%TD*%
D16*
%TO.C,L-D4*%
X-84552569Y29217035D03*
X-87939631Y29513365D03*
%TD*%
D18*
%TO.C,L-D19*%
X-68605597Y-33755367D03*
X-71904603Y-32932833D03*
%TD*%
D16*
%TO.C,R-D1*%
X76166931Y22077235D03*
X72779869Y22373565D03*
%TD*%
D17*
%TO.C,L-D7*%
X-141404441Y4897886D03*
X-144796159Y4660714D03*
%TD*%
%TO.C,R-D17*%
X2245059Y-6859814D03*
X-1146659Y-7096986D03*
%TD*%
D19*
%TO.C,L-D8*%
X-123370559Y21095269D03*
X-126770041Y21035931D03*
%TD*%
%TO.C,R-D15*%
X37977841Y8982369D03*
X34578359Y8923031D03*
%TD*%
D16*
%TO.C,R-D13*%
X73420831Y-12814865D03*
X70033769Y-12518535D03*
%TD*%
D17*
%TO.C,L-D6*%
X-159847441Y3446486D03*
X-163239159Y3209314D03*
%TD*%
D16*
%TO.C,L-D11*%
X-67482669Y10319435D03*
X-70869731Y10615765D03*
%TD*%
D17*
%TO.C,R-D16*%
X20688059Y-5408314D03*
X17296341Y-5645486D03*
%TD*%
M02*
