G04 #@! TF.GenerationSoftware,KiCad,Pcbnew,9.0.0*
G04 #@! TF.CreationDate,2025-03-17T20:43:48+03:00*
G04 #@! TF.ProjectId,NIOKR,4e494f4b-522e-46b6-9963-61645f706362,rev?*
G04 #@! TF.SameCoordinates,Original*
G04 #@! TF.FileFunction,Legend,Bot*
G04 #@! TF.FilePolarity,Positive*
%FSLAX46Y46*%
G04 Gerber Fmt 4.6, Leading zero omitted, Abs format (unit mm)*
G04 Created by KiCad (PCBNEW 9.0.0) date 2025-03-17 20:43:48*
%MOMM*%
%LPD*%
G01*
G04 APERTURE LIST*
G04 Aperture macros list*
%AMRoundRect*
0 Rectangle with rounded corners*
0 $1 Rounding radius*
0 $2 $3 $4 $5 $6 $7 $8 $9 X,Y pos of 4 corners*
0 Add a 4 corners polygon primitive as box body*
4,1,4,$2,$3,$4,$5,$6,$7,$8,$9,$2,$3,0*
0 Add four circle primitives for the rounded corners*
1,1,$1+$1,$2,$3*
1,1,$1+$1,$4,$5*
1,1,$1+$1,$6,$7*
1,1,$1+$1,$8,$9*
0 Add four rect primitives between the rounded corners*
20,1,$1+$1,$2,$3,$4,$5,0*
20,1,$1+$1,$4,$5,$6,$7,0*
20,1,$1+$1,$6,$7,$8,$9,0*
20,1,$1+$1,$8,$9,$2,$3,0*%
G04 Aperture macros list end*
%ADD10C,0.100000*%
%ADD11C,0.150000*%
%ADD12C,1.900000*%
%ADD13C,3.000000*%
%ADD14C,5.100000*%
%ADD15RoundRect,0.250000X-0.827343X-1.168815X1.148034X-0.855946X0.827343X1.168815X-1.148034X0.855946X0*%
%ADD16RoundRect,0.250000X0.724663X1.177864X-1.053176X0.896282X-0.724663X-1.177864X1.053176X-0.896282X0*%
%ADD17RoundRect,0.250000X-1.000000X-1.025000X1.000000X-1.025000X1.000000X1.025000X-1.000000X1.025000X0*%
%ADD18RoundRect,0.250000X0.900000X1.050000X-0.900000X1.050000X-0.900000X-1.050000X0.900000X-1.050000X0*%
%ADD19RoundRect,0.250000X-1.052274X-0.971259X0.944985X-1.075931X1.052274X0.971259X-0.944985X1.075931X0*%
%ADD20RoundRect,0.250000X0.953719X1.001459X-0.843814X1.095663X-0.953719X-1.001459X0.843814X-1.095663X0*%
%ADD21RoundRect,0.250000X-1.101664X-0.914856X0.887380X-1.123913X1.101664X0.914856X-0.887380X1.123913X0*%
%ADD22RoundRect,0.250000X1.004825X0.950172X-0.785315X1.138324X-1.004825X-0.950172X0.785315X-1.138324X0*%
%ADD23RoundRect,0.250000X-1.148034X-0.855946X0.827343X-1.168815X1.148034X0.855946X-0.827343X1.168815X0*%
%ADD24RoundRect,0.250000X1.053176X0.896282X-0.724663X1.177864X-1.053176X-0.896282X0.724663X-1.177864X0*%
%ADD25RoundRect,0.250000X-0.944985X-1.075931X1.052274X-0.971259X0.944985X1.075931X-1.052274X0.971259X0*%
%ADD26RoundRect,0.250000X0.843814X1.095663X-0.953719X1.001459X-0.843814X-1.095663X0.953719X-1.001459X0*%
%ADD27RoundRect,0.250000X-0.887380X-1.123913X1.101664X-0.914856X0.887380X1.123913X-1.101664X0.914856X0*%
%ADD28RoundRect,0.250000X0.785315X1.138324X-1.004825X0.950172X-0.785315X-1.138324X1.004825X-0.950172X0*%
%ADD29C,0.600000*%
%ADD30RoundRect,0.250000X0.500000X-0.650000X0.500000X0.650000X-0.500000X0.650000X-0.500000X-0.650000X0*%
%ADD31RoundRect,0.250000X0.595527X-0.563780X0.392162X0.720215X-0.595527X0.563780X-0.392162X-0.720215X0*%
%ADD32RoundRect,0.250000X0.392162X-0.720215X0.595527X0.563780X-0.392162X0.720215X-0.595527X-0.563780X0*%
%ADD33RoundRect,0.250000X0.465296X-0.675277X0.533333X0.622941X-0.465296X0.675277X-0.533333X-0.622941X0*%
%ADD34RoundRect,0.250000X0.565204X-0.594175X0.429317X0.698703X-0.565204X0.594175X-0.429317X-0.698703X0*%
%ADD35RoundRect,0.250000X0.429317X-0.698703X0.565204X0.594175X-0.429317X0.698703X-0.565204X-0.594175X0*%
%ADD36RoundRect,0.250000X-0.750000X-0.525000X0.750000X-0.525000X0.750000X0.525000X-0.750000X0.525000X0*%
%ADD37RoundRect,0.250000X0.533333X-0.622941X0.465296X0.675277X-0.533333X0.622941X-0.465296X-0.675277X0*%
%ADD38C,2.540000*%
%ADD39C,0.900000*%
G04 APERTURE END LIST*
D10*
G04 #@! TO.C,R-S20*
X221866976Y-184897588D02*
X220632366Y-185093131D01*
X220554148Y-184599287D01*
X221788759Y-184403744D01*
X221866976Y-184897588D01*
X223229164Y-169057196D02*
G75*
G02*
X221814952Y-169057196I-707106J0D01*
G01*
X221814952Y-169057196D02*
G75*
G02*
X223229164Y-169057196I707106J0D01*
G01*
G04 #@! TO.C,R-S19*
X239125000Y-183000000D02*
X240375000Y-183000000D01*
X240375000Y-183500000D01*
X239125000Y-183500000D01*
X239125000Y-183000000D01*
X244207107Y-167957107D02*
G75*
G02*
X242792893Y-167957107I-707107J0D01*
G01*
X242792893Y-167957107D02*
G75*
G02*
X244207107Y-167957107I707107J0D01*
G01*
G04 #@! TO.C,R-S18*
X257625000Y-183000000D02*
X258875000Y-183000000D01*
X258875000Y-183500000D01*
X257625000Y-183500000D01*
X257625000Y-183000000D01*
X262707107Y-167957107D02*
G75*
G02*
X261292893Y-167957107I-707107J0D01*
G01*
X261292893Y-167957107D02*
G75*
G02*
X262707107Y-167957107I707107J0D01*
G01*
G04 #@! TO.C,R-S17*
X239125000Y-158000000D02*
X240375000Y-158000000D01*
X240375000Y-158500000D01*
X239125000Y-158500000D01*
X239125000Y-158000000D01*
X244207107Y-142957107D02*
G75*
G02*
X242792893Y-142957107I-707107J0D01*
G01*
X242792893Y-142957107D02*
G75*
G02*
X244207107Y-142957107I707107J0D01*
G01*
G04 #@! TO.C,R-S16*
X257625000Y-158000000D02*
X258875000Y-158000000D01*
X258875000Y-158500000D01*
X257625000Y-158500000D01*
X257625000Y-158000000D01*
X262707107Y-142957107D02*
G75*
G02*
X261292893Y-142957107I-707107J0D01*
G01*
X261292893Y-142957107D02*
G75*
G02*
X262707107Y-142957107I707107J0D01*
G01*
G04 #@! TO.C,R-S15*
X277190798Y-144939462D02*
X277164630Y-145438777D01*
X275916344Y-145373357D01*
X275942512Y-144874042D01*
X277190798Y-144939462D01*
X281805907Y-130080735D02*
G75*
G02*
X280391693Y-130080735I-707107J0D01*
G01*
X280391693Y-130080735D02*
G75*
G02*
X281805907Y-130080735I707107J0D01*
G01*
G04 #@! TO.C,R-S14*
X294992518Y-151757873D02*
X294940254Y-152255134D01*
X293697101Y-152124474D01*
X293749366Y-151627213D01*
X294992518Y-151757873D01*
X300379917Y-137124038D02*
G75*
G02*
X298965701Y-137124038I-707108J0D01*
G01*
X298965701Y-137124038D02*
G75*
G02*
X300379917Y-137124038I707108J0D01*
G01*
G04 #@! TO.C,R-S13*
X310726307Y-169301670D02*
X310648090Y-169795514D01*
X309413480Y-169599971D01*
X309491697Y-169106127D01*
X310726307Y-169301670D01*
X316873167Y-154932837D02*
G75*
G02*
X315458953Y-154932837I-707107J0D01*
G01*
X315458953Y-154932837D02*
G75*
G02*
X316873167Y-154932837I707107J0D01*
G01*
G04 #@! TO.C,R-S12*
X328998507Y-172195670D02*
X328920290Y-172689514D01*
X327685680Y-172493971D01*
X327763897Y-172000127D01*
X328998507Y-172195670D01*
X335145367Y-157826837D02*
G75*
G02*
X333731153Y-157826837I-707107J0D01*
G01*
X333731153Y-157826837D02*
G75*
G02*
X335145367Y-157826837I707107J0D01*
G01*
G04 #@! TO.C,R-S11*
X239125000Y-139500000D02*
X240375000Y-139500000D01*
X240375000Y-140000000D01*
X239125000Y-140000000D01*
X239125000Y-139500000D01*
X244207107Y-124457107D02*
G75*
G02*
X242792893Y-124457107I-707107J0D01*
G01*
X242792893Y-124457107D02*
G75*
G02*
X244207107Y-124457107I707107J0D01*
G01*
G04 #@! TO.C,R-S10*
X257625000Y-139500000D02*
X258875000Y-139500000D01*
X258875000Y-140000000D01*
X257625000Y-140000000D01*
X257625000Y-139500000D01*
X262707107Y-124457107D02*
G75*
G02*
X261292893Y-124457107I-707107J0D01*
G01*
X261292893Y-124457107D02*
G75*
G02*
X262707107Y-124457107I707107J0D01*
G01*
G04 #@! TO.C,R-S9*
X278158998Y-126464862D02*
X278132830Y-126964177D01*
X276884544Y-126898757D01*
X276910712Y-126399442D01*
X278158998Y-126464862D01*
X282774107Y-111606135D02*
G75*
G02*
X281359893Y-111606135I-707107J0D01*
G01*
X281359893Y-111606135D02*
G75*
G02*
X282774107Y-111606135I707107J0D01*
G01*
G04 #@! TO.C,R-S8*
X296926318Y-133359273D02*
X296874054Y-133856534D01*
X295630901Y-133725874D01*
X295683166Y-133228613D01*
X296926318Y-133359273D01*
X302313717Y-118725438D02*
G75*
G02*
X300899501Y-118725438I-707108J0D01*
G01*
X300899501Y-118725438D02*
G75*
G02*
X302313717Y-118725438I707108J0D01*
G01*
G04 #@! TO.C,R-S7*
X313620307Y-151029470D02*
X313542090Y-151523314D01*
X312307480Y-151327771D01*
X312385697Y-150833927D01*
X313620307Y-151029470D01*
X319767167Y-136660637D02*
G75*
G02*
X318352953Y-136660637I-707107J0D01*
G01*
X318352953Y-136660637D02*
G75*
G02*
X319767167Y-136660637I707107J0D01*
G01*
G04 #@! TO.C,R-S6*
X331892607Y-153923470D02*
X331814390Y-154417314D01*
X330579780Y-154221771D01*
X330657997Y-153727927D01*
X331892607Y-153923470D01*
X338039467Y-139554637D02*
G75*
G02*
X336625253Y-139554637I-707107J0D01*
G01*
X336625253Y-139554637D02*
G75*
G02*
X338039467Y-139554637I707107J0D01*
G01*
G04 #@! TO.C,R-S5*
X239125000Y-121000000D02*
X240375000Y-121000000D01*
X240375000Y-121500000D01*
X239125000Y-121500000D01*
X239125000Y-121000000D01*
X244207107Y-105957107D02*
G75*
G02*
X242792893Y-105957107I-707107J0D01*
G01*
X242792893Y-105957107D02*
G75*
G02*
X244207107Y-105957107I707107J0D01*
G01*
G04 #@! TO.C,R-S4*
X257625000Y-121000000D02*
X258875000Y-121000000D01*
X258875000Y-121500000D01*
X257625000Y-121500000D01*
X257625000Y-121000000D01*
X262707107Y-105957107D02*
G75*
G02*
X261292893Y-105957107I-707107J0D01*
G01*
X261292893Y-105957107D02*
G75*
G02*
X262707107Y-105957107I707107J0D01*
G01*
G04 #@! TO.C,R-S3*
X279127198Y-107990162D02*
X279101030Y-108489477D01*
X277852744Y-108424057D01*
X277878912Y-107924742D01*
X279127198Y-107990162D01*
X283742307Y-93131435D02*
G75*
G02*
X282328093Y-93131435I-707107J0D01*
G01*
X282328093Y-93131435D02*
G75*
G02*
X283742307Y-93131435I707107J0D01*
G01*
G04 #@! TO.C,R-S2*
X298860018Y-114960573D02*
X298807754Y-115457834D01*
X297564601Y-115327174D01*
X297616866Y-114829913D01*
X298860018Y-114960573D01*
X304247417Y-100326738D02*
G75*
G02*
X302833201Y-100326738I-707108J0D01*
G01*
X302833201Y-100326738D02*
G75*
G02*
X304247417Y-100326738I707108J0D01*
G01*
G04 #@! TO.C,R-S1*
X316514407Y-132757170D02*
X316436190Y-133251014D01*
X315201580Y-133055471D01*
X315279797Y-132561627D01*
X316514407Y-132757170D01*
X322661267Y-118388337D02*
G75*
G02*
X321247053Y-118388337I-707107J0D01*
G01*
X321247053Y-118388337D02*
G75*
G02*
X322661267Y-118388337I707107J0D01*
G01*
G04 #@! TO.C,R-S0*
X334786607Y-135651270D02*
X334708390Y-136145114D01*
X333473780Y-135949571D01*
X333551997Y-135455727D01*
X334786607Y-135651270D01*
X340933467Y-121282437D02*
G75*
G02*
X339519253Y-121282437I-707107J0D01*
G01*
X339519253Y-121282437D02*
G75*
G02*
X340933467Y-121282437I707107J0D01*
G01*
G04 #@! TO.C,L-S20*
X193952007Y-184521070D02*
X193873790Y-185014914D01*
X192639180Y-184819371D01*
X192717397Y-184325527D01*
X193952007Y-184521070D01*
X200098867Y-170152237D02*
G75*
G02*
X198684653Y-170152237I-707107J0D01*
G01*
X198684653Y-170152237D02*
G75*
G02*
X200098867Y-170152237I707107J0D01*
G01*
G04 #@! TO.C,L-S19*
X174125000Y-183000000D02*
X175375000Y-183000000D01*
X175375000Y-183500000D01*
X174125000Y-183500000D01*
X174125000Y-183000000D01*
X179207107Y-167957107D02*
G75*
G02*
X177792893Y-167957107I-707107J0D01*
G01*
X177792893Y-167957107D02*
G75*
G02*
X179207107Y-167957107I707107J0D01*
G01*
G04 #@! TO.C,L-S18*
X155625000Y-183000000D02*
X156875000Y-183000000D01*
X156875000Y-183500000D01*
X155625000Y-183500000D01*
X155625000Y-183000000D01*
X160707107Y-167957107D02*
G75*
G02*
X159292893Y-167957107I-707107J0D01*
G01*
X159292893Y-167957107D02*
G75*
G02*
X160707107Y-167957107I707107J0D01*
G01*
G04 #@! TO.C,L-S17*
X174125000Y-158000000D02*
X175375000Y-158000000D01*
X175375000Y-158500000D01*
X174125000Y-158500000D01*
X174125000Y-158000000D01*
X179207107Y-142957107D02*
G75*
G02*
X177792893Y-142957107I-707107J0D01*
G01*
X177792893Y-142957107D02*
G75*
G02*
X179207107Y-142957107I707107J0D01*
G01*
G04 #@! TO.C,L-S16*
X155625000Y-158000000D02*
X156875000Y-158000000D01*
X156875000Y-158500000D01*
X155625000Y-158500000D01*
X155625000Y-158000000D01*
X160707107Y-142957107D02*
G75*
G02*
X159292893Y-142957107I-707107J0D01*
G01*
X159292893Y-142957107D02*
G75*
G02*
X160707107Y-142957107I707107J0D01*
G01*
G04 #@! TO.C,L-S15*
X138584342Y-145399525D02*
X137336055Y-145464945D01*
X137309887Y-144965630D01*
X138558174Y-144900210D01*
X138584342Y-145399525D01*
X141598714Y-129714383D02*
G75*
G02*
X140184500Y-129714383I-707107J0D01*
G01*
X140184500Y-129714383D02*
G75*
G02*
X141598714Y-129714383I707107J0D01*
G01*
G04 #@! TO.C,L-S14*
X120805638Y-152176738D02*
X119562485Y-152307399D01*
X119510221Y-151810138D01*
X120753373Y-151679477D01*
X120805638Y-152176738D01*
X122995951Y-136392339D02*
G75*
G02*
X121581737Y-136392339I-707107J0D01*
G01*
X121581737Y-136392339D02*
G75*
G02*
X122995951Y-136392339I707107J0D01*
G01*
G04 #@! TO.C,L-S13*
X105092676Y-169678188D02*
X103858066Y-169873731D01*
X103779848Y-169379887D01*
X105014459Y-169184344D01*
X105092676Y-169678188D01*
X106454864Y-153837796D02*
G75*
G02*
X105040652Y-153837796I-707106J0D01*
G01*
X105040652Y-153837796D02*
G75*
G02*
X106454864Y-153837796I707106J0D01*
G01*
G04 #@! TO.C,L-S12*
X86820476Y-172572188D02*
X85585866Y-172767731D01*
X85507648Y-172273887D01*
X86742259Y-172078344D01*
X86820476Y-172572188D01*
X88182664Y-156731796D02*
G75*
G02*
X86768452Y-156731796I-707106J0D01*
G01*
X86768452Y-156731796D02*
G75*
G02*
X88182664Y-156731796I707106J0D01*
G01*
G04 #@! TO.C,L-S11*
X174125000Y-139500000D02*
X175375000Y-139500000D01*
X175375000Y-140000000D01*
X174125000Y-140000000D01*
X174125000Y-139500000D01*
X179207107Y-124457107D02*
G75*
G02*
X177792893Y-124457107I-707107J0D01*
G01*
X177792893Y-124457107D02*
G75*
G02*
X179207107Y-124457107I707107J0D01*
G01*
G04 #@! TO.C,L-S10*
X155625000Y-139500000D02*
X156875000Y-139500000D01*
X156875000Y-140000000D01*
X155625000Y-140000000D01*
X155625000Y-139500000D01*
X160707107Y-124457107D02*
G75*
G02*
X159292893Y-124457107I-707107J0D01*
G01*
X159292893Y-124457107D02*
G75*
G02*
X160707107Y-124457107I707107J0D01*
G01*
G04 #@! TO.C,L-S9*
X137616142Y-126924925D02*
X136367855Y-126990345D01*
X136341687Y-126491030D01*
X137589974Y-126425610D01*
X137616142Y-126924925D01*
X140630514Y-111239783D02*
G75*
G02*
X139216300Y-111239783I-707107J0D01*
G01*
X139216300Y-111239783D02*
G75*
G02*
X140630514Y-111239783I707107J0D01*
G01*
G04 #@! TO.C,L-S8*
X118871838Y-133778138D02*
X117628685Y-133908799D01*
X117576421Y-133411538D01*
X118819573Y-133280877D01*
X118871838Y-133778138D01*
X121062151Y-117993739D02*
G75*
G02*
X119647937Y-117993739I-707107J0D01*
G01*
X119647937Y-117993739D02*
G75*
G02*
X121062151Y-117993739I707107J0D01*
G01*
G04 #@! TO.C,L-S7*
X102198676Y-151405988D02*
X100964066Y-151601531D01*
X100885848Y-151107687D01*
X102120459Y-150912144D01*
X102198676Y-151405988D01*
X103560864Y-135565596D02*
G75*
G02*
X102146652Y-135565596I-707106J0D01*
G01*
X102146652Y-135565596D02*
G75*
G02*
X103560864Y-135565596I707106J0D01*
G01*
G04 #@! TO.C,L-S6*
X83926376Y-154299988D02*
X82691766Y-154495531D01*
X82613548Y-154001687D01*
X83848159Y-153806144D01*
X83926376Y-154299988D01*
X85288564Y-138459596D02*
G75*
G02*
X83874352Y-138459596I-707106J0D01*
G01*
X83874352Y-138459596D02*
G75*
G02*
X85288564Y-138459596I707106J0D01*
G01*
G04 #@! TO.C,L-S5*
X174125000Y-121000000D02*
X175375000Y-121000000D01*
X175375000Y-121500000D01*
X174125000Y-121500000D01*
X174125000Y-121000000D01*
X179207107Y-105957107D02*
G75*
G02*
X177792893Y-105957107I-707107J0D01*
G01*
X177792893Y-105957107D02*
G75*
G02*
X179207107Y-105957107I707107J0D01*
G01*
G04 #@! TO.C,L-S4*
X155625000Y-121000000D02*
X156875000Y-121000000D01*
X156875000Y-121500000D01*
X155625000Y-121500000D01*
X155625000Y-121000000D01*
X160707107Y-105957107D02*
G75*
G02*
X159292893Y-105957107I-707107J0D01*
G01*
X159292893Y-105957107D02*
G75*
G02*
X160707107Y-105957107I707107J0D01*
G01*
G04 #@! TO.C,L-S3*
X136647942Y-108450225D02*
X135399655Y-108515645D01*
X135373487Y-108016330D01*
X136621774Y-107950910D01*
X136647942Y-108450225D01*
X139662314Y-92765083D02*
G75*
G02*
X138248100Y-92765083I-707107J0D01*
G01*
X138248100Y-92765083D02*
G75*
G02*
X139662314Y-92765083I707107J0D01*
G01*
G04 #@! TO.C,L-S2*
X116938138Y-115379438D02*
X115694985Y-115510099D01*
X115642721Y-115012838D01*
X116885873Y-114882177D01*
X116938138Y-115379438D01*
X119128451Y-99595039D02*
G75*
G02*
X117714237Y-99595039I-707107J0D01*
G01*
X117714237Y-99595039D02*
G75*
G02*
X119128451Y-99595039I707107J0D01*
G01*
G04 #@! TO.C,L-S1*
X99304576Y-133133688D02*
X98069966Y-133329231D01*
X97991748Y-132835387D01*
X99226359Y-132639844D01*
X99304576Y-133133688D01*
X100666764Y-117293296D02*
G75*
G02*
X99252552Y-117293296I-707106J0D01*
G01*
X99252552Y-117293296D02*
G75*
G02*
X100666764Y-117293296I707106J0D01*
G01*
G04 #@! TO.C,L-S0*
X81032376Y-136027788D02*
X79797766Y-136223331D01*
X79719548Y-135729487D01*
X80954159Y-135533944D01*
X81032376Y-136027788D01*
X82394564Y-120187396D02*
G75*
G02*
X80980352Y-120187396I-707106J0D01*
G01*
X80980352Y-120187396D02*
G75*
G02*
X82394564Y-120187396I707106J0D01*
G01*
D11*
G04 #@! TO.C,R-D16*
X252200000Y-146300000D02*
X250800000Y-146300000D01*
X251500000Y-146300000D02*
X252200000Y-145400000D01*
X252200000Y-145400000D02*
X250800000Y-145400000D01*
X250800000Y-145400000D02*
X251500000Y-146300000D01*
G04 #@! TO.C,L-D11*
X168700000Y-127800000D02*
X167300000Y-127800000D01*
X168000000Y-127800000D02*
X168700000Y-126900000D01*
X168700000Y-126900000D02*
X167300000Y-126900000D01*
X167300000Y-126900000D02*
X168000000Y-127800000D01*
G04 #@! TO.C,L-D6*
X75425099Y-143294440D02*
X74042335Y-143513448D01*
X74733717Y-143403944D02*
X75284308Y-142405521D01*
X75284308Y-142405521D02*
X73901544Y-142624529D01*
X73901544Y-142624529D02*
X74733717Y-143403944D01*
G04 #@! TO.C,R-D13*
X305963765Y-156701548D02*
X304581001Y-156482540D01*
X305272383Y-156592044D02*
X306104556Y-155812629D01*
X306104556Y-155812629D02*
X304721792Y-155593621D01*
X304721792Y-155593621D02*
X305272383Y-156592044D01*
G04 #@! TO.C,R-D15*
X271137273Y-132906150D02*
X269739191Y-132832880D01*
X270438232Y-132869515D02*
X271184375Y-132007383D01*
X271184375Y-132007383D02*
X269786294Y-131934113D01*
X269786294Y-131934113D02*
X270438232Y-132869515D01*
G04 #@! TO.C,L-D8*
X110958230Y-122342691D02*
X109565899Y-122489031D01*
X110262064Y-122415861D02*
X110864154Y-121447621D01*
X110864154Y-121447621D02*
X109471823Y-121593961D01*
X109471823Y-121593961D02*
X110262064Y-122415861D01*
G04 #@! TO.C,R-D17*
X233700000Y-146300000D02*
X232300000Y-146300000D01*
X233000000Y-146300000D02*
X233700000Y-145400000D01*
X233700000Y-145400000D02*
X232300000Y-145400000D01*
X232300000Y-145400000D02*
X233000000Y-146300000D01*
G04 #@! TO.C,L-D7*
X93697299Y-140400340D02*
X92314535Y-140619348D01*
X93005917Y-140509844D02*
X93556508Y-139511421D01*
X93556508Y-139511421D02*
X92173744Y-139730429D01*
X92173744Y-139730429D02*
X93005917Y-140509844D01*
G04 #@! TO.C,R-D1*
X311751865Y-120157048D02*
X310369101Y-119938040D01*
X311060483Y-120047544D02*
X311892656Y-119268129D01*
X311892656Y-119268129D02*
X310509892Y-119049121D01*
X310509892Y-119049121D02*
X311060483Y-120047544D01*
G04 #@! TO.C,L-D19*
X168700000Y-171300000D02*
X167300000Y-171300000D01*
X168000000Y-171300000D02*
X168700000Y-170400000D01*
X168700000Y-170400000D02*
X167300000Y-170400000D01*
X167300000Y-170400000D02*
X168000000Y-171300000D01*
G04 #@! TO.C,L-D4*
X150200000Y-109300000D02*
X148800000Y-109300000D01*
X149500000Y-109300000D02*
X150200000Y-108400000D01*
X150200000Y-108400000D02*
X148800000Y-108400000D01*
X148800000Y-108400000D02*
X149500000Y-109300000D01*
G04 #@! TO.C,L-D1*
X90803299Y-122128140D02*
X89420535Y-122347148D01*
X90111917Y-122237644D02*
X90662508Y-121239221D01*
X90662508Y-121239221D02*
X89279744Y-121458229D01*
X89279744Y-121458229D02*
X90111917Y-122237644D01*
G04 #@! TO.C,R-D20*
X213365599Y-173892040D02*
X211982835Y-174111048D01*
X212674217Y-174001544D02*
X213224808Y-173003121D01*
X213224808Y-173003121D02*
X211842044Y-173222129D01*
X211842044Y-173222129D02*
X212674217Y-174001544D01*
G04 #@! TO.C,R-D9*
X272105473Y-114431550D02*
X270707391Y-114358280D01*
X271406432Y-114394915D02*
X272152575Y-113532783D01*
X272152575Y-113532783D02*
X270754494Y-113459513D01*
X270754494Y-113459513D02*
X271406432Y-114394915D01*
G04 #@! TO.C,R-D14*
X289577101Y-139424231D02*
X288184770Y-139277891D01*
X288880936Y-139351061D02*
X289671177Y-138529161D01*
X289671177Y-138529161D02*
X288278846Y-138382821D01*
X288278846Y-138382821D02*
X288880936Y-139351061D01*
G04 #@! TO.C,R-D03*
X273073773Y-95956850D02*
X271675691Y-95883580D01*
X272374732Y-95920215D02*
X273120875Y-95058083D01*
X273120875Y-95058083D02*
X271722794Y-94984813D01*
X271722794Y-94984813D02*
X272374732Y-95920215D01*
G04 #@! TO.C,R-D19*
X233700000Y-171300000D02*
X232300000Y-171300000D01*
X233000000Y-171300000D02*
X233700000Y-170400000D01*
X233700000Y-170400000D02*
X232300000Y-170400000D01*
X232300000Y-170400000D02*
X233000000Y-171300000D01*
G04 #@! TO.C,R-D18*
X252200000Y-171300000D02*
X250800000Y-171300000D01*
X251500000Y-171300000D02*
X252200000Y-170400000D01*
X252200000Y-170400000D02*
X250800000Y-170400000D01*
X250800000Y-170400000D02*
X251500000Y-171300000D01*
G04 #@! TO.C,L-D9*
X130311809Y-115090980D02*
X128913727Y-115164250D01*
X129612768Y-115127615D02*
X130264706Y-114192213D01*
X130264706Y-114192213D02*
X128866625Y-114265483D01*
X128866625Y-114265483D02*
X129612768Y-115127615D01*
G04 #@! TO.C,L-D3*
X129343509Y-96616280D02*
X127945427Y-96689550D01*
X128644468Y-96652915D02*
X129296406Y-95717513D01*
X129296406Y-95717513D02*
X127898325Y-95790783D01*
X127898325Y-95790783D02*
X128644468Y-96652915D01*
G04 #@! TO.C,L-D12*
X78319099Y-161566640D02*
X76936335Y-161785648D01*
X77627717Y-161676144D02*
X78178308Y-160677721D01*
X78178308Y-160677721D02*
X76795544Y-160896729D01*
X76795544Y-160896729D02*
X77627717Y-161676144D01*
G04 #@! TO.C,L-D20*
X189189465Y-171920948D02*
X187806701Y-171701940D01*
X188498083Y-171811444D02*
X189330256Y-171032029D01*
X189330256Y-171032029D02*
X187947492Y-170813021D01*
X187947492Y-170813021D02*
X188498083Y-171811444D01*
G04 #@! TO.C,R-D5*
X233700000Y-109300000D02*
X232300000Y-109300000D01*
X233000000Y-109300000D02*
X233700000Y-108400000D01*
X233700000Y-108400000D02*
X232300000Y-108400000D01*
X232300000Y-108400000D02*
X233000000Y-109300000D01*
G04 #@! TO.C,L-D17*
X168700000Y-146300000D02*
X167300000Y-146300000D01*
X168000000Y-146300000D02*
X168700000Y-145400000D01*
X168700000Y-145400000D02*
X167300000Y-145400000D01*
X167300000Y-145400000D02*
X168000000Y-146300000D01*
G04 #@! TO.C,L-D14*
X112891930Y-140741291D02*
X111499599Y-140887631D01*
X112195764Y-140814461D02*
X112797854Y-139846221D01*
X112797854Y-139846221D02*
X111405523Y-139992561D01*
X111405523Y-139992561D02*
X112195764Y-140814461D01*
G04 #@! TO.C,R-D11*
X233700000Y-127800000D02*
X232300000Y-127800000D01*
X233000000Y-127800000D02*
X233700000Y-126900000D01*
X233700000Y-126900000D02*
X232300000Y-126900000D01*
X232300000Y-126900000D02*
X233000000Y-127800000D01*
G04 #@! TO.C,L-D15*
X131280009Y-133565580D02*
X129881927Y-133638850D01*
X130580968Y-133602215D02*
X131232906Y-132666813D01*
X131232906Y-132666813D02*
X129834825Y-132740083D01*
X129834825Y-132740083D02*
X130580968Y-133602215D01*
G04 #@! TO.C,R-D2*
X293444601Y-102626931D02*
X292052270Y-102480591D01*
X292748436Y-102553761D02*
X293538677Y-101731861D01*
X293538677Y-101731861D02*
X292146346Y-101585521D01*
X292146346Y-101585521D02*
X292748436Y-102553761D01*
G04 #@! TO.C,R-D8*
X291510801Y-121025631D02*
X290118470Y-120879291D01*
X290814636Y-120952461D02*
X291604877Y-120130561D01*
X291604877Y-120130561D02*
X290212546Y-119984221D01*
X290212546Y-119984221D02*
X290814636Y-120952461D01*
G04 #@! TO.C,L-D2*
X109024430Y-103943991D02*
X107632099Y-104090331D01*
X108328264Y-104017161D02*
X108930354Y-103048921D01*
X108930354Y-103048921D02*
X107538023Y-103195261D01*
X107538023Y-103195261D02*
X108328264Y-104017161D01*
G04 #@! TO.C,R-D4*
X252200000Y-109300000D02*
X250800000Y-109300000D01*
X251500000Y-109300000D02*
X252200000Y-108400000D01*
X252200000Y-108400000D02*
X250800000Y-108400000D01*
X250800000Y-108400000D02*
X251500000Y-109300000D01*
G04 #@! TO.C,R-D7*
X308857765Y-138429248D02*
X307475001Y-138210240D01*
X308166383Y-138319744D02*
X308998556Y-137540329D01*
X308998556Y-137540329D02*
X307615792Y-137321321D01*
X307615792Y-137321321D02*
X308166383Y-138319744D01*
G04 #@! TO.C,L-D16*
X150200000Y-146300000D02*
X148800000Y-146300000D01*
X149500000Y-146300000D02*
X150200000Y-145400000D01*
X150200000Y-145400000D02*
X148800000Y-145400000D01*
X148800000Y-145400000D02*
X149500000Y-146300000D01*
G04 #@! TO.C,L-D13*
X96591399Y-158672540D02*
X95208635Y-158891548D01*
X95900017Y-158782044D02*
X96450608Y-157783621D01*
X96450608Y-157783621D02*
X95067844Y-158002629D01*
X95067844Y-158002629D02*
X95900017Y-158782044D01*
G04 #@! TO.C,R-D12*
X324235965Y-159595548D02*
X322853201Y-159376540D01*
X323544583Y-159486044D02*
X324376756Y-158706629D01*
X324376756Y-158706629D02*
X322993992Y-158487621D01*
X322993992Y-158487621D02*
X323544583Y-159486044D01*
G04 #@! TO.C,L-D18*
X150200000Y-171300000D02*
X148800000Y-171300000D01*
X149500000Y-171300000D02*
X150200000Y-170400000D01*
X150200000Y-170400000D02*
X148800000Y-170400000D01*
X148800000Y-170400000D02*
X149500000Y-171300000D01*
G04 #@! TO.C,R-D10*
X252200000Y-127800000D02*
X250800000Y-127800000D01*
X251500000Y-127800000D02*
X252200000Y-126900000D01*
X252200000Y-126900000D02*
X250800000Y-126900000D01*
X250800000Y-126900000D02*
X251500000Y-127800000D01*
G04 #@! TO.C,L-D0*
X72530999Y-125022140D02*
X71148235Y-125241148D01*
X71839617Y-125131644D02*
X72390208Y-124133221D01*
X72390208Y-124133221D02*
X71007444Y-124352229D01*
X71007444Y-124352229D02*
X71839617Y-125131644D01*
G04 #@! TO.C,L-D10*
X150200000Y-127800000D02*
X148800000Y-127800000D01*
X149500000Y-127800000D02*
X150200000Y-126900000D01*
X150200000Y-126900000D02*
X148800000Y-126900000D01*
X148800000Y-126900000D02*
X149500000Y-127800000D01*
G04 #@! TO.C,R-D0*
X330024065Y-123051048D02*
X328641301Y-122832040D01*
X329332683Y-122941544D02*
X330164856Y-122162129D01*
X330164856Y-122162129D02*
X328782092Y-121943121D01*
X328782092Y-121943121D02*
X329332683Y-122941544D01*
G04 #@! TO.C,R-D6*
X327130065Y-141323348D02*
X325747301Y-141104340D01*
X326438683Y-141213844D02*
X327270856Y-140434429D01*
X327270856Y-140434429D02*
X325888092Y-140215421D01*
X325888092Y-140215421D02*
X326438683Y-141213844D01*
G04 #@! TO.C,L-D5*
X168700000Y-109300000D02*
X167300000Y-109300000D01*
X168000000Y-109300000D02*
X168700000Y-108400000D01*
X168700000Y-108400000D02*
X167300000Y-108400000D01*
X167300000Y-108400000D02*
X168000000Y-109300000D01*
G04 #@! TD*
%LPC*%
D12*
G04 #@! TO.C,R-S20*
X214734614Y-177421290D03*
D13*
X216556313Y-181891347D03*
X219243937Y-170733539D03*
D14*
X220166900Y-176560900D03*
D13*
X223634388Y-181833378D03*
X224526534Y-172124281D03*
D12*
X225599186Y-175700510D03*
D15*
X227436988Y-181231106D03*
D16*
X227588368Y-171639334D03*
D15*
X212753713Y-182493620D03*
D16*
X216182103Y-171218486D03*
G04 #@! TD*
D12*
G04 #@! TO.C,R-S19*
X234500000Y-175000000D03*
D13*
X235600000Y-179700000D03*
X240000000Y-169100000D03*
D14*
X240000000Y-175000000D03*
D13*
X242600000Y-180750000D03*
X245000000Y-171300000D03*
D12*
X245500000Y-175000000D03*
D17*
X246450000Y-180750000D03*
D18*
X248100000Y-171300000D03*
D17*
X231750000Y-179700000D03*
D18*
X236900000Y-169100000D03*
G04 #@! TD*
D12*
G04 #@! TO.C,R-S18*
X253000000Y-175000000D03*
D13*
X254100000Y-179700000D03*
X258500000Y-169100000D03*
D14*
X258500000Y-175000000D03*
D13*
X261100000Y-180750000D03*
X263500000Y-171300000D03*
D12*
X264000000Y-175000000D03*
D17*
X264950000Y-180750000D03*
D18*
X266600000Y-171300000D03*
D17*
X250250000Y-179700000D03*
D18*
X255400000Y-169100000D03*
G04 #@! TD*
D12*
G04 #@! TO.C,R-S17*
X234500000Y-150000000D03*
D13*
X235600000Y-154700000D03*
X240000000Y-144100000D03*
D14*
X240000000Y-150000000D03*
D13*
X242600000Y-155750000D03*
X245000000Y-146300000D03*
D12*
X245500000Y-150000000D03*
D17*
X246450000Y-155750000D03*
D18*
X248100000Y-146300000D03*
D17*
X231750000Y-154700000D03*
D18*
X236900000Y-144100000D03*
G04 #@! TD*
D12*
G04 #@! TO.C,R-S16*
X253000000Y-150000000D03*
D13*
X254100000Y-154700000D03*
X258500000Y-144100000D03*
D14*
X258500000Y-150000000D03*
D13*
X261100000Y-155750000D03*
X263500000Y-146300000D03*
D12*
X264000000Y-150000000D03*
D17*
X264950000Y-155750000D03*
D18*
X266600000Y-146300000D03*
D17*
X250250000Y-154700000D03*
D18*
X255400000Y-144100000D03*
G04 #@! TD*
D12*
G04 #@! TO.C,R-S15*
X271742538Y-136642952D03*
D13*
X272595051Y-141394081D03*
X277543782Y-131038886D03*
D14*
X277235000Y-136930800D03*
D13*
X279530505Y-142808993D03*
X282421791Y-133497551D03*
D12*
X282727462Y-137218648D03*
D19*
X283375229Y-143010487D03*
D20*
X285517542Y-133659792D03*
D19*
X268750327Y-141192587D03*
D20*
X274448031Y-130876644D03*
G04 #@! TD*
D12*
G04 #@! TO.C,R-S14*
X289985930Y-143187593D03*
D13*
X290588620Y-147976828D03*
X296072518Y-137894821D03*
D14*
X295455800Y-143762500D03*
D13*
X297440518Y-149752775D03*
X300815165Y-140605411D03*
D12*
X300925670Y-144337407D03*
D21*
X301269428Y-150155209D03*
D22*
X303898183Y-140929450D03*
D21*
X286759711Y-147574393D03*
D22*
X292989500Y-137570783D03*
G04 #@! TD*
D12*
G04 #@! TO.C,R-S13*
X306175114Y-160481110D03*
D13*
X306526329Y-165295324D03*
X312530363Y-155514139D03*
D14*
X311607400Y-161341500D03*
D13*
X313275892Y-167427438D03*
X317124649Y-158469225D03*
D12*
X317039686Y-162201890D03*
D23*
X317078492Y-168029710D03*
D24*
X320186483Y-158954172D03*
D23*
X302723729Y-164693051D03*
D24*
X309468529Y-155029192D03*
G04 #@! TD*
D12*
G04 #@! TO.C,R-S12*
X324447314Y-163375110D03*
D13*
X324798529Y-168189324D03*
X330802563Y-158408139D03*
D14*
X329879600Y-164235500D03*
D13*
X331548092Y-170321438D03*
X335396849Y-161363225D03*
D12*
X335311886Y-165095890D03*
D23*
X335350692Y-170923710D03*
D24*
X338458683Y-161848172D03*
D23*
X320995929Y-167587051D03*
D24*
X327740729Y-157923192D03*
G04 #@! TD*
D12*
G04 #@! TO.C,R-S11*
X234500000Y-131500000D03*
D13*
X235600000Y-136200000D03*
X240000000Y-125600000D03*
D14*
X240000000Y-131500000D03*
D13*
X242600000Y-137250000D03*
X245000000Y-127800000D03*
D12*
X245500000Y-131500000D03*
D17*
X246450000Y-137250000D03*
D18*
X248100000Y-127800000D03*
D17*
X231750000Y-136200000D03*
D18*
X236900000Y-125600000D03*
G04 #@! TD*
D12*
G04 #@! TO.C,R-S10*
X253000000Y-131500000D03*
D13*
X254100000Y-136200000D03*
X258500000Y-125600000D03*
D14*
X258500000Y-131500000D03*
D13*
X261100000Y-137250000D03*
X263500000Y-127800000D03*
D12*
X264000000Y-131500000D03*
D17*
X264950000Y-137250000D03*
D18*
X266600000Y-127800000D03*
D17*
X250250000Y-136200000D03*
D18*
X255400000Y-125600000D03*
G04 #@! TD*
D12*
G04 #@! TO.C,R-S9*
X272710738Y-118168352D03*
D13*
X273563251Y-122919481D03*
X278511982Y-112564286D03*
D14*
X278203200Y-118456200D03*
D13*
X280498705Y-124334393D03*
X283389991Y-115022951D03*
D12*
X283695662Y-118744048D03*
D19*
X284343429Y-124535887D03*
D20*
X286485742Y-115185192D03*
D19*
X269718527Y-122717987D03*
D20*
X275416231Y-112402044D03*
G04 #@! TD*
D12*
G04 #@! TO.C,R-S8*
X291919730Y-124788993D03*
D13*
X292522420Y-129578228D03*
X298006318Y-119496221D03*
D14*
X297389600Y-125363900D03*
D13*
X299374318Y-131354175D03*
X302748965Y-122206811D03*
D12*
X302859470Y-125938807D03*
D21*
X303203228Y-131756609D03*
D22*
X305831983Y-122530850D03*
D21*
X288693511Y-129175793D03*
D22*
X294923300Y-119172183D03*
G04 #@! TD*
D12*
G04 #@! TO.C,R-S7*
X309069114Y-142208910D03*
D13*
X309420329Y-147023124D03*
X315424363Y-137241939D03*
D14*
X314501400Y-143069300D03*
D13*
X316169892Y-149155238D03*
X320018649Y-140197025D03*
D12*
X319933686Y-143929690D03*
D23*
X319972492Y-149757510D03*
D24*
X323080483Y-140681972D03*
D23*
X305617729Y-146420851D03*
D24*
X312362529Y-136756992D03*
G04 #@! TD*
D12*
G04 #@! TO.C,R-S6*
X327341414Y-145102910D03*
D13*
X327692629Y-149917124D03*
X333696663Y-140135939D03*
D14*
X332773700Y-145963300D03*
D13*
X334442192Y-152049238D03*
X338290949Y-143091025D03*
D12*
X338205986Y-146823690D03*
D23*
X338244792Y-152651510D03*
D24*
X341352783Y-143575972D03*
D23*
X323890029Y-149314851D03*
D24*
X330634829Y-139650992D03*
G04 #@! TD*
D12*
G04 #@! TO.C,R-S5*
X234500000Y-113000000D03*
D13*
X235600000Y-117700000D03*
X240000000Y-107100000D03*
D14*
X240000000Y-113000000D03*
D13*
X242600000Y-118750000D03*
X245000000Y-109300000D03*
D12*
X245500000Y-113000000D03*
D17*
X246450000Y-118750000D03*
D18*
X248100000Y-109300000D03*
D17*
X231750000Y-117700000D03*
D18*
X236900000Y-107100000D03*
G04 #@! TD*
D12*
G04 #@! TO.C,R-S4*
X253000000Y-113000000D03*
D13*
X254100000Y-117700000D03*
X258500000Y-107100000D03*
D14*
X258500000Y-113000000D03*
D13*
X261100000Y-118750000D03*
X263500000Y-109300000D03*
D12*
X264000000Y-113000000D03*
D17*
X264950000Y-118750000D03*
D18*
X266600000Y-109300000D03*
D17*
X250250000Y-117700000D03*
D18*
X255400000Y-107100000D03*
G04 #@! TD*
D12*
G04 #@! TO.C,R-S3*
X273678938Y-99693652D03*
D13*
X274531451Y-104444781D03*
X279480182Y-94089586D03*
D14*
X279171400Y-99981500D03*
D13*
X281466905Y-105859693D03*
X284358191Y-96548251D03*
D12*
X284663862Y-100269348D03*
D19*
X285311629Y-106061187D03*
D20*
X287453942Y-96710492D03*
D19*
X270686727Y-104243287D03*
D20*
X276384431Y-93927344D03*
G04 #@! TD*
D12*
G04 #@! TO.C,R-S2*
X293853430Y-106390293D03*
D13*
X294456120Y-111179528D03*
X299940018Y-101097521D03*
D14*
X299323300Y-106965200D03*
D13*
X301308018Y-112955475D03*
X304682665Y-103808111D03*
D12*
X304793170Y-107540107D03*
D21*
X305136928Y-113357909D03*
D22*
X307765683Y-104132150D03*
D21*
X290627211Y-110777093D03*
D22*
X296857000Y-100773483D03*
G04 #@! TD*
D12*
G04 #@! TO.C,R-S1*
X311963214Y-123936610D03*
D13*
X312314429Y-128750824D03*
X318318463Y-118969639D03*
D14*
X317395500Y-124797000D03*
D13*
X319063992Y-130882938D03*
X322912749Y-121924725D03*
D12*
X322827786Y-125657390D03*
D23*
X322866592Y-131485210D03*
D24*
X325974583Y-122409672D03*
D23*
X308511829Y-128148551D03*
D24*
X315256629Y-118484692D03*
G04 #@! TD*
D12*
G04 #@! TO.C,R-S0*
X330235414Y-126830710D03*
D13*
X330586629Y-131644924D03*
X336590663Y-121863739D03*
D14*
X335667700Y-127691100D03*
D13*
X337336192Y-133777038D03*
X341184949Y-124818825D03*
D12*
X341099986Y-128551490D03*
D23*
X341138792Y-134379310D03*
D24*
X344246783Y-125303772D03*
D23*
X326784029Y-131042651D03*
D24*
X333528829Y-121378792D03*
G04 #@! TD*
D12*
G04 #@! TO.C,L-S20*
X189400814Y-175700510D03*
D13*
X189752029Y-180514724D03*
X195756063Y-170733539D03*
D14*
X194833100Y-176560900D03*
D13*
X196501592Y-182646838D03*
X200350349Y-173688625D03*
D12*
X200265386Y-177421290D03*
D23*
X200304192Y-183249110D03*
D24*
X203412183Y-174173572D03*
D23*
X185949429Y-179912451D03*
D24*
X192694229Y-170248592D03*
G04 #@! TD*
D12*
G04 #@! TO.C,L-S19*
X169500000Y-175000000D03*
D13*
X170600000Y-179700000D03*
X175000000Y-169100000D03*
D14*
X175000000Y-175000000D03*
D13*
X177600000Y-180750000D03*
X180000000Y-171300000D03*
D12*
X180500000Y-175000000D03*
D17*
X181450000Y-180750000D03*
D18*
X183100000Y-171300000D03*
D17*
X166750000Y-179700000D03*
D18*
X171900000Y-169100000D03*
G04 #@! TD*
D12*
G04 #@! TO.C,L-S18*
X151000000Y-175000000D03*
D13*
X152100000Y-179700000D03*
X156500000Y-169100000D03*
D14*
X156500000Y-175000000D03*
D13*
X159100000Y-180750000D03*
X161500000Y-171300000D03*
D12*
X162000000Y-175000000D03*
D17*
X162950000Y-180750000D03*
D18*
X164600000Y-171300000D03*
D17*
X148250000Y-179700000D03*
D18*
X153400000Y-169100000D03*
G04 #@! TD*
D12*
G04 #@! TO.C,L-S17*
X169500000Y-150000000D03*
D13*
X170600000Y-154700000D03*
X175000000Y-144100000D03*
D14*
X175000000Y-150000000D03*
D13*
X177600000Y-155750000D03*
X180000000Y-146300000D03*
D12*
X180500000Y-150000000D03*
D17*
X181450000Y-155750000D03*
D18*
X183100000Y-146300000D03*
D17*
X166750000Y-154700000D03*
D18*
X171900000Y-144100000D03*
G04 #@! TD*
D12*
G04 #@! TO.C,L-S16*
X151000000Y-150000000D03*
D13*
X152100000Y-154700000D03*
X156500000Y-144100000D03*
D14*
X156500000Y-150000000D03*
D13*
X159100000Y-155750000D03*
X161500000Y-146300000D03*
D12*
X162000000Y-150000000D03*
D17*
X162950000Y-155750000D03*
D18*
X164600000Y-146300000D03*
D17*
X148250000Y-154700000D03*
D18*
X153400000Y-144100000D03*
G04 #@! TD*
D12*
G04 #@! TO.C,L-S15*
X132272538Y-137218648D03*
D13*
X133617009Y-141854637D03*
X137456218Y-131038886D03*
D14*
X137765000Y-136930800D03*
D13*
X140662369Y-142536846D03*
X142564505Y-132974191D03*
D12*
X143257462Y-136642952D03*
D25*
X144507092Y-142335353D03*
D26*
X145660256Y-132811949D03*
D25*
X129772285Y-142056130D03*
D26*
X134360466Y-131201127D03*
G04 #@! TD*
D12*
G04 #@! TO.C,L-S14*
X114074330Y-144337407D03*
D13*
X115659587Y-148896678D03*
X118927482Y-137894821D03*
D14*
X119544200Y-143762500D03*
D13*
X122730996Y-149209227D03*
X124130054Y-139560127D03*
D12*
X125014070Y-143187593D03*
D27*
X126559905Y-148806792D03*
D28*
X127213072Y-139236088D03*
D27*
X111830678Y-149299113D03*
D28*
X115844464Y-138218859D03*
G04 #@! TD*
D12*
G04 #@! TO.C,L-S13*
X97960314Y-162201890D03*
D13*
X99782013Y-166671947D03*
X102469637Y-155514139D03*
D14*
X103392600Y-161341500D03*
D13*
X106860088Y-166613978D03*
X107752234Y-156904881D03*
D12*
X108824886Y-160481110D03*
D15*
X110662688Y-166011706D03*
D16*
X110814068Y-156419934D03*
D15*
X95979413Y-167274220D03*
D16*
X99407803Y-155999086D03*
G04 #@! TD*
D12*
G04 #@! TO.C,L-S12*
X79688114Y-165095890D03*
D13*
X81509813Y-169565947D03*
X84197437Y-158408139D03*
D14*
X85120400Y-164235500D03*
D13*
X88587888Y-169507978D03*
X89480034Y-159798881D03*
D12*
X90552686Y-163375110D03*
D15*
X92390488Y-168905706D03*
D16*
X92541868Y-159313934D03*
D15*
X77707213Y-170168220D03*
D16*
X81135603Y-158893086D03*
G04 #@! TD*
D12*
G04 #@! TO.C,L-S11*
X169500000Y-131500000D03*
D13*
X170600000Y-136200000D03*
X175000000Y-125600000D03*
D14*
X175000000Y-131500000D03*
D13*
X177600000Y-137250000D03*
X180000000Y-127800000D03*
D12*
X180500000Y-131500000D03*
D17*
X181450000Y-137250000D03*
D18*
X183100000Y-127800000D03*
D17*
X166750000Y-136200000D03*
D18*
X171900000Y-125600000D03*
G04 #@! TD*
D12*
G04 #@! TO.C,L-S10*
X151000000Y-131500000D03*
D13*
X152100000Y-136200000D03*
X156500000Y-125600000D03*
D14*
X156500000Y-131500000D03*
D13*
X159100000Y-137250000D03*
X161500000Y-127800000D03*
D12*
X162000000Y-131500000D03*
D17*
X162950000Y-137250000D03*
D18*
X164600000Y-127800000D03*
D17*
X148250000Y-136200000D03*
D18*
X153400000Y-125600000D03*
G04 #@! TD*
D12*
G04 #@! TO.C,L-S9*
X131304338Y-118744048D03*
D13*
X132648809Y-123380037D03*
X136488018Y-112564286D03*
D14*
X136796800Y-118456200D03*
D13*
X139694169Y-124062246D03*
X141596305Y-114499591D03*
D12*
X142289262Y-118168352D03*
D25*
X143538892Y-123860753D03*
D26*
X144692056Y-114337349D03*
D25*
X128804085Y-123581530D03*
D26*
X133392266Y-112726527D03*
G04 #@! TD*
D12*
G04 #@! TO.C,L-S8*
X112140530Y-125938807D03*
D13*
X113725787Y-130498078D03*
X116993682Y-119496221D03*
D14*
X117610400Y-125363900D03*
D13*
X120797196Y-130810627D03*
X122196254Y-121161527D03*
D12*
X123080270Y-124788993D03*
D27*
X124626105Y-130408192D03*
D28*
X125279272Y-120837488D03*
D27*
X109896878Y-130900513D03*
D28*
X113910664Y-119820259D03*
G04 #@! TD*
D12*
G04 #@! TO.C,L-S7*
X95066314Y-143929690D03*
D13*
X96888013Y-148399747D03*
X99575637Y-137241939D03*
D14*
X100498600Y-143069300D03*
D13*
X103966088Y-148341778D03*
X104858234Y-138632681D03*
D12*
X105930886Y-142208910D03*
D15*
X107768688Y-147739506D03*
D16*
X107920068Y-138147734D03*
D15*
X93085413Y-149002020D03*
D16*
X96513803Y-137726886D03*
G04 #@! TD*
D12*
G04 #@! TO.C,L-S6*
X76794014Y-146823690D03*
D13*
X78615713Y-151293747D03*
X81303337Y-140135939D03*
D14*
X82226300Y-145963300D03*
D13*
X85693788Y-151235778D03*
X86585934Y-141526681D03*
D12*
X87658586Y-145102910D03*
D15*
X89496388Y-150633506D03*
D16*
X89647768Y-141041734D03*
D15*
X74813113Y-151896020D03*
D16*
X78241503Y-140620886D03*
G04 #@! TD*
D12*
G04 #@! TO.C,L-S5*
X169500000Y-113000000D03*
D13*
X170600000Y-117700000D03*
X175000000Y-107100000D03*
D14*
X175000000Y-113000000D03*
D13*
X177600000Y-118750000D03*
X180000000Y-109300000D03*
D12*
X180500000Y-113000000D03*
D17*
X181450000Y-118750000D03*
D18*
X183100000Y-109300000D03*
D17*
X166750000Y-117700000D03*
D18*
X171900000Y-107100000D03*
G04 #@! TD*
D12*
G04 #@! TO.C,L-S4*
X151000000Y-113000000D03*
D13*
X152100000Y-117700000D03*
X156500000Y-107100000D03*
D14*
X156500000Y-113000000D03*
D13*
X159100000Y-118750000D03*
X161500000Y-109300000D03*
D12*
X162000000Y-113000000D03*
D17*
X162950000Y-118750000D03*
D18*
X164600000Y-109300000D03*
D17*
X148250000Y-117700000D03*
D18*
X153400000Y-107100000D03*
G04 #@! TD*
D12*
G04 #@! TO.C,L-S3*
X130336138Y-100269348D03*
D13*
X131680609Y-104905337D03*
X135519818Y-94089586D03*
D14*
X135828600Y-99981500D03*
D13*
X138725969Y-105587546D03*
X140628105Y-96024891D03*
D12*
X141321062Y-99693652D03*
D25*
X142570692Y-105386053D03*
D26*
X143723856Y-95862649D03*
D25*
X127835885Y-105106830D03*
D26*
X132424066Y-94251827D03*
G04 #@! TD*
D12*
G04 #@! TO.C,L-S2*
X110206830Y-107540107D03*
D13*
X111792087Y-112099378D03*
X115059982Y-101097521D03*
D14*
X115676700Y-106965200D03*
D13*
X118863496Y-112411927D03*
X120262554Y-102762827D03*
D12*
X121146570Y-106390293D03*
D27*
X122692405Y-112009492D03*
D28*
X123345572Y-102438788D03*
D27*
X107963178Y-112501813D03*
D28*
X111976964Y-101421559D03*
G04 #@! TD*
D12*
G04 #@! TO.C,L-S1*
X92172214Y-125657390D03*
D13*
X93993913Y-130127447D03*
X96681537Y-118969639D03*
D14*
X97604500Y-124797000D03*
D13*
X101071988Y-130069478D03*
X101964134Y-120360381D03*
D12*
X103036786Y-123936610D03*
D15*
X104874588Y-129467206D03*
D16*
X105025968Y-119875434D03*
D15*
X90191313Y-130729720D03*
D16*
X93619703Y-119454586D03*
G04 #@! TD*
D12*
G04 #@! TO.C,L-S0*
X73900014Y-128551490D03*
D13*
X75721713Y-133021547D03*
X78409337Y-121863739D03*
D14*
X79332300Y-127691100D03*
D13*
X82799788Y-132963578D03*
X83691934Y-123254481D03*
D12*
X84764586Y-126830710D03*
D15*
X86602388Y-132361306D03*
D16*
X86753768Y-122769534D03*
D15*
X71919113Y-133623820D03*
D16*
X75347503Y-122348686D03*
G04 #@! TD*
D29*
G04 #@! TO.C,mbites3*
X230000000Y-122439400D03*
X230000000Y-123439400D03*
X230000000Y-124439400D03*
X230000000Y-125439400D03*
X230000000Y-126439400D03*
X230000000Y-127439400D03*
G04 #@! TD*
G04 #@! TO.C,mbites4*
X230000000Y-140439400D03*
X230000000Y-141439400D03*
X230000000Y-142439400D03*
X230000000Y-143439400D03*
X230000000Y-144439400D03*
X230000000Y-145439400D03*
G04 #@! TD*
G04 #@! TO.C,mbites2*
X185000000Y-140439400D03*
X185000000Y-141439400D03*
X185000000Y-142439400D03*
X185000000Y-143439400D03*
X185000000Y-144439400D03*
X185000000Y-145439400D03*
G04 #@! TD*
G04 #@! TO.C,mbites1*
X185000000Y-122439400D03*
X185000000Y-123439400D03*
X185000000Y-124439400D03*
X185000000Y-125439400D03*
X185000000Y-126439400D03*
X185000000Y-127439400D03*
G04 #@! TD*
D30*
G04 #@! TO.C,R-D16*
X251500000Y-147500000D03*
X251500000Y-144100000D03*
G04 #@! TD*
G04 #@! TO.C,L-D11*
X168000000Y-129000000D03*
X168000000Y-125600000D03*
G04 #@! TD*
D31*
G04 #@! TO.C,L-D6*
X74921439Y-144589170D03*
X74389561Y-141231030D03*
G04 #@! TD*
D32*
G04 #@! TO.C,R-D13*
X305084661Y-157777270D03*
X305616539Y-154419130D03*
G04 #@! TD*
D33*
G04 #@! TO.C,R-D15*
X270375429Y-134067870D03*
X270553371Y-130672530D03*
G04 #@! TD*
D34*
G04 #@! TO.C,L-D8*
X110387498Y-123609287D03*
X110032102Y-120227913D03*
G04 #@! TD*
D30*
G04 #@! TO.C,R-D17*
X233000000Y-147500000D03*
X233000000Y-144100000D03*
G04 #@! TD*
D31*
G04 #@! TO.C,L-D7*
X93193639Y-141695070D03*
X92661761Y-138336930D03*
G04 #@! TD*
D32*
G04 #@! TO.C,R-D1*
X310872761Y-121232770D03*
X311404639Y-117874630D03*
G04 #@! TD*
D30*
G04 #@! TO.C,L-D19*
X168000000Y-172500000D03*
X168000000Y-169100000D03*
G04 #@! TD*
G04 #@! TO.C,L-D4*
X149500000Y-110500000D03*
X149500000Y-107100000D03*
G04 #@! TD*
D31*
G04 #@! TO.C,L-D1*
X90299639Y-123422870D03*
X89767761Y-120064730D03*
G04 #@! TD*
G04 #@! TO.C,R-D20*
X212861939Y-175186770D03*
X212330061Y-171828630D03*
G04 #@! TD*
D33*
G04 #@! TO.C,R-D9*
X271343629Y-115593270D03*
X271521571Y-112197930D03*
G04 #@! TD*
D35*
G04 #@! TO.C,R-D14*
X288755502Y-140544487D03*
X289110898Y-137163113D03*
G04 #@! TD*
D33*
G04 #@! TO.C,R-D03*
X272311929Y-97118570D03*
X272489871Y-93723230D03*
G04 #@! TD*
D36*
G04 #@! TO.C,U1*
X121521000Y-180633700D03*
X121521000Y-178093700D03*
X121521000Y-175553700D03*
X121521000Y-173013700D03*
X121521000Y-170473700D03*
X121521000Y-167933700D03*
X121521000Y-165393700D03*
X139921000Y-180633700D03*
X139921000Y-178093700D03*
X139921000Y-175553700D03*
X139921000Y-173013700D03*
X139921000Y-170473700D03*
X139921000Y-167933700D03*
X139921000Y-165393700D03*
G04 #@! TD*
D30*
G04 #@! TO.C,R-D19*
X233000000Y-172500000D03*
X233000000Y-169100000D03*
G04 #@! TD*
G04 #@! TO.C,R-D18*
X251500000Y-172500000D03*
X251500000Y-169100000D03*
G04 #@! TD*
D37*
G04 #@! TO.C,L-D9*
X129675571Y-116325970D03*
X129497629Y-112930630D03*
G04 #@! TD*
G04 #@! TO.C,L-D3*
X128707271Y-97851270D03*
X128529329Y-94455930D03*
G04 #@! TD*
D31*
G04 #@! TO.C,L-D12*
X77815439Y-162861370D03*
X77283561Y-159503230D03*
G04 #@! TD*
D32*
G04 #@! TO.C,L-D20*
X188310361Y-172996670D03*
X188842239Y-169638530D03*
G04 #@! TD*
D30*
G04 #@! TO.C,R-D5*
X233000000Y-110500000D03*
X233000000Y-107100000D03*
G04 #@! TD*
G04 #@! TO.C,L-D17*
X168000000Y-147500000D03*
X168000000Y-144100000D03*
G04 #@! TD*
D34*
G04 #@! TO.C,L-D14*
X112321198Y-142007887D03*
X111965802Y-138626513D03*
G04 #@! TD*
D30*
G04 #@! TO.C,R-D11*
X233000000Y-129000000D03*
X233000000Y-125600000D03*
G04 #@! TD*
D37*
G04 #@! TO.C,L-D15*
X130643771Y-134800570D03*
X130465829Y-131405230D03*
G04 #@! TD*
D35*
G04 #@! TO.C,R-D2*
X292623002Y-103747187D03*
X292978398Y-100365813D03*
G04 #@! TD*
G04 #@! TO.C,R-D8*
X290689202Y-122145887D03*
X291044598Y-118764513D03*
G04 #@! TD*
D34*
G04 #@! TO.C,L-D2*
X108453698Y-105210587D03*
X108098302Y-101829213D03*
G04 #@! TD*
D30*
G04 #@! TO.C,R-D4*
X251500000Y-110500000D03*
X251500000Y-107100000D03*
G04 #@! TD*
D32*
G04 #@! TO.C,R-D7*
X307978661Y-139504970D03*
X308510539Y-136146830D03*
G04 #@! TD*
D30*
G04 #@! TO.C,L-D16*
X149500000Y-147500000D03*
X149500000Y-144100000D03*
G04 #@! TD*
D31*
G04 #@! TO.C,L-D13*
X96087739Y-159967270D03*
X95555861Y-156609130D03*
G04 #@! TD*
D32*
G04 #@! TO.C,R-D12*
X323356861Y-160671270D03*
X323888739Y-157313130D03*
G04 #@! TD*
D30*
G04 #@! TO.C,L-D18*
X149500000Y-172500000D03*
X149500000Y-169100000D03*
G04 #@! TD*
G04 #@! TO.C,R-D10*
X251500000Y-129000000D03*
X251500000Y-125600000D03*
G04 #@! TD*
D36*
G04 #@! TO.C,U2*
X275079000Y-180633700D03*
X275079000Y-178093700D03*
X275079000Y-175553700D03*
X275079000Y-173013700D03*
X275079000Y-170473700D03*
X275079000Y-167933700D03*
X275079000Y-165393700D03*
X293479000Y-180633700D03*
X293479000Y-178093700D03*
X293479000Y-175553700D03*
X293479000Y-173013700D03*
X293479000Y-170473700D03*
X293479000Y-167933700D03*
X293479000Y-165393700D03*
G04 #@! TD*
D31*
G04 #@! TO.C,L-D0*
X72027339Y-126316870D03*
X71495461Y-122958730D03*
G04 #@! TD*
D30*
G04 #@! TO.C,L-D10*
X149500000Y-129000000D03*
X149500000Y-125600000D03*
G04 #@! TD*
D32*
G04 #@! TO.C,R-D0*
X329144961Y-124126770D03*
X329676839Y-120768630D03*
G04 #@! TD*
G04 #@! TO.C,R-D6*
X326250961Y-142399070D03*
X326782839Y-139040930D03*
G04 #@! TD*
D30*
G04 #@! TO.C,L-D5*
X168000000Y-110500000D03*
X168000000Y-107100000D03*
G04 #@! TD*
D38*
G04 #@! TO.C,L-GND1*
X139811000Y-148529800D03*
G04 #@! TD*
G04 #@! TO.C,R-BAT+1*
X281189000Y-148620800D03*
G04 #@! TD*
G04 #@! TO.C,L-BAT+2*
X117631000Y-173013700D03*
G04 #@! TD*
G04 #@! TO.C,R-BAT+2*
X271189000Y-173013700D03*
G04 #@! TD*
G04 #@! TO.C,L-BAT+1*
X133811000Y-148529800D03*
G04 #@! TD*
G04 #@! TO.C,R-GND1*
X275189000Y-148620800D03*
G04 #@! TD*
D39*
G04 #@! TO.C,L-PSW1*
X80628160Y-180970977D03*
X80208241Y-178000091D03*
G04 #@! TD*
G04 #@! TO.C,R-PSW1*
X334284102Y-178254850D03*
X333765414Y-181210093D03*
G04 #@! TD*
%LPD*%
M02*
