M48
; DRILL file {KiCad 9.0.0} date 2025-03-17T20:43:48+0300
; FORMAT={-:-/ absolute / metric / decimal}
; #@! TF.CreationDate,2025-03-17T20:43:48+03:00
; #@! TF.GenerationSoftware,Kicad,Pcbnew,9.0.0
; #@! TF.FileFunction,NonPlated,1,2,NPTH
FMAT,2
METRIC
; #@! TA.AperFunction,NonPlated,NPTH,ComponentDrill
T1C0.600
; #@! TA.AperFunction,NonPlated,NPTH,ComponentDrill
T2C0.700
; #@! TA.AperFunction,NonPlated,NPTH,ComponentDrill
T3C1.900
; #@! TA.AperFunction,NonPlated,NPTH,ComponentDrill
T4C3.000
; #@! TA.AperFunction,NonPlated,NPTH,ComponentDrill
T5C5.100
%
G90
G05
T1
X185.0Y-122.439
X185.0Y-123.439
X185.0Y-124.439
X185.0Y-125.439
X185.0Y-126.439
X185.0Y-127.439
X185.0Y-140.439
X185.0Y-141.439
X185.0Y-142.439
X185.0Y-143.439
X185.0Y-144.439
X185.0Y-145.439
X230.0Y-122.439
X230.0Y-123.439
X230.0Y-124.439
X230.0Y-125.439
X230.0Y-126.439
X230.0Y-127.439
X230.0Y-140.439
X230.0Y-141.439
X230.0Y-142.439
X230.0Y-143.439
X230.0Y-144.439
X230.0Y-145.439
T2
X80.208Y-178.0
X80.628Y-180.971
X333.765Y-181.21
X334.284Y-178.255
T3
X73.9Y-128.551
X76.794Y-146.824
X79.688Y-165.096
X84.765Y-126.831
X87.659Y-145.103
X90.553Y-163.375
X92.172Y-125.657
X95.066Y-143.93
X97.96Y-162.202
X103.037Y-123.937
X105.931Y-142.209
X108.825Y-160.481
X110.207Y-107.54
X112.141Y-125.939
X114.074Y-144.337
X121.147Y-106.39
X123.08Y-124.789
X125.014Y-143.188
X130.336Y-100.269
X131.304Y-118.744
X132.273Y-137.219
X141.321Y-99.694
X142.289Y-118.168
X143.257Y-136.643
X151.0Y-113.0
X151.0Y-131.5
X151.0Y-150.0
X151.0Y-175.0
X162.0Y-113.0
X162.0Y-131.5
X162.0Y-150.0
X162.0Y-175.0
X169.5Y-113.0
X169.5Y-131.5
X169.5Y-150.0
X169.5Y-175.0
X180.5Y-113.0
X180.5Y-131.5
X180.5Y-150.0
X180.5Y-175.0
X189.401Y-175.701
X200.265Y-177.421
X214.735Y-177.421
X225.599Y-175.701
X234.5Y-113.0
X234.5Y-131.5
X234.5Y-150.0
X234.5Y-175.0
X245.5Y-113.0
X245.5Y-131.5
X245.5Y-150.0
X245.5Y-175.0
X253.0Y-113.0
X253.0Y-131.5
X253.0Y-150.0
X253.0Y-175.0
X264.0Y-113.0
X264.0Y-131.5
X264.0Y-150.0
X264.0Y-175.0
X271.743Y-136.643
X272.711Y-118.168
X273.679Y-99.694
X282.727Y-137.219
X283.696Y-118.744
X284.664Y-100.269
X289.986Y-143.188
X291.92Y-124.789
X293.853Y-106.39
X300.926Y-144.337
X302.859Y-125.939
X304.793Y-107.54
X306.175Y-160.481
X309.069Y-142.209
X311.963Y-123.937
X317.04Y-162.202
X319.934Y-143.93
X322.828Y-125.657
X324.447Y-163.375
X327.341Y-145.103
X330.235Y-126.831
X335.312Y-165.096
X338.206Y-146.824
X341.1Y-128.551
T4
X75.722Y-133.022
X78.409Y-121.864
X78.616Y-151.294
X81.303Y-140.136
X81.51Y-169.566
X82.8Y-132.964
X83.692Y-123.254
X84.197Y-158.408
X85.694Y-151.236
X86.586Y-141.527
X88.588Y-169.508
X89.48Y-159.799
X93.994Y-130.127
X96.682Y-118.97
X96.888Y-148.4
X99.576Y-137.242
X99.782Y-166.672
X101.072Y-130.069
X101.964Y-120.36
X102.47Y-155.514
X103.966Y-148.342
X104.858Y-138.633
X106.86Y-166.614
X107.752Y-156.905
X111.792Y-112.099
X113.726Y-130.498
X115.06Y-101.098
X115.66Y-148.897
X116.994Y-119.496
X118.863Y-112.412
X118.927Y-137.895
X120.263Y-102.763
X120.797Y-130.811
X122.196Y-121.162
X122.731Y-149.209
X124.13Y-139.56
X131.681Y-104.905
X132.649Y-123.38
X133.617Y-141.855
X135.52Y-94.09
X136.488Y-112.564
X137.456Y-131.039
X138.726Y-105.588
X139.694Y-124.062
X140.628Y-96.025
X140.662Y-142.537
X141.596Y-114.5
X142.565Y-132.974
X152.1Y-117.7
X152.1Y-136.2
X152.1Y-154.7
X152.1Y-179.7
X156.5Y-107.1
X156.5Y-125.6
X156.5Y-144.1
X156.5Y-169.1
X159.1Y-118.75
X159.1Y-137.25
X159.1Y-155.75
X159.1Y-180.75
X161.5Y-109.3
X161.5Y-127.8
X161.5Y-146.3
X161.5Y-171.3
X170.6Y-117.7
X170.6Y-136.2
X170.6Y-154.7
X170.6Y-179.7
X175.0Y-107.1
X175.0Y-125.6
X175.0Y-144.1
X175.0Y-169.1
X177.6Y-118.75
X177.6Y-137.25
X177.6Y-155.75
X177.6Y-180.75
X180.0Y-109.3
X180.0Y-127.8
X180.0Y-146.3
X180.0Y-171.3
X189.752Y-180.515
X195.756Y-170.734
X196.502Y-182.647
X200.35Y-173.689
X216.556Y-181.891
X219.244Y-170.734
X223.634Y-181.833
X224.527Y-172.124
X235.6Y-117.7
X235.6Y-136.2
X235.6Y-154.7
X235.6Y-179.7
X240.0Y-107.1
X240.0Y-125.6
X240.0Y-144.1
X240.0Y-169.1
X242.6Y-118.75
X242.6Y-137.25
X242.6Y-155.75
X242.6Y-180.75
X245.0Y-109.3
X245.0Y-127.8
X245.0Y-146.3
X245.0Y-171.3
X254.1Y-117.7
X254.1Y-136.2
X254.1Y-154.7
X254.1Y-179.7
X258.5Y-107.1
X258.5Y-125.6
X258.5Y-144.1
X258.5Y-169.1
X261.1Y-118.75
X261.1Y-137.25
X261.1Y-155.75
X261.1Y-180.75
X263.5Y-109.3
X263.5Y-127.8
X263.5Y-146.3
X263.5Y-171.3
X272.595Y-141.394
X273.563Y-122.919
X274.531Y-104.445
X277.544Y-131.039
X278.512Y-112.564
X279.48Y-94.09
X279.531Y-142.809
X280.499Y-124.334
X281.467Y-105.86
X282.422Y-133.498
X283.39Y-115.023
X284.358Y-96.548
X290.589Y-147.977
X292.522Y-129.578
X294.456Y-111.18
X296.073Y-137.895
X297.441Y-149.753
X298.006Y-119.496
X299.374Y-131.354
X299.94Y-101.098
X300.815Y-140.605
X301.308Y-112.955
X302.749Y-122.207
X304.683Y-103.808
X306.526Y-165.295
X309.42Y-147.023
X312.314Y-128.751
X312.53Y-155.514
X313.276Y-167.427
X315.424Y-137.242
X316.17Y-149.155
X317.125Y-158.469
X318.318Y-118.97
X319.064Y-130.883
X320.019Y-140.197
X322.913Y-121.925
X324.799Y-168.189
X327.693Y-149.917
X330.587Y-131.645
X330.803Y-158.408
X331.548Y-170.321
X333.697Y-140.136
X334.442Y-152.049
X335.397Y-161.363
X336.591Y-121.864
X337.336Y-133.777
X338.291Y-143.091
X341.185Y-124.819
T5
X79.332Y-127.691
X82.226Y-145.963
X85.12Y-164.236
X97.605Y-124.797
X100.499Y-143.069
X103.393Y-161.341
X115.677Y-106.965
X117.61Y-125.364
X119.544Y-143.762
X135.829Y-99.981
X136.797Y-118.456
X137.765Y-136.931
X156.5Y-113.0
X156.5Y-131.5
X156.5Y-150.0
X156.5Y-175.0
X175.0Y-113.0
X175.0Y-131.5
X175.0Y-150.0
X175.0Y-175.0
X194.833Y-176.561
X220.167Y-176.561
X240.0Y-113.0
X240.0Y-131.5
X240.0Y-150.0
X240.0Y-175.0
X258.5Y-113.0
X258.5Y-131.5
X258.5Y-150.0
X258.5Y-175.0
X277.235Y-136.931
X278.203Y-118.456
X279.171Y-99.981
X295.456Y-143.762
X297.39Y-125.364
X299.323Y-106.965
X311.607Y-161.341
X314.501Y-143.069
X317.395Y-124.797
X329.88Y-164.236
X332.774Y-145.963
X335.668Y-127.691
M30
