M48
; DRILL file {KiCad 9.0.0} date 2025-03-17T20:43:48+0300
; FORMAT={-:-/ absolute / metric / decimal}
; #@! TF.CreationDate,2025-03-17T20:43:48+03:00
; #@! TF.GenerationSoftware,Kicad,Pcbnew,9.0.0
; #@! TF.FileFunction,Plated,1,2,PTH
FMAT,2
METRIC
; #@! TA.AperFunction,Plated,PTH,ViaDrill
T1C0.300
; #@! TA.AperFunction,Plated,PTH,ComponentDrill
T2C0.800
; #@! TA.AperFunction,Plated,PTH,ComponentDrill
T3C1.000
%
G90
G05
T1
X86.693Y-139.226
X93.751Y-139.938
X109.941Y-125.373
X116.15Y-174.599
X130.347Y-97.299
X131.26Y-116.942
X134.72Y-159.535
X140.036Y-156.928
X140.889Y-154.946
X142.161Y-157.292
X144.439Y-150.954
X145.026Y-144.492
X148.751Y-105.331
X150.883Y-127.789
X151.041Y-148.025
X164.85Y-131.454
X166.45Y-147.991
X246.381Y-133.094
X246.381Y-151.594
X251.125Y-130.691
X251.125Y-149.191
X270.102Y-137.944
X274.605Y-156.727
X275.108Y-154.491
X275.897Y-156.683
X277.849Y-158.01
X279.639Y-107.892
X282.207Y-158.072
X284.361Y-158.34
X287.168Y-140.905
X289.877Y-107.98
X290.406Y-123.826
X304.734Y-137.157
X305.247Y-150.319
X309.339Y-117.309
X317.023Y-153.64
X318.839Y-156.93
X323.953Y-138.467
X335.736Y-155.332
T2
X121.521Y-165.394
X121.521Y-167.934
X121.521Y-170.474
X121.521Y-173.014
X121.521Y-175.554
X121.521Y-178.094
X121.521Y-180.634
X139.921Y-165.394
X139.921Y-167.934
X139.921Y-170.474
X139.921Y-173.014
X139.921Y-175.554
X139.921Y-178.094
X139.921Y-180.634
X275.079Y-165.394
X275.079Y-167.934
X275.079Y-170.474
X275.079Y-173.014
X275.079Y-175.554
X275.079Y-178.094
X275.079Y-180.634
X293.479Y-165.394
X293.479Y-167.934
X293.479Y-170.474
X293.479Y-173.014
X293.479Y-175.554
X293.479Y-178.094
X293.479Y-180.634
T3
X117.631Y-173.014
X133.811Y-148.53
X139.811Y-148.53
X271.189Y-173.014
X275.189Y-148.621
X281.189Y-148.621
M30
