G04 #@! TF.GenerationSoftware,KiCad,Pcbnew,9.0.0*
G04 #@! TF.CreationDate,2025-03-17T20:43:48+03:00*
G04 #@! TF.ProjectId,NIOKR,4e494f4b-522e-46b6-9963-61645f706362,rev?*
G04 #@! TF.SameCoordinates,Original*
G04 #@! TF.FileFunction,Paste,Bot*
G04 #@! TF.FilePolarity,Positive*
%FSLAX46Y46*%
G04 Gerber Fmt 4.6, Leading zero omitted, Abs format (unit mm)*
G04 Created by KiCad (PCBNEW 9.0.0) date 2025-03-17 20:43:48*
%MOMM*%
%LPD*%
G01*
G04 APERTURE LIST*
G04 Aperture macros list*
%AMRoundRect*
0 Rectangle with rounded corners*
0 $1 Rounding radius*
0 $2 $3 $4 $5 $6 $7 $8 $9 X,Y pos of 4 corners*
0 Add a 4 corners polygon primitive as box body*
4,1,4,$2,$3,$4,$5,$6,$7,$8,$9,$2,$3,0*
0 Add four circle primitives for the rounded corners*
1,1,$1+$1,$2,$3*
1,1,$1+$1,$4,$5*
1,1,$1+$1,$6,$7*
1,1,$1+$1,$8,$9*
0 Add four rect primitives between the rounded corners*
20,1,$1+$1,$2,$3,$4,$5,0*
20,1,$1+$1,$4,$5,$6,$7,0*
20,1,$1+$1,$6,$7,$8,$9,0*
20,1,$1+$1,$8,$9,$2,$3,0*%
G04 Aperture macros list end*
%ADD10RoundRect,0.250000X-0.827343X-1.168815X1.148034X-0.855946X0.827343X1.168815X-1.148034X0.855946X0*%
%ADD11RoundRect,0.250000X0.724663X1.177864X-1.053176X0.896282X-0.724663X-1.177864X1.053176X-0.896282X0*%
%ADD12RoundRect,0.250000X-1.000000X-1.025000X1.000000X-1.025000X1.000000X1.025000X-1.000000X1.025000X0*%
%ADD13RoundRect,0.250000X0.900000X1.050000X-0.900000X1.050000X-0.900000X-1.050000X0.900000X-1.050000X0*%
%ADD14RoundRect,0.250000X-1.052274X-0.971259X0.944985X-1.075931X1.052274X0.971259X-0.944985X1.075931X0*%
%ADD15RoundRect,0.250000X0.953719X1.001459X-0.843814X1.095663X-0.953719X-1.001459X0.843814X-1.095663X0*%
%ADD16RoundRect,0.250000X-1.101664X-0.914856X0.887380X-1.123913X1.101664X0.914856X-0.887380X1.123913X0*%
%ADD17RoundRect,0.250000X1.004825X0.950172X-0.785315X1.138324X-1.004825X-0.950172X0.785315X-1.138324X0*%
%ADD18RoundRect,0.250000X-1.148034X-0.855946X0.827343X-1.168815X1.148034X0.855946X-0.827343X1.168815X0*%
%ADD19RoundRect,0.250000X1.053176X0.896282X-0.724663X1.177864X-1.053176X-0.896282X0.724663X-1.177864X0*%
%ADD20RoundRect,0.250000X-0.944985X-1.075931X1.052274X-0.971259X0.944985X1.075931X-1.052274X0.971259X0*%
%ADD21RoundRect,0.250000X0.843814X1.095663X-0.953719X1.001459X-0.843814X-1.095663X0.953719X-1.001459X0*%
%ADD22RoundRect,0.250000X-0.887380X-1.123913X1.101664X-0.914856X0.887380X1.123913X-1.101664X0.914856X0*%
%ADD23RoundRect,0.250000X0.785315X1.138324X-1.004825X0.950172X-0.785315X-1.138324X1.004825X-0.950172X0*%
%ADD24RoundRect,0.250000X0.500000X-0.650000X0.500000X0.650000X-0.500000X0.650000X-0.500000X-0.650000X0*%
%ADD25RoundRect,0.250000X0.595527X-0.563780X0.392162X0.720215X-0.595527X0.563780X-0.392162X-0.720215X0*%
%ADD26RoundRect,0.250000X0.392162X-0.720215X0.595527X0.563780X-0.392162X0.720215X-0.595527X-0.563780X0*%
%ADD27RoundRect,0.250000X0.465296X-0.675277X0.533333X0.622941X-0.465296X0.675277X-0.533333X-0.622941X0*%
%ADD28RoundRect,0.250000X0.565204X-0.594175X0.429317X0.698703X-0.565204X0.594175X-0.429317X-0.698703X0*%
%ADD29RoundRect,0.250000X0.429317X-0.698703X0.565204X0.594175X-0.429317X0.698703X-0.565204X-0.594175X0*%
%ADD30RoundRect,0.250000X0.533333X-0.622941X0.465296X0.675277X-0.533333X0.622941X-0.465296X-0.675277X0*%
G04 APERTURE END LIST*
D10*
G04 #@! TO.C,R-S20*
X227436988Y-181231106D03*
D11*
X227588368Y-171639334D03*
D10*
X212753713Y-182493620D03*
D11*
X216182103Y-171218486D03*
G04 #@! TD*
D12*
G04 #@! TO.C,R-S19*
X246450000Y-180750000D03*
D13*
X248100000Y-171300000D03*
D12*
X231750000Y-179700000D03*
D13*
X236900000Y-169100000D03*
G04 #@! TD*
D12*
G04 #@! TO.C,R-S18*
X264950000Y-180750000D03*
D13*
X266600000Y-171300000D03*
D12*
X250250000Y-179700000D03*
D13*
X255400000Y-169100000D03*
G04 #@! TD*
D12*
G04 #@! TO.C,R-S17*
X246450000Y-155750000D03*
D13*
X248100000Y-146300000D03*
D12*
X231750000Y-154700000D03*
D13*
X236900000Y-144100000D03*
G04 #@! TD*
D12*
G04 #@! TO.C,R-S16*
X264950000Y-155750000D03*
D13*
X266600000Y-146300000D03*
D12*
X250250000Y-154700000D03*
D13*
X255400000Y-144100000D03*
G04 #@! TD*
D14*
G04 #@! TO.C,R-S15*
X283375229Y-143010487D03*
D15*
X285517542Y-133659792D03*
D14*
X268750327Y-141192587D03*
D15*
X274448031Y-130876644D03*
G04 #@! TD*
D16*
G04 #@! TO.C,R-S14*
X301269428Y-150155209D03*
D17*
X303898183Y-140929450D03*
D16*
X286759711Y-147574393D03*
D17*
X292989500Y-137570783D03*
G04 #@! TD*
D18*
G04 #@! TO.C,R-S13*
X317078492Y-168029710D03*
D19*
X320186483Y-158954172D03*
D18*
X302723729Y-164693051D03*
D19*
X309468529Y-155029192D03*
G04 #@! TD*
D18*
G04 #@! TO.C,R-S12*
X335350692Y-170923710D03*
D19*
X338458683Y-161848172D03*
D18*
X320995929Y-167587051D03*
D19*
X327740729Y-157923192D03*
G04 #@! TD*
D12*
G04 #@! TO.C,R-S11*
X246450000Y-137250000D03*
D13*
X248100000Y-127800000D03*
D12*
X231750000Y-136200000D03*
D13*
X236900000Y-125600000D03*
G04 #@! TD*
D12*
G04 #@! TO.C,R-S10*
X264950000Y-137250000D03*
D13*
X266600000Y-127800000D03*
D12*
X250250000Y-136200000D03*
D13*
X255400000Y-125600000D03*
G04 #@! TD*
D14*
G04 #@! TO.C,R-S9*
X284343429Y-124535887D03*
D15*
X286485742Y-115185192D03*
D14*
X269718527Y-122717987D03*
D15*
X275416231Y-112402044D03*
G04 #@! TD*
D16*
G04 #@! TO.C,R-S8*
X303203228Y-131756609D03*
D17*
X305831983Y-122530850D03*
D16*
X288693511Y-129175793D03*
D17*
X294923300Y-119172183D03*
G04 #@! TD*
D18*
G04 #@! TO.C,R-S7*
X319972492Y-149757510D03*
D19*
X323080483Y-140681972D03*
D18*
X305617729Y-146420851D03*
D19*
X312362529Y-136756992D03*
G04 #@! TD*
D18*
G04 #@! TO.C,R-S6*
X338244792Y-152651510D03*
D19*
X341352783Y-143575972D03*
D18*
X323890029Y-149314851D03*
D19*
X330634829Y-139650992D03*
G04 #@! TD*
D12*
G04 #@! TO.C,R-S5*
X246450000Y-118750000D03*
D13*
X248100000Y-109300000D03*
D12*
X231750000Y-117700000D03*
D13*
X236900000Y-107100000D03*
G04 #@! TD*
D12*
G04 #@! TO.C,R-S4*
X264950000Y-118750000D03*
D13*
X266600000Y-109300000D03*
D12*
X250250000Y-117700000D03*
D13*
X255400000Y-107100000D03*
G04 #@! TD*
D14*
G04 #@! TO.C,R-S3*
X285311629Y-106061187D03*
D15*
X287453942Y-96710492D03*
D14*
X270686727Y-104243287D03*
D15*
X276384431Y-93927344D03*
G04 #@! TD*
D16*
G04 #@! TO.C,R-S2*
X305136928Y-113357909D03*
D17*
X307765683Y-104132150D03*
D16*
X290627211Y-110777093D03*
D17*
X296857000Y-100773483D03*
G04 #@! TD*
D18*
G04 #@! TO.C,R-S1*
X322866592Y-131485210D03*
D19*
X325974583Y-122409672D03*
D18*
X308511829Y-128148551D03*
D19*
X315256629Y-118484692D03*
G04 #@! TD*
D18*
G04 #@! TO.C,R-S0*
X341138792Y-134379310D03*
D19*
X344246783Y-125303772D03*
D18*
X326784029Y-131042651D03*
D19*
X333528829Y-121378792D03*
G04 #@! TD*
D18*
G04 #@! TO.C,L-S20*
X200304192Y-183249110D03*
D19*
X203412183Y-174173572D03*
D18*
X185949429Y-179912451D03*
D19*
X192694229Y-170248592D03*
G04 #@! TD*
D12*
G04 #@! TO.C,L-S19*
X181450000Y-180750000D03*
D13*
X183100000Y-171300000D03*
D12*
X166750000Y-179700000D03*
D13*
X171900000Y-169100000D03*
G04 #@! TD*
D12*
G04 #@! TO.C,L-S18*
X162950000Y-180750000D03*
D13*
X164600000Y-171300000D03*
D12*
X148250000Y-179700000D03*
D13*
X153400000Y-169100000D03*
G04 #@! TD*
D12*
G04 #@! TO.C,L-S17*
X181450000Y-155750000D03*
D13*
X183100000Y-146300000D03*
D12*
X166750000Y-154700000D03*
D13*
X171900000Y-144100000D03*
G04 #@! TD*
D12*
G04 #@! TO.C,L-S16*
X162950000Y-155750000D03*
D13*
X164600000Y-146300000D03*
D12*
X148250000Y-154700000D03*
D13*
X153400000Y-144100000D03*
G04 #@! TD*
D20*
G04 #@! TO.C,L-S15*
X144507092Y-142335353D03*
D21*
X145660256Y-132811949D03*
D20*
X129772285Y-142056130D03*
D21*
X134360466Y-131201127D03*
G04 #@! TD*
D22*
G04 #@! TO.C,L-S14*
X126559905Y-148806792D03*
D23*
X127213072Y-139236088D03*
D22*
X111830678Y-149299113D03*
D23*
X115844464Y-138218859D03*
G04 #@! TD*
D10*
G04 #@! TO.C,L-S13*
X110662688Y-166011706D03*
D11*
X110814068Y-156419934D03*
D10*
X95979413Y-167274220D03*
D11*
X99407803Y-155999086D03*
G04 #@! TD*
D10*
G04 #@! TO.C,L-S12*
X92390488Y-168905706D03*
D11*
X92541868Y-159313934D03*
D10*
X77707213Y-170168220D03*
D11*
X81135603Y-158893086D03*
G04 #@! TD*
D12*
G04 #@! TO.C,L-S11*
X181450000Y-137250000D03*
D13*
X183100000Y-127800000D03*
D12*
X166750000Y-136200000D03*
D13*
X171900000Y-125600000D03*
G04 #@! TD*
D12*
G04 #@! TO.C,L-S10*
X162950000Y-137250000D03*
D13*
X164600000Y-127800000D03*
D12*
X148250000Y-136200000D03*
D13*
X153400000Y-125600000D03*
G04 #@! TD*
D20*
G04 #@! TO.C,L-S9*
X143538892Y-123860753D03*
D21*
X144692056Y-114337349D03*
D20*
X128804085Y-123581530D03*
D21*
X133392266Y-112726527D03*
G04 #@! TD*
D22*
G04 #@! TO.C,L-S8*
X124626105Y-130408192D03*
D23*
X125279272Y-120837488D03*
D22*
X109896878Y-130900513D03*
D23*
X113910664Y-119820259D03*
G04 #@! TD*
D10*
G04 #@! TO.C,L-S7*
X107768688Y-147739506D03*
D11*
X107920068Y-138147734D03*
D10*
X93085413Y-149002020D03*
D11*
X96513803Y-137726886D03*
G04 #@! TD*
D10*
G04 #@! TO.C,L-S6*
X89496388Y-150633506D03*
D11*
X89647768Y-141041734D03*
D10*
X74813113Y-151896020D03*
D11*
X78241503Y-140620886D03*
G04 #@! TD*
D12*
G04 #@! TO.C,L-S5*
X181450000Y-118750000D03*
D13*
X183100000Y-109300000D03*
D12*
X166750000Y-117700000D03*
D13*
X171900000Y-107100000D03*
G04 #@! TD*
D12*
G04 #@! TO.C,L-S4*
X162950000Y-118750000D03*
D13*
X164600000Y-109300000D03*
D12*
X148250000Y-117700000D03*
D13*
X153400000Y-107100000D03*
G04 #@! TD*
D20*
G04 #@! TO.C,L-S3*
X142570692Y-105386053D03*
D21*
X143723856Y-95862649D03*
D20*
X127835885Y-105106830D03*
D21*
X132424066Y-94251827D03*
G04 #@! TD*
D22*
G04 #@! TO.C,L-S2*
X122692405Y-112009492D03*
D23*
X123345572Y-102438788D03*
D22*
X107963178Y-112501813D03*
D23*
X111976964Y-101421559D03*
G04 #@! TD*
D10*
G04 #@! TO.C,L-S1*
X104874588Y-129467206D03*
D11*
X105025968Y-119875434D03*
D10*
X90191313Y-130729720D03*
D11*
X93619703Y-119454586D03*
G04 #@! TD*
D10*
G04 #@! TO.C,L-S0*
X86602388Y-132361306D03*
D11*
X86753768Y-122769534D03*
D10*
X71919113Y-133623820D03*
D11*
X75347503Y-122348686D03*
G04 #@! TD*
D24*
G04 #@! TO.C,R-D16*
X251500000Y-147500000D03*
X251500000Y-144100000D03*
G04 #@! TD*
G04 #@! TO.C,L-D11*
X168000000Y-129000000D03*
X168000000Y-125600000D03*
G04 #@! TD*
D25*
G04 #@! TO.C,L-D6*
X74921439Y-144589170D03*
X74389561Y-141231030D03*
G04 #@! TD*
D26*
G04 #@! TO.C,R-D13*
X305084661Y-157777270D03*
X305616539Y-154419130D03*
G04 #@! TD*
D27*
G04 #@! TO.C,R-D15*
X270375429Y-134067870D03*
X270553371Y-130672530D03*
G04 #@! TD*
D28*
G04 #@! TO.C,L-D8*
X110387498Y-123609287D03*
X110032102Y-120227913D03*
G04 #@! TD*
D24*
G04 #@! TO.C,R-D17*
X233000000Y-147500000D03*
X233000000Y-144100000D03*
G04 #@! TD*
D25*
G04 #@! TO.C,L-D7*
X93193639Y-141695070D03*
X92661761Y-138336930D03*
G04 #@! TD*
D26*
G04 #@! TO.C,R-D1*
X310872761Y-121232770D03*
X311404639Y-117874630D03*
G04 #@! TD*
D24*
G04 #@! TO.C,L-D19*
X168000000Y-172500000D03*
X168000000Y-169100000D03*
G04 #@! TD*
G04 #@! TO.C,L-D4*
X149500000Y-110500000D03*
X149500000Y-107100000D03*
G04 #@! TD*
D25*
G04 #@! TO.C,L-D1*
X90299639Y-123422870D03*
X89767761Y-120064730D03*
G04 #@! TD*
G04 #@! TO.C,R-D20*
X212861939Y-175186770D03*
X212330061Y-171828630D03*
G04 #@! TD*
D27*
G04 #@! TO.C,R-D9*
X271343629Y-115593270D03*
X271521571Y-112197930D03*
G04 #@! TD*
D29*
G04 #@! TO.C,R-D14*
X288755502Y-140544487D03*
X289110898Y-137163113D03*
G04 #@! TD*
D27*
G04 #@! TO.C,R-D03*
X272311929Y-97118570D03*
X272489871Y-93723230D03*
G04 #@! TD*
D24*
G04 #@! TO.C,R-D19*
X233000000Y-172500000D03*
X233000000Y-169100000D03*
G04 #@! TD*
G04 #@! TO.C,R-D18*
X251500000Y-172500000D03*
X251500000Y-169100000D03*
G04 #@! TD*
D30*
G04 #@! TO.C,L-D9*
X129675571Y-116325970D03*
X129497629Y-112930630D03*
G04 #@! TD*
G04 #@! TO.C,L-D3*
X128707271Y-97851270D03*
X128529329Y-94455930D03*
G04 #@! TD*
D25*
G04 #@! TO.C,L-D12*
X77815439Y-162861370D03*
X77283561Y-159503230D03*
G04 #@! TD*
D26*
G04 #@! TO.C,L-D20*
X188310361Y-172996670D03*
X188842239Y-169638530D03*
G04 #@! TD*
D24*
G04 #@! TO.C,R-D5*
X233000000Y-110500000D03*
X233000000Y-107100000D03*
G04 #@! TD*
G04 #@! TO.C,L-D17*
X168000000Y-147500000D03*
X168000000Y-144100000D03*
G04 #@! TD*
D28*
G04 #@! TO.C,L-D14*
X112321198Y-142007887D03*
X111965802Y-138626513D03*
G04 #@! TD*
D24*
G04 #@! TO.C,R-D11*
X233000000Y-129000000D03*
X233000000Y-125600000D03*
G04 #@! TD*
D30*
G04 #@! TO.C,L-D15*
X130643771Y-134800570D03*
X130465829Y-131405230D03*
G04 #@! TD*
D29*
G04 #@! TO.C,R-D2*
X292623002Y-103747187D03*
X292978398Y-100365813D03*
G04 #@! TD*
G04 #@! TO.C,R-D8*
X290689202Y-122145887D03*
X291044598Y-118764513D03*
G04 #@! TD*
D28*
G04 #@! TO.C,L-D2*
X108453698Y-105210587D03*
X108098302Y-101829213D03*
G04 #@! TD*
D24*
G04 #@! TO.C,R-D4*
X251500000Y-110500000D03*
X251500000Y-107100000D03*
G04 #@! TD*
D26*
G04 #@! TO.C,R-D7*
X307978661Y-139504970D03*
X308510539Y-136146830D03*
G04 #@! TD*
D24*
G04 #@! TO.C,L-D16*
X149500000Y-147500000D03*
X149500000Y-144100000D03*
G04 #@! TD*
D25*
G04 #@! TO.C,L-D13*
X96087739Y-159967270D03*
X95555861Y-156609130D03*
G04 #@! TD*
D26*
G04 #@! TO.C,R-D12*
X323356861Y-160671270D03*
X323888739Y-157313130D03*
G04 #@! TD*
D24*
G04 #@! TO.C,L-D18*
X149500000Y-172500000D03*
X149500000Y-169100000D03*
G04 #@! TD*
G04 #@! TO.C,R-D10*
X251500000Y-129000000D03*
X251500000Y-125600000D03*
G04 #@! TD*
D25*
G04 #@! TO.C,L-D0*
X72027339Y-126316870D03*
X71495461Y-122958730D03*
G04 #@! TD*
D24*
G04 #@! TO.C,L-D10*
X149500000Y-129000000D03*
X149500000Y-125600000D03*
G04 #@! TD*
D26*
G04 #@! TO.C,R-D0*
X329144961Y-124126770D03*
X329676839Y-120768630D03*
G04 #@! TD*
G04 #@! TO.C,R-D6*
X326250961Y-142399070D03*
X326782839Y-139040930D03*
G04 #@! TD*
D24*
G04 #@! TO.C,L-D5*
X168000000Y-110500000D03*
X168000000Y-107100000D03*
G04 #@! TD*
M02*
