  0
SECTION
  2
HEADER
  9
$ANGBASE
  50
0.0
  9
$ANGDIR
  70
1
  9
$MEASUREMENT
  70
1
  0
ENDSEC
  0
SECTION
  2
TABLES
  0
TABLE
  2
LTYPE
  70
4
  0
LTYPE
  5
40F
  2
CONTINUOUS
  70
0
  3
Solid line
  72
65
  73
0
  40
0.0
  0
LTYPE
  5
410
  2
DASHDOT
 70
0
  3
Dash Dot ____ _ ____ _
 72
65
 73
4
 40
2.0
 49
1.25
 49
-0.25
 49
0.25
 49
-0.25
  0
LTYPE
  5
411
  2
DASHED
 70
0
  3
Dashed __ __ __ __ __
 72
65
 73
2
 40
0.75
 49
0.5
 49
-0.25
  0
LTYPE
  5
43B
  2
DOTTED
 70
0
  3
Dotted .  .  .  .
 72
65
 73
2
 40
0.2
 49
0.0
 49
-0.2
  0
ENDTAB
  0
TABLE
  2
STYLE
  70
4
  0
STYLE
  2
KICAD
  70
0
  40
0
  41
1
  42
1
  50
0
  71
0
  3
isocp.shx
  0
STYLE
  2
KICADB
  70
0
  40
0
  41
1
  42
1
  50
0
  71
0
  3
isocp.shx
  0
STYLE
  2
KICADI
  70
0
  40
0
  41
1
  42
1
  50
15
  71
0
  3
isocp.shx
  0
STYLE
  2
KICADBI
  70
0
  40
0
  41
1
  42
1
  50
15
  71
0
  3
isocp.shx
  0
ENDTAB
  0
TABLE
  2
LAYER
  70
1
  0
LAYER
  2
BLACK
  70
0
  62
7
  6
CONTINUOUS
  0
ENDTAB
  0
ENDSEC
  0
SECTION
  2
ENTITIES
0
LINE
8
BLACK
6
CONTINUOUS
10
35.8667389999999955
20
-20.6395719999999976
11
35.1936389999999975
21
-20.6395719999999976
0
LINE
8
BLACK
6
CONTINUOUS
10
-123.3704070000000002
20
-19.8842110000000005
11
-123.3175969999999921
21
-19.2131860000000003
0
LINE
8
BLACK
6
CONTINUOUS
10
-123.2641709999999904
20
-18.5422089999999997
11
-123.3172889999999882
21
-19.2132100000000001
0
CIRCLE
8
BLACK
10
16.6097929999999998
20
-22.218786999999999
40
5.
0
CIRCLE
8
BLACK
10
0.
20
0.
40
5.
0
CIRCLE
8
BLACK
10
-1.4514929999999999
20
18.442971
40
5.
0
CIRCLE
8
BLACK
10
-2.902987
20
36.8859409999999954
40
5.
0
CIRCLE
8
BLACK
10
-1.3790499999999999
20
-26.5375259999999997
40
5.
0
CIRCLE
8
BLACK
10
-19.3678939999999997
20
-30.8562649999999969
40
5.
0
CIRCLE
8
BLACK
10
18.442971
20
1.4514929999999999
40
5.
0
CIRCLE
8
BLACK
10
16.9914769999999997
20
19.8944639999999993
40
5.
0
CIRCLE
8
BLACK
10
15.5399839999999987
20
38.3374349999999993
40
5.
0
CIRCLE
8
BLACK
10
36.0948379999999958
20
15.9503179999999993
40
5.
0
CIRCLE
8
BLACK
10
35.6105650000000011
20
34.4439789999999988
40
5.
0
CIRCLE
8
BLACK
10
35.1262910000000019
20
52.9376399999999947
40
5.
0
CIRCLE
8
BLACK
10
54.7954480000000004
20
10.5692439999999994
40
5.
0
CIRCLE
8
BLACK
10
55.279720999999995
20
29.0629049999999971
40
5.
0
CIRCLE
8
BLACK
10
55.7639949999999942
20
47.5565649999999991
40
5.
0
CIRCLE
8
BLACK
10
72.2765069999999952
20
-5.6882839999999995
40
5.
0
CIRCLE
8
BLACK
10
73.7279999999999944
20
12.7546859999999995
40
5.
0
CIRCLE
8
BLACK
10
75.1794929999999937
20
31.1976569999999995
40
5.
0
CIRCLE
8
BLACK
10
90.7194769999999977
20
-7.1397779999999997
40
5.
0
CIRCLE
8
BLACK
10
92.1709709999999944
20
11.3031930000000003
40
5.
0
CIRCLE
8
BLACK
10
93.6224639999999937
20
29.7461640000000003
40
5.
0
CIRCLE
8
BLACK
10
44.2964899999999986
20
-20.4457009999999997
40
5.
0
LINE
8
BLACK
6
CONTINUOUS
10
11.437322
20
-30.6594939999999987
11
25.0504999999999995
21
-27.391258999999998
0
LINE
8
BLACK
6
CONTINUOUS
10
8.1690860000000001
20
-17.0463149999999999
11
11.437322
21
-30.6594939999999987
0
LINE
8
BLACK
6
CONTINUOUS
10
21.7822649999999989
20
-13.7780799999999992
11
8.1690860000000001
21
-17.0463149999999999
0
LINE
8
BLACK
6
CONTINUOUS
10
25.0504999999999995
20
-27.391258999999998
11
21.7822649999999989
21
-13.7780799999999992
0
LINE
8
BLACK
6
CONTINUOUS
10
-7.5276350000000001
20
6.429208
11
-6.429208
21
-7.5276350000000001
0
LINE
8
BLACK
6
CONTINUOUS
10
6.429208
20
7.5276350000000001
11
-7.5276350000000001
21
6.429208
0
LINE
8
BLACK
6
CONTINUOUS
10
7.5276350000000001
20
-6.429208
11
6.429208
21
7.5276350000000001
0
LINE
8
BLACK
6
CONTINUOUS
10
-6.429208
20
-7.5276350000000001
11
7.5276350000000001
21
-6.429208
0
LINE
8
BLACK
6
CONTINUOUS
10
-8.9791279999999993
20
24.8721779999999981
11
-7.8807009999999993
21
10.9153359999999999
0
LINE
8
BLACK
6
CONTINUOUS
10
4.9777139999999997
20
25.9706060000000001
11
-8.9791279999999993
21
24.8721779999999981
0
LINE
8
BLACK
6
CONTINUOUS
10
6.0761419999999999
20
12.0137629999999991
11
4.9777139999999997
21
25.9706060000000001
0
LINE
8
BLACK
6
CONTINUOUS
10
-7.8807009999999993
20
10.9153359999999999
11
6.0761419999999999
21
12.0137629999999991
0
LINE
8
BLACK
6
CONTINUOUS
10
-10.4306219999999996
20
43.3151489999999981
11
-9.3321939999999994
21
29.3583059999999989
0
LINE
8
BLACK
6
CONTINUOUS
10
3.526221
20
44.4135759999999991
11
-10.4306219999999996
21
43.3151489999999981
0
LINE
8
BLACK
6
CONTINUOUS
10
4.6246479999999996
20
30.4567339999999973
11
3.526221
21
44.4135759999999991
0
LINE
8
BLACK
6
CONTINUOUS
10
-9.3321939999999994
20
29.3583059999999989
11
4.6246479999999996
21
30.4567339999999973
0
LINE
8
BLACK
6
CONTINUOUS
10
-6.5515219999999994
20
-34.9782329999999959
11
7.0616569999999994
21
-31.7099979999999988
0
LINE
8
BLACK
6
CONTINUOUS
10
-9.8197569999999992
20
-21.3650540000000007
11
-6.5515219999999994
21
-34.9782329999999959
0
LINE
8
BLACK
6
CONTINUOUS
10
3.7934219999999996
20
-18.096819
11
-9.8197569999999992
21
-21.3650540000000007
0
LINE
8
BLACK
6
CONTINUOUS
10
7.0616569999999994
20
-31.7099979999999988
11
3.7934219999999996
21
-18.096819
0
LINE
8
BLACK
6
CONTINUOUS
10
-24.5403649999999978
20
-39.2969719999999967
11
-10.927187
21
-36.0287369999999996
0
LINE
8
BLACK
6
CONTINUOUS
10
-27.8086009999999995
20
-25.6837929999999979
11
-24.5403649999999978
21
-39.2969719999999967
0
LINE
8
BLACK
6
CONTINUOUS
10
-14.1954219999999989
20
-22.4155580000000008
11
-27.8086009999999995
21
-25.6837929999999979
0
LINE
8
BLACK
6
CONTINUOUS
10
-10.927187
20
-36.0287369999999996
11
-14.1954219999999989
21
-22.4155580000000008
0
LINE
8
BLACK
6
CONTINUOUS
10
10.9153359999999999
20
7.8807009999999993
11
12.0137629999999991
21
-6.0761419999999999
0
LINE
8
BLACK
6
CONTINUOUS
10
24.8721779999999981
20
8.9791279999999993
11
10.9153359999999999
21
7.8807009999999993
0
LINE
8
BLACK
6
CONTINUOUS
10
25.9706060000000001
20
-4.9777139999999997
11
24.8721779999999981
21
8.9791279999999993
0
LINE
8
BLACK
6
CONTINUOUS
10
12.0137629999999991
20
-6.0761419999999999
11
25.9706060000000001
21
-4.9777139999999997
0
LINE
8
BLACK
6
CONTINUOUS
10
9.4638419999999996
20
26.3236719999999984
11
10.5622699999999998
21
12.3668289999999992
0
LINE
8
BLACK
6
CONTINUOUS
10
23.4206849999999989
20
27.4220989999999993
11
9.4638419999999996
21
26.3236719999999984
0
LINE
8
BLACK
6
CONTINUOUS
10
24.5191119999999998
20
13.4652560000000001
11
23.4206849999999989
21
27.4220989999999993
0
LINE
8
BLACK
6
CONTINUOUS
10
10.5622699999999998
20
12.3668289999999992
11
24.5191119999999998
21
13.4652560000000001
0
LINE
8
BLACK
6
CONTINUOUS
10
8.0123490000000004
20
44.7666419999999974
11
9.1107759999999995
21
30.8097999999999992
0
LINE
8
BLACK
6
CONTINUOUS
10
21.9691919999999996
20
45.8650699999999958
11
8.0123490000000004
21
44.7666419999999974
0
LINE
8
BLACK
6
CONTINUOUS
10
23.0676190000000005
20
31.9082270000000001
11
21.9691919999999996
21
45.8650699999999958
0
LINE
8
BLACK
6
CONTINUOUS
10
9.1107759999999995
20
30.8097999999999992
11
23.0676190000000005
21
31.9082270000000001
0
LINE
8
BLACK
6
CONTINUOUS
10
28.9139979999999994
20
22.7646809999999995
11
29.2804760000000002
21
8.7694790000000005
0
LINE
8
BLACK
6
CONTINUOUS
10
42.9092009999999959
20
23.1311579999999992
11
28.9139979999999994
21
22.7646809999999995
0
LINE
8
BLACK
6
CONTINUOUS
10
43.2756779999999992
20
9.1359560000000002
11
42.9092009999999959
21
23.1311579999999992
0
LINE
8
BLACK
6
CONTINUOUS
10
29.2804760000000002
20
8.7694790000000005
11
43.2756779999999992
21
9.1359560000000002
0
LINE
8
BLACK
6
CONTINUOUS
10
28.4297249999999977
20
41.258341999999999
11
28.7962019999999974
21
27.2631389999999989
0
LINE
8
BLACK
6
CONTINUOUS
10
42.4249269999999967
20
41.6248189999999951
11
28.4297249999999977
21
41.258341999999999
0
LINE
8
BLACK
6
CONTINUOUS
10
42.7914049999999975
20
27.6296159999999986
11
42.4249269999999967
21
41.6248189999999951
0
LINE
8
BLACK
6
CONTINUOUS
10
28.7962019999999974
20
27.2631389999999989
11
42.7914049999999975
21
27.6296159999999986
0
LINE
8
BLACK
6
CONTINUOUS
10
27.9454509999999985
20
59.7520019999999974
11
28.3119279999999982
21
45.7567999999999984
0
LINE
8
BLACK
6
CONTINUOUS
10
41.940653999999995
20
60.1184790000000007
11
27.9454509999999985
21
59.7520019999999974
0
LINE
8
BLACK
6
CONTINUOUS
10
42.3071309999999983
20
46.1232769999999945
11
41.940653999999995
21
60.1184790000000007
0
LINE
8
BLACK
6
CONTINUOUS
10
28.3119279999999982
20
45.7567999999999984
11
42.3071309999999983
21
46.1232769999999945
0
LINE
8
BLACK
6
CONTINUOUS
10
47.9810850000000002
20
17.7500839999999975
11
47.6146079999999969
21
3.7548819999999998
0
LINE
8
BLACK
6
CONTINUOUS
10
61.9762879999999967
20
17.3836069999999978
11
47.9810850000000002
21
17.7500839999999975
0
LINE
8
BLACK
6
CONTINUOUS
10
61.609809999999996
20
3.388404
11
61.9762879999999967
21
17.3836069999999978
0
LINE
8
BLACK
6
CONTINUOUS
10
47.6146079999999969
20
3.7548819999999998
11
61.609809999999996
21
3.388404
0
LINE
8
BLACK
6
CONTINUOUS
10
48.4653579999999948
20
36.243744999999997
11
48.0988809999999987
21
22.2485420000000005
0
LINE
8
BLACK
6
CONTINUOUS
10
62.4605609999999984
20
35.8772669999999962
11
48.4653579999999948
21
36.243744999999997
0
LINE
8
BLACK
6
CONTINUOUS
10
62.0940839999999952
20
21.8820650000000008
11
62.4605609999999984
21
35.8772669999999962
0
LINE
8
BLACK
6
CONTINUOUS
10
48.0988809999999987
20
22.2485420000000005
11
62.0940839999999952
21
21.8820650000000008
0
LINE
8
BLACK
6
CONTINUOUS
10
48.9496320000000011
20
54.7374049999999954
11
48.5831549999999979
21
40.7422029999999964
0
LINE
8
BLACK
6
CONTINUOUS
10
62.9448349999999976
20
54.3709279999999993
11
48.9496320000000011
21
54.7374049999999954
0
LINE
8
BLACK
6
CONTINUOUS
10
62.5783569999999969
20
40.3757249999999956
11
62.9448349999999976
21
54.3709279999999993
0
LINE
8
BLACK
6
CONTINUOUS
10
48.5831549999999979
20
40.7422029999999964
11
62.5783569999999969
21
40.3757249999999956
0
LINE
8
BLACK
6
CONTINUOUS
10
65.8472989999999925
20
1.839351
11
64.7488719999999915
21
-12.1174919999999986
0
LINE
8
BLACK
6
CONTINUOUS
10
79.8041419999999988
20
0.740923
11
65.8472989999999925
21
1.839351
0
LINE
8
BLACK
6
CONTINUOUS
10
78.7057140000000004
20
-13.2159189999999995
11
79.8041419999999988
21
0.740923
0
LINE
8
BLACK
6
CONTINUOUS
10
64.7488719999999915
20
-12.1174919999999986
11
78.7057140000000004
21
-13.2159189999999995
0
LINE
8
BLACK
6
CONTINUOUS
10
67.2987919999999917
20
20.2823209999999996
11
66.2003649999999908
21
6.3254789999999996
0
LINE
8
BLACK
6
CONTINUOUS
10
81.2556349999999981
20
19.1838939999999987
11
67.2987919999999917
21
20.2823209999999996
0
LINE
8
BLACK
6
CONTINUOUS
10
80.1572079999999971
20
5.2270509999999994
11
81.2556349999999981
21
19.1838939999999987
0
LINE
8
BLACK
6
CONTINUOUS
10
66.2003649999999908
20
6.3254789999999996
11
80.1572079999999971
21
5.2270509999999994
0
LINE
8
BLACK
6
CONTINUOUS
10
68.7502860000000027
20
38.7252919999999961
11
67.6518579999999901
21
24.7684490000000004
0
LINE
8
BLACK
6
CONTINUOUS
10
82.7071279999999973
20
37.6268649999999951
11
68.7502860000000027
21
38.7252919999999961
0
LINE
8
BLACK
6
CONTINUOUS
10
81.6087009999999964
20
23.6700219999999995
11
82.7071279999999973
21
37.6268649999999951
0
LINE
8
BLACK
6
CONTINUOUS
10
67.6518579999999901
20
24.7684490000000004
11
81.6087009999999964
21
23.6700219999999995
0
LINE
8
BLACK
6
CONTINUOUS
10
84.2902699999999925
20
0.387857
11
83.1918419999999941
21
-13.5689849999999996
0
LINE
8
BLACK
6
CONTINUOUS
10
98.2471120000000013
20
-0.7105699999999999
11
84.2902699999999925
21
0.387857
0
LINE
8
BLACK
6
CONTINUOUS
10
97.1486850000000004
20
-14.6674129999999998
11
98.2471120000000013
21
-0.7105699999999999
0
LINE
8
BLACK
6
CONTINUOUS
10
83.1918419999999941
20
-13.5689849999999996
11
97.1486850000000004
21
-14.6674129999999998
0
LINE
8
BLACK
6
CONTINUOUS
10
85.7417629999999917
20
18.8308280000000003
11
84.6433359999999908
21
4.8739849999999993
0
LINE
8
BLACK
6
CONTINUOUS
10
99.6986059999999981
20
17.7324009999999994
11
85.7417629999999917
21
18.8308280000000003
0
LINE
8
BLACK
6
CONTINUOUS
10
98.6001779999999997
20
3.7755579999999997
11
99.6986059999999981
21
17.7324009999999994
0
LINE
8
BLACK
6
CONTINUOUS
10
84.6433359999999908
20
4.8739849999999993
11
98.6001779999999997
21
3.7755579999999997
0
LINE
8
BLACK
6
CONTINUOUS
10
87.193255999999991
20
37.2737989999999968
11
86.0948289999999901
21
23.3169559999999976
0
LINE
8
BLACK
6
CONTINUOUS
10
101.1500989999999973
20
36.1753709999999984
11
87.193255999999991
21
37.2737989999999968
0
LINE
8
BLACK
6
CONTINUOUS
10
100.0516719999999964
20
22.2185290000000002
11
101.1500989999999973
21
36.1753709999999984
0
LINE
8
BLACK
6
CONTINUOUS
10
86.0948289999999901
20
23.3169559999999976
11
100.0516719999999964
21
22.2185290000000002
0
CIRCLE
8
BLACK
10
-86.6097929999999963
20
-22.218786999999999
40
5.
0
CIRCLE
8
BLACK
10
-70.
20
0.
40
5.
0
CIRCLE
8
BLACK
10
-68.5485070000000007
20
18.442971
40
5.
0
CIRCLE
8
BLACK
10
-67.097013000000004
20
36.8859409999999954
40
5.
0
CIRCLE
8
BLACK
10
-68.6209499999999935
20
-26.5375259999999997
40
5.
0
CIRCLE
8
BLACK
10
-50.6321060000000003
20
-30.8562649999999969
40
5.
0
CIRCLE
8
BLACK
10
-88.442971
20
1.4514929999999999
40
5.
0
CIRCLE
8
BLACK
10
-86.9914769999999891
20
19.8944639999999993
40
5.
0
CIRCLE
8
BLACK
10
-85.5399839999999898
20
38.3374349999999993
40
5.
0
CIRCLE
8
BLACK
10
-106.0948379999999958
20
15.9503179999999993
40
5.
0
CIRCLE
8
BLACK
10
-105.610564999999994
20
34.4439789999999988
40
5.
0
CIRCLE
8
BLACK
10
-105.1262909999999948
20
52.9376399999999947
40
5.
0
CIRCLE
8
BLACK
10
-124.7954479999999933
20
10.5692439999999994
40
5.
0
CIRCLE
8
BLACK
10
-125.279720999999995
20
29.0629049999999971
40
5.
0
CIRCLE
8
BLACK
10
-125.7639949999999942
20
47.5565649999999991
40
5.
0
CIRCLE
8
BLACK
10
-142.276506999999981
20
-5.6882839999999995
40
5.
0
CIRCLE
8
BLACK
10
-143.7279999999999802
20
12.7546859999999995
40
5.
0
CIRCLE
8
BLACK
10
-145.1794929999999795
20
31.1976569999999995
40
5.
0
CIRCLE
8
BLACK
10
-160.7194769999999835
20
-7.1397779999999997
40
5.
0
CIRCLE
8
BLACK
10
-162.1709709999999802
20
11.3031930000000003
40
5.
0
CIRCLE
8
BLACK
10
-163.6224639999999795
20
29.7461640000000003
40
5.
0
CIRCLE
8
BLACK
10
-114.2964899999999915
20
-20.4457009999999997
40
5.
0
LINE
8
BLACK
6
CONTINUOUS
10
-81.4373219999999947
20
-30.6594939999999987
11
-95.0504999999999995
21
-27.391258999999998
0
LINE
8
BLACK
6
CONTINUOUS
10
-78.169085999999993
20
-17.0463149999999999
11
-81.4373219999999947
21
-30.6594939999999987
0
LINE
8
BLACK
6
CONTINUOUS
10
-91.7822649999999953
20
-13.7780799999999992
11
-78.169085999999993
21
-17.0463149999999999
0
LINE
8
BLACK
6
CONTINUOUS
10
-95.0504999999999995
20
-27.391258999999998
11
-91.7822649999999953
21
-13.7780799999999992
0
LINE
8
BLACK
6
CONTINUOUS
10
-62.4723649999999964
20
6.429208
11
-63.5707919999999973
21
-7.5276350000000001
0
LINE
8
BLACK
6
CONTINUOUS
10
-76.4292080000000027
20
7.5276350000000001
11
-62.4723649999999964
21
6.429208
0
LINE
8
BLACK
6
CONTINUOUS
10
-77.5276349999999894
20
-6.429208
11
-76.4292080000000027
21
7.5276350000000001
0
LINE
8
BLACK
6
CONTINUOUS
10
-63.5707919999999973
20
-7.5276350000000001
11
-77.5276349999999894
21
-6.429208
0
LINE
8
BLACK
6
CONTINUOUS
10
-61.0208719999999971
20
24.8721779999999981
11
-62.119298999999998
21
10.9153359999999999
0
LINE
8
BLACK
6
CONTINUOUS
10
-74.9777139999999918
20
25.9706060000000001
11
-61.0208719999999971
21
24.8721779999999981
0
LINE
8
BLACK
6
CONTINUOUS
10
-76.0761419999999902
20
12.0137629999999991
11
-74.9777139999999918
21
25.9706060000000001
0
LINE
8
BLACK
6
CONTINUOUS
10
-62.119298999999998
20
10.9153359999999999
11
-76.0761419999999902
21
12.0137629999999991
0
LINE
8
BLACK
6
CONTINUOUS
10
-59.5693780000000004
20
43.3151489999999981
11
-60.6678059999999988
21
29.3583059999999989
0
LINE
8
BLACK
6
CONTINUOUS
10
-73.5262209999999925
20
44.4135759999999991
11
-59.5693780000000004
21
43.3151489999999981
0
LINE
8
BLACK
6
CONTINUOUS
10
-74.6246479999999934
20
30.4567339999999973
11
-73.5262209999999925
21
44.4135759999999991
0
LINE
8
BLACK
6
CONTINUOUS
10
-60.6678059999999988
20
29.3583059999999989
11
-74.6246479999999934
21
30.4567339999999973
0
LINE
8
BLACK
6
CONTINUOUS
10
-63.4484779999999944
20
-34.9782329999999959
11
-77.0616569999999967
21
-31.7099979999999988
0
LINE
8
BLACK
6
CONTINUOUS
10
-60.1802429999999973
20
-21.3650540000000007
11
-63.4484779999999944
21
-34.9782329999999959
0
LINE
8
BLACK
6
CONTINUOUS
10
-73.7934219999999925
20
-18.096819
11
-60.1802429999999973
21
-21.3650540000000007
0
LINE
8
BLACK
6
CONTINUOUS
10
-77.0616569999999967
20
-31.7099979999999988
11
-73.7934219999999925
21
-18.096819
0
LINE
8
BLACK
6
CONTINUOUS
10
-45.4596349999999987
20
-39.2969719999999967
11
-59.0728129999999965
21
-36.0287369999999996
0
LINE
8
BLACK
6
CONTINUOUS
10
-42.191398999999997
20
-25.6837929999999979
11
-45.4596349999999987
21
-39.2969719999999967
0
LINE
8
BLACK
6
CONTINUOUS
10
-55.8045779999999993
20
-22.4155580000000008
11
-42.191398999999997
21
-25.6837929999999979
0
LINE
8
BLACK
6
CONTINUOUS
10
-59.0728129999999965
20
-36.0287369999999996
11
-55.8045779999999993
21
-22.4155580000000008
0
LINE
8
BLACK
6
CONTINUOUS
10
-80.9153359999999964
20
7.8807009999999993
11
-82.0137629999999973
21
-6.0761419999999999
0
LINE
8
BLACK
6
CONTINUOUS
10
-94.872177999999991
20
8.9791279999999993
11
-80.9153359999999964
21
7.8807009999999993
0
LINE
8
BLACK
6
CONTINUOUS
10
-95.9706059999999894
20
-4.9777139999999997
11
-94.872177999999991
21
8.9791279999999993
0
LINE
8
BLACK
6
CONTINUOUS
10
-82.0137629999999973
20
-6.0761419999999999
11
-95.9706059999999894
21
-4.9777139999999997
0
LINE
8
BLACK
6
CONTINUOUS
10
-79.4638419999999996
20
26.3236719999999984
11
-80.562269999999998
21
12.3668289999999992
0
LINE
8
BLACK
6
CONTINUOUS
10
-93.4206849999999918
20
27.4220989999999993
11
-79.4638419999999996
21
26.3236719999999984
0
LINE
8
BLACK
6
CONTINUOUS
10
-94.5191119999999927
20
13.4652560000000001
11
-93.4206849999999918
21
27.4220989999999993
0
LINE
8
BLACK
6
CONTINUOUS
10
-80.562269999999998
20
12.3668289999999992
11
-94.5191119999999927
21
13.4652560000000001
0
LINE
8
BLACK
6
CONTINUOUS
10
-78.0123490000000004
20
44.7666419999999974
11
-79.1107760000000013
21
30.8097999999999992
0
LINE
8
BLACK
6
CONTINUOUS
10
-91.9691919999999925
20
45.8650699999999958
11
-78.0123490000000004
21
44.7666419999999974
0
LINE
8
BLACK
6
CONTINUOUS
10
-93.0676189999999934
20
31.9082270000000001
11
-91.9691919999999925
21
45.8650699999999958
0
LINE
8
BLACK
6
CONTINUOUS
10
-79.1107760000000013
20
30.8097999999999992
11
-93.0676189999999934
21
31.9082270000000001
0
LINE
8
BLACK
6
CONTINUOUS
10
-98.9139979999999923
20
22.7646809999999995
11
-99.2804759999999931
21
8.7694790000000005
0
LINE
8
BLACK
6
CONTINUOUS
10
-112.9092009999999959
20
23.1311579999999992
11
-98.9139979999999923
21
22.7646809999999995
0
LINE
8
BLACK
6
CONTINUOUS
10
-113.2756779999999992
20
9.1359560000000002
11
-112.9092009999999959
21
23.1311579999999992
0
LINE
8
BLACK
6
CONTINUOUS
10
-99.2804759999999931
20
8.7694790000000005
11
-113.2756779999999992
21
9.1359560000000002
0
LINE
8
BLACK
6
CONTINUOUS
10
-98.4297249999999906
20
41.258341999999999
11
-98.7962019999999939
21
27.2631389999999989
0
LINE
8
BLACK
6
CONTINUOUS
10
-112.4249269999999967
20
41.6248189999999951
11
-98.4297249999999906
21
41.258341999999999
0
LINE
8
BLACK
6
CONTINUOUS
10
-112.7914049999999975
20
27.6296159999999986
11
-112.4249269999999967
21
41.6248189999999951
0
LINE
8
BLACK
6
CONTINUOUS
10
-98.7962019999999939
20
27.2631389999999989
11
-112.7914049999999975
21
27.6296159999999986
0
LINE
8
BLACK
6
CONTINUOUS
10
-97.9454509999999914
20
59.7520019999999974
11
-98.3119279999999947
21
45.7567999999999984
0
LINE
8
BLACK
6
CONTINUOUS
10
-111.940653999999995
20
60.1184790000000007
11
-97.9454509999999914
21
59.7520019999999974
0
LINE
8
BLACK
6
CONTINUOUS
10
-112.3071309999999983
20
46.1232769999999945
11
-111.940653999999995
21
60.1184790000000007
0
LINE
8
BLACK
6
CONTINUOUS
10
-98.3119279999999947
20
45.7567999999999984
11
-112.3071309999999983
21
46.1232769999999945
0
LINE
8
BLACK
6
CONTINUOUS
10
-117.9810849999999931
20
17.7500839999999975
11
-117.6146079999999898
21
3.7548819999999998
0
LINE
8
BLACK
6
CONTINUOUS
10
-131.9762879999999825
20
17.3836069999999978
11
-117.9810849999999931
21
17.7500839999999975
0
LINE
8
BLACK
6
CONTINUOUS
10
-131.6098099999999818
20
3.388404
11
-131.9762879999999825
21
17.3836069999999978
0
LINE
8
BLACK
6
CONTINUOUS
10
-117.6146079999999898
20
3.7548819999999998
11
-131.6098099999999818
21
3.388404
0
LINE
8
BLACK
6
CONTINUOUS
10
-118.4653579999999948
20
36.243744999999997
11
-118.0988809999999916
21
22.2485420000000005
0
LINE
8
BLACK
6
CONTINUOUS
10
-132.4605609999999842
20
35.8772669999999962
11
-118.4653579999999948
21
36.243744999999997
0
LINE
8
BLACK
6
CONTINUOUS
10
-132.094083999999981
20
21.8820650000000008
11
-132.4605609999999842
21
35.8772669999999962
0
LINE
8
BLACK
6
CONTINUOUS
10
-118.0988809999999916
20
22.2485420000000005
11
-132.094083999999981
21
21.8820650000000008
0
LINE
8
BLACK
6
CONTINUOUS
10
-118.949631999999994
20
54.7374049999999954
11
-118.5831549999999908
21
40.7422029999999964
0
LINE
8
BLACK
6
CONTINUOUS
10
-132.9448349999999834
20
54.3709279999999993
11
-118.949631999999994
21
54.7374049999999954
0
LINE
8
BLACK
6
CONTINUOUS
10
-132.5783569999999827
20
40.3757249999999956
11
-132.9448349999999834
21
54.3709279999999993
0
LINE
8
BLACK
6
CONTINUOUS
10
-118.5831549999999908
20
40.7422029999999964
11
-132.5783569999999827
21
40.3757249999999956
0
LINE
8
BLACK
6
CONTINUOUS
10
-135.8472989999999925
20
1.839351
11
-134.7488720000000058
21
-12.1174919999999986
0
LINE
8
BLACK
6
CONTINUOUS
10
-149.8041419999999846
20
0.740923
11
-135.8472989999999925
21
1.839351
0
LINE
8
BLACK
6
CONTINUOUS
10
-148.7057140000000004
20
-13.2159189999999995
11
-149.8041419999999846
21
0.740923
0
LINE
8
BLACK
6
CONTINUOUS
10
-134.7488720000000058
20
-12.1174919999999986
11
-148.7057140000000004
21
-13.2159189999999995
0
LINE
8
BLACK
6
CONTINUOUS
10
-137.2987919999999917
20
20.2823209999999996
11
-136.200365000000005
21
6.3254789999999996
0
LINE
8
BLACK
6
CONTINUOUS
10
-151.2556349999999838
20
19.1838939999999987
11
-137.2987919999999917
21
20.2823209999999996
0
LINE
8
BLACK
6
CONTINUOUS
10
-150.1572079999999971
20
5.2270509999999994
11
-151.2556349999999838
21
19.1838939999999987
0
LINE
8
BLACK
6
CONTINUOUS
10
-136.200365000000005
20
6.3254789999999996
11
-150.1572079999999971
21
5.2270509999999994
0
LINE
8
BLACK
6
CONTINUOUS
10
-138.7502859999999885
20
38.7252919999999961
11
-137.6518580000000043
21
24.7684490000000004
0
LINE
8
BLACK
6
CONTINUOUS
10
-152.7071279999999831
20
37.6268649999999951
11
-138.7502859999999885
21
38.7252919999999961
0
LINE
8
BLACK
6
CONTINUOUS
10
-151.6087009999999964
20
23.6700219999999995
11
-152.7071279999999831
21
37.6268649999999951
0
LINE
8
BLACK
6
CONTINUOUS
10
-137.6518580000000043
20
24.7684490000000004
11
-151.6087009999999964
21
23.6700219999999995
0
LINE
8
BLACK
6
CONTINUOUS
10
-154.2902699999999925
20
0.387857
11
-153.1918419999999799
21
-13.5689849999999996
0
LINE
8
BLACK
6
CONTINUOUS
10
-168.2471119999999871
20
-0.7105699999999999
11
-154.2902699999999925
21
0.387857
0
LINE
8
BLACK
6
CONTINUOUS
10
-167.1486850000000004
20
-14.6674129999999998
11
-168.2471119999999871
21
-0.7105699999999999
0
LINE
8
BLACK
6
CONTINUOUS
10
-153.1918419999999799
20
-13.5689849999999996
11
-167.1486850000000004
21
-14.6674129999999998
0
LINE
8
BLACK
6
CONTINUOUS
10
-155.7417629999999917
20
18.8308280000000003
11
-154.643336000000005
21
4.8739849999999993
0
LINE
8
BLACK
6
CONTINUOUS
10
-169.6986059999999839
20
17.7324009999999994
11
-155.7417629999999917
21
18.8308280000000003
0
LINE
8
BLACK
6
CONTINUOUS
10
-168.6001779999999997
20
3.7755579999999997
11
-169.6986059999999839
21
17.7324009999999994
0
LINE
8
BLACK
6
CONTINUOUS
10
-154.643336000000005
20
4.8739849999999993
11
-168.6001779999999997
21
3.7755579999999997
0
LINE
8
BLACK
6
CONTINUOUS
10
-157.193255999999991
20
37.2737989999999968
11
-156.0948290000000043
21
23.3169559999999976
0
LINE
8
BLACK
6
CONTINUOUS
10
-171.1500989999999831
20
36.1753709999999984
11
-157.193255999999991
21
37.2737989999999968
0
LINE
8
BLACK
6
CONTINUOUS
10
-170.0516719999999964
20
22.2185290000000002
11
-171.1500989999999831
21
36.1753709999999984
0
LINE
8
BLACK
6
CONTINUOUS
10
-156.0948290000000043
20
23.3169559999999976
11
-170.0516719999999964
21
22.2185290000000002
0
CIRCLE
8
BLACK
10
0.549214
20
-6.978421
40
2.25
0
CIRCLE
8
BLACK
10
-0.90228
20
11.4645489999999999
40
2.25
0
CIRCLE
8
BLACK
10
-2.3537729999999999
20
29.9075199999999981
40
2.25
0
CIRCLE
8
BLACK
10
18.9921839999999982
20
-5.5269279999999998
40
2.25
0
CIRCLE
8
BLACK
10
17.5406909999999989
20
12.9160430000000002
40
2.25
0
CIRCLE
8
BLACK
10
16.0891979999999997
20
31.3590129999999974
40
2.25
0
CIRCLE
8
BLACK
10
36.2780769999999961
20
8.9527169999999998
40
2.25
0
CIRCLE
8
BLACK
10
35.7938029999999969
20
27.4463779999999993
40
2.25
0
CIRCLE
8
BLACK
10
35.3095299999999952
20
45.9400380000000013
40
2.25
0
CIRCLE
8
BLACK
10
54.612209
20
3.5716429999999999
40
2.25
0
CIRCLE
8
BLACK
10
55.0964819999999946
20
22.0653030000000001
40
2.25
0
CIRCLE
8
BLACK
10
55.5807560000000009
20
40.558963999999996
40
2.25
0
CIRCLE
8
BLACK
10
71.7272930000000031
20
-12.6667059999999996
40
2.25
0
CIRCLE
8
BLACK
10
73.1787860000000023
20
5.7762649999999995
40
2.25
0
CIRCLE
8
BLACK
10
74.6302799999999991
20
24.2192359999999987
40
2.25
0
CIRCLE
8
BLACK
10
90.1702639999999889
20
-14.1181989999999988
40
2.25
0
CIRCLE
8
BLACK
10
91.6217570000000023
20
4.3247719999999994
40
2.25
0
CIRCLE
8
BLACK
10
93.0732500000000016
20
22.7677419999999984
40
2.25
0
CIRCLE
8
BLACK
10
18.2439110000000007
20
-29.0253759999999978
40
2.25
0
CIRCLE
8
BLACK
10
0.255067
20
-33.3441149999999951
40
2.25
0
CIRCLE
8
BLACK
10
-17.7337759999999989
20
-37.6628550000000004
40
2.25
0
CIRCLE
8
BLACK
10
-70.5492139999999921
20
-6.978421
40
2.25
0
CIRCLE
8
BLACK
10
-69.0977199999999954
20
11.4645489999999999
40
2.25
0
CIRCLE
8
BLACK
10
-67.6462269999999961
20
29.9075199999999981
40
2.25
0
CIRCLE
8
BLACK
10
-88.9921839999999946
20
-5.5269279999999998
40
2.25
0
CIRCLE
8
BLACK
10
-87.5406909999999954
20
12.9160430000000002
40
2.25
0
CIRCLE
8
BLACK
10
-86.0891979999999961
20
31.3590129999999974
40
2.25
0
CIRCLE
8
BLACK
10
-106.2780769999999961
20
8.9527169999999998
40
2.25
0
CIRCLE
8
BLACK
10
-105.7938029999999969
20
27.4463779999999993
40
2.25
0
CIRCLE
8
BLACK
10
-105.3095299999999952
20
45.9400380000000013
40
2.25
0
CIRCLE
8
BLACK
10
-124.6122089999999929
20
3.5716429999999999
40
2.25
0
CIRCLE
8
BLACK
10
-125.0964819999999946
20
22.0653030000000001
40
2.25
0
CIRCLE
8
BLACK
10
-125.5807559999999938
20
40.558963999999996
40
2.25
0
CIRCLE
8
BLACK
10
-141.7272930000000031
20
-12.6667059999999996
40
2.25
0
CIRCLE
8
BLACK
10
-143.1787860000000023
20
5.7762649999999995
40
2.25
0
CIRCLE
8
BLACK
10
-144.6302799999999991
20
24.2192359999999987
40
2.25
0
CIRCLE
8
BLACK
10
-160.1702640000000031
20
-14.1181989999999988
40
2.25
0
CIRCLE
8
BLACK
10
-161.6217570000000023
20
4.3247719999999994
40
2.25
0
CIRCLE
8
BLACK
10
-163.0732500000000016
20
22.7677419999999984
40
2.25
0
CIRCLE
8
BLACK
10
-88.2439109999999971
20
-29.0253759999999978
40
2.25
0
CIRCLE
8
BLACK
10
-70.2550669999999968
20
-33.3441149999999951
40
2.25
0
CIRCLE
8
BLACK
10
-52.2662240000000011
20
-37.6628550000000004
40
2.25
0
CIRCLE
8
BLACK
10
-13.655424
20
3.1615639999999998
40
1.4875969999999998
0
CIRCLE
8
BLACK
10
-13.6558689999999991
20
23.1615639999999985
40
1.4875969999999998
0
CIRCLE
8
BLACK
10
-56.3441429999999954
20
3.1616629999999999
40
1.4875969999999998
0
CIRCLE
8
BLACK
10
-56.3438249999999954
20
23.1616629999999972
40
1.4875959999999999
0
LINE
8
BLACK
6
CONTINUOUS
10
47.6146079999999969
20
3.7548819999999998
11
25.2833349999999975
21
3.7548819999999998
0
LINE
8
BLACK
6
CONTINUOUS
10
-117.6146079999999898
20
3.7548819999999998
11
-95.2833349999999939
21
3.7548819999999998
0
LINE
8
BLACK
6
CONTINUOUS
10
-106.4489719999999977
20
3.7548819999999998
11
-106.4489719999999977
21
0.7548819999999999
0
CIRCLE
8
BLACK
10
-106.4489719999999977
20
0.7548819999999999
40
1.5
0
CIRCLE
8
BLACK
10
-103.4489719999999977
20
0.7548819999999999
40
1.5
0
CIRCLE
8
BLACK
10
-109.4489719999999977
20
0.7548819999999999
40
1.5
0
LINE
8
BLACK
6
CONTINUOUS
10
36.4489719999999977
20
3.7548819999999998
11
36.4489719999999977
21
0.7548819999999999
0
CIRCLE
8
BLACK
10
36.4489719999999977
20
0.7548819999999999
40
1.5
0
CIRCLE
8
BLACK
10
39.4489719999999977
20
0.7548819999999999
40
1.5
0
CIRCLE
8
BLACK
10
33.4489719999999977
20
0.7548819999999999
40
1.5
0
CIRCLE
8
BLACK
10
-172.1838039999999808
20
-22.1284609999999979
40
2.
0
CIRCLE
8
BLACK
10
102.1838189999999997
20
-22.1260410000000007
40
2.
0
CIRCLE
8
BLACK
10
44.2964899999999986
20
-20.4457009999999997
40
5.
0
CIRCLE
8
BLACK
10
-114.2964899999999915
20
-20.4457009999999997
40
5.
0
LINE
8
BLACK
6
CONTINUOUS
10
-123.3172889999999882
20
-19.2132100000000001
11
-126.3080409999999887
21
-18.9778330000000004
0
LINE
8
BLACK
6
CONTINUOUS
10
-123.3704070000000002
20
-19.8842110000000005
11
-123.3172889999999882
21
-19.2132100000000001
0
LINE
8
BLACK
6
CONTINUOUS
10
-123.2641709999999904
20
-18.5422089999999997
11
-123.3704070000000002
21
-19.8842110000000005
0
CIRCLE
8
BLACK
10
-126.3080409999999887
20
-18.9778330000000004
40
1.5
0
LINE
8
BLACK
6
CONTINUOUS
10
-122.4297969999999935
20
-10.5464649999999995
11
-122.4456220000000002
21
-10.6828039999999991
0
LINE
8
BLACK
6
CONTINUOUS
10
-122.4040409999999923
20
-10.413456
11
-122.4297969999999935
21
-10.5464649999999995
0
LINE
8
BLACK
6
CONTINUOUS
10
-122.3708889999999911
20
-10.2835769999999993
11
-122.4040409999999923
21
-10.413456
0
LINE
8
BLACK
6
CONTINUOUS
10
-122.3276079999999979
20
-10.1544949999999989
11
-122.3708889999999911
21
-10.2835769999999993
0
LINE
8
BLACK
6
CONTINUOUS
10
-122.2743979999999908
20
-10.0287419999999994
11
-122.3276079999999979
21
-10.1544949999999989
0
LINE
8
BLACK
6
CONTINUOUS
10
-122.2112580000000008
20
-9.9063179999999988
11
-122.2743979999999908
21
-10.0287419999999994
0
LINE
8
BLACK
6
CONTINUOUS
10
-122.1411189999999891
20
-9.7920889999999989
11
-122.2112580000000008
21
-9.9063179999999988
0
LINE
8
BLACK
6
CONTINUOUS
10
-122.0635829999999942
20
-9.6809899999999995
11
-122.1411189999999891
21
-9.7920889999999989
0
LINE
8
BLACK
6
CONTINUOUS
10
-121.976317999999992
20
-9.5757519999999996
11
-122.0635829999999942
21
-9.6809899999999995
0
LINE
8
BLACK
6
CONTINUOUS
10
-121.8843859999999921
20
-9.4759779999999996
11
-121.976317999999992
21
-9.5757519999999996
0
LINE
8
BLACK
6
CONTINUOUS
10
-121.7829229999999967
20
-9.3845969999999994
11
-121.8843859999999921
21
-9.4759779999999996
0
LINE
8
BLACK
6
CONTINUOUS
10
-121.6767949999999985
20
-9.2986789999999999
11
-121.7829229999999967
21
-9.3845969999999994
0
LINE
8
BLACK
6
CONTINUOUS
10
-121.5638679999999994
20
-9.2234870000000004
11
-121.6767949999999985
21
-9.2986789999999999
0
LINE
8
BLACK
6
CONTINUOUS
10
-121.4462739999999883
20
-9.1537579999999998
11
-121.5638679999999994
21
-9.2234870000000004
0
LINE
8
BLACK
6
CONTINUOUS
10
-121.3244139999999902
20
-9.094557
11
-121.4462739999999883
21
-9.1537579999999998
0
LINE
8
BLACK
6
CONTINUOUS
10
-121.200618999999989
20
-9.0431509999999999
11
-121.3244139999999902
21
-9.094557
0
LINE
8
BLACK
6
CONTINUOUS
10
-121.0698249999999945
20
-8.9999399999999987
11
-121.200618999999989
21
-9.0431509999999999
0
LINE
8
BLACK
6
CONTINUOUS
10
-120.9372970000000009
20
-8.9670569999999987
11
-121.0698249999999945
21
-8.9999399999999987
0
LINE
8
BLACK
6
CONTINUOUS
10
-120.8030329999999992
20
-8.9445009999999989
11
-120.9372970000000009
21
-8.9670569999999987
0
LINE
8
BLACK
6
CONTINUOUS
10
-120.6695670000000007
20
-8.9320749999999993
11
-120.8030329999999992
21
-8.9445009999999989
0
LINE
8
BLACK
6
CONTINUOUS
10
-120.534165999999999
20
-8.9274439999999995
11
-120.6695670000000007
21
-8.9320749999999993
0
LINE
8
BLACK
6
CONTINUOUS
10
-120.3970300000000009
20
-8.9331409999999991
11
-120.534165999999999
21
-8.9274439999999995
0
LINE
8
BLACK
6
CONTINUOUS
10
-106.4700950000000006
20
-10.0292149999999989
11
-120.3970300000000009
21
-8.9331409999999991
0
LINE
8
BLACK
6
CONTINUOUS
10
-106.3337569999999914
20
-10.0450400000000002
11
-106.4700950000000006
21
-10.0292149999999989
0
LINE
8
BLACK
6
CONTINUOUS
10
-106.2007469999999927
20
-10.0707950000000004
11
-106.3337569999999914
21
-10.0450400000000002
0
LINE
8
BLACK
6
CONTINUOUS
10
-106.0708679999999902
20
-10.103947999999999
11
-106.2007469999999927
21
-10.0707950000000004
0
LINE
8
BLACK
6
CONTINUOUS
10
-105.9417859999999934
20
-10.1472289999999994
11
-106.0708679999999902
21
-10.103947999999999
0
LINE
8
BLACK
6
CONTINUOUS
10
-105.8160329999999902
20
-10.2004389999999994
11
-105.9417859999999934
21
-10.1472289999999994
0
LINE
8
BLACK
6
CONTINUOUS
10
-105.6936099999999925
20
-10.263579
11
-105.8160329999999902
21
-10.2004389999999994
0
LINE
8
BLACK
6
CONTINUOUS
10
-105.5793809999999979
20
-10.3337179999999993
11
-105.6936099999999925
21
-10.263579
0
LINE
8
BLACK
6
CONTINUOUS
10
-105.4682809999999904
20
-10.4112539999999996
11
-105.5793809999999979
21
-10.3337179999999993
0
LINE
8
BLACK
6
CONTINUOUS
10
-105.3630440000000021
20
-10.4985189999999999
11
-105.4682809999999904
21
-10.4112539999999996
0
LINE
8
BLACK
6
CONTINUOUS
10
-105.263268999999994
20
-10.5904509999999998
11
-105.3630440000000021
21
-10.4985189999999999
0
LINE
8
BLACK
6
CONTINUOUS
10
-105.1718879999999956
20
-10.6919139999999988
11
-105.263268999999994
21
-10.5904509999999998
0
LINE
8
BLACK
6
CONTINUOUS
10
-105.085969999999989
20
-10.7980419999999988
11
-105.1718879999999956
21
-10.6919139999999988
0
LINE
8
BLACK
6
CONTINUOUS
10
-105.010778000000002
20
-10.9109689999999997
11
-105.085969999999989
21
-10.7980419999999988
0
LINE
8
BLACK
6
CONTINUOUS
10
-104.94104999999999
20
-11.0285630000000001
11
-105.010778000000002
21
-10.9109689999999997
0
LINE
8
BLACK
6
CONTINUOUS
10
-104.8818479999999909
20
-11.150423
11
-104.94104999999999
21
-11.0285630000000001
0
LINE
8
BLACK
6
CONTINUOUS
10
-104.8304429999999883
20
-11.2742179999999994
11
-104.8818479999999909
21
-11.150423
0
LINE
8
BLACK
6
CONTINUOUS
10
-104.7872309999999914
20
-11.4050119999999993
11
-104.8304429999999883
21
-11.2742179999999994
0
LINE
8
BLACK
6
CONTINUOUS
10
-104.7543479999999931
20
-11.5375399999999999
11
-104.7872309999999914
21
-11.4050119999999993
0
LINE
8
BLACK
6
CONTINUOUS
10
-104.7317929999999961
20
-11.6718039999999998
11
-104.7543479999999931
21
-11.5375399999999999
0
LINE
8
BLACK
6
CONTINUOUS
10
-104.7193659999999937
20
-11.8052700000000002
11
-104.7317929999999961
21
-11.6718039999999998
0
LINE
8
BLACK
6
CONTINUOUS
10
-104.7147349999999904
20
-11.940671
11
-104.7193659999999937
21
-11.8052700000000002
0
LINE
8
BLACK
6
CONTINUOUS
10
-104.7204319999999882
20
-12.077807
11
-104.7147349999999904
21
-11.940671
0
LINE
8
BLACK
6
CONTINUOUS
10
-106.065612999999999
20
-29.1699539999999971
11
-104.7204319999999882
21
-12.077807
0
LINE
8
BLACK
6
CONTINUOUS
10
-106.0814389999999889
20
-29.3062930000000001
11
-106.065612999999999
21
-29.1699539999999971
0
LINE
8
BLACK
6
CONTINUOUS
10
-106.1071939999999927
20
-29.4393019999999979
11
-106.0814389999999889
21
-29.3062930000000001
0
LINE
8
BLACK
6
CONTINUOUS
10
-106.1403469999999913
20
-29.5691810000000004
11
-106.1071939999999927
21
-29.4393019999999979
0
LINE
8
BLACK
6
CONTINUOUS
10
-106.1836279999999988
20
-29.6982639999999982
11
-106.1403469999999913
21
-29.5691810000000004
0
LINE
8
BLACK
6
CONTINUOUS
10
-106.2368379999999917
20
-29.8240160000000003
11
-106.1836279999999988
21
-29.6982639999999982
0
LINE
8
BLACK
6
CONTINUOUS
10
-106.2999779999999959
20
-29.9464399999999991
11
-106.2368379999999917
21
-29.8240160000000003
0
LINE
8
BLACK
6
CONTINUOUS
10
-106.3701169999999934
20
-30.0606689999999972
11
-106.2999779999999959
21
-29.9464399999999991
0
LINE
8
BLACK
6
CONTINUOUS
10
-106.4476529999999883
20
-30.1717680000000001
11
-106.3701169999999934
21
-30.0606689999999972
0
LINE
8
BLACK
6
CONTINUOUS
10
-106.5349179999999905
20
-30.2770060000000001
11
-106.4476529999999883
21
-30.1717680000000001
0
LINE
8
BLACK
6
CONTINUOUS
10
-106.6268499999999904
20
-30.3767800000000001
11
-106.5349179999999905
21
-30.2770060000000001
0
LINE
8
BLACK
6
CONTINUOUS
10
-106.728313
20
-30.4681609999999985
11
-106.6268499999999904
21
-30.3767800000000001
0
LINE
8
BLACK
6
CONTINUOUS
10
-106.8344409999999982
20
-30.554079999999999
11
-106.728313
21
-30.4681609999999985
0
LINE
8
BLACK
6
CONTINUOUS
10
-106.9473679999999973
20
-30.6292709999999992
11
-106.8344409999999982
21
-30.554079999999999
0
LINE
8
BLACK
6
CONTINUOUS
10
-107.0649619999999942
20
-30.6989999999999981
11
-106.9473679999999973
21
-30.6292709999999992
0
LINE
8
BLACK
6
CONTINUOUS
10
-107.1868219999999923
20
-30.7582009999999997
11
-107.0649619999999942
21
-30.6989999999999981
0
LINE
8
BLACK
6
CONTINUOUS
10
-107.3106169999999935
20
-30.8096069999999997
11
-107.1868219999999923
21
-30.7582009999999997
0
LINE
8
BLACK
6
CONTINUOUS
10
-107.4414110000000022
20
-30.8528179999999992
11
-107.3106169999999935
21
-30.8096069999999997
0
LINE
8
BLACK
6
CONTINUOUS
10
-107.5739389999999958
20
-30.8857019999999984
11
-107.4414110000000022
21
-30.8528179999999992
0
LINE
8
BLACK
6
CONTINUOUS
10
-107.7082029999999975
20
-30.908256999999999
11
-107.5739389999999958
21
-30.8857019999999984
0
LINE
8
BLACK
6
CONTINUOUS
10
-107.841668999999996
20
-30.9206830000000004
11
-107.7082029999999975
21
-30.908256999999999
0
LINE
8
BLACK
6
CONTINUOUS
10
-107.9770699999999977
20
-30.9253140000000002
11
-107.841668999999996
21
-30.9206830000000004
0
LINE
8
BLACK
6
CONTINUOUS
10
-108.1142059999999958
20
-30.9196169999999988
11
-107.9770699999999977
21
-30.9253140000000002
0
LINE
8
BLACK
6
CONTINUOUS
10
-110.5906679999999938
20
-30.7247149999999998
11
-108.1142059999999958
21
-30.9196169999999988
0
LINE
8
BLACK
6
CONTINUOUS
10
-110.9083919999999921
20
-34.7617800000000017
11
-110.5906679999999938
21
-30.7247149999999998
0
LINE
8
BLACK
6
CONTINUOUS
10
-119.882401999999999
20
-34.0555099999999982
11
-110.9083919999999921
21
-34.7617800000000017
0
LINE
8
BLACK
6
CONTINUOUS
10
-119.5646780000000007
20
-30.0184449999999998
11
-119.882401999999999
21
-34.0555099999999982
0
LINE
8
BLACK
6
CONTINUOUS
10
-122.0411409999999961
20
-29.8235439999999983
11
-119.5646780000000007
21
-30.0184449999999998
0
LINE
8
BLACK
6
CONTINUOUS
10
-122.1774789999999911
20
-29.8077179999999977
11
-122.0411409999999961
21
-29.8235439999999983
0
LINE
8
BLACK
6
CONTINUOUS
10
-122.3104889999999898
20
-29.7819629999999975
11
-122.1774789999999911
21
-29.8077179999999977
0
LINE
8
BLACK
6
CONTINUOUS
10
-122.4403679999999923
20
-29.7488099999999989
11
-122.3104889999999898
21
-29.7819629999999975
0
LINE
8
BLACK
6
CONTINUOUS
10
-122.5694499999999891
20
-29.7055289999999985
11
-122.4403679999999923
21
-29.7488099999999989
0
LINE
8
BLACK
6
CONTINUOUS
10
-122.6952029999999922
20
-29.6523189999999985
11
-122.5694499999999891
21
-29.7055289999999985
0
LINE
8
BLACK
6
CONTINUOUS
10
-122.81762599999999
20
-29.5891789999999979
11
-122.6952029999999922
21
-29.6523189999999985
0
LINE
8
BLACK
6
CONTINUOUS
10
-122.9318549999999988
20
-29.5190400000000004
11
-122.81762599999999
21
-29.5891789999999979
0
LINE
8
BLACK
6
CONTINUOUS
10
-123.0429549999999921
20
-29.4415049999999994
11
-122.9318549999999988
21
-29.5190400000000004
0
LINE
8
BLACK
6
CONTINUOUS
10
-123.1481919999999946
20
-29.3542389999999997
11
-123.0429549999999921
21
-29.4415049999999994
0
LINE
8
BLACK
6
CONTINUOUS
10
-123.2479669999999885
20
-29.2623069999999998
11
-123.1481919999999946
21
-29.3542389999999997
0
LINE
8
BLACK
6
CONTINUOUS
10
-123.3393480000000011
20
-29.1608449999999984
11
-123.2479669999999885
21
-29.2623069999999998
0
LINE
8
BLACK
6
CONTINUOUS
10
-123.4252659999999935
20
-29.0547159999999991
11
-123.3393480000000011
21
-29.1608449999999984
0
LINE
8
BLACK
6
CONTINUOUS
10
-123.5004579999999947
20
-28.941789
11
-123.4252659999999935
21
-29.0547159999999991
0
LINE
8
BLACK
6
CONTINUOUS
10
-123.5701859999999925
20
-28.8241949999999996
11
-123.5004579999999947
21
-28.941789
0
LINE
8
BLACK
6
CONTINUOUS
10
-123.6293879999999916
20
-28.7023349999999979
11
-123.5701859999999925
21
-28.8241949999999996
0
LINE
8
BLACK
6
CONTINUOUS
10
-123.6807929999999942
20
-28.5785400000000003
11
-123.6293879999999916
21
-28.7023349999999979
0
LINE
8
BLACK
6
CONTINUOUS
10
-123.7240049999999911
20
-28.4477469999999997
11
-123.6807929999999942
21
-28.5785400000000003
0
LINE
8
BLACK
6
CONTINUOUS
10
-123.7568879999999893
20
-28.315217999999998
11
-123.7240049999999911
21
-28.4477469999999997
0
LINE
8
BLACK
6
CONTINUOUS
10
-123.7794430000000006
20
-28.1809539999999998
11
-123.7568879999999893
21
-28.315217999999998
0
LINE
8
BLACK
6
CONTINUOUS
10
-123.7918699999999887
20
-28.0474879999999978
11
-123.7794430000000006
21
-28.1809539999999998
0
LINE
8
BLACK
6
CONTINUOUS
10
-123.7965009999999921
20
-27.9120869999999996
11
-123.7918699999999887
21
-28.0474879999999978
0
LINE
8
BLACK
6
CONTINUOUS
10
-123.7908039999999943
20
-27.774951999999999
11
-123.7965009999999921
21
-27.9120869999999996
0
LINE
8
BLACK
6
CONTINUOUS
10
-122.4456220000000002
20
-10.6828039999999991
11
-123.7908039999999943
21
-27.774951999999999
0
LINE
8
BLACK
6
CONTINUOUS
10
-110.7090439999999916
20
-32.2288239999999959
11
-110.1323099999999897
21
-24.9007240000000003
0
LINE
8
BLACK
6
CONTINUOUS
10
-119.6830539999999985
20
-31.5225539999999995
11
-110.7090439999999916
21
-32.2288239999999959
0
LINE
8
BLACK
6
CONTINUOUS
10
-119.1063199999999966
20
-24.1944540000000003
11
-119.6830539999999985
21
-31.5225539999999995
0
LINE
8
BLACK
6
CONTINUOUS
10
-110.1323099999999897
20
-24.9007240000000003
11
-119.1063199999999966
21
-24.1944540000000003
0
LINE
8
BLACK
6
CONTINUOUS
10
-122.4456220000000002
20
-10.6828039999999991
11
-123.7908039999999943
21
-27.774951999999999
0
LINE
8
BLACK
6
CONTINUOUS
10
-122.4297969999999935
20
-10.5464649999999995
11
-122.4456220000000002
21
-10.6828039999999991
0
LINE
8
BLACK
6
CONTINUOUS
10
-122.4040409999999923
20
-10.413456
11
-122.4297969999999935
21
-10.5464649999999995
0
LINE
8
BLACK
6
CONTINUOUS
10
-122.3708889999999911
20
-10.2835769999999993
11
-122.4040409999999923
21
-10.413456
0
LINE
8
BLACK
6
CONTINUOUS
10
-122.3276079999999979
20
-10.1544949999999989
11
-122.3708889999999911
21
-10.2835769999999993
0
LINE
8
BLACK
6
CONTINUOUS
10
-122.2743979999999908
20
-10.0287419999999994
11
-122.3276079999999979
21
-10.1544949999999989
0
LINE
8
BLACK
6
CONTINUOUS
10
-122.2112580000000008
20
-9.9063179999999988
11
-122.2743979999999908
21
-10.0287419999999994
0
LINE
8
BLACK
6
CONTINUOUS
10
-122.1411189999999891
20
-9.7920889999999989
11
-122.2112580000000008
21
-9.9063179999999988
0
LINE
8
BLACK
6
CONTINUOUS
10
-122.0635829999999942
20
-9.6809899999999995
11
-122.1411189999999891
21
-9.7920889999999989
0
LINE
8
BLACK
6
CONTINUOUS
10
-121.976317999999992
20
-9.5757519999999996
11
-122.0635829999999942
21
-9.6809899999999995
0
LINE
8
BLACK
6
CONTINUOUS
10
-121.8843859999999921
20
-9.4759779999999996
11
-121.976317999999992
21
-9.5757519999999996
0
LINE
8
BLACK
6
CONTINUOUS
10
-121.7829229999999967
20
-9.3845969999999994
11
-121.8843859999999921
21
-9.4759779999999996
0
LINE
8
BLACK
6
CONTINUOUS
10
-121.6767949999999985
20
-9.2986789999999999
11
-121.7829229999999967
21
-9.3845969999999994
0
LINE
8
BLACK
6
CONTINUOUS
10
-121.5638679999999994
20
-9.2234870000000004
11
-121.6767949999999985
21
-9.2986789999999999
0
LINE
8
BLACK
6
CONTINUOUS
10
-121.4462739999999883
20
-9.1537579999999998
11
-121.5638679999999994
21
-9.2234870000000004
0
LINE
8
BLACK
6
CONTINUOUS
10
-121.3244139999999902
20
-9.094557
11
-121.4462739999999883
21
-9.1537579999999998
0
LINE
8
BLACK
6
CONTINUOUS
10
-121.200618999999989
20
-9.0431509999999999
11
-121.3244139999999902
21
-9.094557
0
LINE
8
BLACK
6
CONTINUOUS
10
-121.0698249999999945
20
-8.9999399999999987
11
-121.200618999999989
21
-9.0431509999999999
0
LINE
8
BLACK
6
CONTINUOUS
10
-120.9372970000000009
20
-8.9670569999999987
11
-121.0698249999999945
21
-8.9999399999999987
0
LINE
8
BLACK
6
CONTINUOUS
10
-120.8030329999999992
20
-8.9445009999999989
11
-120.9372970000000009
21
-8.9670569999999987
0
LINE
8
BLACK
6
CONTINUOUS
10
-120.6695670000000007
20
-8.9320749999999993
11
-120.8030329999999992
21
-8.9445009999999989
0
LINE
8
BLACK
6
CONTINUOUS
10
-120.534165999999999
20
-8.9274439999999995
11
-120.6695670000000007
21
-8.9320749999999993
0
LINE
8
BLACK
6
CONTINUOUS
10
-120.3970300000000009
20
-8.9331409999999991
11
-120.534165999999999
21
-8.9274439999999995
0
LINE
8
BLACK
6
CONTINUOUS
10
-106.4700950000000006
20
-10.0292149999999989
11
-120.3970300000000009
21
-8.9331409999999991
0
LINE
8
BLACK
6
CONTINUOUS
10
-106.3337569999999914
20
-10.0450400000000002
11
-106.4700950000000006
21
-10.0292149999999989
0
LINE
8
BLACK
6
CONTINUOUS
10
-106.2007469999999927
20
-10.0707950000000004
11
-106.3337569999999914
21
-10.0450400000000002
0
LINE
8
BLACK
6
CONTINUOUS
10
-106.0708679999999902
20
-10.103947999999999
11
-106.2007469999999927
21
-10.0707950000000004
0
LINE
8
BLACK
6
CONTINUOUS
10
-105.9417859999999934
20
-10.1472289999999994
11
-106.0708679999999902
21
-10.103947999999999
0
LINE
8
BLACK
6
CONTINUOUS
10
-105.8160329999999902
20
-10.2004389999999994
11
-105.9417859999999934
21
-10.1472289999999994
0
LINE
8
BLACK
6
CONTINUOUS
10
-105.6936099999999925
20
-10.263579
11
-105.8160329999999902
21
-10.2004389999999994
0
LINE
8
BLACK
6
CONTINUOUS
10
-105.5793809999999979
20
-10.3337179999999993
11
-105.6936099999999925
21
-10.263579
0
LINE
8
BLACK
6
CONTINUOUS
10
-105.4682809999999904
20
-10.4112539999999996
11
-105.5793809999999979
21
-10.3337179999999993
0
LINE
8
BLACK
6
CONTINUOUS
10
-105.3630440000000021
20
-10.4985189999999999
11
-105.4682809999999904
21
-10.4112539999999996
0
LINE
8
BLACK
6
CONTINUOUS
10
-105.263268999999994
20
-10.5904509999999998
11
-105.3630440000000021
21
-10.4985189999999999
0
LINE
8
BLACK
6
CONTINUOUS
10
-105.1718879999999956
20
-10.6919139999999988
11
-105.263268999999994
21
-10.5904509999999998
0
LINE
8
BLACK
6
CONTINUOUS
10
-105.085969999999989
20
-10.7980419999999988
11
-105.1718879999999956
21
-10.6919139999999988
0
LINE
8
BLACK
6
CONTINUOUS
10
-105.010778000000002
20
-10.9109689999999997
11
-105.085969999999989
21
-10.7980419999999988
0
LINE
8
BLACK
6
CONTINUOUS
10
-104.94104999999999
20
-11.0285630000000001
11
-105.010778000000002
21
-10.9109689999999997
0
LINE
8
BLACK
6
CONTINUOUS
10
-104.8818479999999909
20
-11.150423
11
-104.94104999999999
21
-11.0285630000000001
0
LINE
8
BLACK
6
CONTINUOUS
10
-104.8304429999999883
20
-11.2742179999999994
11
-104.8818479999999909
21
-11.150423
0
LINE
8
BLACK
6
CONTINUOUS
10
-104.7872309999999914
20
-11.4050119999999993
11
-104.8304429999999883
21
-11.2742179999999994
0
LINE
8
BLACK
6
CONTINUOUS
10
-104.7543479999999931
20
-11.5375399999999999
11
-104.7872309999999914
21
-11.4050119999999993
0
LINE
8
BLACK
6
CONTINUOUS
10
-104.7317929999999961
20
-11.6718039999999998
11
-104.7543479999999931
21
-11.5375399999999999
0
LINE
8
BLACK
6
CONTINUOUS
10
-104.7193659999999937
20
-11.8052700000000002
11
-104.7317929999999961
21
-11.6718039999999998
0
LINE
8
BLACK
6
CONTINUOUS
10
-104.7147349999999904
20
-11.940671
11
-104.7193659999999937
21
-11.8052700000000002
0
LINE
8
BLACK
6
CONTINUOUS
10
-104.7204319999999882
20
-12.077807
11
-104.7147349999999904
21
-11.940671
0
LINE
8
BLACK
6
CONTINUOUS
10
-106.065612999999999
20
-29.1699539999999971
11
-104.7204319999999882
21
-12.077807
0
LINE
8
BLACK
6
CONTINUOUS
10
-106.0814389999999889
20
-29.3062930000000001
11
-106.065612999999999
21
-29.1699539999999971
0
LINE
8
BLACK
6
CONTINUOUS
10
-106.1071939999999927
20
-29.4393019999999979
11
-106.0814389999999889
21
-29.3062930000000001
0
LINE
8
BLACK
6
CONTINUOUS
10
-106.1403469999999913
20
-29.5691810000000004
11
-106.1071939999999927
21
-29.4393019999999979
0
LINE
8
BLACK
6
CONTINUOUS
10
-106.1836279999999988
20
-29.6982639999999982
11
-106.1403469999999913
21
-29.5691810000000004
0
LINE
8
BLACK
6
CONTINUOUS
10
-106.2368379999999917
20
-29.8240160000000003
11
-106.1836279999999988
21
-29.6982639999999982
0
LINE
8
BLACK
6
CONTINUOUS
10
-106.2999779999999959
20
-29.9464399999999991
11
-106.2368379999999917
21
-29.8240160000000003
0
LINE
8
BLACK
6
CONTINUOUS
10
-106.3701169999999934
20
-30.0606689999999972
11
-106.2999779999999959
21
-29.9464399999999991
0
LINE
8
BLACK
6
CONTINUOUS
10
-106.4476529999999883
20
-30.1717680000000001
11
-106.3701169999999934
21
-30.0606689999999972
0
LINE
8
BLACK
6
CONTINUOUS
10
-106.5349179999999905
20
-30.2770060000000001
11
-106.4476529999999883
21
-30.1717680000000001
0
LINE
8
BLACK
6
CONTINUOUS
10
-106.6268499999999904
20
-30.3767800000000001
11
-106.5349179999999905
21
-30.2770060000000001
0
LINE
8
BLACK
6
CONTINUOUS
10
-106.728313
20
-30.4681609999999985
11
-106.6268499999999904
21
-30.3767800000000001
0
LINE
8
BLACK
6
CONTINUOUS
10
-106.8344409999999982
20
-30.554079999999999
11
-106.728313
21
-30.4681609999999985
0
LINE
8
BLACK
6
CONTINUOUS
10
-106.9473679999999973
20
-30.6292709999999992
11
-106.8344409999999982
21
-30.554079999999999
0
LINE
8
BLACK
6
CONTINUOUS
10
-107.0649619999999942
20
-30.6989999999999981
11
-106.9473679999999973
21
-30.6292709999999992
0
LINE
8
BLACK
6
CONTINUOUS
10
-107.1868219999999923
20
-30.7582009999999997
11
-107.0649619999999942
21
-30.6989999999999981
0
LINE
8
BLACK
6
CONTINUOUS
10
-107.3106169999999935
20
-30.8096069999999997
11
-107.1868219999999923
21
-30.7582009999999997
0
LINE
8
BLACK
6
CONTINUOUS
10
-107.4414110000000022
20
-30.8528179999999992
11
-107.3106169999999935
21
-30.8096069999999997
0
LINE
8
BLACK
6
CONTINUOUS
10
-107.5739389999999958
20
-30.8857019999999984
11
-107.4414110000000022
21
-30.8528179999999992
0
LINE
8
BLACK
6
CONTINUOUS
10
-107.7082029999999975
20
-30.908256999999999
11
-107.5739389999999958
21
-30.8857019999999984
0
LINE
8
BLACK
6
CONTINUOUS
10
-107.841668999999996
20
-30.9206830000000004
11
-107.7082029999999975
21
-30.908256999999999
0
LINE
8
BLACK
6
CONTINUOUS
10
-107.9770699999999977
20
-30.9253140000000002
11
-107.841668999999996
21
-30.9206830000000004
0
LINE
8
BLACK
6
CONTINUOUS
10
-108.1142059999999958
20
-30.9196169999999988
11
-107.9770699999999977
21
-30.9253140000000002
0
LINE
8
BLACK
6
CONTINUOUS
10
-122.0411409999999961
20
-29.8235439999999983
11
-108.1142059999999958
21
-30.9196169999999988
0
LINE
8
BLACK
6
CONTINUOUS
10
-122.1774789999999911
20
-29.8077179999999977
11
-122.0411409999999961
21
-29.8235439999999983
0
LINE
8
BLACK
6
CONTINUOUS
10
-122.3104889999999898
20
-29.7819629999999975
11
-122.1774789999999911
21
-29.8077179999999977
0
LINE
8
BLACK
6
CONTINUOUS
10
-122.4403679999999923
20
-29.7488099999999989
11
-122.3104889999999898
21
-29.7819629999999975
0
LINE
8
BLACK
6
CONTINUOUS
10
-122.5694499999999891
20
-29.7055289999999985
11
-122.4403679999999923
21
-29.7488099999999989
0
LINE
8
BLACK
6
CONTINUOUS
10
-122.6952029999999922
20
-29.6523189999999985
11
-122.5694499999999891
21
-29.7055289999999985
0
LINE
8
BLACK
6
CONTINUOUS
10
-122.81762599999999
20
-29.5891789999999979
11
-122.6952029999999922
21
-29.6523189999999985
0
LINE
8
BLACK
6
CONTINUOUS
10
-122.9318549999999988
20
-29.5190400000000004
11
-122.81762599999999
21
-29.5891789999999979
0
LINE
8
BLACK
6
CONTINUOUS
10
-123.0429549999999921
20
-29.4415049999999994
11
-122.9318549999999988
21
-29.5190400000000004
0
LINE
8
BLACK
6
CONTINUOUS
10
-123.1481919999999946
20
-29.3542389999999997
11
-123.0429549999999921
21
-29.4415049999999994
0
LINE
8
BLACK
6
CONTINUOUS
10
-123.2479669999999885
20
-29.2623069999999998
11
-123.1481919999999946
21
-29.3542389999999997
0
LINE
8
BLACK
6
CONTINUOUS
10
-123.3393480000000011
20
-29.1608449999999984
11
-123.2479669999999885
21
-29.2623069999999998
0
LINE
8
BLACK
6
CONTINUOUS
10
-123.4252659999999935
20
-29.0547159999999991
11
-123.3393480000000011
21
-29.1608449999999984
0
LINE
8
BLACK
6
CONTINUOUS
10
-123.5004579999999947
20
-28.941789
11
-123.4252659999999935
21
-29.0547159999999991
0
LINE
8
BLACK
6
CONTINUOUS
10
-123.5701859999999925
20
-28.8241949999999996
11
-123.5004579999999947
21
-28.941789
0
LINE
8
BLACK
6
CONTINUOUS
10
-123.6293879999999916
20
-28.7023349999999979
11
-123.5701859999999925
21
-28.8241949999999996
0
LINE
8
BLACK
6
CONTINUOUS
10
-123.6807929999999942
20
-28.5785400000000003
11
-123.6293879999999916
21
-28.7023349999999979
0
LINE
8
BLACK
6
CONTINUOUS
10
-123.7240049999999911
20
-28.4477469999999997
11
-123.6807929999999942
21
-28.5785400000000003
0
LINE
8
BLACK
6
CONTINUOUS
10
-123.7568879999999893
20
-28.315217999999998
11
-123.7240049999999911
21
-28.4477469999999997
0
LINE
8
BLACK
6
CONTINUOUS
10
-123.7794430000000006
20
-28.1809539999999998
11
-123.7568879999999893
21
-28.315217999999998
0
LINE
8
BLACK
6
CONTINUOUS
10
-123.7918699999999887
20
-28.0474879999999978
11
-123.7794430000000006
21
-28.1809539999999998
0
LINE
8
BLACK
6
CONTINUOUS
10
-123.7965009999999921
20
-27.9120869999999996
11
-123.7918699999999887
21
-28.0474879999999978
0
LINE
8
BLACK
6
CONTINUOUS
10
-123.7908039999999943
20
-27.774951999999999
11
-123.7965009999999921
21
-27.9120869999999996
0
CIRCLE
8
BLACK
10
-123.9154549999999944
20
-26.8096959999999989
40
0.6730999999999999
0
CIRCLE
8
BLACK
10
-123.7161689999999936
20
-24.2775259999999982
40
0.6730999999999999
0
CIRCLE
8
BLACK
10
-123.5168829999999929
20
-21.7453559999999975
40
0.6730999999999999
0
CIRCLE
8
BLACK
10
-123.3175969999999921
20
-19.2131860000000003
40
0.6730999999999999
0
CIRCLE
8
BLACK
10
-123.1183099999999939
20
-16.6810159999999996
40
0.6730999999999999
0
CIRCLE
8
BLACK
10
-122.9190239999999932
20
-14.1488459999999989
40
0.6730999999999999
0
CIRCLE
8
BLACK
10
-122.7197379999999924
20
-11.616676
40
0.6730999999999999
0
CIRCLE
8
BLACK
10
-104.5957810000000023
20
-13.043061999999999
40
0.6730999999999999
0
CIRCLE
8
BLACK
10
-104.7950669999999889
20
-15.5752319999999997
40
0.6730999999999999
0
CIRCLE
8
BLACK
10
-104.9943529999999896
20
-18.1074020000000004
40
0.6730999999999999
0
CIRCLE
8
BLACK
10
-105.1936389999999903
20
-20.6395719999999976
40
0.6730999999999999
0
CIRCLE
8
BLACK
10
-105.3929259999999886
20
-23.1717419999999983
40
0.6730999999999999
0
CIRCLE
8
BLACK
10
-105.5922119999999893
20
-25.703911999999999
40
0.6730999999999999
0
CIRCLE
8
BLACK
10
-105.79149799999999
20
-28.2360819999999997
40
0.6730999999999999
0
CIRCLE
8
BLACK
10
32.2028869999999969
20
-20.8749499999999983
40
1.5
0
LINE
8
BLACK
6
CONTINUOUS
10
35.1936389999999975
20
-20.6395719999999976
11
32.2028869999999969
21
-20.8749499999999983
0
LINE
8
BLACK
6
CONTINUOUS
10
52.4297970000000007
20
-10.5464649999999995
11
52.4456220000000002
21
-10.6828039999999991
0
LINE
8
BLACK
6
CONTINUOUS
10
52.4040409999999994
20
-10.413456
11
52.4297970000000007
21
-10.5464649999999995
0
LINE
8
BLACK
6
CONTINUOUS
10
52.3708889999999982
20
-10.2835769999999993
11
52.4040409999999994
21
-10.413456
0
LINE
8
BLACK
6
CONTINUOUS
10
52.3276079999999979
20
-10.1544949999999989
11
52.3708889999999982
21
-10.2835769999999993
0
LINE
8
BLACK
6
CONTINUOUS
10
52.2743979999999979
20
-10.0287419999999994
11
52.3276079999999979
21
-10.1544949999999989
0
LINE
8
BLACK
6
CONTINUOUS
10
52.2112580000000008
20
-9.9063179999999988
11
52.2743979999999979
21
-10.0287419999999994
0
LINE
8
BLACK
6
CONTINUOUS
10
52.1411189999999962
20
-9.7920889999999989
11
52.2112580000000008
21
-9.9063179999999988
0
LINE
8
BLACK
6
CONTINUOUS
10
52.0635829999999942
20
-9.6809899999999995
11
52.1411189999999962
21
-9.7920889999999989
0
LINE
8
BLACK
6
CONTINUOUS
10
51.9763179999999991
20
-9.5757519999999996
11
52.0635829999999942
21
-9.6809899999999995
0
LINE
8
BLACK
6
CONTINUOUS
10
51.8843859999999992
20
-9.4759779999999996
11
51.9763179999999991
21
-9.5757519999999996
0
LINE
8
BLACK
6
CONTINUOUS
10
51.7829229999999967
20
-9.3845969999999994
11
51.8843859999999992
21
-9.4759779999999996
0
LINE
8
BLACK
6
CONTINUOUS
10
51.6767949999999985
20
-9.2986789999999999
11
51.7829229999999967
21
-9.3845969999999994
0
LINE
8
BLACK
6
CONTINUOUS
10
51.5638679999999994
20
-9.2234870000000004
11
51.6767949999999985
21
-9.2986789999999999
0
LINE
8
BLACK
6
CONTINUOUS
10
51.4462739999999954
20
-9.1537579999999998
11
51.5638679999999994
21
-9.2234870000000004
0
LINE
8
BLACK
6
CONTINUOUS
10
51.3244139999999973
20
-9.094557
11
51.4462739999999954
21
-9.1537579999999998
0
LINE
8
BLACK
6
CONTINUOUS
10
51.2006189999999961
20
-9.0431509999999999
11
51.3244139999999973
21
-9.094557
0
LINE
8
BLACK
6
CONTINUOUS
10
51.0698249999999945
20
-8.9999399999999987
11
51.2006189999999961
21
-9.0431509999999999
0
LINE
8
BLACK
6
CONTINUOUS
10
50.9372970000000009
20
-8.9670569999999987
11
51.0698249999999945
21
-8.9999399999999987
0
LINE
8
BLACK
6
CONTINUOUS
10
50.8030329999999992
20
-8.9445009999999989
11
50.9372970000000009
21
-8.9670569999999987
0
LINE
8
BLACK
6
CONTINUOUS
10
50.6695670000000007
20
-8.9320749999999993
11
50.8030329999999992
21
-8.9445009999999989
0
LINE
8
BLACK
6
CONTINUOUS
10
50.534165999999999
20
-8.9274439999999995
11
50.6695670000000007
21
-8.9320749999999993
0
LINE
8
BLACK
6
CONTINUOUS
10
50.3970300000000009
20
-8.9331409999999991
11
50.534165999999999
21
-8.9274439999999995
0
LINE
8
BLACK
6
CONTINUOUS
10
36.4700950000000006
20
-10.0292149999999989
11
50.3970300000000009
21
-8.9331409999999991
0
LINE
8
BLACK
6
CONTINUOUS
10
36.3337569999999985
20
-10.0450400000000002
11
36.4700950000000006
21
-10.0292149999999989
0
LINE
8
BLACK
6
CONTINUOUS
10
36.2007469999999998
20
-10.0707950000000004
11
36.3337569999999985
21
-10.0450400000000002
0
LINE
8
BLACK
6
CONTINUOUS
10
36.0708679999999973
20
-10.103947999999999
11
36.2007469999999998
21
-10.0707950000000004
0
LINE
8
BLACK
6
CONTINUOUS
10
35.9417860000000005
20
-10.1472289999999994
11
36.0708679999999973
21
-10.103947999999999
0
LINE
8
BLACK
6
CONTINUOUS
10
35.8160329999999973
20
-10.2004389999999994
11
35.9417860000000005
21
-10.1472289999999994
0
LINE
8
BLACK
6
CONTINUOUS
10
35.6936099999999996
20
-10.263579
11
35.8160329999999973
21
-10.2004389999999994
0
LINE
8
BLACK
6
CONTINUOUS
10
35.5793809999999979
20
-10.3337179999999993
11
35.6936099999999996
21
-10.263579
0
LINE
8
BLACK
6
CONTINUOUS
10
35.4682809999999975
20
-10.4112539999999996
11
35.5793809999999979
21
-10.3337179999999993
0
LINE
8
BLACK
6
CONTINUOUS
10
35.363043999999995
20
-10.4985189999999999
11
35.4682809999999975
21
-10.4112539999999996
0
LINE
8
BLACK
6
CONTINUOUS
10
35.2632690000000011
20
-10.5904509999999998
11
35.363043999999995
21
-10.4985189999999999
0
LINE
8
BLACK
6
CONTINUOUS
10
35.1718879999999956
20
-10.6919139999999988
11
35.2632690000000011
21
-10.5904509999999998
0
LINE
8
BLACK
6
CONTINUOUS
10
35.0859699999999961
20
-10.7980419999999988
11
35.1718879999999956
21
-10.6919139999999988
0
LINE
8
BLACK
6
CONTINUOUS
10
35.010778000000002
20
-10.9109689999999997
11
35.0859699999999961
21
-10.7980419999999988
0
LINE
8
BLACK
6
CONTINUOUS
10
34.9410499999999971
20
-11.0285630000000001
11
35.010778000000002
21
-10.9109689999999997
0
LINE
8
BLACK
6
CONTINUOUS
10
34.881847999999998
20
-11.150423
11
34.9410499999999971
21
-11.0285630000000001
0
LINE
8
BLACK
6
CONTINUOUS
10
34.8304429999999954
20
-11.2742179999999994
11
34.881847999999998
21
-11.150423
0
LINE
8
BLACK
6
CONTINUOUS
10
34.7872309999999985
20
-11.4050119999999993
11
34.8304429999999954
21
-11.2742179999999994
0
LINE
8
BLACK
6
CONTINUOUS
10
34.7543480000000002
20
-11.5375399999999999
11
34.7872309999999985
21
-11.4050119999999993
0
LINE
8
BLACK
6
CONTINUOUS
10
34.7317929999999961
20
-11.6718039999999998
11
34.7543480000000002
21
-11.5375399999999999
0
LINE
8
BLACK
6
CONTINUOUS
10
34.7193660000000008
20
-11.8052700000000002
11
34.7317929999999961
21
-11.6718039999999998
0
LINE
8
BLACK
6
CONTINUOUS
10
34.7147349999999975
20
-11.940671
11
34.7193660000000008
21
-11.8052700000000002
0
LINE
8
BLACK
6
CONTINUOUS
10
34.7204319999999953
20
-12.077807
11
34.7147349999999975
21
-11.940671
0
LINE
8
BLACK
6
CONTINUOUS
10
36.065612999999999
20
-29.1699539999999971
11
34.7204319999999953
21
-12.077807
0
LINE
8
BLACK
6
CONTINUOUS
10
36.081438999999996
20
-29.3062930000000001
11
36.065612999999999
21
-29.1699539999999971
0
LINE
8
BLACK
6
CONTINUOUS
10
36.1071939999999998
20
-29.4393019999999979
11
36.081438999999996
21
-29.3062930000000001
0
LINE
8
BLACK
6
CONTINUOUS
10
36.1403469999999984
20
-29.5691810000000004
11
36.1071939999999998
21
-29.4393019999999979
0
LINE
8
BLACK
6
CONTINUOUS
10
36.1836279999999988
20
-29.6982639999999982
11
36.1403469999999984
21
-29.5691810000000004
0
LINE
8
BLACK
6
CONTINUOUS
10
36.2368379999999988
20
-29.8240160000000003
11
36.1836279999999988
21
-29.6982639999999982
0
LINE
8
BLACK
6
CONTINUOUS
10
36.2999779999999959
20
-29.9464399999999991
11
36.2368379999999988
21
-29.8240160000000003
0
LINE
8
BLACK
6
CONTINUOUS
10
36.3701170000000005
20
-30.0606689999999972
11
36.2999779999999959
21
-29.9464399999999991
0
LINE
8
BLACK
6
CONTINUOUS
10
36.4476529999999954
20
-30.1717680000000001
11
36.3701170000000005
21
-30.0606689999999972
0
LINE
8
BLACK
6
CONTINUOUS
10
36.5349179999999976
20
-30.2770060000000001
11
36.4476529999999954
21
-30.1717680000000001
0
LINE
8
BLACK
6
CONTINUOUS
10
36.6268499999999975
20
-30.3767800000000001
11
36.5349179999999976
21
-30.2770060000000001
0
LINE
8
BLACK
6
CONTINUOUS
10
36.728313
20
-30.4681609999999985
11
36.6268499999999975
21
-30.3767800000000001
0
LINE
8
BLACK
6
CONTINUOUS
10
36.8344409999999982
20
-30.554079999999999
11
36.728313
21
-30.4681609999999985
0
LINE
8
BLACK
6
CONTINUOUS
10
36.9473679999999973
20
-30.6292709999999992
11
36.8344409999999982
21
-30.554079999999999
0
LINE
8
BLACK
6
CONTINUOUS
10
37.0649620000000013
20
-30.6989999999999981
11
36.9473679999999973
21
-30.6292709999999992
0
LINE
8
BLACK
6
CONTINUOUS
10
37.1868219999999994
20
-30.7582009999999997
11
37.0649620000000013
21
-30.6989999999999981
0
LINE
8
BLACK
6
CONTINUOUS
10
37.3106170000000006
20
-30.8096069999999997
11
37.1868219999999994
21
-30.7582009999999997
0
LINE
8
BLACK
6
CONTINUOUS
10
37.4414109999999951
20
-30.8528179999999992
11
37.3106170000000006
21
-30.8096069999999997
0
LINE
8
BLACK
6
CONTINUOUS
10
37.5739389999999958
20
-30.8857019999999984
11
37.4414109999999951
21
-30.8528179999999992
0
LINE
8
BLACK
6
CONTINUOUS
10
37.7082029999999975
20
-30.908256999999999
11
37.5739389999999958
21
-30.8857019999999984
0
LINE
8
BLACK
6
CONTINUOUS
10
37.841668999999996
20
-30.9206830000000004
11
37.7082029999999975
21
-30.908256999999999
0
LINE
8
BLACK
6
CONTINUOUS
10
37.9770699999999977
20
-30.9253140000000002
11
37.841668999999996
21
-30.9206830000000004
0
LINE
8
BLACK
6
CONTINUOUS
10
38.1142059999999958
20
-30.9196169999999988
11
37.9770699999999977
21
-30.9253140000000002
0
LINE
8
BLACK
6
CONTINUOUS
10
40.5906680000000009
20
-30.7247149999999998
11
38.1142059999999958
21
-30.9196169999999988
0
LINE
8
BLACK
6
CONTINUOUS
10
40.9083919999999992
20
-34.7617800000000017
11
40.5906680000000009
21
-30.7247149999999998
0
LINE
8
BLACK
6
CONTINUOUS
10
49.882401999999999
20
-34.0555099999999982
11
40.9083919999999992
21
-34.7617800000000017
0
LINE
8
BLACK
6
CONTINUOUS
10
49.5646780000000007
20
-30.0184449999999998
11
49.882401999999999
21
-34.0555099999999982
0
LINE
8
BLACK
6
CONTINUOUS
10
52.0411409999999961
20
-29.8235439999999983
11
49.5646780000000007
21
-30.0184449999999998
0
LINE
8
BLACK
6
CONTINUOUS
10
52.1774789999999982
20
-29.8077179999999977
11
52.0411409999999961
21
-29.8235439999999983
0
LINE
8
BLACK
6
CONTINUOUS
10
52.3104889999999969
20
-29.7819629999999975
11
52.1774789999999982
21
-29.8077179999999977
0
LINE
8
BLACK
6
CONTINUOUS
10
52.4403679999999994
20
-29.7488099999999989
11
52.3104889999999969
21
-29.7819629999999975
0
LINE
8
BLACK
6
CONTINUOUS
10
52.5694499999999962
20
-29.7055289999999985
11
52.4403679999999994
21
-29.7488099999999989
0
LINE
8
BLACK
6
CONTINUOUS
10
52.6952029999999993
20
-29.6523189999999985
11
52.5694499999999962
21
-29.7055289999999985
0
LINE
8
BLACK
6
CONTINUOUS
10
52.8176259999999971
20
-29.5891789999999979
11
52.6952029999999993
21
-29.6523189999999985
0
LINE
8
BLACK
6
CONTINUOUS
10
52.9318549999999988
20
-29.5190400000000004
11
52.8176259999999971
21
-29.5891789999999979
0
LINE
8
BLACK
6
CONTINUOUS
10
53.0429549999999992
20
-29.4415049999999994
11
52.9318549999999988
21
-29.5190400000000004
0
LINE
8
BLACK
6
CONTINUOUS
10
53.1481919999999946
20
-29.3542389999999997
11
53.0429549999999992
21
-29.4415049999999994
0
LINE
8
BLACK
6
CONTINUOUS
10
53.2479669999999956
20
-29.2623069999999998
11
53.1481919999999946
21
-29.3542389999999997
0
LINE
8
BLACK
6
CONTINUOUS
10
53.3393480000000011
20
-29.1608449999999984
11
53.2479669999999956
21
-29.2623069999999998
0
LINE
8
BLACK
6
CONTINUOUS
10
53.4252660000000006
20
-29.0547159999999991
11
53.3393480000000011
21
-29.1608449999999984
0
LINE
8
BLACK
6
CONTINUOUS
10
53.5004579999999947
20
-28.941789
11
53.4252660000000006
21
-29.0547159999999991
0
LINE
8
BLACK
6
CONTINUOUS
10
53.5701859999999996
20
-28.8241949999999996
11
53.5004579999999947
21
-28.941789
0
LINE
8
BLACK
6
CONTINUOUS
10
53.6293879999999987
20
-28.7023349999999979
11
53.5701859999999996
21
-28.8241949999999996
0
LINE
8
BLACK
6
CONTINUOUS
10
53.6807929999999942
20
-28.5785400000000003
11
53.6293879999999987
21
-28.7023349999999979
0
LINE
8
BLACK
6
CONTINUOUS
10
53.7240049999999982
20
-28.4477469999999997
11
53.6807929999999942
21
-28.5785400000000003
0
LINE
8
BLACK
6
CONTINUOUS
10
53.7568879999999965
20
-28.315217999999998
11
53.7240049999999982
21
-28.4477469999999997
0
LINE
8
BLACK
6
CONTINUOUS
10
53.7794430000000006
20
-28.1809539999999998
11
53.7568879999999965
21
-28.315217999999998
0
LINE
8
BLACK
6
CONTINUOUS
10
53.7918699999999959
20
-28.0474879999999978
11
53.7794430000000006
21
-28.1809539999999998
0
LINE
8
BLACK
6
CONTINUOUS
10
53.7965009999999992
20
-27.9120869999999996
11
53.7918699999999959
21
-28.0474879999999978
0
LINE
8
BLACK
6
CONTINUOUS
10
53.7908039999999943
20
-27.774951999999999
11
53.7965009999999992
21
-27.9120869999999996
0
LINE
8
BLACK
6
CONTINUOUS
10
52.4456220000000002
20
-10.6828039999999991
11
53.7908039999999943
21
-27.774951999999999
0
LINE
8
BLACK
6
CONTINUOUS
10
40.7090439999999987
20
-32.2288239999999959
11
40.1323099999999968
21
-24.9007240000000003
0
LINE
8
BLACK
6
CONTINUOUS
10
49.6830539999999985
20
-31.5225539999999995
11
40.7090439999999987
21
-32.2288239999999959
0
LINE
8
BLACK
6
CONTINUOUS
10
49.1063199999999966
20
-24.1944540000000003
11
49.6830539999999985
21
-31.5225539999999995
0
LINE
8
BLACK
6
CONTINUOUS
10
40.1323099999999968
20
-24.9007240000000003
11
49.1063199999999966
21
-24.1944540000000003
0
LINE
8
BLACK
6
CONTINUOUS
10
52.4456220000000002
20
-10.6828039999999991
11
53.7908039999999943
21
-27.774951999999999
0
LINE
8
BLACK
6
CONTINUOUS
10
52.4297970000000007
20
-10.5464649999999995
11
52.4456220000000002
21
-10.6828039999999991
0
LINE
8
BLACK
6
CONTINUOUS
10
52.4040409999999994
20
-10.413456
11
52.4297970000000007
21
-10.5464649999999995
0
LINE
8
BLACK
6
CONTINUOUS
10
52.3708889999999982
20
-10.2835769999999993
11
52.4040409999999994
21
-10.413456
0
LINE
8
BLACK
6
CONTINUOUS
10
52.3276079999999979
20
-10.1544949999999989
11
52.3708889999999982
21
-10.2835769999999993
0
LINE
8
BLACK
6
CONTINUOUS
10
52.2743979999999979
20
-10.0287419999999994
11
52.3276079999999979
21
-10.1544949999999989
0
LINE
8
BLACK
6
CONTINUOUS
10
52.2112580000000008
20
-9.9063179999999988
11
52.2743979999999979
21
-10.0287419999999994
0
LINE
8
BLACK
6
CONTINUOUS
10
52.1411189999999962
20
-9.7920889999999989
11
52.2112580000000008
21
-9.9063179999999988
0
LINE
8
BLACK
6
CONTINUOUS
10
52.0635829999999942
20
-9.6809899999999995
11
52.1411189999999962
21
-9.7920889999999989
0
LINE
8
BLACK
6
CONTINUOUS
10
51.9763179999999991
20
-9.5757519999999996
11
52.0635829999999942
21
-9.6809899999999995
0
LINE
8
BLACK
6
CONTINUOUS
10
51.8843859999999992
20
-9.4759779999999996
11
51.9763179999999991
21
-9.5757519999999996
0
LINE
8
BLACK
6
CONTINUOUS
10
51.7829229999999967
20
-9.3845969999999994
11
51.8843859999999992
21
-9.4759779999999996
0
LINE
8
BLACK
6
CONTINUOUS
10
51.6767949999999985
20
-9.2986789999999999
11
51.7829229999999967
21
-9.3845969999999994
0
LINE
8
BLACK
6
CONTINUOUS
10
51.5638679999999994
20
-9.2234870000000004
11
51.6767949999999985
21
-9.2986789999999999
0
LINE
8
BLACK
6
CONTINUOUS
10
51.4462739999999954
20
-9.1537579999999998
11
51.5638679999999994
21
-9.2234870000000004
0
LINE
8
BLACK
6
CONTINUOUS
10
51.3244139999999973
20
-9.094557
11
51.4462739999999954
21
-9.1537579999999998
0
LINE
8
BLACK
6
CONTINUOUS
10
51.2006189999999961
20
-9.0431509999999999
11
51.3244139999999973
21
-9.094557
0
LINE
8
BLACK
6
CONTINUOUS
10
51.0698249999999945
20
-8.9999399999999987
11
51.2006189999999961
21
-9.0431509999999999
0
LINE
8
BLACK
6
CONTINUOUS
10
50.9372970000000009
20
-8.9670569999999987
11
51.0698249999999945
21
-8.9999399999999987
0
LINE
8
BLACK
6
CONTINUOUS
10
50.8030329999999992
20
-8.9445009999999989
11
50.9372970000000009
21
-8.9670569999999987
0
LINE
8
BLACK
6
CONTINUOUS
10
50.6695670000000007
20
-8.9320749999999993
11
50.8030329999999992
21
-8.9445009999999989
0
LINE
8
BLACK
6
CONTINUOUS
10
50.534165999999999
20
-8.9274439999999995
11
50.6695670000000007
21
-8.9320749999999993
0
LINE
8
BLACK
6
CONTINUOUS
10
50.3970300000000009
20
-8.9331409999999991
11
50.534165999999999
21
-8.9274439999999995
0
LINE
8
BLACK
6
CONTINUOUS
10
36.4700950000000006
20
-10.0292149999999989
11
50.3970300000000009
21
-8.9331409999999991
0
LINE
8
BLACK
6
CONTINUOUS
10
36.3337569999999985
20
-10.0450400000000002
11
36.4700950000000006
21
-10.0292149999999989
0
LINE
8
BLACK
6
CONTINUOUS
10
36.2007469999999998
20
-10.0707950000000004
11
36.3337569999999985
21
-10.0450400000000002
0
LINE
8
BLACK
6
CONTINUOUS
10
36.0708679999999973
20
-10.103947999999999
11
36.2007469999999998
21
-10.0707950000000004
0
LINE
8
BLACK
6
CONTINUOUS
10
35.9417860000000005
20
-10.1472289999999994
11
36.0708679999999973
21
-10.103947999999999
0
LINE
8
BLACK
6
CONTINUOUS
10
35.8160329999999973
20
-10.2004389999999994
11
35.9417860000000005
21
-10.1472289999999994
0
LINE
8
BLACK
6
CONTINUOUS
10
35.6936099999999996
20
-10.263579
11
35.8160329999999973
21
-10.2004389999999994
0
LINE
8
BLACK
6
CONTINUOUS
10
35.5793809999999979
20
-10.3337179999999993
11
35.6936099999999996
21
-10.263579
0
LINE
8
BLACK
6
CONTINUOUS
10
35.4682809999999975
20
-10.4112539999999996
11
35.5793809999999979
21
-10.3337179999999993
0
LINE
8
BLACK
6
CONTINUOUS
10
35.363043999999995
20
-10.4985189999999999
11
35.4682809999999975
21
-10.4112539999999996
0
LINE
8
BLACK
6
CONTINUOUS
10
35.2632690000000011
20
-10.5904509999999998
11
35.363043999999995
21
-10.4985189999999999
0
LINE
8
BLACK
6
CONTINUOUS
10
35.1718879999999956
20
-10.6919139999999988
11
35.2632690000000011
21
-10.5904509999999998
0
LINE
8
BLACK
6
CONTINUOUS
10
35.0859699999999961
20
-10.7980419999999988
11
35.1718879999999956
21
-10.6919139999999988
0
LINE
8
BLACK
6
CONTINUOUS
10
35.010778000000002
20
-10.9109689999999997
11
35.0859699999999961
21
-10.7980419999999988
0
LINE
8
BLACK
6
CONTINUOUS
10
34.9410499999999971
20
-11.0285630000000001
11
35.010778000000002
21
-10.9109689999999997
0
LINE
8
BLACK
6
CONTINUOUS
10
34.881847999999998
20
-11.150423
11
34.9410499999999971
21
-11.0285630000000001
0
LINE
8
BLACK
6
CONTINUOUS
10
34.8304429999999954
20
-11.2742179999999994
11
34.881847999999998
21
-11.150423
0
LINE
8
BLACK
6
CONTINUOUS
10
34.7872309999999985
20
-11.4050119999999993
11
34.8304429999999954
21
-11.2742179999999994
0
LINE
8
BLACK
6
CONTINUOUS
10
34.7543480000000002
20
-11.5375399999999999
11
34.7872309999999985
21
-11.4050119999999993
0
LINE
8
BLACK
6
CONTINUOUS
10
34.7317929999999961
20
-11.6718039999999998
11
34.7543480000000002
21
-11.5375399999999999
0
LINE
8
BLACK
6
CONTINUOUS
10
34.7193660000000008
20
-11.8052700000000002
11
34.7317929999999961
21
-11.6718039999999998
0
LINE
8
BLACK
6
CONTINUOUS
10
34.7147349999999975
20
-11.940671
11
34.7193660000000008
21
-11.8052700000000002
0
LINE
8
BLACK
6
CONTINUOUS
10
34.7204319999999953
20
-12.077807
11
34.7147349999999975
21
-11.940671
0
LINE
8
BLACK
6
CONTINUOUS
10
36.065612999999999
20
-29.1699539999999971
11
34.7204319999999953
21
-12.077807
0
LINE
8
BLACK
6
CONTINUOUS
10
36.081438999999996
20
-29.3062930000000001
11
36.065612999999999
21
-29.1699539999999971
0
LINE
8
BLACK
6
CONTINUOUS
10
36.1071939999999998
20
-29.4393019999999979
11
36.081438999999996
21
-29.3062930000000001
0
LINE
8
BLACK
6
CONTINUOUS
10
36.1403469999999984
20
-29.5691810000000004
11
36.1071939999999998
21
-29.4393019999999979
0
LINE
8
BLACK
6
CONTINUOUS
10
36.1836279999999988
20
-29.6982639999999982
11
36.1403469999999984
21
-29.5691810000000004
0
LINE
8
BLACK
6
CONTINUOUS
10
36.2368379999999988
20
-29.8240160000000003
11
36.1836279999999988
21
-29.6982639999999982
0
LINE
8
BLACK
6
CONTINUOUS
10
36.2999779999999959
20
-29.9464399999999991
11
36.2368379999999988
21
-29.8240160000000003
0
LINE
8
BLACK
6
CONTINUOUS
10
36.3701170000000005
20
-30.0606689999999972
11
36.2999779999999959
21
-29.9464399999999991
0
LINE
8
BLACK
6
CONTINUOUS
10
36.4476529999999954
20
-30.1717680000000001
11
36.3701170000000005
21
-30.0606689999999972
0
LINE
8
BLACK
6
CONTINUOUS
10
36.5349179999999976
20
-30.2770060000000001
11
36.4476529999999954
21
-30.1717680000000001
0
LINE
8
BLACK
6
CONTINUOUS
10
36.6268499999999975
20
-30.3767800000000001
11
36.5349179999999976
21
-30.2770060000000001
0
LINE
8
BLACK
6
CONTINUOUS
10
36.728313
20
-30.4681609999999985
11
36.6268499999999975
21
-30.3767800000000001
0
LINE
8
BLACK
6
CONTINUOUS
10
36.8344409999999982
20
-30.554079999999999
11
36.728313
21
-30.4681609999999985
0
LINE
8
BLACK
6
CONTINUOUS
10
36.9473679999999973
20
-30.6292709999999992
11
36.8344409999999982
21
-30.554079999999999
0
LINE
8
BLACK
6
CONTINUOUS
10
37.0649620000000013
20
-30.6989999999999981
11
36.9473679999999973
21
-30.6292709999999992
0
LINE
8
BLACK
6
CONTINUOUS
10
37.1868219999999994
20
-30.7582009999999997
11
37.0649620000000013
21
-30.6989999999999981
0
LINE
8
BLACK
6
CONTINUOUS
10
37.3106170000000006
20
-30.8096069999999997
11
37.1868219999999994
21
-30.7582009999999997
0
LINE
8
BLACK
6
CONTINUOUS
10
37.4414109999999951
20
-30.8528179999999992
11
37.3106170000000006
21
-30.8096069999999997
0
LINE
8
BLACK
6
CONTINUOUS
10
37.5739389999999958
20
-30.8857019999999984
11
37.4414109999999951
21
-30.8528179999999992
0
LINE
8
BLACK
6
CONTINUOUS
10
37.7082029999999975
20
-30.908256999999999
11
37.5739389999999958
21
-30.8857019999999984
0
LINE
8
BLACK
6
CONTINUOUS
10
37.841668999999996
20
-30.9206830000000004
11
37.7082029999999975
21
-30.908256999999999
0
LINE
8
BLACK
6
CONTINUOUS
10
37.9770699999999977
20
-30.9253140000000002
11
37.841668999999996
21
-30.9206830000000004
0
LINE
8
BLACK
6
CONTINUOUS
10
38.1142059999999958
20
-30.9196169999999988
11
37.9770699999999977
21
-30.9253140000000002
0
LINE
8
BLACK
6
CONTINUOUS
10
52.0411409999999961
20
-29.8235439999999983
11
38.1142059999999958
21
-30.9196169999999988
0
LINE
8
BLACK
6
CONTINUOUS
10
52.1774789999999982
20
-29.8077179999999977
11
52.0411409999999961
21
-29.8235439999999983
0
LINE
8
BLACK
6
CONTINUOUS
10
52.3104889999999969
20
-29.7819629999999975
11
52.1774789999999982
21
-29.8077179999999977
0
LINE
8
BLACK
6
CONTINUOUS
10
52.4403679999999994
20
-29.7488099999999989
11
52.3104889999999969
21
-29.7819629999999975
0
LINE
8
BLACK
6
CONTINUOUS
10
52.5694499999999962
20
-29.7055289999999985
11
52.4403679999999994
21
-29.7488099999999989
0
LINE
8
BLACK
6
CONTINUOUS
10
52.6952029999999993
20
-29.6523189999999985
11
52.5694499999999962
21
-29.7055289999999985
0
LINE
8
BLACK
6
CONTINUOUS
10
52.8176259999999971
20
-29.5891789999999979
11
52.6952029999999993
21
-29.6523189999999985
0
LINE
8
BLACK
6
CONTINUOUS
10
52.9318549999999988
20
-29.5190400000000004
11
52.8176259999999971
21
-29.5891789999999979
0
LINE
8
BLACK
6
CONTINUOUS
10
53.0429549999999992
20
-29.4415049999999994
11
52.9318549999999988
21
-29.5190400000000004
0
LINE
8
BLACK
6
CONTINUOUS
10
53.1481919999999946
20
-29.3542389999999997
11
53.0429549999999992
21
-29.4415049999999994
0
LINE
8
BLACK
6
CONTINUOUS
10
53.2479669999999956
20
-29.2623069999999998
11
53.1481919999999946
21
-29.3542389999999997
0
LINE
8
BLACK
6
CONTINUOUS
10
53.3393480000000011
20
-29.1608449999999984
11
53.2479669999999956
21
-29.2623069999999998
0
LINE
8
BLACK
6
CONTINUOUS
10
53.4252660000000006
20
-29.0547159999999991
11
53.3393480000000011
21
-29.1608449999999984
0
LINE
8
BLACK
6
CONTINUOUS
10
53.5004579999999947
20
-28.941789
11
53.4252660000000006
21
-29.0547159999999991
0
LINE
8
BLACK
6
CONTINUOUS
10
53.5701859999999996
20
-28.8241949999999996
11
53.5004579999999947
21
-28.941789
0
LINE
8
BLACK
6
CONTINUOUS
10
53.6293879999999987
20
-28.7023349999999979
11
53.5701859999999996
21
-28.8241949999999996
0
LINE
8
BLACK
6
CONTINUOUS
10
53.6807929999999942
20
-28.5785400000000003
11
53.6293879999999987
21
-28.7023349999999979
0
LINE
8
BLACK
6
CONTINUOUS
10
53.7240049999999982
20
-28.4477469999999997
11
53.6807929999999942
21
-28.5785400000000003
0
LINE
8
BLACK
6
CONTINUOUS
10
53.7568879999999965
20
-28.315217999999998
11
53.7240049999999982
21
-28.4477469999999997
0
LINE
8
BLACK
6
CONTINUOUS
10
53.7794430000000006
20
-28.1809539999999998
11
53.7568879999999965
21
-28.315217999999998
0
LINE
8
BLACK
6
CONTINUOUS
10
53.7918699999999959
20
-28.0474879999999978
11
53.7794430000000006
21
-28.1809539999999998
0
LINE
8
BLACK
6
CONTINUOUS
10
53.7965009999999992
20
-27.9120869999999996
11
53.7918699999999959
21
-28.0474879999999978
0
LINE
8
BLACK
6
CONTINUOUS
10
53.7908039999999943
20
-27.774951999999999
11
53.7965009999999992
21
-27.9120869999999996
0
CIRCLE
8
BLACK
10
53.9154549999999944
20
-26.8096959999999989
40
0.6730999999999999
0
CIRCLE
8
BLACK
10
53.7161690000000007
20
-24.2775259999999982
40
0.6730999999999999
0
CIRCLE
8
BLACK
10
53.516883
20
-21.7453559999999975
40
0.6730999999999999
0
CIRCLE
8
BLACK
10
53.3175969999999992
20
-19.2131860000000003
40
0.6730999999999999
0
CIRCLE
8
BLACK
10
53.118310000000001
20
-16.6810159999999996
40
0.6730999999999999
0
CIRCLE
8
BLACK
10
52.9190240000000003
20
-14.1488459999999989
40
0.6730999999999999
0
CIRCLE
8
BLACK
10
52.7197379999999995
20
-11.616676
40
0.6730999999999999
0
CIRCLE
8
BLACK
10
34.5957809999999952
20
-13.043061999999999
40
0.6730999999999999
0
CIRCLE
8
BLACK
10
34.795066999999996
20
-15.5752319999999997
40
0.6730999999999999
0
CIRCLE
8
BLACK
10
34.9943529999999967
20
-18.1074020000000004
40
0.6730999999999999
0
CIRCLE
8
BLACK
10
35.1936389999999975
20
-20.6395719999999976
40
0.6730999999999999
0
CIRCLE
8
BLACK
10
35.3929259999999957
20
-23.1717419999999983
40
0.6730999999999999
0
CIRCLE
8
BLACK
10
35.5922119999999964
20
-25.703911999999999
40
0.6730999999999999
0
CIRCLE
8
BLACK
10
35.7914979999999971
20
-28.2360819999999997
40
0.6730999999999999
0
CIRCLE
8
BLACK
10
-54.3441890000000001
20
3.1615469999999997
40
1.4875969999999998
0
CIRCLE
8
BLACK
10
-54.343871
20
23.1615469999999988
40
1.4875969999999998
0
CIRCLE
8
BLACK
10
-15.6557309999999994
20
3.16168
40
1.4875959999999999
0
CIRCLE
8
BLACK
10
-15.6561759999999985
20
23.1616800000000005
40
1.4875959999999999
  0
ENDSEC
  0
EOF
