  0
SECTION
  2
HEADER
  9
$ANGBASE
  50
0.0
  9
$ANGDIR
  70
1
  9
$MEASUREMENT
  70
0
  0
ENDSEC
  0
SECTION
  2
TABLES
  0
TABLE
  2
LTYPE
  70
4
  0
LTYPE
  5
40F
  2
CONTINUOUS
  70
0
  3
Solid line
  72
65
  73
0
  40
0.0
  0
LTYPE
  5
410
  2
DASHDOT
 70
0
  3
Dash Dot ____ _ ____ _
 72
65
 73
4
 40
2.0
 49
1.25
 49
-0.25
 49
0.25
 49
-0.25
  0
LTYPE
  5
411
  2
DASHED
 70
0
  3
Dashed __ __ __ __ __
 72
65
 73
2
 40
0.75
 49
0.5
 49
-0.25
  0
LTYPE
  5
43B
  2
DOTTED
 70
0
  3
Dotted .  .  .  .
 72
65
 73
2
 40
0.2
 49
0.0
 49
-0.2
  0
ENDTAB
  0
TABLE
  2
STYLE
  70
4
  0
STYLE
  2
KICAD
  70
0
  40
0
  41
1
  42
1
  50
0
  71
0
  3
isocp.shx
  0
STYLE
  2
KICADB
  70
0
  40
0
  41
1
  42
1
  50
0
  71
0
  3
isocp.shx
  0
STYLE
  2
KICADI
  70
0
  40
0
  41
1
  42
1
  50
15
  71
0
  3
isocp.shx
  0
STYLE
  2
KICADBI
  70
0
  40
0
  41
1
  42
1
  50
15
  71
0
  3
isocp.shx
  0
ENDTAB
  0
TABLE
  2
LAYER
  70
1
  0
LAYER
  2
BLACK
  70
0
  62
7
  6
CONTINUOUS
  0
ENDTAB
  0
ENDSEC
  0
SECTION
  2
ENTITIES
0
LINE
8
BLACK
6
CONTINUOUS
10
3.301329212598425
20
-7.6189800787401571
11
3.2619591338582676
21
-7.6189800787401571
0
LINE
8
BLACK
6
CONTINUOUS
10
3.2619591338582676
20
-7.6189800787401571
11
3.2619591338582676
21
-7.5087438582677164
0
LINE
8
BLACK
6
CONTINUOUS
10
3.2619591338582676
20
-7.5087438582677164
11
3.301329212598425
21
-7.5087438582677164
0
LINE
8
BLACK
6
CONTINUOUS
10
3.301329212598425
20
-7.5087438582677164
11
3.301329212598425
21
-7.6189800787401571
0
LINE
8
BLACK
6
CONTINUOUS
10
3.6143213385826769
20
-7.6189800787401571
11
3.5749512598425195
21
-7.6189800787401571
0
LINE
8
BLACK
6
CONTINUOUS
10
3.5749512598425195
20
-7.6189800787401571
11
3.5749512598425195
21
-7.5087438582677164
0
LINE
8
BLACK
6
CONTINUOUS
10
3.5749512598425195
20
-7.5087438582677164
11
3.6143213385826769
21
-7.5087438582677164
0
LINE
8
BLACK
6
CONTINUOUS
10
3.6143213385826769
20
-7.5087438582677164
11
3.6143213385826769
21
-7.6189800787401571
0
LINE
8
BLACK
6
CONTINUOUS
10
4.351791496062992
20
-7.5280982283464564
11
4.3578523228346455
21
-7.5306087007874014
0
LINE
8
BLACK
6
CONTINUOUS
10
4.3578523228346455
20
-7.5306087007874014
11
4.3633069291338584
21
-7.5342533464566923
0
LINE
8
BLACK
6
CONTINUOUS
10
4.3633069291338584
20
-7.5342533464566923
11
4.3679457086614173
21
-7.5388921259842521
0
LINE
8
BLACK
6
CONTINUOUS
10
4.3679457086614173
20
-7.5388921259842521
11
4.3715903543307082
21
-7.5443467322834641
0
LINE
8
BLACK
6
CONTINUOUS
10
4.3715903543307082
20
-7.5443467322834641
11
4.3741008267716532
21
-7.5504075590551176
0
LINE
8
BLACK
6
CONTINUOUS
10
4.3741008267716532
20
-7.5504075590551176
11
4.3753806692913386
21
-7.5568416929133857
0
LINE
8
BLACK
6
CONTINUOUS
10
4.3753806692913386
20
-7.5568416929133857
11
4.3753806692913386
21
-7.5634019291338577
0
LINE
8
BLACK
6
CONTINUOUS
10
4.3753806692913386
20
-7.5634019291338577
11
4.3741008267716532
21
-7.5698360629921257
0
LINE
8
BLACK
6
CONTINUOUS
10
4.3741008267716532
20
-7.5698360629921257
11
4.3715903543307082
21
-7.5758968897637793
0
LINE
8
BLACK
6
CONTINUOUS
10
4.3715903543307082
20
-7.5758968897637793
11
4.3679457086614173
21
-7.5813514960629922
0
LINE
8
BLACK
6
CONTINUOUS
10
4.3679457086614173
20
-7.5813514960629922
11
4.3633069291338584
21
-7.5859902755905511
0
LINE
8
BLACK
6
CONTINUOUS
10
4.3633069291338584
20
-7.5859902755905511
11
4.3578523228346455
21
-7.589634921259842
0
LINE
8
BLACK
6
CONTINUOUS
10
4.3578523228346455
20
-7.589634921259842
11
4.351791496062992
21
-7.592145393700787
0
LINE
8
BLACK
6
CONTINUOUS
10
4.351791496062992
20
-7.592145393700787
11
4.3453573622047239
21
-7.5934252362204724
0
LINE
8
BLACK
6
CONTINUOUS
10
4.3453573622047239
20
-7.5934252362204724
11
4.3387971259842519
21
-7.5934252362204724
0
LINE
8
BLACK
6
CONTINUOUS
10
4.3387971259842519
20
-7.5934252362204724
11
4.3323629921259839
21
-7.592145393700787
0
LINE
8
BLACK
6
CONTINUOUS
10
4.3323629921259839
20
-7.592145393700787
11
4.3263021653543303
21
-7.589634921259842
0
LINE
8
BLACK
6
CONTINUOUS
10
4.3263021653543303
20
-7.589634921259842
11
4.3208475590551183
21
-7.5859902755905511
0
LINE
8
BLACK
6
CONTINUOUS
10
4.3208475590551183
20
-7.5859902755905511
11
4.3162087795275585
21
-7.5813514960629922
0
LINE
8
BLACK
6
CONTINUOUS
10
4.3162087795275585
20
-7.5813514960629922
11
4.3125641338582676
21
-7.5758968897637793
0
LINE
8
BLACK
6
CONTINUOUS
10
4.3125641338582676
20
-7.5758968897637793
11
4.3100536614173226
21
-7.5698360629921257
0
LINE
8
BLACK
6
CONTINUOUS
10
4.3100536614173226
20
-7.5698360629921257
11
4.3087738188976381
21
-7.5634019291338577
0
LINE
8
BLACK
6
CONTINUOUS
10
4.3087738188976381
20
-7.5634019291338577
11
4.3087738188976381
21
-7.5568416929133857
0
LINE
8
BLACK
6
CONTINUOUS
10
4.3087738188976381
20
-7.5568416929133857
11
4.3100536614173226
21
-7.5504075590551176
0
LINE
8
BLACK
6
CONTINUOUS
10
4.3100536614173226
20
-7.5504075590551176
11
4.3125641338582676
21
-7.5443467322834641
0
LINE
8
BLACK
6
CONTINUOUS
10
4.3125641338582676
20
-7.5443467322834641
11
4.3162087795275585
21
-7.5388921259842521
0
LINE
8
BLACK
6
CONTINUOUS
10
4.3162087795275585
20
-7.5388921259842521
11
4.3208475590551183
21
-7.5342533464566923
0
LINE
8
BLACK
6
CONTINUOUS
10
4.3208475590551183
20
-7.5342533464566923
11
4.3263021653543303
21
-7.5306087007874014
0
LINE
8
BLACK
6
CONTINUOUS
10
4.3263021653543303
20
-7.5306087007874014
11
4.3323629921259839
21
-7.5280982283464564
0
LINE
8
BLACK
6
CONTINUOUS
10
4.3323629921259839
20
-7.5280982283464564
11
4.3387971259842519
21
-7.5268183858267719
0
LINE
8
BLACK
6
CONTINUOUS
10
4.3387971259842519
20
-7.5268183858267719
11
4.3453573622047239
21
-7.5268183858267719
0
LINE
8
BLACK
6
CONTINUOUS
10
4.3453573622047239
20
-7.5268183858267719
11
4.351791496062992
21
-7.5280982283464564
0
LINE
8
BLACK
6
CONTINUOUS
10
4.4517914960629916
20
-7.5280982283464564
11
4.4578523228346452
21
-7.5306087007874014
0
LINE
8
BLACK
6
CONTINUOUS
10
4.4578523228346452
20
-7.5306087007874014
11
4.4633069291338581
21
-7.5342533464566923
0
LINE
8
BLACK
6
CONTINUOUS
10
4.4633069291338581
20
-7.5342533464566923
11
4.4679457086614169
21
-7.5388921259842521
0
LINE
8
BLACK
6
CONTINUOUS
10
4.4679457086614169
20
-7.5388921259842521
11
4.4715903543307087
21
-7.5443467322834641
0
LINE
8
BLACK
6
CONTINUOUS
10
4.4715903543307087
20
-7.5443467322834641
11
4.4741008267716538
21
-7.5504075590551176
0
LINE
8
BLACK
6
CONTINUOUS
10
4.4741008267716538
20
-7.5504075590551176
11
4.4753806692913383
21
-7.5568416929133857
0
LINE
8
BLACK
6
CONTINUOUS
10
4.4753806692913383
20
-7.5568416929133857
11
4.4753806692913383
21
-7.5634019291338577
0
LINE
8
BLACK
6
CONTINUOUS
10
4.4753806692913383
20
-7.5634019291338577
11
4.4741008267716538
21
-7.5698360629921257
0
LINE
8
BLACK
6
CONTINUOUS
10
4.4741008267716538
20
-7.5698360629921257
11
4.4715903543307087
21
-7.5758968897637793
0
LINE
8
BLACK
6
CONTINUOUS
10
4.4715903543307087
20
-7.5758968897637793
11
4.4679457086614169
21
-7.5813514960629922
0
LINE
8
BLACK
6
CONTINUOUS
10
4.4679457086614169
20
-7.5813514960629922
11
4.4633069291338581
21
-7.5859902755905511
0
LINE
8
BLACK
6
CONTINUOUS
10
4.4633069291338581
20
-7.5859902755905511
11
4.4578523228346452
21
-7.589634921259842
0
LINE
8
BLACK
6
CONTINUOUS
10
4.4578523228346452
20
-7.589634921259842
11
4.4517914960629916
21
-7.592145393700787
0
LINE
8
BLACK
6
CONTINUOUS
10
4.4517914960629916
20
-7.592145393700787
11
4.4453573622047244
21
-7.5934252362204724
0
LINE
8
BLACK
6
CONTINUOUS
10
4.4453573622047244
20
-7.5934252362204724
11
4.4387971259842516
21
-7.5934252362204724
0
LINE
8
BLACK
6
CONTINUOUS
10
4.4387971259842516
20
-7.5934252362204724
11
4.4323629921259844
21
-7.592145393700787
0
LINE
8
BLACK
6
CONTINUOUS
10
4.4323629921259844
20
-7.592145393700787
11
4.4263021653543309
21
-7.589634921259842
0
LINE
8
BLACK
6
CONTINUOUS
10
4.4263021653543309
20
-7.589634921259842
11
4.4208475590551179
21
-7.5859902755905511
0
LINE
8
BLACK
6
CONTINUOUS
10
4.4208475590551179
20
-7.5859902755905511
11
4.4162087795275591
21
-7.5813514960629922
0
LINE
8
BLACK
6
CONTINUOUS
10
4.4162087795275591
20
-7.5813514960629922
11
4.4125641338582673
21
-7.5758968897637793
0
LINE
8
BLACK
6
CONTINUOUS
10
4.4125641338582673
20
-7.5758968897637793
11
4.4100536614173231
21
-7.5698360629921257
0
LINE
8
BLACK
6
CONTINUOUS
10
4.4100536614173231
20
-7.5698360629921257
11
4.4087738188976378
21
-7.5634019291338577
0
LINE
8
BLACK
6
CONTINUOUS
10
4.4087738188976378
20
-7.5634019291338577
11
4.4087738188976378
21
-7.5568416929133857
0
LINE
8
BLACK
6
CONTINUOUS
10
4.4087738188976378
20
-7.5568416929133857
11
4.4100536614173231
21
-7.5504075590551176
0
LINE
8
BLACK
6
CONTINUOUS
10
4.4100536614173231
20
-7.5504075590551176
11
4.4125641338582673
21
-7.5443467322834641
0
LINE
8
BLACK
6
CONTINUOUS
10
4.4125641338582673
20
-7.5443467322834641
11
4.4162087795275591
21
-7.5388921259842521
0
LINE
8
BLACK
6
CONTINUOUS
10
4.4162087795275591
20
-7.5388921259842521
11
4.4208475590551179
21
-7.5342533464566923
0
LINE
8
BLACK
6
CONTINUOUS
10
4.4208475590551179
20
-7.5342533464566923
11
4.4263021653543309
21
-7.5306087007874014
0
LINE
8
BLACK
6
CONTINUOUS
10
4.4263021653543309
20
-7.5306087007874014
11
4.4323629921259844
21
-7.5280982283464564
0
LINE
8
BLACK
6
CONTINUOUS
10
4.4323629921259844
20
-7.5280982283464564
11
4.4387971259842516
21
-7.5268183858267719
0
LINE
8
BLACK
6
CONTINUOUS
10
4.4387971259842516
20
-7.5268183858267719
11
4.4453573622047244
21
-7.5268183858267719
0
LINE
8
BLACK
6
CONTINUOUS
10
4.4453573622047244
20
-7.5268183858267719
11
4.4517914960629916
21
-7.5280982283464564
0
LINE
8
BLACK
6
CONTINUOUS
10
4.1114190944881885
20
-7.4838590944881886
11
4.11666874015748
21
-7.4858171259842514
0
LINE
8
BLACK
6
CONTINUOUS
10
4.11666874015748
20
-7.4858171259842514
11
4.1211541338582673
21
-7.4891748425196845
0
LINE
8
BLACK
6
CONTINUOUS
10
4.1211541338582673
20
-7.4891748425196845
11
4.1245118503937004
21
-7.4936602362204718
0
LINE
8
BLACK
6
CONTINUOUS
10
4.1245118503937004
20
-7.4936602362204718
11
4.126469881889764
21
-7.4989098818897633
0
LINE
8
BLACK
6
CONTINUOUS
10
4.126469881889764
20
-7.4989098818897633
11
4.1269197637795276
21
-7.5030942519685038
0
LINE
8
BLACK
6
CONTINUOUS
10
4.1269197637795276
20
-7.5030942519685038
11
4.1269197637795276
21
-7.5424643307086612
0
LINE
8
BLACK
6
CONTINUOUS
10
4.1269197637795276
20
-7.5424643307086612
11
4.126469881889764
21
-7.5466487007874017
0
LINE
8
BLACK
6
CONTINUOUS
10
4.126469881889764
20
-7.5466487007874017
11
4.1245118503937004
21
-7.5518983464566931
0
LINE
8
BLACK
6
CONTINUOUS
10
4.1245118503937004
20
-7.5518983464566931
11
4.1211541338582673
21
-7.5563837401574805
0
LINE
8
BLACK
6
CONTINUOUS
10
4.1211541338582673
20
-7.5563837401574805
11
4.11666874015748
21
-7.5597414566929135
0
LINE
8
BLACK
6
CONTINUOUS
10
4.11666874015748
20
-7.5597414566929135
11
4.1114190944881885
21
-7.5616994881889763
0
LINE
8
BLACK
6
CONTINUOUS
10
4.1114190944881885
20
-7.5616994881889763
11
4.1072347244094489
21
-7.5621493700787399
0
LINE
8
BLACK
6
CONTINUOUS
10
4.1072347244094489
20
-7.5621493700787399
11
4.038337086614173
21
-7.5621493700787399
0
LINE
8
BLACK
6
CONTINUOUS
10
4.038337086614173
20
-7.5621493700787399
11
4.0341527165354334
21
-7.5616994881889763
0
LINE
8
BLACK
6
CONTINUOUS
10
4.0341527165354334
20
-7.5616994881889763
11
4.028903070866142
21
-7.5597414566929135
0
LINE
8
BLACK
6
CONTINUOUS
10
4.028903070866142
20
-7.5597414566929135
11
4.0244176771653546
21
-7.5563837401574805
0
LINE
8
BLACK
6
CONTINUOUS
10
4.0244176771653546
20
-7.5563837401574805
11
4.0210599606299215
21
-7.5518983464566931
0
LINE
8
BLACK
6
CONTINUOUS
10
4.0210599606299215
20
-7.5518983464566931
11
4.0191019291338579
21
-7.5466487007874017
0
LINE
8
BLACK
6
CONTINUOUS
10
4.0191019291338579
20
-7.5466487007874017
11
4.0186520472440943
21
-7.5424643307086612
0
LINE
8
BLACK
6
CONTINUOUS
10
4.0186520472440943
20
-7.5424643307086612
11
4.0186520472440943
21
-7.5030942519685038
0
LINE
8
BLACK
6
CONTINUOUS
10
4.0186520472440943
20
-7.5030942519685038
11
4.0191019291338579
21
-7.4989098818897633
0
LINE
8
BLACK
6
CONTINUOUS
10
4.0191019291338579
20
-7.4989098818897633
11
4.0210599606299215
21
-7.4936602362204718
0
LINE
8
BLACK
6
CONTINUOUS
10
4.0210599606299215
20
-7.4936602362204718
11
4.0244176771653546
21
-7.4891748425196845
0
LINE
8
BLACK
6
CONTINUOUS
10
4.0244176771653546
20
-7.4891748425196845
11
4.028903070866142
21
-7.4858171259842514
0
LINE
8
BLACK
6
CONTINUOUS
10
4.028903070866142
20
-7.4858171259842514
11
4.0341527165354334
21
-7.4838590944881886
0
LINE
8
BLACK
6
CONTINUOUS
10
4.0341527165354334
20
-7.4838590944881886
11
4.038337086614173
21
-7.4834092125984251
0
LINE
8
BLACK
6
CONTINUOUS
10
4.038337086614173
20
-7.4834092125984251
11
4.1072347244094489
21
-7.4834092125984251
0
LINE
8
BLACK
6
CONTINUOUS
10
4.1072347244094489
20
-7.4834092125984251
11
4.1114190944881885
21
-7.4838590944881886
0
LINE
8
BLACK
6
CONTINUOUS
10
4.7478364173228345
20
-7.4838590944881886
11
4.7530860629921259
21
-7.4858171259842514
0
LINE
8
BLACK
6
CONTINUOUS
10
4.7530860629921259
20
-7.4858171259842514
11
4.7575714566929133
21
-7.4891748425196845
0
LINE
8
BLACK
6
CONTINUOUS
10
4.7575714566929133
20
-7.4891748425196845
11
4.7609291732283463
21
-7.4936602362204718
0
LINE
8
BLACK
6
CONTINUOUS
10
4.7609291732283463
20
-7.4936602362204718
11
4.7628872047244091
21
-7.4989098818897633
0
LINE
8
BLACK
6
CONTINUOUS
10
4.7628872047244091
20
-7.4989098818897633
11
4.7633370866141735
21
-7.5030942519685038
0
LINE
8
BLACK
6
CONTINUOUS
10
4.7633370866141735
20
-7.5030942519685038
11
4.7633370866141735
21
-7.5424643307086612
0
LINE
8
BLACK
6
CONTINUOUS
10
4.7633370866141735
20
-7.5424643307086612
11
4.7628872047244091
21
-7.5466487007874017
0
LINE
8
BLACK
6
CONTINUOUS
10
4.7628872047244091
20
-7.5466487007874017
11
4.7609291732283463
21
-7.5518983464566931
0
LINE
8
BLACK
6
CONTINUOUS
10
4.7609291732283463
20
-7.5518983464566931
11
4.7575714566929133
21
-7.5563837401574805
0
LINE
8
BLACK
6
CONTINUOUS
10
4.7575714566929133
20
-7.5563837401574805
11
4.7530860629921259
21
-7.5597414566929135
0
LINE
8
BLACK
6
CONTINUOUS
10
4.7530860629921259
20
-7.5597414566929135
11
4.7478364173228345
21
-7.5616994881889763
0
LINE
8
BLACK
6
CONTINUOUS
10
4.7478364173228345
20
-7.5616994881889763
11
4.7436520472440939
21
-7.5621493700787399
0
LINE
8
BLACK
6
CONTINUOUS
10
4.7436520472440939
20
-7.5621493700787399
11
4.6747544094488189
21
-7.5621493700787399
0
LINE
8
BLACK
6
CONTINUOUS
10
4.6747544094488189
20
-7.5621493700787399
11
4.6705700393700784
21
-7.5616994881889763
0
LINE
8
BLACK
6
CONTINUOUS
10
4.6705700393700784
20
-7.5616994881889763
11
4.665320393700787
21
-7.5597414566929135
0
LINE
8
BLACK
6
CONTINUOUS
10
4.665320393700787
20
-7.5597414566929135
11
4.6608349999999996
21
-7.5563837401574805
0
LINE
8
BLACK
6
CONTINUOUS
10
4.6608349999999996
20
-7.5563837401574805
11
4.6574772834645666
21
-7.5518983464566931
0
LINE
8
BLACK
6
CONTINUOUS
10
4.6574772834645666
20
-7.5518983464566931
11
4.6555192519685038
21
-7.5466487007874017
0
LINE
8
BLACK
6
CONTINUOUS
10
4.6555192519685038
20
-7.5466487007874017
11
4.6550693700787402
21
-7.5424643307086612
0
LINE
8
BLACK
6
CONTINUOUS
10
4.6550693700787402
20
-7.5424643307086612
11
4.6550693700787402
21
-7.5030942519685038
0
LINE
8
BLACK
6
CONTINUOUS
10
4.6550693700787402
20
-7.5030942519685038
11
4.6555192519685038
21
-7.4989098818897633
0
LINE
8
BLACK
6
CONTINUOUS
10
4.6555192519685038
20
-7.4989098818897633
11
4.6574772834645666
21
-7.4936602362204718
0
LINE
8
BLACK
6
CONTINUOUS
10
4.6574772834645666
20
-7.4936602362204718
11
4.6608349999999996
21
-7.4891748425196845
0
LINE
8
BLACK
6
CONTINUOUS
10
4.6608349999999996
20
-7.4891748425196845
11
4.665320393700787
21
-7.4858171259842514
0
LINE
8
BLACK
6
CONTINUOUS
10
4.665320393700787
20
-7.4858171259842514
11
4.6705700393700784
21
-7.4838590944881886
0
LINE
8
BLACK
6
CONTINUOUS
10
4.6705700393700784
20
-7.4838590944881886
11
4.6747544094488189
21
-7.4834092125984251
0
LINE
8
BLACK
6
CONTINUOUS
10
4.6747544094488189
20
-7.4834092125984251
11
4.7436520472440939
21
-7.4834092125984251
0
LINE
8
BLACK
6
CONTINUOUS
10
4.7436520472440939
20
-7.4834092125984251
11
4.7478364173228345
21
-7.4838590944881886
0
LINE
8
BLACK
6
CONTINUOUS
10
3.3584158267716533
20
-7.5087438582677164
11
3.3308567716535431
21
-7.5087438582677164
0
LINE
8
BLACK
6
CONTINUOUS
10
3.3308567716535431
20
-7.5087438582677164
11
3.3308567716535431
21
-7.469373779527559
0
LINE
8
BLACK
6
CONTINUOUS
10
3.3308567716535431
20
-7.469373779527559
11
3.3584158267716533
21
-7.469373779527559
0
LINE
8
BLACK
6
CONTINUOUS
10
3.3584158267716533
20
-7.469373779527559
11
3.3584158267716533
21
-7.5087438582677164
0
LINE
8
BLACK
6
CONTINUOUS
10
3.476526062992126
20
-7.5087438582677164
11
3.4489670078740158
21
-7.5087438582677164
0
LINE
8
BLACK
6
CONTINUOUS
10
3.4489670078740158
20
-7.5087438582677164
11
3.4489670078740158
21
-7.469373779527559
0
LINE
8
BLACK
6
CONTINUOUS
10
3.4489670078740158
20
-7.469373779527559
11
3.476526062992126
21
-7.469373779527559
0
LINE
8
BLACK
6
CONTINUOUS
10
3.476526062992126
20
-7.469373779527559
11
3.476526062992126
21
-7.5087438582677164
0
LINE
8
BLACK
6
CONTINUOUS
10
3.5355811811023621
20
-7.5087438582677164
11
3.5080221259842519
21
-7.5087438582677164
0
LINE
8
BLACK
6
CONTINUOUS
10
3.5080221259842519
20
-7.5087438582677164
11
3.5080221259842519
21
-7.469373779527559
0
LINE
8
BLACK
6
CONTINUOUS
10
3.5080221259842519
20
-7.469373779527559
11
3.5355811811023621
21
-7.469373779527559
0
LINE
8
BLACK
6
CONTINUOUS
10
3.5355811811023621
20
-7.469373779527559
11
3.5355811811023621
21
-7.5087438582677164
0
LINE
8
BLACK
6
CONTINUOUS
10
4.351791496062992
20
-7.4280982283464567
11
4.3578523228346455
21
-7.4306087007874018
0
LINE
8
BLACK
6
CONTINUOUS
10
4.3578523228346455
20
-7.4306087007874018
11
4.3633069291338584
21
-7.4342533464566927
0
LINE
8
BLACK
6
CONTINUOUS
10
4.3633069291338584
20
-7.4342533464566927
11
4.3679457086614173
21
-7.4388921259842515
0
LINE
8
BLACK
6
CONTINUOUS
10
4.3679457086614173
20
-7.4388921259842515
11
4.3715903543307082
21
-7.4443467322834644
0
LINE
8
BLACK
6
CONTINUOUS
10
4.3715903543307082
20
-7.4443467322834644
11
4.3741008267716532
21
-7.450407559055118
0
LINE
8
BLACK
6
CONTINUOUS
10
4.3741008267716532
20
-7.450407559055118
11
4.3753806692913386
21
-7.4568416929133861
0
LINE
8
BLACK
6
CONTINUOUS
10
4.3753806692913386
20
-7.4568416929133861
11
4.3753806692913386
21
-7.463401929133858
0
LINE
8
BLACK
6
CONTINUOUS
10
4.3753806692913386
20
-7.463401929133858
11
4.3741008267716532
21
-7.4698360629921261
0
LINE
8
BLACK
6
CONTINUOUS
10
4.3741008267716532
20
-7.4698360629921261
11
4.3715903543307082
21
-7.4758968897637796
0
LINE
8
BLACK
6
CONTINUOUS
10
4.3715903543307082
20
-7.4758968897637796
11
4.3679457086614173
21
-7.4813514960629917
0
LINE
8
BLACK
6
CONTINUOUS
10
4.3679457086614173
20
-7.4813514960629917
11
4.3633069291338584
21
-7.4859902755905514
0
LINE
8
BLACK
6
CONTINUOUS
10
4.3633069291338584
20
-7.4859902755905514
11
4.3578523228346455
21
-7.4896349212598423
0
LINE
8
BLACK
6
CONTINUOUS
10
4.3578523228346455
20
-7.4896349212598423
11
4.351791496062992
21
-7.4921453937007874
0
LINE
8
BLACK
6
CONTINUOUS
10
4.351791496062992
20
-7.4921453937007874
11
4.3453573622047239
21
-7.4934252362204719
0
LINE
8
BLACK
6
CONTINUOUS
10
4.3453573622047239
20
-7.4934252362204719
11
4.3387971259842519
21
-7.4934252362204719
0
LINE
8
BLACK
6
CONTINUOUS
10
4.3387971259842519
20
-7.4934252362204719
11
4.3323629921259839
21
-7.4921453937007874
0
LINE
8
BLACK
6
CONTINUOUS
10
4.3323629921259839
20
-7.4921453937007874
11
4.3263021653543303
21
-7.4896349212598423
0
LINE
8
BLACK
6
CONTINUOUS
10
4.3263021653543303
20
-7.4896349212598423
11
4.3208475590551183
21
-7.4859902755905514
0
LINE
8
BLACK
6
CONTINUOUS
10
4.3208475590551183
20
-7.4859902755905514
11
4.3162087795275585
21
-7.4813514960629917
0
LINE
8
BLACK
6
CONTINUOUS
10
4.3162087795275585
20
-7.4813514960629917
11
4.3125641338582676
21
-7.4758968897637796
0
LINE
8
BLACK
6
CONTINUOUS
10
4.3125641338582676
20
-7.4758968897637796
11
4.3100536614173226
21
-7.4698360629921261
0
LINE
8
BLACK
6
CONTINUOUS
10
4.3100536614173226
20
-7.4698360629921261
11
4.3087738188976381
21
-7.463401929133858
0
LINE
8
BLACK
6
CONTINUOUS
10
4.3087738188976381
20
-7.463401929133858
11
4.3087738188976381
21
-7.4568416929133861
0
LINE
8
BLACK
6
CONTINUOUS
10
4.3087738188976381
20
-7.4568416929133861
11
4.3100536614173226
21
-7.450407559055118
0
LINE
8
BLACK
6
CONTINUOUS
10
4.3100536614173226
20
-7.450407559055118
11
4.3125641338582676
21
-7.4443467322834644
0
LINE
8
BLACK
6
CONTINUOUS
10
4.3125641338582676
20
-7.4443467322834644
11
4.3162087795275585
21
-7.4388921259842515
0
LINE
8
BLACK
6
CONTINUOUS
10
4.3162087795275585
20
-7.4388921259842515
11
4.3208475590551183
21
-7.4342533464566927
0
LINE
8
BLACK
6
CONTINUOUS
10
4.3208475590551183
20
-7.4342533464566927
11
4.3263021653543303
21
-7.4306087007874018
0
LINE
8
BLACK
6
CONTINUOUS
10
4.3263021653543303
20
-7.4306087007874018
11
4.3323629921259839
21
-7.4280982283464567
0
LINE
8
BLACK
6
CONTINUOUS
10
4.3323629921259839
20
-7.4280982283464567
11
4.3387971259842519
21
-7.4268183858267713
0
LINE
8
BLACK
6
CONTINUOUS
10
4.3387971259842519
20
-7.4268183858267713
11
4.3453573622047239
21
-7.4268183858267713
0
LINE
8
BLACK
6
CONTINUOUS
10
4.3453573622047239
20
-7.4268183858267713
11
4.351791496062992
21
-7.4280982283464567
0
LINE
8
BLACK
6
CONTINUOUS
10
4.4517914960629916
20
-7.4280982283464567
11
4.4578523228346452
21
-7.4306087007874018
0
LINE
8
BLACK
6
CONTINUOUS
10
4.4578523228346452
20
-7.4306087007874018
11
4.4633069291338581
21
-7.4342533464566927
0
LINE
8
BLACK
6
CONTINUOUS
10
4.4633069291338581
20
-7.4342533464566927
11
4.4679457086614169
21
-7.4388921259842515
0
LINE
8
BLACK
6
CONTINUOUS
10
4.4679457086614169
20
-7.4388921259842515
11
4.4715903543307087
21
-7.4443467322834644
0
LINE
8
BLACK
6
CONTINUOUS
10
4.4715903543307087
20
-7.4443467322834644
11
4.4741008267716538
21
-7.450407559055118
0
LINE
8
BLACK
6
CONTINUOUS
10
4.4741008267716538
20
-7.450407559055118
11
4.4753806692913383
21
-7.4568416929133861
0
LINE
8
BLACK
6
CONTINUOUS
10
4.4753806692913383
20
-7.4568416929133861
11
4.4753806692913383
21
-7.463401929133858
0
LINE
8
BLACK
6
CONTINUOUS
10
4.4753806692913383
20
-7.463401929133858
11
4.4741008267716538
21
-7.4698360629921261
0
LINE
8
BLACK
6
CONTINUOUS
10
4.4741008267716538
20
-7.4698360629921261
11
4.4715903543307087
21
-7.4758968897637796
0
LINE
8
BLACK
6
CONTINUOUS
10
4.4715903543307087
20
-7.4758968897637796
11
4.4679457086614169
21
-7.4813514960629917
0
LINE
8
BLACK
6
CONTINUOUS
10
4.4679457086614169
20
-7.4813514960629917
11
4.4633069291338581
21
-7.4859902755905514
0
LINE
8
BLACK
6
CONTINUOUS
10
4.4633069291338581
20
-7.4859902755905514
11
4.4578523228346452
21
-7.4896349212598423
0
LINE
8
BLACK
6
CONTINUOUS
10
4.4578523228346452
20
-7.4896349212598423
11
4.4517914960629916
21
-7.4921453937007874
0
LINE
8
BLACK
6
CONTINUOUS
10
4.4517914960629916
20
-7.4921453937007874
11
4.4453573622047244
21
-7.4934252362204719
0
LINE
8
BLACK
6
CONTINUOUS
10
4.4453573622047244
20
-7.4934252362204719
11
4.4387971259842516
21
-7.4934252362204719
0
LINE
8
BLACK
6
CONTINUOUS
10
4.4387971259842516
20
-7.4934252362204719
11
4.4323629921259844
21
-7.4921453937007874
0
LINE
8
BLACK
6
CONTINUOUS
10
4.4323629921259844
20
-7.4921453937007874
11
4.4263021653543309
21
-7.4896349212598423
0
LINE
8
BLACK
6
CONTINUOUS
10
4.4263021653543309
20
-7.4896349212598423
11
4.4208475590551179
21
-7.4859902755905514
0
LINE
8
BLACK
6
CONTINUOUS
10
4.4208475590551179
20
-7.4859902755905514
11
4.4162087795275591
21
-7.4813514960629917
0
LINE
8
BLACK
6
CONTINUOUS
10
4.4162087795275591
20
-7.4813514960629917
11
4.4125641338582673
21
-7.4758968897637796
0
LINE
8
BLACK
6
CONTINUOUS
10
4.4125641338582673
20
-7.4758968897637796
11
4.4100536614173231
21
-7.4698360629921261
0
LINE
8
BLACK
6
CONTINUOUS
10
4.4100536614173231
20
-7.4698360629921261
11
4.4087738188976378
21
-7.463401929133858
0
LINE
8
BLACK
6
CONTINUOUS
10
4.4087738188976378
20
-7.463401929133858
11
4.4087738188976378
21
-7.4568416929133861
0
LINE
8
BLACK
6
CONTINUOUS
10
4.4087738188976378
20
-7.4568416929133861
11
4.4100536614173231
21
-7.450407559055118
0
LINE
8
BLACK
6
CONTINUOUS
10
4.4100536614173231
20
-7.450407559055118
11
4.4125641338582673
21
-7.4443467322834644
0
LINE
8
BLACK
6
CONTINUOUS
10
4.4125641338582673
20
-7.4443467322834644
11
4.4162087795275591
21
-7.4388921259842515
0
LINE
8
BLACK
6
CONTINUOUS
10
4.4162087795275591
20
-7.4388921259842515
11
4.4208475590551179
21
-7.4342533464566927
0
LINE
8
BLACK
6
CONTINUOUS
10
4.4208475590551179
20
-7.4342533464566927
11
4.4263021653543309
21
-7.4306087007874018
0
LINE
8
BLACK
6
CONTINUOUS
10
4.4263021653543309
20
-7.4306087007874018
11
4.4323629921259844
21
-7.4280982283464567
0
LINE
8
BLACK
6
CONTINUOUS
10
4.4323629921259844
20
-7.4280982283464567
11
4.4387971259842516
21
-7.4268183858267713
0
LINE
8
BLACK
6
CONTINUOUS
10
4.4387971259842516
20
-7.4268183858267713
11
4.4453573622047244
21
-7.4268183858267713
0
LINE
8
BLACK
6
CONTINUOUS
10
4.4453573622047244
20
-7.4268183858267713
11
4.4517914960629916
21
-7.4280982283464567
0
LINE
8
BLACK
6
CONTINUOUS
10
4.1114190944881885
20
-7.383859094488189
11
4.11666874015748
21
-7.3858171259842518
0
LINE
8
BLACK
6
CONTINUOUS
10
4.11666874015748
20
-7.3858171259842518
11
4.1211541338582673
21
-7.3891748425196848
0
LINE
8
BLACK
6
CONTINUOUS
10
4.1211541338582673
20
-7.3891748425196848
11
4.1245118503937004
21
-7.3936602362204722
0
LINE
8
BLACK
6
CONTINUOUS
10
4.1245118503937004
20
-7.3936602362204722
11
4.126469881889764
21
-7.3989098818897636
0
LINE
8
BLACK
6
CONTINUOUS
10
4.126469881889764
20
-7.3989098818897636
11
4.1269197637795276
21
-7.4030942519685041
0
LINE
8
BLACK
6
CONTINUOUS
10
4.1269197637795276
20
-7.4030942519685041
11
4.1269197637795276
21
-7.4424643307086615
0
LINE
8
BLACK
6
CONTINUOUS
10
4.1269197637795276
20
-7.4424643307086615
11
4.126469881889764
21
-7.4466487007874012
0
LINE
8
BLACK
6
CONTINUOUS
10
4.126469881889764
20
-7.4466487007874012
11
4.1245118503937004
21
-7.4518983464566926
0
LINE
8
BLACK
6
CONTINUOUS
10
4.1245118503937004
20
-7.4518983464566926
11
4.1211541338582673
21
-7.45638374015748
0
LINE
8
BLACK
6
CONTINUOUS
10
4.1211541338582673
20
-7.45638374015748
11
4.11666874015748
21
-7.459741456692913
0
LINE
8
BLACK
6
CONTINUOUS
10
4.11666874015748
20
-7.459741456692913
11
4.1114190944881885
21
-7.4616994881889758
0
LINE
8
BLACK
6
CONTINUOUS
10
4.1114190944881885
20
-7.4616994881889758
11
4.1072347244094489
21
-7.4621493700787402
0
LINE
8
BLACK
6
CONTINUOUS
10
4.1072347244094489
20
-7.4621493700787402
11
4.038337086614173
21
-7.4621493700787402
0
LINE
8
BLACK
6
CONTINUOUS
10
4.038337086614173
20
-7.4621493700787402
11
4.0341527165354334
21
-7.4616994881889758
0
LINE
8
BLACK
6
CONTINUOUS
10
4.0341527165354334
20
-7.4616994881889758
11
4.028903070866142
21
-7.459741456692913
0
LINE
8
BLACK
6
CONTINUOUS
10
4.028903070866142
20
-7.459741456692913
11
4.0244176771653546
21
-7.45638374015748
0
LINE
8
BLACK
6
CONTINUOUS
10
4.0244176771653546
20
-7.45638374015748
11
4.0210599606299215
21
-7.4518983464566926
0
LINE
8
BLACK
6
CONTINUOUS
10
4.0210599606299215
20
-7.4518983464566926
11
4.0191019291338579
21
-7.4466487007874012
0
LINE
8
BLACK
6
CONTINUOUS
10
4.0191019291338579
20
-7.4466487007874012
11
4.0186520472440943
21
-7.4424643307086615
0
LINE
8
BLACK
6
CONTINUOUS
10
4.0186520472440943
20
-7.4424643307086615
11
4.0186520472440943
21
-7.4030942519685041
0
LINE
8
BLACK
6
CONTINUOUS
10
4.0186520472440943
20
-7.4030942519685041
11
4.0191019291338579
21
-7.3989098818897636
0
LINE
8
BLACK
6
CONTINUOUS
10
4.0191019291338579
20
-7.3989098818897636
11
4.0210599606299215
21
-7.3936602362204722
0
LINE
8
BLACK
6
CONTINUOUS
10
4.0210599606299215
20
-7.3936602362204722
11
4.0244176771653546
21
-7.3891748425196848
0
LINE
8
BLACK
6
CONTINUOUS
10
4.0244176771653546
20
-7.3891748425196848
11
4.028903070866142
21
-7.3858171259842518
0
LINE
8
BLACK
6
CONTINUOUS
10
4.028903070866142
20
-7.3858171259842518
11
4.0341527165354334
21
-7.383859094488189
0
LINE
8
BLACK
6
CONTINUOUS
10
4.0341527165354334
20
-7.383859094488189
11
4.038337086614173
21
-7.3834092125984254
0
LINE
8
BLACK
6
CONTINUOUS
10
4.038337086614173
20
-7.3834092125984254
11
4.1072347244094489
21
-7.3834092125984254
0
LINE
8
BLACK
6
CONTINUOUS
10
4.1072347244094489
20
-7.3834092125984254
11
4.1114190944881885
21
-7.383859094488189
0
LINE
8
BLACK
6
CONTINUOUS
10
4.7478364173228345
20
-7.383859094488189
11
4.7530860629921259
21
-7.3858171259842518
0
LINE
8
BLACK
6
CONTINUOUS
10
4.7530860629921259
20
-7.3858171259842518
11
4.7575714566929133
21
-7.3891748425196848
0
LINE
8
BLACK
6
CONTINUOUS
10
4.7575714566929133
20
-7.3891748425196848
11
4.7609291732283463
21
-7.3936602362204722
0
LINE
8
BLACK
6
CONTINUOUS
10
4.7609291732283463
20
-7.3936602362204722
11
4.7628872047244091
21
-7.3989098818897636
0
LINE
8
BLACK
6
CONTINUOUS
10
4.7628872047244091
20
-7.3989098818897636
11
4.7633370866141735
21
-7.4030942519685041
0
LINE
8
BLACK
6
CONTINUOUS
10
4.7633370866141735
20
-7.4030942519685041
11
4.7633370866141735
21
-7.4424643307086615
0
LINE
8
BLACK
6
CONTINUOUS
10
4.7633370866141735
20
-7.4424643307086615
11
4.7628872047244091
21
-7.4466487007874012
0
LINE
8
BLACK
6
CONTINUOUS
10
4.7628872047244091
20
-7.4466487007874012
11
4.7609291732283463
21
-7.4518983464566926
0
LINE
8
BLACK
6
CONTINUOUS
10
4.7609291732283463
20
-7.4518983464566926
11
4.7575714566929133
21
-7.45638374015748
0
LINE
8
BLACK
6
CONTINUOUS
10
4.7575714566929133
20
-7.45638374015748
11
4.7530860629921259
21
-7.459741456692913
0
LINE
8
BLACK
6
CONTINUOUS
10
4.7530860629921259
20
-7.459741456692913
11
4.7478364173228345
21
-7.4616994881889758
0
LINE
8
BLACK
6
CONTINUOUS
10
4.7478364173228345
20
-7.4616994881889758
11
4.7436520472440939
21
-7.4621493700787402
0
LINE
8
BLACK
6
CONTINUOUS
10
4.7436520472440939
20
-7.4621493700787402
11
4.6747544094488189
21
-7.4621493700787402
0
LINE
8
BLACK
6
CONTINUOUS
10
4.6747544094488189
20
-7.4621493700787402
11
4.6705700393700784
21
-7.4616994881889758
0
LINE
8
BLACK
6
CONTINUOUS
10
4.6705700393700784
20
-7.4616994881889758
11
4.665320393700787
21
-7.459741456692913
0
LINE
8
BLACK
6
CONTINUOUS
10
4.665320393700787
20
-7.459741456692913
11
4.6608349999999996
21
-7.45638374015748
0
LINE
8
BLACK
6
CONTINUOUS
10
4.6608349999999996
20
-7.45638374015748
11
4.6574772834645666
21
-7.4518983464566926
0
LINE
8
BLACK
6
CONTINUOUS
10
4.6574772834645666
20
-7.4518983464566926
11
4.6555192519685038
21
-7.4466487007874012
0
LINE
8
BLACK
6
CONTINUOUS
10
4.6555192519685038
20
-7.4466487007874012
11
4.6550693700787402
21
-7.4424643307086615
0
LINE
8
BLACK
6
CONTINUOUS
10
4.6550693700787402
20
-7.4424643307086615
11
4.6550693700787402
21
-7.4030942519685041
0
LINE
8
BLACK
6
CONTINUOUS
10
4.6550693700787402
20
-7.4030942519685041
11
4.6555192519685038
21
-7.3989098818897636
0
LINE
8
BLACK
6
CONTINUOUS
10
4.6555192519685038
20
-7.3989098818897636
11
4.6574772834645666
21
-7.3936602362204722
0
LINE
8
BLACK
6
CONTINUOUS
10
4.6574772834645666
20
-7.3936602362204722
11
4.6608349999999996
21
-7.3891748425196848
0
LINE
8
BLACK
6
CONTINUOUS
10
4.6608349999999996
20
-7.3891748425196848
11
4.665320393700787
21
-7.3858171259842518
0
LINE
8
BLACK
6
CONTINUOUS
10
4.665320393700787
20
-7.3858171259842518
11
4.6705700393700784
21
-7.383859094488189
0
LINE
8
BLACK
6
CONTINUOUS
10
4.6705700393700784
20
-7.383859094488189
11
4.6747544094488189
21
-7.3834092125984254
0
LINE
8
BLACK
6
CONTINUOUS
10
4.6747544094488189
20
-7.3834092125984254
11
4.7436520472440939
21
-7.3834092125984254
0
LINE
8
BLACK
6
CONTINUOUS
10
4.7436520472440939
20
-7.3834092125984254
11
4.7478364173228345
21
-7.383859094488189
0
LINE
8
BLACK
6
CONTINUOUS
10
4.1114190944881885
20
-7.2838590944881885
11
4.11666874015748
21
-7.2858171259842521
0
LINE
8
BLACK
6
CONTINUOUS
10
4.11666874015748
20
-7.2858171259842521
11
4.1211541338582673
21
-7.2891748425196852
0
LINE
8
BLACK
6
CONTINUOUS
10
4.1211541338582673
20
-7.2891748425196852
11
4.1245118503937004
21
-7.2936602362204725
0
LINE
8
BLACK
6
CONTINUOUS
10
4.1245118503937004
20
-7.2936602362204725
11
4.126469881889764
21
-7.298909881889764
0
LINE
8
BLACK
6
CONTINUOUS
10
4.126469881889764
20
-7.298909881889764
11
4.1269197637795276
21
-7.3030942519685036
0
LINE
8
BLACK
6
CONTINUOUS
10
4.1269197637795276
20
-7.3030942519685036
11
4.1269197637795276
21
-7.342464330708661
0
LINE
8
BLACK
6
CONTINUOUS
10
4.1269197637795276
20
-7.342464330708661
11
4.126469881889764
21
-7.3466487007874015
0
LINE
8
BLACK
6
CONTINUOUS
10
4.126469881889764
20
-7.3466487007874015
11
4.1245118503937004
21
-7.3518983464566929
0
LINE
8
BLACK
6
CONTINUOUS
10
4.1245118503937004
20
-7.3518983464566929
11
4.1211541338582673
21
-7.3563837401574803
0
LINE
8
BLACK
6
CONTINUOUS
10
4.1211541338582673
20
-7.3563837401574803
11
4.11666874015748
21
-7.3597414566929134
0
LINE
8
BLACK
6
CONTINUOUS
10
4.11666874015748
20
-7.3597414566929134
11
4.1114190944881885
21
-7.3616994881889761
0
LINE
8
BLACK
6
CONTINUOUS
10
4.1114190944881885
20
-7.3616994881889761
11
4.1072347244094489
21
-7.3621493700787397
0
LINE
8
BLACK
6
CONTINUOUS
10
4.1072347244094489
20
-7.3621493700787397
11
4.038337086614173
21
-7.3621493700787397
0
LINE
8
BLACK
6
CONTINUOUS
10
4.038337086614173
20
-7.3621493700787397
11
4.0341527165354334
21
-7.3616994881889761
0
LINE
8
BLACK
6
CONTINUOUS
10
4.0341527165354334
20
-7.3616994881889761
11
4.028903070866142
21
-7.3597414566929134
0
LINE
8
BLACK
6
CONTINUOUS
10
4.028903070866142
20
-7.3597414566929134
11
4.0244176771653546
21
-7.3563837401574803
0
LINE
8
BLACK
6
CONTINUOUS
10
4.0244176771653546
20
-7.3563837401574803
11
4.0210599606299215
21
-7.3518983464566929
0
LINE
8
BLACK
6
CONTINUOUS
10
4.0210599606299215
20
-7.3518983464566929
11
4.0191019291338579
21
-7.3466487007874015
0
LINE
8
BLACK
6
CONTINUOUS
10
4.0191019291338579
20
-7.3466487007874015
11
4.0186520472440943
21
-7.342464330708661
0
LINE
8
BLACK
6
CONTINUOUS
10
4.0186520472440943
20
-7.342464330708661
11
4.0186520472440943
21
-7.3030942519685036
0
LINE
8
BLACK
6
CONTINUOUS
10
4.0186520472440943
20
-7.3030942519685036
11
4.0191019291338579
21
-7.298909881889764
0
LINE
8
BLACK
6
CONTINUOUS
10
4.0191019291338579
20
-7.298909881889764
11
4.0210599606299215
21
-7.2936602362204725
0
LINE
8
BLACK
6
CONTINUOUS
10
4.0210599606299215
20
-7.2936602362204725
11
4.0244176771653546
21
-7.2891748425196852
0
LINE
8
BLACK
6
CONTINUOUS
10
4.0244176771653546
20
-7.2891748425196852
11
4.028903070866142
21
-7.2858171259842521
0
LINE
8
BLACK
6
CONTINUOUS
10
4.028903070866142
20
-7.2858171259842521
11
4.0341527165354334
21
-7.2838590944881885
0
LINE
8
BLACK
6
CONTINUOUS
10
4.0341527165354334
20
-7.2838590944881885
11
4.038337086614173
21
-7.2834092125984249
0
LINE
8
BLACK
6
CONTINUOUS
10
4.038337086614173
20
-7.2834092125984249
11
4.1072347244094489
21
-7.2834092125984249
0
LINE
8
BLACK
6
CONTINUOUS
10
4.1072347244094489
20
-7.2834092125984249
11
4.1114190944881885
21
-7.2838590944881885
0
LINE
8
BLACK
6
CONTINUOUS
10
4.7478364173228345
20
-7.2838590944881885
11
4.7530860629921259
21
-7.2858171259842521
0
LINE
8
BLACK
6
CONTINUOUS
10
4.7530860629921259
20
-7.2858171259842521
11
4.7575714566929133
21
-7.2891748425196852
0
LINE
8
BLACK
6
CONTINUOUS
10
4.7575714566929133
20
-7.2891748425196852
11
4.7609291732283463
21
-7.2936602362204725
0
LINE
8
BLACK
6
CONTINUOUS
10
4.7609291732283463
20
-7.2936602362204725
11
4.7628872047244091
21
-7.298909881889764
0
LINE
8
BLACK
6
CONTINUOUS
10
4.7628872047244091
20
-7.298909881889764
11
4.7633370866141735
21
-7.3030942519685036
0
LINE
8
BLACK
6
CONTINUOUS
10
4.7633370866141735
20
-7.3030942519685036
11
4.7633370866141735
21
-7.342464330708661
0
LINE
8
BLACK
6
CONTINUOUS
10
4.7633370866141735
20
-7.342464330708661
11
4.7628872047244091
21
-7.3466487007874015
0
LINE
8
BLACK
6
CONTINUOUS
10
4.7628872047244091
20
-7.3466487007874015
11
4.7609291732283463
21
-7.3518983464566929
0
LINE
8
BLACK
6
CONTINUOUS
10
4.7609291732283463
20
-7.3518983464566929
11
4.7575714566929133
21
-7.3563837401574803
0
LINE
8
BLACK
6
CONTINUOUS
10
4.7575714566929133
20
-7.3563837401574803
11
4.7530860629921259
21
-7.3597414566929134
0
LINE
8
BLACK
6
CONTINUOUS
10
4.7530860629921259
20
-7.3597414566929134
11
4.7478364173228345
21
-7.3616994881889761
0
LINE
8
BLACK
6
CONTINUOUS
10
4.7478364173228345
20
-7.3616994881889761
11
4.7436520472440939
21
-7.3621493700787397
0
LINE
8
BLACK
6
CONTINUOUS
10
4.7436520472440939
20
-7.3621493700787397
11
4.6747544094488189
21
-7.3621493700787397
0
LINE
8
BLACK
6
CONTINUOUS
10
4.6747544094488189
20
-7.3621493700787397
11
4.6705700393700784
21
-7.3616994881889761
0
LINE
8
BLACK
6
CONTINUOUS
10
4.6705700393700784
20
-7.3616994881889761
11
4.665320393700787
21
-7.3597414566929134
0
LINE
8
BLACK
6
CONTINUOUS
10
4.665320393700787
20
-7.3597414566929134
11
4.6608349999999996
21
-7.3563837401574803
0
LINE
8
BLACK
6
CONTINUOUS
10
4.6608349999999996
20
-7.3563837401574803
11
4.6574772834645666
21
-7.3518983464566929
0
LINE
8
BLACK
6
CONTINUOUS
10
4.6574772834645666
20
-7.3518983464566929
11
4.6555192519685038
21
-7.3466487007874015
0
LINE
8
BLACK
6
CONTINUOUS
10
4.6555192519685038
20
-7.3466487007874015
11
4.6550693700787402
21
-7.342464330708661
0
LINE
8
BLACK
6
CONTINUOUS
10
4.6550693700787402
20
-7.342464330708661
11
4.6550693700787402
21
-7.3030942519685036
0
LINE
8
BLACK
6
CONTINUOUS
10
4.6550693700787402
20
-7.3030942519685036
11
4.6555192519685038
21
-7.298909881889764
0
LINE
8
BLACK
6
CONTINUOUS
10
4.6555192519685038
20
-7.298909881889764
11
4.6574772834645666
21
-7.2936602362204725
0
LINE
8
BLACK
6
CONTINUOUS
10
4.6574772834645666
20
-7.2936602362204725
11
4.6608349999999996
21
-7.2891748425196852
0
LINE
8
BLACK
6
CONTINUOUS
10
4.6608349999999996
20
-7.2891748425196852
11
4.665320393700787
21
-7.2858171259842521
0
LINE
8
BLACK
6
CONTINUOUS
10
4.665320393700787
20
-7.2858171259842521
11
4.6705700393700784
21
-7.2838590944881885
0
LINE
8
BLACK
6
CONTINUOUS
10
4.6705700393700784
20
-7.2838590944881885
11
4.6747544094488189
21
-7.2834092125984249
0
LINE
8
BLACK
6
CONTINUOUS
10
4.6747544094488189
20
-7.2834092125984249
11
4.7436520472440939
21
-7.2834092125984249
0
LINE
8
BLACK
6
CONTINUOUS
10
4.7436520472440939
20
-7.2834092125984249
11
4.7478364173228345
21
-7.2838590944881885
0
LINE
8
BLACK
6
CONTINUOUS
10
4.6096062992125981
20
-7.2892924015748033
11
4.6131187401574802
21
-7.2916393700787401
0
LINE
8
BLACK
6
CONTINUOUS
10
4.6131187401574802
20
-7.2916393700787401
11
4.615465708661417
21
-7.2951518110236222
0
LINE
8
BLACK
6
CONTINUOUS
10
4.615465708661417
20
-7.2951518110236222
11
4.6162898425196852
21
-7.2992950393700786
0
LINE
8
BLACK
6
CONTINUOUS
10
4.6162898425196852
20
-7.2992950393700786
11
4.6162898425196852
21
-7.3209485826771648
0
LINE
8
BLACK
6
CONTINUOUS
10
4.6162898425196852
20
-7.3209485826771648
11
4.615465708661417
21
-7.3250918110236221
0
LINE
8
BLACK
6
CONTINUOUS
10
4.615465708661417
20
-7.3250918110236221
11
4.6131187401574802
21
-7.3286042519685042
0
LINE
8
BLACK
6
CONTINUOUS
10
4.6131187401574802
20
-7.3286042519685042
11
4.6096062992125981
21
-7.330951220472441
0
LINE
8
BLACK
6
CONTINUOUS
10
4.6096062992125981
20
-7.330951220472441
11
4.6054630708661417
21
-7.3317753543307083
0
LINE
8
BLACK
6
CONTINUOUS
10
4.6054630708661417
20
-7.3317753543307083
11
4.5286914173228343
21
-7.3317753543307083
0
LINE
8
BLACK
6
CONTINUOUS
10
4.5286914173228343
20
-7.3317753543307083
11
4.5245481889763779
21
-7.330951220472441
0
LINE
8
BLACK
6
CONTINUOUS
10
4.5245481889763779
20
-7.330951220472441
11
4.5210357480314958
21
-7.3286042519685042
0
LINE
8
BLACK
6
CONTINUOUS
10
4.5210357480314958
20
-7.3286042519685042
11
4.518688779527559
21
-7.3250918110236221
0
LINE
8
BLACK
6
CONTINUOUS
10
4.518688779527559
20
-7.3250918110236221
11
4.5178646456692908
21
-7.3209485826771648
0
LINE
8
BLACK
6
CONTINUOUS
10
4.5178646456692908
20
-7.3209485826771648
11
4.5178646456692908
21
-7.2992950393700786
0
LINE
8
BLACK
6
CONTINUOUS
10
4.5178646456692908
20
-7.2992950393700786
11
4.518688779527559
21
-7.2951518110236222
0
LINE
8
BLACK
6
CONTINUOUS
10
4.518688779527559
20
-7.2951518110236222
11
4.5210357480314958
21
-7.2916393700787401
0
LINE
8
BLACK
6
CONTINUOUS
10
4.5210357480314958
20
-7.2916393700787401
11
4.5245481889763779
21
-7.2892924015748033
0
LINE
8
BLACK
6
CONTINUOUS
10
4.5245481889763779
20
-7.2892924015748033
11
4.5286914173228343
21
-7.2884682677165351
0
LINE
8
BLACK
6
CONTINUOUS
10
4.5286914173228343
20
-7.2884682677165351
11
4.6054630708661417
21
-7.2884682677165351
0
LINE
8
BLACK
6
CONTINUOUS
10
4.6054630708661417
20
-7.2884682677165351
11
4.6096062992125981
21
-7.2892924015748033
0
LINE
8
BLACK
6
CONTINUOUS
10
4.1114190944881885
20
-7.1838590944881888
11
4.11666874015748
21
-7.1858171259842516
0
LINE
8
BLACK
6
CONTINUOUS
10
4.11666874015748
20
-7.1858171259842516
11
4.1211541338582673
21
-7.1891748425196846
0
LINE
8
BLACK
6
CONTINUOUS
10
4.1211541338582673
20
-7.1891748425196846
11
4.1245118503937004
21
-7.193660236220472
0
LINE
8
BLACK
6
CONTINUOUS
10
4.1245118503937004
20
-7.193660236220472
11
4.126469881889764
21
-7.1989098818897634
0
LINE
8
BLACK
6
CONTINUOUS
10
4.126469881889764
20
-7.1989098818897634
11
4.1269197637795276
21
-7.2030942519685039
0
LINE
8
BLACK
6
CONTINUOUS
10
4.1269197637795276
20
-7.2030942519685039
11
4.1269197637795276
21
-7.2424643307086614
0
LINE
8
BLACK
6
CONTINUOUS
10
4.1269197637795276
20
-7.2424643307086614
11
4.126469881889764
21
-7.246648700787401
0
LINE
8
BLACK
6
CONTINUOUS
10
4.126469881889764
20
-7.246648700787401
11
4.1245118503937004
21
-7.2518983464566924
0
LINE
8
BLACK
6
CONTINUOUS
10
4.1245118503937004
20
-7.2518983464566924
11
4.1211541338582673
21
-7.2563837401574798
0
LINE
8
BLACK
6
CONTINUOUS
10
4.1211541338582673
20
-7.2563837401574798
11
4.11666874015748
21
-7.2597414566929128
0
LINE
8
BLACK
6
CONTINUOUS
10
4.11666874015748
20
-7.2597414566929128
11
4.1114190944881885
21
-7.2616994881889765
0
LINE
8
BLACK
6
CONTINUOUS
10
4.1114190944881885
20
-7.2616994881889765
11
4.1072347244094489
21
-7.2621493700787401
0
LINE
8
BLACK
6
CONTINUOUS
10
4.1072347244094489
20
-7.2621493700787401
11
4.038337086614173
21
-7.2621493700787401
0
LINE
8
BLACK
6
CONTINUOUS
10
4.038337086614173
20
-7.2621493700787401
11
4.0341527165354334
21
-7.2616994881889765
0
LINE
8
BLACK
6
CONTINUOUS
10
4.0341527165354334
20
-7.2616994881889765
11
4.028903070866142
21
-7.2597414566929128
0
LINE
8
BLACK
6
CONTINUOUS
10
4.028903070866142
20
-7.2597414566929128
11
4.0244176771653546
21
-7.2563837401574798
0
LINE
8
BLACK
6
CONTINUOUS
10
4.0244176771653546
20
-7.2563837401574798
11
4.0210599606299215
21
-7.2518983464566924
0
LINE
8
BLACK
6
CONTINUOUS
10
4.0210599606299215
20
-7.2518983464566924
11
4.0191019291338579
21
-7.246648700787401
0
LINE
8
BLACK
6
CONTINUOUS
10
4.0191019291338579
20
-7.246648700787401
11
4.0186520472440943
21
-7.2424643307086614
0
LINE
8
BLACK
6
CONTINUOUS
10
4.0186520472440943
20
-7.2424643307086614
11
4.0186520472440943
21
-7.2030942519685039
0
LINE
8
BLACK
6
CONTINUOUS
10
4.0186520472440943
20
-7.2030942519685039
11
4.0191019291338579
21
-7.1989098818897634
0
LINE
8
BLACK
6
CONTINUOUS
10
4.0191019291338579
20
-7.1989098818897634
11
4.0210599606299215
21
-7.193660236220472
0
LINE
8
BLACK
6
CONTINUOUS
10
4.0210599606299215
20
-7.193660236220472
11
4.0244176771653546
21
-7.1891748425196846
0
LINE
8
BLACK
6
CONTINUOUS
10
4.0244176771653546
20
-7.1891748425196846
11
4.028903070866142
21
-7.1858171259842516
0
LINE
8
BLACK
6
CONTINUOUS
10
4.028903070866142
20
-7.1858171259842516
11
4.0341527165354334
21
-7.1838590944881888
0
LINE
8
BLACK
6
CONTINUOUS
10
4.0341527165354334
20
-7.1838590944881888
11
4.038337086614173
21
-7.1834092125984252
0
LINE
8
BLACK
6
CONTINUOUS
10
4.038337086614173
20
-7.1834092125984252
11
4.1072347244094489
21
-7.1834092125984252
0
LINE
8
BLACK
6
CONTINUOUS
10
4.1072347244094489
20
-7.1834092125984252
11
4.1114190944881885
21
-7.1838590944881888
0
LINE
8
BLACK
6
CONTINUOUS
10
4.7478364173228345
20
-7.1838590944881888
11
4.7530860629921259
21
-7.1858171259842516
0
LINE
8
BLACK
6
CONTINUOUS
10
4.7530860629921259
20
-7.1858171259842516
11
4.7575714566929133
21
-7.1891748425196846
0
LINE
8
BLACK
6
CONTINUOUS
10
4.7575714566929133
20
-7.1891748425196846
11
4.7609291732283463
21
-7.193660236220472
0
LINE
8
BLACK
6
CONTINUOUS
10
4.7609291732283463
20
-7.193660236220472
11
4.7628872047244091
21
-7.1989098818897634
0
LINE
8
BLACK
6
CONTINUOUS
10
4.7628872047244091
20
-7.1989098818897634
11
4.7633370866141735
21
-7.2030942519685039
0
LINE
8
BLACK
6
CONTINUOUS
10
4.7633370866141735
20
-7.2030942519685039
11
4.7633370866141735
21
-7.2424643307086614
0
LINE
8
BLACK
6
CONTINUOUS
10
4.7633370866141735
20
-7.2424643307086614
11
4.7628872047244091
21
-7.246648700787401
0
LINE
8
BLACK
6
CONTINUOUS
10
4.7628872047244091
20
-7.246648700787401
11
4.7609291732283463
21
-7.2518983464566924
0
LINE
8
BLACK
6
CONTINUOUS
10
4.7609291732283463
20
-7.2518983464566924
11
4.7575714566929133
21
-7.2563837401574798
0
LINE
8
BLACK
6
CONTINUOUS
10
4.7575714566929133
20
-7.2563837401574798
11
4.7530860629921259
21
-7.2597414566929128
0
LINE
8
BLACK
6
CONTINUOUS
10
4.7530860629921259
20
-7.2597414566929128
11
4.7478364173228345
21
-7.2616994881889765
0
LINE
8
BLACK
6
CONTINUOUS
10
4.7478364173228345
20
-7.2616994881889765
11
4.7436520472440939
21
-7.2621493700787401
0
LINE
8
BLACK
6
CONTINUOUS
10
4.7436520472440939
20
-7.2621493700787401
11
4.6747544094488189
21
-7.2621493700787401
0
LINE
8
BLACK
6
CONTINUOUS
10
4.6747544094488189
20
-7.2621493700787401
11
4.6705700393700784
21
-7.2616994881889765
0
LINE
8
BLACK
6
CONTINUOUS
10
4.6705700393700784
20
-7.2616994881889765
11
4.665320393700787
21
-7.2597414566929128
0
LINE
8
BLACK
6
CONTINUOUS
10
4.665320393700787
20
-7.2597414566929128
11
4.6608349999999996
21
-7.2563837401574798
0
LINE
8
BLACK
6
CONTINUOUS
10
4.6608349999999996
20
-7.2563837401574798
11
4.6574772834645666
21
-7.2518983464566924
0
LINE
8
BLACK
6
CONTINUOUS
10
4.6574772834645666
20
-7.2518983464566924
11
4.6555192519685038
21
-7.246648700787401
0
LINE
8
BLACK
6
CONTINUOUS
10
4.6555192519685038
20
-7.246648700787401
11
4.6550693700787402
21
-7.2424643307086614
0
LINE
8
BLACK
6
CONTINUOUS
10
4.6550693700787402
20
-7.2424643307086614
11
4.6550693700787402
21
-7.2030942519685039
0
LINE
8
BLACK
6
CONTINUOUS
10
4.6550693700787402
20
-7.2030942519685039
11
4.6555192519685038
21
-7.1989098818897634
0
LINE
8
BLACK
6
CONTINUOUS
10
4.6555192519685038
20
-7.1989098818897634
11
4.6574772834645666
21
-7.193660236220472
0
LINE
8
BLACK
6
CONTINUOUS
10
4.6574772834645666
20
-7.193660236220472
11
4.6608349999999996
21
-7.1891748425196846
0
LINE
8
BLACK
6
CONTINUOUS
10
4.6608349999999996
20
-7.1891748425196846
11
4.665320393700787
21
-7.1858171259842516
0
LINE
8
BLACK
6
CONTINUOUS
10
4.665320393700787
20
-7.1858171259842516
11
4.6705700393700784
21
-7.1838590944881888
0
LINE
8
BLACK
6
CONTINUOUS
10
4.6705700393700784
20
-7.1838590944881888
11
4.6747544094488189
21
-7.1834092125984252
0
LINE
8
BLACK
6
CONTINUOUS
10
4.6747544094488189
20
-7.1834092125984252
11
4.7436520472440939
21
-7.1834092125984252
0
LINE
8
BLACK
6
CONTINUOUS
10
4.7436520472440939
20
-7.1834092125984252
11
4.7478364173228345
21
-7.1838590944881888
0
LINE
8
BLACK
6
CONTINUOUS
10
4.6096062992125981
20
-7.2142924015748031
11
4.6131187401574802
21
-7.2166393700787399
0
LINE
8
BLACK
6
CONTINUOUS
10
4.6131187401574802
20
-7.2166393700787399
11
4.615465708661417
21
-7.220151811023622
0
LINE
8
BLACK
6
CONTINUOUS
10
4.615465708661417
20
-7.220151811023622
11
4.6162898425196852
21
-7.2242950393700784
0
LINE
8
BLACK
6
CONTINUOUS
10
4.6162898425196852
20
-7.2242950393700784
11
4.6162898425196852
21
-7.2459485826771655
0
LINE
8
BLACK
6
CONTINUOUS
10
4.6162898425196852
20
-7.2459485826771655
11
4.615465708661417
21
-7.2500918110236219
0
LINE
8
BLACK
6
CONTINUOUS
10
4.615465708661417
20
-7.2500918110236219
11
4.6131187401574802
21
-7.253604251968504
0
LINE
8
BLACK
6
CONTINUOUS
10
4.6131187401574802
20
-7.253604251968504
11
4.6096062992125981
21
-7.2559512204724408
0
LINE
8
BLACK
6
CONTINUOUS
10
4.6096062992125981
20
-7.2559512204724408
11
4.6054630708661417
21
-7.2567753543307081
0
LINE
8
BLACK
6
CONTINUOUS
10
4.6054630708661417
20
-7.2567753543307081
11
4.5286914173228343
21
-7.2567753543307081
0
LINE
8
BLACK
6
CONTINUOUS
10
4.5286914173228343
20
-7.2567753543307081
11
4.5245481889763779
21
-7.2559512204724408
0
LINE
8
BLACK
6
CONTINUOUS
10
4.5245481889763779
20
-7.2559512204724408
11
4.5210357480314958
21
-7.253604251968504
0
LINE
8
BLACK
6
CONTINUOUS
10
4.5210357480314958
20
-7.253604251968504
11
4.518688779527559
21
-7.2500918110236219
0
LINE
8
BLACK
6
CONTINUOUS
10
4.518688779527559
20
-7.2500918110236219
11
4.5178646456692908
21
-7.2459485826771655
0
LINE
8
BLACK
6
CONTINUOUS
10
4.5178646456692908
20
-7.2459485826771655
11
4.5178646456692908
21
-7.2242950393700784
0
LINE
8
BLACK
6
CONTINUOUS
10
4.5178646456692908
20
-7.2242950393700784
11
4.518688779527559
21
-7.220151811023622
0
LINE
8
BLACK
6
CONTINUOUS
10
4.518688779527559
20
-7.220151811023622
11
4.5210357480314958
21
-7.2166393700787399
0
LINE
8
BLACK
6
CONTINUOUS
10
4.5210357480314958
20
-7.2166393700787399
11
4.5245481889763779
21
-7.2142924015748031
0
LINE
8
BLACK
6
CONTINUOUS
10
4.5245481889763779
20
-7.2142924015748031
11
4.5286914173228343
21
-7.2134682677165349
0
LINE
8
BLACK
6
CONTINUOUS
10
4.5286914173228343
20
-7.2134682677165349
11
4.6054630708661417
21
-7.2134682677165349
0
LINE
8
BLACK
6
CONTINUOUS
10
4.6054630708661417
20
-7.2134682677165349
11
4.6096062992125981
21
-7.2142924015748031
0
LINE
8
BLACK
6
CONTINUOUS
10
4.1114190944881885
20
-7.0838590944881892
11
4.11666874015748
21
-7.085817125984252
0
LINE
8
BLACK
6
CONTINUOUS
10
4.11666874015748
20
-7.085817125984252
11
4.1211541338582673
21
-7.089174842519685
0
LINE
8
BLACK
6
CONTINUOUS
10
4.1211541338582673
20
-7.089174842519685
11
4.1245118503937004
21
-7.0936602362204724
0
LINE
8
BLACK
6
CONTINUOUS
10
4.1245118503937004
20
-7.0936602362204724
11
4.126469881889764
21
-7.0989098818897638
0
LINE
8
BLACK
6
CONTINUOUS
10
4.126469881889764
20
-7.0989098818897638
11
4.1269197637795276
21
-7.1030942519685034
0
LINE
8
BLACK
6
CONTINUOUS
10
4.1269197637795276
20
-7.1030942519685034
11
4.1269197637795276
21
-7.1424643307086608
0
LINE
8
BLACK
6
CONTINUOUS
10
4.1269197637795276
20
-7.1424643307086608
11
4.126469881889764
21
-7.1466487007874013
0
LINE
8
BLACK
6
CONTINUOUS
10
4.126469881889764
20
-7.1466487007874013
11
4.1245118503937004
21
-7.1518983464566928
0
LINE
8
BLACK
6
CONTINUOUS
10
4.1245118503937004
20
-7.1518983464566928
11
4.1211541338582673
21
-7.1563837401574801
0
LINE
8
BLACK
6
CONTINUOUS
10
4.1211541338582673
20
-7.1563837401574801
11
4.11666874015748
21
-7.1597414566929132
0
LINE
8
BLACK
6
CONTINUOUS
10
4.11666874015748
20
-7.1597414566929132
11
4.1114190944881885
21
-7.1616994881889759
0
LINE
8
BLACK
6
CONTINUOUS
10
4.1114190944881885
20
-7.1616994881889759
11
4.1072347244094489
21
-7.1621493700787404
0
LINE
8
BLACK
6
CONTINUOUS
10
4.1072347244094489
20
-7.1621493700787404
11
4.038337086614173
21
-7.1621493700787404
0
LINE
8
BLACK
6
CONTINUOUS
10
4.038337086614173
20
-7.1621493700787404
11
4.0341527165354334
21
-7.1616994881889759
0
LINE
8
BLACK
6
CONTINUOUS
10
4.0341527165354334
20
-7.1616994881889759
11
4.028903070866142
21
-7.1597414566929132
0
LINE
8
BLACK
6
CONTINUOUS
10
4.028903070866142
20
-7.1597414566929132
11
4.0244176771653546
21
-7.1563837401574801
0
LINE
8
BLACK
6
CONTINUOUS
10
4.0244176771653546
20
-7.1563837401574801
11
4.0210599606299215
21
-7.1518983464566928
0
LINE
8
BLACK
6
CONTINUOUS
10
4.0210599606299215
20
-7.1518983464566928
11
4.0191019291338579
21
-7.1466487007874013
0
LINE
8
BLACK
6
CONTINUOUS
10
4.0191019291338579
20
-7.1466487007874013
11
4.0186520472440943
21
-7.1424643307086608
0
LINE
8
BLACK
6
CONTINUOUS
10
4.0186520472440943
20
-7.1424643307086608
11
4.0186520472440943
21
-7.1030942519685034
0
LINE
8
BLACK
6
CONTINUOUS
10
4.0186520472440943
20
-7.1030942519685034
11
4.0191019291338579
21
-7.0989098818897638
0
LINE
8
BLACK
6
CONTINUOUS
10
4.0191019291338579
20
-7.0989098818897638
11
4.0210599606299215
21
-7.0936602362204724
0
LINE
8
BLACK
6
CONTINUOUS
10
4.0210599606299215
20
-7.0936602362204724
11
4.0244176771653546
21
-7.089174842519685
0
LINE
8
BLACK
6
CONTINUOUS
10
4.0244176771653546
20
-7.089174842519685
11
4.028903070866142
21
-7.085817125984252
0
LINE
8
BLACK
6
CONTINUOUS
10
4.028903070866142
20
-7.085817125984252
11
4.0341527165354334
21
-7.0838590944881892
0
LINE
8
BLACK
6
CONTINUOUS
10
4.0341527165354334
20
-7.0838590944881892
11
4.038337086614173
21
-7.0834092125984247
0
LINE
8
BLACK
6
CONTINUOUS
10
4.038337086614173
20
-7.0834092125984247
11
4.1072347244094489
21
-7.0834092125984247
0
LINE
8
BLACK
6
CONTINUOUS
10
4.1072347244094489
20
-7.0834092125984247
11
4.1114190944881885
21
-7.0838590944881892
0
LINE
8
BLACK
6
CONTINUOUS
10
4.7478364173228345
20
-7.0838590944881892
11
4.7530860629921259
21
-7.085817125984252
0
LINE
8
BLACK
6
CONTINUOUS
10
4.7530860629921259
20
-7.085817125984252
11
4.7575714566929133
21
-7.089174842519685
0
LINE
8
BLACK
6
CONTINUOUS
10
4.7575714566929133
20
-7.089174842519685
11
4.7609291732283463
21
-7.0936602362204724
0
LINE
8
BLACK
6
CONTINUOUS
10
4.7609291732283463
20
-7.0936602362204724
11
4.7628872047244091
21
-7.0989098818897638
0
LINE
8
BLACK
6
CONTINUOUS
10
4.7628872047244091
20
-7.0989098818897638
11
4.7633370866141735
21
-7.1030942519685034
0
LINE
8
BLACK
6
CONTINUOUS
10
4.7633370866141735
20
-7.1030942519685034
11
4.7633370866141735
21
-7.1424643307086608
0
LINE
8
BLACK
6
CONTINUOUS
10
4.7633370866141735
20
-7.1424643307086608
11
4.7628872047244091
21
-7.1466487007874013
0
LINE
8
BLACK
6
CONTINUOUS
10
4.7628872047244091
20
-7.1466487007874013
11
4.7609291732283463
21
-7.1518983464566928
0
LINE
8
BLACK
6
CONTINUOUS
10
4.7609291732283463
20
-7.1518983464566928
11
4.7575714566929133
21
-7.1563837401574801
0
LINE
8
BLACK
6
CONTINUOUS
10
4.7575714566929133
20
-7.1563837401574801
11
4.7530860629921259
21
-7.1597414566929132
0
LINE
8
BLACK
6
CONTINUOUS
10
4.7530860629921259
20
-7.1597414566929132
11
4.7478364173228345
21
-7.1616994881889759
0
LINE
8
BLACK
6
CONTINUOUS
10
4.7478364173228345
20
-7.1616994881889759
11
4.7436520472440939
21
-7.1621493700787404
0
LINE
8
BLACK
6
CONTINUOUS
10
4.7436520472440939
20
-7.1621493700787404
11
4.6747544094488189
21
-7.1621493700787404
0
LINE
8
BLACK
6
CONTINUOUS
10
4.6747544094488189
20
-7.1621493700787404
11
4.6705700393700784
21
-7.1616994881889759
0
LINE
8
BLACK
6
CONTINUOUS
10
4.6705700393700784
20
-7.1616994881889759
11
4.665320393700787
21
-7.1597414566929132
0
LINE
8
BLACK
6
CONTINUOUS
10
4.665320393700787
20
-7.1597414566929132
11
4.6608349999999996
21
-7.1563837401574801
0
LINE
8
BLACK
6
CONTINUOUS
10
4.6608349999999996
20
-7.1563837401574801
11
4.6574772834645666
21
-7.1518983464566928
0
LINE
8
BLACK
6
CONTINUOUS
10
4.6574772834645666
20
-7.1518983464566928
11
4.6555192519685038
21
-7.1466487007874013
0
LINE
8
BLACK
6
CONTINUOUS
10
4.6555192519685038
20
-7.1466487007874013
11
4.6550693700787402
21
-7.1424643307086608
0
LINE
8
BLACK
6
CONTINUOUS
10
4.6550693700787402
20
-7.1424643307086608
11
4.6550693700787402
21
-7.1030942519685034
0
LINE
8
BLACK
6
CONTINUOUS
10
4.6550693700787402
20
-7.1030942519685034
11
4.6555192519685038
21
-7.0989098818897638
0
LINE
8
BLACK
6
CONTINUOUS
10
4.6555192519685038
20
-7.0989098818897638
11
4.6574772834645666
21
-7.0936602362204724
0
LINE
8
BLACK
6
CONTINUOUS
10
4.6574772834645666
20
-7.0936602362204724
11
4.6608349999999996
21
-7.089174842519685
0
LINE
8
BLACK
6
CONTINUOUS
10
4.6608349999999996
20
-7.089174842519685
11
4.665320393700787
21
-7.085817125984252
0
LINE
8
BLACK
6
CONTINUOUS
10
4.665320393700787
20
-7.085817125984252
11
4.6705700393700784
21
-7.0838590944881892
0
LINE
8
BLACK
6
CONTINUOUS
10
4.6705700393700784
20
-7.0838590944881892
11
4.6747544094488189
21
-7.0834092125984247
0
LINE
8
BLACK
6
CONTINUOUS
10
4.6747544094488189
20
-7.0834092125984247
11
4.7436520472440939
21
-7.0834092125984247
0
LINE
8
BLACK
6
CONTINUOUS
10
4.7436520472440939
20
-7.0834092125984247
11
4.7478364173228345
21
-7.0838590944881892
0
LINE
8
BLACK
6
CONTINUOUS
10
4.1114190944881885
20
-6.9838590944881886
11
4.11666874015748
21
-6.9858171259842514
0
LINE
8
BLACK
6
CONTINUOUS
10
4.11666874015748
20
-6.9858171259842514
11
4.1211541338582673
21
-6.9891748425196845
0
LINE
8
BLACK
6
CONTINUOUS
10
4.1211541338582673
20
-6.9891748425196845
11
4.1245118503937004
21
-6.9936602362204727
0
LINE
8
BLACK
6
CONTINUOUS
10
4.1245118503937004
20
-6.9936602362204727
11
4.126469881889764
21
-6.9989098818897633
0
LINE
8
BLACK
6
CONTINUOUS
10
4.126469881889764
20
-6.9989098818897633
11
4.1269197637795276
21
-7.0030942519685038
0
LINE
8
BLACK
6
CONTINUOUS
10
4.1269197637795276
20
-7.0030942519685038
11
4.1269197637795276
21
-7.0424643307086612
0
LINE
8
BLACK
6
CONTINUOUS
10
4.1269197637795276
20
-7.0424643307086612
11
4.126469881889764
21
-7.0466487007874017
0
LINE
8
BLACK
6
CONTINUOUS
10
4.126469881889764
20
-7.0466487007874017
11
4.1245118503937004
21
-7.0518983464566931
0
LINE
8
BLACK
6
CONTINUOUS
10
4.1245118503937004
20
-7.0518983464566931
11
4.1211541338582673
21
-7.0563837401574805
0
LINE
8
BLACK
6
CONTINUOUS
10
4.1211541338582673
20
-7.0563837401574805
11
4.11666874015748
21
-7.0597414566929135
0
LINE
8
BLACK
6
CONTINUOUS
10
4.11666874015748
20
-7.0597414566929135
11
4.1114190944881885
21
-7.0616994881889763
0
LINE
8
BLACK
6
CONTINUOUS
10
4.1114190944881885
20
-7.0616994881889763
11
4.1072347244094489
21
-7.0621493700787399
0
LINE
8
BLACK
6
CONTINUOUS
10
4.1072347244094489
20
-7.0621493700787399
11
4.038337086614173
21
-7.0621493700787399
0
LINE
8
BLACK
6
CONTINUOUS
10
4.038337086614173
20
-7.0621493700787399
11
4.0341527165354334
21
-7.0616994881889763
0
LINE
8
BLACK
6
CONTINUOUS
10
4.0341527165354334
20
-7.0616994881889763
11
4.028903070866142
21
-7.0597414566929135
0
LINE
8
BLACK
6
CONTINUOUS
10
4.028903070866142
20
-7.0597414566929135
11
4.0244176771653546
21
-7.0563837401574805
0
LINE
8
BLACK
6
CONTINUOUS
10
4.0244176771653546
20
-7.0563837401574805
11
4.0210599606299215
21
-7.0518983464566931
0
LINE
8
BLACK
6
CONTINUOUS
10
4.0210599606299215
20
-7.0518983464566931
11
4.0191019291338579
21
-7.0466487007874017
0
LINE
8
BLACK
6
CONTINUOUS
10
4.0191019291338579
20
-7.0466487007874017
11
4.0186520472440943
21
-7.0424643307086612
0
LINE
8
BLACK
6
CONTINUOUS
10
4.0186520472440943
20
-7.0424643307086612
11
4.0186520472440943
21
-7.0030942519685038
0
LINE
8
BLACK
6
CONTINUOUS
10
4.0186520472440943
20
-7.0030942519685038
11
4.0191019291338579
21
-6.9989098818897633
0
LINE
8
BLACK
6
CONTINUOUS
10
4.0191019291338579
20
-6.9989098818897633
11
4.0210599606299215
21
-6.9936602362204727
0
LINE
8
BLACK
6
CONTINUOUS
10
4.0210599606299215
20
-6.9936602362204727
11
4.0244176771653546
21
-6.9891748425196845
0
LINE
8
BLACK
6
CONTINUOUS
10
4.0244176771653546
20
-6.9891748425196845
11
4.028903070866142
21
-6.9858171259842514
0
LINE
8
BLACK
6
CONTINUOUS
10
4.028903070866142
20
-6.9858171259842514
11
4.0341527165354334
21
-6.9838590944881886
0
LINE
8
BLACK
6
CONTINUOUS
10
4.0341527165354334
20
-6.9838590944881886
11
4.038337086614173
21
-6.9834092125984251
0
LINE
8
BLACK
6
CONTINUOUS
10
4.038337086614173
20
-6.9834092125984251
11
4.1072347244094489
21
-6.9834092125984251
0
LINE
8
BLACK
6
CONTINUOUS
10
4.1072347244094489
20
-6.9834092125984251
11
4.1114190944881885
21
-6.9838590944881886
0
LINE
8
BLACK
6
CONTINUOUS
10
4.7478364173228345
20
-6.9838590944881886
11
4.7530860629921259
21
-6.9858171259842514
0
LINE
8
BLACK
6
CONTINUOUS
10
4.7530860629921259
20
-6.9858171259842514
11
4.7575714566929133
21
-6.9891748425196845
0
LINE
8
BLACK
6
CONTINUOUS
10
4.7575714566929133
20
-6.9891748425196845
11
4.7609291732283463
21
-6.9936602362204727
0
LINE
8
BLACK
6
CONTINUOUS
10
4.7609291732283463
20
-6.9936602362204727
11
4.7628872047244091
21
-6.9989098818897633
0
LINE
8
BLACK
6
CONTINUOUS
10
4.7628872047244091
20
-6.9989098818897633
11
4.7633370866141735
21
-7.0030942519685038
0
LINE
8
BLACK
6
CONTINUOUS
10
4.7633370866141735
20
-7.0030942519685038
11
4.7633370866141735
21
-7.0424643307086612
0
LINE
8
BLACK
6
CONTINUOUS
10
4.7633370866141735
20
-7.0424643307086612
11
4.7628872047244091
21
-7.0466487007874017
0
LINE
8
BLACK
6
CONTINUOUS
10
4.7628872047244091
20
-7.0466487007874017
11
4.7609291732283463
21
-7.0518983464566931
0
LINE
8
BLACK
6
CONTINUOUS
10
4.7609291732283463
20
-7.0518983464566931
11
4.7575714566929133
21
-7.0563837401574805
0
LINE
8
BLACK
6
CONTINUOUS
10
4.7575714566929133
20
-7.0563837401574805
11
4.7530860629921259
21
-7.0597414566929135
0
LINE
8
BLACK
6
CONTINUOUS
10
4.7530860629921259
20
-7.0597414566929135
11
4.7478364173228345
21
-7.0616994881889763
0
LINE
8
BLACK
6
CONTINUOUS
10
4.7478364173228345
20
-7.0616994881889763
11
4.7436520472440939
21
-7.0621493700787399
0
LINE
8
BLACK
6
CONTINUOUS
10
4.7436520472440939
20
-7.0621493700787399
11
4.6747544094488189
21
-7.0621493700787399
0
LINE
8
BLACK
6
CONTINUOUS
10
4.6747544094488189
20
-7.0621493700787399
11
4.6705700393700784
21
-7.0616994881889763
0
LINE
8
BLACK
6
CONTINUOUS
10
4.6705700393700784
20
-7.0616994881889763
11
4.665320393700787
21
-7.0597414566929135
0
LINE
8
BLACK
6
CONTINUOUS
10
4.665320393700787
20
-7.0597414566929135
11
4.6608349999999996
21
-7.0563837401574805
0
LINE
8
BLACK
6
CONTINUOUS
10
4.6608349999999996
20
-7.0563837401574805
11
4.6574772834645666
21
-7.0518983464566931
0
LINE
8
BLACK
6
CONTINUOUS
10
4.6574772834645666
20
-7.0518983464566931
11
4.6555192519685038
21
-7.0466487007874017
0
LINE
8
BLACK
6
CONTINUOUS
10
4.6555192519685038
20
-7.0466487007874017
11
4.6550693700787402
21
-7.0424643307086612
0
LINE
8
BLACK
6
CONTINUOUS
10
4.6550693700787402
20
-7.0424643307086612
11
4.6550693700787402
21
-7.0030942519685038
0
LINE
8
BLACK
6
CONTINUOUS
10
4.6550693700787402
20
-7.0030942519685038
11
4.6555192519685038
21
-6.9989098818897633
0
LINE
8
BLACK
6
CONTINUOUS
10
4.6555192519685038
20
-6.9989098818897633
11
4.6574772834645666
21
-6.9936602362204727
0
LINE
8
BLACK
6
CONTINUOUS
10
4.6574772834645666
20
-6.9936602362204727
11
4.6608349999999996
21
-6.9891748425196845
0
LINE
8
BLACK
6
CONTINUOUS
10
4.6608349999999996
20
-6.9891748425196845
11
4.665320393700787
21
-6.9858171259842514
0
LINE
8
BLACK
6
CONTINUOUS
10
4.665320393700787
20
-6.9858171259842514
11
4.6705700393700784
21
-6.9838590944881886
0
LINE
8
BLACK
6
CONTINUOUS
10
4.6705700393700784
20
-6.9838590944881886
11
4.6747544094488189
21
-6.9834092125984251
0
LINE
8
BLACK
6
CONTINUOUS
10
4.6747544094488189
20
-6.9834092125984251
11
4.7436520472440939
21
-6.9834092125984251
0
LINE
8
BLACK
6
CONTINUOUS
10
4.7436520472440939
20
-6.9834092125984251
11
4.7478364173228345
21
-6.9838590944881886
0
LINE
8
BLACK
6
CONTINUOUS
10
4.1114190944881885
20
-6.883859094488189
11
4.11666874015748
21
-6.8858171259842518
0
LINE
8
BLACK
6
CONTINUOUS
10
4.11666874015748
20
-6.8858171259842518
11
4.1211541338582673
21
-6.8891748425196848
0
LINE
8
BLACK
6
CONTINUOUS
10
4.1211541338582673
20
-6.8891748425196848
11
4.1245118503937004
21
-6.8936602362204722
0
LINE
8
BLACK
6
CONTINUOUS
10
4.1245118503937004
20
-6.8936602362204722
11
4.126469881889764
21
-6.8989098818897636
0
LINE
8
BLACK
6
CONTINUOUS
10
4.126469881889764
20
-6.8989098818897636
11
4.1269197637795276
21
-6.9030942519685041
0
LINE
8
BLACK
6
CONTINUOUS
10
4.1269197637795276
20
-6.9030942519685041
11
4.1269197637795276
21
-6.9424643307086615
0
LINE
8
BLACK
6
CONTINUOUS
10
4.1269197637795276
20
-6.9424643307086615
11
4.126469881889764
21
-6.9466487007874012
0
LINE
8
BLACK
6
CONTINUOUS
10
4.126469881889764
20
-6.9466487007874012
11
4.1245118503937004
21
-6.9518983464566926
0
LINE
8
BLACK
6
CONTINUOUS
10
4.1245118503937004
20
-6.9518983464566926
11
4.1211541338582673
21
-6.95638374015748
0
LINE
8
BLACK
6
CONTINUOUS
10
4.1211541338582673
20
-6.95638374015748
11
4.11666874015748
21
-6.959741456692913
0
LINE
8
BLACK
6
CONTINUOUS
10
4.11666874015748
20
-6.959741456692913
11
4.1114190944881885
21
-6.9616994881889767
0
LINE
8
BLACK
6
CONTINUOUS
10
4.1114190944881885
20
-6.9616994881889767
11
4.1072347244094489
21
-6.9621493700787402
0
LINE
8
BLACK
6
CONTINUOUS
10
4.1072347244094489
20
-6.9621493700787402
11
4.038337086614173
21
-6.9621493700787402
0
LINE
8
BLACK
6
CONTINUOUS
10
4.038337086614173
20
-6.9621493700787402
11
4.0341527165354334
21
-6.9616994881889767
0
LINE
8
BLACK
6
CONTINUOUS
10
4.0341527165354334
20
-6.9616994881889767
11
4.028903070866142
21
-6.959741456692913
0
LINE
8
BLACK
6
CONTINUOUS
10
4.028903070866142
20
-6.959741456692913
11
4.0244176771653546
21
-6.95638374015748
0
LINE
8
BLACK
6
CONTINUOUS
10
4.0244176771653546
20
-6.95638374015748
11
4.0210599606299215
21
-6.9518983464566926
0
LINE
8
BLACK
6
CONTINUOUS
10
4.0210599606299215
20
-6.9518983464566926
11
4.0191019291338579
21
-6.9466487007874012
0
LINE
8
BLACK
6
CONTINUOUS
10
4.0191019291338579
20
-6.9466487007874012
11
4.0186520472440943
21
-6.9424643307086615
0
LINE
8
BLACK
6
CONTINUOUS
10
4.0186520472440943
20
-6.9424643307086615
11
4.0186520472440943
21
-6.9030942519685041
0
LINE
8
BLACK
6
CONTINUOUS
10
4.0186520472440943
20
-6.9030942519685041
11
4.0191019291338579
21
-6.8989098818897636
0
LINE
8
BLACK
6
CONTINUOUS
10
4.0191019291338579
20
-6.8989098818897636
11
4.0210599606299215
21
-6.8936602362204722
0
LINE
8
BLACK
6
CONTINUOUS
10
4.0210599606299215
20
-6.8936602362204722
11
4.0244176771653546
21
-6.8891748425196848
0
LINE
8
BLACK
6
CONTINUOUS
10
4.0244176771653546
20
-6.8891748425196848
11
4.028903070866142
21
-6.8858171259842518
0
LINE
8
BLACK
6
CONTINUOUS
10
4.028903070866142
20
-6.8858171259842518
11
4.0341527165354334
21
-6.883859094488189
0
LINE
8
BLACK
6
CONTINUOUS
10
4.0341527165354334
20
-6.883859094488189
11
4.038337086614173
21
-6.8834092125984254
0
LINE
8
BLACK
6
CONTINUOUS
10
4.038337086614173
20
-6.8834092125984254
11
4.1072347244094489
21
-6.8834092125984254
0
LINE
8
BLACK
6
CONTINUOUS
10
4.1072347244094489
20
-6.8834092125984254
11
4.1114190944881885
21
-6.883859094488189
0
LINE
8
BLACK
6
CONTINUOUS
10
4.7478364173228345
20
-6.883859094488189
11
4.7530860629921259
21
-6.8858171259842518
0
LINE
8
BLACK
6
CONTINUOUS
10
4.7530860629921259
20
-6.8858171259842518
11
4.7575714566929133
21
-6.8891748425196848
0
LINE
8
BLACK
6
CONTINUOUS
10
4.7575714566929133
20
-6.8891748425196848
11
4.7609291732283463
21
-6.8936602362204722
0
LINE
8
BLACK
6
CONTINUOUS
10
4.7609291732283463
20
-6.8936602362204722
11
4.7628872047244091
21
-6.8989098818897636
0
LINE
8
BLACK
6
CONTINUOUS
10
4.7628872047244091
20
-6.8989098818897636
11
4.7633370866141735
21
-6.9030942519685041
0
LINE
8
BLACK
6
CONTINUOUS
10
4.7633370866141735
20
-6.9030942519685041
11
4.7633370866141735
21
-6.9424643307086615
0
LINE
8
BLACK
6
CONTINUOUS
10
4.7633370866141735
20
-6.9424643307086615
11
4.7628872047244091
21
-6.9466487007874012
0
LINE
8
BLACK
6
CONTINUOUS
10
4.7628872047244091
20
-6.9466487007874012
11
4.7609291732283463
21
-6.9518983464566926
0
LINE
8
BLACK
6
CONTINUOUS
10
4.7609291732283463
20
-6.9518983464566926
11
4.7575714566929133
21
-6.95638374015748
0
LINE
8
BLACK
6
CONTINUOUS
10
4.7575714566929133
20
-6.95638374015748
11
4.7530860629921259
21
-6.959741456692913
0
LINE
8
BLACK
6
CONTINUOUS
10
4.7530860629921259
20
-6.959741456692913
11
4.7478364173228345
21
-6.9616994881889767
0
LINE
8
BLACK
6
CONTINUOUS
10
4.7478364173228345
20
-6.9616994881889767
11
4.7436520472440939
21
-6.9621493700787402
0
LINE
8
BLACK
6
CONTINUOUS
10
4.7436520472440939
20
-6.9621493700787402
11
4.6747544094488189
21
-6.9621493700787402
0
LINE
8
BLACK
6
CONTINUOUS
10
4.6747544094488189
20
-6.9621493700787402
11
4.6705700393700784
21
-6.9616994881889767
0
LINE
8
BLACK
6
CONTINUOUS
10
4.6705700393700784
20
-6.9616994881889767
11
4.665320393700787
21
-6.959741456692913
0
LINE
8
BLACK
6
CONTINUOUS
10
4.665320393700787
20
-6.959741456692913
11
4.6608349999999996
21
-6.95638374015748
0
LINE
8
BLACK
6
CONTINUOUS
10
4.6608349999999996
20
-6.95638374015748
11
4.6574772834645666
21
-6.9518983464566926
0
LINE
8
BLACK
6
CONTINUOUS
10
4.6574772834645666
20
-6.9518983464566926
11
4.6555192519685038
21
-6.9466487007874012
0
LINE
8
BLACK
6
CONTINUOUS
10
4.6555192519685038
20
-6.9466487007874012
11
4.6550693700787402
21
-6.9424643307086615
0
LINE
8
BLACK
6
CONTINUOUS
10
4.6550693700787402
20
-6.9424643307086615
11
4.6550693700787402
21
-6.9030942519685041
0
LINE
8
BLACK
6
CONTINUOUS
10
4.6550693700787402
20
-6.9030942519685041
11
4.6555192519685038
21
-6.8989098818897636
0
LINE
8
BLACK
6
CONTINUOUS
10
4.6555192519685038
20
-6.8989098818897636
11
4.6574772834645666
21
-6.8936602362204722
0
LINE
8
BLACK
6
CONTINUOUS
10
4.6574772834645666
20
-6.8936602362204722
11
4.6608349999999996
21
-6.8891748425196848
0
LINE
8
BLACK
6
CONTINUOUS
10
4.6608349999999996
20
-6.8891748425196848
11
4.665320393700787
21
-6.8858171259842518
0
LINE
8
BLACK
6
CONTINUOUS
10
4.665320393700787
20
-6.8858171259842518
11
4.6705700393700784
21
-6.883859094488189
0
LINE
8
BLACK
6
CONTINUOUS
10
4.6705700393700784
20
-6.883859094488189
11
4.6747544094488189
21
-6.8834092125984254
0
LINE
8
BLACK
6
CONTINUOUS
10
4.6747544094488189
20
-6.8834092125984254
11
4.7436520472440939
21
-6.8834092125984254
0
LINE
8
BLACK
6
CONTINUOUS
10
4.7436520472440939
20
-6.8834092125984254
11
4.7478364173228345
21
-6.883859094488189
0
LINE
8
BLACK
6
CONTINUOUS
10
4.1820472440944885
20
-6.8107333464566926
11
4.1855596850393697
21
-6.8130803149606294
0
LINE
8
BLACK
6
CONTINUOUS
10
4.1855596850393697
20
-6.8130803149606294
11
4.1879066535433074
21
-6.8165927559055115
0
LINE
8
BLACK
6
CONTINUOUS
10
4.1879066535433074
20
-6.8165927559055115
11
4.1887307874015747
21
-6.8207359842519679
0
LINE
8
BLACK
6
CONTINUOUS
10
4.1887307874015747
20
-6.8207359842519679
11
4.1887307874015747
21
-6.8975076377952753
0
LINE
8
BLACK
6
CONTINUOUS
10
4.1887307874015747
20
-6.8975076377952753
11
4.1879066535433074
21
-6.9016508661417317
0
LINE
8
BLACK
6
CONTINUOUS
10
4.1879066535433074
20
-6.9016508661417317
11
4.1855596850393697
21
-6.9051633070866139
0
LINE
8
BLACK
6
CONTINUOUS
10
4.1855596850393697
20
-6.9051633070866139
11
4.1820472440944885
21
-6.9075102755905506
0
LINE
8
BLACK
6
CONTINUOUS
10
4.1820472440944885
20
-6.9075102755905506
11
4.1779040157480312
21
-6.9083344094488188
0
LINE
8
BLACK
6
CONTINUOUS
10
4.1779040157480312
20
-6.9083344094488188
11
4.156250472440945
21
-6.9083344094488188
0
LINE
8
BLACK
6
CONTINUOUS
10
4.156250472440945
20
-6.9083344094488188
11
4.1521072440944877
21
-6.9075102755905506
0
LINE
8
BLACK
6
CONTINUOUS
10
4.1521072440944877
20
-6.9075102755905506
11
4.1485948031496065
21
-6.9051633070866139
0
LINE
8
BLACK
6
CONTINUOUS
10
4.1485948031496065
20
-6.9051633070866139
11
4.1462478346456688
21
-6.9016508661417317
0
LINE
8
BLACK
6
CONTINUOUS
10
4.1462478346456688
20
-6.9016508661417317
11
4.1454237007874015
21
-6.8975076377952753
0
LINE
8
BLACK
6
CONTINUOUS
10
4.1454237007874015
20
-6.8975076377952753
11
4.1454237007874015
21
-6.8207359842519679
0
LINE
8
BLACK
6
CONTINUOUS
10
4.1454237007874015
20
-6.8207359842519679
11
4.1462478346456688
21
-6.8165927559055115
0
LINE
8
BLACK
6
CONTINUOUS
10
4.1462478346456688
20
-6.8165927559055115
11
4.1485948031496065
21
-6.8130803149606294
0
LINE
8
BLACK
6
CONTINUOUS
10
4.1485948031496065
20
-6.8130803149606294
11
4.1521072440944877
21
-6.8107333464566926
0
LINE
8
BLACK
6
CONTINUOUS
10
4.1521072440944877
20
-6.8107333464566926
11
4.156250472440945
21
-6.8099092125984253
0
LINE
8
BLACK
6
CONTINUOUS
10
4.156250472440945
20
-6.8099092125984253
11
4.1779040157480312
21
-6.8099092125984253
0
LINE
8
BLACK
6
CONTINUOUS
10
4.1779040157480312
20
-6.8099092125984253
11
4.1820472440944885
21
-6.8107333464566926
0
LINE
8
BLACK
6
CONTINUOUS
10
4.2570472440944878
20
-6.8107333464566926
11
4.2605596850393699
21
-6.8130803149606294
0
LINE
8
BLACK
6
CONTINUOUS
10
4.2605596850393699
20
-6.8130803149606294
11
4.2629066535433067
21
-6.8165927559055115
0
LINE
8
BLACK
6
CONTINUOUS
10
4.2629066535433067
20
-6.8165927559055115
11
4.2637307874015749
21
-6.8207359842519679
0
LINE
8
BLACK
6
CONTINUOUS
10
4.2637307874015749
20
-6.8207359842519679
11
4.2637307874015749
21
-6.8975076377952753
0
LINE
8
BLACK
6
CONTINUOUS
10
4.2637307874015749
20
-6.8975076377952753
11
4.2629066535433067
21
-6.9016508661417317
0
LINE
8
BLACK
6
CONTINUOUS
10
4.2629066535433067
20
-6.9016508661417317
11
4.2605596850393699
21
-6.9051633070866139
0
LINE
8
BLACK
6
CONTINUOUS
10
4.2605596850393699
20
-6.9051633070866139
11
4.2570472440944878
21
-6.9075102755905506
0
LINE
8
BLACK
6
CONTINUOUS
10
4.2570472440944878
20
-6.9075102755905506
11
4.2529040157480313
21
-6.9083344094488188
0
LINE
8
BLACK
6
CONTINUOUS
10
4.2529040157480313
20
-6.9083344094488188
11
4.2312504724409452
21
-6.9083344094488188
0
LINE
8
BLACK
6
CONTINUOUS
10
4.2312504724409452
20
-6.9083344094488188
11
4.2271072440944879
21
-6.9075102755905506
0
LINE
8
BLACK
6
CONTINUOUS
10
4.2271072440944879
20
-6.9075102755905506
11
4.2235948031496058
21
-6.9051633070866139
0
LINE
8
BLACK
6
CONTINUOUS
10
4.2235948031496058
20
-6.9051633070866139
11
4.221247834645669
21
-6.9016508661417317
0
LINE
8
BLACK
6
CONTINUOUS
10
4.221247834645669
20
-6.9016508661417317
11
4.2204237007874017
21
-6.8975076377952753
0
LINE
8
BLACK
6
CONTINUOUS
10
4.2204237007874017
20
-6.8975076377952753
11
4.2204237007874017
21
-6.8207359842519679
0
LINE
8
BLACK
6
CONTINUOUS
10
4.2204237007874017
20
-6.8207359842519679
11
4.221247834645669
21
-6.8165927559055115
0
LINE
8
BLACK
6
CONTINUOUS
10
4.221247834645669
20
-6.8165927559055115
11
4.2235948031496058
21
-6.8130803149606294
0
LINE
8
BLACK
6
CONTINUOUS
10
4.2235948031496058
20
-6.8130803149606294
11
4.2271072440944879
21
-6.8107333464566926
0
LINE
8
BLACK
6
CONTINUOUS
10
4.2271072440944879
20
-6.8107333464566926
11
4.2312504724409452
21
-6.8099092125984253
0
LINE
8
BLACK
6
CONTINUOUS
10
4.2312504724409452
20
-6.8099092125984253
11
4.2529040157480313
21
-6.8099092125984253
0
LINE
8
BLACK
6
CONTINUOUS
10
4.2529040157480313
20
-6.8099092125984253
11
4.2570472440944878
21
-6.8107333464566926
  0
ENDSEC
  0
EOF
