%TF.GenerationSoftware,KiCad,Pcbnew,9.0.0*%
%TF.CreationDate,2025-04-29T13:23:45+03:00*%
%TF.ProjectId,NIOKR,4e494f4b-522e-46b6-9963-61645f706362,rev?*%
%TF.SameCoordinates,Original*%
%TF.FileFunction,Copper,L2,Bot*%
%TF.FilePolarity,Positive*%
%FSLAX46Y46*%
G04 Gerber Fmt 4.6, Leading zero omitted, Abs format (unit mm)*
G04 Created by KiCad (PCBNEW 9.0.0) date 2025-04-29 13:23:45*
%MOMM*%
%LPD*%
G01*
G04 APERTURE LIST*
G04 Aperture macros list*
%AMRoundRect*
0 Rectangle with rounded corners*
0 $1 Rounding radius*
0 $2 $3 $4 $5 $6 $7 $8 $9 X,Y pos of 4 corners*
0 Add a 4 corners polygon primitive as box body*
4,1,4,$2,$3,$4,$5,$6,$7,$8,$9,$2,$3,0*
0 Add four circle primitives for the rounded corners*
1,1,$1+$1,$2,$3*
1,1,$1+$1,$4,$5*
1,1,$1+$1,$6,$7*
1,1,$1+$1,$8,$9*
0 Add four rect primitives between the rounded corners*
20,1,$1+$1,$2,$3,$4,$5,0*
20,1,$1+$1,$4,$5,$6,$7,0*
20,1,$1+$1,$6,$7,$8,$9,0*
20,1,$1+$1,$8,$9,$2,$3,0*%
G04 Aperture macros list end*
%TA.AperFunction,CastellatedPad*%
%ADD10RoundRect,0.250000X-0.788879X-0.464537X0.706497X-0.582226X0.788879X0.464537X-0.706497X0.582226X0*%
%TD*%
%TA.AperFunction,SMDPad,CuDef*%
%ADD11RoundRect,0.250000X0.927177X1.026081X-0.872206X1.073199X-0.927177X-1.026081X0.872206X-1.073199X0*%
%TD*%
%TA.AperFunction,SMDPad,CuDef*%
%ADD12RoundRect,0.250000X0.630015X1.231089X-1.120251X0.810888X-0.630015X-1.231089X1.120251X-0.810888X0*%
%TD*%
%TA.AperFunction,SMDPad,CuDef*%
%ADD13RoundRect,0.250000X0.979608X0.976150X-0.814844X1.117376X-0.979608X-0.976150X0.814844X-1.117376X0*%
%TD*%
%TA.AperFunction,SMDPad,CuDef*%
%ADD14RoundRect,0.250000X0.814844X1.117376X-0.979608X0.976150X-0.814844X-1.117376X0.979608X-0.976150X0*%
%TD*%
%TA.AperFunction,SMDPad,CuDef*%
%ADD15RoundRect,0.250000X0.872206X1.073199X-0.927177X1.026081X-0.872206X-1.073199X0.927177X-1.026081X0*%
%TD*%
%TA.AperFunction,ComponentPad*%
%ADD16C,2.540000*%
%TD*%
%TA.AperFunction,SMDPad,CuDef*%
%ADD17RoundRect,0.250000X1.120251X0.810888X-0.630015X1.231089X-1.120251X-0.810888X0.630015X-1.231089X0*%
%TD*%
%TA.AperFunction,WasherPad*%
%ADD18C,0.900000*%
%TD*%
%TA.AperFunction,SMDPad,CuDef*%
%ADD19RoundRect,0.250000X0.608767X0.549457X-0.687226X0.447460X-0.608767X-0.549457X0.687226X-0.447460X0*%
%TD*%
%TA.AperFunction,SMDPad,CuDef*%
%ADD20RoundRect,0.250000X0.687226X0.447460X-0.608767X0.549457X-0.687226X-0.447460X0.608767X-0.549457X0*%
%TD*%
%TA.AperFunction,SMDPad,CuDef*%
%ADD21RoundRect,0.250000X0.636689X0.516844X-0.662866X0.482814X-0.636689X-0.516844X0.662866X-0.482814X0*%
%TD*%
%TA.AperFunction,SMDPad,CuDef*%
%ADD22RoundRect,0.250000X-0.748763X-0.334445X0.515318X-0.637924X0.748763X0.334445X-0.515318X0.637924X0*%
%TD*%
%TA.AperFunction,SMDPad,CuDef*%
%ADD23RoundRect,0.250000X0.515318X0.637924X-0.748763X0.334445X-0.515318X-0.637924X0.748763X-0.334445X0*%
%TD*%
%TA.AperFunction,SMDPad,CuDef*%
%ADD24RoundRect,0.250000X0.662866X0.482814X-0.636689X0.516844X-0.662866X-0.482814X0.636689X-0.516844X0*%
%TD*%
%TA.AperFunction,CastellatedPad*%
%ADD25RoundRect,0.250000X-0.706497X-0.582226X0.788879X-0.464537X0.706497X0.582226X-0.788879X0.464537X0*%
%TD*%
%TA.AperFunction,Conductor*%
%ADD26C,0.200000*%
%TD*%
G04 APERTURE END LIST*
D10*
%TO.P,U1,1,P0.02_A0_D0*%
%TO.N,L-ROW3*%
X116319516Y-174177935D03*
%TO.P,U1,2,P0.03_A1_D1*%
%TO.N,L-ROW2*%
X116518802Y-171645765D03*
%TO.P,U1,3,P0.28_A2_D2*%
%TO.N,L-ROW1*%
X116718088Y-169113595D03*
%TO.P,U1,4,P0.29_A3_D3*%
%TO.N,L-ROW0*%
X116917374Y-166581425D03*
%TO.P,U1,5,P0.04_A4_D4_SDA*%
%TO.N,L-COL5*%
X117116660Y-164049255D03*
%TO.P,U1,6,P0.05_A5_D5_SCL*%
%TO.N,L-COL4*%
X117315946Y-161517085D03*
%TO.P,U1,7,P1.11_D6_TX*%
%TO.N,unconnected-(U1-P1.11_D6_TX-Pad7)*%
X117515232Y-158984915D03*
%TO.P,U1,8,P1.12_D7_RX*%
%TO.N,L-COL0*%
X135639189Y-160411301D03*
%TO.P,U1,9,P1.13_D8_SCK*%
%TO.N,L-COL1*%
X135439903Y-162943471D03*
%TO.P,U1,10,P1.14_D9_MISO*%
%TO.N,L-COL2*%
X135240617Y-165475641D03*
%TO.P,U1,11,P1.15_D10_MOSI*%
%TO.N,L-COL3*%
X135041331Y-168007811D03*
%TO.P,U1,12,3V3*%
%TO.N,unconnected-(U1-3V3-Pad12)*%
X134842045Y-170539981D03*
%TO.P,U1,13,GND*%
%TO.N,L-GND*%
X134642759Y-173072151D03*
%TO.P,U1,14,5V*%
%TO.N,unconnected-(U1-5V-Pad14)*%
X134443473Y-175604321D03*
%TD*%
D11*
%TO.P,R-S14,1,1*%
%TO.N,R-COL2*%
X302989527Y-135944057D03*
%TO.P,R-S14,2,2*%
%TO.N,Net-(R-D14-A)*%
X291850954Y-133451629D03*
%TD*%
D12*
%TO.P,R-S18,1,1*%
%TO.N,R-COL3*%
X264248754Y-169403494D03*
%TO.P,R-S18,2,2*%
%TO.N,Net-(R-D18-A)*%
X252844631Y-169878868D03*
%TD*%
D13*
%TO.P,R-S0,1,1*%
%TO.N,R-COL0*%
X341987793Y-117200761D03*
%TO.P,R-S0,2,2*%
%TO.N,Net-(R-D0-A)*%
X330994929Y-114128801D03*
%TD*%
D14*
%TO.P,R-S17,1,1*%
%TO.N,R-COL5*%
X247784732Y-145675887D03*
%TO.P,R-S17,2,2*%
%TO.N,Net-(R-D17-A)*%
X236446648Y-144361411D03*
%TD*%
%TO.P,R-S4,1,1*%
%TO.N,R-COL4*%
X263324716Y-107338452D03*
%TO.P,R-S4,2,2*%
%TO.N,Net-(R-D4-A)*%
X251986632Y-106023976D03*
%TD*%
D15*
%TO.P,L-S14,1,1*%
%TO.N,L-COL2*%
X123204922Y-135519991D03*
%TO.P,L-S14,2,2*%
%TO.N,Net-(L-D14-A)*%
X111951170Y-133613926D03*
%TD*%
D13*
%TO.P,R-S13,1,1*%
%TO.N,R-COL1*%
X320641836Y-152635209D03*
%TO.P,R-S13,2,2*%
%TO.N,Net-(R-D13-A)*%
X309648972Y-149563249D03*
%TD*%
%TO.P,L-S4,1,1*%
%TO.N,L-COL4*%
X162825345Y-108609490D03*
%TO.P,L-S4,2,2*%
%TO.N,Net-(L-D4-A)*%
X151832481Y-105537530D03*
%TD*%
%TO.P,R-S7,1,1*%
%TO.N,R-COL1*%
X322093329Y-134192239D03*
%TO.P,R-S7,2,2*%
%TO.N,Net-(R-D7-A)*%
X311100465Y-131120279D03*
%TD*%
D15*
%TO.P,R-S3,1,1*%
%TO.N,R-COL3*%
X283126661Y-93151595D03*
%TO.P,R-S3,2,2*%
%TO.N,Net-(R-D03-A)*%
X271872909Y-91245530D03*
%TD*%
D11*
%TO.P,L-S9,1,1*%
%TO.N,L-COL3*%
X142583514Y-112069322D03*
%TO.P,L-S9,2,2*%
%TO.N,Net-(L-D9-A)*%
X131444941Y-109576894D03*
%TD*%
D13*
%TO.P,L-S10,1,1*%
%TO.N,L-COL4*%
X161373852Y-127052461D03*
%TO.P,L-S10,2,2*%
%TO.N,Net-(L-D10-A)*%
X150380988Y-123980501D03*
%TD*%
D14*
%TO.P,L-S7,1,1*%
%TO.N,L-COL1*%
X104056732Y-132921201D03*
%TO.P,L-S7,2,2*%
%TO.N,Net-(L-D7-A)*%
X92718648Y-131606725D03*
%TD*%
D13*
%TO.P,L-S16,1,1*%
%TO.N,L-COL4*%
X159922358Y-145495432D03*
%TO.P,L-S16,2,2*%
%TO.N,Net-(L-D16-A)*%
X148929494Y-142423472D03*
%TD*%
D14*
%TO.P,L-S6,1,1*%
%TO.N,L-COL0*%
X85613761Y-134372694D03*
%TO.P,L-S6,2,2*%
%TO.N,Net-(L-D6-A)*%
X74275677Y-133058218D03*
%TD*%
%TO.P,R-S11,1,1*%
%TO.N,R-COL5*%
X246333239Y-127232916D03*
%TO.P,R-S11,2,2*%
%TO.N,Net-(R-D11-A)*%
X234995155Y-125918440D03*
%TD*%
%TO.P,R-S10,1,1*%
%TO.N,R-COL4*%
X264776209Y-125781423D03*
%TO.P,R-S10,2,2*%
%TO.N,Net-(R-D10-A)*%
X253438125Y-124466947D03*
%TD*%
D15*
%TO.P,R-S9,1,1*%
%TO.N,R-COL3*%
X283610935Y-111645256D03*
%TO.P,R-S9,2,2*%
%TO.N,Net-(R-D9-A)*%
X272357183Y-109739191D03*
%TD*%
D12*
%TO.P,R-S19,1,1*%
%TO.N,R-COL4*%
X246259911Y-173722233D03*
%TO.P,R-S19,2,2*%
%TO.N,Net-(R-D19-A)*%
X234855788Y-174197607D03*
%TD*%
D16*
%TO.P,R-BAT+2,1,BAT+*%
%TO.N,R-BAT+*%
X271189000Y-173013700D03*
%TD*%
D14*
%TO.P,L-S12,1,1*%
%TO.N,L-COL0*%
X87065255Y-152815665D03*
%TO.P,L-S12,2,2*%
%TO.N,Net-(L-D12-A)*%
X75727171Y-151501189D03*
%TD*%
%TO.P,L-S1,1,1*%
%TO.N,L-COL1*%
X102605239Y-114478230D03*
%TO.P,L-S1,2,2*%
%TO.N,Net-(L-D1-A)*%
X91267155Y-113163754D03*
%TD*%
D17*
%TO.P,L-S19,1,1*%
%TO.N,L-COL4*%
X179492482Y-177504048D03*
%TO.P,L-S19,2,2*%
%TO.N,Net-(L-D19-A)*%
X169115519Y-172750246D03*
%TD*%
D16*
%TO.P,L-BAT+2,1,BAT+*%
%TO.N,L-BAT+*%
X108000000Y-169439417D03*
%TD*%
D14*
%TO.P,R-S16,1,1*%
%TO.N,R-COL4*%
X266227703Y-144224394D03*
%TO.P,R-S16,2,2*%
%TO.N,Net-(R-D16-A)*%
X254889619Y-142909918D03*
%TD*%
D11*
%TO.P,L-S15,1,1*%
%TO.N,L-COL3*%
X142099241Y-130562983D03*
%TO.P,L-S15,2,2*%
%TO.N,Net-(L-D15-A)*%
X130960668Y-128070555D03*
%TD*%
D13*
%TO.P,L-S17,1,1*%
%TO.N,L-COL5*%
X178365329Y-146946925D03*
%TO.P,L-S17,2,2*%
%TO.N,Net-(L-D17-A)*%
X167372465Y-143874965D03*
%TD*%
D16*
%TO.P,R-BAT+1,1,BAT+*%
%TO.N,R-VBAT*%
X281189000Y-148620800D03*
%TD*%
D12*
%TO.P,R-S20,1,1*%
%TO.N,R-COL5*%
X228271067Y-178040972D03*
%TO.P,R-S20,2,2*%
%TO.N,Net-(R-D20-A)*%
X216866944Y-178516346D03*
%TD*%
D13*
%TO.P,R-S12,1,1*%
%TO.N,R-COL0*%
X339084806Y-154086703D03*
%TO.P,R-S12,2,2*%
%TO.N,Net-(R-D12-A)*%
X328091942Y-151014743D03*
%TD*%
D18*
%TO.P,R-PSW1,*%
%TO.N,*%
X342575000Y-170753461D03*
X342525000Y-173753461D03*
%TD*%
D15*
%TO.P,R-S15,1,1*%
%TO.N,R-COL3*%
X284095208Y-130138917D03*
%TO.P,R-S15,2,2*%
%TO.N,Net-(R-D15-A)*%
X272841456Y-128232852D03*
%TD*%
D18*
%TO.P,L-PSW1,*%
%TO.N,*%
X67425000Y-173503461D03*
X67475000Y-170503461D03*
%TD*%
D11*
%TO.P,R-S2,1,1*%
%TO.N,R-COL2*%
X303958074Y-98956736D03*
%TO.P,R-S2,2,2*%
%TO.N,Net-(R-D2-A)*%
X292819501Y-96464308D03*
%TD*%
D13*
%TO.P,R-S1,1,1*%
%TO.N,R-COL1*%
X323544822Y-115749268D03*
%TO.P,R-S1,2,2*%
%TO.N,Net-(R-D1-A)*%
X312551958Y-112677308D03*
%TD*%
D14*
%TO.P,L-S0,1,1*%
%TO.N,L-COL0*%
X84162268Y-115929723D03*
%TO.P,L-S0,2,2*%
%TO.N,Net-(L-D0-A)*%
X72824184Y-114615247D03*
%TD*%
%TO.P,R-S5,1,1*%
%TO.N,R-COL5*%
X244881745Y-108789946D03*
%TO.P,R-S5,2,2*%
%TO.N,Net-(R-D5-A)*%
X233543661Y-107475470D03*
%TD*%
D15*
%TO.P,L-S8,1,1*%
%TO.N,L-COL2*%
X122720649Y-117026330D03*
%TO.P,L-S8,2,2*%
%TO.N,Net-(L-D8-A)*%
X111466897Y-115120265D03*
%TD*%
%TO.P,L-S2,1,1*%
%TO.N,L-COL2*%
X122236375Y-98532670D03*
%TO.P,L-S2,2,2*%
%TO.N,Net-(L-D2-A)*%
X110982623Y-96626605D03*
%TD*%
D16*
%TO.P,L-BAT+1,1,BAT+*%
%TO.N,L-VBAT*%
X133811000Y-148529800D03*
%TD*%
D13*
%TO.P,R-S6,1,1*%
%TO.N,R-COL0*%
X340536300Y-135643732D03*
%TO.P,R-S6,2,2*%
%TO.N,Net-(R-D6-A)*%
X329543436Y-132571772D03*
%TD*%
D16*
%TO.P,L-GND1,1,GND*%
%TO.N,L-GND*%
X139811000Y-148529800D03*
%TD*%
D11*
%TO.P,R-S8,1,1*%
%TO.N,R-COL2*%
X303473800Y-117450396D03*
%TO.P,R-S8,2,2*%
%TO.N,Net-(R-D8-A)*%
X292335227Y-114957968D03*
%TD*%
%TO.P,L-S3,1,1*%
%TO.N,L-COL3*%
X143067788Y-93575661D03*
%TO.P,L-S3,2,2*%
%TO.N,Net-(L-D3-A)*%
X131929215Y-91083233D03*
%TD*%
D16*
%TO.P,R-GND1,1,GND*%
%TO.N,R-GND*%
X275189000Y-148620800D03*
%TD*%
D17*
%TO.P,L-S20,1,1*%
%TO.N,L-COL5*%
X197481326Y-181822787D03*
%TO.P,L-S20,2,2*%
%TO.N,Net-(L-D20-A)*%
X187104363Y-177068985D03*
%TD*%
D13*
%TO.P,L-S5,1,1*%
%TO.N,L-COL5*%
X181268316Y-110060984D03*
%TO.P,L-S5,2,2*%
%TO.N,Net-(L-D5-A)*%
X170275452Y-106989024D03*
%TD*%
D14*
%TO.P,L-S13,1,1*%
%TO.N,L-COL1*%
X105508225Y-151364171D03*
%TO.P,L-S13,2,2*%
%TO.N,Net-(L-D13-A)*%
X94170141Y-150049695D03*
%TD*%
D17*
%TO.P,L-S18,1,1*%
%TO.N,L-COL3*%
X161503639Y-173185309D03*
%TO.P,L-S18,2,2*%
%TO.N,Net-(L-D18-A)*%
X151126676Y-168431507D03*
%TD*%
D13*
%TO.P,L-S11,1,1*%
%TO.N,L-COL5*%
X179816822Y-128503954D03*
%TO.P,L-S11,2,2*%
%TO.N,Net-(L-D11-A)*%
X168823958Y-125431994D03*
%TD*%
D19*
%TO.P,R-D16,1,K*%
%TO.N,R-ROW2*%
X260686943Y-155393548D03*
%TO.P,R-D16,2,A*%
%TO.N,Net-(R-D16-A)*%
X257297425Y-155660308D03*
%TD*%
D20*
%TO.P,L-D11,1,K*%
%TO.N,L-ROW1*%
X172597045Y-138668831D03*
%TO.P,L-D11,2,A*%
%TO.N,Net-(L-D11-A)*%
X169207527Y-138402071D03*
%TD*%
D19*
%TO.P,L-D6,1,K*%
%TO.N,L-ROW1*%
X80072996Y-145541849D03*
%TO.P,L-D6,2,A*%
%TO.N,Net-(L-D6-A)*%
X76683478Y-145808609D03*
%TD*%
D20*
%TO.P,R-D13,1,K*%
%TO.N,R-ROW2*%
X313422058Y-162800086D03*
%TO.P,R-D13,2,A*%
%TO.N,Net-(R-D13-A)*%
X310032540Y-162533326D03*
%TD*%
D21*
%TO.P,R-D15,1,K*%
%TO.N,R-ROW2*%
X277977494Y-141002782D03*
%TO.P,R-D15,2,A*%
%TO.N,Net-(R-D15-A)*%
X274578660Y-141091784D03*
%TD*%
%TO.P,L-D8,1,K*%
%TO.N,L-ROW1*%
X116602935Y-127890196D03*
%TO.P,L-D8,2,A*%
%TO.N,Net-(L-D8-A)*%
X113204101Y-127979198D03*
%TD*%
D19*
%TO.P,R-D17,1,K*%
%TO.N,R-ROW2*%
X242243979Y-156845041D03*
%TO.P,R-D17,2,A*%
%TO.N,Net-(R-D17-A)*%
X238854461Y-157111801D03*
%TD*%
%TO.P,L-D7,1,K*%
%TO.N,L-ROW1*%
X98515973Y-144090355D03*
%TO.P,L-D7,2,A*%
%TO.N,Net-(L-D7-A)*%
X95126455Y-144357115D03*
%TD*%
D20*
%TO.P,R-D1,1,K*%
%TO.N,R-ROW0*%
X316325045Y-125914145D03*
%TO.P,R-D1,2,A*%
%TO.N,Net-(R-D1-A)*%
X312935527Y-125647385D03*
%TD*%
D22*
%TO.P,L-D19,1,K*%
%TO.N,L-ROW3*%
X167465392Y-185620642D03*
%TO.P,L-D19,2,A*%
%TO.N,Net-(L-D19-A)*%
X170771450Y-186414356D03*
%TD*%
D20*
%TO.P,L-D4,1,K*%
%TO.N,L-ROW0*%
X155605561Y-118774367D03*
%TO.P,L-D4,2,A*%
%TO.N,Net-(L-D4-A)*%
X152216043Y-118507607D03*
%TD*%
D19*
%TO.P,L-D1,1,K*%
%TO.N,L-ROW0*%
X97064473Y-125647385D03*
%TO.P,L-D1,2,A*%
%TO.N,Net-(L-D1-A)*%
X93674955Y-125914145D03*
%TD*%
D23*
%TO.P,R-D20,1,K*%
%TO.N,R-ROW3*%
X224545762Y-189939381D03*
%TO.P,R-D20,2,A*%
%TO.N,Net-(R-D20-A)*%
X221239704Y-190733095D03*
%TD*%
D21*
%TO.P,R-D9,1,K*%
%TO.N,R-ROW1*%
X277493220Y-122509121D03*
%TO.P,R-D9,2,A*%
%TO.N,Net-(R-D9-A)*%
X274094386Y-122598123D03*
%TD*%
D24*
%TO.P,R-D14,1,K*%
%TO.N,R-ROW2*%
X296311626Y-146472858D03*
%TO.P,R-D14,2,A*%
%TO.N,Net-(R-D14-A)*%
X292912792Y-146383856D03*
%TD*%
D21*
%TO.P,R-D03,1,K*%
%TO.N,R-ROW0*%
X277008947Y-104015461D03*
%TO.P,R-D03,2,A*%
%TO.N,Net-(R-D03-A)*%
X273610113Y-104104463D03*
%TD*%
D23*
%TO.P,R-D19,1,K*%
%TO.N,R-ROW3*%
X242534606Y-185620642D03*
%TO.P,R-D19,2,A*%
%TO.N,Net-(R-D19-A)*%
X239228548Y-186414356D03*
%TD*%
%TO.P,R-D18,1,K*%
%TO.N,R-ROW3*%
X260523454Y-181301902D03*
%TO.P,R-D18,2,A*%
%TO.N,Net-(R-D18-A)*%
X257217396Y-182095616D03*
%TD*%
D24*
%TO.P,L-D9,1,K*%
%TO.N,L-ROW1*%
X135905614Y-122598124D03*
%TO.P,L-D9,2,A*%
%TO.N,Net-(L-D9-A)*%
X132506780Y-122509122D03*
%TD*%
%TO.P,L-D3,1,K*%
%TO.N,L-ROW0*%
X136389887Y-104104463D03*
%TO.P,L-D3,2,A*%
%TO.N,Net-(L-D3-A)*%
X132991053Y-104015461D03*
%TD*%
D19*
%TO.P,L-D12,1,K*%
%TO.N,L-ROW2*%
X81524495Y-163984819D03*
%TO.P,L-D12,2,A*%
%TO.N,Net-(L-D12-A)*%
X78134977Y-164251579D03*
%TD*%
D22*
%TO.P,L-D20,1,K*%
%TO.N,L-ROW3*%
X185454238Y-189939381D03*
%TO.P,L-D20,2,A*%
%TO.N,Net-(L-D20-A)*%
X188760296Y-190733095D03*
%TD*%
D19*
%TO.P,R-D5,1,K*%
%TO.N,R-ROW0*%
X239340986Y-119959100D03*
%TO.P,R-D5,2,A*%
%TO.N,Net-(R-D5-A)*%
X235951468Y-120225860D03*
%TD*%
D20*
%TO.P,L-D17,1,K*%
%TO.N,L-ROW2*%
X171145545Y-157111801D03*
%TO.P,L-D17,2,A*%
%TO.N,Net-(L-D17-A)*%
X167756027Y-156845041D03*
%TD*%
D21*
%TO.P,L-D14,1,K*%
%TO.N,L-ROW2*%
X117087208Y-146383856D03*
%TO.P,L-D14,2,A*%
%TO.N,Net-(L-D14-A)*%
X113688374Y-146472858D03*
%TD*%
D19*
%TO.P,R-D11,1,K*%
%TO.N,R-ROW1*%
X240792473Y-138402071D03*
%TO.P,R-D11,2,A*%
%TO.N,Net-(R-D11-A)*%
X237402955Y-138668831D03*
%TD*%
D24*
%TO.P,L-D15,1,K*%
%TO.N,L-ROW2*%
X135421359Y-141091784D03*
%TO.P,L-D15,2,A*%
%TO.N,Net-(L-D15-A)*%
X132022525Y-141002782D03*
%TD*%
%TO.P,R-D2,1,K*%
%TO.N,R-ROW0*%
X297280173Y-109485537D03*
%TO.P,R-D2,2,A*%
%TO.N,Net-(R-D2-A)*%
X293881339Y-109396535D03*
%TD*%
%TO.P,R-D8,1,K*%
%TO.N,R-ROW1*%
X296795899Y-127979198D03*
%TO.P,R-D8,2,A*%
%TO.N,Net-(R-D8-A)*%
X293397065Y-127890196D03*
%TD*%
D21*
%TO.P,L-D2,1,K*%
%TO.N,L-ROW0*%
X116118661Y-109396535D03*
%TO.P,L-D2,2,A*%
%TO.N,Net-(L-D2-A)*%
X112719827Y-109485537D03*
%TD*%
D19*
%TO.P,R-D4,1,K*%
%TO.N,R-ROW0*%
X257783957Y-118507607D03*
%TO.P,R-D4,2,A*%
%TO.N,Net-(R-D4-A)*%
X254394439Y-118774367D03*
%TD*%
D20*
%TO.P,R-D7,1,K*%
%TO.N,R-ROW1*%
X314873546Y-144357115D03*
%TO.P,R-D7,2,A*%
%TO.N,Net-(R-D7-A)*%
X311484028Y-144090355D03*
%TD*%
%TO.P,L-D16,1,K*%
%TO.N,L-ROW2*%
X152702575Y-155660308D03*
%TO.P,L-D16,2,A*%
%TO.N,Net-(L-D16-A)*%
X149313057Y-155393548D03*
%TD*%
D19*
%TO.P,L-D13,1,K*%
%TO.N,L-ROW2*%
X99967466Y-162533325D03*
%TO.P,L-D13,2,A*%
%TO.N,Net-(L-D13-A)*%
X96577948Y-162800085D03*
%TD*%
D20*
%TO.P,R-D12,1,K*%
%TO.N,R-ROW2*%
X331865023Y-164251579D03*
%TO.P,R-D12,2,A*%
%TO.N,Net-(R-D12-A)*%
X328475505Y-163984819D03*
%TD*%
D22*
%TO.P,L-D18,1,K*%
%TO.N,L-ROW3*%
X149476551Y-181301903D03*
%TO.P,L-D18,2,A*%
%TO.N,Net-(L-D18-A)*%
X152782609Y-182095617D03*
%TD*%
D19*
%TO.P,R-D10,1,K*%
%TO.N,R-ROW1*%
X259235450Y-136950578D03*
%TO.P,R-D10,2,A*%
%TO.N,Net-(R-D10-A)*%
X255845932Y-137217338D03*
%TD*%
D25*
%TO.P,U2,1,P0.02_A0_D0*%
%TO.N,R-COL0*%
X275556527Y-175604321D03*
%TO.P,U2,2,P0.03_A1_D1*%
%TO.N,R-COL1*%
X275357241Y-173072151D03*
%TO.P,U2,3,P0.28_A2_D2*%
%TO.N,R-COL2*%
X275157955Y-170539981D03*
%TO.P,U2,4,P0.29_A3_D3*%
%TO.N,R-ROW0*%
X274958669Y-168007811D03*
%TO.P,U2,5,P0.04_A4_D4_SDA*%
%TO.N,R-ROW1*%
X274759383Y-165475641D03*
%TO.P,U2,6,P0.05_A5_D5_SCL*%
%TO.N,unconnected-(U2-P0.05_A5_D5_SCL-Pad6)*%
X274560097Y-162943471D03*
%TO.P,U2,7,P1.11_D6_TX*%
%TO.N,unconnected-(U2-P1.11_D6_TX-Pad7)*%
X274360811Y-160411301D03*
%TO.P,U2,8,P1.12_D7_RX*%
%TO.N,R-ROW3*%
X292484768Y-158984915D03*
%TO.P,U2,9,P1.13_D8_SCK*%
%TO.N,R-ROW2*%
X292684054Y-161517085D03*
%TO.P,U2,10,P1.14_D9_MISO*%
%TO.N,R-COL5*%
X292883340Y-164049255D03*
%TO.P,U2,11,P1.15_D10_MOSI*%
%TO.N,R-COL4*%
X293082626Y-166581425D03*
%TO.P,U2,12,3V3*%
%TO.N,R-COL3*%
X293281912Y-169113595D03*
%TO.P,U2,13,GND*%
%TO.N,R-GND*%
X293481198Y-171645765D03*
%TO.P,U2,14,5V*%
%TO.N,unconnected-(U2-5V-Pad14)*%
X293680484Y-174177935D03*
%TD*%
D19*
%TO.P,L-D0,1,K*%
%TO.N,L-ROW0*%
X78621509Y-127098878D03*
%TO.P,L-D0,2,A*%
%TO.N,Net-(L-D0-A)*%
X75231991Y-127365638D03*
%TD*%
D20*
%TO.P,L-D10,1,K*%
%TO.N,L-ROW1*%
X154154068Y-137217337D03*
%TO.P,L-D10,2,A*%
%TO.N,Net-(L-D10-A)*%
X150764550Y-136950577D03*
%TD*%
%TO.P,R-D0,1,K*%
%TO.N,R-ROW0*%
X334768009Y-127365638D03*
%TO.P,R-D0,2,A*%
%TO.N,Net-(R-D0-A)*%
X331378491Y-127098878D03*
%TD*%
%TO.P,R-D6,1,K*%
%TO.N,R-ROW1*%
X333316516Y-145808609D03*
%TO.P,R-D6,2,A*%
%TO.N,Net-(R-D6-A)*%
X329926998Y-145541849D03*
%TD*%
%TO.P,L-D5,1,K*%
%TO.N,L-ROW0*%
X174048532Y-120225860D03*
%TO.P,L-D5,2,A*%
%TO.N,Net-(L-D5-A)*%
X170659014Y-119959100D03*
%TD*%
D26*
%TO.N,L-ROW0*%
X112299552Y-161963603D02*
X116917374Y-166581425D01*
X112299552Y-138446754D02*
X112299552Y-161963603D01*
X97064473Y-125647385D02*
X99500183Y-125647385D01*
X99500183Y-125647385D02*
X112299552Y-138446754D01*
X95696095Y-127015763D02*
X97064473Y-125647385D01*
X77776346Y-127015763D02*
X95696095Y-127015763D01*
X77776346Y-127015763D02*
X77600000Y-126839417D01*
X172845507Y-120225860D02*
X174048532Y-120225860D01*
X171394014Y-118774367D02*
X172845507Y-120225860D01*
X155605561Y-118774367D02*
X171394014Y-118774367D01*
X140935657Y-104104463D02*
X155605561Y-118774367D01*
X136389887Y-104104463D02*
X140935657Y-104104463D01*
X120431332Y-105083864D02*
X135410486Y-105083864D01*
X135410486Y-105083864D02*
X136389887Y-104104463D01*
X116118661Y-109396535D02*
X120431332Y-105083864D01*
X114975779Y-110539417D02*
X116118661Y-109396535D01*
X97967256Y-125647385D02*
X113075224Y-110539417D01*
X113075224Y-110539417D02*
X114975779Y-110539417D01*
X97064473Y-125647385D02*
X97967256Y-125647385D01*
%TD*%
M02*
