  0
SECTION
  2
HEADER
  9
$ANGBASE
  50
0.0
  9
$ANGDIR
  70
1
  9
$MEASUREMENT
  70
1
  0
ENDSEC
  0
SECTION
  2
TABLES
  0
TABLE
  2
LTYPE
  70
4
  0
LTYPE
  5
40F
  2
CONTINUOUS
  70
0
  3
Solid line
  72
65
  73
0
  40
0.0
  0
LTYPE
  5
410
  2
DASHDOT
 70
0
  3
Dash Dot ____ _ ____ _
 72
65
 73
4
 40
2.0
 49
1.25
 49
-0.25
 49
0.25
 49
-0.25
  0
LTYPE
  5
411
  2
DASHED
 70
0
  3
Dashed __ __ __ __ __
 72
65
 73
2
 40
0.75
 49
0.5
 49
-0.25
  0
LTYPE
  5
43B
  2
DOTTED
 70
0
  3
Dotted .  .  .  .
 72
65
 73
2
 40
0.2
 49
0.0
 49
-0.2
  0
ENDTAB
  0
TABLE
  2
STYLE
  70
4
  0
STYLE
  2
KICAD
  70
0
  40
0
  41
1
  42
1
  50
0
  71
0
  3
isocp.shx
  0
STYLE
  2
KICADB
  70
0
  40
0
  41
1
  42
1
  50
0
  71
0
  3
isocp.shx
  0
STYLE
  2
KICADI
  70
0
  40
0
  41
1
  42
1
  50
15
  71
0
  3
isocp.shx
  0
STYLE
  2
KICADBI
  70
0
  40
0
  41
1
  42
1
  50
15
  71
0
  3
isocp.shx
  0
ENDTAB
  0
TABLE
  2
LAYER
  70
1
  0
LAYER
  2
BLACK
  70
0
  62
7
  6
CONTINUOUS
  0
ENDTAB
  0
ENDSEC
  0
SECTION
  2
ENTITIES
0
LINE
8
BLACK
6
CONTINUOUS
10
-171.3631330000000048
20
-25.6224910000000001
11
-171.2820269999999994
21
-25.6766839999999981
0
LINE
8
BLACK
6
CONTINUOUS
10
-171.2820269999999994
20
-25.6766839999999981
11
-171.2278340000000014
21
-25.75779
0
LINE
8
BLACK
6
CONTINUOUS
10
-171.2278340000000014
20
-25.75779
11
-171.2088039999999864
21
-25.8534609999999994
0
LINE
8
BLACK
6
CONTINUOUS
10
-171.2088039999999864
20
-25.8534609999999994
11
-171.2088039999999864
21
-26.3534609999999994
0
LINE
8
BLACK
6
CONTINUOUS
10
-171.2088039999999864
20
-26.3534609999999994
11
-171.2278340000000014
21
-26.4491319999999988
0
LINE
8
BLACK
6
CONTINUOUS
10
-171.2278340000000014
20
-26.4491319999999988
11
-171.2820269999999994
21
-26.5302379999999971
0
LINE
8
BLACK
6
CONTINUOUS
10
-171.2820269999999994
20
-26.5302379999999971
11
-171.3631330000000048
21
-26.5844309999999986
0
LINE
8
BLACK
6
CONTINUOUS
10
-171.3631330000000048
20
-26.5844309999999986
11
-171.4588039999999864
21
-26.6034609999999994
0
LINE
8
BLACK
6
CONTINUOUS
10
-171.4588039999999864
20
-26.6034609999999994
11
-173.7588039999999978
21
-26.6034609999999994
0
LINE
8
BLACK
6
CONTINUOUS
10
-173.7588039999999978
20
-26.6034609999999994
11
-173.8544749999999794
21
-26.5844309999999986
0
LINE
8
BLACK
6
CONTINUOUS
10
-173.8544749999999794
20
-26.5844309999999986
11
-173.9355809999999849
21
-26.5302379999999971
0
LINE
8
BLACK
6
CONTINUOUS
10
-173.9355809999999849
20
-26.5302379999999971
11
-173.9897739999999828
21
-26.4491319999999988
0
LINE
8
BLACK
6
CONTINUOUS
10
-173.9897739999999828
20
-26.4491319999999988
11
-174.0088039999999978
21
-26.3534609999999994
0
LINE
8
BLACK
6
CONTINUOUS
10
-174.0088039999999978
20
-26.3534609999999994
11
-174.0088039999999978
21
-25.8534609999999994
0
LINE
8
BLACK
6
CONTINUOUS
10
-174.0088039999999978
20
-25.8534609999999994
11
-173.9897739999999828
21
-25.75779
0
LINE
8
BLACK
6
CONTINUOUS
10
-173.9897739999999828
20
-25.75779
11
-173.9355809999999849
21
-25.6766839999999981
0
LINE
8
BLACK
6
CONTINUOUS
10
-173.9355809999999849
20
-25.6766839999999981
11
-173.8544749999999794
21
-25.6224910000000001
0
LINE
8
BLACK
6
CONTINUOUS
10
-173.8544749999999794
20
-25.6224910000000001
11
-173.7588039999999978
21
-25.6034609999999994
0
LINE
8
BLACK
6
CONTINUOUS
10
-173.7588039999999978
20
-25.6034609999999994
11
-171.4588039999999864
21
-25.6034609999999994
0
LINE
8
BLACK
6
CONTINUOUS
10
-171.4588039999999864
20
-25.6034609999999994
11
-171.3631330000000048
21
-25.6224910000000001
0
LINE
8
BLACK
6
CONTINUOUS
10
103.8544899999999984
20
-25.6200709999999994
11
103.9355959999999897
21
-25.6742639999999973
0
LINE
8
BLACK
6
CONTINUOUS
10
103.9355959999999897
20
-25.6742639999999973
11
103.9897890000000018
21
-25.7553699999999992
0
LINE
8
BLACK
6
CONTINUOUS
10
103.9897890000000018
20
-25.7553699999999992
11
104.0088189999999884
21
-25.8510409999999986
0
LINE
8
BLACK
6
CONTINUOUS
10
104.0088189999999884
20
-25.8510409999999986
11
104.0088189999999884
21
-26.3510409999999986
0
LINE
8
BLACK
6
CONTINUOUS
10
104.0088189999999884
20
-26.3510409999999986
11
103.9897890000000018
21
-26.446711999999998
0
LINE
8
BLACK
6
CONTINUOUS
10
103.9897890000000018
20
-26.446711999999998
11
103.9355959999999897
21
-26.5278179999999999
0
LINE
8
BLACK
6
CONTINUOUS
10
103.9355959999999897
20
-26.5278179999999999
11
103.8544899999999984
21
-26.5820109999999978
0
LINE
8
BLACK
6
CONTINUOUS
10
103.8544899999999984
20
-26.5820109999999978
11
103.7588189999999884
21
-26.6010409999999986
0
LINE
8
BLACK
6
CONTINUOUS
10
103.7588189999999884
20
-26.6010409999999986
11
101.4588189999999912
21
-26.6010409999999986
0
LINE
8
BLACK
6
CONTINUOUS
10
101.4588189999999912
20
-26.6010409999999986
11
101.3631479999999954
21
-26.5820109999999978
0
LINE
8
BLACK
6
CONTINUOUS
10
101.3631479999999954
20
-26.5820109999999978
11
101.2820419999999899
21
-26.5278179999999999
0
LINE
8
BLACK
6
CONTINUOUS
10
101.2820419999999899
20
-26.5278179999999999
11
101.227848999999992
21
-26.446711999999998
0
LINE
8
BLACK
6
CONTINUOUS
10
101.227848999999992
20
-26.446711999999998
11
101.2088189999999912
21
-26.3510409999999986
0
LINE
8
BLACK
6
CONTINUOUS
10
101.2088189999999912
20
-26.3510409999999986
11
101.2088189999999912
21
-25.8510409999999986
0
LINE
8
BLACK
6
CONTINUOUS
10
101.2088189999999912
20
-25.8510409999999986
11
101.227848999999992
21
-25.7553699999999992
0
LINE
8
BLACK
6
CONTINUOUS
10
101.227848999999992
20
-25.7553699999999992
11
101.2820419999999899
21
-25.6742639999999973
0
LINE
8
BLACK
6
CONTINUOUS
10
101.2820419999999899
20
-25.6742639999999973
11
101.3631479999999954
21
-25.6200709999999994
0
LINE
8
BLACK
6
CONTINUOUS
10
101.3631479999999954
20
-25.6200709999999994
11
101.4588189999999912
21
-25.6010409999999986
0
LINE
8
BLACK
6
CONTINUOUS
10
101.4588189999999912
20
-25.6010409999999986
11
103.7588189999999884
21
-25.6010409999999986
0
LINE
8
BLACK
6
CONTINUOUS
10
103.7588189999999884
20
-25.6010409999999986
11
103.8544899999999984
21
-25.6200709999999994
0
LINE
8
BLACK
6
CONTINUOUS
10
101.1007889999999918
20
-24.1643620000000006
11
101.1575629999999961
21
-24.202296999999998
0
LINE
8
BLACK
6
CONTINUOUS
10
101.1575629999999961
20
-24.202296999999998
11
101.1954980000000006
21
-24.2590709999999987
0
LINE
8
BLACK
6
CONTINUOUS
10
101.1954980000000006
20
-24.2590709999999987
11
101.2088189999999912
21
-24.326041
0
LINE
8
BLACK
6
CONTINUOUS
10
101.2088189999999912
20
-24.326041
11
101.2088189999999912
21
-24.6760409999999979
0
LINE
8
BLACK
6
CONTINUOUS
10
101.2088189999999912
20
-24.6760409999999979
11
101.1954980000000006
21
-24.7430109999999992
0
LINE
8
BLACK
6
CONTINUOUS
10
101.1954980000000006
20
-24.7430109999999992
11
101.1575629999999961
21
-24.799785
0
LINE
8
BLACK
6
CONTINUOUS
10
101.1575629999999961
20
-24.799785
11
101.1007889999999918
21
-24.8377199999999974
0
LINE
8
BLACK
6
CONTINUOUS
10
101.1007889999999918
20
-24.8377199999999974
11
101.033818999999994
21
-24.8510409999999986
0
LINE
8
BLACK
6
CONTINUOUS
10
101.033818999999994
20
-24.8510409999999986
11
100.3838189999999884
21
-24.8510409999999986
0
LINE
8
BLACK
6
CONTINUOUS
10
100.3838189999999884
20
-24.8510409999999986
11
100.3168489999999906
21
-24.8377199999999974
0
LINE
8
BLACK
6
CONTINUOUS
10
100.3168489999999906
20
-24.8377199999999974
11
100.2600750000000005
21
-24.799785
0
LINE
8
BLACK
6
CONTINUOUS
10
100.2600750000000005
20
-24.799785
11
100.222139999999996
21
-24.7430109999999992
0
LINE
8
BLACK
6
CONTINUOUS
10
100.222139999999996
20
-24.7430109999999992
11
100.2088189999999912
21
-24.6760409999999979
0
LINE
8
BLACK
6
CONTINUOUS
10
100.2088189999999912
20
-24.6760409999999979
11
100.2088189999999912
21
-24.326041
0
LINE
8
BLACK
6
CONTINUOUS
10
100.2088189999999912
20
-24.326041
11
100.222139999999996
21
-24.2590709999999987
0
LINE
8
BLACK
6
CONTINUOUS
10
100.222139999999996
20
-24.2590709999999987
11
100.2600750000000005
21
-24.202296999999998
0
LINE
8
BLACK
6
CONTINUOUS
10
100.2600750000000005
20
-24.202296999999998
11
100.3168489999999906
21
-24.1643620000000006
0
LINE
8
BLACK
6
CONTINUOUS
10
100.3168489999999906
20
-24.1643620000000006
11
100.3838189999999884
21
-24.1510409999999993
0
LINE
8
BLACK
6
CONTINUOUS
10
100.3838189999999884
20
-24.1510409999999993
11
101.033818999999994
21
-24.1510409999999993
0
LINE
8
BLACK
6
CONTINUOUS
10
101.033818999999994
20
-24.1510409999999993
11
101.1007889999999918
21
-24.1643620000000006
0
LINE
8
BLACK
6
CONTINUOUS
10
-170.3168340000000001
20
-23.9167819999999978
11
-170.2600599999999815
21
-23.9547169999999987
0
LINE
8
BLACK
6
CONTINUOUS
10
-170.2600599999999815
20
-23.9547169999999987
11
-170.2221250000000055
21
-24.0114909999999995
0
LINE
8
BLACK
6
CONTINUOUS
10
-170.2221250000000055
20
-24.0114909999999995
11
-170.2088039999999864
21
-24.0784609999999972
0
LINE
8
BLACK
6
CONTINUOUS
10
-170.2088039999999864
20
-24.0784609999999972
11
-170.2088039999999864
21
-24.4284609999999986
0
LINE
8
BLACK
6
CONTINUOUS
10
-170.2088039999999864
20
-24.4284609999999986
11
-170.2221250000000055
21
-24.495431
0
LINE
8
BLACK
6
CONTINUOUS
10
-170.2221250000000055
20
-24.495431
11
-170.2600599999999815
21
-24.5522049999999972
0
LINE
8
BLACK
6
CONTINUOUS
10
-170.2600599999999815
20
-24.5522049999999972
11
-170.3168340000000001
21
-24.5901399999999981
0
LINE
8
BLACK
6
CONTINUOUS
10
-170.3168340000000001
20
-24.5901399999999981
11
-170.3838039999999978
21
-24.6034609999999994
0
LINE
8
BLACK
6
CONTINUOUS
10
-170.3838039999999978
20
-24.6034609999999994
11
-171.0338040000000035
21
-24.6034609999999994
0
LINE
8
BLACK
6
CONTINUOUS
10
-171.0338040000000035
20
-24.6034609999999994
11
-171.1007740000000013
21
-24.5901399999999981
0
LINE
8
BLACK
6
CONTINUOUS
10
-171.1007740000000013
20
-24.5901399999999981
11
-171.1575479999999914
21
-24.5522049999999972
0
LINE
8
BLACK
6
CONTINUOUS
10
-171.1575479999999914
20
-24.5522049999999972
11
-171.1954829999999959
21
-24.495431
0
LINE
8
BLACK
6
CONTINUOUS
10
-171.1954829999999959
20
-24.495431
11
-171.2088039999999864
21
-24.4284609999999986
0
LINE
8
BLACK
6
CONTINUOUS
10
-171.2088039999999864
20
-24.4284609999999986
11
-171.2088039999999864
21
-24.0784609999999972
0
LINE
8
BLACK
6
CONTINUOUS
10
-171.2088039999999864
20
-24.0784609999999972
11
-171.1954829999999959
21
-24.0114909999999995
0
LINE
8
BLACK
6
CONTINUOUS
10
-171.1954829999999959
20
-24.0114909999999995
11
-171.1575479999999914
21
-23.9547169999999987
0
LINE
8
BLACK
6
CONTINUOUS
10
-171.1575479999999914
20
-23.9547169999999987
11
-171.1007740000000013
21
-23.9167819999999978
0
LINE
8
BLACK
6
CONTINUOUS
10
-171.1007740000000013
20
-23.9167819999999978
11
-171.0338040000000035
21
-23.9034610000000001
0
LINE
8
BLACK
6
CONTINUOUS
10
-171.0338040000000035
20
-23.9034610000000001
11
-170.3838039999999978
21
-23.9034610000000001
0
LINE
8
BLACK
6
CONTINUOUS
10
-170.3838039999999978
20
-23.9034610000000001
11
-170.3168340000000001
21
-23.9167819999999978
0
LINE
8
BLACK
6
CONTINUOUS
10
-170.3168340000000001
20
-22.4167819999999978
11
-170.2600599999999815
21
-22.4547169999999987
0
LINE
8
BLACK
6
CONTINUOUS
10
-170.2600599999999815
20
-22.4547169999999987
11
-170.2221250000000055
21
-22.5114909999999995
0
LINE
8
BLACK
6
CONTINUOUS
10
-170.2221250000000055
20
-22.5114909999999995
11
-170.2088039999999864
21
-22.5784609999999972
0
LINE
8
BLACK
6
CONTINUOUS
10
-170.2088039999999864
20
-22.5784609999999972
11
-170.2088039999999864
21
-22.9284609999999986
0
LINE
8
BLACK
6
CONTINUOUS
10
-170.2088039999999864
20
-22.9284609999999986
11
-170.2221250000000055
21
-22.995431
0
LINE
8
BLACK
6
CONTINUOUS
10
-170.2221250000000055
20
-22.995431
11
-170.2600599999999815
21
-23.0522050000000007
0
LINE
8
BLACK
6
CONTINUOUS
10
-170.2600599999999815
20
-23.0522050000000007
11
-170.3168340000000001
21
-23.0901399999999981
0
LINE
8
BLACK
6
CONTINUOUS
10
-170.3168340000000001
20
-23.0901399999999981
11
-170.3838039999999978
21
-23.1034609999999994
0
LINE
8
BLACK
6
CONTINUOUS
10
-170.3838039999999978
20
-23.1034609999999994
11
-171.0338040000000035
21
-23.1034609999999994
0
LINE
8
BLACK
6
CONTINUOUS
10
-171.0338040000000035
20
-23.1034609999999994
11
-171.1007740000000013
21
-23.0901399999999981
0
LINE
8
BLACK
6
CONTINUOUS
10
-171.1007740000000013
20
-23.0901399999999981
11
-171.1575479999999914
21
-23.0522050000000007
0
LINE
8
BLACK
6
CONTINUOUS
10
-171.1575479999999914
20
-23.0522050000000007
11
-171.1954829999999959
21
-22.995431
0
LINE
8
BLACK
6
CONTINUOUS
10
-171.1954829999999959
20
-22.995431
11
-171.2088039999999864
21
-22.9284609999999986
0
LINE
8
BLACK
6
CONTINUOUS
10
-171.2088039999999864
20
-22.9284609999999986
11
-171.2088039999999864
21
-22.5784609999999972
0
LINE
8
BLACK
6
CONTINUOUS
10
-171.2088039999999864
20
-22.5784609999999972
11
-171.1954829999999959
21
-22.5114909999999995
0
LINE
8
BLACK
6
CONTINUOUS
10
-171.1954829999999959
20
-22.5114909999999995
11
-171.1575479999999914
21
-22.4547169999999987
0
LINE
8
BLACK
6
CONTINUOUS
10
-171.1575479999999914
20
-22.4547169999999987
11
-171.1007740000000013
21
-22.4167819999999978
0
LINE
8
BLACK
6
CONTINUOUS
10
-171.1007740000000013
20
-22.4167819999999978
11
-171.0338040000000035
21
-22.4034610000000001
0
LINE
8
BLACK
6
CONTINUOUS
10
-171.0338040000000035
20
-22.4034610000000001
11
-170.3838039999999978
21
-22.4034610000000001
0
LINE
8
BLACK
6
CONTINUOUS
10
-170.3838039999999978
20
-22.4034610000000001
11
-170.3168340000000001
21
-22.4167819999999978
0
LINE
8
BLACK
6
CONTINUOUS
10
101.1007889999999918
20
-21.1643620000000006
11
101.1575629999999961
21
-21.202296999999998
0
LINE
8
BLACK
6
CONTINUOUS
10
101.1575629999999961
20
-21.202296999999998
11
101.1954980000000006
21
-21.2590709999999987
0
LINE
8
BLACK
6
CONTINUOUS
10
101.1954980000000006
20
-21.2590709999999987
11
101.2088189999999912
21
-21.326041
0
LINE
8
BLACK
6
CONTINUOUS
10
101.2088189999999912
20
-21.326041
11
101.2088189999999912
21
-21.6760409999999979
0
LINE
8
BLACK
6
CONTINUOUS
10
101.2088189999999912
20
-21.6760409999999979
11
101.1954980000000006
21
-21.7430109999999992
0
LINE
8
BLACK
6
CONTINUOUS
10
101.1954980000000006
20
-21.7430109999999992
11
101.1575629999999961
21
-21.799785
0
LINE
8
BLACK
6
CONTINUOUS
10
101.1575629999999961
20
-21.799785
11
101.1007889999999918
21
-21.8377199999999974
0
LINE
8
BLACK
6
CONTINUOUS
10
101.1007889999999918
20
-21.8377199999999974
11
101.033818999999994
21
-21.8510409999999986
0
LINE
8
BLACK
6
CONTINUOUS
10
101.033818999999994
20
-21.8510409999999986
11
100.3838189999999884
21
-21.8510409999999986
0
LINE
8
BLACK
6
CONTINUOUS
10
100.3838189999999884
20
-21.8510409999999986
11
100.3168489999999906
21
-21.8377199999999974
0
LINE
8
BLACK
6
CONTINUOUS
10
100.3168489999999906
20
-21.8377199999999974
11
100.2600750000000005
21
-21.799785
0
LINE
8
BLACK
6
CONTINUOUS
10
100.2600750000000005
20
-21.799785
11
100.222139999999996
21
-21.7430109999999992
0
LINE
8
BLACK
6
CONTINUOUS
10
100.222139999999996
20
-21.7430109999999992
11
100.2088189999999912
21
-21.6760409999999979
0
LINE
8
BLACK
6
CONTINUOUS
10
100.2088189999999912
20
-21.6760409999999979
11
100.2088189999999912
21
-21.326041
0
LINE
8
BLACK
6
CONTINUOUS
10
100.2088189999999912
20
-21.326041
11
100.222139999999996
21
-21.2590709999999987
0
LINE
8
BLACK
6
CONTINUOUS
10
100.222139999999996
20
-21.2590709999999987
11
100.2600750000000005
21
-21.202296999999998
0
LINE
8
BLACK
6
CONTINUOUS
10
100.2600750000000005
20
-21.202296999999998
11
100.3168489999999906
21
-21.1643620000000006
0
LINE
8
BLACK
6
CONTINUOUS
10
100.3168489999999906
20
-21.1643620000000006
11
100.3838189999999884
21
-21.1510409999999993
0
LINE
8
BLACK
6
CONTINUOUS
10
100.3838189999999884
20
-21.1510409999999993
11
101.033818999999994
21
-21.1510409999999993
0
LINE
8
BLACK
6
CONTINUOUS
10
101.033818999999994
20
-21.1510409999999993
11
101.1007889999999918
21
-21.1643620000000006
0
LINE
8
BLACK
6
CONTINUOUS
10
101.1007889999999918
20
-19.6643620000000006
11
101.1575629999999961
21
-19.702296999999998
0
LINE
8
BLACK
6
CONTINUOUS
10
101.1575629999999961
20
-19.702296999999998
11
101.1954980000000006
21
-19.7590709999999987
0
LINE
8
BLACK
6
CONTINUOUS
10
101.1954980000000006
20
-19.7590709999999987
11
101.2088189999999912
21
-19.826041
0
LINE
8
BLACK
6
CONTINUOUS
10
101.2088189999999912
20
-19.826041
11
101.2088189999999912
21
-20.1760409999999979
0
LINE
8
BLACK
6
CONTINUOUS
10
101.2088189999999912
20
-20.1760409999999979
11
101.1954980000000006
21
-20.2430109999999992
0
LINE
8
BLACK
6
CONTINUOUS
10
101.1954980000000006
20
-20.2430109999999992
11
101.1575629999999961
21
-20.299785
0
LINE
8
BLACK
6
CONTINUOUS
10
101.1575629999999961
20
-20.299785
11
101.1007889999999918
21
-20.3377199999999974
0
LINE
8
BLACK
6
CONTINUOUS
10
101.1007889999999918
20
-20.3377199999999974
11
101.033818999999994
21
-20.3510409999999986
0
LINE
8
BLACK
6
CONTINUOUS
10
101.033818999999994
20
-20.3510409999999986
11
100.3838189999999884
21
-20.3510409999999986
0
LINE
8
BLACK
6
CONTINUOUS
10
100.3838189999999884
20
-20.3510409999999986
11
100.3168489999999906
21
-20.3377199999999974
0
LINE
8
BLACK
6
CONTINUOUS
10
100.3168489999999906
20
-20.3377199999999974
11
100.2600750000000005
21
-20.299785
0
LINE
8
BLACK
6
CONTINUOUS
10
100.2600750000000005
20
-20.299785
11
100.222139999999996
21
-20.2430109999999992
0
LINE
8
BLACK
6
CONTINUOUS
10
100.222139999999996
20
-20.2430109999999992
11
100.2088189999999912
21
-20.1760409999999979
0
LINE
8
BLACK
6
CONTINUOUS
10
100.2088189999999912
20
-20.1760409999999979
11
100.2088189999999912
21
-19.826041
0
LINE
8
BLACK
6
CONTINUOUS
10
100.2088189999999912
20
-19.826041
11
100.222139999999996
21
-19.7590709999999987
0
LINE
8
BLACK
6
CONTINUOUS
10
100.222139999999996
20
-19.7590709999999987
11
100.2600750000000005
21
-19.702296999999998
0
LINE
8
BLACK
6
CONTINUOUS
10
100.2600750000000005
20
-19.702296999999998
11
100.3168489999999906
21
-19.6643620000000006
0
LINE
8
BLACK
6
CONTINUOUS
10
100.3168489999999906
20
-19.6643620000000006
11
100.3838189999999884
21
-19.6510409999999993
0
LINE
8
BLACK
6
CONTINUOUS
10
100.3838189999999884
20
-19.6510409999999993
11
101.033818999999994
21
-19.6510409999999993
0
LINE
8
BLACK
6
CONTINUOUS
10
101.033818999999994
20
-19.6510409999999993
11
101.1007889999999918
21
-19.6643620000000006
0
LINE
8
BLACK
6
CONTINUOUS
10
-170.3168340000000001
20
-19.4167819999999978
11
-170.2600599999999815
21
-19.4547169999999987
0
LINE
8
BLACK
6
CONTINUOUS
10
-170.2600599999999815
20
-19.4547169999999987
11
-170.2221250000000055
21
-19.5114909999999995
0
LINE
8
BLACK
6
CONTINUOUS
10
-170.2221250000000055
20
-19.5114909999999995
11
-170.2088039999999864
21
-19.5784610000000008
0
LINE
8
BLACK
6
CONTINUOUS
10
-170.2088039999999864
20
-19.5784610000000008
11
-170.2088039999999864
21
-19.9284609999999986
0
LINE
8
BLACK
6
CONTINUOUS
10
-170.2088039999999864
20
-19.9284609999999986
11
-170.2221250000000055
21
-19.995431
0
LINE
8
BLACK
6
CONTINUOUS
10
-170.2221250000000055
20
-19.995431
11
-170.2600599999999815
21
-20.0522050000000007
0
LINE
8
BLACK
6
CONTINUOUS
10
-170.2600599999999815
20
-20.0522050000000007
11
-170.3168340000000001
21
-20.0901399999999981
0
LINE
8
BLACK
6
CONTINUOUS
10
-170.3168340000000001
20
-20.0901399999999981
11
-170.3838039999999978
21
-20.1034609999999994
0
LINE
8
BLACK
6
CONTINUOUS
10
-170.3838039999999978
20
-20.1034609999999994
11
-171.0338040000000035
21
-20.1034609999999994
0
LINE
8
BLACK
6
CONTINUOUS
10
-171.0338040000000035
20
-20.1034609999999994
11
-171.1007740000000013
21
-20.0901399999999981
0
LINE
8
BLACK
6
CONTINUOUS
10
-171.1007740000000013
20
-20.0901399999999981
11
-171.1575479999999914
21
-20.0522050000000007
0
LINE
8
BLACK
6
CONTINUOUS
10
-171.1575479999999914
20
-20.0522050000000007
11
-171.1954829999999959
21
-19.995431
0
LINE
8
BLACK
6
CONTINUOUS
10
-171.1954829999999959
20
-19.995431
11
-171.2088039999999864
21
-19.9284609999999986
0
LINE
8
BLACK
6
CONTINUOUS
10
-171.2088039999999864
20
-19.9284609999999986
11
-171.2088039999999864
21
-19.5784610000000008
0
LINE
8
BLACK
6
CONTINUOUS
10
-171.2088039999999864
20
-19.5784610000000008
11
-171.1954829999999959
21
-19.5114909999999995
0
LINE
8
BLACK
6
CONTINUOUS
10
-171.1954829999999959
20
-19.5114909999999995
11
-171.1575479999999914
21
-19.4547169999999987
0
LINE
8
BLACK
6
CONTINUOUS
10
-171.1575479999999914
20
-19.4547169999999987
11
-171.1007740000000013
21
-19.4167819999999978
0
LINE
8
BLACK
6
CONTINUOUS
10
-171.1007740000000013
20
-19.4167819999999978
11
-171.0338040000000035
21
-19.4034610000000001
0
LINE
8
BLACK
6
CONTINUOUS
10
-171.0338040000000035
20
-19.4034610000000001
11
-170.3838039999999978
21
-19.4034610000000001
0
LINE
8
BLACK
6
CONTINUOUS
10
-170.3838039999999978
20
-19.4034610000000001
11
-170.3168340000000001
21
-19.4167819999999978
0
LINE
8
BLACK
6
CONTINUOUS
10
-171.3631330000000048
20
-17.6724910000000008
11
-171.2820269999999994
21
-17.7266839999999988
0
LINE
8
BLACK
6
CONTINUOUS
10
-171.2820269999999994
20
-17.7266839999999988
11
-171.2278340000000014
21
-17.8077900000000007
0
LINE
8
BLACK
6
CONTINUOUS
10
-171.2278340000000014
20
-17.8077900000000007
11
-171.2088039999999864
21
-17.9034610000000001
0
LINE
8
BLACK
6
CONTINUOUS
10
-171.2088039999999864
20
-17.9034610000000001
11
-171.2088039999999864
21
-18.4034610000000001
0
LINE
8
BLACK
6
CONTINUOUS
10
-171.2088039999999864
20
-18.4034610000000001
11
-171.2278340000000014
21
-18.4991319999999995
0
LINE
8
BLACK
6
CONTINUOUS
10
-171.2278340000000014
20
-18.4991319999999995
11
-171.2820269999999994
21
-18.5802379999999978
0
LINE
8
BLACK
6
CONTINUOUS
10
-171.2820269999999994
20
-18.5802379999999978
11
-171.3631330000000048
21
-18.6344309999999993
0
LINE
8
BLACK
6
CONTINUOUS
10
-171.3631330000000048
20
-18.6344309999999993
11
-171.4588039999999864
21
-18.6534610000000001
0
LINE
8
BLACK
6
CONTINUOUS
10
-171.4588039999999864
20
-18.6534610000000001
11
-173.7588039999999978
21
-18.6534610000000001
0
LINE
8
BLACK
6
CONTINUOUS
10
-173.7588039999999978
20
-18.6534610000000001
11
-173.8544749999999794
21
-18.6344309999999993
0
LINE
8
BLACK
6
CONTINUOUS
10
-173.8544749999999794
20
-18.6344309999999993
11
-173.9355809999999849
21
-18.5802379999999978
0
LINE
8
BLACK
6
CONTINUOUS
10
-173.9355809999999849
20
-18.5802379999999978
11
-173.9897739999999828
21
-18.4991319999999995
0
LINE
8
BLACK
6
CONTINUOUS
10
-173.9897739999999828
20
-18.4991319999999995
11
-174.0088039999999978
21
-18.4034610000000001
0
LINE
8
BLACK
6
CONTINUOUS
10
-174.0088039999999978
20
-18.4034610000000001
11
-174.0088039999999978
21
-17.9034610000000001
0
LINE
8
BLACK
6
CONTINUOUS
10
-174.0088039999999978
20
-17.9034610000000001
11
-173.9897739999999828
21
-17.8077900000000007
0
LINE
8
BLACK
6
CONTINUOUS
10
-173.9897739999999828
20
-17.8077900000000007
11
-173.9355809999999849
21
-17.7266839999999988
0
LINE
8
BLACK
6
CONTINUOUS
10
-173.9355809999999849
20
-17.7266839999999988
11
-173.8544749999999794
21
-17.6724910000000008
0
LINE
8
BLACK
6
CONTINUOUS
10
-173.8544749999999794
20
-17.6724910000000008
11
-173.7588039999999978
21
-17.6534610000000001
0
LINE
8
BLACK
6
CONTINUOUS
10
-173.7588039999999978
20
-17.6534610000000001
11
-171.4588039999999864
21
-17.6534610000000001
0
LINE
8
BLACK
6
CONTINUOUS
10
-171.4588039999999864
20
-17.6534610000000001
11
-171.3631330000000048
21
-17.6724910000000008
0
LINE
8
BLACK
6
CONTINUOUS
10
103.8544899999999984
20
-17.6700710000000001
11
103.9355959999999897
21
-17.724263999999998
0
LINE
8
BLACK
6
CONTINUOUS
10
103.9355959999999897
20
-17.724263999999998
11
103.9897890000000018
21
-17.8053699999999999
0
LINE
8
BLACK
6
CONTINUOUS
10
103.9897890000000018
20
-17.8053699999999999
11
104.0088189999999884
21
-17.9010409999999993
0
LINE
8
BLACK
6
CONTINUOUS
10
104.0088189999999884
20
-17.9010409999999993
11
104.0088189999999884
21
-18.4010409999999993
0
LINE
8
BLACK
6
CONTINUOUS
10
104.0088189999999884
20
-18.4010409999999993
11
103.9897890000000018
21
-18.4967119999999987
0
LINE
8
BLACK
6
CONTINUOUS
10
103.9897890000000018
20
-18.4967119999999987
11
103.9355959999999897
21
-18.5778180000000006
0
LINE
8
BLACK
6
CONTINUOUS
10
103.9355959999999897
20
-18.5778180000000006
11
103.8544899999999984
21
-18.6320109999999985
0
LINE
8
BLACK
6
CONTINUOUS
10
103.8544899999999984
20
-18.6320109999999985
11
103.7588189999999884
21
-18.6510409999999993
0
LINE
8
BLACK
6
CONTINUOUS
10
103.7588189999999884
20
-18.6510409999999993
11
101.4588189999999912
21
-18.6510409999999993
0
LINE
8
BLACK
6
CONTINUOUS
10
101.4588189999999912
20
-18.6510409999999993
11
101.3631479999999954
21
-18.6320109999999985
0
LINE
8
BLACK
6
CONTINUOUS
10
101.3631479999999954
20
-18.6320109999999985
11
101.2820419999999899
21
-18.5778180000000006
0
LINE
8
BLACK
6
CONTINUOUS
10
101.2820419999999899
20
-18.5778180000000006
11
101.227848999999992
21
-18.4967119999999987
0
LINE
8
BLACK
6
CONTINUOUS
10
101.227848999999992
20
-18.4967119999999987
11
101.2088189999999912
21
-18.4010409999999993
0
LINE
8
BLACK
6
CONTINUOUS
10
101.2088189999999912
20
-18.4010409999999993
11
101.2088189999999912
21
-17.9010409999999993
0
LINE
8
BLACK
6
CONTINUOUS
10
101.2088189999999912
20
-17.9010409999999993
11
101.227848999999992
21
-17.8053699999999999
0
LINE
8
BLACK
6
CONTINUOUS
10
101.227848999999992
20
-17.8053699999999999
11
101.2820419999999899
21
-17.724263999999998
0
LINE
8
BLACK
6
CONTINUOUS
10
101.2820419999999899
20
-17.724263999999998
11
101.3631479999999954
21
-17.6700710000000001
0
LINE
8
BLACK
6
CONTINUOUS
10
101.3631479999999954
20
-17.6700710000000001
11
101.4588189999999912
21
-17.6510409999999993
0
LINE
8
BLACK
6
CONTINUOUS
10
101.4588189999999912
20
-17.6510409999999993
11
103.7588189999999884
21
-17.6510409999999993
0
LINE
8
BLACK
6
CONTINUOUS
10
103.7588189999999884
20
-17.6510409999999993
11
103.8544899999999984
21
-17.6700710000000001
  0
ENDSEC
  0
EOF
