  0
SECTION
  2
HEADER
  9
$ANGBASE
  50
0.0
  9
$ANGDIR
  70
1
  9
$MEASUREMENT
  70
1
  0
ENDSEC
  0
SECTION
  2
TABLES
  0
TABLE
  2
LTYPE
  70
4
  0
LTYPE
  5
40F
  2
CONTINUOUS
  70
0
  3
Solid line
  72
65
  73
0
  40
0.0
  0
LTYPE
  5
410
  2
DASHDOT
 70
0
  3
Dash Dot ____ _ ____ _
 72
65
 73
4
 40
2.0
 49
1.25
 49
-0.25
 49
0.25
 49
-0.25
  0
LTYPE
  5
411
  2
DASHED
 70
0
  3
Dashed __ __ __ __ __
 72
65
 73
2
 40
0.75
 49
0.5
 49
-0.25
  0
LTYPE
  5
43B
  2
DOTTED
 70
0
  3
Dotted .  .  .  .
 72
65
 73
2
 40
0.2
 49
0.0
 49
-0.2
  0
ENDTAB
  0
TABLE
  2
STYLE
  70
4
  0
STYLE
  2
KICAD
  70
0
  40
0
  41
1
  42
1
  50
0
  71
0
  3
isocp.shx
  0
STYLE
  2
KICADB
  70
0
  40
0
  41
1
  42
1
  50
0
  71
0
  3
isocp.shx
  0
STYLE
  2
KICADI
  70
0
  40
0
  41
1
  42
1
  50
15
  71
0
  3
isocp.shx
  0
STYLE
  2
KICADBI
  70
0
  40
0
  41
1
  42
1
  50
15
  71
0
  3
isocp.shx
  0
ENDTAB
  0
TABLE
  2
LAYER
  70
1
  0
LAYER
  2
BLACK
  70
0
  62
7
  6
CONTINUOUS
  0
ENDTAB
  0
ENDSEC
  0
SECTION
  2
ENTITIES
0
LINE
8
BLACK
6
CONTINUOUS
10
-160.5199250000000006
20
-26.4118359999999974
11
-160.9961150000000032
21
-26.4118359999999974
0
LINE
8
BLACK
6
CONTINUOUS
10
-160.9961150000000032
20
-26.4118359999999974
11
-160.9961150000000032
21
-25.4118359999999974
0
LINE
8
BLACK
6
CONTINUOUS
10
-160.1865909999999928
20
-26.0308829999999993
11
-159.4246870000000058
21
-26.0308829999999993
0
LINE
8
BLACK
6
CONTINUOUS
10
-158.6151629999999955
20
-25.888026
11
-158.9484960000000058
21
-25.888026
0
LINE
8
BLACK
6
CONTINUOUS
10
-158.9484960000000058
20
-26.4118359999999974
11
-158.9484960000000058
21
-25.4118359999999974
0
LINE
8
BLACK
6
CONTINUOUS
10
-158.9484960000000058
20
-25.4118359999999974
11
-158.4723060000000032
21
-25.4118359999999974
0
LINE
8
BLACK
6
CONTINUOUS
10
-158.091352999999998
20
-26.4118359999999974
11
-158.091352999999998
21
-25.7451689999999971
0
LINE
8
BLACK
6
CONTINUOUS
10
-158.091352999999998
20
-25.9356449999999974
11
-158.0437340000000006
21
-25.840406999999999
0
LINE
8
BLACK
6
CONTINUOUS
10
-158.0437340000000006
20
-25.840406999999999
11
-157.9961150000000032
21
-25.792787999999998
0
LINE
8
BLACK
6
CONTINUOUS
10
-157.9961150000000032
20
-25.792787999999998
11
-157.9008769999999799
21
-25.7451689999999971
0
LINE
8
BLACK
6
CONTINUOUS
10
-157.9008769999999799
20
-25.7451689999999971
11
-157.8056389999999851
21
-25.7451689999999971
0
LINE
8
BLACK
6
CONTINUOUS
10
-157.3294479999999851
20
-26.4118359999999974
11
-157.4246859999999799
21
-26.364217
0
LINE
8
BLACK
6
CONTINUOUS
10
-157.4246859999999799
20
-26.364217
11
-157.4723050000000057
21
-26.316596999999998
0
LINE
8
BLACK
6
CONTINUOUS
10
-157.4723050000000057
20
-26.316596999999998
11
-157.5199240000000032
21
-26.2213589999999996
0
LINE
8
BLACK
6
CONTINUOUS
10
-157.5199240000000032
20
-26.2213589999999996
11
-157.5199240000000032
21
-25.9356449999999974
0
LINE
8
BLACK
6
CONTINUOUS
10
-157.5199240000000032
20
-25.9356449999999974
11
-157.4723050000000057
21
-25.840406999999999
0
LINE
8
BLACK
6
CONTINUOUS
10
-157.4723050000000057
20
-25.840406999999999
11
-157.4246859999999799
21
-25.792787999999998
0
LINE
8
BLACK
6
CONTINUOUS
10
-157.4246859999999799
20
-25.792787999999998
11
-157.3294479999999851
21
-25.7451689999999971
0
LINE
8
BLACK
6
CONTINUOUS
10
-157.3294479999999851
20
-25.7451689999999971
11
-157.1865909999999928
21
-25.7451689999999971
0
LINE
8
BLACK
6
CONTINUOUS
10
-157.1865909999999928
20
-25.7451689999999971
11
-157.091352999999998
21
-25.792787999999998
0
LINE
8
BLACK
6
CONTINUOUS
10
-157.091352999999998
20
-25.792787999999998
11
-157.0437340000000006
21
-25.840406999999999
0
LINE
8
BLACK
6
CONTINUOUS
10
-157.0437340000000006
20
-25.840406999999999
11
-156.9961150000000032
21
-25.9356449999999974
0
LINE
8
BLACK
6
CONTINUOUS
10
-156.9961150000000032
20
-25.9356449999999974
11
-156.9961150000000032
21
-26.2213589999999996
0
LINE
8
BLACK
6
CONTINUOUS
10
-156.9961150000000032
20
-26.2213589999999996
11
-157.0437340000000006
21
-26.316596999999998
0
LINE
8
BLACK
6
CONTINUOUS
10
-157.0437340000000006
20
-26.316596999999998
11
-157.091352999999998
21
-26.364217
0
LINE
8
BLACK
6
CONTINUOUS
10
-157.091352999999998
20
-26.364217
11
-157.1865909999999928
21
-26.4118359999999974
0
LINE
8
BLACK
6
CONTINUOUS
10
-157.1865909999999928
20
-26.4118359999999974
11
-157.3294479999999851
21
-26.4118359999999974
0
LINE
8
BLACK
6
CONTINUOUS
10
-156.5675430000000006
20
-25.7451689999999971
11
-156.5675430000000006
21
-26.4118359999999974
0
LINE
8
BLACK
6
CONTINUOUS
10
-156.5675430000000006
20
-25.840406999999999
11
-156.5199240000000032
21
-25.792787999999998
0
LINE
8
BLACK
6
CONTINUOUS
10
-156.5199240000000032
20
-25.792787999999998
11
-156.4246859999999799
21
-25.7451689999999971
0
LINE
8
BLACK
6
CONTINUOUS
10
-156.4246859999999799
20
-25.7451689999999971
11
-156.2818289999999877
21
-25.7451689999999971
0
LINE
8
BLACK
6
CONTINUOUS
10
-156.2818289999999877
20
-25.7451689999999971
11
-156.1865909999999928
21
-25.792787999999998
0
LINE
8
BLACK
6
CONTINUOUS
10
-156.1865909999999928
20
-25.792787999999998
11
-156.1389719999999954
21
-25.888026
0
LINE
8
BLACK
6
CONTINUOUS
10
-156.1389719999999954
20
-25.888026
11
-156.1389719999999954
21
-26.4118359999999974
0
LINE
8
BLACK
6
CONTINUOUS
10
-155.8056379999999876
20
-25.7451689999999971
11
-155.4246859999999799
21
-25.7451689999999971
0
LINE
8
BLACK
6
CONTINUOUS
10
-155.6627809999999954
20
-25.4118359999999974
11
-155.6627809999999954
21
-26.2689779999999971
0
LINE
8
BLACK
6
CONTINUOUS
10
-155.6627809999999954
20
-26.2689779999999971
11
-155.615161999999998
21
-26.364217
0
LINE
8
BLACK
6
CONTINUOUS
10
-155.615161999999998
20
-26.364217
11
-155.5199240000000032
21
-26.4118359999999974
0
LINE
8
BLACK
6
CONTINUOUS
10
-155.5199240000000032
20
-26.4118359999999974
11
-155.4246859999999799
21
-26.4118359999999974
0
LINE
8
BLACK
6
CONTINUOUS
10
31.8219349999999999
20
-23.001415999999999
11
32.583839999999995
21
-23.001415999999999
0
LINE
8
BLACK
6
CONTINUOUS
10
32.2028869999999969
20
-23.3823690000000006
11
32.2028869999999969
21
-22.6204639999999984
0
LINE
8
BLACK
6
CONTINUOUS
10
-126.6889919999999989
20
-21.1042989999999975
11
-125.9270879999999977
21
-21.1042989999999975
0
LINE
8
BLACK
6
CONTINUOUS
10
-126.3080399999999912
20
-21.4852519999999991
11
-126.3080399999999912
21
-20.7233470000000004
0
LINE
8
BLACK
6
CONTINUOUS
10
39.0680199999999971
20
-1.3715839999999999
11
39.8299249999999958
21
-1.3715839999999999
0
LINE
8
BLACK
6
CONTINUOUS
10
39.4489719999999977
20
-1.752537
11
39.4489719999999977
21
-0.990632
0
LINE
8
BLACK
6
CONTINUOUS
10
-109.8299229999999937
20
-1.3715839999999999
11
-109.0680189999999925
21
-1.3715839999999999
0
LINE
8
BLACK
6
CONTINUOUS
10
-109.4489710000000002
20
-1.752537
11
-109.4489710000000002
21
-0.990632
0
LINE
8
BLACK
6
CONTINUOUS
10
-103.8299229999999937
20
-1.3715839999999999
11
-103.0680189999999925
21
-1.3715839999999999
0
LINE
8
BLACK
6
CONTINUOUS
10
33.0680199999999971
20
-1.3715839999999999
11
33.8299249999999958
21
-1.3715839999999999
  0
ENDSEC
  0
EOF
