  0
SECTION
  2
HEADER
  9
$ANGBASE
  50
0.0
  9
$ANGDIR
  70
1
  9
$MEASUREMENT
  70
0
  0
ENDSEC
  0
SECTION
  2
TABLES
  0
TABLE
  2
LTYPE
  70
4
  0
LTYPE
  5
40F
  2
CONTINUOUS
  70
0
  3
Solid line
  72
65
  73
0
  40
0.0
  0
LTYPE
  5
410
  2
DASHDOT
 70
0
  3
Dash Dot ____ _ ____ _
 72
65
 73
4
 40
2.0
 49
1.25
 49
-0.25
 49
0.25
 49
-0.25
  0
LTYPE
  5
411
  2
DASHED
 70
0
  3
Dashed __ __ __ __ __
 72
65
 73
2
 40
0.75
 49
0.5
 49
-0.25
  0
LTYPE
  5
43B
  2
DOTTED
 70
0
  3
Dotted .  .  .  .
 72
65
 73
2
 40
0.2
 49
0.0
 49
-0.2
  0
ENDTAB
  0
TABLE
  2
STYLE
  70
4
  0
STYLE
  2
KICAD
  70
0
  40
0
  41
1
  42
1
  50
0
  71
0
  3
isocp.shx
  0
STYLE
  2
KICADB
  70
0
  40
0
  41
1
  42
1
  50
0
  71
0
  3
isocp.shx
  0
STYLE
  2
KICADI
  70
0
  40
0
  41
1
  42
1
  50
15
  71
0
  3
isocp.shx
  0
STYLE
  2
KICADBI
  70
0
  40
0
  41
1
  42
1
  50
15
  71
0
  3
isocp.shx
  0
ENDTAB
  0
TABLE
  2
LAYER
  70
1
  0
LAYER
  2
BLACK
  70
0
  62
7
  6
CONTINUOUS
  0
ENDTAB
  0
ENDSEC
  0
SECTION
  2
ENTITIES
0
CIRCLE
8
WHITE
10
3.6678197637795273
20
-6.1006069291338578
40
0.0374015354330709
0
CIRCLE
8
WHITE
10
3.7085907086614172
20
-6.3001944488188979
40
0.0314960236220472
0
CIRCLE
8
WHITE
10
3.8588887401574801
20
-5.8469618110236219
40
0.0600393307086614
0
CIRCLE
8
WHITE
10
3.8831689763779527
20
-6.0779727952755902
40
0.0994094094488189
0
CIRCLE
8
WHITE
10
4.063302874015748
20
-5.9086094488188978
40
0.0600393307086614
0
CIRCLE
8
WHITE
10
4.098518188976378
20
-6.0553386614173226
40
0.0374015354330709
0
CIRCLE
8
WHITE
10
5.199678858267716
20
-4.7757631889763781
40
0.0374015354330709
0
CIRCLE
8
WHITE
10
5.2193638976377947
20
-4.9785190944881892
40
0.0314960236220472
0
CIRCLE
8
WHITE
10
5.4162142913385827
20
-4.5434797244094485
40
0.0600393307086614
0
CIRCLE
8
WHITE
10
5.4162142913385827
20
-4.7757631889763781
40
0.0994094094488189
0
CIRCLE
8
WHITE
10
5.6130646850393697
20
-4.626156889763779
40
0.0600393307086614
0
CIRCLE
8
WHITE
10
5.6327497244094484
20
-4.7757631889763781
40
0.0374015354330709
0
CIRCLE
8
WHITE
10
4.7777071653543306
20
-6.2863029133858266
40
0.0246062992125984
0
CIRCLE
8
WHITE
10
4.3829351574803148
20
-5.0454507086614173
40
0.0374015354330709
0
CIRCLE
8
WHITE
10
4.4132046456692908
20
-5.2468985039370075
40
0.0314960236220472
0
CIRCLE
8
WHITE
10
4.5870170472440943
20
-4.8021529921259845
40
0.0600393307086614
0
CIRCLE
8
WHITE
10
4.5991738188976381
20
-5.0341181102362205
40
0.0994094094488189
0
CIRCLE
8
WHITE
10
4.7879246456692917
20
-4.8744144881889762
40
0.0600393307086614
0
CIRCLE
8
WHITE
10
4.8154124803149605
20
-5.0227855118110236
40
0.0374015354330709
0
CIRCLE
8
WHITE
10
4.6221953543307084
20
-6.2902399212598423
40
0.0246062992125984
0
CIRCLE
8
WHITE
10
5.199678858267716
20
-5.5434797244094485
40
0.0374015354330709
0
CIRCLE
8
WHITE
10
5.2193638976377947
20
-5.7462356299212596
40
0.0314960236220472
0
CIRCLE
8
WHITE
10
5.4162142913385827
20
-5.3111962598425198
40
0.0600393307086614
0
CIRCLE
8
WHITE
10
5.4162142913385827
20
-5.5434797244094485
40
0.0994094094488189
0
CIRCLE
8
WHITE
10
5.6130646850393697
20
-5.3938734251968503
40
0.0600393307086614
0
CIRCLE
8
WHITE
10
5.6327497244094484
20
-5.5434797244094485
40
0.0374015354330709
0
CIRCLE
8
WHITE
10
2.8752333464566928
20
-6.0579562598425198
40
0.0374015354330709
0
CIRCLE
8
WHITE
10
2.9263940551181102
20
-6.2551364566929131
40
0.0314960236220472
0
CIRCLE
8
WHITE
10
3.0527657480314958
20
-5.7946589763779528
40
0.0600393307086614
0
CIRCLE
8
WHITE
10
3.0891028740157478
20
-6.0240826377952752
40
0.0994094094488189
0
CIRCLE
8
WHITE
10
3.2601261417322833
20
-5.8455240551181102
40
0.0600393307086614
0
CIRCLE
8
WHITE
10
3.3029724015748032
20
-5.9902090157480314
40
0.0374015354330709
0
CIRCLE
8
WHITE
10
5.199678858267716
20
-6.3111962598425198
40
0.0374015354330709
0
CIRCLE
8
WHITE
10
5.2193638976377947
20
-6.5139521653543309
40
0.0314960236220472
0
CIRCLE
8
WHITE
10
5.4162142913385827
20
-6.0789127952755901
40
0.0600393307086614
0
CIRCLE
8
WHITE
10
5.4162142913385827
20
-6.3111962598425198
40
0.0994094094488189
0
CIRCLE
8
WHITE
10
5.6130646850393697
20
-6.1615899606299207
40
0.0600393307086614
0
CIRCLE
8
WHITE
10
5.6327497244094484
20
-6.3111962598425198
40
0.0374015354330709
0
CIRCLE
8
WHITE
10
2.1169686614173227
20
-6.1780535826771654
40
0.0374015354330709
0
CIRCLE
8
WHITE
10
2.1681293700787401
20
-6.3752337795275587
40
0.0314960236220472
0
CIRCLE
8
WHITE
10
2.2945010629921261
20
-5.9147562992125984
40
0.0600393307086614
0
CIRCLE
8
WHITE
10
2.3308381889763781
20
-6.1441799606299208
40
0.0994094094488189
0
CIRCLE
8
WHITE
10
2.5018614566929132
20
-5.9656213779527558
40
0.0600393307086614
0
CIRCLE
8
WHITE
10
2.544707716535433
20
-6.110306338582677
40
0.0374015354330709
0
CIRCLE
8
WHITE
10
2.2370659842519682
20
-6.9363182677165351
40
0.0374015354330709
0
CIRCLE
8
WHITE
10
2.2882266929133857
20
-7.1334984645669293
40
0.0314960236220472
0
CIRCLE
8
WHITE
10
2.4145983858267717
20
-6.6730209842519681
40
0.0600393307086614
0
CIRCLE
8
WHITE
10
2.4509355118110236
20
-6.9024446456692914
40
0.0994094094488189
0
CIRCLE
8
WHITE
10
2.6219587795275592
20
-6.7238860629921255
40
0.0600393307086614
0
CIRCLE
8
WHITE
10
2.6648050393700786
20
-6.8685710236220467
40
0.0374015354330709
0
CIRCLE
8
WHITE
10
2.7551360236220472
20
-5.2996915748031492
40
0.0374015354330709
0
CIRCLE
8
WHITE
10
2.8062967322834647
20
-5.4968717716535433
40
0.0314960236220472
0
CIRCLE
8
WHITE
10
2.9326684251968502
20
-5.0363942913385822
40
0.0600393307086614
0
CIRCLE
8
WHITE
10
2.9690055511811022
20
-5.2658179527559055
40
0.0994094094488189
0
CIRCLE
8
WHITE
10
3.1400288188976377
20
-5.0872593700787396
40
0.0600393307086614
0
CIRCLE
8
WHITE
10
3.1828750787401576
20
-5.2319443307086617
40
0.0374015354330709
0
CIRCLE
8
WHITE
10
5.9673953937007873
20
-7.2954482283464568
40
0.0374015354330709
0
CIRCLE
8
WHITE
10
5.987080433070866
20
-7.4982041338582679
40
0.0314960236220472
0
CIRCLE
8
WHITE
10
6.1839308267716531
20
-7.0631647637795272
40
0.0600393307086614
0
CIRCLE
8
WHITE
10
6.1839308267716531
20
-7.2954482283464568
40
0.0994094094488189
0
CIRCLE
8
WHITE
10
6.380781220472441
20
-7.1458419291338577
40
0.0600393307086614
0
CIRCLE
8
WHITE
10
6.4004662598425197
20
-7.2954482283464568
40
0.0374015354330709
0
CIRCLE
8
WHITE
10
4.4231143700787401
20
-5.8121151181102357
40
0.0374015354330709
0
CIRCLE
8
WHITE
10
4.4533838582677161
20
-6.0135629133858268
40
0.0314960236220472
0
CIRCLE
8
WHITE
10
4.6271962598425196
20
-5.5688174015748029
40
0.0600393307086614
0
CIRCLE
8
WHITE
10
4.6393530314960625
20
-5.8007825196850389
40
0.0994094094488189
0
CIRCLE
8
WHITE
10
4.828103858267716
20
-5.6410788976377955
40
0.0600393307086614
0
CIRCLE
8
WHITE
10
4.8555916929133858
20
-5.789449921259842
40
0.0374015354330709
0
CIRCLE
8
WHITE
10
5.9673953937007873
20
-6.3111962598425198
40
0.0374015354330709
0
CIRCLE
8
WHITE
10
5.987080433070866
20
-6.5139521653543309
40
0.0314960236220472
0
CIRCLE
8
WHITE
10
6.1839308267716531
20
-6.0789127952755901
40
0.0600393307086614
0
CIRCLE
8
WHITE
10
6.1839308267716531
20
-6.3111962598425198
40
0.0994094094488189
0
CIRCLE
8
WHITE
10
6.380781220472441
20
-6.1615899606299207
40
0.0600393307086614
0
CIRCLE
8
WHITE
10
6.4004662598425197
20
-6.3111962598425198
40
0.0374015354330709
0
CIRCLE
8
WHITE
10
3.4922740944881889
20
-7.5618934645669293
40
0.0137795275590551
0
CIRCLE
8
WHITE
10
3.3741638582677163
20
-7.559924960629921
40
0.0137795275590551
0
CIRCLE
8
WHITE
10
1.9968713385826771
20
-5.4197888976377948
40
0.0374015354330709
0
CIRCLE
8
WHITE
10
2.0480320472440945
20
-5.6169690944881889
40
0.0314960236220472
0
CIRCLE
8
WHITE
10
2.1744037401574801
20
-5.1564916141732287
40
0.0600393307086614
0
CIRCLE
8
WHITE
10
2.210740866141732
20
-5.3859152755905511
40
0.0994094094488189
0
CIRCLE
8
WHITE
10
2.3817641338582676
20
-5.2073566929133861
40
0.0600393307086614
0
CIRCLE
8
WHITE
10
2.4246103937007875
20
-5.3520416535433073
40
0.0374015354330709
0
CIRCLE
8
WHITE
10
3.5875715354330708
20
-5.3370960236220473
40
0.0374015354330709
0
CIRCLE
8
WHITE
10
3.6283424803149606
20
-5.5366835433070865
40
0.0314960236220472
0
CIRCLE
8
WHITE
10
3.7786405118110236
20
-5.0834509055118113
40
0.0600393307086614
0
CIRCLE
8
WHITE
10
3.8029207480314962
20
-5.3144618897637796
40
0.0994094094488189
0
CIRCLE
8
WHITE
10
3.9830546456692915
20
-5.1450985433070864
40
0.0600393307086614
0
CIRCLE
8
WHITE
10
4.0182699606299215
20
-5.291827755905512
40
0.0374015354330709
0
CIRCLE
8
WHITE
10
3.5073233070866139
20
-4.5735851181102358
40
0.0374015354330709
0
CIRCLE
8
WHITE
10
3.5480942519685037
20
-4.7731726377952759
40
0.0314960236220472
0
CIRCLE
8
WHITE
10
3.6983922834645671
20
-4.3199399999999999
40
0.0600393307086614
0
CIRCLE
8
WHITE
10
3.7226725196850392
20
-4.5509509842519682
40
0.0994094094488189
0
CIRCLE
8
WHITE
10
3.9028064173228345
20
-4.3815876377952758
40
0.0600393307086614
0
CIRCLE
8
WHITE
10
3.9380217322834645
20
-4.5283168503937006
40
0.0374015354330709
0
CIRCLE
8
WHITE
10
4.3427559842519683
20
-4.278786299212598
40
0.0374015354330709
0
CIRCLE
8
WHITE
10
4.3730254724409452
20
-4.4802340944881891
40
0.0314960236220472
0
CIRCLE
8
WHITE
10
4.5468378740157478
20
-4.0354885826771651
40
0.0600393307086614
0
CIRCLE
8
WHITE
10
4.5589946456692916
20
-4.2674537007874012
40
0.0994094094488189
0
CIRCLE
8
WHITE
10
4.7477454724409451
20
-4.1077500787401577
40
0.0600393307086614
0
CIRCLE
8
WHITE
10
4.775233307086614
20
-4.2561211023622043
40
0.0374015354330709
0
CIRCLE
8
WHITE
10
6.7931005511811025
20
-7.3263492125984246
40
0.0374015354330709
0
CIRCLE
8
WHITE
10
6.7808252362204726
20
-7.5296883070866141
40
0.0314960236220472
0
CIRCLE
8
WHITE
10
7.0433072047244094
20
-7.130799173228346
40
0.0600393307086614
0
CIRCLE
8
WHITE
10
7.0069700787401574
20
-7.3602228346456693
40
0.0994094094488189
0
CIRCLE
8
WHITE
10
7.2248005118110239
20
-7.2432526377952753
40
0.0600393307086614
0
CIRCLE
8
WHITE
10
7.2208396062992124
20
-7.394096456692913
40
0.0374015354330709
0
CIRCLE
8
WHITE
10
5.9673953937007873
20
-4.7757631889763781
40
0.0374015354330709
0
CIRCLE
8
WHITE
10
5.987080433070866
20
-4.9785190944881892
40
0.0314960236220472
0
CIRCLE
8
WHITE
10
6.1839308267716531
20
-4.5434797244094485
40
0.0600393307086614
0
CIRCLE
8
WHITE
10
6.1839308267716531
20
-4.7757631889763781
40
0.0994094094488189
0
CIRCLE
8
WHITE
10
6.380781220472441
20
-4.626156889763779
40
0.0600393307086614
0
CIRCLE
8
WHITE
10
6.4004662598425197
20
-4.7757631889763781
40
0.0374015354330709
0
CIRCLE
8
WHITE
10
2.9953306692913384
20
-6.8162209448818896
40
0.0374015354330709
0
CIRCLE
8
WHITE
10
3.0464913779527558
20
-7.0134011417322837
40
0.0314960236220472
0
CIRCLE
8
WHITE
10
3.1728630708661418
20
-6.5529236614173225
40
0.0600393307086614
0
CIRCLE
8
WHITE
10
3.2092001968503938
20
-6.7823473228346458
40
0.0994094094488189
0
CIRCLE
8
WHITE
10
3.3802234645669289
20
-6.60378874015748
40
0.0600393307086614
0
CIRCLE
8
WHITE
10
3.4230697244094488
20
-6.7484737007874012
40
0.0374015354330709
0
CIRCLE
8
WHITE
10
5.199678858267716
20
-7.2954482283464568
40
0.0374015354330709
0
CIRCLE
8
WHITE
10
5.2193638976377947
20
-7.4982041338582679
40
0.0314960236220472
0
CIRCLE
8
WHITE
10
5.4162142913385827
20
-7.0631647637795272
40
0.0600393307086614
0
CIRCLE
8
WHITE
10
5.4162142913385827
20
-7.2954482283464568
40
0.0994094094488189
0
CIRCLE
8
WHITE
10
5.6130646850393697
20
-7.1458419291338577
40
0.0600393307086614
0
CIRCLE
8
WHITE
10
5.6327497244094484
20
-7.2954482283464568
40
0.0374015354330709
0
CIRCLE
8
WHITE
10
5.9673953937007873
20
-5.5434797244094485
40
0.0374015354330709
0
CIRCLE
8
WHITE
10
5.987080433070866
20
-5.7462356299212596
40
0.0314960236220472
0
CIRCLE
8
WHITE
10
6.1839308267716531
20
-5.3111962598425198
40
0.0600393307086614
0
CIRCLE
8
WHITE
10
6.1839308267716531
20
-5.5434797244094485
40
0.0994094094488189
0
CIRCLE
8
WHITE
10
6.380781220472441
20
-5.3938734251968503
40
0.0600393307086614
0
CIRCLE
8
WHITE
10
6.4004662598425197
20
-5.5434797244094485
40
0.0374015354330709
  0
ENDSEC
  0
EOF
