  0
SECTION
  2
HEADER
  9
$ANGBASE
  50
0.0
  9
$ANGDIR
  70
1
  9
$MEASUREMENT
  70
1
  0
ENDSEC
  0
SECTION
  2
TABLES
  0
TABLE
  2
LTYPE
  70
4
  0
LTYPE
  5
40F
  2
CONTINUOUS
  70
0
  3
Solid line
  72
65
  73
0
  40
0.0
  0
LTYPE
  5
410
  2
DASHDOT
 70
0
  3
Dash Dot ____ _ ____ _
 72
65
 73
4
 40
2.0
 49
1.25
 49
-0.25
 49
0.25
 49
-0.25
  0
LTYPE
  5
411
  2
DASHED
 70
0
  3
Dashed __ __ __ __ __
 72
65
 73
2
 40
0.75
 49
0.5
 49
-0.25
  0
LTYPE
  5
43B
  2
DOTTED
 70
0
  3
Dotted .  .  .  .
 72
65
 73
2
 40
0.2
 49
0.0
 49
-0.2
  0
ENDTAB
  0
TABLE
  2
STYLE
  70
4
  0
STYLE
  2
KICAD
  70
0
  40
0
  41
1
  42
1
  50
0
  71
0
  3
isocp.shx
  0
STYLE
  2
KICADB
  70
0
  40
0
  41
1
  42
1
  50
0
  71
0
  3
isocp.shx
  0
STYLE
  2
KICADI
  70
0
  40
0
  41
1
  42
1
  50
15
  71
0
  3
isocp.shx
  0
STYLE
  2
KICADBI
  70
0
  40
0
  41
1
  42
1
  50
15
  71
0
  3
isocp.shx
  0
ENDTAB
  0
TABLE
  2
LAYER
  70
1
  0
LAYER
  2
BLACK
  70
0
  62
7
  6
CONTINUOUS
  0
ENDTAB
  0
ENDSEC
  0
SECTION
  2
ENTITIES
0
CIRCLE
8
BLACK
10
58.3786439999999942
20
17.5207219999999992
40
0.7071069999999999
0
CIRCLE
8
BLACK
10
18.2717199999999984
20
-14.5767749999999996
40
0.7071069999999999
0
CIRCLE
8
BLACK
10
97.5645619999999951
20
36.5005850000000009
40
0.7071069999999999
0
CIRCLE
8
BLACK
10
2.8369399999999998
20
7.2879429999999994
40
0.7071069999999999
0
CIRCLE
8
BLACK
10
18.3769239999999989
20
45.6253779999999978
40
0.7071069999999999
0
CIRCLE
8
BLACK
10
-121.5809749999999951
20
17.6987249999999996
40
0.7071069999999999
0
CIRCLE
8
BLACK
10
76.2186049999999966
20
1.0661369999999999
40
0.7071069999999999
0
CIRCLE
8
BLACK
10
-81.5978860000000026
20
45.0918559999999999
40
0.7071069999999999
0
CIRCLE
8
BLACK
10
77.6700979999999959
20
19.5091070000000002
40
0.7071069999999999
0
CIRCLE
8
BLACK
10
38.3407640000000001
20
60.0671210000000002
40
0.7071069999999999
0
CIRCLE
8
BLACK
10
-102.0273689999999931
20
41.3954570000000004
40
0.7071069999999999
0
CIRCLE
8
BLACK
10
-83.0493790000000018
20
26.6488849999999999
40
0.7071069999999999
0
CIRCLE
8
BLACK
10
-140.8910599999999818
20
20.042628999999998
40
0.7071069999999999
0
CIRCLE
8
BLACK
10
-84.5008729999999986
20
8.2059139999999999
40
0.7071069999999999
0
CIRCLE
8
BLACK
10
-159.3340309999999818
20
18.5911359999999988
40
0.7071069999999999
0
CIRCLE
8
BLACK
10
1.3854469999999999
20
25.7309139999999985
40
0.7071069999999999
0
CIRCLE
8
BLACK
10
19.8284169999999982
20
27.1824069999999978
40
0.7071069999999999
0
CIRCLE
8
BLACK
10
38.8250379999999993
20
41.5734599999999972
40
0.7071069999999999
0
CIRCLE
8
BLACK
10
0.282877
20
-18.8955139999999986
40
0.7071069999999999
0
CIRCLE
8
BLACK
10
-157.882536999999985
20
0.148165
40
0.7071069999999999
0
CIRCLE
8
BLACK
10
-142.342552999999981
20
38.485599999999998
40
0.7071069999999999
0
CIRCLE
8
BLACK
10
-63.6707619999999963
20
-20.4829429999999988
40
0.7071069999999999
0
CIRCLE
8
BLACK
10
21.2799109999999985
20
8.7394359999999995
40
0.7071069999999999
0
CIRCLE
8
BLACK
10
-102.5116419999999948
20
22.9017959999999974
40
0.7071069999999999
0
CIRCLE
8
BLACK
10
-66.0579019999999986
20
6.7544209999999998
40
0.7071069999999999
0
CIRCLE
8
BLACK
10
-17.7059669999999976
20
-23.2142529999999994
40
0.7071069999999999
0
CIRCLE
8
BLACK
10
94.6615749999999991
20
-0.385357
40
0.7071069999999999
0
CIRCLE
8
BLACK
10
39.309311000000001
20
23.0797989999999977
40
0.7071069999999999
0
CIRCLE
8
BLACK
10
59.3471909999999951
20
54.5080430000000007
40
0.7071069999999999
0
CIRCLE
8
BLACK
10
79.1215909999999951
20
37.9520780000000002
40
0.7071069999999999
0
CIRCLE
8
BLACK
10
-160.785523999999981
20
37.0341069999999988
40
0.7071069999999999
0
CIRCLE
8
BLACK
10
-0.066047
20
44.173884000000001
40
0.7071069999999999
0
CIRCLE
8
BLACK
10
-122.0652479999999969
20
36.1923859999999991
40
0.7071069999999999
0
CIRCLE
8
BLACK
10
-122.5495219999999961
20
54.6860459999999975
40
0.7071069999999999
0
CIRCLE
8
BLACK
10
96.1130689999999959
20
18.0576140000000009
40
0.7071069999999999
0
CIRCLE
8
BLACK
10
58.8629169999999959
20
36.0143829999999951
40
0.7071069999999999
0
CIRCLE
8
BLACK
10
-101.5430949999999939
20
59.8891179999999963
40
0.7071069999999999
0
CIRCLE
8
BLACK
10
-45.681917999999996
20
-24.8016819999999996
40
0.7071069999999999
0
CIRCLE
8
BLACK
10
-63.1549149999999955
20
43.6403619999999961
40
0.7071069999999999
0
CIRCLE
8
BLACK
10
-139.4395669999999825
20
1.5996589999999999
40
0.7071069999999999
0
CIRCLE
8
BLACK
10
-81.6596049999999991
20
-16.164203999999998
40
0.7071069999999999
0
CIRCLE
8
BLACK
10
-64.6064089999999993
20
25.1973919999999971
40
0.7071069999999999
0
LINE
8
BLACK
6
CONTINUOUS
10
18.5384959999999985
20
-4.8604709999999995
11
18.648337999999999
21
-6.2561539999999995
0
LINE
8
BLACK
6
CONTINUOUS
10
18.648337999999999
20
-6.2561539999999995
11
19.4906429999999986
21
-5.487698
0
LINE
8
BLACK
6
CONTINUOUS
10
19.4357209999999974
20
-4.7898559999999994
11
19.5455639999999988
21
-6.1855409999999997
0
LINE
8
BLACK
6
CONTINUOUS
10
19.4906429999999986
20
-5.487698
11
18.5384959999999985
21
-4.8604709999999995
0
LINE
8
BLACK
6
CONTINUOUS
10
-69.551401999999996
20
10.7980919999999987
11
-68.5992549999999994
21
11.425319
0
LINE
8
BLACK
6
CONTINUOUS
10
-69.4415599999999955
20
12.1937749999999987
11
-69.551401999999996
21
10.7980919999999987
0
LINE
8
BLACK
6
CONTINUOUS
10
-68.5992549999999994
20
11.425319
11
-69.4415599999999955
21
12.1937749999999987
0
LINE
8
BLACK
6
CONTINUOUS
10
-68.5443339999999921
20
12.1231619999999989
11
-68.65417699999999
21
10.7274770000000004
0
LINE
8
BLACK
6
CONTINUOUS
10
-162.0754509999999868
20
4.9912279999999996
11
-161.9656090000000006
21
3.595545
0
LINE
8
BLACK
6
CONTINUOUS
10
-161.9656090000000006
20
3.595545
11
-161.1233039999999903
21
4.364001
0
LINE
8
BLACK
6
CONTINUOUS
10
-161.1782259999999951
20
5.0618429999999996
11
-161.068382999999983
21
3.6661579999999998
0
LINE
8
BLACK
6
CONTINUOUS
10
-161.1233039999999903
20
4.364001
11
-162.0754509999999868
21
4.9912279999999996
0
LINE
8
BLACK
6
CONTINUOUS
10
71.2736110000000025
20
-13.333162999999999
11
72.225757999999999
21
-12.7059359999999995
0
LINE
8
BLACK
6
CONTINUOUS
10
71.3834530000000029
20
-11.937479999999999
11
71.2736110000000025
21
-13.333162999999999
0
LINE
8
BLACK
6
CONTINUOUS
10
72.225757999999999
20
-12.7059359999999995
11
71.3834530000000029
21
-11.937479999999999
0
LINE
8
BLACK
6
CONTINUOUS
10
72.2806789999999921
20
-12.0080929999999988
11
72.1708359999999942
21
-13.4037779999999991
0
LINE
8
BLACK
6
CONTINUOUS
10
35.85989
20
9.6420060000000003
11
35.8965379999999996
21
8.2424859999999995
0
LINE
8
BLACK
6
CONTINUOUS
10
35.8965379999999996
20
8.2424859999999995
11
36.7779060000000015
21
8.9658049999999996
0
LINE
8
BLACK
6
CONTINUOUS
10
36.7595820000000018
20
9.6655660000000001
11
36.7962300000000013
21
8.2660450000000001
0
LINE
8
BLACK
6
CONTINUOUS
10
36.7779060000000015
20
8.9658049999999996
11
35.85989
21
9.6420060000000003
0
LINE
8
BLACK
6
CONTINUOUS
10
-125.5146689999999978
20
22.7545919999999988
11
-125.4780209999999983
21
21.3550719999999998
0
LINE
8
BLACK
6
CONTINUOUS
10
-125.4780209999999983
20
21.3550719999999998
11
-124.5966529999999892
21
22.0783909999999999
0
LINE
8
BLACK
6
CONTINUOUS
10
-124.6149769999999961
20
22.7781519999999986
11
-124.5783289999999965
21
21.3786309999999986
0
LINE
8
BLACK
6
CONTINUOUS
10
-124.5966529999999892
20
22.0783909999999999
11
-125.5146689999999978
21
22.7545919999999988
0
LINE
8
BLACK
6
CONTINUOUS
10
0.095532
20
-6.3119639999999997
11
0.205374
21
-7.7076469999999997
0
LINE
8
BLACK
6
CONTINUOUS
10
0.205374
20
-7.7076469999999997
11
1.047679
21
-6.9391910000000001
0
LINE
8
BLACK
6
CONTINUOUS
10
0.992757
20
-6.2413489999999996
11
1.1026
21
-7.6370339999999999
0
LINE
8
BLACK
6
CONTINUOUS
10
1.047679
20
-6.9391910000000001
11
0.095532
21
-6.3119639999999997
0
LINE
8
BLACK
6
CONTINUOUS
10
-143.632474000000002
20
6.4427219999999998
11
-143.5226319999999873
21
5.0470389999999998
0
LINE
8
BLACK
6
CONTINUOUS
10
-143.5226319999999873
20
5.0470389999999998
11
-142.6803270000000055
21
5.8154949999999994
0
LINE
8
BLACK
6
CONTINUOUS
10
-142.7352489999999818
20
6.5133369999999999
11
-142.6254059999999981
21
5.1176519999999996
0
LINE
8
BLACK
6
CONTINUOUS
10
-142.6803270000000055
20
5.8154949999999994
11
-143.632474000000002
21
6.4427219999999998
0
LINE
8
BLACK
6
CONTINUOUS
10
74.1765979999999985
20
23.552778
11
75.128744999999995
21
24.1800049999999978
0
LINE
8
BLACK
6
CONTINUOUS
10
74.2864399999999989
20
24.9484609999999982
11
74.1765979999999985
21
23.552778
0
LINE
8
BLACK
6
CONTINUOUS
10
75.128744999999995
20
24.1800049999999978
11
74.2864399999999989
21
24.9484609999999982
0
LINE
8
BLACK
6
CONTINUOUS
10
75.1836660000000023
20
24.8778480000000002
11
75.0738229999999902
21
23.4821629999999999
0
LINE
8
BLACK
6
CONTINUOUS
10
-70.9046620000000019
20
-33.9080519999999979
11
-70.5778379999999999
21
-32.5467340000000007
0
LINE
8
BLACK
6
CONTINUOUS
10
-70.7412499999999937
20
-33.2273929999999993
11
-70.0295289999999966
21
-34.1181529999999995
0
LINE
8
BLACK
6
CONTINUOUS
10
-70.0295289999999966
20
-34.1181529999999995
11
-69.7027049999999946
21
-32.7568349999999953
0
LINE
8
BLACK
6
CONTINUOUS
10
-69.7027049999999946
20
-32.7568349999999953
11
-70.7412499999999937
21
-33.2273929999999993
0
LINE
8
BLACK
6
CONTINUOUS
10
-86.5428859999999958
20
30.6925559999999997
11
-85.5907389999999992
21
31.3197829999999975
0
LINE
8
BLACK
6
CONTINUOUS
10
-86.4330439999999953
20
32.0882390000000015
11
-86.5428859999999958
21
30.6925559999999997
0
LINE
8
BLACK
6
CONTINUOUS
10
-85.5907389999999992
20
31.3197829999999975
11
-86.4330439999999953
21
32.0882390000000015
0
LINE
8
BLACK
6
CONTINUOUS
10
-85.5358179999999919
20
32.0176259999999999
11
-85.6456609999999898
21
30.6219409999999996
0
LINE
8
BLACK
6
CONTINUOUS
10
-145.0839739999999836
20
24.8856919999999988
11
-144.9741319999999973
21
23.4900090000000006
0
LINE
8
BLACK
6
CONTINUOUS
10
-144.9741319999999973
20
23.4900090000000006
11
-144.131826999999987
21
24.2584649999999975
0
LINE
8
BLACK
6
CONTINUOUS
10
-144.1867489999999918
20
24.9563069999999989
11
-144.0769059999999797
21
23.5606219999999986
0
LINE
8
BLACK
6
CONTINUOUS
10
-144.131826999999987
20
24.2584649999999975
11
-145.0839739999999836
21
24.8856919999999988
0
LINE
8
BLACK
6
CONTINUOUS
10
-18.2861359999999991
20
-37.075573999999996
11
-17.9593120000000006
21
-38.4368920000000003
0
LINE
8
BLACK
6
CONTINUOUS
10
-17.9593120000000006
20
-38.4368920000000003
11
-17.2475909999999999
21
-37.5461320000000001
0
LINE
8
BLACK
6
CONTINUOUS
10
-17.4110030000000009
20
-36.8654730000000015
11
-17.0841789999999989
21
-38.2267909999999986
0
LINE
8
BLACK
6
CONTINUOUS
10
-17.2475909999999999
20
-37.5461320000000001
11
-18.2861359999999991
21
-37.075573999999996
0
LINE
8
BLACK
6
CONTINUOUS
10
35.3756160000000008
20
28.135666999999998
11
35.4122640000000004
21
26.736146999999999
0
LINE
8
BLACK
6
CONTINUOUS
10
35.4122640000000004
20
26.736146999999999
11
36.2936319999999952
21
27.459465999999999
0
LINE
8
BLACK
6
CONTINUOUS
10
36.2753079999999954
20
28.1592269999999978
11
36.311955999999995
21
26.7597059999999978
0
LINE
8
BLACK
6
CONTINUOUS
10
36.2936319999999952
20
27.459465999999999
11
35.3756160000000008
21
28.135666999999998
0
LINE
8
BLACK
6
CONTINUOUS
10
54.1940219999999968
20
2.8823539999999999
11
55.1120379999999983
21
3.5585549999999997
0
LINE
8
BLACK
6
CONTINUOUS
10
54.2306699999999964
20
4.2818740000000002
11
54.1940219999999968
21
2.8823539999999999
0
LINE
8
BLACK
6
CONTINUOUS
10
55.1120379999999983
20
3.5585549999999997
11
54.2306699999999964
21
4.2818740000000002
0
LINE
8
BLACK
6
CONTINUOUS
10
55.1303619999999981
20
4.2583149999999996
11
55.0937139999999985
21
2.8587940000000001
0
LINE
8
BLACK
6
CONTINUOUS
10
34.8913429999999991
20
46.6293269999999964
11
34.9279909999999987
21
45.229807000000001
0
LINE
8
BLACK
6
CONTINUOUS
10
34.9279909999999987
20
45.229807000000001
11
35.8093590000000006
21
45.9531259999999975
0
LINE
8
BLACK
6
CONTINUOUS
10
35.7910350000000008
20
46.6528869999999998
11
35.8276830000000004
21
45.2533659999999998
0
LINE
8
BLACK
6
CONTINUOUS
10
35.8093590000000006
20
45.9531259999999975
11
34.8913429999999991
21
46.6293269999999964
0
LINE
8
BLACK
6
CONTINUOUS
10
-0.297292
20
-32.7568349999999953
11
0.029532
21
-34.1181529999999995
0
LINE
8
BLACK
6
CONTINUOUS
10
0.029532
20
-34.1181529999999995
11
0.7412529999999999
21
-33.2273929999999993
0
LINE
8
BLACK
6
CONTINUOUS
10
0.5778409999999999
20
-32.5467340000000007
11
0.9046649999999999
21
-33.9080519999999979
0
LINE
8
BLACK
6
CONTINUOUS
10
0.7412529999999999
20
-33.2273929999999993
11
-0.297292
21
-32.7568349999999953
0
LINE
8
BLACK
6
CONTINUOUS
10
17.6915489999999984
20
-28.438095999999998
11
18.0183730000000004
21
-29.7994139999999987
0
LINE
8
BLACK
6
CONTINUOUS
10
18.0183730000000004
20
-29.7994139999999987
11
18.7300939999999976
21
-28.9086539999999985
0
LINE
8
BLACK
6
CONTINUOUS
10
18.5666820000000001
20
-28.2279949999999999
11
18.8935059999999986
21
-29.5893129999999971
0
LINE
8
BLACK
6
CONTINUOUS
10
18.7300939999999976
20
-28.9086539999999985
11
17.6915489999999984
21
-28.438095999999998
0
LINE
8
BLACK
6
CONTINUOUS
10
-106.2119900000000001
20
26.7570879999999995
11
-105.2939739999999915
21
27.4332889999999985
0
LINE
8
BLACK
6
CONTINUOUS
10
-106.1753420000000006
20
28.1566079999999985
11
-106.2119900000000001
21
26.7570879999999995
0
LINE
8
BLACK
6
CONTINUOUS
10
-105.2939739999999915
20
27.4332889999999985
11
-106.1753420000000006
21
28.1566079999999985
0
LINE
8
BLACK
6
CONTINUOUS
10
-105.2756499999999988
20
28.1330489999999998
11
-105.3122979999999984
21
26.7335279999999997
0
LINE
8
BLACK
6
CONTINUOUS
10
-105.7277169999999984
20
45.250748999999999
11
-104.8097009999999898
21
45.9269499999999979
0
LINE
8
BLACK
6
CONTINUOUS
10
-105.6910689999999988
20
46.6502689999999944
11
-105.7277169999999984
21
45.250748999999999
0
LINE
8
BLACK
6
CONTINUOUS
10
-104.8097009999999898
20
45.9269499999999979
11
-105.6910689999999988
21
46.6502689999999944
0
LINE
8
BLACK
6
CONTINUOUS
10
-104.7913769999999971
20
46.6267099999999957
11
-104.8280249999999967
21
45.2271889999999956
0
LINE
8
BLACK
6
CONTINUOUS
10
-160.6239520000000027
20
-13.4517419999999994
11
-160.5141099999999881
21
-14.8474249999999994
0
LINE
8
BLACK
6
CONTINUOUS
10
-160.5141099999999881
20
-14.8474249999999994
11
-159.6718050000000062
21
-14.078968999999999
0
LINE
8
BLACK
6
CONTINUOUS
10
-159.7267269999999826
20
-13.3811269999999993
11
-159.6168839999999989
21
-14.7768119999999996
0
LINE
8
BLACK
6
CONTINUOUS
10
-159.6718050000000062
20
-14.078968999999999
11
-160.6239520000000027
21
-13.4517419999999994
0
LINE
8
BLACK
6
CONTINUOUS
10
-52.9158189999999991
20
-38.2267909999999986
11
-52.588994999999997
21
-36.8654730000000015
0
LINE
8
BLACK
6
CONTINUOUS
10
-52.752406999999998
20
-37.5461320000000001
11
-52.0406860000000009
21
-38.4368920000000003
0
LINE
8
BLACK
6
CONTINUOUS
10
-52.0406860000000009
20
-38.4368920000000003
11
-51.7138619999999989
21
-37.075573999999996
0
LINE
8
BLACK
6
CONTINUOUS
10
-51.7138619999999989
20
-37.075573999999996
11
-52.752406999999998
21
-37.5461320000000001
0
LINE
8
BLACK
6
CONTINUOUS
10
-2.807461
20
30.5739769999999993
11
-2.697619
21
29.1782939999999975
0
LINE
8
BLACK
6
CONTINUOUS
10
-2.697619
20
29.1782939999999975
11
-1.8553139999999999
21
29.946749999999998
0
LINE
8
BLACK
6
CONTINUOUS
10
-1.9102359999999998
20
30.6445919999999994
11
-1.8003929999999999
21
29.2489069999999991
0
LINE
8
BLACK
6
CONTINUOUS
10
-1.8553139999999999
20
29.946749999999998
11
-2.807461
21
30.5739769999999993
0
LINE
8
BLACK
6
CONTINUOUS
10
-71.0029019999999917
20
-7.6448779999999994
11
-70.0507549999999952
21
-7.0176509999999999
0
LINE
8
BLACK
6
CONTINUOUS
10
-70.8930599999999913
20
-6.2491949999999994
11
-71.0029019999999917
21
-7.6448779999999994
0
LINE
8
BLACK
6
CONTINUOUS
10
-70.0507549999999952
20
-7.0176509999999999
11
-70.8930599999999913
21
-6.2491949999999994
0
LINE
8
BLACK
6
CONTINUOUS
10
-69.9958340000000021
20
-6.3198080000000001
11
-70.105677
21
-7.7154929999999995
0
LINE
8
BLACK
6
CONTINUOUS
10
-125.0303959999999961
20
4.2609319999999995
11
-124.9937479999999965
21
2.8614120000000001
0
LINE
8
BLACK
6
CONTINUOUS
10
-124.9937479999999965
20
2.8614120000000001
11
-124.1123799999999875
21
3.5847309999999997
0
LINE
8
BLACK
6
CONTINUOUS
10
-124.1307039999999944
20
4.2844920000000002
11
-124.0940559999999948
21
2.8849709999999997
0
LINE
8
BLACK
6
CONTINUOUS
10
-124.1123799999999875
20
3.5847309999999997
11
-125.0303959999999961
21
4.2609319999999995
0
LINE
8
BLACK
6
CONTINUOUS
10
-1.355974
20
12.1310059999999993
11
-1.246132
21
10.7353229999999993
0
LINE
8
BLACK
6
CONTINUOUS
10
-1.246132
20
10.7353229999999993
11
-0.403827
21
11.5037789999999998
0
LINE
8
BLACK
6
CONTINUOUS
10
-0.458749
20
12.2016209999999994
11
-0.348906
21
10.8059359999999991
0
LINE
8
BLACK
6
CONTINUOUS
10
-0.403827
20
11.5037789999999998
11
-1.355974
21
12.1310059999999993
0
LINE
8
BLACK
6
CONTINUOUS
10
-106.6962449999999905
20
8.2634279999999993
11
-105.7782289999999961
21
8.939629
0
LINE
8
BLACK
6
CONTINUOUS
10
-106.6595969999999909
20
9.6629480000000001
11
-106.6962449999999905
21
8.2634279999999993
0
LINE
8
BLACK
6
CONTINUOUS
10
-105.7782289999999961
20
8.939629
11
-106.6595969999999909
21
9.6629480000000001
0
LINE
8
BLACK
6
CONTINUOUS
10
-105.7599049999999892
20
9.6393889999999995
11
-105.7965529999999887
21
8.2398679999999995
0
LINE
8
BLACK
6
CONTINUOUS
10
55.1625689999999977
20
39.8696750000000009
11
56.0805849999999992
21
40.5458759999999998
0
LINE
8
BLACK
6
CONTINUOUS
10
55.1992169999999973
20
41.2691949999999963
11
55.1625689999999977
21
39.8696750000000009
0
LINE
8
BLACK
6
CONTINUOUS
10
56.0805849999999992
20
40.5458759999999998
11
55.1992169999999973
21
41.2691949999999963
0
LINE
8
BLACK
6
CONTINUOUS
10
56.098908999999999
20
41.2456359999999975
11
56.0622609999999995
21
39.8461149999999975
0
LINE
8
BLACK
6
CONTINUOUS
10
54.6782949999999985
20
21.3760139999999978
11
55.596311
21
22.0522150000000003
0
LINE
8
BLACK
6
CONTINUOUS
10
54.7149429999999981
20
22.7755340000000004
11
54.6782949999999985
21
21.3760139999999978
0
LINE
8
BLACK
6
CONTINUOUS
10
55.596311
20
22.0522150000000003
11
54.7149429999999981
21
22.7755340000000004
0
LINE
8
BLACK
6
CONTINUOUS
10
55.6146349999999998
20
22.7519749999999981
11
55.5779870000000003
21
21.352453999999998
0
LINE
8
BLACK
6
CONTINUOUS
10
-125.998942999999997
20
41.2482529999999983
11
-125.9622949999999975
21
39.8487329999999957
0
LINE
8
BLACK
6
CONTINUOUS
10
-125.9622949999999975
20
39.8487329999999957
11
-125.0809269999999884
21
40.5720519999999993
0
LINE
8
BLACK
6
CONTINUOUS
10
-125.0992509999999953
20
41.2718130000000016
11
-125.0626029999999957
21
39.8722920000000016
0
LINE
8
BLACK
6
CONTINUOUS
10
-125.0809269999999884
20
40.5720519999999993
11
-125.998942999999997
21
41.2482529999999983
0
LINE
8
BLACK
6
CONTINUOUS
10
15.63551
20
32.0254699999999985
11
15.7453519999999987
21
30.6297870000000003
0
LINE
8
BLACK
6
CONTINUOUS
10
15.7453519999999987
20
30.6297870000000003
11
16.5876570000000001
21
31.3982429999999972
0
LINE
8
BLACK
6
CONTINUOUS
10
16.5327349999999988
20
32.0960849999999951
11
16.6425780000000003
21
30.7003999999999984
0
LINE
8
BLACK
6
CONTINUOUS
10
16.5876570000000001
20
31.3982429999999972
11
15.63551
21
32.0254699999999985
0
LINE
8
BLACK
6
CONTINUOUS
10
72.7250990000000002
20
5.1098080000000001
11
73.6772459999999967
21
5.7370349999999997
0
LINE
8
BLACK
6
CONTINUOUS
10
72.8349410000000006
20
6.5054910000000001
11
72.7250990000000002
21
5.1098080000000001
0
LINE
8
BLACK
6
CONTINUOUS
10
73.6772459999999967
20
5.7370349999999997
11
72.8349410000000006
21
6.5054910000000001
0
LINE
8
BLACK
6
CONTINUOUS
10
73.7321669999999898
20
6.4348779999999994
11
73.6223239999999919
21
5.039193
0
LINE
8
BLACK
6
CONTINUOUS
10
-89.4458719999999943
20
-6.1933850000000001
11
-88.4937249999999977
21
-5.5661579999999997
0
LINE
8
BLACK
6
CONTINUOUS
10
-89.3360299999999938
20
-4.7977020000000001
11
-89.4458719999999943
21
-6.1933850000000001
0
LINE
8
BLACK
6
CONTINUOUS
10
-88.4937249999999977
20
-5.5661579999999997
11
-89.3360299999999938
21
-4.7977020000000001
0
LINE
8
BLACK
6
CONTINUOUS
10
-88.4388039999999904
20
-4.8683149999999999
11
-88.5486470000000025
21
-6.2639999999999993
0
LINE
8
BLACK
6
CONTINUOUS
10
-142.1809810000000027
20
-12.0002479999999991
11
-142.0711389999999881
21
-13.3959309999999991
0
LINE
8
BLACK
6
CONTINUOUS
10
-142.0711389999999881
20
-13.3959309999999991
11
-141.2288340000000062
21
-12.6274749999999987
0
LINE
8
BLACK
6
CONTINUOUS
10
-141.2837559999999826
20
-11.929632999999999
11
-141.1739129999999989
21
-13.3253179999999993
0
LINE
8
BLACK
6
CONTINUOUS
10
-141.2288340000000062
20
-12.6274749999999987
11
-142.1809810000000027
21
-12.0002479999999991
0
LINE
8
BLACK
6
CONTINUOUS
10
89.7165759999999892
20
-14.784656
11
90.668723
21
-14.1574289999999987
0
LINE
8
BLACK
6
CONTINUOUS
10
89.8264179999999897
20
-13.388973
11
89.7165759999999892
21
-14.784656
0
LINE
8
BLACK
6
CONTINUOUS
10
90.668723
20
-14.1574289999999987
11
89.8264179999999897
21
-13.388973
0
LINE
8
BLACK
6
CONTINUOUS
10
90.7236439999999931
20
-13.4595859999999998
11
90.6138009999999952
21
-14.8552710000000001
0
LINE
8
BLACK
6
CONTINUOUS
10
-88.8935079999999971
20
-29.5893119999999996
11
-88.5666839999999951
21
-28.2279939999999989
0
LINE
8
BLACK
6
CONTINUOUS
10
-88.730095999999989
20
-28.9086529999999975
11
-88.0183749999999918
21
-29.7994129999999977
0
LINE
8
BLACK
6
CONTINUOUS
10
-88.0183749999999918
20
-29.7994129999999977
11
-87.6915509999999898
21
-28.438094999999997
0
LINE
8
BLACK
6
CONTINUOUS
10
-87.6915509999999898
20
-28.438094999999997
11
-88.730095999999989
21
-28.9086529999999975
0
LINE
8
BLACK
6
CONTINUOUS
10
17.0870029999999993
20
13.5824989999999985
11
17.1968449999999997
21
12.1868160000000003
0
LINE
8
BLACK
6
CONTINUOUS
10
17.1968449999999997
20
12.1868160000000003
11
18.0391499999999994
21
12.955271999999999
0
LINE
8
BLACK
6
CONTINUOUS
10
17.9842279999999981
20
13.6531139999999986
11
18.0940709999999996
21
12.2574290000000001
0
LINE
8
BLACK
6
CONTINUOUS
10
18.0391499999999994
20
12.955271999999999
11
17.0870029999999993
21
13.5824989999999985
0
LINE
8
BLACK
6
CONTINUOUS
10
-163.5269380000000012
20
23.4341989999999996
11
-163.4170959999999866
21
22.0385159999999978
0
LINE
8
BLACK
6
CONTINUOUS
10
-163.4170959999999866
20
22.0385159999999978
11
-162.5747910000000047
21
22.8069719999999982
0
LINE
8
BLACK
6
CONTINUOUS
10
-162.6297129999999811
20
23.5048139999999997
11
-162.5198699999999974
21
22.1091289999999994
0
LINE
8
BLACK
6
CONTINUOUS
10
-162.5747910000000047
20
22.8069719999999982
11
-163.5269380000000012
21
23.4341989999999996
0
LINE
8
BLACK
6
CONTINUOUS
10
-87.994378999999995
20
12.249585999999999
11
-87.0422319999999985
21
12.8768130000000003
0
LINE
8
BLACK
6
CONTINUOUS
10
-87.8845369999999946
20
13.645268999999999
11
-87.994378999999995
21
12.249585999999999
0
LINE
8
BLACK
6
CONTINUOUS
10
-87.0422319999999985
20
12.8768130000000003
11
-87.8845369999999946
21
13.645268999999999
0
LINE
8
BLACK
6
CONTINUOUS
10
-86.9873109999999912
20
13.5746559999999992
11
-87.0971539999999891
21
12.1789709999999989
0
LINE
8
BLACK
6
CONTINUOUS
10
92.6195620000000019
20
22.1012850000000007
11
93.5717089999999985
21
22.7285119999999985
0
LINE
8
BLACK
6
CONTINUOUS
10
92.7294040000000024
20
23.496967999999999
11
92.6195620000000019
21
22.1012850000000007
0
LINE
8
BLACK
6
CONTINUOUS
10
93.5717089999999985
20
22.7285119999999985
11
92.7294040000000024
21
23.496967999999999
0
LINE
8
BLACK
6
CONTINUOUS
10
93.6266299999999916
20
23.4263549999999974
11
93.5167869999999937
21
22.0306700000000006
0
LINE
8
BLACK
6
CONTINUOUS
10
91.1680690000000027
20
3.6583139999999998
11
92.1202159999999992
21
4.2855409999999994
0
LINE
8
BLACK
6
CONTINUOUS
10
91.2779109999999889
20
5.0539969999999999
11
91.1680690000000027
21
3.6583139999999998
0
LINE
8
BLACK
6
CONTINUOUS
10
92.1202159999999992
20
4.2855409999999994
11
91.2779109999999889
21
5.0539969999999999
0
LINE
8
BLACK
6
CONTINUOUS
10
92.1751369999999923
20
4.983384
11
92.0652939999999944
21
3.5876989999999997
0
LINE
8
BLACK
6
CONTINUOUS
10
-68.0999149999999958
20
29.2410629999999969
11
-67.1477679999999992
21
29.8682899999999982
0
LINE
8
BLACK
6
CONTINUOUS
10
-67.9900729999999953
20
30.6367459999999987
11
-68.0999149999999958
21
29.2410629999999969
0
LINE
8
BLACK
6
CONTINUOUS
10
-67.1477679999999992
20
29.8682899999999982
11
-67.9900729999999953
21
30.6367459999999987
0
LINE
8
BLACK
6
CONTINUOUS
10
-67.0928469999999919
20
30.5661329999999971
11
-67.202690000000004
21
29.1704480000000004
  0
ENDSEC
  0
EOF
