%TF.GenerationSoftware,KiCad,Pcbnew,9.0.0*%
%TF.CreationDate,2025-05-12T23:02:27+03:00*%
%TF.ProjectId,NIOKR,4e494f4b-522e-46b6-9963-61645f706362,rev?*%
%TF.SameCoordinates,Original*%
%TF.FileFunction,Copper,L2,Bot*%
%TF.FilePolarity,Positive*%
%FSLAX46Y46*%
G04 Gerber Fmt 4.6, Leading zero omitted, Abs format (unit mm)*
G04 Created by KiCad (PCBNEW 9.0.0) date 2025-05-12 23:02:27*
%MOMM*%
%LPD*%
G01*
G04 APERTURE LIST*
G04 Aperture macros list*
%AMRoundRect*
0 Rectangle with rounded corners*
0 $1 Rounding radius*
0 $2 $3 $4 $5 $6 $7 $8 $9 X,Y pos of 4 corners*
0 Add a 4 corners polygon primitive as box body*
4,1,4,$2,$3,$4,$5,$6,$7,$8,$9,$2,$3,0*
0 Add four circle primitives for the rounded corners*
1,1,$1+$1,$2,$3*
1,1,$1+$1,$4,$5*
1,1,$1+$1,$6,$7*
1,1,$1+$1,$8,$9*
0 Add four rect primitives between the rounded corners*
20,1,$1+$1,$2,$3,$4,$5,0*
20,1,$1+$1,$4,$5,$6,$7,0*
20,1,$1+$1,$6,$7,$8,$9,0*
20,1,$1+$1,$8,$9,$2,$3,0*%
G04 Aperture macros list end*
%TA.AperFunction,Conductor*%
%ADD10C,0.000000*%
%TD*%
%TA.AperFunction,CastellatedPad*%
%ADD11RoundRect,0.250000X-0.706497X-0.582226X0.788879X-0.464537X0.706497X0.582226X-0.788879X0.464537X0*%
%TD*%
%TA.AperFunction,CastellatedPad*%
%ADD12RoundRect,0.250000X-0.788879X-0.464537X0.706497X-0.582226X0.788879X0.464537X-0.706497X0.582226X0*%
%TD*%
%TA.AperFunction,SMDPad,CuDef*%
%ADD13RoundRect,0.271739X0.687844X1.325458X-1.214619X0.868717X-0.687844X-1.325458X1.214619X-0.868717X0*%
%TD*%
%TA.AperFunction,SMDPad,CuDef*%
%ADD14RoundRect,0.271739X0.886723X1.201536X-1.063768X1.048029X-0.886723X-1.201536X1.063768X-1.048029X0*%
%TD*%
%TA.AperFunction,SMDPad,CuDef*%
%ADD15RoundRect,0.271739X0.948391X1.153482X-1.007460X1.102266X-0.948391X-1.153482X1.007460X-1.102266X0*%
%TD*%
%TA.AperFunction,SMDPad,CuDef*%
%ADD16RoundRect,0.271739X1.007460X1.102266X-0.948391X1.153482X-1.007460X-1.102266X0.948391X-1.153482X0*%
%TD*%
%TA.AperFunction,SMDPad,CuDef*%
%ADD17RoundRect,0.271739X1.063768X1.048029X-0.886723X1.201536X-1.063768X-1.048029X0.886723X-1.201536X0*%
%TD*%
%TA.AperFunction,SMDPad,CuDef*%
%ADD18RoundRect,0.271739X1.214619X0.868717X-0.687844X1.325458X-1.214619X-0.868717X0.687844X-1.325458X0*%
%TD*%
%TA.AperFunction,ComponentPad*%
%ADD19C,2.540000*%
%TD*%
%TA.AperFunction,WasherPad*%
%ADD20C,0.900000*%
%TD*%
%TA.AperFunction,SMDPad,CuDef*%
%ADD21RoundRect,0.250000X0.608767X0.549457X-0.687226X0.447460X-0.608767X-0.549457X0.687226X-0.447460X0*%
%TD*%
%TA.AperFunction,SMDPad,CuDef*%
%ADD22RoundRect,0.250000X0.687226X0.447460X-0.608767X0.549457X-0.687226X-0.447460X0.608767X-0.549457X0*%
%TD*%
%TA.AperFunction,SMDPad,CuDef*%
%ADD23RoundRect,0.250000X0.636689X0.516844X-0.662866X0.482814X-0.636689X-0.516844X0.662866X-0.482814X0*%
%TD*%
%TA.AperFunction,SMDPad,CuDef*%
%ADD24RoundRect,0.250000X0.748763X0.334445X-0.515318X0.637924X-0.748763X-0.334445X0.515318X-0.637924X0*%
%TD*%
%TA.AperFunction,SMDPad,CuDef*%
%ADD25RoundRect,0.250000X0.515318X0.637924X-0.748763X0.334445X-0.515318X-0.637924X0.748763X-0.334445X0*%
%TD*%
%TA.AperFunction,SMDPad,CuDef*%
%ADD26RoundRect,0.250000X0.662866X0.482814X-0.636689X0.516844X-0.662866X-0.482814X0.636689X-0.516844X0*%
%TD*%
G04 APERTURE END LIST*
D10*
%TA.AperFunction,Conductor*%
%TO.N,L-COL0*%
G36*
X-153889832Y-2846467D02*
G01*
X-153886206Y-2863397D01*
X-153885943Y-2865579D01*
X-153885725Y-2867759D01*
X-153885550Y-2869932D01*
X-153885413Y-2872096D01*
X-153885311Y-2874248D01*
X-153885240Y-2876385D01*
X-153885196Y-2878504D01*
X-153885176Y-2880601D01*
X-153884144Y-3323243D01*
X-153916186Y-3008127D01*
X-153916449Y-3005746D01*
X-153971747Y-2545106D01*
X-153889832Y-2846467D01*
G37*
%TD.AperFunction*%
%TD*%
D11*
%TO.P,U2,1,P0.02_A0_D0*%
%TO.N,R-ROW3*%
X35752268Y-27737623D03*
%TO.P,U2,2,P0.03_A1_D1*%
%TO.N,R-ROW2*%
X35552982Y-25205453D03*
%TO.P,U2,3,P0.28_A2_D2*%
%TO.N,R-ROW1*%
X35353696Y-22673283D03*
%TO.P,U2,4,P0.29_A3_D3*%
%TO.N,R-ROW0*%
X35154410Y-20141113D03*
%TO.P,U2,5,P0.04_A4_D4_SDA*%
%TO.N,R-COL5*%
X34955124Y-17608943D03*
%TO.P,U2,6,P0.05_A5_D5_SCL*%
%TO.N,R-COL4*%
X34755838Y-15076773D03*
%TO.P,U2,7,P1.11_D6_TX*%
%TO.N,unconnected-(U2-P1.11_D6_TX-Pad7)*%
X34556552Y-12544603D03*
%TO.P,U2,8,P1.12_D7_RX*%
%TO.N,R-COL0*%
X52680509Y-11118217D03*
%TO.P,U2,9,P1.13_D8_SCK*%
%TO.N,R-COL1*%
X52879795Y-13650387D03*
%TO.P,U2,10,P1.14_D9_MISO*%
%TO.N,R-COL2*%
X53079081Y-16182557D03*
%TO.P,U2,11,P1.15_D10_MOSI*%
%TO.N,R-COL3*%
X53278367Y-18714727D03*
%TO.P,U2,12,3V3*%
%TO.N,unconnected-(U2-3V3-Pad12)*%
X53477653Y-21246897D03*
%TO.P,U2,13,GND*%
%TO.N,R-GND*%
X53676939Y-23779067D03*
%TO.P,U2,14,5V*%
%TO.N,unconnected-(U2-5V-Pad14)*%
X53876225Y-26311237D03*
%TD*%
D12*
%TO.P,U1,1,P0.02_A0_D0*%
%TO.N,L-ROW3*%
X-123876225Y-26311237D03*
%TO.P,U1,2,P0.03_A1_D1*%
%TO.N,L-ROW2*%
X-123676939Y-23779067D03*
%TO.P,U1,3,P0.28_A2_D2*%
%TO.N,L-ROW1*%
X-123477653Y-21246897D03*
%TO.P,U1,4,P0.29_A3_D3*%
%TO.N,L-ROW0*%
X-123278367Y-18714727D03*
%TO.P,U1,5,P0.04_A4_D4_SDA*%
%TO.N,L-COL5*%
X-123079081Y-16182557D03*
%TO.P,U1,6,P0.05_A5_D5_SCL*%
%TO.N,L-COL4*%
X-122879795Y-13650387D03*
%TO.P,U1,7,P1.11_D6_TX*%
%TO.N,unconnected-(U1-P1.11_D6_TX-Pad7)*%
X-122680509Y-11118217D03*
%TO.P,U1,8,P1.12_D7_RX*%
%TO.N,L-COL0*%
X-104556552Y-12544603D03*
%TO.P,U1,9,P1.13_D8_SCK*%
%TO.N,L-COL1*%
X-104755838Y-15076773D03*
%TO.P,U1,10,P1.14_D9_MISO*%
%TO.N,L-COL2*%
X-104955124Y-17608943D03*
%TO.P,U1,11,P1.15_D10_MOSI*%
%TO.N,L-COL3*%
X-105154410Y-20141113D03*
%TO.P,U1,12,3V3*%
%TO.N,unconnected-(U1-3V3-Pad12)*%
X-105353696Y-22673283D03*
%TO.P,U1,13,GND*%
%TO.N,L-GND*%
X-105552982Y-25205453D03*
%TO.P,U1,14,5V*%
%TO.N,unconnected-(U1-5V-Pad14)*%
X-105752268Y-27737623D03*
%TD*%
D13*
%TO.P,R-S20,1,1*%
%TO.N,R-COL5*%
X-12355445Y-25367589D03*
%TO.P,R-S20,2,2*%
%TO.N,Net-(R-D20-A)*%
X-23759568Y-25842963D03*
%TD*%
%TO.P,R-S19,1,1*%
%TO.N,R-COL4*%
X5633399Y-21048850D03*
%TO.P,R-S19,2,2*%
%TO.N,Net-(R-D19-A)*%
X-5770724Y-21524224D03*
%TD*%
%TO.P,R-S18,1,1*%
%TO.N,R-COL3*%
X23622242Y-16730111D03*
%TO.P,R-S18,2,2*%
%TO.N,Net-(R-D18-A)*%
X12218119Y-17205485D03*
%TD*%
D14*
%TO.P,R-S17,1,1*%
%TO.N,R-COL5*%
X7784732Y4324113D03*
%TO.P,R-S17,2,2*%
%TO.N,Net-(R-D17-A)*%
X-3553352Y5638589D03*
%TD*%
%TO.P,R-S16,1,1*%
%TO.N,R-COL4*%
X26227703Y5775606D03*
%TO.P,R-S16,2,2*%
%TO.N,Net-(R-D16-A)*%
X14889619Y7090082D03*
%TD*%
D15*
%TO.P,R-S15,1,1*%
%TO.N,R-COL3*%
X44095208Y19861083D03*
%TO.P,R-S15,2,2*%
%TO.N,Net-(R-D15-A)*%
X32841456Y21767148D03*
%TD*%
D16*
%TO.P,R-S14,1,1*%
%TO.N,R-COL2*%
X62989527Y14055943D03*
%TO.P,R-S14,2,2*%
%TO.N,Net-(R-D14-A)*%
X51850954Y16548371D03*
%TD*%
D17*
%TO.P,R-S13,1,1*%
%TO.N,R-COL1*%
X80641836Y-2635209D03*
%TO.P,R-S13,2,2*%
%TO.N,Net-(R-D13-A)*%
X69648972Y436751D03*
%TD*%
%TO.P,R-S12,1,1*%
%TO.N,R-COL0*%
X99084806Y-4086703D03*
%TO.P,R-S12,2,2*%
%TO.N,Net-(R-D12-A)*%
X88091942Y-1014743D03*
%TD*%
D14*
%TO.P,R-S11,1,1*%
%TO.N,R-COL5*%
X6411698Y21770166D03*
%TO.P,R-S11,2,2*%
%TO.N,Net-(R-D11-A)*%
X-4926386Y23084642D03*
%TD*%
%TO.P,R-S10,1,1*%
%TO.N,R-COL4*%
X24854668Y23221660D03*
%TO.P,R-S10,2,2*%
%TO.N,Net-(R-D10-A)*%
X13516584Y24536136D03*
%TD*%
D15*
%TO.P,R-S9,1,1*%
%TO.N,R-COL3*%
X43637112Y37355087D03*
%TO.P,R-S9,2,2*%
%TO.N,Net-(R-D9-A)*%
X32383360Y39261152D03*
%TD*%
D16*
%TO.P,R-S8,1,1*%
%TO.N,R-COL2*%
X63447623Y31549946D03*
%TO.P,R-S8,2,2*%
%TO.N,Net-(R-D8-A)*%
X52309050Y34042374D03*
%TD*%
D17*
%TO.P,R-S7,1,1*%
%TO.N,R-COL1*%
X82014870Y14810844D03*
%TO.P,R-S7,2,2*%
%TO.N,Net-(R-D7-A)*%
X71022006Y17882804D03*
%TD*%
%TO.P,R-S6,1,1*%
%TO.N,R-COL0*%
X100457841Y13359351D03*
%TO.P,R-S6,2,2*%
%TO.N,Net-(R-D6-A)*%
X89464977Y16431311D03*
%TD*%
D14*
%TO.P,R-S5,1,1*%
%TO.N,R-COL5*%
X5038664Y39216220D03*
%TO.P,R-S5,2,2*%
%TO.N,Net-(R-D5-A)*%
X-6299420Y40530696D03*
%TD*%
%TO.P,R-S4,1,1*%
%TO.N,R-COL4*%
X23481634Y40667713D03*
%TO.P,R-S4,2,2*%
%TO.N,Net-(R-D4-A)*%
X12143550Y41982189D03*
%TD*%
D15*
%TO.P,R-S3,1,1*%
%TO.N,R-COL3*%
X43179015Y54849090D03*
%TO.P,R-S3,2,2*%
%TO.N,Net-(R-D03-A)*%
X31925263Y56755155D03*
%TD*%
D16*
%TO.P,R-S2,1,1*%
%TO.N,R-COL2*%
X63905720Y49043950D03*
%TO.P,R-S2,2,2*%
%TO.N,Net-(R-D2-A)*%
X52767147Y51536378D03*
%TD*%
D17*
%TO.P,R-S1,1,1*%
%TO.N,R-COL1*%
X83387904Y32256897D03*
%TO.P,R-S1,2,2*%
%TO.N,Net-(R-D1-A)*%
X72395040Y35328857D03*
%TD*%
%TO.P,R-S0,1,1*%
%TO.N,R-COL0*%
X101830875Y30805404D03*
%TO.P,R-S0,2,2*%
%TO.N,Net-(R-D0-A)*%
X90838011Y33877364D03*
%TD*%
D18*
%TO.P,L-S20,1,1*%
%TO.N,L-COL5*%
X-41892162Y-29149404D03*
%TO.P,L-S20,2,2*%
%TO.N,Net-(L-D20-A)*%
X-52269125Y-24395602D03*
%TD*%
%TO.P,L-S19,1,1*%
%TO.N,L-COL4*%
X-59881006Y-24830665D03*
%TO.P,L-S19,2,2*%
%TO.N,Net-(L-D19-A)*%
X-70257969Y-20076863D03*
%TD*%
%TO.P,L-S18,1,1*%
%TO.N,L-COL3*%
X-77869849Y-20511926D03*
%TO.P,L-S18,2,2*%
%TO.N,Net-(L-D18-A)*%
X-88246812Y-15758124D03*
%TD*%
D17*
%TO.P,L-S17,1,1*%
%TO.N,L-COL5*%
X-61634671Y3053075D03*
%TO.P,L-S17,2,2*%
%TO.N,Net-(L-D17-A)*%
X-72627535Y6125035D03*
%TD*%
%TO.P,L-S16,1,1*%
%TO.N,L-COL4*%
X-80077642Y4504568D03*
%TO.P,L-S16,2,2*%
%TO.N,Net-(L-D16-A)*%
X-91070506Y7576528D03*
%TD*%
D16*
%TO.P,L-S15,1,1*%
%TO.N,L-COL3*%
X-97900759Y19437017D03*
%TO.P,L-S15,2,2*%
%TO.N,Net-(L-D15-A)*%
X-109039332Y21929445D03*
%TD*%
D15*
%TO.P,L-S14,1,1*%
%TO.N,L-COL2*%
X-116795078Y14480009D03*
%TO.P,L-S14,2,2*%
%TO.N,Net-(L-D14-A)*%
X-128048830Y16386074D03*
%TD*%
D14*
%TO.P,L-S13,1,1*%
%TO.N,L-COL1*%
X-134491775Y-1364171D03*
%TO.P,L-S13,2,2*%
%TO.N,Net-(L-D13-A)*%
X-145829859Y-49695D03*
%TD*%
%TO.P,L-S12,1,1*%
%TO.N,L-COL0*%
X-152934745Y-2815665D03*
%TO.P,L-S12,2,2*%
%TO.N,Net-(L-D12-A)*%
X-164272829Y-1501189D03*
%TD*%
D17*
%TO.P,L-S11,1,1*%
%TO.N,L-COL5*%
X-60261637Y20499128D03*
%TO.P,L-S11,2,2*%
%TO.N,Net-(L-D11-A)*%
X-71254501Y23571088D03*
%TD*%
%TO.P,L-S10,1,1*%
%TO.N,L-COL4*%
X-78704607Y21950622D03*
%TO.P,L-S10,2,2*%
%TO.N,Net-(L-D10-A)*%
X-89697471Y25022582D03*
%TD*%
D16*
%TO.P,L-S9,1,1*%
%TO.N,L-COL3*%
X-97442663Y36931021D03*
%TO.P,L-S9,2,2*%
%TO.N,Net-(L-D9-A)*%
X-108581236Y39423449D03*
%TD*%
D15*
%TO.P,L-S8,1,1*%
%TO.N,L-COL2*%
X-117253174Y31974012D03*
%TO.P,L-S8,2,2*%
%TO.N,Net-(L-D8-A)*%
X-128506926Y33880077D03*
%TD*%
D14*
%TO.P,L-S7,1,1*%
%TO.N,L-COL1*%
X-135864809Y16081882D03*
%TO.P,L-S7,2,2*%
%TO.N,Net-(L-D7-A)*%
X-147202893Y17396358D03*
%TD*%
%TO.P,L-S6,1,1*%
%TO.N,L-COL0*%
X-154307780Y14630389D03*
%TO.P,L-S6,2,2*%
%TO.N,Net-(L-D6-A)*%
X-165645864Y15944865D03*
%TD*%
D17*
%TO.P,L-S5,1,1*%
%TO.N,L-COL5*%
X-58888603Y37945182D03*
%TO.P,L-S5,2,2*%
%TO.N,Net-(L-D5-A)*%
X-69881467Y41017142D03*
%TD*%
%TO.P,L-S4,1,1*%
%TO.N,L-COL4*%
X-77331573Y39396675D03*
%TO.P,L-S4,2,2*%
%TO.N,Net-(L-D4-A)*%
X-88324437Y42468635D03*
%TD*%
D16*
%TO.P,L-S3,1,1*%
%TO.N,L-COL3*%
X-96984566Y54425024D03*
%TO.P,L-S3,2,2*%
%TO.N,Net-(L-D3-A)*%
X-108123139Y56917452D03*
%TD*%
D15*
%TO.P,L-S2,1,1*%
%TO.N,L-COL2*%
X-117711271Y49468016D03*
%TO.P,L-S2,2,2*%
%TO.N,Net-(L-D2-A)*%
X-128965023Y51374081D03*
%TD*%
D14*
%TO.P,L-S1,1,1*%
%TO.N,L-COL1*%
X-137237843Y33527935D03*
%TO.P,L-S1,2,2*%
%TO.N,Net-(L-D1-A)*%
X-148575927Y34842411D03*
%TD*%
%TO.P,L-S0,1,1*%
%TO.N,L-COL0*%
X-155680814Y32076442D03*
%TO.P,L-S0,2,2*%
%TO.N,Net-(L-D0-A)*%
X-167018898Y33390918D03*
%TD*%
D19*
%TO.P,R-BAT+2,1,BAT+*%
%TO.N,R-BAT+*%
X32163658Y-20376491D03*
%TD*%
%TO.P,L-BAT+2,1,BAT+*%
%TO.N,L-BAT+*%
X-126268812Y-18479374D03*
%TD*%
%TO.P,R-BAT+1,1,BAT+*%
%TO.N,R-VBAT*%
X39448972Y754882D03*
%TD*%
D20*
%TO.P,L-PSW1,*%
%TO.N,*%
X-172508804Y-20503461D03*
X-172558804Y-23503461D03*
%TD*%
%TO.P,R-PSW1,*%
%TO.N,*%
X102508819Y-23751041D03*
X102558819Y-20751041D03*
%TD*%
D19*
%TO.P,L-GND1,1,GND*%
%TO.N,L-GND*%
X-103448972Y754882D03*
%TD*%
%TO.P,L-BAT+1,1,BAT+*%
%TO.N,L-VBAT*%
X-109448972Y754882D03*
%TD*%
%TO.P,R-GND1,1,GND*%
%TO.N,R-GND*%
X33448972Y754882D03*
%TD*%
D21*
%TO.P,R-D16,1,K*%
%TO.N,R-ROW2*%
X20686942Y-5393548D03*
%TO.P,R-D16,2,A*%
%TO.N,Net-(R-D16-A)*%
X17297426Y-5660308D03*
%TD*%
D22*
%TO.P,L-D11,1,K*%
%TO.N,L-ROW1*%
X-67481421Y10334252D03*
%TO.P,L-D11,2,A*%
%TO.N,Net-(L-D11-A)*%
X-70870937Y10601012D03*
%TD*%
D21*
%TO.P,L-D6,1,K*%
%TO.N,L-ROW1*%
X-159848534Y3461235D03*
%TO.P,L-D6,2,A*%
%TO.N,Net-(L-D6-A)*%
X-163238050Y3194475D03*
%TD*%
D22*
%TO.P,R-D13,1,K*%
%TO.N,R-ROW2*%
X73422057Y-12800086D03*
%TO.P,R-D13,2,A*%
%TO.N,Net-(R-D13-A)*%
X70032541Y-12533326D03*
%TD*%
D23*
%TO.P,R-D15,1,K*%
%TO.N,R-ROW2*%
X37977494Y8997218D03*
%TO.P,R-D15,2,A*%
%TO.N,Net-(R-D15-A)*%
X34578660Y8908216D03*
%TD*%
%TO.P,L-D8,1,K*%
%TO.N,L-ROW1*%
X-123370889Y21110147D03*
%TO.P,L-D8,2,A*%
%TO.N,Net-(L-D8-A)*%
X-126769723Y21021145D03*
%TD*%
D21*
%TO.P,R-D17,1,K*%
%TO.N,R-ROW2*%
X2243978Y-6845041D03*
%TO.P,R-D17,2,A*%
%TO.N,Net-(R-D17-A)*%
X-1145538Y-7111801D03*
%TD*%
%TO.P,L-D7,1,K*%
%TO.N,L-ROW1*%
X-141405570Y4912727D03*
%TO.P,L-D7,2,A*%
%TO.N,Net-(L-D7-A)*%
X-144795086Y4645967D03*
%TD*%
D22*
%TO.P,R-D1,1,K*%
%TO.N,R-ROW0*%
X76168120Y22092021D03*
%TO.P,R-D1,2,A*%
%TO.N,Net-(R-D1-A)*%
X72778604Y22358781D03*
%TD*%
D24*
%TO.P,L-D19,1,K*%
%TO.N,L-ROW3*%
X-68602036Y-33740973D03*
%TO.P,L-D19,2,A*%
%TO.N,Net-(L-D19-A)*%
X-71908094Y-32947259D03*
%TD*%
D22*
%TO.P,L-D4,1,K*%
%TO.N,L-ROW0*%
X-84551358Y29231798D03*
%TO.P,L-D4,2,A*%
%TO.N,Net-(L-D4-A)*%
X-87940874Y29498558D03*
%TD*%
D21*
%TO.P,L-D1,1,K*%
%TO.N,L-ROW0*%
X-142778603Y22358781D03*
%TO.P,L-D1,2,A*%
%TO.N,Net-(L-D1-A)*%
X-146168119Y22092021D03*
%TD*%
D25*
%TO.P,R-D20,1,K*%
%TO.N,R-ROW3*%
X-16080747Y-37265998D03*
%TO.P,R-D20,2,A*%
%TO.N,Net-(R-D20-A)*%
X-19386805Y-38059712D03*
%TD*%
D23*
%TO.P,R-D9,1,K*%
%TO.N,R-ROW1*%
X37519416Y26491222D03*
%TO.P,R-D9,2,A*%
%TO.N,Net-(R-D9-A)*%
X34120582Y26402220D03*
%TD*%
D26*
%TO.P,R-D14,1,K*%
%TO.N,R-ROW2*%
X56311626Y3527142D03*
%TO.P,R-D14,2,A*%
%TO.N,Net-(R-D14-A)*%
X52912792Y3616144D03*
%TD*%
D23*
%TO.P,R-D03,1,K*%
%TO.N,R-ROW0*%
X37029417Y43944501D03*
%TO.P,R-D03,2,A*%
%TO.N,Net-(R-D03-A)*%
X33630583Y43855499D03*
%TD*%
D25*
%TO.P,R-D19,1,K*%
%TO.N,R-ROW3*%
X1908097Y-32947259D03*
%TO.P,R-D19,2,A*%
%TO.N,Net-(R-D19-A)*%
X-1397961Y-33740973D03*
%TD*%
%TO.P,R-D18,1,K*%
%TO.N,R-ROW3*%
X19896938Y-28628520D03*
%TO.P,R-D18,2,A*%
%TO.N,Net-(R-D18-A)*%
X16590880Y-29422234D03*
%TD*%
D26*
%TO.P,L-D9,1,K*%
%TO.N,L-ROW1*%
X-104120582Y26402220D03*
%TO.P,L-D9,2,A*%
%TO.N,Net-(L-D9-A)*%
X-107519416Y26491222D03*
%TD*%
%TO.P,L-D3,1,K*%
%TO.N,L-ROW0*%
X-103662486Y43896223D03*
%TO.P,L-D3,2,A*%
%TO.N,Net-(L-D3-A)*%
X-107061320Y43985225D03*
%TD*%
D21*
%TO.P,L-D12,1,K*%
%TO.N,L-ROW2*%
X-158475506Y-13984819D03*
%TO.P,L-D12,2,A*%
%TO.N,Net-(L-D12-A)*%
X-161865022Y-14251579D03*
%TD*%
D24*
%TO.P,L-D20,1,K*%
%TO.N,L-ROW3*%
X-50613193Y-38059712D03*
%TO.P,L-D20,2,A*%
%TO.N,Net-(L-D20-A)*%
X-53919251Y-37265998D03*
%TD*%
D21*
%TO.P,R-D5,1,K*%
%TO.N,R-ROW0*%
X-502097Y28047065D03*
%TO.P,R-D5,2,A*%
%TO.N,Net-(R-D5-A)*%
X-3891613Y27780305D03*
%TD*%
D22*
%TO.P,L-D17,1,K*%
%TO.N,L-ROW2*%
X-68854456Y-7111801D03*
%TO.P,L-D17,2,A*%
%TO.N,Net-(L-D17-A)*%
X-72243972Y-6845041D03*
%TD*%
D23*
%TO.P,L-D14,1,K*%
%TO.N,L-ROW2*%
X-122912792Y3616144D03*
%TO.P,L-D14,2,A*%
%TO.N,Net-(L-D14-A)*%
X-126311626Y3527142D03*
%TD*%
D21*
%TO.P,R-D11,1,K*%
%TO.N,R-ROW1*%
X870937Y10601012D03*
%TO.P,R-D11,2,A*%
%TO.N,Net-(R-D11-A)*%
X-2518579Y10334252D03*
%TD*%
D26*
%TO.P,L-D15,1,K*%
%TO.N,L-ROW2*%
X-104578641Y8908216D03*
%TO.P,L-D15,2,A*%
%TO.N,Net-(L-D15-A)*%
X-107977475Y8997218D03*
%TD*%
%TO.P,R-D2,1,K*%
%TO.N,R-ROW0*%
X57227800Y38515149D03*
%TO.P,R-D2,2,A*%
%TO.N,Net-(R-D2-A)*%
X53828966Y38604151D03*
%TD*%
%TO.P,R-D8,1,K*%
%TO.N,R-ROW1*%
X56769723Y21021145D03*
%TO.P,R-D8,2,A*%
%TO.N,Net-(R-D8-A)*%
X53370889Y21110147D03*
%TD*%
D23*
%TO.P,L-D2,1,K*%
%TO.N,L-ROW0*%
X-123828966Y38604151D03*
%TO.P,L-D2,2,A*%
%TO.N,Net-(L-D2-A)*%
X-127227800Y38515149D03*
%TD*%
D21*
%TO.P,R-D4,1,K*%
%TO.N,R-ROW0*%
X17940874Y29498559D03*
%TO.P,R-D4,2,A*%
%TO.N,Net-(R-D4-A)*%
X14551358Y29231799D03*
%TD*%
D22*
%TO.P,R-D7,1,K*%
%TO.N,R-ROW1*%
X74795079Y4645968D03*
%TO.P,R-D7,2,A*%
%TO.N,Net-(R-D7-A)*%
X71405563Y4912728D03*
%TD*%
%TO.P,L-D16,1,K*%
%TO.N,L-ROW2*%
X-87297426Y-5660308D03*
%TO.P,L-D16,2,A*%
%TO.N,Net-(L-D16-A)*%
X-90686942Y-5393548D03*
%TD*%
D21*
%TO.P,L-D13,1,K*%
%TO.N,L-ROW2*%
X-140032535Y-12533325D03*
%TO.P,L-D13,2,A*%
%TO.N,Net-(L-D13-A)*%
X-143422051Y-12800085D03*
%TD*%
D22*
%TO.P,R-D12,1,K*%
%TO.N,R-ROW2*%
X91865022Y-14251579D03*
%TO.P,R-D12,2,A*%
%TO.N,Net-(R-D12-A)*%
X88475506Y-13984819D03*
%TD*%
D24*
%TO.P,L-D18,1,K*%
%TO.N,L-ROW3*%
X-86590882Y-29422233D03*
%TO.P,L-D18,2,A*%
%TO.N,Net-(L-D18-A)*%
X-89896940Y-28628519D03*
%TD*%
D21*
%TO.P,R-D10,1,K*%
%TO.N,R-ROW1*%
X19313915Y12052506D03*
%TO.P,R-D10,2,A*%
%TO.N,Net-(R-D10-A)*%
X15924399Y11785746D03*
%TD*%
%TO.P,L-D0,1,K*%
%TO.N,L-ROW0*%
X-161221574Y20907287D03*
%TO.P,L-D0,2,A*%
%TO.N,Net-(L-D0-A)*%
X-164611090Y20640527D03*
%TD*%
D22*
%TO.P,L-D10,1,K*%
%TO.N,L-ROW1*%
X-85924386Y11785745D03*
%TO.P,L-D10,2,A*%
%TO.N,Net-(L-D10-A)*%
X-89313902Y12052505D03*
%TD*%
%TO.P,R-D0,1,K*%
%TO.N,R-ROW0*%
X94611090Y20640528D03*
%TO.P,R-D0,2,A*%
%TO.N,Net-(R-D0-A)*%
X91221574Y20907288D03*
%TD*%
%TO.P,R-D6,1,K*%
%TO.N,R-ROW1*%
X93238056Y3194474D03*
%TO.P,R-D6,2,A*%
%TO.N,Net-(R-D6-A)*%
X89848540Y3461234D03*
%TD*%
%TO.P,L-D5,1,K*%
%TO.N,L-ROW0*%
X-66108381Y27780305D03*
%TO.P,L-D5,2,A*%
%TO.N,Net-(L-D5-A)*%
X-69497897Y28047065D03*
%TD*%
M02*
