  0
SECTION
  2
HEADER
  9
$ANGBASE
  50
0.0
  9
$ANGDIR
  70
1
  9
$MEASUREMENT
  70
1
  0
ENDSEC
  0
SECTION
  2
TABLES
  0
TABLE
  2
LTYPE
  70
4
  0
LTYPE
  5
40F
  2
CONTINUOUS
  70
0
  3
Solid line
  72
65
  73
0
  40
0.0
  0
LTYPE
  5
410
  2
DASHDOT
 70
0
  3
Dash Dot ____ _ ____ _
 72
65
 73
4
 40
2.0
 49
1.25
 49
-0.25
 49
0.25
 49
-0.25
  0
LTYPE
  5
411
  2
DASHED
 70
0
  3
Dashed __ __ __ __ __
 72
65
 73
2
 40
0.75
 49
0.5
 49
-0.25
  0
LTYPE
  5
43B
  2
DOTTED
 70
0
  3
Dotted .  .  .  .
 72
65
 73
2
 40
0.2
 49
0.0
 49
-0.2
  0
ENDTAB
  0
TABLE
  2
STYLE
  70
4
  0
STYLE
  2
KICAD
  70
0
  40
0
  41
1
  42
1
  50
0
  71
0
  3
isocp.shx
  0
STYLE
  2
KICADB
  70
0
  40
0
  41
1
  42
1
  50
0
  71
0
  3
isocp.shx
  0
STYLE
  2
KICADI
  70
0
  40
0
  41
1
  42
1
  50
15
  71
0
  3
isocp.shx
  0
STYLE
  2
KICADBI
  70
0
  40
0
  41
1
  42
1
  50
15
  71
0
  3
isocp.shx
  0
ENDTAB
  0
TABLE
  2
LAYER
  70
1
  0
LAYER
  2
BLACK
  70
0
  62
7
  6
CONTINUOUS
  0
ENDTAB
  0
ENDSEC
  0
SECTION
  2
ENTITIES
0
LINE
8
BLACK
6
CONTINUOUS
10
-104.983003999999994
20
-27.5223139999999979
11
-104.8891209999999887
21
-27.5487919999999988
0
LINE
8
BLACK
6
CONTINUOUS
10
-104.8891209999999887
20
-27.5487919999999988
11
-104.8125169999999997
21
-27.6091809999999995
0
LINE
8
BLACK
6
CONTINUOUS
10
-104.8125169999999997
20
-27.6091809999999995
11
-104.7648549999999972
21
-27.6942889999999977
0
LINE
8
BLACK
6
CONTINUOUS
10
-104.7648549999999972
20
-27.6942889999999977
11
-104.753389999999996
21
-27.7911579999999994
0
LINE
8
BLACK
6
CONTINUOUS
10
-104.753389999999996
20
-27.7911579999999994
11
-104.8357719999999915
21
-28.8379219999999989
0
LINE
8
BLACK
6
CONTINUOUS
10
-104.8357719999999915
20
-28.8379219999999989
11
-104.8622489999999914
21
-28.9318049999999971
0
LINE
8
BLACK
6
CONTINUOUS
10
-104.8622489999999914
20
-28.9318049999999971
11
-104.9226389999999896
21
-29.0084090000000003
0
LINE
8
BLACK
6
CONTINUOUS
10
-104.9226389999999896
20
-29.0084090000000003
11
-105.0077469999999948
21
-29.0560709999999993
0
LINE
8
BLACK
6
CONTINUOUS
10
-105.0077469999999948
20
-29.0560709999999993
11
-105.1046159999999929
21
-29.0675359999999969
0
LINE
8
BLACK
6
CONTINUOUS
10
-105.1046159999999929
20
-29.0675359999999969
11
-106.5999920000000003
21
-28.9498479999999994
0
LINE
8
BLACK
6
CONTINUOUS
10
-106.5999920000000003
20
-28.9498479999999994
11
-106.6938749999999914
21
-28.9233699999999985
0
LINE
8
BLACK
6
CONTINUOUS
10
-106.6938749999999914
20
-28.9233699999999985
11
-106.7704789999999946
21
-28.8629809999999978
0
LINE
8
BLACK
6
CONTINUOUS
10
-106.7704789999999946
20
-28.8629809999999978
11
-106.8181409999999971
21
-28.7778729999999996
0
LINE
8
BLACK
6
CONTINUOUS
10
-106.8181409999999971
20
-28.7778729999999996
11
-106.8296059999999983
21
-28.6810039999999979
0
LINE
8
BLACK
6
CONTINUOUS
10
-106.8296059999999983
20
-28.6810039999999979
11
-106.7472239999999886
21
-27.6342399999999984
0
LINE
8
BLACK
6
CONTINUOUS
10
-106.7472239999999886
20
-27.6342399999999984
11
-106.7207469999999887
21
-27.5403570000000002
0
LINE
8
BLACK
6
CONTINUOUS
10
-106.7207469999999887
20
-27.5403570000000002
11
-106.6603569999999905
21
-27.4637530000000005
0
LINE
8
BLACK
6
CONTINUOUS
10
-106.6603569999999905
20
-27.4637530000000005
11
-106.5752489999999995
21
-27.416090999999998
0
LINE
8
BLACK
6
CONTINUOUS
10
-106.5752489999999995
20
-27.416090999999998
11
-106.4783800000000014
21
-27.4046260000000004
0
LINE
8
BLACK
6
CONTINUOUS
10
-106.4783800000000014
20
-27.4046260000000004
11
-104.983003999999994
21
-27.5223139999999979
0
LINE
8
BLACK
6
CONTINUOUS
10
36.5752489999999995
20
-27.416090999999998
11
36.6603569999999976
21
-27.4637530000000005
0
LINE
8
BLACK
6
CONTINUOUS
10
36.6603569999999976
20
-27.4637530000000005
11
36.7207469999999958
21
-27.5403570000000002
0
LINE
8
BLACK
6
CONTINUOUS
10
36.7207469999999958
20
-27.5403570000000002
11
36.7472239999999957
21
-27.6342399999999984
0
LINE
8
BLACK
6
CONTINUOUS
10
36.7472239999999957
20
-27.6342399999999984
11
36.8296059999999983
21
-28.6810039999999979
0
LINE
8
BLACK
6
CONTINUOUS
10
36.8296059999999983
20
-28.6810039999999979
11
36.8181409999999971
21
-28.7778729999999996
0
LINE
8
BLACK
6
CONTINUOUS
10
36.8181409999999971
20
-28.7778729999999996
11
36.7704790000000017
21
-28.8629809999999978
0
LINE
8
BLACK
6
CONTINUOUS
10
36.7704790000000017
20
-28.8629809999999978
11
36.6938749999999985
21
-28.9233699999999985
0
LINE
8
BLACK
6
CONTINUOUS
10
36.6938749999999985
20
-28.9233699999999985
11
36.5999920000000003
21
-28.9498479999999994
0
LINE
8
BLACK
6
CONTINUOUS
10
36.5999920000000003
20
-28.9498479999999994
11
35.104616
21
-29.0675359999999969
0
LINE
8
BLACK
6
CONTINUOUS
10
35.104616
20
-29.0675359999999969
11
35.0077470000000019
21
-29.0560709999999993
0
LINE
8
BLACK
6
CONTINUOUS
10
35.0077470000000019
20
-29.0560709999999993
11
34.9226389999999967
21
-29.0084090000000003
0
LINE
8
BLACK
6
CONTINUOUS
10
34.9226389999999967
20
-29.0084090000000003
11
34.8622489999999985
21
-28.9318049999999971
0
LINE
8
BLACK
6
CONTINUOUS
10
34.8622489999999985
20
-28.9318049999999971
11
34.8357719999999986
21
-28.8379219999999989
0
LINE
8
BLACK
6
CONTINUOUS
10
34.8357719999999986
20
-28.8379219999999989
11
34.753389999999996
21
-27.7911579999999994
0
LINE
8
BLACK
6
CONTINUOUS
10
34.753389999999996
20
-27.7911579999999994
11
34.7648549999999972
21
-27.6942889999999977
0
LINE
8
BLACK
6
CONTINUOUS
10
34.7648549999999972
20
-27.6942889999999977
11
34.8125169999999997
21
-27.6091809999999995
0
LINE
8
BLACK
6
CONTINUOUS
10
34.8125169999999997
20
-27.6091809999999995
11
34.8891209999999958
21
-27.5487919999999988
0
LINE
8
BLACK
6
CONTINUOUS
10
34.8891209999999958
20
-27.5487919999999988
11
34.9830040000000011
21
-27.5223139999999979
0
LINE
8
BLACK
6
CONTINUOUS
10
34.9830040000000011
20
-27.5223139999999979
11
36.4783800000000014
21
-27.4046260000000004
0
LINE
8
BLACK
6
CONTINUOUS
10
36.4783800000000014
20
-27.4046260000000004
11
36.5752489999999995
21
-27.416090999999998
0
LINE
8
BLACK
6
CONTINUOUS
10
-123.1069609999999983
20
-26.0959279999999971
11
-123.013077999999993
21
-26.122405999999998
0
LINE
8
BLACK
6
CONTINUOUS
10
-123.013077999999993
20
-26.122405999999998
11
-122.9364739999999898
21
-26.1827949999999987
0
LINE
8
BLACK
6
CONTINUOUS
10
-122.9364739999999898
20
-26.1827949999999987
11
-122.8888120000000015
21
-26.2679030000000004
0
LINE
8
BLACK
6
CONTINUOUS
10
-122.8888120000000015
20
-26.2679030000000004
11
-122.8773470000000003
21
-26.3647719999999985
0
LINE
8
BLACK
6
CONTINUOUS
10
-122.8773470000000003
20
-26.3647719999999985
11
-122.9597289999999958
21
-27.4115359999999981
0
LINE
8
BLACK
6
CONTINUOUS
10
-122.9597289999999958
20
-27.4115359999999981
11
-122.9862059999999957
21
-27.5054189999999998
0
LINE
8
BLACK
6
CONTINUOUS
10
-122.9862059999999957
20
-27.5054189999999998
11
-123.0465959999999939
21
-27.5820229999999995
0
LINE
8
BLACK
6
CONTINUOUS
10
-123.0465959999999939
20
-27.5820229999999995
11
-123.1317039999999992
21
-27.6296849999999985
0
LINE
8
BLACK
6
CONTINUOUS
10
-123.1317039999999992
20
-27.6296849999999985
11
-123.2285729999999973
21
-27.6411499999999997
0
LINE
8
BLACK
6
CONTINUOUS
10
-123.2285729999999973
20
-27.6411499999999997
11
-124.7239489999999904
21
-27.5234619999999985
0
LINE
8
BLACK
6
CONTINUOUS
10
-124.7239489999999904
20
-27.5234619999999985
11
-124.8178319999999957
21
-27.4969839999999976
0
LINE
8
BLACK
6
CONTINUOUS
10
-124.8178319999999957
20
-27.4969839999999976
11
-124.8944359999999989
21
-27.4365950000000005
0
LINE
8
BLACK
6
CONTINUOUS
10
-124.8944359999999989
20
-27.4365950000000005
11
-124.9420980000000014
21
-27.3514869999999988
0
LINE
8
BLACK
6
CONTINUOUS
10
-124.9420980000000014
20
-27.3514869999999988
11
-124.9535629999999884
21
-27.2546179999999971
0
LINE
8
BLACK
6
CONTINUOUS
10
-124.9535629999999884
20
-27.2546179999999971
11
-124.8711809999999929
21
-26.2078539999999975
0
LINE
8
BLACK
6
CONTINUOUS
10
-124.8711809999999929
20
-26.2078539999999975
11
-124.844703999999993
21
-26.1139709999999994
0
LINE
8
BLACK
6
CONTINUOUS
10
-124.844703999999993
20
-26.1139709999999994
11
-124.7843139999999948
21
-26.0373669999999997
0
LINE
8
BLACK
6
CONTINUOUS
10
-124.7843139999999948
20
-26.0373669999999997
11
-124.6992059999999896
21
-25.9897049999999972
0
LINE
8
BLACK
6
CONTINUOUS
10
-124.6992059999999896
20
-25.9897049999999972
11
-124.6023369999999915
21
-25.9782399999999996
0
LINE
8
BLACK
6
CONTINUOUS
10
-124.6023369999999915
20
-25.9782399999999996
11
-123.1069609999999983
21
-26.0959279999999971
0
LINE
8
BLACK
6
CONTINUOUS
10
54.6992059999999967
20
-25.9897049999999972
11
54.7843139999999948
21
-26.0373669999999997
0
LINE
8
BLACK
6
CONTINUOUS
10
54.7843139999999948
20
-26.0373669999999997
11
54.8447040000000001
21
-26.1139709999999994
0
LINE
8
BLACK
6
CONTINUOUS
10
54.8447040000000001
20
-26.1139709999999994
11
54.871181
21
-26.2078539999999975
0
LINE
8
BLACK
6
CONTINUOUS
10
54.871181
20
-26.2078539999999975
11
54.9535629999999955
21
-27.2546179999999971
0
LINE
8
BLACK
6
CONTINUOUS
10
54.9535629999999955
20
-27.2546179999999971
11
54.9420979999999943
21
-27.3514869999999988
0
LINE
8
BLACK
6
CONTINUOUS
10
54.9420979999999943
20
-27.3514869999999988
11
54.8944359999999989
21
-27.4365950000000005
0
LINE
8
BLACK
6
CONTINUOUS
10
54.8944359999999989
20
-27.4365950000000005
11
54.8178319999999957
21
-27.4969839999999976
0
LINE
8
BLACK
6
CONTINUOUS
10
54.8178319999999957
20
-27.4969839999999976
11
54.7239489999999975
21
-27.5234619999999985
0
LINE
8
BLACK
6
CONTINUOUS
10
54.7239489999999975
20
-27.5234619999999985
11
53.2285729999999973
21
-27.6411499999999997
0
LINE
8
BLACK
6
CONTINUOUS
10
53.2285729999999973
20
-27.6411499999999997
11
53.1317039999999992
21
-27.6296849999999985
0
LINE
8
BLACK
6
CONTINUOUS
10
53.1317039999999992
20
-27.6296849999999985
11
53.046596000000001
21
-27.5820229999999995
0
LINE
8
BLACK
6
CONTINUOUS
10
53.046596000000001
20
-27.5820229999999995
11
52.9862059999999957
21
-27.5054189999999998
0
LINE
8
BLACK
6
CONTINUOUS
10
52.9862059999999957
20
-27.5054189999999998
11
52.9597289999999958
21
-27.4115359999999981
0
LINE
8
BLACK
6
CONTINUOUS
10
52.9597289999999958
20
-27.4115359999999981
11
52.8773470000000003
21
-26.3647719999999985
0
LINE
8
BLACK
6
CONTINUOUS
10
52.8773470000000003
20
-26.3647719999999985
11
52.8888119999999944
21
-26.2679030000000004
0
LINE
8
BLACK
6
CONTINUOUS
10
52.8888119999999944
20
-26.2679030000000004
11
52.9364739999999969
21
-26.1827949999999987
0
LINE
8
BLACK
6
CONTINUOUS
10
52.9364739999999969
20
-26.1827949999999987
11
53.0130780000000001
21
-26.122405999999998
0
LINE
8
BLACK
6
CONTINUOUS
10
53.0130780000000001
20
-26.122405999999998
11
53.1069609999999983
21
-26.0959279999999971
0
LINE
8
BLACK
6
CONTINUOUS
10
53.1069609999999983
20
-26.0959279999999971
11
54.6023369999999986
21
-25.9782399999999996
0
LINE
8
BLACK
6
CONTINUOUS
10
54.6023369999999986
20
-25.9782399999999996
11
54.6992059999999967
21
-25.9897049999999972
0
LINE
8
BLACK
6
CONTINUOUS
10
-171.3631330000000048
20
-25.6224910000000001
11
-171.2820269999999994
21
-25.6766839999999981
0
LINE
8
BLACK
6
CONTINUOUS
10
-171.2820269999999994
20
-25.6766839999999981
11
-171.2278340000000014
21
-25.75779
0
LINE
8
BLACK
6
CONTINUOUS
10
-171.2278340000000014
20
-25.75779
11
-171.2088039999999864
21
-25.8534609999999994
0
LINE
8
BLACK
6
CONTINUOUS
10
-171.2088039999999864
20
-25.8534609999999994
11
-171.2088039999999864
21
-26.3534609999999994
0
LINE
8
BLACK
6
CONTINUOUS
10
-171.2088039999999864
20
-26.3534609999999994
11
-171.2278340000000014
21
-26.4491319999999988
0
LINE
8
BLACK
6
CONTINUOUS
10
-171.2278340000000014
20
-26.4491319999999988
11
-171.2820269999999994
21
-26.5302379999999971
0
LINE
8
BLACK
6
CONTINUOUS
10
-171.2820269999999994
20
-26.5302379999999971
11
-171.3631330000000048
21
-26.5844309999999986
0
LINE
8
BLACK
6
CONTINUOUS
10
-171.3631330000000048
20
-26.5844309999999986
11
-171.4588039999999864
21
-26.6034609999999994
0
LINE
8
BLACK
6
CONTINUOUS
10
-171.4588039999999864
20
-26.6034609999999994
11
-173.7588039999999978
21
-26.6034609999999994
0
LINE
8
BLACK
6
CONTINUOUS
10
-173.7588039999999978
20
-26.6034609999999994
11
-173.8544749999999794
21
-26.5844309999999986
0
LINE
8
BLACK
6
CONTINUOUS
10
-173.8544749999999794
20
-26.5844309999999986
11
-173.9355809999999849
21
-26.5302379999999971
0
LINE
8
BLACK
6
CONTINUOUS
10
-173.9355809999999849
20
-26.5302379999999971
11
-173.9897739999999828
21
-26.4491319999999988
0
LINE
8
BLACK
6
CONTINUOUS
10
-173.9897739999999828
20
-26.4491319999999988
11
-174.0088039999999978
21
-26.3534609999999994
0
LINE
8
BLACK
6
CONTINUOUS
10
-174.0088039999999978
20
-26.3534609999999994
11
-174.0088039999999978
21
-25.8534609999999994
0
LINE
8
BLACK
6
CONTINUOUS
10
-174.0088039999999978
20
-25.8534609999999994
11
-173.9897739999999828
21
-25.75779
0
LINE
8
BLACK
6
CONTINUOUS
10
-173.9897739999999828
20
-25.75779
11
-173.9355809999999849
21
-25.6766839999999981
0
LINE
8
BLACK
6
CONTINUOUS
10
-173.9355809999999849
20
-25.6766839999999981
11
-173.8544749999999794
21
-25.6224910000000001
0
LINE
8
BLACK
6
CONTINUOUS
10
-173.8544749999999794
20
-25.6224910000000001
11
-173.7588039999999978
21
-25.6034609999999994
0
LINE
8
BLACK
6
CONTINUOUS
10
-173.7588039999999978
20
-25.6034609999999994
11
-171.4588039999999864
21
-25.6034609999999994
0
LINE
8
BLACK
6
CONTINUOUS
10
-171.4588039999999864
20
-25.6034609999999994
11
-171.3631330000000048
21
-25.6224910000000001
0
LINE
8
BLACK
6
CONTINUOUS
10
103.8544899999999984
20
-25.6200709999999994
11
103.9355959999999897
21
-25.6742639999999973
0
LINE
8
BLACK
6
CONTINUOUS
10
103.9355959999999897
20
-25.6742639999999973
11
103.9897890000000018
21
-25.7553699999999992
0
LINE
8
BLACK
6
CONTINUOUS
10
103.9897890000000018
20
-25.7553699999999992
11
104.0088189999999884
21
-25.8510409999999986
0
LINE
8
BLACK
6
CONTINUOUS
10
104.0088189999999884
20
-25.8510409999999986
11
104.0088189999999884
21
-26.3510409999999986
0
LINE
8
BLACK
6
CONTINUOUS
10
104.0088189999999884
20
-26.3510409999999986
11
103.9897890000000018
21
-26.446711999999998
0
LINE
8
BLACK
6
CONTINUOUS
10
103.9897890000000018
20
-26.446711999999998
11
103.9355959999999897
21
-26.5278179999999999
0
LINE
8
BLACK
6
CONTINUOUS
10
103.9355959999999897
20
-26.5278179999999999
11
103.8544899999999984
21
-26.5820109999999978
0
LINE
8
BLACK
6
CONTINUOUS
10
103.8544899999999984
20
-26.5820109999999978
11
103.7588189999999884
21
-26.6010409999999986
0
LINE
8
BLACK
6
CONTINUOUS
10
103.7588189999999884
20
-26.6010409999999986
11
101.4588189999999912
21
-26.6010409999999986
0
LINE
8
BLACK
6
CONTINUOUS
10
101.4588189999999912
20
-26.6010409999999986
11
101.3631479999999954
21
-26.5820109999999978
0
LINE
8
BLACK
6
CONTINUOUS
10
101.3631479999999954
20
-26.5820109999999978
11
101.2820419999999899
21
-26.5278179999999999
0
LINE
8
BLACK
6
CONTINUOUS
10
101.2820419999999899
20
-26.5278179999999999
11
101.227848999999992
21
-26.446711999999998
0
LINE
8
BLACK
6
CONTINUOUS
10
101.227848999999992
20
-26.446711999999998
11
101.2088189999999912
21
-26.3510409999999986
0
LINE
8
BLACK
6
CONTINUOUS
10
101.2088189999999912
20
-26.3510409999999986
11
101.2088189999999912
21
-25.8510409999999986
0
LINE
8
BLACK
6
CONTINUOUS
10
101.2088189999999912
20
-25.8510409999999986
11
101.227848999999992
21
-25.7553699999999992
0
LINE
8
BLACK
6
CONTINUOUS
10
101.227848999999992
20
-25.7553699999999992
11
101.2820419999999899
21
-25.6742639999999973
0
LINE
8
BLACK
6
CONTINUOUS
10
101.2820419999999899
20
-25.6742639999999973
11
101.3631479999999954
21
-25.6200709999999994
0
LINE
8
BLACK
6
CONTINUOUS
10
101.3631479999999954
20
-25.6200709999999994
11
101.4588189999999912
21
-25.6010409999999986
0
LINE
8
BLACK
6
CONTINUOUS
10
101.4588189999999912
20
-25.6010409999999986
11
103.7588189999999884
21
-25.6010409999999986
0
LINE
8
BLACK
6
CONTINUOUS
10
103.7588189999999884
20
-25.6010409999999986
11
103.8544899999999984
21
-25.6200709999999994
0
LINE
8
BLACK
6
CONTINUOUS
10
-104.7837179999999933
20
-24.9901439999999972
11
-104.6898350000000022
21
-25.0166219999999981
0
LINE
8
BLACK
6
CONTINUOUS
10
-104.6898350000000022
20
-25.0166219999999981
11
-104.613230999999999
21
-25.0770109999999988
0
LINE
8
BLACK
6
CONTINUOUS
10
-104.613230999999999
20
-25.0770109999999988
11
-104.5655689999999964
21
-25.1621190000000006
0
LINE
8
BLACK
6
CONTINUOUS
10
-104.5655689999999964
20
-25.1621190000000006
11
-104.5541039999999953
21
-25.2589879999999987
0
LINE
8
BLACK
6
CONTINUOUS
10
-104.5541039999999953
20
-25.2589879999999987
11
-104.6364859999999908
21
-26.3057519999999982
0
LINE
8
BLACK
6
CONTINUOUS
10
-104.6364859999999908
20
-26.3057519999999982
11
-104.6629629999999906
21
-26.399635
0
LINE
8
BLACK
6
CONTINUOUS
10
-104.6629629999999906
20
-26.399635
11
-104.7233529999999888
21
-26.4762389999999996
0
LINE
8
BLACK
6
CONTINUOUS
10
-104.7233529999999888
20
-26.4762389999999996
11
-104.8084609999999941
21
-26.5239009999999986
0
LINE
8
BLACK
6
CONTINUOUS
10
-104.8084609999999941
20
-26.5239009999999986
11
-104.9053299999999922
21
-26.5353659999999998
0
LINE
8
BLACK
6
CONTINUOUS
10
-104.9053299999999922
20
-26.5353659999999998
11
-106.4007059999999996
21
-26.4176779999999987
0
LINE
8
BLACK
6
CONTINUOUS
10
-106.4007059999999996
20
-26.4176779999999987
11
-106.4945889999999906
21
-26.3911999999999978
0
LINE
8
BLACK
6
CONTINUOUS
10
-106.4945889999999906
20
-26.3911999999999978
11
-106.5711929999999938
21
-26.3308109999999971
0
LINE
8
BLACK
6
CONTINUOUS
10
-106.5711929999999938
20
-26.3308109999999971
11
-106.6188549999999964
21
-26.2457029999999989
0
LINE
8
BLACK
6
CONTINUOUS
10
-106.6188549999999964
20
-26.2457029999999989
11
-106.6303199999999975
21
-26.1488339999999972
0
LINE
8
BLACK
6
CONTINUOUS
10
-106.6303199999999975
20
-26.1488339999999972
11
-106.547938000000002
21
-25.1020699999999977
0
LINE
8
BLACK
6
CONTINUOUS
10
-106.547938000000002
20
-25.1020699999999977
11
-106.5214610000000022
21
-25.0081869999999995
0
LINE
8
BLACK
6
CONTINUOUS
10
-106.5214610000000022
20
-25.0081869999999995
11
-106.4610709999999898
21
-24.9315829999999998
0
LINE
8
BLACK
6
CONTINUOUS
10
-106.4610709999999898
20
-24.9315829999999998
11
-106.3759629999999987
21
-24.8839209999999973
0
LINE
8
BLACK
6
CONTINUOUS
10
-106.3759629999999987
20
-24.8839209999999973
11
-106.2790940000000006
21
-24.8724559999999997
0
LINE
8
BLACK
6
CONTINUOUS
10
-106.2790940000000006
20
-24.8724559999999997
11
-104.7837179999999933
21
-24.9901439999999972
0
LINE
8
BLACK
6
CONTINUOUS
10
36.3759629999999987
20
-24.8839209999999973
11
36.4610709999999969
21
-24.9315829999999998
0
LINE
8
BLACK
6
CONTINUOUS
10
36.4610709999999969
20
-24.9315829999999998
11
36.5214609999999951
21
-25.0081869999999995
0
LINE
8
BLACK
6
CONTINUOUS
10
36.5214609999999951
20
-25.0081869999999995
11
36.5479379999999949
21
-25.1020699999999977
0
LINE
8
BLACK
6
CONTINUOUS
10
36.5479379999999949
20
-25.1020699999999977
11
36.6303199999999975
21
-26.1488339999999972
0
LINE
8
BLACK
6
CONTINUOUS
10
36.6303199999999975
20
-26.1488339999999972
11
36.6188549999999964
21
-26.2457029999999989
0
LINE
8
BLACK
6
CONTINUOUS
10
36.6188549999999964
20
-26.2457029999999989
11
36.5711930000000009
21
-26.3308109999999971
0
LINE
8
BLACK
6
CONTINUOUS
10
36.5711930000000009
20
-26.3308109999999971
11
36.4945889999999977
21
-26.3911999999999978
0
LINE
8
BLACK
6
CONTINUOUS
10
36.4945889999999977
20
-26.3911999999999978
11
36.4007059999999996
21
-26.4176779999999987
0
LINE
8
BLACK
6
CONTINUOUS
10
36.4007059999999996
20
-26.4176779999999987
11
34.9053299999999993
21
-26.5353659999999998
0
LINE
8
BLACK
6
CONTINUOUS
10
34.9053299999999993
20
-26.5353659999999998
11
34.8084610000000012
21
-26.5239009999999986
0
LINE
8
BLACK
6
CONTINUOUS
10
34.8084610000000012
20
-26.5239009999999986
11
34.7233529999999959
21
-26.4762389999999996
0
LINE
8
BLACK
6
CONTINUOUS
10
34.7233529999999959
20
-26.4762389999999996
11
34.6629629999999977
21
-26.399635
0
LINE
8
BLACK
6
CONTINUOUS
10
34.6629629999999977
20
-26.399635
11
34.6364859999999979
21
-26.3057519999999982
0
LINE
8
BLACK
6
CONTINUOUS
10
34.6364859999999979
20
-26.3057519999999982
11
34.5541039999999953
21
-25.2589879999999987
0
LINE
8
BLACK
6
CONTINUOUS
10
34.5541039999999953
20
-25.2589879999999987
11
34.5655689999999964
21
-25.1621190000000006
0
LINE
8
BLACK
6
CONTINUOUS
10
34.5655689999999964
20
-25.1621190000000006
11
34.613230999999999
21
-25.0770109999999988
0
LINE
8
BLACK
6
CONTINUOUS
10
34.613230999999999
20
-25.0770109999999988
11
34.6898349999999951
21
-25.0166219999999981
0
LINE
8
BLACK
6
CONTINUOUS
10
34.6898349999999951
20
-25.0166219999999981
11
34.7837180000000004
21
-24.9901439999999972
0
LINE
8
BLACK
6
CONTINUOUS
10
34.7837180000000004
20
-24.9901439999999972
11
36.2790940000000006
21
-24.8724559999999997
0
LINE
8
BLACK
6
CONTINUOUS
10
36.2790940000000006
20
-24.8724559999999997
11
36.3759629999999987
21
-24.8839209999999973
0
LINE
8
BLACK
6
CONTINUOUS
10
-122.9076749999999976
20
-23.563758
11
-122.8137919999999923
21
-23.5902359999999973
0
LINE
8
BLACK
6
CONTINUOUS
10
-122.8137919999999923
20
-23.5902359999999973
11
-122.7371879999999891
21
-23.650624999999998
0
LINE
8
BLACK
6
CONTINUOUS
10
-122.7371879999999891
20
-23.650624999999998
11
-122.6895260000000007
21
-23.7357329999999997
0
LINE
8
BLACK
6
CONTINUOUS
10
-122.6895260000000007
20
-23.7357329999999997
11
-122.6780609999999996
21
-23.8326019999999978
0
LINE
8
BLACK
6
CONTINUOUS
10
-122.6780609999999996
20
-23.8326019999999978
11
-122.7604429999999951
21
-24.8793659999999974
0
LINE
8
BLACK
6
CONTINUOUS
10
-122.7604429999999951
20
-24.8793659999999974
11
-122.786919999999995
21
-24.9732489999999991
0
LINE
8
BLACK
6
CONTINUOUS
10
-122.786919999999995
20
-24.9732489999999991
11
-122.8473099999999931
21
-25.0498529999999988
0
LINE
8
BLACK
6
CONTINUOUS
10
-122.8473099999999931
20
-25.0498529999999988
11
-122.9324179999999984
21
-25.0975149999999978
0
LINE
8
BLACK
6
CONTINUOUS
10
-122.9324179999999984
20
-25.0975149999999978
11
-123.0292869999999965
21
-25.108979999999999
0
LINE
8
BLACK
6
CONTINUOUS
10
-123.0292869999999965
20
-25.108979999999999
11
-124.5246629999999897
21
-24.9912919999999978
0
LINE
8
BLACK
6
CONTINUOUS
10
-124.5246629999999897
20
-24.9912919999999978
11
-124.6185459999999949
21
-24.9648140000000005
0
LINE
8
BLACK
6
CONTINUOUS
10
-124.6185459999999949
20
-24.9648140000000005
11
-124.6951499999999982
21
-24.9044249999999998
0
LINE
8
BLACK
6
CONTINUOUS
10
-124.6951499999999982
20
-24.9044249999999998
11
-124.7428120000000007
21
-24.8193169999999981
0
LINE
8
BLACK
6
CONTINUOUS
10
-124.7428120000000007
20
-24.8193169999999981
11
-124.7542769999999877
21
-24.722448
0
LINE
8
BLACK
6
CONTINUOUS
10
-124.7542769999999877
20
-24.722448
11
-124.6718949999999921
21
-23.6756840000000004
0
LINE
8
BLACK
6
CONTINUOUS
10
-124.6718949999999921
20
-23.6756840000000004
11
-124.6454179999999923
21
-23.5818009999999987
0
LINE
8
BLACK
6
CONTINUOUS
10
-124.6454179999999923
20
-23.5818009999999987
11
-124.5850279999999941
21
-23.505196999999999
0
LINE
8
BLACK
6
CONTINUOUS
10
-124.5850279999999941
20
-23.505196999999999
11
-124.4999199999999888
21
-23.457535
0
LINE
8
BLACK
6
CONTINUOUS
10
-124.4999199999999888
20
-23.457535
11
-124.4030509999999907
21
-23.4460699999999989
0
LINE
8
BLACK
6
CONTINUOUS
10
-124.4030509999999907
20
-23.4460699999999989
11
-122.9076749999999976
21
-23.563758
0
LINE
8
BLACK
6
CONTINUOUS
10
54.4999199999999959
20
-23.457535
11
54.5850279999999941
21
-23.505196999999999
0
LINE
8
BLACK
6
CONTINUOUS
10
54.5850279999999941
20
-23.505196999999999
11
54.6454179999999994
21
-23.5818009999999987
0
LINE
8
BLACK
6
CONTINUOUS
10
54.6454179999999994
20
-23.5818009999999987
11
54.6718949999999992
21
-23.6756840000000004
0
LINE
8
BLACK
6
CONTINUOUS
10
54.6718949999999992
20
-23.6756840000000004
11
54.7542769999999948
21
-24.722448
0
LINE
8
BLACK
6
CONTINUOUS
10
54.7542769999999948
20
-24.722448
11
54.7428120000000007
21
-24.8193169999999981
0
LINE
8
BLACK
6
CONTINUOUS
10
54.7428120000000007
20
-24.8193169999999981
11
54.6951499999999982
21
-24.9044249999999998
0
LINE
8
BLACK
6
CONTINUOUS
10
54.6951499999999982
20
-24.9044249999999998
11
54.6185459999999949
21
-24.9648140000000005
0
LINE
8
BLACK
6
CONTINUOUS
10
54.6185459999999949
20
-24.9648140000000005
11
54.5246629999999968
21
-24.9912919999999978
0
LINE
8
BLACK
6
CONTINUOUS
10
54.5246629999999968
20
-24.9912919999999978
11
53.0292869999999965
21
-25.108979999999999
0
LINE
8
BLACK
6
CONTINUOUS
10
53.0292869999999965
20
-25.108979999999999
11
52.9324179999999984
21
-25.0975149999999978
0
LINE
8
BLACK
6
CONTINUOUS
10
52.9324179999999984
20
-25.0975149999999978
11
52.8473100000000002
21
-25.0498529999999988
0
LINE
8
BLACK
6
CONTINUOUS
10
52.8473100000000002
20
-25.0498529999999988
11
52.786919999999995
21
-24.9732489999999991
0
LINE
8
BLACK
6
CONTINUOUS
10
52.786919999999995
20
-24.9732489999999991
11
52.7604429999999951
21
-24.8793659999999974
0
LINE
8
BLACK
6
CONTINUOUS
10
52.7604429999999951
20
-24.8793659999999974
11
52.6780609999999996
21
-23.8326019999999978
0
LINE
8
BLACK
6
CONTINUOUS
10
52.6780609999999996
20
-23.8326019999999978
11
52.6895260000000007
21
-23.7357329999999997
0
LINE
8
BLACK
6
CONTINUOUS
10
52.6895260000000007
20
-23.7357329999999997
11
52.7371879999999962
21
-23.650624999999998
0
LINE
8
BLACK
6
CONTINUOUS
10
52.7371879999999962
20
-23.650624999999998
11
52.8137919999999994
21
-23.5902359999999973
0
LINE
8
BLACK
6
CONTINUOUS
10
52.8137919999999994
20
-23.5902359999999973
11
52.9076749999999976
21
-23.563758
0
LINE
8
BLACK
6
CONTINUOUS
10
52.9076749999999976
20
-23.563758
11
54.4030509999999978
21
-23.4460699999999989
0
LINE
8
BLACK
6
CONTINUOUS
10
54.4030509999999978
20
-23.4460699999999989
11
54.4999199999999959
21
-23.457535
0
LINE
8
BLACK
6
CONTINUOUS
10
101.1007889999999918
20
-24.1643620000000006
11
101.1575629999999961
21
-24.202296999999998
0
LINE
8
BLACK
6
CONTINUOUS
10
101.1575629999999961
20
-24.202296999999998
11
101.1954980000000006
21
-24.2590709999999987
0
LINE
8
BLACK
6
CONTINUOUS
10
101.1954980000000006
20
-24.2590709999999987
11
101.2088189999999912
21
-24.326041
0
LINE
8
BLACK
6
CONTINUOUS
10
101.2088189999999912
20
-24.326041
11
101.2088189999999912
21
-24.6760409999999979
0
LINE
8
BLACK
6
CONTINUOUS
10
101.2088189999999912
20
-24.6760409999999979
11
101.1954980000000006
21
-24.7430109999999992
0
LINE
8
BLACK
6
CONTINUOUS
10
101.1954980000000006
20
-24.7430109999999992
11
101.1575629999999961
21
-24.799785
0
LINE
8
BLACK
6
CONTINUOUS
10
101.1575629999999961
20
-24.799785
11
101.1007889999999918
21
-24.8377199999999974
0
LINE
8
BLACK
6
CONTINUOUS
10
101.1007889999999918
20
-24.8377199999999974
11
101.033818999999994
21
-24.8510409999999986
0
LINE
8
BLACK
6
CONTINUOUS
10
101.033818999999994
20
-24.8510409999999986
11
100.3838189999999884
21
-24.8510409999999986
0
LINE
8
BLACK
6
CONTINUOUS
10
100.3838189999999884
20
-24.8510409999999986
11
100.3168489999999906
21
-24.8377199999999974
0
LINE
8
BLACK
6
CONTINUOUS
10
100.3168489999999906
20
-24.8377199999999974
11
100.2600750000000005
21
-24.799785
0
LINE
8
BLACK
6
CONTINUOUS
10
100.2600750000000005
20
-24.799785
11
100.222139999999996
21
-24.7430109999999992
0
LINE
8
BLACK
6
CONTINUOUS
10
100.222139999999996
20
-24.7430109999999992
11
100.2088189999999912
21
-24.6760409999999979
0
LINE
8
BLACK
6
CONTINUOUS
10
100.2088189999999912
20
-24.6760409999999979
11
100.2088189999999912
21
-24.326041
0
LINE
8
BLACK
6
CONTINUOUS
10
100.2088189999999912
20
-24.326041
11
100.222139999999996
21
-24.2590709999999987
0
LINE
8
BLACK
6
CONTINUOUS
10
100.222139999999996
20
-24.2590709999999987
11
100.2600750000000005
21
-24.202296999999998
0
LINE
8
BLACK
6
CONTINUOUS
10
100.2600750000000005
20
-24.202296999999998
11
100.3168489999999906
21
-24.1643620000000006
0
LINE
8
BLACK
6
CONTINUOUS
10
100.3168489999999906
20
-24.1643620000000006
11
100.3838189999999884
21
-24.1510409999999993
0
LINE
8
BLACK
6
CONTINUOUS
10
100.3838189999999884
20
-24.1510409999999993
11
101.033818999999994
21
-24.1510409999999993
0
LINE
8
BLACK
6
CONTINUOUS
10
101.033818999999994
20
-24.1510409999999993
11
101.1007889999999918
21
-24.1643620000000006
0
LINE
8
BLACK
6
CONTINUOUS
10
-170.3168340000000001
20
-23.9167819999999978
11
-170.2600599999999815
21
-23.9547169999999987
0
LINE
8
BLACK
6
CONTINUOUS
10
-170.2600599999999815
20
-23.9547169999999987
11
-170.2221250000000055
21
-24.0114909999999995
0
LINE
8
BLACK
6
CONTINUOUS
10
-170.2221250000000055
20
-24.0114909999999995
11
-170.2088039999999864
21
-24.0784609999999972
0
LINE
8
BLACK
6
CONTINUOUS
10
-170.2088039999999864
20
-24.0784609999999972
11
-170.2088039999999864
21
-24.4284609999999986
0
LINE
8
BLACK
6
CONTINUOUS
10
-170.2088039999999864
20
-24.4284609999999986
11
-170.2221250000000055
21
-24.495431
0
LINE
8
BLACK
6
CONTINUOUS
10
-170.2221250000000055
20
-24.495431
11
-170.2600599999999815
21
-24.5522049999999972
0
LINE
8
BLACK
6
CONTINUOUS
10
-170.2600599999999815
20
-24.5522049999999972
11
-170.3168340000000001
21
-24.5901399999999981
0
LINE
8
BLACK
6
CONTINUOUS
10
-170.3168340000000001
20
-24.5901399999999981
11
-170.3838039999999978
21
-24.6034609999999994
0
LINE
8
BLACK
6
CONTINUOUS
10
-170.3838039999999978
20
-24.6034609999999994
11
-171.0338040000000035
21
-24.6034609999999994
0
LINE
8
BLACK
6
CONTINUOUS
10
-171.0338040000000035
20
-24.6034609999999994
11
-171.1007740000000013
21
-24.5901399999999981
0
LINE
8
BLACK
6
CONTINUOUS
10
-171.1007740000000013
20
-24.5901399999999981
11
-171.1575479999999914
21
-24.5522049999999972
0
LINE
8
BLACK
6
CONTINUOUS
10
-171.1575479999999914
20
-24.5522049999999972
11
-171.1954829999999959
21
-24.495431
0
LINE
8
BLACK
6
CONTINUOUS
10
-171.1954829999999959
20
-24.495431
11
-171.2088039999999864
21
-24.4284609999999986
0
LINE
8
BLACK
6
CONTINUOUS
10
-171.2088039999999864
20
-24.4284609999999986
11
-171.2088039999999864
21
-24.0784609999999972
0
LINE
8
BLACK
6
CONTINUOUS
10
-171.2088039999999864
20
-24.0784609999999972
11
-171.1954829999999959
21
-24.0114909999999995
0
LINE
8
BLACK
6
CONTINUOUS
10
-171.1954829999999959
20
-24.0114909999999995
11
-171.1575479999999914
21
-23.9547169999999987
0
LINE
8
BLACK
6
CONTINUOUS
10
-171.1575479999999914
20
-23.9547169999999987
11
-171.1007740000000013
21
-23.9167819999999978
0
LINE
8
BLACK
6
CONTINUOUS
10
-171.1007740000000013
20
-23.9167819999999978
11
-171.0338040000000035
21
-23.9034610000000001
0
LINE
8
BLACK
6
CONTINUOUS
10
-171.0338040000000035
20
-23.9034610000000001
11
-170.3838039999999978
21
-23.9034610000000001
0
LINE
8
BLACK
6
CONTINUOUS
10
-170.3838039999999978
20
-23.9034610000000001
11
-170.3168340000000001
21
-23.9167819999999978
0
LINE
8
BLACK
6
CONTINUOUS
10
102.6810270000000003
20
-23.3352949999999986
11
102.7827619999999911
21
-23.3940319999999993
0
LINE
8
BLACK
6
CONTINUOUS
10
102.7827619999999911
20
-23.3940319999999993
11
102.8658279999999934
21
-23.477097999999998
0
LINE
8
BLACK
6
CONTINUOUS
10
102.8658279999999934
20
-23.477097999999998
11
102.9245650000000012
21
-23.5788329999999995
0
LINE
8
BLACK
6
CONTINUOUS
10
102.9245650000000012
20
-23.5788329999999995
11
102.9549689999999913
21
-23.692304
0
LINE
8
BLACK
6
CONTINUOUS
10
102.9549689999999913
20
-23.692304
11
102.9549689999999913
21
-23.8097779999999979
0
LINE
8
BLACK
6
CONTINUOUS
10
102.9549689999999913
20
-23.8097779999999979
11
102.9245650000000012
21
-23.9232489999999984
0
LINE
8
BLACK
6
CONTINUOUS
10
102.9245650000000012
20
-23.9232489999999984
11
102.8658279999999934
21
-24.0249839999999999
0
LINE
8
BLACK
6
CONTINUOUS
10
102.8658279999999934
20
-24.0249839999999999
11
102.7827619999999911
21
-24.1080499999999986
0
LINE
8
BLACK
6
CONTINUOUS
10
102.7827619999999911
20
-24.1080499999999986
11
102.6810270000000003
21
-24.1667869999999994
0
LINE
8
BLACK
6
CONTINUOUS
10
102.6810270000000003
20
-24.1667869999999994
11
102.5675559999999962
21
-24.1971910000000001
0
LINE
8
BLACK
6
CONTINUOUS
10
102.5675559999999962
20
-24.1971910000000001
11
102.4500819999999948
21
-24.1971910000000001
0
LINE
8
BLACK
6
CONTINUOUS
10
102.4500819999999948
20
-24.1971910000000001
11
102.3366109999999907
21
-24.1667869999999994
0
LINE
8
BLACK
6
CONTINUOUS
10
102.3366109999999907
20
-24.1667869999999994
11
102.2348759999999999
21
-24.1080499999999986
0
LINE
8
BLACK
6
CONTINUOUS
10
102.2348759999999999
20
-24.1080499999999986
11
102.1518099999999976
21
-24.0249839999999999
0
LINE
8
BLACK
6
CONTINUOUS
10
102.1518099999999976
20
-24.0249839999999999
11
102.0930729999999897
21
-23.9232489999999984
0
LINE
8
BLACK
6
CONTINUOUS
10
102.0930729999999897
20
-23.9232489999999984
11
102.0626689999999996
21
-23.8097779999999979
0
LINE
8
BLACK
6
CONTINUOUS
10
102.0626689999999996
20
-23.8097779999999979
11
102.0626689999999996
21
-23.692304
0
LINE
8
BLACK
6
CONTINUOUS
10
102.0626689999999996
20
-23.692304
11
102.0930729999999897
21
-23.5788329999999995
0
LINE
8
BLACK
6
CONTINUOUS
10
102.0930729999999897
20
-23.5788329999999995
11
102.1518099999999976
21
-23.477097999999998
0
LINE
8
BLACK
6
CONTINUOUS
10
102.1518099999999976
20
-23.477097999999998
11
102.2348759999999999
21
-23.3940319999999993
0
LINE
8
BLACK
6
CONTINUOUS
10
102.2348759999999999
20
-23.3940319999999993
11
102.3366109999999907
21
-23.3352949999999986
0
LINE
8
BLACK
6
CONTINUOUS
10
102.3366109999999907
20
-23.3352949999999986
11
102.4500819999999948
21
-23.3048909999999978
0
LINE
8
BLACK
6
CONTINUOUS
10
102.4500819999999948
20
-23.3048909999999978
11
102.5675559999999962
21
-23.3048909999999978
0
LINE
8
BLACK
6
CONTINUOUS
10
102.5675559999999962
20
-23.3048909999999978
11
102.6810270000000003
21
-23.3352949999999986
0
LINE
8
BLACK
6
CONTINUOUS
10
-104.5844319999999925
20
-22.4579740000000001
11
-104.4905490000000015
21
-22.4844519999999974
0
LINE
8
BLACK
6
CONTINUOUS
10
-104.4905490000000015
20
-22.4844519999999974
11
-104.4139449999999982
21
-22.5448409999999981
0
LINE
8
BLACK
6
CONTINUOUS
10
-104.4139449999999982
20
-22.5448409999999981
11
-104.3662829999999957
21
-22.6299489999999999
0
LINE
8
BLACK
6
CONTINUOUS
10
-104.3662829999999957
20
-22.6299489999999999
11
-104.3548179999999945
21
-22.726817999999998
0
LINE
8
BLACK
6
CONTINUOUS
10
-104.3548179999999945
20
-22.726817999999998
11
-104.43719999999999
21
-23.7735819999999975
0
LINE
8
BLACK
6
CONTINUOUS
10
-104.43719999999999
20
-23.7735819999999975
11
-104.4636769999999899
21
-23.8674649999999993
0
LINE
8
BLACK
6
CONTINUOUS
10
-104.4636769999999899
20
-23.8674649999999993
11
-104.5240670000000023
21
-23.9440689999999989
0
LINE
8
BLACK
6
CONTINUOUS
10
-104.5240670000000023
20
-23.9440689999999989
11
-104.6091749999999934
21
-23.9917309999999979
0
LINE
8
BLACK
6
CONTINUOUS
10
-104.6091749999999934
20
-23.9917309999999979
11
-104.7060439999999915
21
-24.0031959999999991
0
LINE
8
BLACK
6
CONTINUOUS
10
-104.7060439999999915
20
-24.0031959999999991
11
-106.2014199999999988
21
-23.885507999999998
0
LINE
8
BLACK
6
CONTINUOUS
10
-106.2014199999999988
20
-23.885507999999998
11
-106.2953029999999899
21
-23.8590300000000006
0
LINE
8
BLACK
6
CONTINUOUS
10
-106.2953029999999899
20
-23.8590300000000006
11
-106.3719069999999931
21
-23.7986409999999999
0
LINE
8
BLACK
6
CONTINUOUS
10
-106.3719069999999931
20
-23.7986409999999999
11
-106.4195689999999956
21
-23.7135329999999982
0
LINE
8
BLACK
6
CONTINUOUS
10
-106.4195689999999956
20
-23.7135329999999982
11
-106.4310339999999968
21
-23.6166640000000001
0
LINE
8
BLACK
6
CONTINUOUS
10
-106.4310339999999968
20
-23.6166640000000001
11
-106.3486520000000013
21
-22.5699000000000005
0
LINE
8
BLACK
6
CONTINUOUS
10
-106.3486520000000013
20
-22.5699000000000005
11
-106.3221750000000014
21
-22.4760169999999988
0
LINE
8
BLACK
6
CONTINUOUS
10
-106.3221750000000014
20
-22.4760169999999988
11
-106.2617849999999891
21
-22.3994129999999991
0
LINE
8
BLACK
6
CONTINUOUS
10
-106.2617849999999891
20
-22.3994129999999991
11
-106.176676999999998
21
-22.3517510000000001
0
LINE
8
BLACK
6
CONTINUOUS
10
-106.176676999999998
20
-22.3517510000000001
11
-106.0798079999999999
21
-22.340285999999999
0
LINE
8
BLACK
6
CONTINUOUS
10
-106.0798079999999999
20
-22.340285999999999
11
-104.5844319999999925
21
-22.4579740000000001
0
LINE
8
BLACK
6
CONTINUOUS
10
36.176676999999998
20
-22.3517510000000001
11
36.2617849999999962
21
-22.3994129999999991
0
LINE
8
BLACK
6
CONTINUOUS
10
36.2617849999999962
20
-22.3994129999999991
11
36.3221750000000014
21
-22.4760169999999988
0
LINE
8
BLACK
6
CONTINUOUS
10
36.3221750000000014
20
-22.4760169999999988
11
36.3486520000000013
21
-22.5699000000000005
0
LINE
8
BLACK
6
CONTINUOUS
10
36.3486520000000013
20
-22.5699000000000005
11
36.4310339999999968
21
-23.6166640000000001
0
LINE
8
BLACK
6
CONTINUOUS
10
36.4310339999999968
20
-23.6166640000000001
11
36.4195689999999956
21
-23.7135329999999982
0
LINE
8
BLACK
6
CONTINUOUS
10
36.4195689999999956
20
-23.7135329999999982
11
36.3719070000000002
21
-23.7986409999999999
0
LINE
8
BLACK
6
CONTINUOUS
10
36.3719070000000002
20
-23.7986409999999999
11
36.295302999999997
21
-23.8590300000000006
0
LINE
8
BLACK
6
CONTINUOUS
10
36.295302999999997
20
-23.8590300000000006
11
36.2014199999999988
21
-23.885507999999998
0
LINE
8
BLACK
6
CONTINUOUS
10
36.2014199999999988
20
-23.885507999999998
11
34.7060439999999986
21
-24.0031959999999991
0
LINE
8
BLACK
6
CONTINUOUS
10
34.7060439999999986
20
-24.0031959999999991
11
34.6091750000000005
21
-23.9917309999999979
0
LINE
8
BLACK
6
CONTINUOUS
10
34.6091750000000005
20
-23.9917309999999979
11
34.5240669999999952
21
-23.9440689999999989
0
LINE
8
BLACK
6
CONTINUOUS
10
34.5240669999999952
20
-23.9440689999999989
11
34.463676999999997
21
-23.8674649999999993
0
LINE
8
BLACK
6
CONTINUOUS
10
34.463676999999997
20
-23.8674649999999993
11
34.4371999999999971
21
-23.7735819999999975
0
LINE
8
BLACK
6
CONTINUOUS
10
34.4371999999999971
20
-23.7735819999999975
11
34.3548180000000016
21
-22.726817999999998
0
LINE
8
BLACK
6
CONTINUOUS
10
34.3548180000000016
20
-22.726817999999998
11
34.3662829999999957
21
-22.6299489999999999
0
LINE
8
BLACK
6
CONTINUOUS
10
34.3662829999999957
20
-22.6299489999999999
11
34.4139449999999982
21
-22.5448409999999981
0
LINE
8
BLACK
6
CONTINUOUS
10
34.4139449999999982
20
-22.5448409999999981
11
34.4905490000000015
21
-22.4844519999999974
0
LINE
8
BLACK
6
CONTINUOUS
10
34.4905490000000015
20
-22.4844519999999974
11
34.5844319999999996
21
-22.4579740000000001
0
LINE
8
BLACK
6
CONTINUOUS
10
34.5844319999999996
20
-22.4579740000000001
11
36.0798079999999999
21
-22.340285999999999
0
LINE
8
BLACK
6
CONTINUOUS
10
36.0798079999999999
20
-22.340285999999999
11
36.176676999999998
21
-22.3517510000000001
0
LINE
8
BLACK
6
CONTINUOUS
10
-172.3865959999999973
20
-23.0877149999999993
11
-172.284860999999978
21
-23.146452
0
LINE
8
BLACK
6
CONTINUOUS
10
-172.284860999999978
20
-23.146452
11
-172.2017950000000042
21
-23.2295179999999988
0
LINE
8
BLACK
6
CONTINUOUS
10
-172.2017950000000042
20
-23.2295179999999988
11
-172.1430579999999964
21
-23.3312530000000002
0
LINE
8
BLACK
6
CONTINUOUS
10
-172.1430579999999964
20
-23.3312530000000002
11
-172.112653999999992
21
-23.4447239999999972
0
LINE
8
BLACK
6
CONTINUOUS
10
-172.112653999999992
20
-23.4447239999999972
11
-172.112653999999992
21
-23.5621979999999986
0
LINE
8
BLACK
6
CONTINUOUS
10
-172.112653999999992
20
-23.5621979999999986
11
-172.1430579999999964
21
-23.6756689999999992
0
LINE
8
BLACK
6
CONTINUOUS
10
-172.1430579999999964
20
-23.6756689999999992
11
-172.2017950000000042
21
-23.7774040000000007
0
LINE
8
BLACK
6
CONTINUOUS
10
-172.2017950000000042
20
-23.7774040000000007
11
-172.284860999999978
21
-23.8604699999999994
0
LINE
8
BLACK
6
CONTINUOUS
10
-172.284860999999978
20
-23.8604699999999994
11
-172.3865959999999973
21
-23.9192070000000001
0
LINE
8
BLACK
6
CONTINUOUS
10
-172.3865959999999973
20
-23.9192070000000001
11
-172.5000670000000014
21
-23.9496109999999973
0
LINE
8
BLACK
6
CONTINUOUS
10
-172.5000670000000014
20
-23.9496109999999973
11
-172.6175409999999886
21
-23.9496109999999973
0
LINE
8
BLACK
6
CONTINUOUS
10
-172.6175409999999886
20
-23.9496109999999973
11
-172.7310119999999927
21
-23.9192070000000001
0
LINE
8
BLACK
6
CONTINUOUS
10
-172.7310119999999927
20
-23.9192070000000001
11
-172.8327469999999835
21
-23.8604699999999994
0
LINE
8
BLACK
6
CONTINUOUS
10
-172.8327469999999835
20
-23.8604699999999994
11
-172.9158129999999858
21
-23.7774040000000007
0
LINE
8
BLACK
6
CONTINUOUS
10
-172.9158129999999858
20
-23.7774040000000007
11
-172.9745499999999936
21
-23.6756689999999992
0
LINE
8
BLACK
6
CONTINUOUS
10
-172.9745499999999936
20
-23.6756689999999992
11
-173.0049539999999979
21
-23.5621979999999986
0
LINE
8
BLACK
6
CONTINUOUS
10
-173.0049539999999979
20
-23.5621979999999986
11
-173.0049539999999979
21
-23.4447239999999972
0
LINE
8
BLACK
6
CONTINUOUS
10
-173.0049539999999979
20
-23.4447239999999972
11
-172.9745499999999936
21
-23.3312530000000002
0
LINE
8
BLACK
6
CONTINUOUS
10
-172.9745499999999936
20
-23.3312530000000002
11
-172.9158129999999858
21
-23.2295179999999988
0
LINE
8
BLACK
6
CONTINUOUS
10
-172.9158129999999858
20
-23.2295179999999988
11
-172.8327469999999835
21
-23.146452
0
LINE
8
BLACK
6
CONTINUOUS
10
-172.8327469999999835
20
-23.146452
11
-172.7310119999999927
21
-23.0877149999999993
0
LINE
8
BLACK
6
CONTINUOUS
10
-172.7310119999999927
20
-23.0877149999999993
11
-172.6175409999999886
21
-23.0573109999999986
0
LINE
8
BLACK
6
CONTINUOUS
10
-172.6175409999999886
20
-23.0573109999999986
11
-172.5000670000000014
21
-23.0573109999999986
0
LINE
8
BLACK
6
CONTINUOUS
10
-172.5000670000000014
20
-23.0573109999999986
11
-172.3865959999999973
21
-23.0877149999999993
0
LINE
8
BLACK
6
CONTINUOUS
10
-170.3168340000000001
20
-22.4167819999999978
11
-170.2600599999999815
21
-22.4547169999999987
0
LINE
8
BLACK
6
CONTINUOUS
10
-170.2600599999999815
20
-22.4547169999999987
11
-170.2221250000000055
21
-22.5114909999999995
0
LINE
8
BLACK
6
CONTINUOUS
10
-170.2221250000000055
20
-22.5114909999999995
11
-170.2088039999999864
21
-22.5784609999999972
0
LINE
8
BLACK
6
CONTINUOUS
10
-170.2088039999999864
20
-22.5784609999999972
11
-170.2088039999999864
21
-22.9284609999999986
0
LINE
8
BLACK
6
CONTINUOUS
10
-170.2088039999999864
20
-22.9284609999999986
11
-170.2221250000000055
21
-22.995431
0
LINE
8
BLACK
6
CONTINUOUS
10
-170.2221250000000055
20
-22.995431
11
-170.2600599999999815
21
-23.0522050000000007
0
LINE
8
BLACK
6
CONTINUOUS
10
-170.2600599999999815
20
-23.0522050000000007
11
-170.3168340000000001
21
-23.0901399999999981
0
LINE
8
BLACK
6
CONTINUOUS
10
-170.3168340000000001
20
-23.0901399999999981
11
-170.3838039999999978
21
-23.1034609999999994
0
LINE
8
BLACK
6
CONTINUOUS
10
-170.3838039999999978
20
-23.1034609999999994
11
-171.0338040000000035
21
-23.1034609999999994
0
LINE
8
BLACK
6
CONTINUOUS
10
-171.0338040000000035
20
-23.1034609999999994
11
-171.1007740000000013
21
-23.0901399999999981
0
LINE
8
BLACK
6
CONTINUOUS
10
-171.1007740000000013
20
-23.0901399999999981
11
-171.1575479999999914
21
-23.0522050000000007
0
LINE
8
BLACK
6
CONTINUOUS
10
-171.1575479999999914
20
-23.0522050000000007
11
-171.1954829999999959
21
-22.995431
0
LINE
8
BLACK
6
CONTINUOUS
10
-171.1954829999999959
20
-22.995431
11
-171.2088039999999864
21
-22.9284609999999986
0
LINE
8
BLACK
6
CONTINUOUS
10
-171.2088039999999864
20
-22.9284609999999986
11
-171.2088039999999864
21
-22.5784609999999972
0
LINE
8
BLACK
6
CONTINUOUS
10
-171.2088039999999864
20
-22.5784609999999972
11
-171.1954829999999959
21
-22.5114909999999995
0
LINE
8
BLACK
6
CONTINUOUS
10
-171.1954829999999959
20
-22.5114909999999995
11
-171.1575479999999914
21
-22.4547169999999987
0
LINE
8
BLACK
6
CONTINUOUS
10
-171.1575479999999914
20
-22.4547169999999987
11
-171.1007740000000013
21
-22.4167819999999978
0
LINE
8
BLACK
6
CONTINUOUS
10
-171.1007740000000013
20
-22.4167819999999978
11
-171.0338040000000035
21
-22.4034610000000001
0
LINE
8
BLACK
6
CONTINUOUS
10
-171.0338040000000035
20
-22.4034610000000001
11
-170.3838039999999978
21
-22.4034610000000001
0
LINE
8
BLACK
6
CONTINUOUS
10
-170.3838039999999978
20
-22.4034610000000001
11
-170.3168340000000001
21
-22.4167819999999978
0
LINE
8
BLACK
6
CONTINUOUS
10
-122.7083889999999968
20
-21.0315879999999993
11
-122.6145059999999916
21
-21.0580660000000002
0
LINE
8
BLACK
6
CONTINUOUS
10
-122.6145059999999916
20
-21.0580660000000002
11
-122.5379019999999883
21
-21.1184549999999973
0
LINE
8
BLACK
6
CONTINUOUS
10
-122.5379019999999883
20
-21.1184549999999973
11
-122.49024
21
-21.2035629999999991
0
LINE
8
BLACK
6
CONTINUOUS
10
-122.49024
20
-21.2035629999999991
11
-122.4787749999999988
21
-21.3004320000000007
0
LINE
8
BLACK
6
CONTINUOUS
10
-122.4787749999999988
20
-21.3004320000000007
11
-122.5611569999999944
21
-22.3471960000000003
0
LINE
8
BLACK
6
CONTINUOUS
10
-122.5611569999999944
20
-22.3471960000000003
11
-122.5876339999999942
21
-22.4410789999999984
0
LINE
8
BLACK
6
CONTINUOUS
10
-122.5876339999999942
20
-22.4410789999999984
11
-122.6480239999999924
21
-22.5176829999999981
0
LINE
8
BLACK
6
CONTINUOUS
10
-122.6480239999999924
20
-22.5176829999999981
11
-122.7331319999999977
21
-22.5653450000000007
0
LINE
8
BLACK
6
CONTINUOUS
10
-122.7331319999999977
20
-22.5653450000000007
11
-122.8300009999999958
21
-22.5768099999999983
0
LINE
8
BLACK
6
CONTINUOUS
10
-122.8300009999999958
20
-22.5768099999999983
11
-124.3253769999999889
21
-22.4591220000000007
0
LINE
8
BLACK
6
CONTINUOUS
10
-124.3253769999999889
20
-22.4591220000000007
11
-124.4192599999999942
21
-22.4326439999999998
0
LINE
8
BLACK
6
CONTINUOUS
10
-124.4192599999999942
20
-22.4326439999999998
11
-124.4958639999999974
21
-22.3722549999999991
0
LINE
8
BLACK
6
CONTINUOUS
10
-124.4958639999999974
20
-22.3722549999999991
11
-124.543526
21
-22.2871469999999974
0
LINE
8
BLACK
6
CONTINUOUS
10
-124.543526
20
-22.2871469999999974
11
-124.5549910000000011
21
-22.1902779999999993
0
LINE
8
BLACK
6
CONTINUOUS
10
-124.5549910000000011
20
-22.1902779999999993
11
-124.4726089999999914
21
-21.1435139999999997
0
LINE
8
BLACK
6
CONTINUOUS
10
-124.4726089999999914
20
-21.1435139999999997
11
-124.4461319999999915
21
-21.049630999999998
0
LINE
8
BLACK
6
CONTINUOUS
10
-124.4461319999999915
20
-21.049630999999998
11
-124.3857419999999934
21
-20.9730269999999983
0
LINE
8
BLACK
6
CONTINUOUS
10
-124.3857419999999934
20
-20.9730269999999983
11
-124.3006339999999881
21
-20.9253649999999993
0
LINE
8
BLACK
6
CONTINUOUS
10
-124.3006339999999881
20
-20.9253649999999993
11
-124.20376499999999
21
-20.9138999999999982
0
LINE
8
BLACK
6
CONTINUOUS
10
-124.20376499999999
20
-20.9138999999999982
11
-122.7083889999999968
21
-21.0315879999999993
0
LINE
8
BLACK
6
CONTINUOUS
10
54.3006339999999952
20
-20.9253649999999993
11
54.3857420000000005
21
-20.9730269999999983
0
LINE
8
BLACK
6
CONTINUOUS
10
54.3857420000000005
20
-20.9730269999999983
11
54.4461319999999986
21
-21.049630999999998
0
LINE
8
BLACK
6
CONTINUOUS
10
54.4461319999999986
20
-21.049630999999998
11
54.4726089999999985
21
-21.1435139999999997
0
LINE
8
BLACK
6
CONTINUOUS
10
54.4726089999999985
20
-21.1435139999999997
11
54.554990999999994
21
-22.1902779999999993
0
LINE
8
BLACK
6
CONTINUOUS
10
54.554990999999994
20
-22.1902779999999993
11
54.543526
21
-22.2871469999999974
0
LINE
8
BLACK
6
CONTINUOUS
10
54.543526
20
-22.2871469999999974
11
54.4958639999999974
21
-22.3722549999999991
0
LINE
8
BLACK
6
CONTINUOUS
10
54.4958639999999974
20
-22.3722549999999991
11
54.4192599999999942
21
-22.4326439999999998
0
LINE
8
BLACK
6
CONTINUOUS
10
54.4192599999999942
20
-22.4326439999999998
11
54.325376999999996
21
-22.4591220000000007
0
LINE
8
BLACK
6
CONTINUOUS
10
54.325376999999996
20
-22.4591220000000007
11
52.8300009999999958
21
-22.5768099999999983
0
LINE
8
BLACK
6
CONTINUOUS
10
52.8300009999999958
20
-22.5768099999999983
11
52.7331319999999977
21
-22.5653450000000007
0
LINE
8
BLACK
6
CONTINUOUS
10
52.7331319999999977
20
-22.5653450000000007
11
52.6480239999999995
21
-22.5176829999999981
0
LINE
8
BLACK
6
CONTINUOUS
10
52.6480239999999995
20
-22.5176829999999981
11
52.5876339999999942
21
-22.4410789999999984
0
LINE
8
BLACK
6
CONTINUOUS
10
52.5876339999999942
20
-22.4410789999999984
11
52.5611569999999944
21
-22.3471960000000003
0
LINE
8
BLACK
6
CONTINUOUS
10
52.5611569999999944
20
-22.3471960000000003
11
52.4787749999999988
21
-21.3004320000000007
0
LINE
8
BLACK
6
CONTINUOUS
10
52.4787749999999988
20
-21.3004320000000007
11
52.49024
21
-21.2035629999999991
0
LINE
8
BLACK
6
CONTINUOUS
10
52.49024
20
-21.2035629999999991
11
52.5379019999999954
21
-21.1184549999999973
0
LINE
8
BLACK
6
CONTINUOUS
10
52.5379019999999954
20
-21.1184549999999973
11
52.6145059999999987
21
-21.0580660000000002
0
LINE
8
BLACK
6
CONTINUOUS
10
52.6145059999999987
20
-21.0580660000000002
11
52.7083889999999968
21
-21.0315879999999993
0
LINE
8
BLACK
6
CONTINUOUS
10
52.7083889999999968
20
-21.0315879999999993
11
54.2037649999999971
21
-20.9138999999999982
0
LINE
8
BLACK
6
CONTINUOUS
10
54.2037649999999971
20
-20.9138999999999982
11
54.3006339999999952
21
-20.9253649999999993
0
LINE
8
BLACK
6
CONTINUOUS
10
32.4993629999999953
20
-19.6400399999999991
11
32.6888949999999952
21
-19.7016229999999979
0
LINE
8
BLACK
6
CONTINUOUS
10
32.6888949999999952
20
-19.7016229999999979
11
32.8664599999999965
21
-19.7920969999999983
0
LINE
8
BLACK
6
CONTINUOUS
10
32.8664599999999965
20
-19.7920969999999983
11
33.0276859999999957
21
-19.9092339999999979
0
LINE
8
BLACK
6
CONTINUOUS
10
33.0276859999999957
20
-19.9092339999999979
11
33.1686029999999974
21
-20.0501509999999996
0
LINE
8
BLACK
6
CONTINUOUS
10
33.1686029999999974
20
-20.0501509999999996
11
33.285739999999997
21
-20.2113769999999988
0
LINE
8
BLACK
6
CONTINUOUS
10
33.285739999999997
20
-20.2113769999999988
11
33.3762139999999974
21
-20.3889420000000001
0
LINE
8
BLACK
6
CONTINUOUS
10
33.3762139999999974
20
-20.3889420000000001
11
33.4377969999999962
21
-20.5784739999999999
0
LINE
8
BLACK
6
CONTINUOUS
10
33.4377969999999962
20
-20.5784739999999999
11
33.4689720000000008
21
-20.775306999999998
0
LINE
8
BLACK
6
CONTINUOUS
10
33.4689720000000008
20
-20.775306999999998
11
33.4689720000000008
21
-20.9745929999999987
0
LINE
8
BLACK
6
CONTINUOUS
10
33.4689720000000008
20
-20.9745929999999987
11
33.4377969999999962
21
-21.1714260000000003
0
LINE
8
BLACK
6
CONTINUOUS
10
33.4377969999999962
20
-21.1714260000000003
11
33.3762139999999974
21
-21.3609580000000001
0
LINE
8
BLACK
6
CONTINUOUS
10
33.3762139999999974
20
-21.3609580000000001
11
33.285739999999997
21
-21.5385229999999979
0
LINE
8
BLACK
6
CONTINUOUS
10
33.285739999999997
20
-21.5385229999999979
11
33.1686029999999974
21
-21.6997490000000006
0
LINE
8
BLACK
6
CONTINUOUS
10
33.1686029999999974
20
-21.6997490000000006
11
33.0276859999999957
21
-21.8406659999999988
0
LINE
8
BLACK
6
CONTINUOUS
10
33.0276859999999957
20
-21.8406659999999988
11
32.8664599999999965
21
-21.9578029999999984
0
LINE
8
BLACK
6
CONTINUOUS
10
32.8664599999999965
20
-21.9578029999999984
11
32.6888949999999952
21
-22.0482769999999988
0
LINE
8
BLACK
6
CONTINUOUS
10
32.6888949999999952
20
-22.0482769999999988
11
32.4993629999999953
21
-22.1098599999999976
0
LINE
8
BLACK
6
CONTINUOUS
10
32.4993629999999953
20
-22.1098599999999976
11
32.3025299999999973
21
-22.1410349999999987
0
LINE
8
BLACK
6
CONTINUOUS
10
32.3025299999999973
20
-22.1410349999999987
11
32.1032439999999966
21
-22.1410349999999987
0
LINE
8
BLACK
6
CONTINUOUS
10
32.1032439999999966
20
-22.1410349999999987
11
31.9064109999999985
21
-22.1098599999999976
0
LINE
8
BLACK
6
CONTINUOUS
10
31.9064109999999985
20
-22.1098599999999976
11
31.7168789999999987
21
-22.0482769999999988
0
LINE
8
BLACK
6
CONTINUOUS
10
31.7168789999999987
20
-22.0482769999999988
11
31.5393139999999974
21
-21.9578029999999984
0
LINE
8
BLACK
6
CONTINUOUS
10
31.5393139999999974
20
-21.9578029999999984
11
31.3780879999999982
21
-21.8406659999999988
0
LINE
8
BLACK
6
CONTINUOUS
10
31.3780879999999982
20
-21.8406659999999988
11
31.237171
21
-21.6997490000000006
0
LINE
8
BLACK
6
CONTINUOUS
10
31.237171
20
-21.6997490000000006
11
31.1200339999999969
21
-21.5385229999999979
0
LINE
8
BLACK
6
CONTINUOUS
10
31.1200339999999969
20
-21.5385229999999979
11
31.02956
21
-21.3609580000000001
0
LINE
8
BLACK
6
CONTINUOUS
10
31.02956
20
-21.3609580000000001
11
30.9679769999999976
21
-21.1714260000000003
0
LINE
8
BLACK
6
CONTINUOUS
10
30.9679769999999976
20
-21.1714260000000003
11
30.9368020000000001
21
-20.9745929999999987
0
LINE
8
BLACK
6
CONTINUOUS
10
30.9368020000000001
20
-20.9745929999999987
11
30.9368020000000001
21
-20.775306999999998
0
LINE
8
BLACK
6
CONTINUOUS
10
30.9368020000000001
20
-20.775306999999998
11
30.9679769999999976
21
-20.5784739999999999
0
LINE
8
BLACK
6
CONTINUOUS
10
30.9679769999999976
20
-20.5784739999999999
11
31.02956
21
-20.3889420000000001
0
LINE
8
BLACK
6
CONTINUOUS
10
31.02956
20
-20.3889420000000001
11
31.1200339999999969
21
-20.2113769999999988
0
LINE
8
BLACK
6
CONTINUOUS
10
31.1200339999999969
20
-20.2113769999999988
11
31.237171
21
-20.0501509999999996
0
LINE
8
BLACK
6
CONTINUOUS
10
31.237171
20
-20.0501509999999996
11
31.3780879999999982
21
-19.9092339999999979
0
LINE
8
BLACK
6
CONTINUOUS
10
31.3780879999999982
20
-19.9092339999999979
11
31.5393139999999974
21
-19.7920969999999983
0
LINE
8
BLACK
6
CONTINUOUS
10
31.5393139999999974
20
-19.7920969999999983
11
31.7168789999999987
21
-19.7016229999999979
0
LINE
8
BLACK
6
CONTINUOUS
10
31.7168789999999987
20
-19.7016229999999979
11
31.9064109999999985
21
-19.6400399999999991
0
LINE
8
BLACK
6
CONTINUOUS
10
31.9064109999999985
20
-19.6400399999999991
11
32.1032439999999966
21
-19.608864999999998
0
LINE
8
BLACK
6
CONTINUOUS
10
32.1032439999999966
20
-19.608864999999998
11
32.3025299999999973
21
-19.608864999999998
0
LINE
8
BLACK
6
CONTINUOUS
10
32.3025299999999973
20
-19.608864999999998
11
32.4993629999999953
21
-19.6400399999999991
0
LINE
8
BLACK
6
CONTINUOUS
10
101.1007889999999918
20
-21.1643620000000006
11
101.1575629999999961
21
-21.202296999999998
0
LINE
8
BLACK
6
CONTINUOUS
10
101.1575629999999961
20
-21.202296999999998
11
101.1954980000000006
21
-21.2590709999999987
0
LINE
8
BLACK
6
CONTINUOUS
10
101.1954980000000006
20
-21.2590709999999987
11
101.2088189999999912
21
-21.326041
0
LINE
8
BLACK
6
CONTINUOUS
10
101.2088189999999912
20
-21.326041
11
101.2088189999999912
21
-21.6760409999999979
0
LINE
8
BLACK
6
CONTINUOUS
10
101.2088189999999912
20
-21.6760409999999979
11
101.1954980000000006
21
-21.7430109999999992
0
LINE
8
BLACK
6
CONTINUOUS
10
101.1954980000000006
20
-21.7430109999999992
11
101.1575629999999961
21
-21.799785
0
LINE
8
BLACK
6
CONTINUOUS
10
101.1575629999999961
20
-21.799785
11
101.1007889999999918
21
-21.8377199999999974
0
LINE
8
BLACK
6
CONTINUOUS
10
101.1007889999999918
20
-21.8377199999999974
11
101.033818999999994
21
-21.8510409999999986
0
LINE
8
BLACK
6
CONTINUOUS
10
101.033818999999994
20
-21.8510409999999986
11
100.3838189999999884
21
-21.8510409999999986
0
LINE
8
BLACK
6
CONTINUOUS
10
100.3838189999999884
20
-21.8510409999999986
11
100.3168489999999906
21
-21.8377199999999974
0
LINE
8
BLACK
6
CONTINUOUS
10
100.3168489999999906
20
-21.8377199999999974
11
100.2600750000000005
21
-21.799785
0
LINE
8
BLACK
6
CONTINUOUS
10
100.2600750000000005
20
-21.799785
11
100.222139999999996
21
-21.7430109999999992
0
LINE
8
BLACK
6
CONTINUOUS
10
100.222139999999996
20
-21.7430109999999992
11
100.2088189999999912
21
-21.6760409999999979
0
LINE
8
BLACK
6
CONTINUOUS
10
100.2088189999999912
20
-21.6760409999999979
11
100.2088189999999912
21
-21.326041
0
LINE
8
BLACK
6
CONTINUOUS
10
100.2088189999999912
20
-21.326041
11
100.222139999999996
21
-21.2590709999999987
0
LINE
8
BLACK
6
CONTINUOUS
10
100.222139999999996
20
-21.2590709999999987
11
100.2600750000000005
21
-21.202296999999998
0
LINE
8
BLACK
6
CONTINUOUS
10
100.2600750000000005
20
-21.202296999999998
11
100.3168489999999906
21
-21.1643620000000006
0
LINE
8
BLACK
6
CONTINUOUS
10
100.3168489999999906
20
-21.1643620000000006
11
100.3838189999999884
21
-21.1510409999999993
0
LINE
8
BLACK
6
CONTINUOUS
10
100.3838189999999884
20
-21.1510409999999993
11
101.033818999999994
21
-21.1510409999999993
0
LINE
8
BLACK
6
CONTINUOUS
10
101.033818999999994
20
-21.1510409999999993
11
101.1007889999999918
21
-21.1643620000000006
0
LINE
8
BLACK
6
CONTINUOUS
10
-104.3851459999999918
20
-19.9258039999999994
11
-104.2912630000000007
21
-19.9522820000000003
0
LINE
8
BLACK
6
CONTINUOUS
10
-104.2912630000000007
20
-19.9522820000000003
11
-104.2146589999999975
21
-20.0126709999999974
0
LINE
8
BLACK
6
CONTINUOUS
10
-104.2146589999999975
20
-20.0126709999999974
11
-104.166996999999995
21
-20.0977789999999992
0
LINE
8
BLACK
6
CONTINUOUS
10
-104.166996999999995
20
-20.0977789999999992
11
-104.1555319999999938
21
-20.1946480000000008
0
LINE
8
BLACK
6
CONTINUOUS
10
-104.1555319999999938
20
-20.1946480000000008
11
-104.2379139999999893
21
-21.2414120000000004
0
LINE
8
BLACK
6
CONTINUOUS
10
-104.2379139999999893
20
-21.2414120000000004
11
-104.2643909999999892
21
-21.3352949999999986
0
LINE
8
BLACK
6
CONTINUOUS
10
-104.2643909999999892
20
-21.3352949999999986
11
-104.3247810000000015
21
-21.4118989999999982
0
LINE
8
BLACK
6
CONTINUOUS
10
-104.3247810000000015
20
-21.4118989999999982
11
-104.4098889999999926
21
-21.4595610000000008
0
LINE
8
BLACK
6
CONTINUOUS
10
-104.4098889999999926
20
-21.4595610000000008
11
-104.5067579999999907
21
-21.4710259999999984
0
LINE
8
BLACK
6
CONTINUOUS
10
-104.5067579999999907
20
-21.4710259999999984
11
-106.0021339999999981
21
-21.3533379999999973
0
LINE
8
BLACK
6
CONTINUOUS
10
-106.0021339999999981
20
-21.3533379999999973
11
-106.0960169999999891
21
-21.3268599999999999
0
LINE
8
BLACK
6
CONTINUOUS
10
-106.0960169999999891
20
-21.3268599999999999
11
-106.1726209999999924
21
-21.2664709999999992
0
LINE
8
BLACK
6
CONTINUOUS
10
-106.1726209999999924
20
-21.2664709999999992
11
-106.2202829999999949
21
-21.1813629999999975
0
LINE
8
BLACK
6
CONTINUOUS
10
-106.2202829999999949
20
-21.1813629999999975
11
-106.2317479999999961
21
-21.0844939999999994
0
LINE
8
BLACK
6
CONTINUOUS
10
-106.2317479999999961
20
-21.0844939999999994
11
-106.1493660000000006
21
-20.0377299999999998
0
LINE
8
BLACK
6
CONTINUOUS
10
-106.1493660000000006
20
-20.0377299999999998
11
-106.1228890000000007
21
-19.9438469999999981
0
LINE
8
BLACK
6
CONTINUOUS
10
-106.1228890000000007
20
-19.9438469999999981
11
-106.0624989999999883
21
-19.8672429999999984
0
LINE
8
BLACK
6
CONTINUOUS
10
-106.0624989999999883
20
-19.8672429999999984
11
-105.9773909999999972
21
-19.8195809999999994
0
LINE
8
BLACK
6
CONTINUOUS
10
-105.9773909999999972
20
-19.8195809999999994
11
-105.8805219999999991
21
-19.8081159999999983
0
LINE
8
BLACK
6
CONTINUOUS
10
-105.8805219999999991
20
-19.8081159999999983
11
-104.3851459999999918
21
-19.9258039999999994
0
LINE
8
BLACK
6
CONTINUOUS
10
35.9773909999999972
20
-19.8195809999999994
11
36.0624989999999954
21
-19.8672429999999984
0
LINE
8
BLACK
6
CONTINUOUS
10
36.0624989999999954
20
-19.8672429999999984
11
36.1228890000000007
21
-19.9438469999999981
0
LINE
8
BLACK
6
CONTINUOUS
10
36.1228890000000007
20
-19.9438469999999981
11
36.1493660000000006
21
-20.0377299999999998
0
LINE
8
BLACK
6
CONTINUOUS
10
36.1493660000000006
20
-20.0377299999999998
11
36.2317479999999961
21
-21.0844939999999994
0
LINE
8
BLACK
6
CONTINUOUS
10
36.2317479999999961
20
-21.0844939999999994
11
36.2202829999999949
21
-21.1813629999999975
0
LINE
8
BLACK
6
CONTINUOUS
10
36.2202829999999949
20
-21.1813629999999975
11
36.1726209999999995
21
-21.2664709999999992
0
LINE
8
BLACK
6
CONTINUOUS
10
36.1726209999999995
20
-21.2664709999999992
11
36.0960169999999962
21
-21.3268599999999999
0
LINE
8
BLACK
6
CONTINUOUS
10
36.0960169999999962
20
-21.3268599999999999
11
36.0021339999999981
21
-21.3533379999999973
0
LINE
8
BLACK
6
CONTINUOUS
10
36.0021339999999981
20
-21.3533379999999973
11
34.5067579999999978
21
-21.4710259999999984
0
LINE
8
BLACK
6
CONTINUOUS
10
34.5067579999999978
20
-21.4710259999999984
11
34.4098889999999997
21
-21.4595610000000008
0
LINE
8
BLACK
6
CONTINUOUS
10
34.4098889999999997
20
-21.4595610000000008
11
34.3247810000000015
21
-21.4118989999999982
0
LINE
8
BLACK
6
CONTINUOUS
10
34.3247810000000015
20
-21.4118989999999982
11
34.2643909999999963
21
-21.3352949999999986
0
LINE
8
BLACK
6
CONTINUOUS
10
34.2643909999999963
20
-21.3352949999999986
11
34.2379139999999964
21
-21.2414120000000004
0
LINE
8
BLACK
6
CONTINUOUS
10
34.2379139999999964
20
-21.2414120000000004
11
34.1555320000000009
21
-20.1946480000000008
0
LINE
8
BLACK
6
CONTINUOUS
10
34.1555320000000009
20
-20.1946480000000008
11
34.166996999999995
21
-20.0977789999999992
0
LINE
8
BLACK
6
CONTINUOUS
10
34.166996999999995
20
-20.0977789999999992
11
34.2146589999999975
21
-20.0126709999999974
0
LINE
8
BLACK
6
CONTINUOUS
10
34.2146589999999975
20
-20.0126709999999974
11
34.2912630000000007
21
-19.9522820000000003
0
LINE
8
BLACK
6
CONTINUOUS
10
34.2912630000000007
20
-19.9522820000000003
11
34.3851459999999989
21
-19.9258039999999994
0
LINE
8
BLACK
6
CONTINUOUS
10
34.3851459999999989
20
-19.9258039999999994
11
35.8805219999999991
21
-19.8081159999999983
0
LINE
8
BLACK
6
CONTINUOUS
10
35.8805219999999991
20
-19.8081159999999983
11
35.9773909999999972
21
-19.8195809999999994
0
LINE
8
BLACK
6
CONTINUOUS
10
102.7310269999999974
20
-20.3352949999999986
11
102.8327620000000024
21
-20.3940319999999993
0
LINE
8
BLACK
6
CONTINUOUS
10
102.8327620000000024
20
-20.3940319999999993
11
102.9158279999999905
21
-20.477097999999998
0
LINE
8
BLACK
6
CONTINUOUS
10
102.9158279999999905
20
-20.477097999999998
11
102.9745649999999983
21
-20.5788329999999995
0
LINE
8
BLACK
6
CONTINUOUS
10
102.9745649999999983
20
-20.5788329999999995
11
103.0049689999999885
21
-20.692304
0
LINE
8
BLACK
6
CONTINUOUS
10
103.0049689999999885
20
-20.692304
11
103.0049689999999885
21
-20.8097779999999979
0
LINE
8
BLACK
6
CONTINUOUS
10
103.0049689999999885
20
-20.8097779999999979
11
102.9745649999999983
21
-20.9232489999999984
0
LINE
8
BLACK
6
CONTINUOUS
10
102.9745649999999983
20
-20.9232489999999984
11
102.9158279999999905
21
-21.0249839999999999
0
LINE
8
BLACK
6
CONTINUOUS
10
102.9158279999999905
20
-21.0249839999999999
11
102.8327620000000024
21
-21.1080499999999986
0
LINE
8
BLACK
6
CONTINUOUS
10
102.8327620000000024
20
-21.1080499999999986
11
102.7310269999999974
21
-21.1667869999999994
0
LINE
8
BLACK
6
CONTINUOUS
10
102.7310269999999974
20
-21.1667869999999994
11
102.6175559999999933
21
-21.1971910000000001
0
LINE
8
BLACK
6
CONTINUOUS
10
102.6175559999999933
20
-21.1971910000000001
11
102.5000819999999919
21
-21.1971910000000001
0
LINE
8
BLACK
6
CONTINUOUS
10
102.5000819999999919
20
-21.1971910000000001
11
102.386611000000002
21
-21.1667869999999994
0
LINE
8
BLACK
6
CONTINUOUS
10
102.386611000000002
20
-21.1667869999999994
11
102.284875999999997
21
-21.1080499999999986
0
LINE
8
BLACK
6
CONTINUOUS
10
102.284875999999997
20
-21.1080499999999986
11
102.2018099999999947
21
-21.0249839999999999
0
LINE
8
BLACK
6
CONTINUOUS
10
102.2018099999999947
20
-21.0249839999999999
11
102.1430730000000011
21
-20.9232489999999984
0
LINE
8
BLACK
6
CONTINUOUS
10
102.1430730000000011
20
-20.9232489999999984
11
102.1126689999999968
21
-20.8097779999999979
0
LINE
8
BLACK
6
CONTINUOUS
10
102.1126689999999968
20
-20.8097779999999979
11
102.1126689999999968
21
-20.692304
0
LINE
8
BLACK
6
CONTINUOUS
10
102.1126689999999968
20
-20.692304
11
102.1430730000000011
21
-20.5788329999999995
0
LINE
8
BLACK
6
CONTINUOUS
10
102.1430730000000011
20
-20.5788329999999995
11
102.2018099999999947
21
-20.477097999999998
0
LINE
8
BLACK
6
CONTINUOUS
10
102.2018099999999947
20
-20.477097999999998
11
102.284875999999997
21
-20.3940319999999993
0
LINE
8
BLACK
6
CONTINUOUS
10
102.284875999999997
20
-20.3940319999999993
11
102.386611000000002
21
-20.3352949999999986
0
LINE
8
BLACK
6
CONTINUOUS
10
102.386611000000002
20
-20.3352949999999986
11
102.5000819999999919
21
-20.3048909999999978
0
LINE
8
BLACK
6
CONTINUOUS
10
102.5000819999999919
20
-20.3048909999999978
11
102.6175559999999933
21
-20.3048909999999978
0
LINE
8
BLACK
6
CONTINUOUS
10
102.6175559999999933
20
-20.3048909999999978
11
102.7310269999999974
21
-20.3352949999999986
0
LINE
8
BLACK
6
CONTINUOUS
10
-172.3365959999999859
20
-20.0877149999999993
11
-172.2348609999999951
21
-20.146452
0
LINE
8
BLACK
6
CONTINUOUS
10
-172.2348609999999951
20
-20.146452
11
-172.1517949999999928
21
-20.2295179999999988
0
LINE
8
BLACK
6
CONTINUOUS
10
-172.1517949999999928
20
-20.2295179999999988
11
-172.093057999999985
21
-20.3312530000000002
0
LINE
8
BLACK
6
CONTINUOUS
10
-172.093057999999985
20
-20.3312530000000002
11
-172.0626539999999807
21
-20.4447240000000008
0
LINE
8
BLACK
6
CONTINUOUS
10
-172.0626539999999807
20
-20.4447240000000008
11
-172.0626539999999807
21
-20.5621979999999986
0
LINE
8
BLACK
6
CONTINUOUS
10
-172.0626539999999807
20
-20.5621979999999986
11
-172.093057999999985
21
-20.6756689999999992
0
LINE
8
BLACK
6
CONTINUOUS
10
-172.093057999999985
20
-20.6756689999999992
11
-172.1517949999999928
21
-20.7774040000000007
0
LINE
8
BLACK
6
CONTINUOUS
10
-172.1517949999999928
20
-20.7774040000000007
11
-172.2348609999999951
21
-20.8604699999999994
0
LINE
8
BLACK
6
CONTINUOUS
10
-172.2348609999999951
20
-20.8604699999999994
11
-172.3365959999999859
21
-20.9192070000000001
0
LINE
8
BLACK
6
CONTINUOUS
10
-172.3365959999999859
20
-20.9192070000000001
11
-172.45006699999999
21
-20.9496109999999973
0
LINE
8
BLACK
6
CONTINUOUS
10
-172.45006699999999
20
-20.9496109999999973
11
-172.5675410000000056
21
-20.9496109999999973
0
LINE
8
BLACK
6
CONTINUOUS
10
-172.5675410000000056
20
-20.9496109999999973
11
-172.6810119999999813
21
-20.9192070000000001
0
LINE
8
BLACK
6
CONTINUOUS
10
-172.6810119999999813
20
-20.9192070000000001
11
-172.7827470000000005
21
-20.8604699999999994
0
LINE
8
BLACK
6
CONTINUOUS
10
-172.7827470000000005
20
-20.8604699999999994
11
-172.8658130000000028
21
-20.7774040000000007
0
LINE
8
BLACK
6
CONTINUOUS
10
-172.8658130000000028
20
-20.7774040000000007
11
-172.9245499999999822
21
-20.6756689999999992
0
LINE
8
BLACK
6
CONTINUOUS
10
-172.9245499999999822
20
-20.6756689999999992
11
-172.9549539999999865
21
-20.5621979999999986
0
LINE
8
BLACK
6
CONTINUOUS
10
-172.9549539999999865
20
-20.5621979999999986
11
-172.9549539999999865
21
-20.4447240000000008
0
LINE
8
BLACK
6
CONTINUOUS
10
-172.9549539999999865
20
-20.4447240000000008
11
-172.9245499999999822
21
-20.3312530000000002
0
LINE
8
BLACK
6
CONTINUOUS
10
-172.9245499999999822
20
-20.3312530000000002
11
-172.8658130000000028
21
-20.2295179999999988
0
LINE
8
BLACK
6
CONTINUOUS
10
-172.8658130000000028
20
-20.2295179999999988
11
-172.7827470000000005
21
-20.146452
0
LINE
8
BLACK
6
CONTINUOUS
10
-172.7827470000000005
20
-20.146452
11
-172.6810119999999813
21
-20.0877149999999993
0
LINE
8
BLACK
6
CONTINUOUS
10
-172.6810119999999813
20
-20.0877149999999993
11
-172.5675410000000056
21
-20.0573109999999986
0
LINE
8
BLACK
6
CONTINUOUS
10
-172.5675410000000056
20
-20.0573109999999986
11
-172.45006699999999
21
-20.0573109999999986
0
LINE
8
BLACK
6
CONTINUOUS
10
-172.45006699999999
20
-20.0573109999999986
11
-172.3365959999999859
21
-20.0877149999999993
0
LINE
8
BLACK
6
CONTINUOUS
10
101.1007889999999918
20
-19.6643620000000006
11
101.1575629999999961
21
-19.702296999999998
0
LINE
8
BLACK
6
CONTINUOUS
10
101.1575629999999961
20
-19.702296999999998
11
101.1954980000000006
21
-19.7590709999999987
0
LINE
8
BLACK
6
CONTINUOUS
10
101.1954980000000006
20
-19.7590709999999987
11
101.2088189999999912
21
-19.826041
0
LINE
8
BLACK
6
CONTINUOUS
10
101.2088189999999912
20
-19.826041
11
101.2088189999999912
21
-20.1760409999999979
0
LINE
8
BLACK
6
CONTINUOUS
10
101.2088189999999912
20
-20.1760409999999979
11
101.1954980000000006
21
-20.2430109999999992
0
LINE
8
BLACK
6
CONTINUOUS
10
101.1954980000000006
20
-20.2430109999999992
11
101.1575629999999961
21
-20.299785
0
LINE
8
BLACK
6
CONTINUOUS
10
101.1575629999999961
20
-20.299785
11
101.1007889999999918
21
-20.3377199999999974
0
LINE
8
BLACK
6
CONTINUOUS
10
101.1007889999999918
20
-20.3377199999999974
11
101.033818999999994
21
-20.3510409999999986
0
LINE
8
BLACK
6
CONTINUOUS
10
101.033818999999994
20
-20.3510409999999986
11
100.3838189999999884
21
-20.3510409999999986
0
LINE
8
BLACK
6
CONTINUOUS
10
100.3838189999999884
20
-20.3510409999999986
11
100.3168489999999906
21
-20.3377199999999974
0
LINE
8
BLACK
6
CONTINUOUS
10
100.3168489999999906
20
-20.3377199999999974
11
100.2600750000000005
21
-20.299785
0
LINE
8
BLACK
6
CONTINUOUS
10
100.2600750000000005
20
-20.299785
11
100.222139999999996
21
-20.2430109999999992
0
LINE
8
BLACK
6
CONTINUOUS
10
100.222139999999996
20
-20.2430109999999992
11
100.2088189999999912
21
-20.1760409999999979
0
LINE
8
BLACK
6
CONTINUOUS
10
100.2088189999999912
20
-20.1760409999999979
11
100.2088189999999912
21
-19.826041
0
LINE
8
BLACK
6
CONTINUOUS
10
100.2088189999999912
20
-19.826041
11
100.222139999999996
21
-19.7590709999999987
0
LINE
8
BLACK
6
CONTINUOUS
10
100.222139999999996
20
-19.7590709999999987
11
100.2600750000000005
21
-19.702296999999998
0
LINE
8
BLACK
6
CONTINUOUS
10
100.2600750000000005
20
-19.702296999999998
11
100.3168489999999906
21
-19.6643620000000006
0
LINE
8
BLACK
6
CONTINUOUS
10
100.3168489999999906
20
-19.6643620000000006
11
100.3838189999999884
21
-19.6510409999999993
0
LINE
8
BLACK
6
CONTINUOUS
10
100.3838189999999884
20
-19.6510409999999993
11
101.033818999999994
21
-19.6510409999999993
0
LINE
8
BLACK
6
CONTINUOUS
10
101.033818999999994
20
-19.6510409999999993
11
101.1007889999999918
21
-19.6643620000000006
0
LINE
8
BLACK
6
CONTINUOUS
10
-126.0115649999999903
20
-17.7429229999999976
11
-125.8220329999999905
21
-17.8045059999999999
0
LINE
8
BLACK
6
CONTINUOUS
10
-125.8220329999999905
20
-17.8045059999999999
11
-125.6444679999999892
21
-17.8949800000000003
0
LINE
8
BLACK
6
CONTINUOUS
10
-125.6444679999999892
20
-17.8949800000000003
11
-125.48324199999999
21
-18.0121169999999999
0
LINE
8
BLACK
6
CONTINUOUS
10
-125.48324199999999
20
-18.0121169999999999
11
-125.3423249999999882
21
-18.1530339999999981
0
LINE
8
BLACK
6
CONTINUOUS
10
-125.3423249999999882
20
-18.1530339999999981
11
-125.2251879999999886
21
-18.3142600000000009
0
LINE
8
BLACK
6
CONTINUOUS
10
-125.2251879999999886
20
-18.3142600000000009
11
-125.1347139999999882
21
-18.4918249999999986
0
LINE
8
BLACK
6
CONTINUOUS
10
-125.1347139999999882
20
-18.4918249999999986
11
-125.0731309999999894
21
-18.6813569999999984
0
LINE
8
BLACK
6
CONTINUOUS
10
-125.0731309999999894
20
-18.6813569999999984
11
-125.041955999999999
21
-18.87819
0
LINE
8
BLACK
6
CONTINUOUS
10
-125.041955999999999
20
-18.87819
11
-125.041955999999999
21
-19.0774760000000008
0
LINE
8
BLACK
6
CONTINUOUS
10
-125.041955999999999
20
-19.0774760000000008
11
-125.0731309999999894
21
-19.2743089999999988
0
LINE
8
BLACK
6
CONTINUOUS
10
-125.0731309999999894
20
-19.2743089999999988
11
-125.1347139999999882
21
-19.4638409999999986
0
LINE
8
BLACK
6
CONTINUOUS
10
-125.1347139999999882
20
-19.4638409999999986
11
-125.2251879999999886
21
-19.6414059999999999
0
LINE
8
BLACK
6
CONTINUOUS
10
-125.2251879999999886
20
-19.6414059999999999
11
-125.3423249999999882
21
-19.8026319999999991
0
LINE
8
BLACK
6
CONTINUOUS
10
-125.3423249999999882
20
-19.8026319999999991
11
-125.48324199999999
21
-19.9435490000000009
0
LINE
8
BLACK
6
CONTINUOUS
10
-125.48324199999999
20
-19.9435490000000009
11
-125.6444679999999892
21
-20.0606860000000005
0
LINE
8
BLACK
6
CONTINUOUS
10
-125.6444679999999892
20
-20.0606860000000005
11
-125.8220329999999905
21
-20.1511600000000008
0
LINE
8
BLACK
6
CONTINUOUS
10
-125.8220329999999905
20
-20.1511600000000008
11
-126.0115649999999903
21
-20.2127429999999997
0
LINE
8
BLACK
6
CONTINUOUS
10
-126.0115649999999903
20
-20.2127429999999997
11
-126.2083979999999883
21
-20.2439180000000007
0
LINE
8
BLACK
6
CONTINUOUS
10
-126.2083979999999883
20
-20.2439180000000007
11
-126.4076839999999891
21
-20.2439180000000007
0
LINE
8
BLACK
6
CONTINUOUS
10
-126.4076839999999891
20
-20.2439180000000007
11
-126.6045170000000013
21
-20.2127429999999997
0
LINE
8
BLACK
6
CONTINUOUS
10
-126.6045170000000013
20
-20.2127429999999997
11
-126.7940490000000011
21
-20.1511600000000008
0
LINE
8
BLACK
6
CONTINUOUS
10
-126.7940490000000011
20
-20.1511600000000008
11
-126.9716139999999882
21
-20.0606860000000005
0
LINE
8
BLACK
6
CONTINUOUS
10
-126.9716139999999882
20
-20.0606860000000005
11
-127.1328399999999874
21
-19.9435490000000009
0
LINE
8
BLACK
6
CONTINUOUS
10
-127.1328399999999874
20
-19.9435490000000009
11
-127.2737569999999891
21
-19.8026319999999991
0
LINE
8
BLACK
6
CONTINUOUS
10
-127.2737569999999891
20
-19.8026319999999991
11
-127.3908939999999888
21
-19.6414059999999999
0
LINE
8
BLACK
6
CONTINUOUS
10
-127.3908939999999888
20
-19.6414059999999999
11
-127.4813679999999891
21
-19.4638409999999986
0
LINE
8
BLACK
6
CONTINUOUS
10
-127.4813679999999891
20
-19.4638409999999986
11
-127.542950999999988
21
-19.2743089999999988
0
LINE
8
BLACK
6
CONTINUOUS
10
-127.542950999999988
20
-19.2743089999999988
11
-127.5741259999999926
21
-19.0774760000000008
0
LINE
8
BLACK
6
CONTINUOUS
10
-127.5741259999999926
20
-19.0774760000000008
11
-127.5741259999999926
21
-18.87819
0
LINE
8
BLACK
6
CONTINUOUS
10
-127.5741259999999926
20
-18.87819
11
-127.542950999999988
21
-18.6813569999999984
0
LINE
8
BLACK
6
CONTINUOUS
10
-127.542950999999988
20
-18.6813569999999984
11
-127.4813679999999891
21
-18.4918249999999986
0
LINE
8
BLACK
6
CONTINUOUS
10
-127.4813679999999891
20
-18.4918249999999986
11
-127.3908939999999888
21
-18.3142600000000009
0
LINE
8
BLACK
6
CONTINUOUS
10
-127.3908939999999888
20
-18.3142600000000009
11
-127.2737569999999891
21
-18.1530339999999981
0
LINE
8
BLACK
6
CONTINUOUS
10
-127.2737569999999891
20
-18.1530339999999981
11
-127.1328399999999874
21
-18.0121169999999999
0
LINE
8
BLACK
6
CONTINUOUS
10
-127.1328399999999874
20
-18.0121169999999999
11
-126.9716139999999882
21
-17.8949800000000003
0
LINE
8
BLACK
6
CONTINUOUS
10
-126.9716139999999882
20
-17.8949800000000003
11
-126.7940490000000011
21
-17.8045059999999999
0
LINE
8
BLACK
6
CONTINUOUS
10
-126.7940490000000011
20
-17.8045059999999999
11
-126.6045170000000013
21
-17.7429229999999976
0
LINE
8
BLACK
6
CONTINUOUS
10
-126.6045170000000013
20
-17.7429229999999976
11
-126.4076839999999891
21
-17.711748
0
LINE
8
BLACK
6
CONTINUOUS
10
-126.4076839999999891
20
-17.711748
11
-126.2083979999999883
21
-17.711748
0
LINE
8
BLACK
6
CONTINUOUS
10
-126.2083979999999883
20
-17.711748
11
-126.0115649999999903
21
-17.7429229999999976
0
LINE
8
BLACK
6
CONTINUOUS
10
-170.3168340000000001
20
-19.4167819999999978
11
-170.2600599999999815
21
-19.4547169999999987
0
LINE
8
BLACK
6
CONTINUOUS
10
-170.2600599999999815
20
-19.4547169999999987
11
-170.2221250000000055
21
-19.5114909999999995
0
LINE
8
BLACK
6
CONTINUOUS
10
-170.2221250000000055
20
-19.5114909999999995
11
-170.2088039999999864
21
-19.5784610000000008
0
LINE
8
BLACK
6
CONTINUOUS
10
-170.2088039999999864
20
-19.5784610000000008
11
-170.2088039999999864
21
-19.9284609999999986
0
LINE
8
BLACK
6
CONTINUOUS
10
-170.2088039999999864
20
-19.9284609999999986
11
-170.2221250000000055
21
-19.995431
0
LINE
8
BLACK
6
CONTINUOUS
10
-170.2221250000000055
20
-19.995431
11
-170.2600599999999815
21
-20.0522050000000007
0
LINE
8
BLACK
6
CONTINUOUS
10
-170.2600599999999815
20
-20.0522050000000007
11
-170.3168340000000001
21
-20.0901399999999981
0
LINE
8
BLACK
6
CONTINUOUS
10
-170.3168340000000001
20
-20.0901399999999981
11
-170.3838039999999978
21
-20.1034609999999994
0
LINE
8
BLACK
6
CONTINUOUS
10
-170.3838039999999978
20
-20.1034609999999994
11
-171.0338040000000035
21
-20.1034609999999994
0
LINE
8
BLACK
6
CONTINUOUS
10
-171.0338040000000035
20
-20.1034609999999994
11
-171.1007740000000013
21
-20.0901399999999981
0
LINE
8
BLACK
6
CONTINUOUS
10
-171.1007740000000013
20
-20.0901399999999981
11
-171.1575479999999914
21
-20.0522050000000007
0
LINE
8
BLACK
6
CONTINUOUS
10
-171.1575479999999914
20
-20.0522050000000007
11
-171.1954829999999959
21
-19.995431
0
LINE
8
BLACK
6
CONTINUOUS
10
-171.1954829999999959
20
-19.995431
11
-171.2088039999999864
21
-19.9284609999999986
0
LINE
8
BLACK
6
CONTINUOUS
10
-171.2088039999999864
20
-19.9284609999999986
11
-171.2088039999999864
21
-19.5784610000000008
0
LINE
8
BLACK
6
CONTINUOUS
10
-171.2088039999999864
20
-19.5784610000000008
11
-171.1954829999999959
21
-19.5114909999999995
0
LINE
8
BLACK
6
CONTINUOUS
10
-171.1954829999999959
20
-19.5114909999999995
11
-171.1575479999999914
21
-19.4547169999999987
0
LINE
8
BLACK
6
CONTINUOUS
10
-171.1575479999999914
20
-19.4547169999999987
11
-171.1007740000000013
21
-19.4167819999999978
0
LINE
8
BLACK
6
CONTINUOUS
10
-171.1007740000000013
20
-19.4167819999999978
11
-171.0338040000000035
21
-19.4034610000000001
0
LINE
8
BLACK
6
CONTINUOUS
10
-171.0338040000000035
20
-19.4034610000000001
11
-170.3838039999999978
21
-19.4034610000000001
0
LINE
8
BLACK
6
CONTINUOUS
10
-170.3838039999999978
20
-19.4034610000000001
11
-170.3168340000000001
21
-19.4167819999999978
0
LINE
8
BLACK
6
CONTINUOUS
10
-122.5091029999999961
20
-18.4994179999999986
11
-122.4152199999999908
21
-18.5258959999999995
0
LINE
8
BLACK
6
CONTINUOUS
10
-122.4152199999999908
20
-18.5258959999999995
11
-122.3386159999999876
21
-18.5862850000000002
0
LINE
8
BLACK
6
CONTINUOUS
10
-122.3386159999999876
20
-18.5862850000000002
11
-122.2909539999999993
21
-18.6713929999999984
0
LINE
8
BLACK
6
CONTINUOUS
10
-122.2909539999999993
20
-18.6713929999999984
11
-122.2794889999999981
21
-18.768262
0
LINE
8
BLACK
6
CONTINUOUS
10
-122.2794889999999981
20
-18.768262
11
-122.3618709999999936
21
-19.8150259999999996
0
LINE
8
BLACK
6
CONTINUOUS
10
-122.3618709999999936
20
-19.8150259999999996
11
-122.3883479999999935
21
-19.9089089999999977
0
LINE
8
BLACK
6
CONTINUOUS
10
-122.3883479999999935
20
-19.9089089999999977
11
-122.4487379999999916
21
-19.9855129999999974
0
LINE
8
BLACK
6
CONTINUOUS
10
-122.4487379999999916
20
-19.9855129999999974
11
-122.5338459999999969
21
-20.033175
0
LINE
8
BLACK
6
CONTINUOUS
10
-122.5338459999999969
20
-20.033175
11
-122.630714999999995
21
-20.0446399999999976
0
LINE
8
BLACK
6
CONTINUOUS
10
-122.630714999999995
20
-20.0446399999999976
11
-124.1260909999999882
21
-19.926952
0
LINE
8
BLACK
6
CONTINUOUS
10
-124.1260909999999882
20
-19.926952
11
-124.2199739999999935
21
-19.9004739999999991
0
LINE
8
BLACK
6
CONTINUOUS
10
-124.2199739999999935
20
-19.9004739999999991
11
-124.2965779999999967
21
-19.8400849999999984
0
LINE
8
BLACK
6
CONTINUOUS
10
-124.2965779999999967
20
-19.8400849999999984
11
-124.3442399999999992
21
-19.7549770000000002
0
LINE
8
BLACK
6
CONTINUOUS
10
-124.3442399999999992
20
-19.7549770000000002
11
-124.3557050000000004
21
-19.6581079999999986
0
LINE
8
BLACK
6
CONTINUOUS
10
-124.3557050000000004
20
-19.6581079999999986
11
-124.2733229999999907
21
-18.611343999999999
0
LINE
8
BLACK
6
CONTINUOUS
10
-124.2733229999999907
20
-18.611343999999999
11
-124.2468459999999908
21
-18.5174610000000008
0
LINE
8
BLACK
6
CONTINUOUS
10
-124.2468459999999908
20
-18.5174610000000008
11
-124.1864559999999926
21
-18.4408569999999976
0
LINE
8
BLACK
6
CONTINUOUS
10
-124.1864559999999926
20
-18.4408569999999976
11
-124.1013479999999873
21
-18.3931949999999986
0
LINE
8
BLACK
6
CONTINUOUS
10
-124.1013479999999873
20
-18.3931949999999986
11
-124.0044789999999892
21
-18.3817299999999975
0
LINE
8
BLACK
6
CONTINUOUS
10
-124.0044789999999892
20
-18.3817299999999975
11
-122.5091029999999961
21
-18.4994179999999986
0
LINE
8
BLACK
6
CONTINUOUS
10
54.1013479999999944
20
-18.3931949999999986
11
54.1864559999999997
21
-18.4408569999999976
0
LINE
8
BLACK
6
CONTINUOUS
10
54.1864559999999997
20
-18.4408569999999976
11
54.2468459999999979
21
-18.5174610000000008
0
LINE
8
BLACK
6
CONTINUOUS
10
54.2468459999999979
20
-18.5174610000000008
11
54.2733229999999978
21
-18.611343999999999
0
LINE
8
BLACK
6
CONTINUOUS
10
54.2733229999999978
20
-18.611343999999999
11
54.3557050000000004
21
-19.6581079999999986
0
LINE
8
BLACK
6
CONTINUOUS
10
54.3557050000000004
20
-19.6581079999999986
11
54.3442399999999992
21
-19.7549770000000002
0
LINE
8
BLACK
6
CONTINUOUS
10
54.3442399999999992
20
-19.7549770000000002
11
54.2965779999999967
21
-19.8400849999999984
0
LINE
8
BLACK
6
CONTINUOUS
10
54.2965779999999967
20
-19.8400849999999984
11
54.2199740000000006
21
-19.9004739999999991
0
LINE
8
BLACK
6
CONTINUOUS
10
54.2199740000000006
20
-19.9004739999999991
11
54.1260909999999953
21
-19.926952
0
LINE
8
BLACK
6
CONTINUOUS
10
54.1260909999999953
20
-19.926952
11
52.630714999999995
21
-20.0446399999999976
0
LINE
8
BLACK
6
CONTINUOUS
10
52.630714999999995
20
-20.0446399999999976
11
52.5338459999999969
21
-20.033175
0
LINE
8
BLACK
6
CONTINUOUS
10
52.5338459999999969
20
-20.033175
11
52.4487379999999987
21
-19.9855129999999974
0
LINE
8
BLACK
6
CONTINUOUS
10
52.4487379999999987
20
-19.9855129999999974
11
52.3883480000000006
21
-19.9089089999999977
0
LINE
8
BLACK
6
CONTINUOUS
10
52.3883480000000006
20
-19.9089089999999977
11
52.3618710000000007
21
-19.8150259999999996
0
LINE
8
BLACK
6
CONTINUOUS
10
52.3618710000000007
20
-19.8150259999999996
11
52.2794889999999981
21
-18.768262
0
LINE
8
BLACK
6
CONTINUOUS
10
52.2794889999999981
20
-18.768262
11
52.2909539999999993
21
-18.6713929999999984
0
LINE
8
BLACK
6
CONTINUOUS
10
52.2909539999999993
20
-18.6713929999999984
11
52.3386159999999947
21
-18.5862850000000002
0
LINE
8
BLACK
6
CONTINUOUS
10
52.3386159999999947
20
-18.5862850000000002
11
52.4152199999999979
21
-18.5258959999999995
0
LINE
8
BLACK
6
CONTINUOUS
10
52.4152199999999979
20
-18.5258959999999995
11
52.5091029999999961
21
-18.4994179999999986
0
LINE
8
BLACK
6
CONTINUOUS
10
52.5091029999999961
20
-18.4994179999999986
11
54.0044789999999963
21
-18.3817299999999975
0
LINE
8
BLACK
6
CONTINUOUS
10
54.0044789999999963
20
-18.3817299999999975
11
54.1013479999999944
21
-18.3931949999999986
0
LINE
8
BLACK
6
CONTINUOUS
10
-104.185859999999991
20
-17.3936339999999987
11
-104.091977
21
-17.4201119999999996
0
LINE
8
BLACK
6
CONTINUOUS
10
-104.091977
20
-17.4201119999999996
11
-104.0153729999999968
21
-17.4805010000000003
0
LINE
8
BLACK
6
CONTINUOUS
10
-104.0153729999999968
20
-17.4805010000000003
11
-103.9677109999999942
21
-17.5656089999999985
0
LINE
8
BLACK
6
CONTINUOUS
10
-103.9677109999999942
20
-17.5656089999999985
11
-103.956245999999993
21
-17.6624780000000001
0
LINE
8
BLACK
6
CONTINUOUS
10
-103.956245999999993
20
-17.6624780000000001
11
-104.0386279999999886
21
-18.7092419999999997
0
LINE
8
BLACK
6
CONTINUOUS
10
-104.0386279999999886
20
-18.7092419999999997
11
-104.0651049999999884
21
-18.8031249999999979
0
LINE
8
BLACK
6
CONTINUOUS
10
-104.0651049999999884
20
-18.8031249999999979
11
-104.1254950000000008
21
-18.8797289999999975
0
LINE
8
BLACK
6
CONTINUOUS
10
-104.1254950000000008
20
-18.8797289999999975
11
-104.2106029999999919
21
-18.9273910000000001
0
LINE
8
BLACK
6
CONTINUOUS
10
-104.2106029999999919
20
-18.9273910000000001
11
-104.30747199999999
21
-18.9388559999999977
0
LINE
8
BLACK
6
CONTINUOUS
10
-104.30747199999999
20
-18.9388559999999977
11
-105.8028479999999973
21
-18.8211680000000001
0
LINE
8
BLACK
6
CONTINUOUS
10
-105.8028479999999973
20
-18.8211680000000001
11
-105.8967309999999884
21
-18.7946899999999992
0
LINE
8
BLACK
6
CONTINUOUS
10
-105.8967309999999884
20
-18.7946899999999992
11
-105.9733349999999916
21
-18.7343009999999985
0
LINE
8
BLACK
6
CONTINUOUS
10
-105.9733349999999916
20
-18.7343009999999985
11
-106.0209969999999942
21
-18.6491930000000004
0
LINE
8
BLACK
6
CONTINUOUS
10
-106.0209969999999942
20
-18.6491930000000004
11
-106.0324619999999953
21
-18.5523239999999987
0
LINE
8
BLACK
6
CONTINUOUS
10
-106.0324619999999953
20
-18.5523239999999987
11
-105.9500799999999998
21
-17.5055599999999991
0
LINE
8
BLACK
6
CONTINUOUS
10
-105.9500799999999998
20
-17.5055599999999991
11
-105.923603
21
-17.411677000000001
0
LINE
8
BLACK
6
CONTINUOUS
10
-105.923603
20
-17.411677000000001
11
-105.8632130000000018
21
-17.3350729999999977
0
LINE
8
BLACK
6
CONTINUOUS
10
-105.8632130000000018
20
-17.3350729999999977
11
-105.7781049999999965
21
-17.2874109999999988
0
LINE
8
BLACK
6
CONTINUOUS
10
-105.7781049999999965
20
-17.2874109999999988
11
-105.6812359999999984
21
-17.2759459999999976
0
LINE
8
BLACK
6
CONTINUOUS
10
-105.6812359999999984
20
-17.2759459999999976
11
-104.185859999999991
21
-17.3936339999999987
0
LINE
8
BLACK
6
CONTINUOUS
10
35.7781049999999965
20
-17.2874109999999988
11
35.8632130000000018
21
-17.3350729999999977
0
LINE
8
BLACK
6
CONTINUOUS
10
35.8632130000000018
20
-17.3350729999999977
11
35.923603
21
-17.411677000000001
0
LINE
8
BLACK
6
CONTINUOUS
10
35.923603
20
-17.411677000000001
11
35.9500799999999998
21
-17.5055599999999991
0
LINE
8
BLACK
6
CONTINUOUS
10
35.9500799999999998
20
-17.5055599999999991
11
36.0324619999999953
21
-18.5523239999999987
0
LINE
8
BLACK
6
CONTINUOUS
10
36.0324619999999953
20
-18.5523239999999987
11
36.0209970000000013
21
-18.6491930000000004
0
LINE
8
BLACK
6
CONTINUOUS
10
36.0209970000000013
20
-18.6491930000000004
11
35.9733349999999987
21
-18.7343009999999985
0
LINE
8
BLACK
6
CONTINUOUS
10
35.9733349999999987
20
-18.7343009999999985
11
35.8967309999999955
21
-18.7946899999999992
0
LINE
8
BLACK
6
CONTINUOUS
10
35.8967309999999955
20
-18.7946899999999992
11
35.8028479999999973
21
-18.8211680000000001
0
LINE
8
BLACK
6
CONTINUOUS
10
35.8028479999999973
20
-18.8211680000000001
11
34.3074719999999971
21
-18.9388559999999977
0
LINE
8
BLACK
6
CONTINUOUS
10
34.3074719999999971
20
-18.9388559999999977
11
34.210602999999999
21
-18.9273910000000001
0
LINE
8
BLACK
6
CONTINUOUS
10
34.210602999999999
20
-18.9273910000000001
11
34.1254950000000008
21
-18.8797289999999975
0
LINE
8
BLACK
6
CONTINUOUS
10
34.1254950000000008
20
-18.8797289999999975
11
34.0651049999999955
21
-18.8031249999999979
0
LINE
8
BLACK
6
CONTINUOUS
10
34.0651049999999955
20
-18.8031249999999979
11
34.0386279999999957
21
-18.7092419999999997
0
LINE
8
BLACK
6
CONTINUOUS
10
34.0386279999999957
20
-18.7092419999999997
11
33.9562460000000002
21
-17.6624780000000001
0
LINE
8
BLACK
6
CONTINUOUS
10
33.9562460000000002
20
-17.6624780000000001
11
33.9677110000000013
21
-17.5656089999999985
0
LINE
8
BLACK
6
CONTINUOUS
10
33.9677110000000013
20
-17.5656089999999985
11
34.0153729999999968
21
-17.4805010000000003
0
LINE
8
BLACK
6
CONTINUOUS
10
34.0153729999999968
20
-17.4805010000000003
11
34.091977
21
-17.4201119999999996
0
LINE
8
BLACK
6
CONTINUOUS
10
34.091977
20
-17.4201119999999996
11
34.1858599999999981
21
-17.3936339999999987
0
LINE
8
BLACK
6
CONTINUOUS
10
34.1858599999999981
20
-17.3936339999999987
11
35.6812359999999984
21
-17.2759459999999976
0
LINE
8
BLACK
6
CONTINUOUS
10
35.6812359999999984
20
-17.2759459999999976
11
35.7781049999999965
21
-17.2874109999999988
0
LINE
8
BLACK
6
CONTINUOUS
10
-171.3631330000000048
20
-17.6724910000000008
11
-171.2820269999999994
21
-17.7266839999999988
0
LINE
8
BLACK
6
CONTINUOUS
10
-171.2820269999999994
20
-17.7266839999999988
11
-171.2278340000000014
21
-17.8077900000000007
0
LINE
8
BLACK
6
CONTINUOUS
10
-171.2278340000000014
20
-17.8077900000000007
11
-171.2088039999999864
21
-17.9034610000000001
0
LINE
8
BLACK
6
CONTINUOUS
10
-171.2088039999999864
20
-17.9034610000000001
11
-171.2088039999999864
21
-18.4034610000000001
0
LINE
8
BLACK
6
CONTINUOUS
10
-171.2088039999999864
20
-18.4034610000000001
11
-171.2278340000000014
21
-18.4991319999999995
0
LINE
8
BLACK
6
CONTINUOUS
10
-171.2278340000000014
20
-18.4991319999999995
11
-171.2820269999999994
21
-18.5802379999999978
0
LINE
8
BLACK
6
CONTINUOUS
10
-171.2820269999999994
20
-18.5802379999999978
11
-171.3631330000000048
21
-18.6344309999999993
0
LINE
8
BLACK
6
CONTINUOUS
10
-171.3631330000000048
20
-18.6344309999999993
11
-171.4588039999999864
21
-18.6534610000000001
0
LINE
8
BLACK
6
CONTINUOUS
10
-171.4588039999999864
20
-18.6534610000000001
11
-173.7588039999999978
21
-18.6534610000000001
0
LINE
8
BLACK
6
CONTINUOUS
10
-173.7588039999999978
20
-18.6534610000000001
11
-173.8544749999999794
21
-18.6344309999999993
0
LINE
8
BLACK
6
CONTINUOUS
10
-173.8544749999999794
20
-18.6344309999999993
11
-173.9355809999999849
21
-18.5802379999999978
0
LINE
8
BLACK
6
CONTINUOUS
10
-173.9355809999999849
20
-18.5802379999999978
11
-173.9897739999999828
21
-18.4991319999999995
0
LINE
8
BLACK
6
CONTINUOUS
10
-173.9897739999999828
20
-18.4991319999999995
11
-174.0088039999999978
21
-18.4034610000000001
0
LINE
8
BLACK
6
CONTINUOUS
10
-174.0088039999999978
20
-18.4034610000000001
11
-174.0088039999999978
21
-17.9034610000000001
0
LINE
8
BLACK
6
CONTINUOUS
10
-174.0088039999999978
20
-17.9034610000000001
11
-173.9897739999999828
21
-17.8077900000000007
0
LINE
8
BLACK
6
CONTINUOUS
10
-173.9897739999999828
20
-17.8077900000000007
11
-173.9355809999999849
21
-17.7266839999999988
0
LINE
8
BLACK
6
CONTINUOUS
10
-173.9355809999999849
20
-17.7266839999999988
11
-173.8544749999999794
21
-17.6724910000000008
0
LINE
8
BLACK
6
CONTINUOUS
10
-173.8544749999999794
20
-17.6724910000000008
11
-173.7588039999999978
21
-17.6534610000000001
0
LINE
8
BLACK
6
CONTINUOUS
10
-173.7588039999999978
20
-17.6534610000000001
11
-171.4588039999999864
21
-17.6534610000000001
0
LINE
8
BLACK
6
CONTINUOUS
10
-171.4588039999999864
20
-17.6534610000000001
11
-171.3631330000000048
21
-17.6724910000000008
0
LINE
8
BLACK
6
CONTINUOUS
10
103.8544899999999984
20
-17.6700710000000001
11
103.9355959999999897
21
-17.724263999999998
0
LINE
8
BLACK
6
CONTINUOUS
10
103.9355959999999897
20
-17.724263999999998
11
103.9897890000000018
21
-17.8053699999999999
0
LINE
8
BLACK
6
CONTINUOUS
10
103.9897890000000018
20
-17.8053699999999999
11
104.0088189999999884
21
-17.9010409999999993
0
LINE
8
BLACK
6
CONTINUOUS
10
104.0088189999999884
20
-17.9010409999999993
11
104.0088189999999884
21
-18.4010409999999993
0
LINE
8
BLACK
6
CONTINUOUS
10
104.0088189999999884
20
-18.4010409999999993
11
103.9897890000000018
21
-18.4967119999999987
0
LINE
8
BLACK
6
CONTINUOUS
10
103.9897890000000018
20
-18.4967119999999987
11
103.9355959999999897
21
-18.5778180000000006
0
LINE
8
BLACK
6
CONTINUOUS
10
103.9355959999999897
20
-18.5778180000000006
11
103.8544899999999984
21
-18.6320109999999985
0
LINE
8
BLACK
6
CONTINUOUS
10
103.8544899999999984
20
-18.6320109999999985
11
103.7588189999999884
21
-18.6510409999999993
0
LINE
8
BLACK
6
CONTINUOUS
10
103.7588189999999884
20
-18.6510409999999993
11
101.4588189999999912
21
-18.6510409999999993
0
LINE
8
BLACK
6
CONTINUOUS
10
101.4588189999999912
20
-18.6510409999999993
11
101.3631479999999954
21
-18.6320109999999985
0
LINE
8
BLACK
6
CONTINUOUS
10
101.3631479999999954
20
-18.6320109999999985
11
101.2820419999999899
21
-18.5778180000000006
0
LINE
8
BLACK
6
CONTINUOUS
10
101.2820419999999899
20
-18.5778180000000006
11
101.227848999999992
21
-18.4967119999999987
0
LINE
8
BLACK
6
CONTINUOUS
10
101.227848999999992
20
-18.4967119999999987
11
101.2088189999999912
21
-18.4010409999999993
0
LINE
8
BLACK
6
CONTINUOUS
10
101.2088189999999912
20
-18.4010409999999993
11
101.2088189999999912
21
-17.9010409999999993
0
LINE
8
BLACK
6
CONTINUOUS
10
101.2088189999999912
20
-17.9010409999999993
11
101.227848999999992
21
-17.8053699999999999
0
LINE
8
BLACK
6
CONTINUOUS
10
101.227848999999992
20
-17.8053699999999999
11
101.2820419999999899
21
-17.724263999999998
0
LINE
8
BLACK
6
CONTINUOUS
10
101.2820419999999899
20
-17.724263999999998
11
101.3631479999999954
21
-17.6700710000000001
0
LINE
8
BLACK
6
CONTINUOUS
10
101.3631479999999954
20
-17.6700710000000001
11
101.4588189999999912
21
-17.6510409999999993
0
LINE
8
BLACK
6
CONTINUOUS
10
101.4588189999999912
20
-17.6510409999999993
11
103.7588189999999884
21
-17.6510409999999993
0
LINE
8
BLACK
6
CONTINUOUS
10
103.7588189999999884
20
-17.6510409999999993
11
103.8544899999999984
21
-17.6700710000000001
0
LINE
8
BLACK
6
CONTINUOUS
10
-122.3098169999999953
20
-15.9672479999999997
11
-122.2159339999999901
21
-15.9937259999999988
0
LINE
8
BLACK
6
CONTINUOUS
10
-122.2159339999999901
20
-15.9937259999999988
11
-122.1393300000000011
21
-16.0541149999999995
0
LINE
8
BLACK
6
CONTINUOUS
10
-122.1393300000000011
20
-16.0541149999999995
11
-122.0916679999999985
21
-16.1392229999999977
0
LINE
8
BLACK
6
CONTINUOUS
10
-122.0916679999999985
20
-16.1392229999999977
11
-122.0802029999999974
21
-16.2360919999999993
0
LINE
8
BLACK
6
CONTINUOUS
10
-122.0802029999999974
20
-16.2360919999999993
11
-122.1625849999999929
21
-17.2828559999999989
0
LINE
8
BLACK
6
CONTINUOUS
10
-122.1625849999999929
20
-17.2828559999999989
11
-122.1890619999999927
21
-17.3767390000000006
0
LINE
8
BLACK
6
CONTINUOUS
10
-122.1890619999999927
20
-17.3767390000000006
11
-122.2494519999999909
21
-17.4533430000000003
0
LINE
8
BLACK
6
CONTINUOUS
10
-122.2494519999999909
20
-17.4533430000000003
11
-122.3345599999999962
21
-17.5010049999999993
0
LINE
8
BLACK
6
CONTINUOUS
10
-122.3345599999999962
20
-17.5010049999999993
11
-122.4314289999999943
21
-17.5124700000000004
0
LINE
8
BLACK
6
CONTINUOUS
10
-122.4314289999999943
20
-17.5124700000000004
11
-123.9268049999999874
21
-17.3947819999999993
0
LINE
8
BLACK
6
CONTINUOUS
10
-123.9268049999999874
20
-17.3947819999999993
11
-124.0206879999999927
21
-17.3683039999999984
0
LINE
8
BLACK
6
CONTINUOUS
10
-124.0206879999999927
20
-17.3683039999999984
11
-124.0972919999999959
21
-17.3079149999999977
0
LINE
8
BLACK
6
CONTINUOUS
10
-124.0972919999999959
20
-17.3079149999999977
11
-124.1449539999999985
21
-17.2228069999999995
0
LINE
8
BLACK
6
CONTINUOUS
10
-124.1449539999999985
20
-17.2228069999999995
11
-124.1564189999999996
21
-17.1259379999999979
0
LINE
8
BLACK
6
CONTINUOUS
10
-124.1564189999999996
20
-17.1259379999999979
11
-124.0740369999999899
21
-16.0791739999999983
0
LINE
8
BLACK
6
CONTINUOUS
10
-124.0740369999999899
20
-16.0791739999999983
11
-124.0475599999999901
21
-15.9852910000000001
0
LINE
8
BLACK
6
CONTINUOUS
10
-124.0475599999999901
20
-15.9852910000000001
11
-123.9871699999999919
21
-15.9086869999999987
0
LINE
8
BLACK
6
CONTINUOUS
10
-123.9871699999999919
20
-15.9086869999999987
11
-123.9020620000000008
21
-15.8610249999999997
0
LINE
8
BLACK
6
CONTINUOUS
10
-123.9020620000000008
20
-15.8610249999999997
11
-123.8051929999999885
21
-15.8495599999999985
0
LINE
8
BLACK
6
CONTINUOUS
10
-123.8051929999999885
20
-15.8495599999999985
11
-122.3098169999999953
21
-15.9672479999999997
0
LINE
8
BLACK
6
CONTINUOUS
10
53.9020620000000008
20
-15.8610249999999997
11
53.987169999999999
21
-15.9086869999999987
0
LINE
8
BLACK
6
CONTINUOUS
10
53.987169999999999
20
-15.9086869999999987
11
54.0475599999999972
21
-15.9852910000000001
0
LINE
8
BLACK
6
CONTINUOUS
10
54.0475599999999972
20
-15.9852910000000001
11
54.074036999999997
21
-16.0791739999999983
0
LINE
8
BLACK
6
CONTINUOUS
10
54.074036999999997
20
-16.0791739999999983
11
54.1564189999999996
21
-17.1259379999999979
0
LINE
8
BLACK
6
CONTINUOUS
10
54.1564189999999996
20
-17.1259379999999979
11
54.1449539999999985
21
-17.2228069999999995
0
LINE
8
BLACK
6
CONTINUOUS
10
54.1449539999999985
20
-17.2228069999999995
11
54.0972919999999959
21
-17.3079149999999977
0
LINE
8
BLACK
6
CONTINUOUS
10
54.0972919999999959
20
-17.3079149999999977
11
54.0206879999999998
21
-17.3683039999999984
0
LINE
8
BLACK
6
CONTINUOUS
10
54.0206879999999998
20
-17.3683039999999984
11
53.9268049999999945
21
-17.3947819999999993
0
LINE
8
BLACK
6
CONTINUOUS
10
53.9268049999999945
20
-17.3947819999999993
11
52.4314289999999943
21
-17.5124700000000004
0
LINE
8
BLACK
6
CONTINUOUS
10
52.4314289999999943
20
-17.5124700000000004
11
52.3345599999999962
21
-17.5010049999999993
0
LINE
8
BLACK
6
CONTINUOUS
10
52.3345599999999962
20
-17.5010049999999993
11
52.249451999999998
21
-17.4533430000000003
0
LINE
8
BLACK
6
CONTINUOUS
10
52.249451999999998
20
-17.4533430000000003
11
52.1890619999999998
21
-17.3767390000000006
0
LINE
8
BLACK
6
CONTINUOUS
10
52.1890619999999998
20
-17.3767390000000006
11
52.162585
21
-17.2828559999999989
0
LINE
8
BLACK
6
CONTINUOUS
10
52.162585
20
-17.2828559999999989
11
52.0802029999999974
21
-16.2360919999999993
0
LINE
8
BLACK
6
CONTINUOUS
10
52.0802029999999974
20
-16.2360919999999993
11
52.0916679999999985
21
-16.1392229999999977
0
LINE
8
BLACK
6
CONTINUOUS
10
52.0916679999999985
20
-16.1392229999999977
11
52.1393300000000011
21
-16.0541149999999995
0
LINE
8
BLACK
6
CONTINUOUS
10
52.1393300000000011
20
-16.0541149999999995
11
52.2159339999999972
21
-15.9937259999999988
0
LINE
8
BLACK
6
CONTINUOUS
10
52.2159339999999972
20
-15.9937259999999988
11
52.3098169999999953
21
-15.9672479999999997
0
LINE
8
BLACK
6
CONTINUOUS
10
52.3098169999999953
20
-15.9672479999999997
11
53.8051929999999956
21
-15.8495599999999985
0
LINE
8
BLACK
6
CONTINUOUS
10
53.8051929999999956
20
-15.8495599999999985
11
53.9020620000000008
21
-15.8610249999999997
0
LINE
8
BLACK
6
CONTINUOUS
10
-103.9865739999999903
20
-14.8614639999999998
11
-103.8926909999999992
21
-14.8879419999999989
0
LINE
8
BLACK
6
CONTINUOUS
10
-103.8926909999999992
20
-14.8879419999999989
11
-103.816086999999996
21
-14.9483309999999996
0
LINE
8
BLACK
6
CONTINUOUS
10
-103.816086999999996
20
-14.9483309999999996
11
-103.7684249999999935
21
-15.0334389999999996
0
LINE
8
BLACK
6
CONTINUOUS
10
-103.7684249999999935
20
-15.0334389999999996
11
-103.7569599999999923
21
-15.1303079999999994
0
LINE
8
BLACK
6
CONTINUOUS
10
-103.7569599999999923
20
-15.1303079999999994
11
-103.839342000000002
21
-16.177071999999999
0
LINE
8
BLACK
6
CONTINUOUS
10
-103.839342000000002
20
-16.177071999999999
11
-103.8658190000000019
21
-16.2709550000000007
0
LINE
8
BLACK
6
CONTINUOUS
10
-103.8658190000000019
20
-16.2709550000000007
11
-103.9262090000000001
21
-16.3475590000000004
0
LINE
8
BLACK
6
CONTINUOUS
10
-103.9262090000000001
20
-16.3475590000000004
11
-104.0113169999999911
21
-16.3952209999999994
0
LINE
8
BLACK
6
CONTINUOUS
10
-104.0113169999999911
20
-16.3952209999999994
11
-104.1081859999999892
21
-16.4066860000000005
0
LINE
8
BLACK
6
CONTINUOUS
10
-104.1081859999999892
20
-16.4066860000000005
11
-105.6035619999999966
21
-16.2889979999999994
0
LINE
8
BLACK
6
CONTINUOUS
10
-105.6035619999999966
20
-16.2889979999999994
11
-105.6974450000000019
21
-16.2625199999999985
0
LINE
8
BLACK
6
CONTINUOUS
10
-105.6974450000000019
20
-16.2625199999999985
11
-105.7740489999999909
21
-16.2021309999999978
0
LINE
8
BLACK
6
CONTINUOUS
10
-105.7740489999999909
20
-16.2021309999999978
11
-105.8217109999999934
21
-16.1170229999999997
0
LINE
8
BLACK
6
CONTINUOUS
10
-105.8217109999999934
20
-16.1170229999999997
11
-105.8331759999999946
21
-16.020153999999998
0
LINE
8
BLACK
6
CONTINUOUS
10
-105.8331759999999946
20
-16.020153999999998
11
-105.7507939999999991
21
-14.9733900000000002
0
LINE
8
BLACK
6
CONTINUOUS
10
-105.7507939999999991
20
-14.9733900000000002
11
-105.7243169999999992
21
-14.8795069999999985
0
LINE
8
BLACK
6
CONTINUOUS
10
-105.7243169999999992
20
-14.8795069999999985
11
-105.663927000000001
21
-14.8029029999999988
0
LINE
8
BLACK
6
CONTINUOUS
10
-105.663927000000001
20
-14.8029029999999988
11
-105.5788189999999958
21
-14.7552409999999998
0
LINE
8
BLACK
6
CONTINUOUS
10
-105.5788189999999958
20
-14.7552409999999998
11
-105.4819499999999977
21
-14.7437759999999987
0
LINE
8
BLACK
6
CONTINUOUS
10
-105.4819499999999977
20
-14.7437759999999987
11
-103.9865739999999903
21
-14.8614639999999998
0
LINE
8
BLACK
6
CONTINUOUS
10
35.5788189999999958
20
-14.7552409999999998
11
35.663927000000001
21
-14.8029029999999988
0
LINE
8
BLACK
6
CONTINUOUS
10
35.663927000000001
20
-14.8029029999999988
11
35.7243169999999992
21
-14.8795069999999985
0
LINE
8
BLACK
6
CONTINUOUS
10
35.7243169999999992
20
-14.8795069999999985
11
35.7507939999999991
21
-14.9733900000000002
0
LINE
8
BLACK
6
CONTINUOUS
10
35.7507939999999991
20
-14.9733900000000002
11
35.8331760000000017
21
-16.020153999999998
0
LINE
8
BLACK
6
CONTINUOUS
10
35.8331760000000017
20
-16.020153999999998
11
35.8217110000000005
21
-16.1170229999999997
0
LINE
8
BLACK
6
CONTINUOUS
10
35.8217110000000005
20
-16.1170229999999997
11
35.774048999999998
21
-16.2021309999999978
0
LINE
8
BLACK
6
CONTINUOUS
10
35.774048999999998
20
-16.2021309999999978
11
35.6974450000000019
21
-16.2625199999999985
0
LINE
8
BLACK
6
CONTINUOUS
10
35.6974450000000019
20
-16.2625199999999985
11
35.6035619999999966
21
-16.2889979999999994
0
LINE
8
BLACK
6
CONTINUOUS
10
35.6035619999999966
20
-16.2889979999999994
11
34.1081859999999963
21
-16.4066860000000005
0
LINE
8
BLACK
6
CONTINUOUS
10
34.1081859999999963
20
-16.4066860000000005
11
34.0113169999999982
21
-16.3952209999999994
0
LINE
8
BLACK
6
CONTINUOUS
10
34.0113169999999982
20
-16.3952209999999994
11
33.9262090000000001
21
-16.3475590000000004
0
LINE
8
BLACK
6
CONTINUOUS
10
33.9262090000000001
20
-16.3475590000000004
11
33.8658190000000019
21
-16.2709550000000007
0
LINE
8
BLACK
6
CONTINUOUS
10
33.8658190000000019
20
-16.2709550000000007
11
33.8393419999999949
21
-16.177071999999999
0
LINE
8
BLACK
6
CONTINUOUS
10
33.8393419999999949
20
-16.177071999999999
11
33.7569599999999994
21
-15.1303079999999994
0
LINE
8
BLACK
6
CONTINUOUS
10
33.7569599999999994
20
-15.1303079999999994
11
33.7684250000000006
21
-15.0334389999999996
0
LINE
8
BLACK
6
CONTINUOUS
10
33.7684250000000006
20
-15.0334389999999996
11
33.816086999999996
21
-14.9483309999999996
0
LINE
8
BLACK
6
CONTINUOUS
10
33.816086999999996
20
-14.9483309999999996
11
33.8926909999999992
21
-14.8879419999999989
0
LINE
8
BLACK
6
CONTINUOUS
10
33.8926909999999992
20
-14.8879419999999989
11
33.9865739999999974
21
-14.8614639999999998
0
LINE
8
BLACK
6
CONTINUOUS
10
33.9865739999999974
20
-14.8614639999999998
11
35.4819499999999977
21
-14.7437759999999987
0
LINE
8
BLACK
6
CONTINUOUS
10
35.4819499999999977
20
-14.7437759999999987
11
35.5788189999999958
21
-14.7552409999999998
0
LINE
8
BLACK
6
CONTINUOUS
10
-122.1105309999999946
20
-13.435077999999999
11
-122.0166479999999893
21
-13.4615559999999999
0
LINE
8
BLACK
6
CONTINUOUS
10
-122.0166479999999893
20
-13.4615559999999999
11
-121.9400440000000003
21
-13.5219449999999988
0
LINE
8
BLACK
6
CONTINUOUS
10
-121.9400440000000003
20
-13.5219449999999988
11
-121.8923819999999978
21
-13.6070529999999987
0
LINE
8
BLACK
6
CONTINUOUS
10
-121.8923819999999978
20
-13.6070529999999987
11
-121.8809169999999966
21
-13.7039219999999986
0
LINE
8
BLACK
6
CONTINUOUS
10
-121.8809169999999966
20
-13.7039219999999986
11
-121.9632989999999921
21
-14.750686
0
LINE
8
BLACK
6
CONTINUOUS
10
-121.9632989999999921
20
-14.750686
11
-121.989775999999992
21
-14.8445689999999999
0
LINE
8
BLACK
6
CONTINUOUS
10
-121.989775999999992
20
-14.8445689999999999
11
-122.0501659999999902
21
-14.9211729999999996
0
LINE
8
BLACK
6
CONTINUOUS
10
-122.0501659999999902
20
-14.9211729999999996
11
-122.1352739999999955
21
-14.9688349999999986
0
LINE
8
BLACK
6
CONTINUOUS
10
-122.1352739999999955
20
-14.9688349999999986
11
-122.2321429999999935
21
-14.9802999999999997
0
LINE
8
BLACK
6
CONTINUOUS
10
-122.2321429999999935
20
-14.9802999999999997
11
-123.7275190000000009
21
-14.8626119999999986
0
LINE
8
BLACK
6
CONTINUOUS
10
-123.7275190000000009
20
-14.8626119999999986
11
-123.821401999999992
21
-14.8361339999999995
0
LINE
8
BLACK
6
CONTINUOUS
10
-123.821401999999992
20
-14.8361339999999995
11
-123.8980059999999952
21
-14.7757449999999988
0
LINE
8
BLACK
6
CONTINUOUS
10
-123.8980059999999952
20
-14.7757449999999988
11
-123.9456679999999977
21
-14.6906369999999988
0
LINE
8
BLACK
6
CONTINUOUS
10
-123.9456679999999977
20
-14.6906369999999988
11
-123.9571329999999989
21
-14.593767999999999
0
LINE
8
BLACK
6
CONTINUOUS
10
-123.9571329999999989
20
-14.593767999999999
11
-123.8747509999999892
21
-13.5470039999999994
0
LINE
8
BLACK
6
CONTINUOUS
10
-123.8747509999999892
20
-13.5470039999999994
11
-123.8482739999999893
21
-13.4531209999999994
0
LINE
8
BLACK
6
CONTINUOUS
10
-123.8482739999999893
20
-13.4531209999999994
11
-123.7878839999999911
21
-13.3765169999999998
0
LINE
8
BLACK
6
CONTINUOUS
10
-123.7878839999999911
20
-13.3765169999999998
11
-123.7027760000000001
21
-13.328854999999999
0
LINE
8
BLACK
6
CONTINUOUS
10
-123.7027760000000001
20
-13.328854999999999
11
-123.6059069999999878
21
-13.3173899999999996
0
LINE
8
BLACK
6
CONTINUOUS
10
-123.6059069999999878
20
-13.3173899999999996
11
-122.1105309999999946
21
-13.435077999999999
0
LINE
8
BLACK
6
CONTINUOUS
10
53.7027760000000001
20
-13.328854999999999
11
53.7878839999999983
21
-13.3765169999999998
0
LINE
8
BLACK
6
CONTINUOUS
10
53.7878839999999983
20
-13.3765169999999998
11
53.8482739999999964
21
-13.4531209999999994
0
LINE
8
BLACK
6
CONTINUOUS
10
53.8482739999999964
20
-13.4531209999999994
11
53.8747509999999963
21
-13.5470039999999994
0
LINE
8
BLACK
6
CONTINUOUS
10
53.8747509999999963
20
-13.5470039999999994
11
53.9571329999999989
21
-14.593767999999999
0
LINE
8
BLACK
6
CONTINUOUS
10
53.9571329999999989
20
-14.593767999999999
11
53.9456679999999977
21
-14.6906369999999988
0
LINE
8
BLACK
6
CONTINUOUS
10
53.9456679999999977
20
-14.6906369999999988
11
53.8980059999999952
21
-14.7757449999999988
0
LINE
8
BLACK
6
CONTINUOUS
10
53.8980059999999952
20
-14.7757449999999988
11
53.8214019999999991
21
-14.8361339999999995
0
LINE
8
BLACK
6
CONTINUOUS
10
53.8214019999999991
20
-14.8361339999999995
11
53.7275190000000009
21
-14.8626119999999986
0
LINE
8
BLACK
6
CONTINUOUS
10
53.7275190000000009
20
-14.8626119999999986
11
52.2321430000000007
21
-14.9802999999999997
0
LINE
8
BLACK
6
CONTINUOUS
10
52.2321430000000007
20
-14.9802999999999997
11
52.1352739999999955
21
-14.9688349999999986
0
LINE
8
BLACK
6
CONTINUOUS
10
52.1352739999999955
20
-14.9688349999999986
11
52.0501659999999973
21
-14.9211729999999996
0
LINE
8
BLACK
6
CONTINUOUS
10
52.0501659999999973
20
-14.9211729999999996
11
51.9897759999999991
21
-14.8445689999999999
0
LINE
8
BLACK
6
CONTINUOUS
10
51.9897759999999991
20
-14.8445689999999999
11
51.9632989999999992
21
-14.750686
0
LINE
8
BLACK
6
CONTINUOUS
10
51.9632989999999992
20
-14.750686
11
51.8809169999999966
21
-13.7039219999999986
0
LINE
8
BLACK
6
CONTINUOUS
10
51.8809169999999966
20
-13.7039219999999986
11
51.8923819999999978
21
-13.6070529999999987
0
LINE
8
BLACK
6
CONTINUOUS
10
51.8923819999999978
20
-13.6070529999999987
11
51.9400440000000003
21
-13.5219449999999988
0
LINE
8
BLACK
6
CONTINUOUS
10
51.9400440000000003
20
-13.5219449999999988
11
52.0166479999999964
21
-13.4615559999999999
0
LINE
8
BLACK
6
CONTINUOUS
10
52.0166479999999964
20
-13.4615559999999999
11
52.1105309999999946
21
-13.435077999999999
0
LINE
8
BLACK
6
CONTINUOUS
10
52.1105309999999946
20
-13.435077999999999
11
53.6059069999999949
21
-13.3173899999999996
0
LINE
8
BLACK
6
CONTINUOUS
10
53.6059069999999949
20
-13.3173899999999996
11
53.7027760000000001
21
-13.328854999999999
0
LINE
8
BLACK
6
CONTINUOUS
10
-103.7872879999999896
20
-12.3292939999999991
11
-103.6934049999999985
21
-12.355772
0
LINE
8
BLACK
6
CONTINUOUS
10
-103.6934049999999985
20
-12.355772
11
-103.6168009999999953
21
-12.4161609999999989
0
LINE
8
BLACK
6
CONTINUOUS
10
-103.6168009999999953
20
-12.4161609999999989
11
-103.5691389999999927
21
-12.5012689999999989
0
LINE
8
BLACK
6
CONTINUOUS
10
-103.5691389999999927
20
-12.5012689999999989
11
-103.5576739999999916
21
-12.5981379999999987
0
LINE
8
BLACK
6
CONTINUOUS
10
-103.5576739999999916
20
-12.5981379999999987
11
-103.6400560000000013
21
-13.6449020000000001
0
LINE
8
BLACK
6
CONTINUOUS
10
-103.6400560000000013
20
-13.6449020000000001
11
-103.6665330000000012
21
-13.738785
0
LINE
8
BLACK
6
CONTINUOUS
10
-103.6665330000000012
20
-13.738785
11
-103.7269229999999993
21
-13.8153889999999997
0
LINE
8
BLACK
6
CONTINUOUS
10
-103.7269229999999993
20
-13.8153889999999997
11
-103.8120309999999904
21
-13.8630509999999987
0
LINE
8
BLACK
6
CONTINUOUS
10
-103.8120309999999904
20
-13.8630509999999987
11
-103.9088999999999885
21
-13.8745159999999998
0
LINE
8
BLACK
6
CONTINUOUS
10
-103.9088999999999885
20
-13.8745159999999998
11
-105.4042759999999959
21
-13.7568279999999987
0
LINE
8
BLACK
6
CONTINUOUS
10
-105.4042759999999959
20
-13.7568279999999987
11
-105.4981590000000011
21
-13.7303499999999996
0
LINE
8
BLACK
6
CONTINUOUS
10
-105.4981590000000011
20
-13.7303499999999996
11
-105.5747629999999901
21
-13.6699609999999989
0
LINE
8
BLACK
6
CONTINUOUS
10
-105.5747629999999901
20
-13.6699609999999989
11
-105.6224249999999927
21
-13.584852999999999
0
LINE
8
BLACK
6
CONTINUOUS
10
-105.6224249999999927
20
-13.584852999999999
11
-105.6338899999999938
21
-13.4879839999999991
0
LINE
8
BLACK
6
CONTINUOUS
10
-105.6338899999999938
20
-13.4879839999999991
11
-105.5515079999999983
21
-12.4412199999999995
0
LINE
8
BLACK
6
CONTINUOUS
10
-105.5515079999999983
20
-12.4412199999999995
11
-105.5250309999999985
21
-12.3473369999999996
0
LINE
8
BLACK
6
CONTINUOUS
10
-105.5250309999999985
20
-12.3473369999999996
11
-105.4646410000000003
21
-12.2707329999999999
0
LINE
8
BLACK
6
CONTINUOUS
10
-105.4646410000000003
20
-12.2707329999999999
11
-105.379532999999995
21
-12.2230709999999991
0
LINE
8
BLACK
6
CONTINUOUS
10
-105.379532999999995
20
-12.2230709999999991
11
-105.2826639999999969
21
-12.2116059999999997
0
LINE
8
BLACK
6
CONTINUOUS
10
-105.2826639999999969
20
-12.2116059999999997
11
-103.7872879999999896
21
-12.3292939999999991
0
LINE
8
BLACK
6
CONTINUOUS
10
35.379532999999995
20
-12.2230709999999991
11
35.4646410000000003
21
-12.2707329999999999
0
LINE
8
BLACK
6
CONTINUOUS
10
35.4646410000000003
20
-12.2707329999999999
11
35.5250309999999985
21
-12.3473369999999996
0
LINE
8
BLACK
6
CONTINUOUS
10
35.5250309999999985
20
-12.3473369999999996
11
35.5515079999999983
21
-12.4412199999999995
0
LINE
8
BLACK
6
CONTINUOUS
10
35.5515079999999983
20
-12.4412199999999995
11
35.633890000000001
21
-13.4879839999999991
0
LINE
8
BLACK
6
CONTINUOUS
10
35.633890000000001
20
-13.4879839999999991
11
35.6224249999999998
21
-13.584852999999999
0
LINE
8
BLACK
6
CONTINUOUS
10
35.6224249999999998
20
-13.584852999999999
11
35.5747629999999972
21
-13.6699609999999989
0
LINE
8
BLACK
6
CONTINUOUS
10
35.5747629999999972
20
-13.6699609999999989
11
35.4981590000000011
21
-13.7303499999999996
0
LINE
8
BLACK
6
CONTINUOUS
10
35.4981590000000011
20
-13.7303499999999996
11
35.4042759999999959
21
-13.7568279999999987
0
LINE
8
BLACK
6
CONTINUOUS
10
35.4042759999999959
20
-13.7568279999999987
11
33.9088999999999956
21
-13.8745159999999998
0
LINE
8
BLACK
6
CONTINUOUS
10
33.9088999999999956
20
-13.8745159999999998
11
33.8120309999999975
21
-13.8630509999999987
0
LINE
8
BLACK
6
CONTINUOUS
10
33.8120309999999975
20
-13.8630509999999987
11
33.7269229999999993
21
-13.8153889999999997
0
LINE
8
BLACK
6
CONTINUOUS
10
33.7269229999999993
20
-13.8153889999999997
11
33.6665330000000012
21
-13.738785
0
LINE
8
BLACK
6
CONTINUOUS
10
33.6665330000000012
20
-13.738785
11
33.6400560000000013
21
-13.6449020000000001
0
LINE
8
BLACK
6
CONTINUOUS
10
33.6400560000000013
20
-13.6449020000000001
11
33.5576739999999987
21
-12.5981379999999987
0
LINE
8
BLACK
6
CONTINUOUS
10
33.5576739999999987
20
-12.5981379999999987
11
33.5691389999999998
21
-12.5012689999999989
0
LINE
8
BLACK
6
CONTINUOUS
10
33.5691389999999998
20
-12.5012689999999989
11
33.6168009999999953
21
-12.4161609999999989
0
LINE
8
BLACK
6
CONTINUOUS
10
33.6168009999999953
20
-12.4161609999999989
11
33.6934049999999985
21
-12.355772
0
LINE
8
BLACK
6
CONTINUOUS
10
33.6934049999999985
20
-12.355772
11
33.7872879999999967
21
-12.3292939999999991
0
LINE
8
BLACK
6
CONTINUOUS
10
33.7872879999999967
20
-12.3292939999999991
11
35.2826639999999969
21
-12.2116059999999997
0
LINE
8
BLACK
6
CONTINUOUS
10
35.2826639999999969
20
-12.2116059999999997
11
35.379532999999995
21
-12.2230709999999991
0
LINE
8
BLACK
6
CONTINUOUS
10
-121.9112449999999939
20
-10.902908
11
-121.8173619999999886
21
-10.9293859999999992
0
LINE
8
BLACK
6
CONTINUOUS
10
-121.8173619999999886
20
-10.9293859999999992
11
-121.7407579999999996
21
-10.9897749999999998
0
LINE
8
BLACK
6
CONTINUOUS
10
-121.7407579999999996
20
-10.9897749999999998
11
-121.693095999999997
21
-11.0748829999999998
0
LINE
8
BLACK
6
CONTINUOUS
10
-121.693095999999997
20
-11.0748829999999998
11
-121.6816309999999959
21
-11.1717519999999997
0
LINE
8
BLACK
6
CONTINUOUS
10
-121.6816309999999959
20
-11.1717519999999997
11
-121.7640129999999914
21
-12.2185159999999993
0
LINE
8
BLACK
6
CONTINUOUS
10
-121.7640129999999914
20
-12.2185159999999993
11
-121.7904899999999913
21
-12.3123989999999992
0
LINE
8
BLACK
6
CONTINUOUS
10
-121.7904899999999913
20
-12.3123989999999992
11
-121.8508799999999894
21
-12.3890029999999989
0
LINE
8
BLACK
6
CONTINUOUS
10
-121.8508799999999894
20
-12.3890029999999989
11
-121.9359879999999947
21
-12.4366649999999996
0
LINE
8
BLACK
6
CONTINUOUS
10
-121.9359879999999947
20
-12.4366649999999996
11
-122.0328569999999928
21
-12.448129999999999
0
LINE
8
BLACK
6
CONTINUOUS
10
-122.0328569999999928
20
-12.448129999999999
11
-123.5282330000000002
21
-12.3304419999999997
0
LINE
8
BLACK
6
CONTINUOUS
10
-123.5282330000000002
20
-12.3304419999999997
11
-123.6221159999999912
21
-12.3039639999999988
0
LINE
8
BLACK
6
CONTINUOUS
10
-123.6221159999999912
20
-12.3039639999999988
11
-123.6987199999999945
21
-12.2435749999999999
0
LINE
8
BLACK
6
CONTINUOUS
10
-123.6987199999999945
20
-12.2435749999999999
11
-123.746381999999997
21
-12.1584669999999999
0
LINE
8
BLACK
6
CONTINUOUS
10
-123.746381999999997
20
-12.1584669999999999
11
-123.7578469999999982
21
-12.061598
0
LINE
8
BLACK
6
CONTINUOUS
10
-123.7578469999999982
20
-12.061598
11
-123.6754649999999884
21
-11.0148339999999987
0
LINE
8
BLACK
6
CONTINUOUS
10
-123.6754649999999884
20
-11.0148339999999987
11
-123.6489879999999886
21
-10.9209509999999987
0
LINE
8
BLACK
6
CONTINUOUS
10
-123.6489879999999886
20
-10.9209509999999987
11
-123.5885979999999904
21
-10.8443469999999991
0
LINE
8
BLACK
6
CONTINUOUS
10
-123.5885979999999904
20
-10.8443469999999991
11
-123.5034899999999993
21
-10.7966850000000001
0
LINE
8
BLACK
6
CONTINUOUS
10
-123.5034899999999993
20
-10.7966850000000001
11
-123.4066210000000012
21
-10.7852199999999989
0
LINE
8
BLACK
6
CONTINUOUS
10
-123.4066210000000012
20
-10.7852199999999989
11
-121.9112449999999939
21
-10.902908
0
LINE
8
BLACK
6
CONTINUOUS
10
53.5034899999999993
20
-10.7966850000000001
11
53.5885979999999975
21
-10.8443469999999991
0
LINE
8
BLACK
6
CONTINUOUS
10
53.5885979999999975
20
-10.8443469999999991
11
53.6489879999999957
21
-10.9209509999999987
0
LINE
8
BLACK
6
CONTINUOUS
10
53.6489879999999957
20
-10.9209509999999987
11
53.6754649999999955
21
-11.0148339999999987
0
LINE
8
BLACK
6
CONTINUOUS
10
53.6754649999999955
20
-11.0148339999999987
11
53.7578469999999982
21
-12.061598
0
LINE
8
BLACK
6
CONTINUOUS
10
53.7578469999999982
20
-12.061598
11
53.746381999999997
21
-12.1584669999999999
0
LINE
8
BLACK
6
CONTINUOUS
10
53.746381999999997
20
-12.1584669999999999
11
53.6987199999999945
21
-12.2435749999999999
0
LINE
8
BLACK
6
CONTINUOUS
10
53.6987199999999945
20
-12.2435749999999999
11
53.6221159999999983
21
-12.3039639999999988
0
LINE
8
BLACK
6
CONTINUOUS
10
53.6221159999999983
20
-12.3039639999999988
11
53.5282330000000002
21
-12.3304419999999997
0
LINE
8
BLACK
6
CONTINUOUS
10
53.5282330000000002
20
-12.3304419999999997
11
52.0328569999999999
21
-12.448129999999999
0
LINE
8
BLACK
6
CONTINUOUS
10
52.0328569999999999
20
-12.448129999999999
11
51.9359879999999947
21
-12.4366649999999996
0
LINE
8
BLACK
6
CONTINUOUS
10
51.9359879999999947
20
-12.4366649999999996
11
51.8508799999999965
21
-12.3890029999999989
0
LINE
8
BLACK
6
CONTINUOUS
10
51.8508799999999965
20
-12.3890029999999989
11
51.7904899999999984
21
-12.3123989999999992
0
LINE
8
BLACK
6
CONTINUOUS
10
51.7904899999999984
20
-12.3123989999999992
11
51.7640129999999985
21
-12.2185159999999993
0
LINE
8
BLACK
6
CONTINUOUS
10
51.7640129999999985
20
-12.2185159999999993
11
51.6816309999999959
21
-11.1717519999999997
0
LINE
8
BLACK
6
CONTINUOUS
10
51.6816309999999959
20
-11.1717519999999997
11
51.693095999999997
21
-11.0748829999999998
0
LINE
8
BLACK
6
CONTINUOUS
10
51.693095999999997
20
-11.0748829999999998
11
51.7407579999999996
21
-10.9897749999999998
0
LINE
8
BLACK
6
CONTINUOUS
10
51.7407579999999996
20
-10.9897749999999998
11
51.8173619999999957
21
-10.9293859999999992
0
LINE
8
BLACK
6
CONTINUOUS
10
51.8173619999999957
20
-10.9293859999999992
11
51.911245000000001
21
-10.902908
0
LINE
8
BLACK
6
CONTINUOUS
10
51.911245000000001
20
-10.902908
11
53.4066209999999941
21
-10.7852199999999989
0
LINE
8
BLACK
6
CONTINUOUS
10
53.4066209999999941
20
-10.7852199999999989
11
53.5034899999999993
21
-10.7966850000000001
0
LINE
8
BLACK
6
CONTINUOUS
10
-109.1524959999999993
20
1.989792
11
-108.9629639999999995
21
1.9282089999999998
0
LINE
8
BLACK
6
CONTINUOUS
10
-108.9629639999999995
20
1.9282089999999998
11
-108.7853989999999982
21
1.8377349999999999
0
LINE
8
BLACK
6
CONTINUOUS
10
-108.7853989999999982
20
1.8377349999999999
11
-108.624172999999999
21
1.7205979999999998
0
LINE
8
BLACK
6
CONTINUOUS
10
-108.624172999999999
20
1.7205979999999998
11
-108.4832559999999972
21
1.5796809999999999
0
LINE
8
BLACK
6
CONTINUOUS
10
-108.4832559999999972
20
1.5796809999999999
11
-108.3661189999999976
21
1.418455
0
LINE
8
BLACK
6
CONTINUOUS
10
-108.3661189999999976
20
1.418455
11
-108.2756449999999973
21
1.24089
0
LINE
8
BLACK
6
CONTINUOUS
10
-108.2756449999999973
20
1.24089
11
-108.2140619999999984
21
1.051358
0
LINE
8
BLACK
6
CONTINUOUS
10
-108.2140619999999984
20
1.051358
11
-108.1828869999999938
21
0.854525
0
LINE
8
BLACK
6
CONTINUOUS
10
-108.1828869999999938
20
0.854525
11
-108.1828869999999938
21
0.655239
0
LINE
8
BLACK
6
CONTINUOUS
10
-108.1828869999999938
20
0.655239
11
-108.2140619999999984
21
0.458406
0
LINE
8
BLACK
6
CONTINUOUS
10
-108.2140619999999984
20
0.458406
11
-108.2756449999999973
21
0.268874
0
LINE
8
BLACK
6
CONTINUOUS
10
-108.2756449999999973
20
0.268874
11
-108.3661189999999976
21
0.091309
0
LINE
8
BLACK
6
CONTINUOUS
10
-108.3661189999999976
20
0.091309
11
-108.4832559999999972
21
-0.069917
0
LINE
8
BLACK
6
CONTINUOUS
10
-108.4832559999999972
20
-0.069917
11
-108.624172999999999
21
-0.210834
0
LINE
8
BLACK
6
CONTINUOUS
10
-108.624172999999999
20
-0.210834
11
-108.7853989999999982
21
-0.327971
0
LINE
8
BLACK
6
CONTINUOUS
10
-108.7853989999999982
20
-0.327971
11
-108.9629639999999995
21
-0.418445
0
LINE
8
BLACK
6
CONTINUOUS
10
-108.9629639999999995
20
-0.418445
11
-109.1524959999999993
21
-0.480028
0
LINE
8
BLACK
6
CONTINUOUS
10
-109.1524959999999993
20
-0.480028
11
-109.3493289999999973
21
-0.511203
0
LINE
8
BLACK
6
CONTINUOUS
10
-109.3493289999999973
20
-0.511203
11
-109.5486149999999981
21
-0.511203
0
LINE
8
BLACK
6
CONTINUOUS
10
-109.5486149999999981
20
-0.511203
11
-109.7454479999999961
21
-0.480028
0
LINE
8
BLACK
6
CONTINUOUS
10
-109.7454479999999961
20
-0.480028
11
-109.9349799999999959
21
-0.418445
0
LINE
8
BLACK
6
CONTINUOUS
10
-109.9349799999999959
20
-0.418445
11
-110.1125449999999972
21
-0.327971
0
LINE
8
BLACK
6
CONTINUOUS
10
-110.1125449999999972
20
-0.327971
11
-110.2737709999999964
21
-0.210834
0
LINE
8
BLACK
6
CONTINUOUS
10
-110.2737709999999964
20
-0.210834
11
-110.4146879999999982
21
-0.069917
0
LINE
8
BLACK
6
CONTINUOUS
10
-110.4146879999999982
20
-0.069917
11
-110.5318249999999978
21
0.091309
0
LINE
8
BLACK
6
CONTINUOUS
10
-110.5318249999999978
20
0.091309
11
-110.6222989999999982
21
0.268874
0
LINE
8
BLACK
6
CONTINUOUS
10
-110.6222989999999982
20
0.268874
11
-110.683881999999997
21
0.458406
0
LINE
8
BLACK
6
CONTINUOUS
10
-110.683881999999997
20
0.458406
11
-110.7150570000000016
21
0.655239
0
LINE
8
BLACK
6
CONTINUOUS
10
-110.7150570000000016
20
0.655239
11
-110.7150570000000016
21
0.854525
0
LINE
8
BLACK
6
CONTINUOUS
10
-110.7150570000000016
20
0.854525
11
-110.683881999999997
21
1.051358
0
LINE
8
BLACK
6
CONTINUOUS
10
-110.683881999999997
20
1.051358
11
-110.6222989999999982
21
1.24089
0
LINE
8
BLACK
6
CONTINUOUS
10
-110.6222989999999982
20
1.24089
11
-110.5318249999999978
21
1.418455
0
LINE
8
BLACK
6
CONTINUOUS
10
-110.5318249999999978
20
1.418455
11
-110.4146879999999982
21
1.5796809999999999
0
LINE
8
BLACK
6
CONTINUOUS
10
-110.4146879999999982
20
1.5796809999999999
11
-110.2737709999999964
21
1.7205979999999998
0
LINE
8
BLACK
6
CONTINUOUS
10
-110.2737709999999964
20
1.7205979999999998
11
-110.1125449999999972
21
1.8377349999999999
0
LINE
8
BLACK
6
CONTINUOUS
10
-110.1125449999999972
20
1.8377349999999999
11
-109.9349799999999959
21
1.9282089999999998
0
LINE
8
BLACK
6
CONTINUOUS
10
-109.9349799999999959
20
1.9282089999999998
11
-109.7454479999999961
21
1.989792
0
LINE
8
BLACK
6
CONTINUOUS
10
-109.7454479999999961
20
1.989792
11
-109.5486149999999981
21
2.0209669999999997
0
LINE
8
BLACK
6
CONTINUOUS
10
-109.5486149999999981
20
2.0209669999999997
11
-109.3493289999999973
21
2.0209669999999997
0
LINE
8
BLACK
6
CONTINUOUS
10
-109.3493289999999973
20
2.0209669999999997
11
-109.1524959999999993
21
1.989792
0
LINE
8
BLACK
6
CONTINUOUS
10
-103.1524959999999993
20
1.989792
11
-102.9629639999999995
21
1.9282089999999998
0
LINE
8
BLACK
6
CONTINUOUS
10
-102.9629639999999995
20
1.9282089999999998
11
-102.7853989999999982
21
1.8377349999999999
0
LINE
8
BLACK
6
CONTINUOUS
10
-102.7853989999999982
20
1.8377349999999999
11
-102.624172999999999
21
1.7205979999999998
0
LINE
8
BLACK
6
CONTINUOUS
10
-102.624172999999999
20
1.7205979999999998
11
-102.4832559999999972
21
1.5796809999999999
0
LINE
8
BLACK
6
CONTINUOUS
10
-102.4832559999999972
20
1.5796809999999999
11
-102.3661189999999976
21
1.418455
0
LINE
8
BLACK
6
CONTINUOUS
10
-102.3661189999999976
20
1.418455
11
-102.2756449999999973
21
1.24089
0
LINE
8
BLACK
6
CONTINUOUS
10
-102.2756449999999973
20
1.24089
11
-102.2140619999999984
21
1.051358
0
LINE
8
BLACK
6
CONTINUOUS
10
-102.2140619999999984
20
1.051358
11
-102.1828869999999938
21
0.854525
0
LINE
8
BLACK
6
CONTINUOUS
10
-102.1828869999999938
20
0.854525
11
-102.1828869999999938
21
0.655239
0
LINE
8
BLACK
6
CONTINUOUS
10
-102.1828869999999938
20
0.655239
11
-102.2140619999999984
21
0.458406
0
LINE
8
BLACK
6
CONTINUOUS
10
-102.2140619999999984
20
0.458406
11
-102.2756449999999973
21
0.268874
0
LINE
8
BLACK
6
CONTINUOUS
10
-102.2756449999999973
20
0.268874
11
-102.3661189999999976
21
0.091309
0
LINE
8
BLACK
6
CONTINUOUS
10
-102.3661189999999976
20
0.091309
11
-102.4832559999999972
21
-0.069917
0
LINE
8
BLACK
6
CONTINUOUS
10
-102.4832559999999972
20
-0.069917
11
-102.624172999999999
21
-0.210834
0
LINE
8
BLACK
6
CONTINUOUS
10
-102.624172999999999
20
-0.210834
11
-102.7853989999999982
21
-0.327971
0
LINE
8
BLACK
6
CONTINUOUS
10
-102.7853989999999982
20
-0.327971
11
-102.9629639999999995
21
-0.418445
0
LINE
8
BLACK
6
CONTINUOUS
10
-102.9629639999999995
20
-0.418445
11
-103.1524959999999993
21
-0.480028
0
LINE
8
BLACK
6
CONTINUOUS
10
-103.1524959999999993
20
-0.480028
11
-103.3493289999999973
21
-0.511203
0
LINE
8
BLACK
6
CONTINUOUS
10
-103.3493289999999973
20
-0.511203
11
-103.5486149999999981
21
-0.511203
0
LINE
8
BLACK
6
CONTINUOUS
10
-103.5486149999999981
20
-0.511203
11
-103.7454479999999961
21
-0.480028
0
LINE
8
BLACK
6
CONTINUOUS
10
-103.7454479999999961
20
-0.480028
11
-103.9349799999999959
21
-0.418445
0
LINE
8
BLACK
6
CONTINUOUS
10
-103.9349799999999959
20
-0.418445
11
-104.1125449999999972
21
-0.327971
0
LINE
8
BLACK
6
CONTINUOUS
10
-104.1125449999999972
20
-0.327971
11
-104.2737709999999964
21
-0.210834
0
LINE
8
BLACK
6
CONTINUOUS
10
-104.2737709999999964
20
-0.210834
11
-104.4146879999999982
21
-0.069917
0
LINE
8
BLACK
6
CONTINUOUS
10
-104.4146879999999982
20
-0.069917
11
-104.5318249999999978
21
0.091309
0
LINE
8
BLACK
6
CONTINUOUS
10
-104.5318249999999978
20
0.091309
11
-104.6222989999999982
21
0.268874
0
LINE
8
BLACK
6
CONTINUOUS
10
-104.6222989999999982
20
0.268874
11
-104.683881999999997
21
0.458406
0
LINE
8
BLACK
6
CONTINUOUS
10
-104.683881999999997
20
0.458406
11
-104.7150570000000016
21
0.655239
0
LINE
8
BLACK
6
CONTINUOUS
10
-104.7150570000000016
20
0.655239
11
-104.7150570000000016
21
0.854525
0
LINE
8
BLACK
6
CONTINUOUS
10
-104.7150570000000016
20
0.854525
11
-104.683881999999997
21
1.051358
0
LINE
8
BLACK
6
CONTINUOUS
10
-104.683881999999997
20
1.051358
11
-104.6222989999999982
21
1.24089
0
LINE
8
BLACK
6
CONTINUOUS
10
-104.6222989999999982
20
1.24089
11
-104.5318249999999978
21
1.418455
0
LINE
8
BLACK
6
CONTINUOUS
10
-104.5318249999999978
20
1.418455
11
-104.4146879999999982
21
1.5796809999999999
0
LINE
8
BLACK
6
CONTINUOUS
10
-104.4146879999999982
20
1.5796809999999999
11
-104.2737709999999964
21
1.7205979999999998
0
LINE
8
BLACK
6
CONTINUOUS
10
-104.2737709999999964
20
1.7205979999999998
11
-104.1125449999999972
21
1.8377349999999999
0
LINE
8
BLACK
6
CONTINUOUS
10
-104.1125449999999972
20
1.8377349999999999
11
-103.9349799999999959
21
1.9282089999999998
0
LINE
8
BLACK
6
CONTINUOUS
10
-103.9349799999999959
20
1.9282089999999998
11
-103.7454479999999961
21
1.989792
0
LINE
8
BLACK
6
CONTINUOUS
10
-103.7454479999999961
20
1.989792
11
-103.5486149999999981
21
2.0209669999999997
0
LINE
8
BLACK
6
CONTINUOUS
10
-103.5486149999999981
20
2.0209669999999997
11
-103.3493289999999973
21
2.0209669999999997
0
LINE
8
BLACK
6
CONTINUOUS
10
-103.3493289999999973
20
2.0209669999999997
11
-103.1524959999999993
21
1.989792
0
LINE
8
BLACK
6
CONTINUOUS
10
33.7454479999999961
20
1.989792
11
33.9349799999999959
21
1.9282089999999998
0
LINE
8
BLACK
6
CONTINUOUS
10
33.9349799999999959
20
1.9282089999999998
11
34.1125449999999972
21
1.8377349999999999
0
LINE
8
BLACK
6
CONTINUOUS
10
34.1125449999999972
20
1.8377349999999999
11
34.2737709999999964
21
1.7205979999999998
0
LINE
8
BLACK
6
CONTINUOUS
10
34.2737709999999964
20
1.7205979999999998
11
34.4146879999999982
21
1.5796809999999999
0
LINE
8
BLACK
6
CONTINUOUS
10
34.4146879999999982
20
1.5796809999999999
11
34.5318249999999978
21
1.418455
0
LINE
8
BLACK
6
CONTINUOUS
10
34.5318249999999978
20
1.418455
11
34.6222989999999982
21
1.24089
0
LINE
8
BLACK
6
CONTINUOUS
10
34.6222989999999982
20
1.24089
11
34.683881999999997
21
1.051358
0
LINE
8
BLACK
6
CONTINUOUS
10
34.683881999999997
20
1.051358
11
34.7150570000000016
21
0.854525
0
LINE
8
BLACK
6
CONTINUOUS
10
34.7150570000000016
20
0.854525
11
34.7150570000000016
21
0.655239
0
LINE
8
BLACK
6
CONTINUOUS
10
34.7150570000000016
20
0.655239
11
34.683881999999997
21
0.458406
0
LINE
8
BLACK
6
CONTINUOUS
10
34.683881999999997
20
0.458406
11
34.6222989999999982
21
0.268874
0
LINE
8
BLACK
6
CONTINUOUS
10
34.6222989999999982
20
0.268874
11
34.5318249999999978
21
0.091309
0
LINE
8
BLACK
6
CONTINUOUS
10
34.5318249999999978
20
0.091309
11
34.4146879999999982
21
-0.069917
0
LINE
8
BLACK
6
CONTINUOUS
10
34.4146879999999982
20
-0.069917
11
34.2737709999999964
21
-0.210834
0
LINE
8
BLACK
6
CONTINUOUS
10
34.2737709999999964
20
-0.210834
11
34.1125449999999972
21
-0.327971
0
LINE
8
BLACK
6
CONTINUOUS
10
34.1125449999999972
20
-0.327971
11
33.9349799999999959
21
-0.418445
0
LINE
8
BLACK
6
CONTINUOUS
10
33.9349799999999959
20
-0.418445
11
33.7454479999999961
21
-0.480028
0
LINE
8
BLACK
6
CONTINUOUS
10
33.7454479999999961
20
-0.480028
11
33.5486149999999981
21
-0.511203
0
LINE
8
BLACK
6
CONTINUOUS
10
33.5486149999999981
20
-0.511203
11
33.3493289999999973
21
-0.511203
0
LINE
8
BLACK
6
CONTINUOUS
10
33.3493289999999973
20
-0.511203
11
33.1524959999999993
21
-0.480028
0
LINE
8
BLACK
6
CONTINUOUS
10
33.1524959999999993
20
-0.480028
11
32.9629639999999995
21
-0.418445
0
LINE
8
BLACK
6
CONTINUOUS
10
32.9629639999999995
20
-0.418445
11
32.7853989999999982
21
-0.327971
0
LINE
8
BLACK
6
CONTINUOUS
10
32.7853989999999982
20
-0.327971
11
32.624172999999999
21
-0.210834
0
LINE
8
BLACK
6
CONTINUOUS
10
32.624172999999999
20
-0.210834
11
32.4832559999999972
21
-0.069917
0
LINE
8
BLACK
6
CONTINUOUS
10
32.4832559999999972
20
-0.069917
11
32.3661189999999976
21
0.091309
0
LINE
8
BLACK
6
CONTINUOUS
10
32.3661189999999976
20
0.091309
11
32.2756449999999973
21
0.268874
0
LINE
8
BLACK
6
CONTINUOUS
10
32.2756449999999973
20
0.268874
11
32.2140619999999984
21
0.458406
0
LINE
8
BLACK
6
CONTINUOUS
10
32.2140619999999984
20
0.458406
11
32.1828870000000009
21
0.655239
0
LINE
8
BLACK
6
CONTINUOUS
10
32.1828870000000009
20
0.655239
11
32.1828870000000009
21
0.854525
0
LINE
8
BLACK
6
CONTINUOUS
10
32.1828870000000009
20
0.854525
11
32.2140619999999984
21
1.051358
0
LINE
8
BLACK
6
CONTINUOUS
10
32.2140619999999984
20
1.051358
11
32.2756449999999973
21
1.24089
0
LINE
8
BLACK
6
CONTINUOUS
10
32.2756449999999973
20
1.24089
11
32.3661189999999976
21
1.418455
0
LINE
8
BLACK
6
CONTINUOUS
10
32.3661189999999976
20
1.418455
11
32.4832559999999972
21
1.5796809999999999
0
LINE
8
BLACK
6
CONTINUOUS
10
32.4832559999999972
20
1.5796809999999999
11
32.624172999999999
21
1.7205979999999998
0
LINE
8
BLACK
6
CONTINUOUS
10
32.624172999999999
20
1.7205979999999998
11
32.7853989999999982
21
1.8377349999999999
0
LINE
8
BLACK
6
CONTINUOUS
10
32.7853989999999982
20
1.8377349999999999
11
32.9629639999999995
21
1.9282089999999998
0
LINE
8
BLACK
6
CONTINUOUS
10
32.9629639999999995
20
1.9282089999999998
11
33.1524959999999993
21
1.989792
0
LINE
8
BLACK
6
CONTINUOUS
10
33.1524959999999993
20
1.989792
11
33.3493289999999973
21
2.0209669999999997
0
LINE
8
BLACK
6
CONTINUOUS
10
33.3493289999999973
20
2.0209669999999997
11
33.5486149999999981
21
2.0209669999999997
0
LINE
8
BLACK
6
CONTINUOUS
10
33.5486149999999981
20
2.0209669999999997
11
33.7454479999999961
21
1.989792
0
LINE
8
BLACK
6
CONTINUOUS
10
39.7454479999999961
20
1.989792
11
39.9349799999999959
21
1.9282089999999998
0
LINE
8
BLACK
6
CONTINUOUS
10
39.9349799999999959
20
1.9282089999999998
11
40.1125449999999972
21
1.8377349999999999
0
LINE
8
BLACK
6
CONTINUOUS
10
40.1125449999999972
20
1.8377349999999999
11
40.2737709999999964
21
1.7205979999999998
0
LINE
8
BLACK
6
CONTINUOUS
10
40.2737709999999964
20
1.7205979999999998
11
40.4146879999999982
21
1.5796809999999999
0
LINE
8
BLACK
6
CONTINUOUS
10
40.4146879999999982
20
1.5796809999999999
11
40.5318249999999978
21
1.418455
0
LINE
8
BLACK
6
CONTINUOUS
10
40.5318249999999978
20
1.418455
11
40.6222989999999982
21
1.24089
0
LINE
8
BLACK
6
CONTINUOUS
10
40.6222989999999982
20
1.24089
11
40.683881999999997
21
1.051358
0
LINE
8
BLACK
6
CONTINUOUS
10
40.683881999999997
20
1.051358
11
40.7150570000000016
21
0.854525
0
LINE
8
BLACK
6
CONTINUOUS
10
40.7150570000000016
20
0.854525
11
40.7150570000000016
21
0.655239
0
LINE
8
BLACK
6
CONTINUOUS
10
40.7150570000000016
20
0.655239
11
40.683881999999997
21
0.458406
0
LINE
8
BLACK
6
CONTINUOUS
10
40.683881999999997
20
0.458406
11
40.6222989999999982
21
0.268874
0
LINE
8
BLACK
6
CONTINUOUS
10
40.6222989999999982
20
0.268874
11
40.5318249999999978
21
0.091309
0
LINE
8
BLACK
6
CONTINUOUS
10
40.5318249999999978
20
0.091309
11
40.4146879999999982
21
-0.069917
0
LINE
8
BLACK
6
CONTINUOUS
10
40.4146879999999982
20
-0.069917
11
40.2737709999999964
21
-0.210834
0
LINE
8
BLACK
6
CONTINUOUS
10
40.2737709999999964
20
-0.210834
11
40.1125449999999972
21
-0.327971
0
LINE
8
BLACK
6
CONTINUOUS
10
40.1125449999999972
20
-0.327971
11
39.9349799999999959
21
-0.418445
0
LINE
8
BLACK
6
CONTINUOUS
10
39.9349799999999959
20
-0.418445
11
39.7454479999999961
21
-0.480028
0
LINE
8
BLACK
6
CONTINUOUS
10
39.7454479999999961
20
-0.480028
11
39.5486149999999981
21
-0.511203
0
LINE
8
BLACK
6
CONTINUOUS
10
39.5486149999999981
20
-0.511203
11
39.3493289999999973
21
-0.511203
0
LINE
8
BLACK
6
CONTINUOUS
10
39.3493289999999973
20
-0.511203
11
39.1524959999999993
21
-0.480028
0
LINE
8
BLACK
6
CONTINUOUS
10
39.1524959999999993
20
-0.480028
11
38.9629639999999995
21
-0.418445
0
LINE
8
BLACK
6
CONTINUOUS
10
38.9629639999999995
20
-0.418445
11
38.7853989999999982
21
-0.327971
0
LINE
8
BLACK
6
CONTINUOUS
10
38.7853989999999982
20
-0.327971
11
38.624172999999999
21
-0.210834
0
LINE
8
BLACK
6
CONTINUOUS
10
38.624172999999999
20
-0.210834
11
38.4832559999999972
21
-0.069917
0
LINE
8
BLACK
6
CONTINUOUS
10
38.4832559999999972
20
-0.069917
11
38.3661189999999976
21
0.091309
0
LINE
8
BLACK
6
CONTINUOUS
10
38.3661189999999976
20
0.091309
11
38.2756449999999973
21
0.268874
0
LINE
8
BLACK
6
CONTINUOUS
10
38.2756449999999973
20
0.268874
11
38.2140619999999984
21
0.458406
0
LINE
8
BLACK
6
CONTINUOUS
10
38.2140619999999984
20
0.458406
11
38.1828870000000009
21
0.655239
0
LINE
8
BLACK
6
CONTINUOUS
10
38.1828870000000009
20
0.655239
11
38.1828870000000009
21
0.854525
0
LINE
8
BLACK
6
CONTINUOUS
10
38.1828870000000009
20
0.854525
11
38.2140619999999984
21
1.051358
0
LINE
8
BLACK
6
CONTINUOUS
10
38.2140619999999984
20
1.051358
11
38.2756449999999973
21
1.24089
0
LINE
8
BLACK
6
CONTINUOUS
10
38.2756449999999973
20
1.24089
11
38.3661189999999976
21
1.418455
0
LINE
8
BLACK
6
CONTINUOUS
10
38.3661189999999976
20
1.418455
11
38.4832559999999972
21
1.5796809999999999
0
LINE
8
BLACK
6
CONTINUOUS
10
38.4832559999999972
20
1.5796809999999999
11
38.624172999999999
21
1.7205979999999998
0
LINE
8
BLACK
6
CONTINUOUS
10
38.624172999999999
20
1.7205979999999998
11
38.7853989999999982
21
1.8377349999999999
0
LINE
8
BLACK
6
CONTINUOUS
10
38.7853989999999982
20
1.8377349999999999
11
38.9629639999999995
21
1.9282089999999998
0
LINE
8
BLACK
6
CONTINUOUS
10
38.9629639999999995
20
1.9282089999999998
11
39.1524959999999993
21
1.989792
0
LINE
8
BLACK
6
CONTINUOUS
10
39.1524959999999993
20
1.989792
11
39.3493289999999973
21
2.0209669999999997
0
LINE
8
BLACK
6
CONTINUOUS
10
39.3493289999999973
20
2.0209669999999997
11
39.5486149999999981
21
2.0209669999999997
0
LINE
8
BLACK
6
CONTINUOUS
10
39.5486149999999981
20
2.0209669999999997
11
39.7454479999999961
21
1.989792
  0
ENDSEC
  0
EOF
