  0
SECTION
  2
HEADER
  9
$ANGBASE
  50
0.0
  9
$ANGDIR
  70
1
  9
$MEASUREMENT
  70
0
  0
ENDSEC
  0
SECTION
  2
TABLES
  0
TABLE
  2
LTYPE
  70
4
  0
LTYPE
  5
40F
  2
CONTINUOUS
  70
0
  3
Solid line
  72
65
  73
0
  40
0.0
  0
LTYPE
  5
410
  2
DASHDOT
 70
0
  3
Dash Dot ____ _ ____ _
 72
65
 73
4
 40
2.0
 49
1.25
 49
-0.25
 49
0.25
 49
-0.25
  0
LTYPE
  5
411
  2
DASHED
 70
0
  3
Dashed __ __ __ __ __
 72
65
 73
2
 40
0.75
 49
0.5
 49
-0.25
  0
LTYPE
  5
43B
  2
DOTTED
 70
0
  3
Dotted .  .  .  .
 72
65
 73
2
 40
0.2
 49
0.0
 49
-0.2
  0
ENDTAB
  0
TABLE
  2
STYLE
  70
4
  0
STYLE
  2
KICAD
  70
0
  40
0
  41
1
  42
1
  50
0
  71
0
  3
isocp.shx
  0
STYLE
  2
KICADB
  70
0
  40
0
  41
1
  42
1
  50
0
  71
0
  3
isocp.shx
  0
STYLE
  2
KICADI
  70
0
  40
0
  41
1
  42
1
  50
15
  71
0
  3
isocp.shx
  0
STYLE
  2
KICADBI
  70
0
  40
0
  41
1
  42
1
  50
15
  71
0
  3
isocp.shx
  0
ENDTAB
  0
TABLE
  2
LAYER
  70
1
  0
LAYER
  2
BLACK
  70
0
  62
7
  6
CONTINUOUS
  0
ENDTAB
  0
ENDSEC
  0
SECTION
  2
ENTITIES
0
LINE
8
BLACK
6
CONTINUOUS
10
7.3562166535433073
20
-7.1056200787401576
11
7.3565769685039371
21
-7.1057529921259839
0
LINE
8
BLACK
6
CONTINUOUS
10
7.3565769685039371
20
-7.1057529921259839
11
7.3570197637795278
21
-7.1063624409448813
0
LINE
8
BLACK
6
CONTINUOUS
10
7.3570197637795278
20
-7.1063624409448813
11
7.3570197244094491
21
-7.1063626377952751
0
LINE
8
BLACK
6
CONTINUOUS
10
7.3570197244094491
20
-7.1063626377952751
11
7.357034803149606
21
-7.1067461811023618
0
LINE
8
BLACK
6
CONTINUOUS
10
7.357034803149606
20
-7.1067461811023618
11
7.2615728346456692
21
-7.7094694094488183
0
LINE
8
BLACK
6
CONTINUOUS
10
7.2615728346456692
20
-7.7094694094488183
11
7.2614399212598419
21
-7.7098296850393702
0
LINE
8
BLACK
6
CONTINUOUS
10
7.2614399212598419
20
-7.7098296850393702
11
7.2608304724409445
21
-7.71027248031496
0
LINE
8
BLACK
6
CONTINUOUS
10
7.2608304724409445
20
-7.71027248031496
11
7.260446732283464
21
-7.7102875590551179
0
LINE
8
BLACK
6
CONTINUOUS
10
7.260446732283464
20
-7.7102875590551179
11
6.6577235039370075
21
-7.614825590551181
0
LINE
8
BLACK
6
CONTINUOUS
10
6.6577235039370075
20
-7.614825590551181
11
6.6573632283464566
21
-7.6146926771653538
0
LINE
8
BLACK
6
CONTINUOUS
10
6.6573632283464566
20
-7.6146926771653538
11
6.6569204330708658
21
-7.6140832283464563
0
LINE
8
BLACK
6
CONTINUOUS
10
6.6569204330708658
20
-7.6140832283464563
11
6.6569053543307088
21
-7.6136994881889759
0
LINE
8
BLACK
6
CONTINUOUS
10
6.6569053543307088
20
-7.6136994881889759
11
6.7523673228346457
21
-7.0109762598425194
0
LINE
8
BLACK
6
CONTINUOUS
10
6.7523673228346457
20
-7.0109762598425194
11
6.752500236220472
21
-7.0106159448818897
0
LINE
8
BLACK
6
CONTINUOUS
10
6.752500236220472
20
-7.0106159448818897
11
6.7531096850393704
21
-7.0101731496062989
0
LINE
8
BLACK
6
CONTINUOUS
10
6.7531096850393704
20
-7.0101731496062989
11
6.7531098818897632
21
-7.0101731496062989
0
LINE
8
BLACK
6
CONTINUOUS
10
6.7531098818897632
20
-7.0101731496062989
11
6.7534934251968499
21
-7.0101581102362207
0
LINE
8
BLACK
6
CONTINUOUS
10
6.7534934251968499
20
-7.0101581102362207
11
7.3562166535433073
21
-7.1056200787401576
0
LINE
8
BLACK
6
CONTINUOUS
10
6.6590035433070867
20
-7.6130352755905513
11
7.2597825196850394
21
-7.7081893307086613
0
LINE
8
BLACK
6
CONTINUOUS
10
7.2597825196850394
20
-7.7081893307086613
11
7.3549365748031494
21
-7.1074103543307086
0
LINE
8
BLACK
6
CONTINUOUS
10
7.3549365748031494
20
-7.1074103543307086
11
6.7541575984251967
21
-7.0122562992125985
0
LINE
8
BLACK
6
CONTINUOUS
10
6.7541575984251967
20
-7.0122562992125985
11
6.6590035433070867
21
-7.6130352755905513
0
LINE
8
BLACK
6
CONTINUOUS
10
4.7424538976377955
20
-6.8124211417322833
11
4.7429865748031492
21
-6.812953818897638
0
LINE
8
BLACK
6
CONTINUOUS
10
4.7429865748031492
20
-6.812953818897638
11
4.7430614960629924
21
-6.8133304724409447
0
LINE
8
BLACK
6
CONTINUOUS
10
4.7430614960629924
20
-6.8133304724409447
11
4.7430614960629924
21
-7.6381336220472438
0
LINE
8
BLACK
6
CONTINUOUS
10
4.7430614960629924
20
-7.6381336220472438
11
4.7429865748031492
21
-7.6385102755905514
0
LINE
8
BLACK
6
CONTINUOUS
10
4.7429865748031492
20
-7.6385102755905514
11
4.7424538976377955
21
-7.6390429527559052
0
LINE
8
BLACK
6
CONTINUOUS
10
4.7424538976377955
20
-7.6390429527559052
11
4.7420772440944878
21
-7.6391178740157475
0
LINE
8
BLACK
6
CONTINUOUS
10
4.7420772440944878
20
-7.6391178740157475
11
4.041289842519685
21
-7.6391178740157475
0
LINE
8
BLACK
6
CONTINUOUS
10
4.041289842519685
20
-7.6391178740157475
11
4.0409131889763783
21
-7.6390429527559052
0
LINE
8
BLACK
6
CONTINUOUS
10
4.0409131889763783
20
-7.6390429527559052
11
4.0403805118110236
21
-7.6385102755905514
0
LINE
8
BLACK
6
CONTINUOUS
10
4.0403805118110236
20
-7.6385102755905514
11
4.0403055905511813
21
-7.6381336220472438
0
LINE
8
BLACK
6
CONTINUOUS
10
4.0403055905511813
20
-7.6381336220472438
11
4.0403055905511813
21
-6.8133304724409447
0
LINE
8
BLACK
6
CONTINUOUS
10
4.0403055905511813
20
-6.8133304724409447
11
4.0403805118110236
21
-6.812953818897638
0
LINE
8
BLACK
6
CONTINUOUS
10
4.0403805118110236
20
-6.812953818897638
11
4.0409131889763783
21
-6.8124211417322833
0
LINE
8
BLACK
6
CONTINUOUS
10
4.0409131889763783
20
-6.8124211417322833
11
4.041289842519685
21
-6.812346220472441
0
LINE
8
BLACK
6
CONTINUOUS
10
4.041289842519685
20
-6.812346220472441
11
4.7420772440944878
21
-6.812346220472441
0
LINE
8
BLACK
6
CONTINUOUS
10
4.7420772440944878
20
-6.812346220472441
11
4.7424538976377955
21
-6.8124211417322833
0
LINE
8
BLACK
6
CONTINUOUS
10
4.0422740944881888
20
-6.8143147244094484
11
4.0422740944881888
21
-7.6371493700787401
0
LINE
8
BLACK
6
CONTINUOUS
10
4.0422740944881888
20
-7.6371493700787401
11
4.7410929921259841
21
-7.6371493700787401
0
LINE
8
BLACK
6
CONTINUOUS
10
4.7410929921259841
20
-7.6371493700787401
11
4.7410929921259841
21
-6.8143147244094484
0
LINE
8
BLACK
6
CONTINUOUS
10
4.7410929921259841
20
-6.8143147244094484
11
4.0422740944881888
21
-6.8143147244094484
0
LINE
8
BLACK
6
CONTINUOUS
10
5.7217090551181098
20
-6.989420787401575
11
5.7222417322834644
21
-6.9899534645669288
0
LINE
8
BLACK
6
CONTINUOUS
10
5.7222417322834644
20
-6.9899534645669288
11
5.7223166535433068
21
-6.9903301181102364
0
LINE
8
BLACK
6
CONTINUOUS
10
5.7223166535433068
20
-6.9903301181102364
11
5.7223166535433068
21
-7.6005663385826772
0
LINE
8
BLACK
6
CONTINUOUS
10
5.7223166535433068
20
-7.6005663385826772
11
5.7222417322834644
21
-7.6009429921259839
0
LINE
8
BLACK
6
CONTINUOUS
10
5.7222417322834644
20
-7.6009429921259839
11
5.7217090551181098
21
-7.6014756692913386
0
LINE
8
BLACK
6
CONTINUOUS
10
5.7217090551181098
20
-7.6014756692913386
11
5.7213324015748031
21
-7.6015505905511809
0
LINE
8
BLACK
6
CONTINUOUS
10
5.7213324015748031
20
-7.6015505905511809
11
5.1110961811023623
21
-7.6015505905511809
0
LINE
8
BLACK
6
CONTINUOUS
10
5.1110961811023623
20
-7.6015505905511809
11
5.1107195275590547
21
-7.6014756692913386
0
LINE
8
BLACK
6
CONTINUOUS
10
5.1107195275590547
20
-7.6014756692913386
11
5.1101868503937009
21
-7.6009429921259839
0
LINE
8
BLACK
6
CONTINUOUS
10
5.1101868503937009
20
-7.6009429921259839
11
5.1101119291338586
21
-7.6005663385826772
0
LINE
8
BLACK
6
CONTINUOUS
10
5.1101119291338586
20
-7.6005663385826772
11
5.1101119291338586
21
-6.9903301181102364
0
LINE
8
BLACK
6
CONTINUOUS
10
5.1101119291338586
20
-6.9903301181102364
11
5.1101868503937009
21
-6.9899534645669288
0
LINE
8
BLACK
6
CONTINUOUS
10
5.1101868503937009
20
-6.9899534645669288
11
5.1107195275590547
21
-6.989420787401575
0
LINE
8
BLACK
6
CONTINUOUS
10
5.1107195275590547
20
-6.989420787401575
11
5.1110961811023623
21
-6.9893458661417318
0
LINE
8
BLACK
6
CONTINUOUS
10
5.1110961811023623
20
-6.9893458661417318
11
5.7213324015748031
21
-6.9893458661417318
0
LINE
8
BLACK
6
CONTINUOUS
10
5.7213324015748031
20
-6.9893458661417318
11
5.7217090551181098
21
-6.989420787401575
0
LINE
8
BLACK
6
CONTINUOUS
10
5.112080433070866
20
-6.9913143700787401
11
5.112080433070866
21
-7.5995820866141734
0
LINE
8
BLACK
6
CONTINUOUS
10
5.112080433070866
20
-7.5995820866141734
11
5.7203481496062993
21
-7.5995820866141734
0
LINE
8
BLACK
6
CONTINUOUS
10
5.7203481496062993
20
-7.5995820866141734
11
5.7203481496062993
21
-6.9913143700787401
0
LINE
8
BLACK
6
CONTINUOUS
10
5.7203481496062993
20
-6.9913143700787401
11
5.112080433070866
21
-6.9913143700787401
0
LINE
8
BLACK
6
CONTINUOUS
10
6.4894255905511811
20
-6.989420787401575
11
6.4899582677165357
21
-6.9899534645669288
0
LINE
8
BLACK
6
CONTINUOUS
10
6.4899582677165357
20
-6.9899534645669288
11
6.490033188976378
21
-6.9903301181102364
0
LINE
8
BLACK
6
CONTINUOUS
10
6.490033188976378
20
-6.9903301181102364
11
6.490033188976378
21
-7.6005663385826772
0
LINE
8
BLACK
6
CONTINUOUS
10
6.490033188976378
20
-7.6005663385826772
11
6.4899582677165357
21
-7.6009429921259839
0
LINE
8
BLACK
6
CONTINUOUS
10
6.4899582677165357
20
-7.6009429921259839
11
6.4894255905511811
21
-7.6014756692913386
0
LINE
8
BLACK
6
CONTINUOUS
10
6.4894255905511811
20
-7.6014756692913386
11
6.4890489370078734
21
-7.6015505905511809
0
LINE
8
BLACK
6
CONTINUOUS
10
6.4890489370078734
20
-7.6015505905511809
11
5.8788127165354327
21
-7.6015505905511809
0
LINE
8
BLACK
6
CONTINUOUS
10
5.8788127165354327
20
-7.6015505905511809
11
5.878436062992126
21
-7.6014756692913386
0
LINE
8
BLACK
6
CONTINUOUS
10
5.878436062992126
20
-7.6014756692913386
11
5.8779033858267713
21
-7.6009429921259839
0
LINE
8
BLACK
6
CONTINUOUS
10
5.8779033858267713
20
-7.6009429921259839
11
5.877828464566929
21
-7.6005663385826772
0
LINE
8
BLACK
6
CONTINUOUS
10
5.877828464566929
20
-7.6005663385826772
11
5.877828464566929
21
-6.9903301181102364
0
LINE
8
BLACK
6
CONTINUOUS
10
5.877828464566929
20
-6.9903301181102364
11
5.8779033858267713
21
-6.9899534645669288
0
LINE
8
BLACK
6
CONTINUOUS
10
5.8779033858267713
20
-6.9899534645669288
11
5.878436062992126
21
-6.989420787401575
0
LINE
8
BLACK
6
CONTINUOUS
10
5.878436062992126
20
-6.989420787401575
11
5.8788127165354327
21
-6.9893458661417318
0
LINE
8
BLACK
6
CONTINUOUS
10
5.8788127165354327
20
-6.9893458661417318
11
6.4890489370078734
21
-6.9893458661417318
0
LINE
8
BLACK
6
CONTINUOUS
10
6.4890489370078734
20
-6.9893458661417318
11
6.4894255905511811
21
-6.989420787401575
0
LINE
8
BLACK
6
CONTINUOUS
10
5.8797969685039373
20
-6.9913143700787401
11
5.8797969685039373
21
-7.5995820866141734
0
LINE
8
BLACK
6
CONTINUOUS
10
5.8797969685039373
20
-7.5995820866141734
11
6.4880646850393697
21
-7.5995820866141734
0
LINE
8
BLACK
6
CONTINUOUS
10
6.4880646850393697
20
-7.5995820866141734
11
6.4880646850393697
21
-6.9913143700787401
0
LINE
8
BLACK
6
CONTINUOUS
10
6.4880646850393697
20
-6.9913143700787401
11
5.8797969685039373
21
-6.9913143700787401
0
LINE
8
BLACK
6
CONTINUOUS
10
2.7047959055118111
20
-6.5523949999999997
11
2.7054053543307086
21
-6.5528377952755905
0
LINE
8
BLACK
6
CONTINUOUS
10
2.7054053543307086
20
-6.5528377952755905
11
2.7055382677165354
21
-6.5531980708661415
0
LINE
8
BLACK
6
CONTINUOUS
10
2.7055382677165354
20
-6.5531980708661415
11
2.8010002362204722
21
-7.155921299212598
0
LINE
8
BLACK
6
CONTINUOUS
10
2.8010002362204722
20
-7.155921299212598
11
2.8009851574803148
21
-7.1563048031496059
0
LINE
8
BLACK
6
CONTINUOUS
10
2.8009851574803148
20
-7.1563048031496059
11
2.8009851968503936
21
-7.1563050393700784
0
LINE
8
BLACK
6
CONTINUOUS
10
2.8009851968503936
20
-7.1563050393700784
11
2.8005424015748033
21
-7.1569144881889759
0
LINE
8
BLACK
6
CONTINUOUS
10
2.8005424015748033
20
-7.1569144881889759
11
2.8001820866141731
21
-7.1570474015748031
0
LINE
8
BLACK
6
CONTINUOUS
10
2.8001820866141731
20
-7.1570474015748031
11
2.1974588582677166
21
-7.25250937007874
0
LINE
8
BLACK
6
CONTINUOUS
10
2.1974588582677166
20
-7.25250937007874
11
2.1970753149606299
21
-7.2524942913385821
0
LINE
8
BLACK
6
CONTINUOUS
10
2.1970753149606299
20
-7.2524942913385821
11
2.1970751181102361
21
-7.2524943307086609
0
LINE
8
BLACK
6
CONTINUOUS
10
2.1970751181102361
20
-7.2524943307086609
11
2.1964656692913387
21
-7.252051535433071
0
LINE
8
BLACK
6
CONTINUOUS
10
2.1964656692913387
20
-7.252051535433071
11
2.1963327559055119
21
-7.2516912204724404
0
LINE
8
BLACK
6
CONTINUOUS
10
2.1963327559055119
20
-7.2516912204724404
11
2.1008707874015746
21
-6.6489679921259839
0
LINE
8
BLACK
6
CONTINUOUS
10
2.1008707874015746
20
-6.6489679921259839
11
2.1008858661417324
21
-6.6485842519685034
0
LINE
8
BLACK
6
CONTINUOUS
10
2.1008858661417324
20
-6.6485842519685034
11
2.1013286614173228
21
-6.647974803149606
0
LINE
8
BLACK
6
CONTINUOUS
10
2.1013286614173228
20
-6.647974803149606
11
2.1016889370078742
21
-6.6478418897637797
0
LINE
8
BLACK
6
CONTINUOUS
10
2.1016889370078742
20
-6.6478418897637797
11
2.7044121653543307
21
-6.5523799212598428
0
LINE
8
BLACK
6
CONTINUOUS
10
2.7044121653543307
20
-6.5523799212598428
11
2.7047959055118111
21
-6.5523949999999997
0
LINE
8
BLACK
6
CONTINUOUS
10
2.1029689763779529
20
-6.6496321653543307
11
2.1981230314960629
21
-7.2504111417322834
0
LINE
8
BLACK
6
CONTINUOUS
10
2.1981230314960629
20
-7.2504111417322834
11
2.7989020078740157
21
-7.1552570866141734
0
LINE
8
BLACK
6
CONTINUOUS
10
2.7989020078740157
20
-7.1552570866141734
11
2.7037479527559056
21
-6.5544781102362206
0
LINE
8
BLACK
6
CONTINUOUS
10
2.7037479527559056
20
-6.5544781102362206
11
2.1029689763779529
21
-6.6496321653543307
0
LINE
8
BLACK
6
CONTINUOUS
10
3.4630605905511809
20
-6.4322976771653542
11
3.4636700393700788
21
-6.4327404724409449
0
LINE
8
BLACK
6
CONTINUOUS
10
3.4636700393700788
20
-6.4327404724409449
11
3.4638029527559056
21
-6.4331007480314959
0
LINE
8
BLACK
6
CONTINUOUS
10
3.4638029527559056
20
-6.4331007480314959
11
3.5592649212598424
21
-7.0358239763779524
0
LINE
8
BLACK
6
CONTINUOUS
10
3.5592649212598424
20
-7.0358239763779524
11
3.559249842519685
21
-7.0362074803149603
0
LINE
8
BLACK
6
CONTINUOUS
10
3.559249842519685
20
-7.0362074803149603
11
3.5592498818897638
21
-7.0362077165354329
0
LINE
8
BLACK
6
CONTINUOUS
10
3.5592498818897638
20
-7.0362077165354329
11
3.558807086614173
21
-7.0368171653543303
0
LINE
8
BLACK
6
CONTINUOUS
10
3.558807086614173
20
-7.0368171653543303
11
3.5584467716535433
21
-7.0369500787401575
0
LINE
8
BLACK
6
CONTINUOUS
10
3.5584467716535433
20
-7.0369500787401575
11
2.9557235433070868
21
-7.1324120472440944
0
LINE
8
BLACK
6
CONTINUOUS
10
2.9557235433070868
20
-7.1324120472440944
11
2.9553400000000001
21
-7.1323969685039366
0
LINE
8
BLACK
6
CONTINUOUS
10
2.9553400000000001
20
-7.1323969685039366
11
2.9553398031496063
21
-7.1323970078740153
0
LINE
8
BLACK
6
CONTINUOUS
10
2.9553398031496063
20
-7.1323970078740153
11
2.9547303543307084
21
-7.1319542125984254
0
LINE
8
BLACK
6
CONTINUOUS
10
2.9547303543307084
20
-7.1319542125984254
11
2.9545974409448816
21
-7.1315938976377948
0
LINE
8
BLACK
6
CONTINUOUS
10
2.9545974409448816
20
-7.1315938976377948
11
2.8591354724409448
21
-6.5288706692913383
0
LINE
8
BLACK
6
CONTINUOUS
10
2.8591354724409448
20
-6.5288706692913383
11
2.8591505511811022
21
-6.5284869291338579
0
LINE
8
BLACK
6
CONTINUOUS
10
2.8591505511811022
20
-6.5284869291338579
11
2.8595933464566929
21
-6.5278774803149604
0
LINE
8
BLACK
6
CONTINUOUS
10
2.8595933464566929
20
-6.5278774803149604
11
2.8599536220472439
21
-6.5277445669291341
0
LINE
8
BLACK
6
CONTINUOUS
10
2.8599536220472439
20
-6.5277445669291341
11
3.4626768503937009
21
-6.4322825984251963
0
LINE
8
BLACK
6
CONTINUOUS
10
3.4626768503937009
20
-6.4322825984251963
11
3.4630605905511809
21
-6.4322976771653542
0
LINE
8
BLACK
6
CONTINUOUS
10
2.8612336614173226
20
-6.5295348425196851
11
2.9563877165354331
21
-7.1303138188976378
0
LINE
8
BLACK
6
CONTINUOUS
10
2.9563877165354331
20
-7.1303138188976378
11
3.5571666929133858
21
-7.0351597637795278
0
LINE
8
BLACK
6
CONTINUOUS
10
3.5571666929133858
20
-7.0351597637795278
11
3.4620126377952753
21
-6.434380787401575
0
LINE
8
BLACK
6
CONTINUOUS
10
3.4620126377952753
20
-6.434380787401575
11
2.8612336614173226
21
-6.5295348425196851
0
LINE
8
BLACK
6
CONTINUOUS
10
5.7217090551181098
20
-6.005168818897638
11
5.7222417322834644
21
-6.0057014960629918
0
LINE
8
BLACK
6
CONTINUOUS
10
5.7222417322834644
20
-6.0057014960629918
11
5.7223166535433068
21
-6.0060781496062994
0
LINE
8
BLACK
6
CONTINUOUS
10
5.7223166535433068
20
-6.0060781496062994
11
5.7223166535433068
21
-6.6163143700787401
0
LINE
8
BLACK
6
CONTINUOUS
10
5.7223166535433068
20
-6.6163143700787401
11
5.7222417322834644
21
-6.6166910236220469
0
LINE
8
BLACK
6
CONTINUOUS
10
5.7222417322834644
20
-6.6166910236220469
11
5.7217090551181098
21
-6.6172237007874015
0
LINE
8
BLACK
6
CONTINUOUS
10
5.7217090551181098
20
-6.6172237007874015
11
5.7213324015748031
21
-6.6172986220472438
0
LINE
8
BLACK
6
CONTINUOUS
10
5.7213324015748031
20
-6.6172986220472438
11
5.1110961811023623
21
-6.6172986220472438
0
LINE
8
BLACK
6
CONTINUOUS
10
5.1110961811023623
20
-6.6172986220472438
11
5.1107195275590547
21
-6.6172237007874015
0
LINE
8
BLACK
6
CONTINUOUS
10
5.1107195275590547
20
-6.6172237007874015
11
5.1101868503937009
21
-6.6166910236220469
0
LINE
8
BLACK
6
CONTINUOUS
10
5.1101868503937009
20
-6.6166910236220469
11
5.1101119291338586
21
-6.6163143700787401
0
LINE
8
BLACK
6
CONTINUOUS
10
5.1101119291338586
20
-6.6163143700787401
11
5.1101119291338586
21
-6.0060781496062994
0
LINE
8
BLACK
6
CONTINUOUS
10
5.1101119291338586
20
-6.0060781496062994
11
5.1101868503937009
21
-6.0057014960629918
0
LINE
8
BLACK
6
CONTINUOUS
10
5.1101868503937009
20
-6.0057014960629918
11
5.1107195275590547
21
-6.005168818897638
0
LINE
8
BLACK
6
CONTINUOUS
10
5.1107195275590547
20
-6.005168818897638
11
5.1110961811023623
21
-6.0050938976377948
0
LINE
8
BLACK
6
CONTINUOUS
10
5.1110961811023623
20
-6.0050938976377948
11
5.7213324015748031
21
-6.0050938976377948
0
LINE
8
BLACK
6
CONTINUOUS
10
5.7213324015748031
20
-6.0050938976377948
11
5.7217090551181098
21
-6.005168818897638
0
LINE
8
BLACK
6
CONTINUOUS
10
5.112080433070866
20
-6.0070624015748031
11
5.112080433070866
21
-6.6153301181102364
0
LINE
8
BLACK
6
CONTINUOUS
10
5.112080433070866
20
-6.6153301181102364
11
5.7203481496062993
21
-6.6153301181102364
0
LINE
8
BLACK
6
CONTINUOUS
10
5.7203481496062993
20
-6.6153301181102364
11
5.7203481496062993
21
-6.0070624015748031
0
LINE
8
BLACK
6
CONTINUOUS
10
5.7203481496062993
20
-6.0070624015748031
11
5.112080433070866
21
-6.0070624015748031
0
LINE
8
BLACK
6
CONTINUOUS
10
6.4894255905511811
20
-6.005168818897638
11
6.4899582677165357
21
-6.0057014960629918
0
LINE
8
BLACK
6
CONTINUOUS
10
6.4899582677165357
20
-6.0057014960629918
11
6.490033188976378
21
-6.0060781496062994
0
LINE
8
BLACK
6
CONTINUOUS
10
6.490033188976378
20
-6.0060781496062994
11
6.490033188976378
21
-6.6163143700787401
0
LINE
8
BLACK
6
CONTINUOUS
10
6.490033188976378
20
-6.6163143700787401
11
6.4899582677165357
21
-6.6166910236220469
0
LINE
8
BLACK
6
CONTINUOUS
10
6.4899582677165357
20
-6.6166910236220469
11
6.4894255905511811
21
-6.6172237007874015
0
LINE
8
BLACK
6
CONTINUOUS
10
6.4894255905511811
20
-6.6172237007874015
11
6.4890489370078734
21
-6.6172986220472438
0
LINE
8
BLACK
6
CONTINUOUS
10
6.4890489370078734
20
-6.6172986220472438
11
5.8788127165354327
21
-6.6172986220472438
0
LINE
8
BLACK
6
CONTINUOUS
10
5.8788127165354327
20
-6.6172986220472438
11
5.878436062992126
21
-6.6172237007874015
0
LINE
8
BLACK
6
CONTINUOUS
10
5.878436062992126
20
-6.6172237007874015
11
5.8779033858267713
21
-6.6166910236220469
0
LINE
8
BLACK
6
CONTINUOUS
10
5.8779033858267713
20
-6.6166910236220469
11
5.877828464566929
21
-6.6163143700787401
0
LINE
8
BLACK
6
CONTINUOUS
10
5.877828464566929
20
-6.6163143700787401
11
5.877828464566929
21
-6.0060781496062994
0
LINE
8
BLACK
6
CONTINUOUS
10
5.877828464566929
20
-6.0060781496062994
11
5.8779033858267713
21
-6.0057014960629918
0
LINE
8
BLACK
6
CONTINUOUS
10
5.8779033858267713
20
-6.0057014960629918
11
5.878436062992126
21
-6.005168818897638
0
LINE
8
BLACK
6
CONTINUOUS
10
5.878436062992126
20
-6.005168818897638
11
5.8788127165354327
21
-6.0050938976377948
0
LINE
8
BLACK
6
CONTINUOUS
10
5.8788127165354327
20
-6.0050938976377948
11
6.4890489370078734
21
-6.0050938976377948
0
LINE
8
BLACK
6
CONTINUOUS
10
6.4890489370078734
20
-6.0050938976377948
11
6.4894255905511811
21
-6.005168818897638
0
LINE
8
BLACK
6
CONTINUOUS
10
5.8797969685039373
20
-6.0070624015748031
11
5.8797969685039373
21
-6.6153301181102364
0
LINE
8
BLACK
6
CONTINUOUS
10
5.8797969685039373
20
-6.6153301181102364
11
6.4880646850393697
21
-6.6153301181102364
0
LINE
8
BLACK
6
CONTINUOUS
10
6.4880646850393697
20
-6.6153301181102364
11
6.4880646850393697
21
-6.0070624015748031
0
LINE
8
BLACK
6
CONTINUOUS
10
6.4880646850393697
20
-6.0070624015748031
11
5.8797969685039373
21
-6.0070624015748031
0
LINE
8
BLACK
6
CONTINUOUS
10
2.5846985826771651
20
-5.79413031496063
11
2.585308031496063
21
-5.7945731102362199
0
LINE
8
BLACK
6
CONTINUOUS
10
2.585308031496063
20
-5.7945731102362199
11
2.5854409448818898
21
-5.7949333858267718
0
LINE
8
BLACK
6
CONTINUOUS
10
2.5854409448818898
20
-5.7949333858267718
11
2.6809029133858266
21
-6.3976566141732283
0
LINE
8
BLACK
6
CONTINUOUS
10
2.6809029133858266
20
-6.3976566141732283
11
2.6808878346456693
21
-6.3980401181102362
0
LINE
8
BLACK
6
CONTINUOUS
10
2.6808878346456693
20
-6.3980401181102362
11
2.680887874015748
21
-6.3980403543307087
0
LINE
8
BLACK
6
CONTINUOUS
10
2.680887874015748
20
-6.3980403543307087
11
2.6804450787401572
21
-6.3986498031496062
0
LINE
8
BLACK
6
CONTINUOUS
10
2.6804450787401572
20
-6.3986498031496062
11
2.6800847637795275
21
-6.3987827165354325
0
LINE
8
BLACK
6
CONTINUOUS
10
2.6800847637795275
20
-6.3987827165354325
11
2.077361535433071
21
-6.4942446850393702
0
LINE
8
BLACK
6
CONTINUOUS
10
2.077361535433071
20
-6.4942446850393702
11
2.0769779921259843
21
-6.4942296062992124
0
LINE
8
BLACK
6
CONTINUOUS
10
2.0769779921259843
20
-6.4942296062992124
11
2.0769777952755906
21
-6.4942296456692912
0
LINE
8
BLACK
6
CONTINUOUS
10
2.0769777952755906
20
-6.4942296456692912
11
2.0763683464566927
21
-6.4937868503937004
0
LINE
8
BLACK
6
CONTINUOUS
10
2.0763683464566927
20
-6.4937868503937004
11
2.0762354330708659
21
-6.4934265354330707
0
LINE
8
BLACK
6
CONTINUOUS
10
2.0762354330708659
20
-6.4934265354330707
11
1.980773464566929
21
-5.8907033070866142
0
LINE
8
BLACK
6
CONTINUOUS
10
1.980773464566929
20
-5.8907033070866142
11
1.9807885433070866
21
-5.8903195669291337
0
LINE
8
BLACK
6
CONTINUOUS
10
1.9807885433070866
20
-5.8903195669291337
11
1.9812313385826772
21
-5.8897101181102363
0
LINE
8
BLACK
6
CONTINUOUS
10
1.9812313385826772
20
-5.8897101181102363
11
1.9815916141732284
21
-5.889577204724409
0
LINE
8
BLACK
6
CONTINUOUS
10
1.9815916141732284
20
-5.889577204724409
11
2.5843148425196851
21
-5.7941152362204722
0
LINE
8
BLACK
6
CONTINUOUS
10
2.5843148425196851
20
-5.7941152362204722
11
2.5846985826771651
21
-5.79413031496063
0
LINE
8
BLACK
6
CONTINUOUS
10
1.9828716535433071
20
-5.8913674803149609
11
2.0780257086614173
21
-6.4921464566929137
0
LINE
8
BLACK
6
CONTINUOUS
10
2.0780257086614173
20
-6.4921464566929137
11
2.6788046850393701
21
-6.3969924015748028
0
LINE
8
BLACK
6
CONTINUOUS
10
2.6788046850393701
20
-6.3969924015748028
11
2.5836506299212596
21
-5.79621342519685
0
LINE
8
BLACK
6
CONTINUOUS
10
2.5836506299212596
20
-5.79621342519685
11
1.9828716535433071
21
-5.8913674803149609
0
LINE
8
BLACK
6
CONTINUOUS
10
4.155001653543307
20
-5.7416888976377951
11
4.1555870866141733
21
-5.7421629921259845
0
LINE
8
BLACK
6
CONTINUOUS
10
4.1555870866141733
20
-5.7421629921259845
11
4.1555870866141733
21
-5.7421631496062995
0
LINE
8
BLACK
6
CONTINUOUS
10
4.1555870866141733
20
-5.7421631496062995
11
4.1557009448818896
21
-5.7425297637795278
0
LINE
8
BLACK
6
CONTINUOUS
10
4.1557009448818896
20
-5.7425297637795278
11
4.219487992125984
21
-6.3494230314960625
0
LINE
8
BLACK
6
CONTINUOUS
10
4.219487992125984
20
-6.3494230314960625
11
4.2194528740157482
21
-6.349805472440945
0
LINE
8
BLACK
6
CONTINUOUS
10
4.2194528740157482
20
-6.349805472440945
11
4.2189787795275588
21
-6.3503909055118113
0
LINE
8
BLACK
6
CONTINUOUS
10
4.2189787795275588
20
-6.3503909055118113
11
4.2189785826771651
21
-6.3503909055118113
0
LINE
8
BLACK
6
CONTINUOUS
10
4.2189785826771651
20
-6.3503909055118113
11
4.2186120472440942
21
-6.3505047637795276
0
LINE
8
BLACK
6
CONTINUOUS
10
4.2186120472440942
20
-6.3505047637795276
11
3.6117187401574804
21
-6.414291811023622
0
LINE
8
BLACK
6
CONTINUOUS
10
3.6117187401574804
20
-6.414291811023622
11
3.6113365354330709
21
-6.4142566535433065
0
LINE
8
BLACK
6
CONTINUOUS
10
3.6113365354330709
20
-6.4142566535433065
11
3.6113363385826771
21
-6.4142566929133853
0
LINE
8
BLACK
6
CONTINUOUS
10
3.6113363385826771
20
-6.4142566929133853
11
3.6107509055118108
21
-6.4137825984251968
0
LINE
8
BLACK
6
CONTINUOUS
10
3.6107509055118108
20
-6.4137825984251968
11
3.6106370078740158
21
-6.4134158661417322
0
LINE
8
BLACK
6
CONTINUOUS
10
3.6106370078740158
20
-6.4134158661417322
11
3.5468499606299213
21
-5.8065225590551179
0
LINE
8
BLACK
6
CONTINUOUS
10
3.5468499606299213
20
-5.8065225590551179
11
3.5468851181102363
21
-5.8061401574803151
0
LINE
8
BLACK
6
CONTINUOUS
10
3.5468851181102363
20
-5.8061401574803151
11
3.5473591732283465
21
-5.8055547244094488
0
LINE
8
BLACK
6
CONTINUOUS
10
3.5473591732283465
20
-5.8055547244094488
11
3.5477259448818899
21
-5.8054408267716537
0
LINE
8
BLACK
6
CONTINUOUS
10
3.5477259448818899
20
-5.8054408267716537
11
4.1546192125984254
21
-5.7416537795275593
0
LINE
8
BLACK
6
CONTINUOUS
10
4.1546192125984254
20
-5.7416537795275593
11
4.155001653543307
21
-5.7416888976377951
0
LINE
8
BLACK
6
CONTINUOUS
10
3.5489105511811023
20
-5.8072956299212599
11
3.6124918110236219
21
-6.4122311811023618
0
LINE
8
BLACK
6
CONTINUOUS
10
3.6124918110236219
20
-6.4122311811023618
11
4.2174273622047247
21
-6.3486499212598426
0
LINE
8
BLACK
6
CONTINUOUS
10
4.2174273622047247
20
-6.3486499212598426
11
4.1538461023622046
21
-5.7437143700787399
0
LINE
8
BLACK
6
CONTINUOUS
10
4.1538461023622046
20
-5.7437143700787399
11
3.5489105511811023
21
-5.8072956299212599
0
LINE
8
BLACK
6
CONTINUOUS
10
3.3429632677165353
20
-5.6740329921259844
11
3.3435727165354332
21
-5.6744757874015743
0
LINE
8
BLACK
6
CONTINUOUS
10
3.3435727165354332
20
-5.6744757874015743
11
3.34370562992126
21
-5.6748360629921262
0
LINE
8
BLACK
6
CONTINUOUS
10
3.34370562992126
20
-5.6748360629921262
11
3.4391675984251968
21
-6.2775592913385827
0
LINE
8
BLACK
6
CONTINUOUS
10
3.4391675984251968
20
-6.2775592913385827
11
3.4391525196850394
21
-6.2779427952755906
0
LINE
8
BLACK
6
CONTINUOUS
10
3.4391525196850394
20
-6.2779427952755906
11
3.4391525590551182
21
-6.2779430314960631
0
LINE
8
BLACK
6
CONTINUOUS
10
3.4391525590551182
20
-6.2779430314960631
11
3.4387097637795274
21
-6.2785524803149606
0
LINE
8
BLACK
6
CONTINUOUS
10
3.4387097637795274
20
-6.2785524803149606
11
3.4383494488188977
21
-6.2786853937007869
0
LINE
8
BLACK
6
CONTINUOUS
10
3.4383494488188977
20
-6.2786853937007869
11
2.8356262204724407
21
-6.3741473622047247
0
LINE
8
BLACK
6
CONTINUOUS
10
2.8356262204724407
20
-6.3741473622047247
11
2.8352426771653541
21
-6.3741322834645668
0
LINE
8
BLACK
6
CONTINUOUS
10
2.8352426771653541
20
-6.3741322834645668
11
2.8352424803149607
21
-6.3741323228346456
0
LINE
8
BLACK
6
CONTINUOUS
10
2.8352424803149607
20
-6.3741323228346456
11
2.8346330314960628
21
-6.3736895275590548
0
LINE
8
BLACK
6
CONTINUOUS
10
2.8346330314960628
20
-6.3736895275590548
11
2.8345001181102361
21
-6.3733292125984251
0
LINE
8
BLACK
6
CONTINUOUS
10
2.8345001181102361
20
-6.3733292125984251
11
2.7390381496062992
21
-5.7706059842519686
0
LINE
8
BLACK
6
CONTINUOUS
10
2.7390381496062992
20
-5.7706059842519686
11
2.7390532283464566
21
-5.7702222440944881
0
LINE
8
BLACK
6
CONTINUOUS
10
2.7390532283464566
20
-5.7702222440944881
11
2.7394960236220474
21
-5.7696127952755907
0
LINE
8
BLACK
6
CONTINUOUS
10
2.7394960236220474
20
-5.7696127952755907
11
2.7398562992125983
21
-5.7694798818897635
0
LINE
8
BLACK
6
CONTINUOUS
10
2.7398562992125983
20
-5.7694798818897635
11
3.3425795275590549
21
-5.6740179133858266
0
LINE
8
BLACK
6
CONTINUOUS
10
3.3425795275590549
20
-5.6740179133858266
11
3.3429632677165353
21
-5.6740329921259844
0
LINE
8
BLACK
6
CONTINUOUS
10
2.741136338582677
20
-5.7712701574803145
11
2.8362903937007875
21
-6.3720491338582672
0
LINE
8
BLACK
6
CONTINUOUS
10
2.8362903937007875
20
-6.3720491338582672
11
3.4370693700787402
21
-6.2768950787401572
0
LINE
8
BLACK
6
CONTINUOUS
10
3.4370693700787402
20
-6.2768950787401572
11
3.3419153149606298
21
-5.6761161023622044
0
LINE
8
BLACK
6
CONTINUOUS
10
3.3419153149606298
20
-5.6761161023622044
11
2.741136338582677
21
-5.7712701574803145
0
LINE
8
BLACK
6
CONTINUOUS
10
4.9284128740157476
20
-5.4791861023622044
11
4.9289727165354327
21
-5.4796901574803147
0
LINE
8
BLACK
6
CONTINUOUS
10
4.9289727165354327
20
-5.4796901574803147
11
4.9290672440944885
21
-5.480062401574803
0
LINE
8
BLACK
6
CONTINUOUS
10
4.9290672440944885
20
-5.480062401574803
11
4.9610045669291338
21
-6.0894622834645666
0
LINE
8
BLACK
6
CONTINUOUS
10
4.9610045669291338
20
-6.0894622834645666
11
4.9609494488188979
21
-6.089842362204724
0
LINE
8
BLACK
6
CONTINUOUS
10
4.9609494488188979
20
-6.089842362204724
11
4.9604453543307088
21
-6.0904022047244091
0
LINE
8
BLACK
6
CONTINUOUS
10
4.9604453543307088
20
-6.0904022047244091
11
4.9600731496062993
21
-6.090496732283464
0
LINE
8
BLACK
6
CONTINUOUS
10
4.9600731496062993
20
-6.090496732283464
11
4.3506732283464569
21
-6.1224340551181102
0
LINE
8
BLACK
6
CONTINUOUS
10
4.3506732283464569
20
-6.1224340551181102
11
4.3502931889763783
21
-6.1223789370078743
0
LINE
8
BLACK
6
CONTINUOUS
10
4.3502931889763783
20
-6.1223789370078743
11
4.3497333464566932
21
-6.1218748818897639
0
LINE
8
BLACK
6
CONTINUOUS
10
4.3497333464566932
20
-6.1218748818897639
11
4.3497333070866144
21
-6.1218748031496064
0
LINE
8
BLACK
6
CONTINUOUS
10
4.3497333070866144
20
-6.1218748031496064
11
4.3496388188976374
21
-6.1215026377952757
0
LINE
8
BLACK
6
CONTINUOUS
10
4.3496388188976374
20
-6.1215026377952757
11
4.317701496062992
21
-5.5121027165354333
0
LINE
8
BLACK
6
CONTINUOUS
10
4.317701496062992
20
-5.5121027165354333
11
4.317756614173228
21
-5.5117226771653538
0
LINE
8
BLACK
6
CONTINUOUS
10
4.317756614173228
20
-5.5117226771653538
11
4.3182606692913383
21
-5.5111628346456696
0
LINE
8
BLACK
6
CONTINUOUS
10
4.3182606692913383
20
-5.5111628346456696
11
4.3186329133858266
21
-5.5110683070866138
0
LINE
8
BLACK
6
CONTINUOUS
10
4.3186329133858266
20
-5.5110683070866138
11
4.9280327952755902
21
-5.4791309842519684
0
LINE
8
BLACK
6
CONTINUOUS
10
4.9280327952755902
20
-5.4791309842519684
11
4.9284128740157476
21
-5.4791861023622044
0
LINE
8
BLACK
6
CONTINUOUS
10
4.3197188188976376
20
-5.5129825984251966
11
4.3515531102362202
21
-6.1204166929133859
0
LINE
8
BLACK
6
CONTINUOUS
10
4.3515531102362202
20
-6.1204166929133859
11
4.9589872047244095
21
-6.0885824015748033
0
LINE
8
BLACK
6
CONTINUOUS
10
4.9589872047244095
20
-6.0885824015748033
11
4.9271529133858269
21
-5.481148307086614
0
LINE
8
BLACK
6
CONTINUOUS
10
4.9271529133858269
20
-5.481148307086614
11
4.3197188188976376
21
-5.5129825984251966
0
LINE
8
BLACK
6
CONTINUOUS
10
5.7217090551181098
20
-5.2374522834645667
11
5.7222417322834644
21
-5.2379849606299214
0
LINE
8
BLACK
6
CONTINUOUS
10
5.7222417322834644
20
-5.2379849606299214
11
5.7223166535433068
21
-5.2383616141732281
0
LINE
8
BLACK
6
CONTINUOUS
10
5.7223166535433068
20
-5.2383616141732281
11
5.7223166535433068
21
-5.8485978346456688
0
LINE
8
BLACK
6
CONTINUOUS
10
5.7223166535433068
20
-5.8485978346456688
11
5.7222417322834644
21
-5.8489744881889765
0
LINE
8
BLACK
6
CONTINUOUS
10
5.7222417322834644
20
-5.8489744881889765
11
5.7217090551181098
21
-5.8495071653543302
0
LINE
8
BLACK
6
CONTINUOUS
10
5.7217090551181098
20
-5.8495071653543302
11
5.7213324015748031
21
-5.8495820866141734
0
LINE
8
BLACK
6
CONTINUOUS
10
5.7213324015748031
20
-5.8495820866141734
11
5.1110961811023623
21
-5.8495820866141734
0
LINE
8
BLACK
6
CONTINUOUS
10
5.1110961811023623
20
-5.8495820866141734
11
5.1107195275590547
21
-5.8495071653543302
0
LINE
8
BLACK
6
CONTINUOUS
10
5.1107195275590547
20
-5.8495071653543302
11
5.1101868503937009
21
-5.8489744881889765
0
LINE
8
BLACK
6
CONTINUOUS
10
5.1101868503937009
20
-5.8489744881889765
11
5.1101119291338586
21
-5.8485978346456688
0
LINE
8
BLACK
6
CONTINUOUS
10
5.1101119291338586
20
-5.8485978346456688
11
5.1101119291338586
21
-5.2383616141732281
0
LINE
8
BLACK
6
CONTINUOUS
10
5.1101119291338586
20
-5.2383616141732281
11
5.1101868503937009
21
-5.2379849606299214
0
LINE
8
BLACK
6
CONTINUOUS
10
5.1101868503937009
20
-5.2379849606299214
11
5.1107195275590547
21
-5.2374522834645667
0
LINE
8
BLACK
6
CONTINUOUS
10
5.1107195275590547
20
-5.2374522834645667
11
5.1110961811023623
21
-5.2373773622047244
0
LINE
8
BLACK
6
CONTINUOUS
10
5.1110961811023623
20
-5.2373773622047244
11
5.7213324015748031
21
-5.2373773622047244
0
LINE
8
BLACK
6
CONTINUOUS
10
5.7213324015748031
20
-5.2373773622047244
11
5.7217090551181098
21
-5.2374522834645667
0
LINE
8
BLACK
6
CONTINUOUS
10
5.112080433070866
20
-5.2393458661417318
11
5.112080433070866
21
-5.8476135826771651
0
LINE
8
BLACK
6
CONTINUOUS
10
5.112080433070866
20
-5.8476135826771651
11
5.7203481496062993
21
-5.8476135826771651
0
LINE
8
BLACK
6
CONTINUOUS
10
5.7203481496062993
20
-5.8476135826771651
11
5.7203481496062993
21
-5.2393458661417318
0
LINE
8
BLACK
6
CONTINUOUS
10
5.7203481496062993
20
-5.2393458661417318
11
5.112080433070866
21
-5.2393458661417318
0
LINE
8
BLACK
6
CONTINUOUS
10
6.4894255905511811
20
-5.2374522834645667
11
6.4899582677165357
21
-5.2379849606299214
0
LINE
8
BLACK
6
CONTINUOUS
10
6.4899582677165357
20
-5.2379849606299214
11
6.490033188976378
21
-5.2383616141732281
0
LINE
8
BLACK
6
CONTINUOUS
10
6.490033188976378
20
-5.2383616141732281
11
6.490033188976378
21
-5.8485978346456688
0
LINE
8
BLACK
6
CONTINUOUS
10
6.490033188976378
20
-5.8485978346456688
11
6.4899582677165357
21
-5.8489744881889765
0
LINE
8
BLACK
6
CONTINUOUS
10
6.4899582677165357
20
-5.8489744881889765
11
6.4894255905511811
21
-5.8495071653543302
0
LINE
8
BLACK
6
CONTINUOUS
10
6.4894255905511811
20
-5.8495071653543302
11
6.4890489370078734
21
-5.8495820866141734
0
LINE
8
BLACK
6
CONTINUOUS
10
6.4890489370078734
20
-5.8495820866141734
11
5.8788127165354327
21
-5.8495820866141734
0
LINE
8
BLACK
6
CONTINUOUS
10
5.8788127165354327
20
-5.8495820866141734
11
5.878436062992126
21
-5.8495071653543302
0
LINE
8
BLACK
6
CONTINUOUS
10
5.878436062992126
20
-5.8495071653543302
11
5.8779033858267713
21
-5.8489744881889765
0
LINE
8
BLACK
6
CONTINUOUS
10
5.8779033858267713
20
-5.8489744881889765
11
5.877828464566929
21
-5.8485978346456688
0
LINE
8
BLACK
6
CONTINUOUS
10
5.877828464566929
20
-5.8485978346456688
11
5.877828464566929
21
-5.2383616141732281
0
LINE
8
BLACK
6
CONTINUOUS
10
5.877828464566929
20
-5.2383616141732281
11
5.8779033858267713
21
-5.2379849606299214
0
LINE
8
BLACK
6
CONTINUOUS
10
5.8779033858267713
20
-5.2379849606299214
11
5.878436062992126
21
-5.2374522834645667
0
LINE
8
BLACK
6
CONTINUOUS
10
5.878436062992126
20
-5.2374522834645667
11
5.8788127165354327
21
-5.2373773622047244
0
LINE
8
BLACK
6
CONTINUOUS
10
5.8788127165354327
20
-5.2373773622047244
11
6.4890489370078734
21
-5.2373773622047244
0
LINE
8
BLACK
6
CONTINUOUS
10
6.4890489370078734
20
-5.2373773622047244
11
6.4894255905511811
21
-5.2374522834645667
0
LINE
8
BLACK
6
CONTINUOUS
10
5.8797969685039373
20
-5.2393458661417318
11
5.8797969685039373
21
-5.8476135826771651
0
LINE
8
BLACK
6
CONTINUOUS
10
5.8797969685039373
20
-5.8476135826771651
11
6.4880646850393697
21
-5.8476135826771651
0
LINE
8
BLACK
6
CONTINUOUS
10
6.4880646850393697
20
-5.8476135826771651
11
6.4880646850393697
21
-5.2393458661417318
0
LINE
8
BLACK
6
CONTINUOUS
10
6.4880646850393697
20
-5.2393458661417318
11
5.8797969685039373
21
-5.2393458661417318
0
LINE
8
BLACK
6
CONTINUOUS
10
2.4646012598425195
20
-5.0358656299212594
11
2.4652107086614174
21
-5.0363084251968502
0
LINE
8
BLACK
6
CONTINUOUS
10
2.4652107086614174
20
-5.0363084251968502
11
2.4653436220472442
21
-5.0366687007874011
0
LINE
8
BLACK
6
CONTINUOUS
10
2.4653436220472442
20
-5.0366687007874011
11
2.5608055905511811
21
-5.6393919291338586
0
LINE
8
BLACK
6
CONTINUOUS
10
2.5608055905511811
20
-5.6393919291338586
11
2.5607905118110237
21
-5.6397754330708656
0
LINE
8
BLACK
6
CONTINUOUS
10
2.5607905118110237
20
-5.6397754330708656
11
2.5607905511811024
21
-5.6397756692913381
0
LINE
8
BLACK
6
CONTINUOUS
10
2.5607905511811024
20
-5.6397756692913381
11
2.5603477559055117
21
-5.6403851181102365
0
LINE
8
BLACK
6
CONTINUOUS
10
2.5603477559055117
20
-5.6403851181102365
11
2.559987440944882
21
-5.6405180314960628
0
LINE
8
BLACK
6
CONTINUOUS
10
2.559987440944882
20
-5.6405180314960628
11
1.9572642125984252
21
-5.7359799999999996
0
LINE
8
BLACK
6
CONTINUOUS
10
1.9572642125984252
20
-5.7359799999999996
11
1.9568806692913385
21
-5.7359649212598427
0
LINE
8
BLACK
6
CONTINUOUS
10
1.9568806692913385
20
-5.7359649212598427
11
1.9568804724409448
21
-5.7359649606299214
0
LINE
8
BLACK
6
CONTINUOUS
10
1.9568804724409448
20
-5.7359649606299214
11
1.9562710236220473
21
-5.7355221653543307
0
LINE
8
BLACK
6
CONTINUOUS
10
1.9562710236220473
20
-5.7355221653543307
11
1.9561381102362205
21
-5.735161850393701
0
LINE
8
BLACK
6
CONTINUOUS
10
1.9561381102362205
20
-5.735161850393701
11
1.8606761417322835
21
-5.1324386220472435
0
LINE
8
BLACK
6
CONTINUOUS
10
1.8606761417322835
20
-5.1324386220472435
11
1.8606912204724408
21
-5.132054881889764
0
LINE
8
BLACK
6
CONTINUOUS
10
1.8606912204724408
20
-5.132054881889764
11
1.8611340157480314
21
-5.1314454330708656
0
LINE
8
BLACK
6
CONTINUOUS
10
1.8611340157480314
20
-5.1314454330708656
11
1.8614942913385826
21
-5.1313125196850393
0
LINE
8
BLACK
6
CONTINUOUS
10
1.8614942913385826
20
-5.1313125196850393
11
2.4642175196850391
21
-5.0358505511811025
0
LINE
8
BLACK
6
CONTINUOUS
10
2.4642175196850391
20
-5.0358505511811025
11
2.4646012598425195
21
-5.0358656299212594
0
LINE
8
BLACK
6
CONTINUOUS
10
1.8627743307086613
20
-5.1331027952755903
11
1.9579283858267715
21
-5.7338817716535431
0
LINE
8
BLACK
6
CONTINUOUS
10
1.9579283858267715
20
-5.7338817716535431
11
2.5587073622047245
21
-5.638727716535433
0
LINE
8
BLACK
6
CONTINUOUS
10
2.5587073622047245
20
-5.638727716535433
11
2.463553307086614
21
-5.0379487401574803
0
LINE
8
BLACK
6
CONTINUOUS
10
2.463553307086614
20
-5.0379487401574803
11
1.8627743307086613
21
-5.1331027952755903
0
LINE
8
BLACK
6
CONTINUOUS
10
4.0747534251968505
20
-4.9781779921259846
11
4.0753388582677168
21
-4.978652086614173
0
LINE
8
BLACK
6
CONTINUOUS
10
4.0753388582677168
20
-4.978652086614173
11
4.0753388582677168
21
-4.978652244094488
0
LINE
8
BLACK
6
CONTINUOUS
10
4.0753388582677168
20
-4.978652244094488
11
4.0754527165354331
21
-4.9790188582677164
0
LINE
8
BLACK
6
CONTINUOUS
10
4.0754527165354331
20
-4.9790188582677164
11
4.1392397637795275
21
-5.5859121259842519
0
LINE
8
BLACK
6
CONTINUOUS
10
4.1392397637795275
20
-5.5859121259842519
11
4.1392046456692908
21
-5.5862945669291335
0
LINE
8
BLACK
6
CONTINUOUS
10
4.1392046456692908
20
-5.5862945669291335
11
4.1387305511811023
21
-5.5868799999999998
0
LINE
8
BLACK
6
CONTINUOUS
10
4.1387305511811023
20
-5.5868799999999998
11
4.1387303543307086
21
-5.5868799999999998
0
LINE
8
BLACK
6
CONTINUOUS
10
4.1387303543307086
20
-5.5868799999999998
11
4.1383638188976377
21
-5.5869938582677161
0
LINE
8
BLACK
6
CONTINUOUS
10
4.1383638188976377
20
-5.5869938582677161
11
3.5314705118110234
21
-5.6507809055118106
0
LINE
8
BLACK
6
CONTINUOUS
10
3.5314705118110234
20
-5.6507809055118106
11
3.5310883070866139
21
-5.650745748031496
0
LINE
8
BLACK
6
CONTINUOUS
10
3.5310883070866139
20
-5.650745748031496
11
3.5310881102362206
21
-5.6507457874015747
0
LINE
8
BLACK
6
CONTINUOUS
10
3.5310881102362206
20
-5.6507457874015747
11
3.5305026771653543
21
-5.6502716929133854
0
LINE
8
BLACK
6
CONTINUOUS
10
3.5305026771653543
20
-5.6502716929133854
11
3.5303887795275588
21
-5.6499049606299208
0
LINE
8
BLACK
6
CONTINUOUS
10
3.5303887795275588
20
-5.6499049606299208
11
3.4666017322834644
21
-5.0430116535433074
0
LINE
8
BLACK
6
CONTINUOUS
10
3.4666017322834644
20
-5.0430116535433074
11
3.4666368897637794
21
-5.0426292519685036
0
LINE
8
BLACK
6
CONTINUOUS
10
3.4666368897637794
20
-5.0426292519685036
11
3.4671109448818895
21
-5.0420438188976373
0
LINE
8
BLACK
6
CONTINUOUS
10
3.4671109448818895
20
-5.0420438188976373
11
3.4674777165354329
21
-5.0419299212598423
0
LINE
8
BLACK
6
CONTINUOUS
10
3.4674777165354329
20
-5.0419299212598423
11
4.074370984251968
21
-4.9781428740157478
0
LINE
8
BLACK
6
CONTINUOUS
10
4.074370984251968
20
-4.9781428740157478
11
4.0747534251968505
21
-4.9781779921259846
0
LINE
8
BLACK
6
CONTINUOUS
10
3.4686623228346454
20
-5.0437847244094485
11
3.5322435826771654
21
-5.6487202755905512
0
LINE
8
BLACK
6
CONTINUOUS
10
3.5322435826771654
20
-5.6487202755905512
11
4.1371791338582673
21
-5.5851390157480312
0
LINE
8
BLACK
6
CONTINUOUS
10
4.1371791338582673
20
-5.5851390157480312
11
4.0735978740157481
21
-4.9802034645669293
0
LINE
8
BLACK
6
CONTINUOUS
10
4.0735978740157481
20
-4.9802034645669293
11
3.4686623228346454
21
-5.0437847244094485
0
LINE
8
BLACK
6
CONTINUOUS
10
3.2228659448818897
20
-4.9157683070866138
11
3.2234753937007872
21
-4.9162111023622046
0
LINE
8
BLACK
6
CONTINUOUS
10
3.2234753937007872
20
-4.9162111023622046
11
3.2236083070866139
21
-4.9165713779527556
0
LINE
8
BLACK
6
CONTINUOUS
10
3.2236083070866139
20
-4.9165713779527556
11
3.3190702755905512
21
-5.5192946062992121
0
LINE
8
BLACK
6
CONTINUOUS
10
3.3190702755905512
20
-5.5192946062992121
11
3.3190551968503934
21
-5.51967811023622
0
LINE
8
BLACK
6
CONTINUOUS
10
3.3190551968503934
20
-5.51967811023622
11
3.3190552362204722
21
-5.5196783464566925
0
LINE
8
BLACK
6
CONTINUOUS
10
3.3190552362204722
20
-5.5196783464566925
11
3.3186124409448818
21
-5.52028779527559
0
LINE
8
BLACK
6
CONTINUOUS
10
3.3186124409448818
20
-5.52028779527559
11
3.3182521259842517
21
-5.5204207086614172
0
LINE
8
BLACK
6
CONTINUOUS
10
3.3182521259842517
20
-5.5204207086614172
11
2.7155288976377951
21
-5.6158826771653541
0
LINE
8
BLACK
6
CONTINUOUS
10
2.7155288976377951
20
-5.6158826771653541
11
2.7151453543307085
21
-5.6158675984251971
0
LINE
8
BLACK
6
CONTINUOUS
10
2.7151453543307085
20
-5.6158675984251971
11
2.7151451574803147
21
-5.6158676377952759
0
LINE
8
BLACK
6
CONTINUOUS
10
2.7151451574803147
20
-5.6158676377952759
11
2.7145357086614172
21
-5.6154248425196851
0
LINE
8
BLACK
6
CONTINUOUS
10
2.7145357086614172
20
-5.6154248425196851
11
2.7144027952755905
21
-5.6150645275590554
0
LINE
8
BLACK
6
CONTINUOUS
10
2.7144027952755905
20
-5.6150645275590554
11
2.6189408267716536
21
-5.012341299212598
0
LINE
8
BLACK
6
CONTINUOUS
10
2.6189408267716536
20
-5.012341299212598
11
2.618955905511811
21
-5.0119575590551184
0
LINE
8
BLACK
6
CONTINUOUS
10
2.618955905511811
20
-5.0119575590551184
11
2.6193987007874013
21
-5.0113481102362201
0
LINE
8
BLACK
6
CONTINUOUS
10
2.6193987007874013
20
-5.0113481102362201
11
2.6197589763779527
21
-5.0112151968503937
0
LINE
8
BLACK
6
CONTINUOUS
10
2.6197589763779527
20
-5.0112151968503937
11
3.2224822047244093
21
-4.9157532283464569
0
LINE
8
BLACK
6
CONTINUOUS
10
3.2224822047244093
20
-4.9157532283464569
11
3.2228659448818897
21
-4.9157683070866138
0
LINE
8
BLACK
6
CONTINUOUS
10
2.6210390157480314
20
-5.0130054724409447
11
2.7161930708661415
21
-5.6137844488188975
0
LINE
8
BLACK
6
CONTINUOUS
10
2.7161930708661415
20
-5.6137844488188975
11
3.3169720472440942
21
-5.5186303937007875
0
LINE
8
BLACK
6
CONTINUOUS
10
3.3169720472440942
20
-5.5186303937007875
11
3.2218179921259842
21
-4.9178514173228347
0
LINE
8
BLACK
6
CONTINUOUS
10
3.2218179921259842
20
-4.9178514173228347
11
2.6210390157480314
21
-5.0130054724409447
0
LINE
8
BLACK
6
CONTINUOUS
10
4.8882336614173223
20
-4.712521692913386
11
4.8887935039370074
21
-4.7130257480314963
0
LINE
8
BLACK
6
CONTINUOUS
10
4.8887935039370074
20
-4.7130257480314963
11
4.8888880314960632
21
-4.7133979921259845
0
LINE
8
BLACK
6
CONTINUOUS
10
4.8888880314960632
20
-4.7133979921259845
11
4.9208253543307086
21
-5.3227978740157482
0
LINE
8
BLACK
6
CONTINUOUS
10
4.9208253543307086
20
-5.3227978740157482
11
4.9207702362204726
21
-5.3231779527559056
0
LINE
8
BLACK
6
CONTINUOUS
10
4.9207702362204726
20
-5.3231779527559056
11
4.9202661417322835
21
-5.3237377952755907
0
LINE
8
BLACK
6
CONTINUOUS
10
4.9202661417322835
20
-5.3237377952755907
11
4.919893937007874
21
-5.3238323228346456
0
LINE
8
BLACK
6
CONTINUOUS
10
4.919893937007874
20
-5.3238323228346456
11
4.3104940157480316
21
-5.3557696456692909
0
LINE
8
BLACK
6
CONTINUOUS
10
4.3104940157480316
20
-5.3557696456692909
11
4.310113976377953
21
-5.355714527559055
0
LINE
8
BLACK
6
CONTINUOUS
10
4.310113976377953
20
-5.355714527559055
11
4.3095541338582679
21
-5.3552104724409446
0
LINE
8
BLACK
6
CONTINUOUS
10
4.3095541338582679
20
-5.3552104724409446
11
4.3095540944881892
21
-5.3552103937007871
0
LINE
8
BLACK
6
CONTINUOUS
10
4.3095540944881892
20
-5.3552103937007871
11
4.3094596062992121
21
-5.3548382283464564
0
LINE
8
BLACK
6
CONTINUOUS
10
4.3094596062992121
20
-5.3548382283464564
11
4.2775222834645668
21
-4.745438307086614
0
LINE
8
BLACK
6
CONTINUOUS
10
4.2775222834645668
20
-4.745438307086614
11
4.2775774015748027
21
-4.7450582677165354
0
LINE
8
BLACK
6
CONTINUOUS
10
4.2775774015748027
20
-4.7450582677165354
11
4.2780814566929131
21
-4.7444984251968503
0
LINE
8
BLACK
6
CONTINUOUS
10
4.2780814566929131
20
-4.7444984251968503
11
4.2784537007874013
21
-4.7444038976377954
0
LINE
8
BLACK
6
CONTINUOUS
10
4.2784537007874013
20
-4.7444038976377954
11
4.887853582677165
21
-4.7124665748031491
0
LINE
8
BLACK
6
CONTINUOUS
10
4.887853582677165
20
-4.7124665748031491
11
4.8882336614173223
21
-4.712521692913386
0
LINE
8
BLACK
6
CONTINUOUS
10
4.2795396062992124
20
-4.7463181889763781
11
4.3113738976377949
21
-5.3537522834645666
0
LINE
8
BLACK
6
CONTINUOUS
10
4.3113738976377949
20
-5.3537522834645666
11
4.9188079921259842
21
-5.321917992125984
0
LINE
8
BLACK
6
CONTINUOUS
10
4.9188079921259842
20
-5.321917992125984
11
4.8869737007874017
21
-4.7144838976377947
0
LINE
8
BLACK
6
CONTINUOUS
10
4.8869737007874017
20
-4.7144838976377947
11
4.2795396062992124
21
-4.7463181889763781
0
LINE
8
BLACK
6
CONTINUOUS
10
5.7217090551181098
20
-4.4697357480314963
11
5.7222417322834644
21
-4.4702684251968501
0
LINE
8
BLACK
6
CONTINUOUS
10
5.7222417322834644
20
-4.4702684251968501
11
5.7223166535433068
21
-4.4706450787401577
0
LINE
8
BLACK
6
CONTINUOUS
10
5.7223166535433068
20
-4.4706450787401577
11
5.7223166535433068
21
-5.0808812992125985
0
LINE
8
BLACK
6
CONTINUOUS
10
5.7223166535433068
20
-5.0808812992125985
11
5.7222417322834644
21
-5.0812579527559052
0
LINE
8
BLACK
6
CONTINUOUS
10
5.7222417322834644
20
-5.0812579527559052
11
5.7217090551181098
21
-5.0817906299212598
0
LINE
8
BLACK
6
CONTINUOUS
10
5.7217090551181098
20
-5.0817906299212598
11
5.7213324015748031
21
-5.0818655511811022
0
LINE
8
BLACK
6
CONTINUOUS
10
5.7213324015748031
20
-5.0818655511811022
11
5.1110961811023623
21
-5.0818655511811022
0
LINE
8
BLACK
6
CONTINUOUS
10
5.1110961811023623
20
-5.0818655511811022
11
5.1107195275590547
21
-5.0817906299212598
0
LINE
8
BLACK
6
CONTINUOUS
10
5.1107195275590547
20
-5.0817906299212598
11
5.1101868503937009
21
-5.0812579527559052
0
LINE
8
BLACK
6
CONTINUOUS
10
5.1101868503937009
20
-5.0812579527559052
11
5.1101119291338586
21
-5.0808812992125985
0
LINE
8
BLACK
6
CONTINUOUS
10
5.1101119291338586
20
-5.0808812992125985
11
5.1101119291338586
21
-4.4706450787401577
0
LINE
8
BLACK
6
CONTINUOUS
10
5.1101119291338586
20
-4.4706450787401577
11
5.1101868503937009
21
-4.4702684251968501
0
LINE
8
BLACK
6
CONTINUOUS
10
5.1101868503937009
20
-4.4702684251968501
11
5.1107195275590547
21
-4.4697357480314963
0
LINE
8
BLACK
6
CONTINUOUS
10
5.1107195275590547
20
-4.4697357480314963
11
5.1110961811023623
21
-4.4696608267716531
0
LINE
8
BLACK
6
CONTINUOUS
10
5.1110961811023623
20
-4.4696608267716531
11
5.7213324015748031
21
-4.4696608267716531
0
LINE
8
BLACK
6
CONTINUOUS
10
5.7213324015748031
20
-4.4696608267716531
11
5.7217090551181098
21
-4.4697357480314963
0
LINE
8
BLACK
6
CONTINUOUS
10
5.112080433070866
20
-4.4716293307086614
11
5.112080433070866
21
-5.0798970472440947
0
LINE
8
BLACK
6
CONTINUOUS
10
5.112080433070866
20
-5.0798970472440947
11
5.7203481496062993
21
-5.0798970472440947
0
LINE
8
BLACK
6
CONTINUOUS
10
5.7203481496062993
20
-5.0798970472440947
11
5.7203481496062993
21
-4.4716293307086614
0
LINE
8
BLACK
6
CONTINUOUS
10
5.7203481496062993
20
-4.4716293307086614
11
5.112080433070866
21
-4.4716293307086614
0
LINE
8
BLACK
6
CONTINUOUS
10
6.4894255905511811
20
-4.4697357480314963
11
6.4899582677165357
21
-4.4702684251968501
0
LINE
8
BLACK
6
CONTINUOUS
10
6.4899582677165357
20
-4.4702684251968501
11
6.490033188976378
21
-4.4706450787401577
0
LINE
8
BLACK
6
CONTINUOUS
10
6.490033188976378
20
-4.4706450787401577
11
6.490033188976378
21
-5.0808812992125985
0
LINE
8
BLACK
6
CONTINUOUS
10
6.490033188976378
20
-5.0808812992125985
11
6.4899582677165357
21
-5.0812579527559052
0
LINE
8
BLACK
6
CONTINUOUS
10
6.4899582677165357
20
-5.0812579527559052
11
6.4894255905511811
21
-5.0817906299212598
0
LINE
8
BLACK
6
CONTINUOUS
10
6.4894255905511811
20
-5.0817906299212598
11
6.4890489370078734
21
-5.0818655511811022
0
LINE
8
BLACK
6
CONTINUOUS
10
6.4890489370078734
20
-5.0818655511811022
11
5.8788127165354327
21
-5.0818655511811022
0
LINE
8
BLACK
6
CONTINUOUS
10
5.8788127165354327
20
-5.0818655511811022
11
5.878436062992126
21
-5.0817906299212598
0
LINE
8
BLACK
6
CONTINUOUS
10
5.878436062992126
20
-5.0817906299212598
11
5.8779033858267713
21
-5.0812579527559052
0
LINE
8
BLACK
6
CONTINUOUS
10
5.8779033858267713
20
-5.0812579527559052
11
5.877828464566929
21
-5.0808812992125985
0
LINE
8
BLACK
6
CONTINUOUS
10
5.877828464566929
20
-5.0808812992125985
11
5.877828464566929
21
-4.4706450787401577
0
LINE
8
BLACK
6
CONTINUOUS
10
5.877828464566929
20
-4.4706450787401577
11
5.8779033858267713
21
-4.4702684251968501
0
LINE
8
BLACK
6
CONTINUOUS
10
5.8779033858267713
20
-4.4702684251968501
11
5.878436062992126
21
-4.4697357480314963
0
LINE
8
BLACK
6
CONTINUOUS
10
5.878436062992126
20
-4.4697357480314963
11
5.8788127165354327
21
-4.4696608267716531
0
LINE
8
BLACK
6
CONTINUOUS
10
5.8788127165354327
20
-4.4696608267716531
11
6.4890489370078734
21
-4.4696608267716531
0
LINE
8
BLACK
6
CONTINUOUS
10
6.4890489370078734
20
-4.4696608267716531
11
6.4894255905511811
21
-4.4697357480314963
0
LINE
8
BLACK
6
CONTINUOUS
10
5.8797969685039373
20
-4.4716293307086614
11
5.8797969685039373
21
-5.0798970472440947
0
LINE
8
BLACK
6
CONTINUOUS
10
5.8797969685039373
20
-5.0798970472440947
11
6.4880646850393697
21
-5.0798970472440947
0
LINE
8
BLACK
6
CONTINUOUS
10
6.4880646850393697
20
-5.0798970472440947
11
6.4880646850393697
21
-4.4716293307086614
0
LINE
8
BLACK
6
CONTINUOUS
10
6.4880646850393697
20
-4.4716293307086614
11
5.8797969685039373
21
-4.4716293307086614
0
LINE
8
BLACK
6
CONTINUOUS
10
3.9945051968503935
20
-4.2146670866141731
11
3.9950906299212599
21
-4.2151411811023625
0
LINE
8
BLACK
6
CONTINUOUS
10
3.9950906299212599
20
-4.2151411811023625
11
3.9950906299212599
21
-4.2151413385826775
0
LINE
8
BLACK
6
CONTINUOUS
10
3.9950906299212599
20
-4.2151413385826775
11
3.9952044881889761
21
-4.2155079527559058
0
LINE
8
BLACK
6
CONTINUOUS
10
3.9952044881889761
20
-4.2155079527559058
11
4.058991535433071
21
-4.8224012204724405
0
LINE
8
BLACK
6
CONTINUOUS
10
4.058991535433071
20
-4.8224012204724405
11
4.0589564173228343
21
-4.822783661417323
0
LINE
8
BLACK
6
CONTINUOUS
10
4.0589564173228343
20
-4.822783661417323
11
4.0584823228346458
21
-4.8233690944881893
0
LINE
8
BLACK
6
CONTINUOUS
10
4.0584823228346458
20
-4.8233690944881893
11
4.0584821259842521
21
-4.8233690944881893
0
LINE
8
BLACK
6
CONTINUOUS
10
4.0584821259842521
20
-4.8233690944881893
11
4.0581155905511812
21
-4.8234829527559056
0
LINE
8
BLACK
6
CONTINUOUS
10
4.0581155905511812
20
-4.8234829527559056
11
3.4512222834645669
21
-4.88727
0
LINE
8
BLACK
6
CONTINUOUS
10
3.4512222834645669
20
-4.88727
11
3.4508400787401574
21
-4.8872348425196845
0
LINE
8
BLACK
6
CONTINUOUS
10
3.4508400787401574
20
-4.8872348425196845
11
3.4508398818897636
21
-4.8872348818897633
0
LINE
8
BLACK
6
CONTINUOUS
10
3.4508398818897636
20
-4.8872348818897633
11
3.4502544488188978
21
-4.8867607874015748
0
LINE
8
BLACK
6
CONTINUOUS
10
3.4502544488188978
20
-4.8867607874015748
11
3.4501405511811023
21
-4.8863940551181102
0
LINE
8
BLACK
6
CONTINUOUS
10
3.4501405511811023
20
-4.8863940551181102
11
3.3863535039370078
21
-4.2795007480314959
0
LINE
8
BLACK
6
CONTINUOUS
10
3.3863535039370078
20
-4.2795007480314959
11
3.3863886614173229
21
-4.2791183464566931
0
LINE
8
BLACK
6
CONTINUOUS
10
3.3863886614173229
20
-4.2791183464566931
11
3.386862716535433
21
-4.2785329133858268
0
LINE
8
BLACK
6
CONTINUOUS
10
3.386862716535433
20
-4.2785329133858268
11
3.3872294881889764
21
-4.2784190157480317
0
LINE
8
BLACK
6
CONTINUOUS
10
3.3872294881889764
20
-4.2784190157480317
11
3.9941227559055119
21
-4.2146319685039373
0
LINE
8
BLACK
6
CONTINUOUS
10
3.9941227559055119
20
-4.2146319685039373
11
3.9945051968503935
21
-4.2146670866141731
0
LINE
8
BLACK
6
CONTINUOUS
10
3.3884140944881889
20
-4.2802738188976379
11
3.4519953543307085
21
-4.8852093700787398
0
LINE
8
BLACK
6
CONTINUOUS
10
3.4519953543307085
20
-4.8852093700787398
11
4.0569309055118108
21
-4.8216281102362206
0
LINE
8
BLACK
6
CONTINUOUS
10
4.0569309055118108
20
-4.8216281102362206
11
3.9933496456692912
21
-4.2166925590551179
0
LINE
8
BLACK
6
CONTINUOUS
10
3.9933496456692912
20
-4.2166925590551179
11
3.3884140944881889
21
-4.2802738188976379
0
LINE
8
BLACK
6
CONTINUOUS
10
4.8480544881889767
20
-3.9458572834645667
11
4.8486143307086609
21
-3.946361338582677
0
LINE
8
BLACK
6
CONTINUOUS
10
4.8486143307086609
20
-3.946361338582677
11
4.8487088582677167
21
-3.9467335826771652
0
LINE
8
BLACK
6
CONTINUOUS
10
4.8487088582677167
20
-3.9467335826771652
11
4.880646181102362
21
-4.5561334645669289
0
LINE
8
BLACK
6
CONTINUOUS
10
4.880646181102362
20
-4.5561334645669289
11
4.8805910629921261
21
-4.5565135433070862
0
LINE
8
BLACK
6
CONTINUOUS
10
4.8805910629921261
20
-4.5565135433070862
11
4.880086968503937
21
-4.5570733858267714
0
LINE
8
BLACK
6
CONTINUOUS
10
4.880086968503937
20
-4.5570733858267714
11
4.8797147637795275
21
-4.5571679133858263
0
LINE
8
BLACK
6
CONTINUOUS
10
4.8797147637795275
20
-4.5571679133858263
11
4.2703148425196851
21
-4.5891052362204725
0
LINE
8
BLACK
6
CONTINUOUS
10
4.2703148425196851
20
-4.5891052362204725
11
4.2699348031496065
21
-4.5890501181102366
0
LINE
8
BLACK
6
CONTINUOUS
10
4.2699348031496065
20
-4.5890501181102366
11
4.2693749606299214
21
-4.5885460629921262
0
LINE
8
BLACK
6
CONTINUOUS
10
4.2693749606299214
20
-4.5885460629921262
11
4.2693749212598426
21
-4.5885459842519687
0
LINE
8
BLACK
6
CONTINUOUS
10
4.2693749212598426
20
-4.5885459842519687
11
4.2692804330708665
21
-4.588173818897638
0
LINE
8
BLACK
6
CONTINUOUS
10
4.2692804330708665
20
-4.588173818897638
11
4.2373431102362202
21
-3.9787738976377951
0
LINE
8
BLACK
6
CONTINUOUS
10
4.2373431102362202
20
-3.9787738976377951
11
4.2373982283464562
21
-3.9783938582677165
0
LINE
8
BLACK
6
CONTINUOUS
10
4.2373982283464562
20
-3.9783938582677165
11
4.2379022834645665
21
-3.9778340157480314
0
LINE
8
BLACK
6
CONTINUOUS
10
4.2379022834645665
20
-3.9778340157480314
11
4.2382745275590548
21
-3.9777394881889765
0
LINE
8
BLACK
6
CONTINUOUS
10
4.2382745275590548
20
-3.9777394881889765
11
4.8476744094488184
21
-3.9458021653543307
0
LINE
8
BLACK
6
CONTINUOUS
10
4.8476744094488184
20
-3.9458021653543307
11
4.8480544881889767
21
-3.9458572834645667
0
LINE
8
BLACK
6
CONTINUOUS
10
4.2393604330708659
20
-3.9796537795275588
11
4.2711947244094484
21
-4.5870878740157481
0
LINE
8
BLACK
6
CONTINUOUS
10
4.2711947244094484
20
-4.5870878740157481
11
4.8786288188976377
21
-4.5552535826771656
0
LINE
8
BLACK
6
CONTINUOUS
10
4.8786288188976377
20
-4.5552535826771656
11
4.8467945275590552
21
-3.9478194881889763
0
LINE
8
BLACK
6
CONTINUOUS
10
4.8467945275590552
20
-3.9478194881889763
11
4.2393604330708659
21
-3.9796537795275588
  0
ENDSEC
  0
EOF
