<svg width="22" height="18" viewBox="0 0 22 18" fill="none" xmlns="http://www.w3.org/2000/svg">
<path d="M21.6475 8.95825L19.8228 9.63348L19.1475 11.4583L18.4723 9.63348L16.6475 8.95825L18.4723 8.28302L19.1475 6.45825L19.8228 8.28302L21.6475 8.95825Z" fill="white"/>
<path fill-rule="evenodd" clip-rule="evenodd" d="M19.1871 5.97129V2.8813C11.3378 -1.53266 0.289688 1.52769 0.289688 8.85525C0.289688 17.0261 11.3375 19.0664 19.1871 15.0934V11.8567C16.2799 12.8865 11.3375 12.5922 11.3375 8.91381C11.3375 5.23539 15.6514 4.72139 19.1871 5.97129ZM6.51923 10.0882C6.22819 10.0882 6.08266 10.0882 5.79162 9.94269V8.255C5.85794 8.29028 5.93714 8.34214 6.51923 8.34214C7.10114 8.34214 7.82874 7.90575 7.82874 7.03262C7.82874 6.15949 7.12654 5.72311 6.51923 5.72311C5.92056 5.72311 5.20954 6.30502 5.20954 7.03262L5.17726 13.7299C4.41737 13.7007 3.62733 13.2496 3.4841 12.4287L3.4818 6.81196C3.49151 5.3287 4.82765 3.97721 6.45449 3.97721C8.09297 3.97721 9.57447 5.28672 9.57447 7.06384C9.57464 8.84079 7.97426 10.0882 6.51923 10.0882Z" fill="white"/>
</svg>
