<svg width="141" height="245" viewBox="0 0 141 245" fill="none" xmlns="http://www.w3.org/2000/svg">
<path d="M71.6674 209.713C72.1871 209.822 72.9028 210.926 73.1596 211.364C74.307 213.326 73.4745 214.41 73.3402 216.408C73.2757 217.37 73.4678 218.366 73.64 219.308C74.3814 223.368 75.1875 227.51 76.2943 231.486C76.8112 233.342 78.391 236.745 78.5111 238.276C78.5851 239.221 78.4371 240.216 78.2181 241.199L72.558 244.017C72.0325 244.278 71.4535 244.414 70.8666 244.414C70.2797 244.414 69.7006 244.278 69.1752 244.017L65.8383 242.356C65.5692 241.184 65.4048 240.028 65.514 238.763C65.6978 236.634 66.7029 234.517 67.2308 232.442C68.4398 227.685 69.5387 222.769 70.1967 217.901C70.4272 216.195 69.7494 214.555 69.8539 212.868C69.9075 212.004 70.0649 210.53 70.7806 209.959C71.0039 209.781 71.3827 209.656 71.6674 209.713Z" fill="white"/>
<path d="M100.06 227.059C98.6473 228.414 97.8999 230.185 96.5717 231.583C95.0833 233.149 92.0774 234.024 90.0746 234.74C89.4677 234.958 88.6288 235.383 87.9847 235.385C87.7928 235.387 87.6658 235.35 87.5404 235.206C87.3668 235.007 87.2907 234.763 87.2025 234.518C87.2099 233.455 87.425 232.075 88.226 231.294C88.6957 230.837 89.3619 230.627 90.0082 230.648C90.9983 230.679 91.7307 231.15 92.6273 231.49C95.056 230.531 97.7192 227.46 100.06 227.059Z" fill="white"/>
<path d="M25.4994 65.2218C26.4883 64.7876 27.525 64.7051 28.5892 64.8029C31.0254 65.1426 32.9033 66.5272 34.3568 68.4572C36.4301 71.2105 37.6832 77.2336 38.2426 80.6662C37.6915 79.7781 37.1081 78.8868 36.683 77.9298C35.0445 74.2414 34.2233 70.5243 31.098 67.6867C30.3033 66.9653 29.3535 66.2997 28.2943 66.049C27.2671 65.8062 26.185 65.9967 25.3021 66.5753C24.0766 67.3624 23.216 68.719 22.9271 70.1359C22.2826 73.2985 23.6202 76.8013 25.2816 79.4347C26.3212 80.9464 27.5833 82.1754 28.8119 83.5226C31.6273 86.6096 32.9824 90.0567 33.6332 94.131C32.5137 91.665 31.4059 88.9812 29.8158 86.7804C28.4286 84.8606 26.6635 83.2567 25.1566 81.4376C22.4588 78.1811 20.3302 73.6735 21.9418 69.4601C22.6068 67.7211 23.744 65.9925 25.4994 65.2218Z" fill="white"/>
<path fill-rule="evenodd" clip-rule="evenodd" d="M43.8422 3.43862C41.9709 4.16318 39.6268 4.89389 38.5756 6.2687C36.0616 9.57605 36.2824 13.9249 31.9467 15.9435C31.4242 16.1867 29.3621 17.0032 29.1576 17.3419C28.2806 18.7993 28.8639 19.8844 30.472 19.9689C34.8957 20.2007 38.1301 16.7422 42.6117 17.089C46.1309 17.1319 48.5564 19.1867 51.2103 21.2003C51.8889 21.8047 52.7288 22.2669 53.5033 22.6642C55.566 23.7218 61.101 20.94 61.2689 18.7912C61.4219 16.8315 58.2663 14.4814 56.5394 13.9552C54.1903 13.2398 50.2323 13.342 49.6791 10.674C49.5212 9.66024 51.2007 8.87609 52.0804 9.04116C52.8101 9.17825 53.5476 9.33332 54.2181 9.75015C57.1301 11.6038 59.9666 13.7901 62.5209 16.131C63.2895 16.8358 63.8106 18.3814 63.7152 19.8048C63.4855 23.2281 58.688 28.5167 60.4545 31.9494C60.9838 32.9771 65.4525 34.3549 66.5541 34.3166C68.1052 34.4265 69.4359 34.257 70.7562 33.5617C73.3295 35.6074 76.3395 36.4036 79.5346 36.0138C82.0638 35.705 85.4782 34.412 86.9652 32.4171C90.7515 27.3375 91.6191 21.3081 98.057 18.4142C101.4 16.9116 104.949 16.7478 108.589 16.8624C116.345 16.6116 122.41 19.9603 128.353 24.6105C133.608 28.7429 137.595 34.458 140.669 40.3644C140.757 40.5326 140.844 40.6974 140.93 40.8605V45.0353C140.493 44.2822 140.049 43.5665 139.608 42.9035C137.565 39.8498 133.854 35.0749 131.04 32.6779C127.763 29.8856 121.735 24.7696 117.611 23.7189C115.078 23.074 112.156 22.8717 109.233 21.9201C106.679 21.2846 104.497 19.595 101.791 19.7433C98.901 19.9019 97.775 21.4524 95.8988 23.3605C93.7839 25.5114 94.3938 28.7493 96.3558 30.7746C97.331 31.7807 100.839 31.6266 102.195 31.4894C109.124 30.5782 115.209 24.2177 122.11 29.7306C124.533 31.6665 126.099 33.8007 128.107 36.0363C133.116 41.6128 138.169 48.0656 138.909 55.8078C139.194 58.9705 139.464 62.2339 139.588 65.4044C139.843 71.9259 140.899 80.1275 138.483 86.3292C136.807 90.6296 131.841 94.7961 129.554 98.9347C128.603 100.656 127.517 102.974 126.382 104.488C126.662 107.301 127.113 110.06 127.56 112.855C127.928 115.155 129.818 120.351 129.452 122.593C128.736 126.985 127.299 133.462 124.514 137.022C122.969 138.997 121.205 139.883 120.037 142.138C121.116 142.969 123.201 144.659 124.537 143.783C126.811 142.293 129.47 140.853 131.93 139.685C133.869 138.764 136.678 137.596 138.737 137.083C139.61 137.542 140.326 138.112 140.93 138.741V144.365C139.922 143.439 138.994 142.636 138.575 142.378C138.008 142.029 137.442 141.849 136.782 141.766C134.466 141.476 129.713 142.846 127.891 144.305C126.309 145.572 125.363 147.499 125.146 149.499C124.78 152.88 126.822 156.552 128.177 159.545C129.983 163.531 130.457 167.787 130.345 172.12C130.277 174.776 130.222 177.556 129.717 180.167C128.291 187.545 123.22 193.426 119.918 199.965C117.448 204.857 114.955 212.881 110.826 216.3C109.4 217.481 107.481 217.438 105.474 218.466C100.823 220.848 98.4697 221.972 95.0685 226.879C94.6401 226.879 94.7173 226.558 94.8178 226.356C97.049 221.892 100.912 218.254 105.677 216.66C106.819 216.253 107.976 216.15 109.123 215.82C111.199 215.222 112.702 212.855 113.582 210.994C114.52 209.012 116.111 205.815 115.326 203.651C114.938 202.584 114.1 201.873 113.088 201.412C106.207 198.268 99.6387 203.84 93.1976 202.129C91.007 201.547 89.1218 200.305 87.223 199.113C86.1051 199.751 85.0423 200.372 83.7846 200.693C81.5913 201.251 79.7668 200.538 79.0258 203.262C78.7806 204.164 78.5304 205.192 78.6107 206.128C78.7966 208.291 79.7776 210.142 80.3236 212.197C81.0912 215.089 80.9673 217.75 82.518 220.432C83.4824 222.1 84.4929 223.26 86.4193 223.771C88.0054 224.189 90.2667 224.494 91.7269 223.625C92.6745 223.06 93.1951 222.05 93.4447 221.006C93.7079 219.906 93.8299 218.769 94.0863 217.666C94.8957 214.179 96.6368 211.289 99.7191 209.364C100.542 208.851 101.568 208.307 102.57 208.539C103.18 208.681 103.735 209.033 104.054 209.582C104.275 209.963 104.339 210.442 104.202 210.863C103.459 213.142 99.9378 215.414 98.3295 217.215C95.9007 219.936 94.146 225.174 90.8226 226.659C88.986 227.479 86.7288 227.369 84.8793 226.647C82.1392 225.578 80.425 223.185 79.309 220.569C77.9002 217.27 77.4567 212.855 76.5512 209.277C76.2618 208.136 76.0004 206.886 75.3998 205.859C74.9251 205.032 74.1887 204.385 73.307 204.019C72.3743 203.638 71.2658 203.667 70.3431 204.065C69.1835 204.567 68.4226 205.601 67.9818 206.756C65.6419 212.882 66.3148 223.144 59.3744 226.333C57.4474 227.219 55.1235 227.512 53.1117 226.749C52.4151 226.489 51.7754 226.096 51.2299 225.591C50.2711 224.707 49.5678 223.581 48.6957 222.616C47.1875 220.948 45.4799 219.427 44.1361 217.618C42.6668 215.642 41.4262 213.487 40.0658 211.433C39.5261 210.619 38.8014 209.867 38.4037 208.974C38.1478 208.399 37.9661 207.657 38.2142 207.049C38.341 206.738 38.5617 206.522 38.8715 206.397C39.3635 206.198 40.0957 206.228 40.5746 206.456C41.4406 206.867 42.1037 207.812 42.7972 208.456C45.4365 210.906 47.8434 212.897 49.0189 216.44C49.8045 218.807 49.6284 222.361 52.1449 223.656C53.6614 224.437 56.0246 224.197 57.6107 223.681C59.4825 223.069 60.8268 221.664 61.6781 219.921C62.9781 217.261 62.9539 214.312 63.6635 211.499C64.1008 209.768 64.9569 208.112 65.1205 206.318C65.2317 205.096 64.9913 203.671 64.5902 202.516C64.3436 201.805 63.984 201.081 63.2816 200.735C62.5637 200.377 61.6031 200.412 60.8168 200.338C58.1047 200.084 56.4513 199.786 53.8002 200.738C51.6246 201.521 49.6166 202.339 47.2621 202.328C45.2483 202.321 43.256 201.808 41.308 201.35C37.5992 200.479 33.6194 199.842 29.8607 200.838C28.6329 201.164 27.314 201.742 26.7562 202.973C26.1669 204.271 26.7318 205.927 27.223 207.174C28.2271 209.721 30.426 214.367 33.1146 215.511C34.3667 216.043 35.7713 216.089 37.0472 216.546C38.9614 217.231 41.0966 218.973 42.8265 220.108C45.3801 221.85 47.4538 223.25 49.2686 225.735C50.0325 226.576 50.9287 227.567 51.7514 228.333C53.346 229.821 55.861 230.738 56.3451 233.3C56.4156 233.674 56.3291 234.168 56.0853 234.47C55.7466 234.886 55.1011 234.989 54.5931 235.015C53.42 235.075 52.0476 235.02 50.6732 234.81L43.9066 231.444C42.5058 229.959 41.2563 228.308 39.8275 226.86L39.9652 226.892C42.6985 227.527 45.2866 229.918 47.4261 231.64C48.0685 232.157 48.721 232.758 49.432 233.176C50.0972 233.568 51.3592 234.155 52.0941 233.655C52.3666 233.469 52.4928 233.156 52.5287 232.837C52.6855 231.443 51.5538 230.056 50.6986 229.058C49.0269 227.107 47.192 225.164 45.2172 223.519C44.6687 223.062 42.6599 222.068 42.3929 221.629C35.9126 218.892 30.4302 219.447 27.3724 211.952C25.6065 207.624 24.8829 202.967 23.0131 198.675C20.8102 193.619 17.46 189.137 15.2982 184.036C13.2511 179.208 12.5845 168.077 13.3275 162.916C13.5239 161.49 13.9134 160.098 14.4867 158.778C16.0705 155.037 18.4472 151.31 16.7816 147.124C16.0922 145.392 14.768 143.919 13.0424 143.186C10.914 142.282 7.86696 141.465 5.65564 142.404C4.18275 143.03 2.0625 145.835 0.803101 147.467V144.107C2.10823 141.769 2.77656 139.016 5.36169 137.642C8.42488 139.234 12.0448 140.435 14.9974 142.088C19.4237 144.566 18.2879 145.754 22.1547 141.813C21.223 140.503 19.4303 139.178 18.5248 137.879C15.8977 134.11 13.2167 126.061 13.807 121.442C13.9967 119.958 15.1665 115.919 14.9681 114.772L14.8373 114.798C14.4123 115.396 14.2277 116.033 13.9174 116.685C12.2415 120.207 11.3921 124.039 9.9447 127.658C9.55052 128.644 8.74653 130.631 8.07459 131.526C6.59002 133.501 3.50204 135.566 1.3031 136.679C1.13851 136.762 0.971156 136.83 0.803101 136.887V128.078C0.994379 128.018 1.20577 127.953 1.44763 127.881C3.00604 127.419 5.58229 127.485 6.72791 126.504C8.8393 124.696 9.71387 121.397 11.0931 118.993C13.3485 115.063 16.5049 110.771 16.8832 106.098C16.181 105.195 15.1622 103.298 14.3871 102.284C11.5689 98.5986 5.6072 89.3604 4.88123 84.8146C3.69867 75.7586 4.30935 64.7405 6.20544 55.8507C7.45734 49.9819 15.7536 42.6487 19.557 38.1046C24.2693 32.4748 29.6928 21.0517 38.5062 26.8537C42.7897 29.6739 45.2542 35.8554 47.3109 40.4123C48.92 44.0702 47.9887 47.4277 43.6322 44.2912C40.3663 41.9396 42.8584 38.1721 42.2787 34.9386C41.8204 30.1128 37.0725 26.0449 32.2142 26.6964C27.7881 27.2902 26.7253 32.2057 24.5219 35.258C22.9243 37.4707 21.0818 39.4541 19.4652 41.6525C21.908 44.4831 24.8976 45.1493 28.5228 45.1427C30.714 45.1388 32.3259 44.6789 34.6068 45.3146C38.8063 46.4851 42.5434 49.7729 47.015 49.8595C53.6474 49.3762 52.457 38.7425 51.4574 34.2931C51.1796 33.0563 51.6102 29.2203 50.7777 28.507C49.7082 29.2897 46.0483 31.6171 45.3051 29.3166C44.9822 28.3167 46.116 27.748 46.8275 27.2277C47.8348 26.4914 48.8367 26.0316 49.5736 24.9435C48.3066 20.3127 43.0076 17.8487 38.9291 20.0548C34.8969 22.2362 33.1607 22.2393 28.8314 20.9464C23.3247 23.9851 19.5601 30.1181 15.8177 34.9416L9.32458 43.1544C5.65993 47.867 1.49062 52.1304 1.4906 59.0475C1.49058 64.653 1.60038 68.8897 1.4906 73.8205C1.44471 75.8794 1.53907 78.0609 1.4906 80.1189C1.41397 83.3663 1.53754 88.4769 2.79822 91.4621C3.63986 93.4548 5.7503 96.8009 7.14783 98.4845C7.82163 99.2963 8.68883 99.9746 9.30994 100.823C9.53323 101.128 9.75116 101.524 9.73181 101.912C9.71634 102.22 9.5399 102.469 9.3031 102.653C8.97067 102.912 8.44983 103.112 8.02869 103.055C7.55867 102.991 7.17335 102.531 6.91345 102.165C5.79714 100.593 4.90279 98.6142 3.97986 96.9093C2.34468 93.8885 0.803101 91.4621 0.803101 89.2912V55.1447C0.803131 52.0617 8.42782 41.2124 13.474 34.9962C16.9531 30.7103 19.567 26.5484 23.8822 22.9064C25.1637 21.8248 26.568 20.948 27.9222 19.9669C27.8705 17.9478 27.8849 17.6905 28.3851 15.6691C28.298 15.692 28.2108 15.7166 28.1244 15.7414C26.3985 16.2353 24.9696 17.0595 23.4437 17.9025C16.3895 21.7992 13.9893 28.4957 9.05603 34.2335C7.89081 35.4522 6.63132 37.0481 5.35779 38.1154C3.4483 39.7153 2.05188 41.1456 0.803101 42.8146V40.0685C0.949239 39.869 1.09415 39.6824 1.23669 39.5138C3.54211 36.7866 6.75282 34.3793 9.00134 31.5822C12.911 26.7183 15.7961 21.3052 21.097 17.6398C23.0528 16.2876 24.6983 15.328 26.9408 14.4855C28.5751 13.8717 30.6149 13.6203 32.0121 12.6173C34.307 10.9697 35.7705 7.20658 37.7533 5.40054C38.6762 4.56002 39.8108 3.85074 41.0463 3.21792L43.8422 3.43862ZM70.9301 35.6349C68.6777 36.3376 66.5084 37.2679 64.1527 37.5968C61.4417 37.9752 58.0828 37.2627 55.5775 38.2394C55.0652 38.4392 54.4374 38.7548 54.1254 39.2257C53.27 40.5175 53.3093 44.5765 52.2972 46.8605C51.482 48.7002 50.1853 50.3793 48.2474 51.1037C44.9268 52.3444 41.6073 50.156 38.6742 48.8312C36.296 47.7572 34.0227 47.2904 31.4164 47.3019C30.4563 47.3061 29.4298 47.428 28.4799 47.2794C26.7392 47.0074 24.3729 45.2787 22.6644 45.9582C21.7393 46.3262 21.2892 47.2304 20.9232 48.0939C21.0691 48.5561 21.2088 49.0309 21.39 49.4806C23.7522 55.3368 29.6463 50.7394 33.2777 52.3751C33.9882 52.6955 34.8686 53.3751 35.1146 54.1447C35.212 54.4491 35.1878 54.7818 35.0267 55.0607C34.7863 55.477 34.3032 55.6676 33.8578 55.7736C31.3739 56.3643 26.343 55.1417 24.0072 54.1535C22.6644 53.5854 21.4173 52.811 20.1703 52.0617C17.9291 53.8038 15.633 57.3916 14.3676 59.9279C13.0362 62.5964 11.5351 66.612 11.5209 69.6056C11.4928 75.557 19.1252 85.0179 17.6635 89.8039C17.5535 90.1639 17.3572 90.4963 17.0072 90.6642C16.6256 90.8469 16.1611 90.776 15.7758 90.6388C14.1415 90.0564 13.0371 88.1589 12.3226 86.6613C10.6759 83.2093 10.335 79.6213 9.90857 75.88C9.63301 73.4619 9.29253 70.9258 9.48865 68.4943C9.87291 63.7307 13.4958 58.1885 16.1244 54.2365C17.182 52.6463 18.6836 51.0166 19.306 49.1994C19.7582 47.8794 19.9523 45.7142 19.3148 44.4455C19.1065 44.031 18.8516 43.7185 18.3969 43.5695C18.0385 43.5656 17.7512 43.6814 17.4515 43.8683C15.4157 45.1398 9.97067 53.9914 8.83435 56.3664C8.11309 57.894 7.55219 59.493 7.1615 61.1369C6.17325 65.2488 5.84035 69.6663 5.55115 73.881C4.96248 82.465 5.79913 86.6167 11.3441 93.383C12.6245 94.9455 14.0796 96.4251 15.2699 98.0529C16.292 99.4504 16.8835 100.994 17.7826 102.444C17.9485 102.711 18.3006 103.272 18.6273 103.325C19.8213 103.521 21.7718 102.924 22.7123 102.17C23.1806 101.795 23.4689 101.325 23.6683 100.764C23.9617 99.9372 23.9604 98.9703 24.0834 98.1056C24.3355 96.336 24.9066 94.6546 24.4213 92.8478C23.8915 90.876 22.5763 89.0402 21.6986 87.2033C19.1979 81.9693 17.0618 74.7543 17.7406 68.9503C18.0827 66.0256 18.8922 62.6813 21.3246 60.7892C23.4335 59.1488 25.8397 58.7853 28.3754 59.4386C31.7351 60.3042 34.5738 61.8157 36.9359 64.4083C38.8434 66.5023 40.5021 68.6751 43.0804 69.9972C45.3433 71.1574 46.9653 70.7904 49.2982 71.0919C52.173 71.4636 54.5055 73.6982 56.1888 75.9171C59.2238 79.9183 56.8674 81.8336 57.9437 85.7248C58.2583 86.8619 59.7251 88.5157 59.5677 89.6515C59.3948 89.8821 59.2648 89.9674 58.9945 90.0646C57.3637 90.0816 55.7366 86.3052 55.224 85.007C54.7313 83.7591 54.3404 82.4413 53.7709 81.2277C52.3366 78.1727 49.2635 77.228 46.4076 75.9562C45.2041 75.4202 44.0525 74.9048 43.0814 73.9865C41.92 72.8875 41.0623 71.5239 40.1293 70.2365C38.8358 68.4518 37.4337 66.7014 35.7826 65.2326C33.1465 62.8876 29.5809 60.613 25.892 60.8595C24.1036 60.9792 22.2674 61.8812 21.0941 63.2374C19.6786 64.8737 19.1472 67.0466 18.8773 69.1437C18.1969 74.4322 20.0101 79.5513 23.0824 83.8048C25.6571 87.3696 28.1059 89.7312 28.3929 94.3732C28.6689 98.8339 26.6343 102.615 23.2748 105.438C22.1157 106.411 20.7419 107.262 19.7474 108.406C17.9187 110.512 17.6493 113.994 17.2269 116.632C16.8456 119.014 15.987 121.48 16.1176 123.907C16.191 125.274 16.6989 126.705 17.1693 127.98C18.1688 130.688 19.5659 133.201 21.1605 135.602C24.1284 140.07 28.4906 144.61 28.9086 150.209C29.1952 153.726 27.802 157.173 25.1517 159.502C23.8419 160.637 22.3882 161.577 21.2572 162.911C19.3163 165.201 18.6072 168.498 18.8578 171.444C19.0455 173.651 19.845 175.488 21.5697 176.911C23.5774 178.568 25.5936 178.904 28.1019 178.657C29.9035 178.48 41.5508 176.179 42.431 175.223C43.5915 173.961 45.0814 164.614 46.3392 161.778C47.9786 158.083 50.5149 156.027 52.7719 152.928C53.4374 152.014 53.8475 150.769 54.5687 149.95C54.7777 149.713 54.8961 149.638 55.2064 149.611C55.288 149.679 55.3666 149.741 55.4261 149.83C55.771 150.345 55.4848 151.136 55.2689 151.648C54.7687 152.834 53.8488 153.951 53.1527 155.038C51.6647 157.361 50.1115 159.779 48.9164 162.268C48.5512 163.028 48.1429 163.894 48.0052 164.73C47.6048 167.161 49.1715 170.902 49.0687 173.677C49.0141 175.148 48.4246 176.609 48.0394 178.017C47.432 180.238 47.9808 181.922 49.0931 183.865C49.8962 185.267 50.8405 186.584 51.766 187.908C53.6855 190.653 55.4596 193.133 58.4222 194.844C60.1011 195.814 61.9685 196.448 63.5199 197.636C64.9691 198.747 66.1 200.771 67.8607 201.39C69.309 201.898 70.7585 201.18 72.2347 201.3C72.9605 201.359 73.6841 201.728 74.389 201.908C76.8717 202.545 79.4093 198.429 81.2865 197.18C82.96 196.067 84.8594 195.323 86.5726 194.277C87.4661 193.729 88.2888 193.099 89.0062 192.333C90.4562 190.784 91.5153 188.906 92.8402 187.254C94.3469 185.377 96.2612 183.731 97.557 181.7C98.2149 180.654 98.6978 179.507 98.9857 178.305C99.8356 174.655 98.0324 171.768 96.1879 168.806C94.5265 166.138 93.2751 165.208 90.1986 164.493C89.9047 164.492 89.6097 164.494 89.3158 164.5C87.5334 164.53 85.4922 164.37 84.1566 163.036C83.6622 162.543 83.3023 161.685 83.3334 160.983C83.4371 158.663 87.5135 159.178 89.0336 158.627C89.8055 158.347 90.4473 157.735 91.057 157.203L91.1205 157.091C92.1633 155.239 90.893 150.262 90.3285 148.317C89.9139 146.888 89.3348 145.522 88.5121 144.278C88.1787 143.775 87.731 143.296 87.4574 142.76C87.3141 142.479 87.2706 142.201 87.2719 141.888L87.4144 141.636C87.7377 141.562 87.9337 141.615 88.2201 141.786C89.3432 142.46 90.1711 143.72 90.7455 144.866C91.6591 146.69 92.1756 148.742 92.7787 150.684L95.3139 158.86C95.946 160.891 96.5417 162.96 97.3715 164.921C98.6493 167.941 100.644 171.065 102.862 173.484C104.82 175.619 107.121 177.337 109.95 178.094C111.984 178.639 114.291 178.908 116.359 178.423C117.163 178.228 117.938 177.929 118.663 177.531C119.391 177.073 121.238 175.663 122.048 175.732C121.56 176.477 120.598 177.154 119.905 177.72C119.859 177.761 119.811 177.802 119.763 177.842C116.794 180.307 112.181 181.96 108.328 181.072C106.461 180.642 104.809 179.813 102.865 179.643C101.745 180.266 100.845 181.206 100.463 182.453C100.214 183.268 100.226 184.101 100.649 184.857C101.556 186.477 104.014 187.522 105.755 187.993C106.904 188.305 108.185 188.535 109.377 188.529C110.509 188.526 116.871 187.562 117.776 187.021C118.528 186.571 119.199 185.762 119.681 185.042C120.881 183.249 123.524 177.585 124.018 175.539C125.036 171.324 124.141 165.867 120.914 162.779C118.936 160.887 116.915 159.886 115.421 157.439C112.073 151.951 114.85 145.672 118.121 140.929C119.3 139.22 120.674 137.651 121.847 135.941C124.134 132.606 126.27 129.098 127.228 125.131C127.477 124.099 127.606 123.106 127.53 122.04C127.357 119.63 125.527 112.234 124.67 109.874C124.344 108.975 123.958 108.093 123.366 107.333C121.431 104.854 118.535 103.556 116.641 100.433C114.661 97.1684 115.222 92.4176 117.133 89.2218C118.18 87.4716 119.624 85.9771 120.703 84.2414C122.248 81.7593 123.479 79.0913 124.177 76.2462C125.14 72.322 125.327 67.1424 123.114 63.5685C122.12 61.9651 120.447 61.0202 118.639 60.6076C113.195 59.3656 107.41 62.7538 103.083 65.6896C101.776 66.5767 100.549 67.6109 99.1986 68.4289C97.8408 69.251 96.1926 69.3991 94.8451 70.2541C90.681 72.8972 92.9104 78.6089 93.5033 82.4874C93.9365 85.3218 94.2094 88.385 93.5599 91.2082C93.0078 93.6073 91.1302 96.761 88.9847 98.0558C88.6346 98.2671 88.3229 98.379 87.9135 98.2794C87.6603 98.1156 87.4738 97.9036 87.4076 97.5988C87.352 97.3413 87.4277 97.2012 87.5834 97.008C87.894 96.6222 88.4681 96.2735 88.8637 95.963C89.7502 95.2669 90.5023 94.3425 91.0599 93.3664C93.8429 88.4945 91.7232 82.6286 90.3558 77.6916C89.2668 73.7596 90.4227 69.6711 94.181 67.6486C95.9827 66.6791 97.9724 66.7305 99.0805 64.716C100.805 61.5806 97.3469 56.9979 95.3265 54.7345C93.737 52.9536 91.467 51.2774 90.5814 49.0128C89.719 46.8077 90.0605 44.4999 89.8305 42.2111C89.6977 40.889 89.3211 39.6432 88.9437 38.3742C84.8403 38.393 77.7811 39.545 74.1049 37.9044C72.8967 37.3653 71.9258 36.4841 70.9301 35.6349ZM120.59 144.908C120.383 144.905 120.136 144.896 119.94 144.968C118.762 145.397 117.641 148.233 117.093 149.314C115.326 152.797 116.886 156.365 119.38 159.034C120.454 160.184 121.707 161.132 122.673 162.389C123.702 163.727 124.399 165.287 124.915 166.886C126.788 172.681 125.647 176.884 123.33 182.296C122.553 184.113 121.787 185.967 120.886 187.728C119.408 190.614 117.507 192.983 114.302 194C111.734 194.814 107.865 195.175 105.463 193.766C104.242 193.047 103.217 191.865 102.252 190.847C101.425 189.974 100.53 188.883 99.4418 188.336C98.8104 188.017 98.1668 187.954 97.4945 188.181C95.3372 188.907 91.9916 192.044 90.9974 194.1C90.9942 194.118 90.9911 194.134 90.9877 194.152C90.895 194.622 90.8952 194.958 91.058 195.413C91.8307 197.568 95.1092 198.839 97.2474 198.911C98.427 198.95 99.6193 198.714 100.787 198.561C102.622 198.321 104.428 198.117 106.284 198.152C109.79 198.222 113.329 198.902 116.515 200.373C122.987 192.021 129.042 182.969 129.107 172.004C129.125 168.908 128.714 165.866 127.668 162.941C127.114 161.388 126.354 159.803 125.547 158.366C124.662 156.79 123.149 155.168 122.832 153.362C122.602 152.052 123.375 150.679 123.578 149.395C123.666 148.842 123.601 148.254 123.554 147.698C122.755 146.517 121.823 145.624 120.59 144.908ZM23.6527 144.413C23.3116 144.417 23.0138 144.45 22.6927 144.569C21.1026 145.158 19.9096 146.615 19.2279 148.113C19.5247 149.269 19.9548 150.456 20.1215 151.634C20.5309 154.531 18.3607 156.45 16.7816 158.548C13.9127 162.361 13.777 168.783 14.4261 173.302C14.8351 176.149 15.3802 179.147 16.3383 181.86C18.1855 187.089 21.3993 192.141 24.6693 196.599C25.3831 197.573 26.0935 198.708 27.0668 199.438C28.1937 199.345 29.2905 198.977 30.389 198.723C32.3436 198.27 34.5735 197.852 36.5707 197.787C38.0085 197.739 39.4481 197.802 40.8763 197.975C43.495 198.317 45.6826 199.019 48.306 198.233C49.7843 197.791 51.7158 197.008 52.4633 195.575C53.9619 192.698 48.8837 189.815 47.5599 187.929C46.4579 186.358 45.9474 184.26 45.3705 182.452C44.8695 180.889 44.1884 179.833 42.9867 178.716C40.0066 179.309 37.7265 180.28 34.4896 180.632C31.0665 181.005 23.9954 181.155 21.1947 178.913C21.5466 179.455 21.9263 179.987 22.2328 180.557C23.1969 182.35 24.8242 186.416 26.639 187.411C27.8066 188.05 29.4254 187.605 30.5326 188.417C31.0634 188.806 31.3095 189.757 31.3988 190.379C31.5072 191.138 31.4843 192.322 30.9681 192.943C30.6853 193.283 30.3137 193.404 29.8851 193.422C28.4297 193.479 27.0489 192.78 26.0209 191.789C23.8701 189.717 22.8934 186.619 21.6674 183.976C20.237 180.89 18.7126 177.953 17.8265 174.644C17.5333 173.549 17.4375 172.37 17.4222 171.238C17.3761 167.833 18.253 164.143 20.4633 161.492C21.2514 160.547 22.2288 159.781 23.0844 158.901C24.7721 157.163 26.6503 154.161 26.5844 151.685C26.5582 150.715 24.7921 146.098 24.2572 145.124C24.1045 144.847 23.8827 144.627 23.6527 144.413ZM126.114 42.6496C125.861 42.6775 125.668 42.8481 125.499 43.0285C124.303 44.3113 124.209 46.4299 124.748 48.0128C125.279 49.5713 126.425 50.8641 127.292 52.2433C129.836 56.2857 134.496 63.6881 134.573 68.3849C134.609 70.657 134.328 72.9652 134.057 75.2189C133.519 79.6846 132.839 85.649 129.521 89.0207C128.946 89.6048 128.115 90.151 127.261 90.1154C126.867 90.099 126.505 89.9443 126.246 89.6437C124.283 87.3594 129.209 79.1522 130.26 76.758C131.212 74.5912 132.381 71.7627 132.481 69.3751C132.534 68.0971 132.151 66.7475 131.817 65.5236C130.532 60.819 128.833 57.5007 126.062 53.548C125.389 52.5886 124.74 51.5426 123.948 50.6818L123.849 50.5763C122.33 51.4525 121.167 52.6481 119.524 53.3908C116.868 54.591 112.405 55.5698 109.59 54.4513C109.167 54.2832 108.875 54.0034 108.706 53.5773C108.622 53.3635 108.593 53.1214 108.696 52.9083C109.453 51.3391 113.766 52.2176 115.214 51.9923C116.751 51.753 118.438 51.1034 119.878 50.5236C120.982 50.0795 122.726 49.2852 123.162 48.0919C123.311 47.6861 123.155 47.2695 122.986 46.8986C122.698 46.2668 122.176 45.4881 121.469 45.2707C120.358 44.9292 117.275 46.4502 115.987 46.755C114.633 47.075 113.468 46.8306 112.144 46.5275C108.225 45.6297 105.873 46.5459 102.46 48.3175C101.237 49.0303 99.964 50.079 99.1596 51.2433C98.5657 52.103 98.2262 53.0881 98.4271 54.1349C98.8901 56.5462 100.947 58.8733 102.952 60.2121C105.732 62.0683 108.521 59.9362 111.067 58.7433C112.059 58.2801 113.105 57.9387 114.179 57.7257C116.957 57.2003 119.783 57.9385 122.087 59.5373C124.423 61.158 125.475 63.7095 125.929 66.421C127.067 73.2134 125.021 80.0397 122.306 86.2287C121.366 88.3722 119.655 90.3505 119.094 92.6339C118.635 94.5047 119.194 97.1448 119.548 99.0382C119.699 99.8399 119.996 100.852 120.708 101.322C121.597 101.91 123.755 102.632 124.822 102.421C125.699 101.908 126.427 99.2839 127.143 98.2863C130.094 94.1722 134.471 91.1758 136.876 86.6662C137.833 84.8719 138.347 82.9355 138.592 80.923C139.236 75.6405 138.157 63.8108 136.617 58.8029C135.422 54.9207 133.161 51.8198 131.018 48.4386C130.121 47.0232 129.334 45.4628 128.202 44.2189C127.587 43.5433 126.917 43.0761 126.114 42.6496ZM113.212 30.5304C108.905 30.0929 105.152 32.8701 101.098 33.7882C99.0102 34.261 96.2891 33.8933 94.3861 34.9015C93.6135 35.311 92.4439 36.3037 92.226 37.1886C92.0182 38.0334 92.5976 38.7713 92.9926 39.4621C93.7915 40.8602 93.2714 41.9175 92.8851 43.3439C92.4007 45.1323 92.2195 47.0647 93.2103 48.7384C93.5245 49.2688 94.1164 49.8577 94.7396 49.9894C96.4531 50.3505 99.3058 48.128 100.709 47.1994C104.433 44.8915 106.99 43.1495 111.61 44.2228C113.086 44.5657 114.54 44.9645 116.07 44.9445C119.261 44.9026 122.944 43.5581 125.173 41.2853C123.982 39.7464 122.37 38.4998 121.028 37.091C118.566 34.5057 117.161 31.0866 113.212 30.5304Z" fill="white"/>
<path d="M135.357 160.808C135.4 161.193 135.394 161.464 135.317 161.844C134.738 165.761 134.416 169.668 134.611 173.631C134.814 177.769 135.525 181.997 134.983 186.127C134.577 189.214 133.022 191.753 131.829 194.562C130.874 196.859 130.319 199.301 130.19 201.784C126.586 205.697 122.763 209.028 120.012 213.69C118.482 216.283 117.306 219.411 115.982 222.408L110.886 224.944C111.331 224.322 111.758 223.688 112.162 223.045C114.005 220.107 115.222 216.769 116.912 213.739C118.013 211.765 119.432 209.978 120.546 208.011C122.52 204.528 124.172 200.863 126.174 197.393C128.303 193.705 131.034 190.495 132.099 186.275C133.497 180.733 132.827 174.725 133.396 169.072C133.663 166.415 134.346 163.919 135.134 161.375C135.178 161.17 135.191 160.952 135.357 160.808Z" fill="white"/>
<path d="M0.803101 151.162C0.845732 151.37 0.891908 151.578 0.945679 151.784C1.69023 154.644 3.35152 157.257 4.38416 160.023C5.42787 162.819 5.94055 165.848 6.2406 168.808C6.57456 172.104 6.41342 175.41 6.24451 178.711C6.07357 182.054 5.20467 187.442 6.27283 190.542C7.57239 194.314 15.6183 202.226 18.5795 205.488C20.6057 207.721 22.6868 210.146 24.35 212.658C26.8537 216.44 27.5353 220.484 29.3295 224.19L26.4222 222.743C25.8489 220.973 25.3322 219.227 24.7357 217.792C23.749 215.392 22.5943 213.015 21.1996 210.814C18.558 206.643 14.9334 203.084 11.7552 199.319C9.73403 196.923 6.89442 194.875 5.41736 192.051C4.12411 189.579 4.58791 186.829 4.76013 184.184C5.54303 172.197 6.51656 164.923 0.803101 155.518V151.162Z" fill="white"/>
<path d="M0.803101 161.544C2.11468 165.274 2.53696 169.229 2.72986 173.326C2.84848 175.848 2.9112 178.366 2.59216 180.877C2.15376 184.328 0.954249 188.393 1.89294 191.799C2.61967 194.437 5.20972 196.315 6.87341 198.336C7.98575 199.688 8.89781 201.197 10.0267 202.541C12.1983 205.125 14.5875 207.548 16.7123 210.162C17.9999 211.748 19.1467 213.52 20.2406 215.244C20.9562 216.373 21.5554 217.559 22.0863 218.778C22.4092 219.52 22.7056 220.274 22.9886 221.034L20.7699 219.931C20.7875 219.655 20.7338 219.385 20.6654 219.077C20.5569 218.589 20.4394 218.08 20.2162 217.631C19.4387 216.069 18.1826 214.653 17.0736 213.312C15.4971 211.405 13.8935 209.495 12.2181 207.677C10.9183 206.266 9.53483 204.921 8.26404 203.485C6.31229 201.28 4.56023 198.097 1.98962 196.565C1.7358 196.414 1.65522 196.406 1.37537 196.472L1.3031 196.789C1.43444 197.426 1.64612 197.95 1.93103 198.533C2.99662 200.445 4.30274 202.219 5.3031 204.164C6.22645 205.96 6.92594 207.879 7.7699 209.714C8.56959 211.454 9.61167 213.293 10.8246 214.982L5.24646 212.206C5.1199 211.274 4.97812 210.364 4.79919 209.489C4.34512 207.272 3.45202 205.198 2.76111 203.05C2.27359 201.536 1.95662 199.976 1.47595 198.458C1.38054 197.987 1.22879 197.516 1.10095 197.052C1.00127 196.646 0.901336 196.236 0.803101 195.823V182.187C1.06415 181.097 1.32503 180.008 1.52185 178.915C2.03211 176.082 1.67363 172.109 0.803101 168.455V161.544Z" fill="white"/>
<path d="M140.93 200.219C140.123 201.923 139.351 203.677 138.413 205.312C136.985 207.8 134.499 211.348 131.993 214.442L122.814 219.009C122.798 218.565 122.886 218.115 123.068 217.604C123.652 215.962 124.785 214.398 125.91 213.085C128.134 210.486 130.992 208.539 133.306 206.03C134.669 204.552 138.52 199.905 140.93 197.603V200.219Z" fill="white"/>
<path d="M140.93 208.106C140.93 208.673 140.772 209.23 140.473 209.712C140.174 210.195 139.747 210.584 139.239 210.837L139.075 210.918C139.606 208.798 139.635 207.169 140.225 205.064C140.239 205.016 140.917 204.527 140.93 204.479V208.106Z" fill="white"/>
<path d="M8.6322 161.486C13.1198 170.88 8.19899 181.097 14.0375 190.253C14.9228 191.642 16.0711 192.792 17.1312 194.04C18.3909 195.547 19.4583 197.206 20.308 198.976C20.5355 199.456 20.9135 200.123 20.8148 200.653L20.6556 200.618C16.4721 195.855 9.81544 191.25 8.86365 184.518C8.59397 182.607 8.84148 180.49 8.96619 178.566C9.22036 175.092 9.28141 171.607 9.1488 168.127C9.09262 166.832 8.49479 162.301 8.6322 161.486Z" fill="white"/>
<path d="M140.93 159.786C140.454 160.804 140.039 161.839 139.71 162.89C137.981 168.412 138.33 174.755 138.771 180.473C139.311 187.475 140.708 192.589 135.381 198.213C134.704 199.134 134.002 199.7 133.007 200.236C133.512 199.245 134.04 198.34 134.775 197.494C136.209 195.361 137.343 193.267 137.827 190.716C138.501 187.154 137.819 183.174 137.554 179.572C137.174 174.397 137.253 169.284 138.309 164.183C138.771 161.953 139.336 159.756 140.26 157.668C140.46 157.216 140.688 156.765 140.93 156.312V159.786Z" fill="white"/>
<path d="M5.85095 150.322C6.69722 150.322 8.2158 150.57 8.1488 151.516C7.97694 153.943 7.79329 156.309 7.95447 158.743L7.97791 159.221L7.8949 159.305C7.49434 158.769 7.27819 158.093 6.94177 157.511C6.07143 156.004 4.92072 154.455 4.25427 152.853C4.09572 152.471 3.98432 152.051 4.03552 151.636C4.08404 151.242 4.25481 150.928 4.58533 150.701C4.92308 150.47 5.44759 150.353 5.85095 150.322Z" fill="white"/>
<path d="M138.057 150.783C138.388 150.99 138.657 151.138 138.836 151.503C139.021 152.843 137.382 154.139 136.866 155.316C136.813 155.436 136.757 155.554 136.706 155.676C136.44 154.585 135.505 152.42 136.165 151.422C136.387 151.087 136.793 150.872 137.186 150.813C137.467 150.77 137.773 150.776 138.057 150.783Z" fill="white"/>
<path d="M140.93 96.6554C140.06 98.191 139.119 99.6724 138.176 101.038C137.34 102.25 135.176 104.939 134.739 106.162C135.573 108.433 138.33 111.52 140.93 113.627V118.954C140.247 118.773 139.527 118.378 138.762 117.729C136.254 115.598 134.782 111.484 133.05 108.67C132.184 107.263 130.757 104.968 130.681 103.342C130.562 100.775 134.654 98.5441 136.179 96.757C138.121 94.9657 139.748 93.1583 140.93 91.0988V96.6554Z" fill="white"/>
<path d="M36.7875 2.88296C35.9829 3.64363 35.1825 4.50873 34.267 5.58022C33.1874 6.77786 32.1341 8.32963 30.8236 9.28823C27.3728 11.8045 23.2322 12.6098 19.6156 14.9455C13.7041 18.7634 9.68846 24.5445 5.56091 30.0871C3.94551 32.2562 2.3408 34.2176 0.803101 36.299V34.0255C2.09144 32.5163 3.41866 31.1101 4.50818 29.5148C8.36232 23.6667 11.3041 18.1632 17.1781 13.9328C21.3027 10.9625 26.6101 10.8439 30.5502 8.00015C31.9023 7.02416 34.0174 4.74904 35.6029 2.79018L36.7875 2.88296Z" fill="white"/>
<path d="M101.912 9.90542C107.35 7.52118 112.624 7.17097 118.373 8.78433C120.407 9.3452 122.355 10.1854 124.159 11.2804C130.773 15.3461 136.534 23.0926 140.93 29.8478V34.1056C139.809 32.2908 138.6 30.5312 137.299 28.8322C134.858 25.7035 132.144 22.7979 129.188 20.1505C121.166 12.9429 114.118 10.2849 103.216 12.3107C100.046 12.8998 91.067 15.3711 88.4037 12.8751C87.9329 12.4331 87.8515 10.4171 88.7416 10.133C90.7684 9.48649 92.6848 12.282 94.9066 11.8849C97.4146 11.6422 99.5777 10.8242 101.912 9.90542Z" fill="white"/>
<path d="M68.9828 5.41714C70.2347 5.51581 71.4984 5.51582 72.7504 5.41714L74.1566 5.30581C74.0124 5.77955 73.8468 6.2796 73.6576 6.82339C71.4182 13.2606 72.5985 17.9743 75.2084 24.1046C76.2096 26.4562 76.7715 28.7903 75.016 31.0207C74.4578 31.117 73.9053 31.2262 73.3392 31.2501C69.5668 28.4071 72.4695 22.2204 71.7181 18.3644C70.6338 12.8011 68.1826 9.69123 67.5394 5.30288L68.9828 5.41714Z" fill="white"/>
<path d="M23.9388 1.87222C22.793 2.92162 21.8451 4.15731 20.4506 5.23061C17.679 7.36365 14.3485 8.39584 11.6381 10.9113C8.63745 13.6961 7.84165 16.5922 6.38318 20.2472C5.90629 21.4425 5.24661 22.5294 4.66638 23.6583C3.50443 25.9193 2.16343 28.0344 0.803101 30.1476V4.54214C0.803101 3.38732 0.803101 2.03562 1.7074 1.1542C2.49905 0.382572 3.66898 0.380029 4.97888 0.380029L23.9388 1.87222Z" fill="white"/>
<path d="M120.389 3.21792C126.229 6.01968 125.099 5.77123 128.381 6.63784C131.831 7.54872 135.194 5.0044 137.469 7.58999C139.4 9.78442 138.457 12.2213 138.551 14.6632C138.642 17.0102 139.625 19.3494 140.93 21.5578V25.6359C140.45 24.8168 139.993 24.0051 139.597 23.2218C136.98 18.048 136.019 13.8373 130.943 10.4152C128.147 8.53041 125.541 7.88052 122.615 6.35464C114.863 2.31303 108.119 5.14978 100.098 6.47183C97.1413 6.63821 92.0752 8.43953 90.1654 4.82436C90.0422 4.591 89.9642 4.33575 89.9222 4.06558C89.9222 4.06558 114.548 0.416161 120.389 3.21792Z" fill="white"/>
<path d="M139.046 0.200341C139.286 0.181448 139.528 0.212289 139.755 0.291161C139.983 0.370044 140.192 0.494971 140.369 0.658349C140.545 0.821892 140.687 1.02062 140.784 1.24136C140.88 1.46207 140.93 1.70065 140.93 1.94155V2.56948C141.396 4.53574 134.565 1.84721 133.504 1.45678C132.917 1.24058 133.504 0.416161 136.299 0.416161L139.046 0.200341Z" fill="white"/>
</svg>
