<?xml version="1.0" encoding="utf-8" standalone="no"?>
<!DOCTYPE svg PUBLIC "-//W3C//DTD SVG 1.1//EN" "http://www.w3.org/Graphics/SVG/1.1/DTD/svg11.dtd">
<svg version="1.1" width="595.2pt" height="841.7pt" viewBox="0 0 595.2 841.68" xmlns="http://www.w3.org/2000/svg">
  <defs />
  <g id="pcb">
    <path d="M107.92762,566.0867 L99.0589,510.09177 L150.43263,488.65338 L164.17876,313.94073 L270.47794,313.94073 L276.7383,275.59326 L333.35352,278.56036 L334.00937,293.83603 L391.84003,299.9526 L391.15277,343.72552 L496.1411,360.36804 L480.42654,560.09973 L325.83548,535.6149 L300.3187,535.6149 z" stroke="#0043FF" stroke-width="0.24" stroke-linecap="round" stroke-linejoin="round" fill="none" />
  </g>
  <g id="keycaps">
    <path d="M271.26126,434.26425 L322.21494,436.93463 L324.8853,385.9809 L273.9316,383.31055 z" stroke="#00FFFF" stroke-width="0.24" stroke-linecap="round" stroke-linejoin="round" fill="none" />
    <path d="M374.52176,448.72968 L424.91718,456.71155 L432.89905,406.3161 L382.5036,398.33426 z" stroke="#00FFFF" stroke-width="0.24" stroke-linecap="round" stroke-linejoin="round" fill="none" />
    <path d="M366.31818,500.525 L416.71362,508.50687 L424.69547,458.11142 L374.30005,450.12958 z" stroke="#00FFFF" stroke-width="0.24" stroke-linecap="round" stroke-linejoin="round" fill="none" />
    <path d="M332.6471,347.8861 L383.39117,353.2195 L388.7246,302.4754 L337.9805,297.14197 z" stroke="#00FFFF" stroke-width="0.24" stroke-linecap="round" stroke-linejoin="round" fill="none" />
    <path d="M327.1655,400.03976 L377.9096,405.37317 L383.24304,354.62906 L332.49893,349.29565 z" stroke="#00FFFF" stroke-width="0.24" stroke-linecap="round" stroke-linejoin="round" fill="none" />
    <path d="M321.68393,452.19342 L372.42807,457.52686 L377.76147,406.78275 L327.01733,401.44934 z" stroke="#00FFFF" stroke-width="0.24" stroke-linecap="round" stroke-linejoin="round" fill="none" />
    <path d="M276.75037,329.5261 L327.70404,332.19647 L330.37442,281.24277 L279.42072,278.57242 z" stroke="#00FFFF" stroke-width="0.24" stroke-linecap="round" stroke-linejoin="round" fill="none" />
    <path d="M382.7253,396.9344 L433.12076,404.91623 L441.1026,354.5208 L390.70715,346.53894 z" stroke="#00FFFF" stroke-width="0.24" stroke-linecap="round" stroke-linejoin="round" fill="none" />
    <path d="M274.0058,381.89517 L324.9595,384.56555 L327.62985,333.61185 L276.67618,330.9415 z" stroke="#00FFFF" stroke-width="0.24" stroke-linecap="round" stroke-linejoin="round" fill="none" />
    <path d="M418.1135,508.72858 L468.5089,516.71045 L476.49075,466.315 L426.09534,458.33313 z" stroke="#00FFFF" stroke-width="0.24" stroke-linecap="round" stroke-linejoin="round" fill="none" />
    <path d="M219.45433,420.23993 L270.47794,420.23993 L270.47794,369.21634 L219.45433,369.21634 z" stroke="#00FFFF" stroke-width="0.24" stroke-linecap="round" stroke-linejoin="round" fill="none" />
    <path d="M219.45433,472.68088 L270.47794,472.68088 L270.47794,421.65726 L219.45433,421.65726 z" stroke="#00FFFF" stroke-width="0.24" stroke-linecap="round" stroke-linejoin="round" fill="none" />
    <path d="M160.67937,554.86163 L152.69753,504.46622 L102.30208,512.4481 L110.283936,562.8435 z" stroke="#00FFFF" stroke-width="0.24" stroke-linecap="round" stroke-linejoin="round" fill="none" />
    <path d="M212.47467,546.65814 L204.49283,496.2627 L154.09738,504.2445 L162.07925,554.63995 z" stroke="#00FFFF" stroke-width="0.24" stroke-linecap="round" stroke-linejoin="round" fill="none" />
    <path d="M167.01338,367.799 L218.03702,367.799 L218.03702,316.7754 L167.01338,316.7754 z" stroke="#00FFFF" stroke-width="0.24" stroke-linecap="round" stroke-linejoin="round" fill="none" />
    <path d="M167.01338,420.23993 L218.03702,420.23993 L218.03702,369.21634 L167.01338,369.21634 z" stroke="#00FFFF" stroke-width="0.24" stroke-linecap="round" stroke-linejoin="round" fill="none" />
    <path d="M167.01338,472.68088 L218.03702,472.68088 L218.03702,421.65726 L167.01338,421.65726 z" stroke="#00FFFF" stroke-width="0.24" stroke-linecap="round" stroke-linejoin="round" fill="none" />
    <path d="M434.52063,405.13797 L484.91608,413.1198 L492.8979,362.72437 L442.5025,354.74252 z" stroke="#00FFFF" stroke-width="0.24" stroke-linecap="round" stroke-linejoin="round" fill="none" />
    <path d="M264.27,538.4545 L256.28812,488.0591 L205.8927,496.041 L213.87456,546.4364 z" stroke="#00FFFF" stroke-width="0.24" stroke-linecap="round" stroke-linejoin="round" fill="none" />
    <path d="M219.45433,367.799 L270.47794,367.799 L270.47794,316.7754 L219.45433,316.7754 z" stroke="#00FFFF" stroke-width="0.24" stroke-linecap="round" stroke-linejoin="round" fill="none" />
    <path d="M426.31705,456.93326 L476.7125,464.91513 L484.69437,414.51965 L434.2989,406.5378 z" stroke="#00FFFF" stroke-width="0.24" stroke-linecap="round" stroke-linejoin="round" fill="none" />
    <path d="M418.1135,508.72858 L468.5089,516.71045 L476.49075,466.315 L426.09534,458.33313 z" stroke="#00FFFF" stroke-width="0.24" stroke-linecap="round" stroke-linejoin="round" fill="none" />
  </g>
  <path d="M249.25458,517.24774 A14.173228,14.173228 0 0 0 235.08134,503.07452 A14.173228,14.173228 0 0 0 220.90811,517.24774 A14.173228,14.173228 0 0 0 235.08134,531.42096 A14.173228,14.173228 0 0 0 249.25458,517.24774 A14.173228,14.173228 0 0 0 192.5252,432.99585 A14.173228,14.173228 0 0 0 178.35197,447.16907 A14.173228,14.173228 0 0 0 192.5252,461.34232 A14.173228,14.173228 0 0 0 206.69843,447.16907 A14.173228,14.173228 0 0 0 192.5252,380.5549 A14.173228,14.173228 0 0 0 178.35197,394.72815 A14.173228,14.173228 0 0 0 192.5252,408.90137 A14.173228,14.173228 0 0 0 206.69843,394.72815 A14.173228,14.173228 0 0 0 192.5252,328.11395 A14.173228,14.173228 0 0 0 178.35197,342.2872 A14.173228,14.173228 0 0 0 192.5252,356.46042 A14.173228,14.173228 0 0 0 206.69843,342.2872 A14.173228,14.173228 0 0 0 183.28604,511.27808 A14.173228,14.173228 0 0 0 169.11281,525.4513 A14.173228,14.173228 0 0 0 183.28604,539.6246 A14.173228,14.173228 0 0 0 197.45926,525.4513 A14.173228,14.173228 0 0 0 131.49072,519.4817 A14.173228,14.173228 0 0 0 117.3175,533.6549 A14.173228,14.173228 0 0 0 131.49072,547.8281 A14.173228,14.173228 0 0 0 145.66396,533.6549 A14.173228,14.173228 0 0 0 244.96614,432.99585 A14.173228,14.173228 0 0 0 230.79292,447.16907 A14.173228,14.173228 0 0 0 244.96614,461.34232 A14.173228,14.173228 0 0 0 259.13937,447.16907 A14.173228,14.173228 0 0 0 244.96614,380.5549 A14.173228,14.173228 0 0 0 230.79292,394.72815 A14.173228,14.173228 0 0 0 244.96614,408.90137 A14.173228,14.173228 0 0 0 259.13937,394.72815 A14.173228,14.173228 0 0 0 244.96614,328.11395 A14.173228,14.173228 0 0 0 230.79292,342.2872 A14.173228,14.173228 0 0 0 244.96614,356.46042 A14.173228,14.173228 0 0 0 259.13937,342.2872 A14.173228,14.173228 0 0 0 298.07327,395.94934 A14.173228,14.173228 0 0 0 283.90005,410.1226 A14.173228,14.173228 0 0 0 298.07327,424.2958 A14.173228,14.173228 0 0 0 312.24652,410.1226 A14.173228,14.173228 0 0 0 300.81784,343.5803 A14.173228,14.173228 0 0 0 286.6446,357.7535 A14.173228,14.173228 0 0 0 300.81784,371.92673 A14.173228,14.173228 0 0 0 314.99106,357.7535 A14.173228,14.173228 0 0 0 303.56238,291.2112 A14.173228,14.173228 0 0 0 289.38916,305.38443 A14.173228,14.173228 0 0 0 303.56238,319.55765 A14.173228,14.173228 0 0 0 317.7356,305.38443 A14.173228,14.173228 0 0 0 349.7227,415.31485 A14.173228,14.173228 0 0 0 335.54947,429.4881 A14.173228,14.173228 0 0 0 349.7227,443.66132 A14.173228,14.173228 0 0 0 363.89594,429.4881 A14.173228,14.173228 0 0 0 355.20428,363.1612 A14.173228,14.173228 0 0 0 341.03104,377.3344 A14.173228,14.173228 0 0 0 355.20428,391.50766 A14.173228,14.173228 0 0 0 369.3775,377.3344 A14.173228,14.173228 0 0 0 360.68585,311.00754 A14.173228,14.173228 0 0 0 346.5126,325.18076 A14.173228,14.173228 0 0 0 360.68585,339.35397 A14.173228,14.173228 0 0 0 374.85907,325.18076 A14.173228,14.173228 0 0 0 395.5068,465.145 A14.173228,14.173228 0 0 0 381.3336,479.3182 A14.173228,14.173228 0 0 0 395.5068,493.49142 A14.173228,14.173228 0 0 0 409.68005,479.3182 A14.173228,14.173228 0 0 0 403.7104,413.34967 A14.173228,14.173228 0 0 0 389.53717,427.5229 A14.173228,14.173228 0 0 0 403.7104,441.69614 A14.173228,14.173228 0 0 0 417.8836,427.5229 A14.173228,14.173228 0 0 0 411.91397,361.55435 A14.173228,14.173228 0 0 0 397.74072,375.7276 A14.173228,14.173228 0 0 0 411.91397,389.90082 A14.173228,14.173228 0 0 0 426.0872,375.7276 A14.173228,14.173228 0 0 0 447.30212,473.34854 A14.173228,14.173228 0 0 0 433.1289,487.5218 A14.173228,14.173228 0 0 0 447.30212,501.695 A14.173228,14.173228 0 0 0 461.47537,487.5218 A14.173228,14.173228 0 0 0 455.5057,421.55325 A14.173228,14.173228 0 0 0 441.33246,435.72647 A14.173228,14.173228 0 0 0 455.5057,449.8997 A14.173228,14.173228 0 0 0 469.67892,435.72647 A14.173228,14.173228 0 0 0 463.70926,369.75793 A14.173228,14.173228 0 0 0 449.53604,383.93115 A14.173228,14.173228 0 0 0 463.70926,398.1044 A14.173228,14.173228 0 0 0 477.8825,383.93115 A14.173228,14.173228 0 0 0 313.0771,488.94153 A14.173228,14.173228 0 0 0 298.90387,503.11478 A14.173228,14.173228 0 0 0 313.0771,517.28796 A14.173228,14.173228 0 0 0 327.2503,503.11478 A6.3779526,6.3779526 0 0 0 192.5252,460.63364 A6.3779526,6.3779526 0 0 0 186.14725,467.0116 A6.3779526,6.3779526 0 0 0 192.5252,473.38956 A6.3779526,6.3779526 0 0 0 198.90315,467.0116 A6.3779526,6.3779526 0 0 0 192.5252,408.1927 A6.3779526,6.3779526 0 0 0 186.14725,414.57065 A6.3779526,6.3779526 0 0 0 192.5252,420.9486 A6.3779526,6.3779526 0 0 0 198.90315,414.57065 A6.3779526,6.3779526 0 0 0 192.5252,355.75177 A6.3779526,6.3779526 0 0 0 186.14725,362.1297 A6.3779526,6.3779526 0 0 0 192.5252,368.50766 A6.3779526,6.3779526 0 0 0 198.90315,362.1297 A6.3779526,6.3779526 0 0 0 244.96614,460.63364 A6.3779526,6.3779526 0 0 0 238.5882,467.0116 A6.3779526,6.3779526 0 0 0 244.96614,473.38956 A6.3779526,6.3779526 0 0 0 251.3441,467.0116 A6.3779526,6.3779526 0 0 0 244.96614,408.1927 A6.3779526,6.3779526 0 0 0 238.5882,414.57065 A6.3779526,6.3779526 0 0 0 244.96614,420.9486 A6.3779526,6.3779526 0 0 0 251.3441,414.57065 A6.3779526,6.3779526 0 0 0 244.96614,355.75177 A6.3779526,6.3779526 0 0 0 238.5882,362.1297 A6.3779526,6.3779526 0 0 0 244.96614,368.50766 A6.3779526,6.3779526 0 0 0 251.3441,362.1297 A6.3779526,6.3779526 0 0 0 297.0348,423.55997 A6.3779526,6.3779526 0 0 0 290.65686,429.9379 A6.3779526,6.3779526 0 0 0 297.0348,436.31586 A6.3779526,6.3779526 0 0 0 303.41275,429.9379 A6.3779526,6.3779526 0 0 0 299.77936,371.1909 A6.3779526,6.3779526 0 0 0 293.4014,377.56885 A6.3779526,6.3779526 0 0 0 299.77936,383.94678 A6.3779526,6.3779526 0 0 0 306.15732,377.56885 A6.3779526,6.3779526 0 0 0 302.5239,318.8218 A6.3779526,6.3779526 0 0 0 296.14594,325.19977 A6.3779526,6.3779526 0 0 0 302.5239,331.5777 A6.3779526,6.3779526 0 0 0 308.90186,325.19977 A6.3779526,6.3779526 0 0 0 347.6486,442.84396 A6.3779526,6.3779526 0 0 0 341.27063,449.2219 A6.3779526,6.3779526 0 0 0 347.6486,455.59985 A6.3779526,6.3779526 0 0 0 354.02655,449.2219 A6.3779526,6.3779526 0 0 0 353.13016,390.69028 A6.3779526,6.3779526 0 0 0 346.7522,397.06824 A6.3779526,6.3779526 0 0 0 353.13016,403.4462 A6.3779526,6.3779526 0 0 0 359.50812,397.06824 A6.3779526,6.3779526 0 0 0 358.61172,338.53662 A6.3779526,6.3779526 0 0 0 352.2338,344.91458 A6.3779526,6.3779526 0 0 0 358.61172,351.2925 A6.3779526,6.3779526 0 0 0 364.9897,344.91458 A6.3779526,6.3779526 0 0 0 392.40277,492.53848 A6.3779526,6.3779526 0 0 0 386.0248,498.91644 A6.3779526,6.3779526 0 0 0 392.40277,505.2944 A6.3779526,6.3779526 0 0 0 398.78073,498.91644 A6.3779526,6.3779526 0 0 0 400.60632,440.74316 A6.3779526,6.3779526 0 0 0 394.2284,447.12112 A6.3779526,6.3779526 0 0 0 400.60632,453.49908 A6.3779526,6.3779526 0 0 0 406.98428,447.12112 A6.3779526,6.3779526 0 0 0 408.8099,388.94788 A6.3779526,6.3779526 0 0 0 402.43195,395.3258 A6.3779526,6.3779526 0 0 0 408.8099,401.70377 A6.3779526,6.3779526 0 0 0 415.18787,395.3258 A6.3779526,6.3779526 0 0 0 444.1981,500.74207 A6.3779526,6.3779526 0 0 0 437.82013,507.12 A6.3779526,6.3779526 0 0 0 444.1981,513.498 A6.3779526,6.3779526 0 0 0 450.57602,507.12 A6.3779526,6.3779526 0 0 0 452.40164,448.94675 A6.3779526,6.3779526 0 0 0 446.02368,455.3247 A6.3779526,6.3779526 0 0 0 452.40164,461.70264 A6.3779526,6.3779526 0 0 0 458.7796,455.3247 A6.3779526,6.3779526 0 0 0 460.60522,397.15143 A6.3779526,6.3779526 0 0 0 454.22726,403.5294 A6.3779526,6.3779526 0 0 0 460.60522,409.90735 A6.3779526,6.3779526 0 0 0 466.9832,403.5294 A6.3779526,6.3779526 0 0 0 238.1854,530.468 A6.3779526,6.3779526 0 0 0 231.80745,536.84595 A6.3779526,6.3779526 0 0 0 238.1854,543.22394 A6.3779526,6.3779526 0 0 0 244.56335,536.84595 A6.3779526,6.3779526 0 0 0 186.39009,538.6716 A6.3779526,6.3779526 0 0 0 180.01215,545.04956 A6.3779526,6.3779526 0 0 0 186.39009,551.4275 A6.3779526,6.3779526 0 0 0 192.76805,545.04956 A6.3779526,6.3779526 0 0 0 134.59479,546.8752 A6.3779526,6.3779526 0 0 0 128.21683,553.2531 A6.3779526,6.3779526 0 0 0 134.59479,559.63104 A6.3779526,6.3779526 0 0 0 140.97273,553.2531 A5.6692915,5.6692915 0 0 0 459.91058,525.4642 A5.6692915,5.6692915 0 0 0 454.2413,531.1335 A5.6692915,5.6692915 0 0 0 459.91058,536.80273 A5.6692915,5.6692915 0 0 0 465.57986,531.1335" stroke="#960000" stroke-width="0.24" stroke-linecap="round" stroke-linejoin="round" fill="none" />
  <path d="M110.72737,565.64325 C110.002266,565.76764 109.2215,565.5683 108.606316,565.1357 C108.29873,564.9193 108.03253,564.64465 107.867,564.3246 C107.70147,564.0046 107.63662,563.63916 107.572136,563.2737 C106.07687,554.79785 104.78756,546.2881 103.45515,537.78937 C102.78894,533.54004 102.11196,529.2934 101.4267,525.0415 C100.74143,520.7895 100.04788,516.5323 99.45871,512.30804 C99.4156,511.999 99.37306,511.69012 99.41186,511.37958 C99.45066,511.06903 99.57081,510.75687 99.73224,510.46768 C99.89367,510.1786 100.09639,509.9125 100.34036,509.71646 C100.584335,509.52048 100.86957,509.39456 101.15524,509.26898 C105.065895,507.5506 109.06138,505.90805 113.045265,504.25525 C117.02915,502.60242 121.001434,500.93936 124.974915,499.27695 C128.94841,497.61456 132.9231,495.9529 136.90457,494.2987 C140.88606,492.6444 144.87433,490.9976 148.80838,489.29285 C149.04497,489.19034 149.28134,489.08762 149.49019,488.93622 C149.69904,488.78482 149.88033,488.58475 150.03806,488.36752 C150.19579,488.15024 150.32994,487.9158 150.40778,487.6697 C150.48561,487.4236 150.50713,487.16583 150.52861,486.90805 C151.7094,472.74002 152.80972,458.53455 153.91966,444.3333 C155.02962,430.13205 156.14922,415.935 157.27084,401.73987 C158.39249,387.54477 159.51617,373.35162 160.62204,359.14645 C161.72787,344.9413 162.81589,330.72418 164.03918,316.59668 C164.06946,316.24698 164.09982,315.89737 164.23224,315.57275 C164.36465,315.24814 164.5991,314.94855 164.87494,314.69385 C165.15077,314.43915 165.46797,314.2293 165.80154,314.12207 C166.1351,314.01483 166.48505,314.01016 166.83511,314.00574 C175.21568,313.9 183.67097,313.92914 192.11649,313.94073 C200.56198,313.9523 208.9977,313.94632 217.43384,313.94073 C225.86998,313.93518 234.30655,313.93005 242.75119,313.94073 C251.19583,313.95145 259.64853,313.9779 268.03787,313.88107 C268.3687,313.87726 268.6995,313.87323 269.01645,313.77756 C269.33344,313.68185 269.6366,313.4945 269.9044,313.26593 C270.17218,313.03738 270.4046,312.76764 270.55237,312.47205 C270.70016,312.17645 270.76334,311.85498 270.8252,311.53262 C271.35068,308.79584 271.78503,305.9919 272.23187,303.19717 C272.67874,300.40244 273.13806,297.61685 273.5976,294.83154 C274.05713,292.04623 274.51685,289.2612 274.9633,286.4659 C275.4098,283.67062 275.84296,280.86508 276.37177,278.13318 C276.43637,277.79944 276.5024,277.46677 276.65903,277.16196 C276.81564,276.8571 277.06287,276.58008 277.348,276.34982 C277.63306,276.1196 277.95605,275.93613 278.28796,275.84927 C278.61984,275.76236 278.96063,275.77203 279.30176,275.78253 C283.5493,275.91296 287.8539,276.16653 292.15134,276.40103 C296.44876,276.63556 300.73892,276.85107 305.02768,277.07587 C309.31644,277.30066 313.60376,277.53473 317.90402,277.7507 C322.20428,277.96664 326.5175,278.1645 330.7369,278.47855 C331.07907,278.50403 331.42062,278.53024 331.75742,278.6546 C332.09415,278.77893 332.4261,279.00137 332.66965,279.2627 C333.15677,279.78537 333.29034,280.46356 333.38834,281.148 C333.629,282.82874 333.6553,284.5472 333.68433,286.26514 C333.71332,287.98306 333.74506,289.70035 333.97873,291.38272 C334.07047,292.0433 334.19336,292.69843 334.64813,293.214 C334.87552,293.47177 335.1859,293.69467 335.5052,293.8272 C335.8245,293.95975 336.15268,294.00192 336.4814,294.04355 C340.81198,294.59134 345.2345,295.03354 349.64465,295.48972 C354.0548,295.9459 358.45258,296.41602 362.85083,296.8865 C367.2491,297.35696 371.6479,297.82773 376.05704,298.28326 C380.46616,298.73883 384.88568,299.17917 389.2264,299.73288 C389.56952,299.77664 389.9121,299.8211 390.2299,299.96216 C390.54764,300.1032 390.84058,300.34085 391.08704,300.6195 C391.33347,300.8982 391.53342,301.2179 391.63605,301.5498 C391.73868,301.8817 391.74402,302.2258 391.748,302.57062 C391.7848,305.75128 391.7083,308.99185 391.64737,312.2242 C391.5864,315.45654 391.54102,318.6806 391.49536,321.9049 C391.44974,325.12924 391.40384,328.35382 391.34338,331.58566 C391.2829,334.8175 391.2079,338.05664 391.24033,341.2418 C391.24368,341.575 391.24826,341.90765 391.34384,342.229 C391.43942,342.55038 391.626,342.8605 391.85568,343.13474 C392.0854,343.40894 392.35812,343.64728 392.65982,343.79477 C392.96155,343.94226 393.2922,343.9989 393.623,344.05536 C401.8872,345.46564 410.23645,346.7617 418.5748,348.0724 C426.91312,349.38312 435.2406,350.70853 443.5677,352.03424 C451.89478,353.35992 460.2215,354.6859 468.5606,355.99606 C476.8997,357.3062 485.25116,358.6006 493.50778,360.01645 C493.85278,360.07562 494.19766,360.13498 494.51028,360.29312 C494.82294,360.45123 495.1033,360.7081 495.33585,361.00278 C495.56848,361.29745 495.75323,361.62994 495.8331,361.97128 C495.91296,362.31262 495.88788,362.6628 495.86273,363.01303 C494.70593,379.13165 493.4063,395.31818 492.11847,411.49557 C490.83063,427.67297 489.55447,443.84125 488.29037,460.01184 C485.7622,492.3531 483.28214,524.70374 480.56073,557.0367 C480.52805,557.4249 480.49533,557.81323 480.3411,558.15643 C480.1869,558.49976 479.91113,558.79803 479.59607,559.0464 C479.28107,559.2947 478.9267,559.49304 478.5569,559.56305 C478.18707,559.63306 477.8018,559.57477 477.4165,559.51636 C452.22028,555.69794 427.0634,551.6624 401.90005,547.66235 C376.73676,543.6623 351.56702,539.69763 326.4024,535.7047 C326.4024,534.4382 326.4024,533.17163 326.4024,531.905 C328.56412,531.905 330.72586,531.905 332.88757,531.905 C333.02783,531.89984 333.1681,531.89465 333.30832,531.88947 C333.44815,531.87366 333.58795,531.8578 333.72778,531.842 C333.8649,531.81824 334.002,531.79456 334.13916,531.7708 C334.2777,531.7361 334.41632,531.7015 334.5549,531.6669 C334.69098,531.6215 334.8271,531.5761 334.9632,531.53076 C335.09628,531.47485 335.2294,531.41895 335.3625,531.36304 C335.4865,531.2997 335.61053,531.2364 335.7345,531.1731 C335.85648,531.1015 335.9784,531.0299 336.10037,530.9583 C336.21643,530.8765 336.33246,530.7948 336.44852,530.7131 C336.56012,530.62537 336.67172,530.5377 336.78333,530.44995 C336.8869,530.35175 336.9905,530.2534 337.0941,530.15515 C337.19238,530.0515 337.29068,529.94794 337.38898,529.84436 C337.47665,529.7327 337.56433,529.62115 337.652,529.5095 C337.7338,529.3935 337.81552,529.27747 337.8973,529.1614 C337.96887,529.0394 338.04047,528.91754 338.11203,528.79553 C338.17535,528.6716 338.23868,528.54755 338.302,528.4235 C338.3579,528.29047 338.4138,528.15735 338.46973,528.0242 C338.51508,527.8881 338.56046,527.752 338.6058,527.6159 C338.64047,527.47736 338.6751,527.33875 338.70975,527.2002 C338.7335,527.06305 338.7572,526.9259 338.78094,526.7888 C338.79675,526.649 338.81262,526.5092 338.82843,526.3693 C338.83362,526.2291 338.8388,526.08887 338.84402,525.9486 C338.84402,509.7416 338.84402,493.53464 338.84402,477.32764 C338.8388,477.18738 338.83362,477.04715 338.82843,476.90686 C338.81262,476.76706 338.79675,476.62723 338.78094,476.48743 C338.7572,476.3503 338.7335,476.21317 338.70975,476.07605 C338.6751,475.93747 338.64047,475.7989 338.6058,475.66028 C338.56046,475.5242 338.51508,475.38812 338.46973,475.25204 C338.4138,475.1189 338.3579,474.9858 338.302,474.85272 C338.23868,474.7287 338.17535,474.60468 338.11203,474.48068 C338.04047,474.35873 337.96887,474.2368 337.8973,474.11484 C337.81552,473.9988 337.7338,473.88275 337.652,473.7667 C337.56433,473.6551 337.47665,473.5435 337.38898,473.4319 C337.29068,473.32828 337.19238,473.2247 337.0941,473.1211 C336.9905,473.0228 336.8869,472.92453 336.78333,472.82626 C336.67172,472.73856 336.56012,472.65088 336.44852,472.5632 C336.33246,472.4814 336.21643,472.39966 336.10037,472.3179 C335.9784,472.2463 335.85648,472.17474 335.7345,472.10318 C335.61053,472.03983 335.4865,471.97653 335.3625,471.9132 C335.2294,471.8573 335.09628,471.8014 334.9632,471.74548 C334.8271,471.70013 334.69098,471.65475 334.5549,471.6094 C334.41632,471.57474 334.2777,471.5401 334.13916,471.50546 C334.002,471.48172 333.8649,471.458 333.72778,471.43427 C333.58795,471.41843 333.44815,471.4026 333.30832,471.38678 C333.1681,471.38156 333.02783,471.37637 332.88757,471.3712 C319.68057,471.3712 306.47357,471.3712 293.26657,471.3712 C293.12634,471.37637 292.98608,471.38156 292.84586,471.38678 C292.70602,471.4026 292.56622,471.41843 292.4264,471.43427 C292.28928,471.458 292.15216,471.48172 292.01505,471.50546 C291.87643,471.5401 291.73785,471.57474 291.59927,471.6094 C291.4632,471.65475 291.32706,471.70013 291.19098,471.74548 C291.0579,471.8014 290.9248,471.8573 290.79166,471.9132 C290.66766,471.97653 290.54367,472.03983 290.41965,472.10318 C290.2977,472.17474 290.17575,472.2463 290.0538,472.3179 C289.93774,472.39966 289.82172,472.4814 289.70566,472.5632 C289.5941,472.65088 289.48245,472.73856 289.37085,472.82626 C289.26727,472.92453 289.16367,473.0228 289.0601,473.1211 C288.9618,473.2247 288.8635,473.32828 288.7652,473.4319 C288.67752,473.5435 288.58984,473.6551 288.50214,473.7667 C288.42038,473.88275 288.33865,473.9988 288.25687,474.11484 C288.1853,474.2368 288.11374,474.35873 288.0421,474.48068 C287.97882,474.60468 287.91547,474.7287 287.85217,474.85272 C287.79626,474.9858 287.74036,475.1189 287.68445,475.25204 C287.6391,475.38812 287.59375,475.5242 287.54837,475.66028 C287.51373,475.7989 287.47906,475.93747 287.44443,476.07605 C287.4207,476.21317 287.39694,476.3503 287.37323,476.48743 C287.3574,476.62723 287.34158,476.76706 287.32574,476.90686 C287.32056,477.04715 287.31537,477.18738 287.31015,477.32764 C287.31015,493.53464 287.31015,509.7416 287.31015,525.9486 C287.31537,526.08887 287.32056,526.2291 287.32574,526.3693 C287.34158,526.5092 287.3574,526.649 287.37323,526.7888 C287.39694,526.9259 287.4207,527.06305 287.44443,527.2002 C287.47906,527.33875 287.51373,527.47736 287.54837,527.6159 C287.59375,527.752 287.6391,527.8881 287.68445,528.0242 C287.74036,528.15735 287.79626,528.29047 287.85217,528.4235 C287.91547,528.54755 287.97882,528.6716 288.0421,528.79553 C288.11374,528.91754 288.1853,529.0394 288.25687,529.1614 C288.33865,529.27747 288.42038,529.3935 288.50214,529.5095 C288.58984,529.62115 288.67752,529.7327 288.7652,529.84436 C288.8635,529.94794 288.9618,530.0515 289.0601,530.15515 C289.16367,530.2534 289.26727,530.35175 289.37085,530.44995 C289.48245,530.5377 289.5941,530.62537 289.70566,530.7131 C289.82172,530.7948 289.93774,530.8765 290.0538,530.9583 C290.17575,531.0299 290.2977,531.1015 290.41965,531.1731 C290.54367,531.2364 290.66766,531.2997 290.79166,531.36304 C290.9248,531.41895 291.0579,531.47485 291.19098,531.53076 C291.32706,531.5761 291.4632,531.6215 291.59927,531.6669 C291.73785,531.7015 291.87643,531.7361 292.01505,531.7708 C292.15216,531.79456 292.28928,531.81824 292.4264,531.842 C292.56622,531.8578 292.70602,531.87366 292.84586,531.88947 C292.98608,531.89465 293.12634,531.89984 293.26657,531.905 C295.4283,531.905 297.59003,531.905 299.75177,531.905 C299.75177,533.17163 299.75177,534.4382 299.75177,535.7047 C236.74362,545.68427 173.7355,555.66376 110.72737,565.64325 z" stroke="#960000" stroke-width="0.24" stroke-linecap="round" stroke-linejoin="round" fill="none" />
  <path d="M264.27002,538.4546 L256.28815,488.0591 L205.89273,496.041 L213.87457,546.4364 z" stroke="#960000" stroke-width="0.24" stroke-linecap="round" stroke-linejoin="round" fill="none" />
  <path d="M167.01341,472.6809 L218.03703,472.6809 L218.03703,421.6573 L167.01341,421.6573 z" stroke="#960000" stroke-width="0.24" stroke-linecap="round" stroke-linejoin="round" fill="none" />
  <path d="M167.01341,420.23996 L218.03703,420.23996 L218.03703,369.21634 L167.01341,369.21634 z" stroke="#960000" stroke-width="0.24" stroke-linecap="round" stroke-linejoin="round" fill="none" />
  <path d="M167.01341,367.799 L218.03703,367.799 L218.03703,316.7754 L167.01341,316.7754 z" stroke="#960000" stroke-width="0.24" stroke-linecap="round" stroke-linejoin="round" fill="none" />
  <path d="M212.4747,546.65814 L204.49284,496.2627 L154.09743,504.24454 L162.07927,554.64 z" stroke="#960000" stroke-width="0.24" stroke-linecap="round" stroke-linejoin="round" fill="none" />
  <path d="M160.6794,554.8617 L152.69754,504.46628 L102.3021,512.4481 L110.283966,562.84357 z" stroke="#960000" stroke-width="0.24" stroke-linecap="round" stroke-linejoin="round" fill="none" />
  <path d="M219.45436,472.6809 L270.478,472.6809 L270.47797,421.6573 L219.45436,421.6573 z" stroke="#960000" stroke-width="0.24" stroke-linecap="round" stroke-linejoin="round" fill="none" />
  <path d="M219.45436,420.23996 L270.478,420.23996 L270.47797,369.21634 L219.45436,369.21634 z" stroke="#960000" stroke-width="0.24" stroke-linecap="round" stroke-linejoin="round" fill="none" />
  <path d="M219.45436,367.799 L270.478,367.799 L270.47797,316.7754 L219.45436,316.7754 z" stroke="#960000" stroke-width="0.24" stroke-linecap="round" stroke-linejoin="round" fill="none" />
  <path d="M271.26126,434.26428 L322.21497,436.93463 L324.88535,385.98096 L273.93164,383.31058 z" stroke="#960000" stroke-width="0.24" stroke-linecap="round" stroke-linejoin="round" fill="none" />
  <path d="M274.00583,381.8952 L324.9595,384.56555 L327.62988,333.61188 L276.67618,330.9415 z" stroke="#960000" stroke-width="0.24" stroke-linecap="round" stroke-linejoin="round" fill="none" />
  <path d="M276.75037,329.52612 L327.70407,332.1965 L330.37442,281.2428 L279.42075,278.57242 z" stroke="#960000" stroke-width="0.24" stroke-linecap="round" stroke-linejoin="round" fill="none" />
  <path d="M321.68396,452.19345 L372.42807,457.5269 L377.7615,406.78278 L327.01736,401.44934 z" stroke="#960000" stroke-width="0.24" stroke-linecap="round" stroke-linejoin="round" fill="none" />
  <path d="M327.16553,400.0398 L377.90964,405.3732 L383.24307,354.6291 L332.49896,349.2957 z" stroke="#960000" stroke-width="0.24" stroke-linecap="round" stroke-linejoin="round" fill="none" />
  <path d="M332.6471,347.8861 L383.3912,353.21954 L388.72464,302.47543 L337.98053,297.142 z" stroke="#960000" stroke-width="0.24" stroke-linecap="round" stroke-linejoin="round" fill="none" />
  <path d="M366.3182,500.52502 L416.71365,508.5069 L424.6955,458.11145 L374.30005,450.12958 z" stroke="#960000" stroke-width="0.24" stroke-linecap="round" stroke-linejoin="round" fill="none" />
  <path d="M374.52176,448.7297 L424.9172,456.71158 L432.89905,406.31613 L382.50363,398.3343 z" stroke="#960000" stroke-width="0.24" stroke-linecap="round" stroke-linejoin="round" fill="none" />
  <path d="M382.72534,396.93442 L433.1208,404.91626 L441.10263,354.5208 L390.70718,346.53897 z" stroke="#960000" stroke-width="0.24" stroke-linecap="round" stroke-linejoin="round" fill="none" />
  <path d="M418.1135,508.7286 L468.50894,516.71045 L476.49078,466.315 L426.09537,458.33316 z" stroke="#960000" stroke-width="0.24" stroke-linecap="round" stroke-linejoin="round" fill="none" />
  <path d="M426.31708,456.9333 L476.71252,464.91513 L484.69437,414.5197 L434.29895,406.53784 z" stroke="#960000" stroke-width="0.24" stroke-linecap="round" stroke-linejoin="round" fill="none" />
  <path d="M434.52066,405.13797 L484.91608,413.11984 L492.89795,362.7244 L442.5025,354.74255 z" stroke="#960000" stroke-width="0.24" stroke-linecap="round" stroke-linejoin="round" fill="none" />
  <path d="M257.78366,533.74194 L251.57555,494.5455 L212.37909,500.7536 L218.5872,539.9501 z" stroke="#960000" stroke-width="0.24" stroke-linecap="round" stroke-linejoin="round" fill="none" />
  <path d="M172.68271,467.01163 L212.36774,467.01163 L212.36774,427.3266 L172.68271,427.3266 z" stroke="#960000" stroke-width="0.24" stroke-linecap="round" stroke-linejoin="round" fill="none" />
  <path d="M172.68271,414.57068 L212.36774,414.57068 L212.36774,374.88565 L172.68271,374.88565 z" stroke="#960000" stroke-width="0.24" stroke-linecap="round" stroke-linejoin="round" fill="none" />
  <path d="M172.68271,362.12973 L212.36774,362.12973 L212.36774,322.4447 L172.68271,322.4447 z" stroke="#960000" stroke-width="0.24" stroke-linecap="round" stroke-linejoin="round" fill="none" />
  <path d="M205.98834,541.9455 L199.78023,502.74905 L160.58379,508.95718 L166.79189,548.1536 z" stroke="#960000" stroke-width="0.24" stroke-linecap="round" stroke-linejoin="round" fill="none" />
  <path d="M154.19302,550.1491 L147.98492,510.95264 L108.78848,517.16077 L114.99658,556.3572 z" stroke="#960000" stroke-width="0.24" stroke-linecap="round" stroke-linejoin="round" fill="none" />
  <path d="M225.12366,467.01163 L264.8087,467.01163 L264.8087,427.3266 L225.12366,427.3266 z" stroke="#960000" stroke-width="0.24" stroke-linecap="round" stroke-linejoin="round" fill="none" />
  <path d="M225.12366,414.57068 L264.8087,414.57068 L264.8087,374.88565 L225.12366,374.88565 z" stroke="#960000" stroke-width="0.24" stroke-linecap="round" stroke-linejoin="round" fill="none" />
  <path d="M225.12366,362.12973 L264.8087,362.12973 L264.8087,322.4447 L225.12366,322.4447 z" stroke="#960000" stroke-width="0.24" stroke-linecap="round" stroke-linejoin="round" fill="none" />
  <path d="M277.2195,428.89944 L316.85016,430.9764 L318.9271,391.34576 L279.29645,389.2688 z" stroke="#960000" stroke-width="0.24" stroke-linecap="round" stroke-linejoin="round" fill="none" />
  <path d="M279.96405,376.5304 L319.5947,378.60733 L321.67166,338.97668 L282.04102,336.89972 z" stroke="#960000" stroke-width="0.24" stroke-linecap="round" stroke-linejoin="round" fill="none" />
  <path d="M282.7086,324.16132 L322.33926,326.23825 L324.4162,286.6076 L284.78555,284.53067 z" stroke="#960000" stroke-width="0.24" stroke-linecap="round" stroke-linejoin="round" fill="none" />
  <path d="M327.9148,447.14783 L367.38245,451.29605 L371.53064,411.8284 L332.06302,407.68018 z" stroke="#960000" stroke-width="0.24" stroke-linecap="round" stroke-linejoin="round" fill="none" />
  <path d="M333.39636,394.99414 L372.864,399.14236 L377.01224,359.67474 L337.5446,355.52652 z" stroke="#960000" stroke-width="0.24" stroke-linecap="round" stroke-linejoin="round" fill="none" />
  <path d="M338.87793,342.84048 L378.34558,346.9887 L382.4938,307.52106 L343.02615,303.37283 z" stroke="#960000" stroke-width="0.24" stroke-linecap="round" stroke-linejoin="round" fill="none" />
  <path d="M372.80457,495.8124 L412.001,502.0205 L418.20914,462.82407 L379.01266,456.61597 z" stroke="#960000" stroke-width="0.24" stroke-linecap="round" stroke-linejoin="round" fill="none" />
  <path d="M381.00815,444.0171 L420.2046,450.2252 L426.4127,411.02875 L387.21625,404.82065 z" stroke="#960000" stroke-width="0.24" stroke-linecap="round" stroke-linejoin="round" fill="none" />
  <path d="M389.2117,392.22177 L428.40814,398.4299 L434.61627,359.23343 L395.41983,353.02533 z" stroke="#960000" stroke-width="0.24" stroke-linecap="round" stroke-linejoin="round" fill="none" />
  <path d="M424.59988,504.016 L463.79633,510.2241 L470.00443,471.02762 L430.80798,464.81952 z" stroke="#960000" stroke-width="0.24" stroke-linecap="round" stroke-linejoin="round" fill="none" />
  <path d="M432.80344,452.22067 L471.99988,458.42877 L478.208,419.23233 L439.01157,413.02423 z" stroke="#960000" stroke-width="0.24" stroke-linecap="round" stroke-linejoin="round" fill="none" />
  <path d="M441.00702,400.42535 L480.20346,406.63345 L486.41156,367.437 L447.21512,361.2289 z" stroke="#960000" stroke-width="0.24" stroke-linecap="round" stroke-linejoin="round" fill="none" />
</svg>