<?xml version="1.0" encoding="utf-8" standalone="no"?>
<!DOCTYPE svg PUBLIC "-//W3C//DTD SVG 1.1//EN" "http://www.w3.org/Graphics/SVG/1.1/DTD/svg11.dtd">
<svg version="1.1" width="595.2pt" height="841.7pt" viewBox="0 0 595.2 841.68" xmlns="http://www.w3.org/2000/svg">
  <defs />
  <g id="figma">
    <path d="M426.76334,454.14798 L477.15875,462.12982 L485.1406,411.73438 L434.74518,403.7525 z" stroke="#000000" stroke-width="0.24" stroke-linecap="round" stroke-linejoin="round" fill="none" />
    <path d="M418.55975,505.94327 L468.9552,513.9251 L476.93704,463.52966 L426.54163,455.54782 z" stroke="#000000" stroke-width="0.24" stroke-linecap="round" stroke-linejoin="round" fill="none" />
    <path d="M383.1716,394.14908 L433.56702,402.13092 L441.5489,351.7355 L391.15344,343.75366 z" stroke="#000000" stroke-width="0.24" stroke-linecap="round" stroke-linejoin="round" fill="none" />
    <path d="M374.96802,445.94437 L425.36346,453.92624 L433.3453,403.5308 L382.9499,395.54895 z" stroke="#000000" stroke-width="0.24" stroke-linecap="round" stroke-linejoin="round" fill="none" />
    <path d="M366.76443,497.73972 L417.15988,505.72156 L425.14175,455.3261 L374.74628,447.34427 z" stroke="#000000" stroke-width="0.24" stroke-linecap="round" stroke-linejoin="round" fill="none" />
    <path d="M333.09335,345.10077 L383.83746,350.4342 L389.17087,299.6901 L338.4268,294.3567 z" stroke="#000000" stroke-width="0.24" stroke-linecap="round" stroke-linejoin="round" fill="none" />
    <path d="M327.6118,397.25446 L378.3559,402.58786 L383.6893,351.84378 L332.9452,346.51035 z" stroke="#000000" stroke-width="0.24" stroke-linecap="round" stroke-linejoin="round" fill="none" />
    <path d="M322.13022,449.4081 L372.8743,454.74155 L378.20773,403.99744 L327.46362,398.66403 z" stroke="#000000" stroke-width="0.24" stroke-linecap="round" stroke-linejoin="round" fill="none" />
    <path d="M277.1966,326.74078 L328.1503,329.41116 L330.82068,278.45746 L279.86697,275.7871 z" stroke="#000000" stroke-width="0.24" stroke-linecap="round" stroke-linejoin="round" fill="none" />
    <path d="M274.45206,379.10986 L325.40576,381.78024 L328.07614,330.82654 L277.12244,328.15616 z" stroke="#000000" stroke-width="0.24" stroke-linecap="round" stroke-linejoin="round" fill="none" />
    <path d="M271.70752,431.47894 L322.66122,434.1493 L325.33157,383.19562 L274.3779,380.52524 z" stroke="#000000" stroke-width="0.24" stroke-linecap="round" stroke-linejoin="round" fill="none" />
    <path d="M219.9006,365.0137 L270.92422,365.0137 L270.92422,313.99008 L219.9006,313.99008 z" stroke="#000000" stroke-width="0.24" stroke-linecap="round" stroke-linejoin="round" fill="none" />
    <path d="M219.9006,417.45462 L270.92422,417.45462 L270.92422,366.43103 L219.9006,366.43103 z" stroke="#000000" stroke-width="0.24" stroke-linecap="round" stroke-linejoin="round" fill="none" />
    <path d="M219.9006,469.8956 L270.92422,469.8956 L270.92422,418.87195 L219.9006,418.87195 z" stroke="#000000" stroke-width="0.24" stroke-linecap="round" stroke-linejoin="round" fill="none" />
    <path d="M160.5657,548.48004 L152.58383,498.0846 L102.1884,506.06644 L110.17026,556.46185 z" stroke="#000000" stroke-width="0.24" stroke-linecap="round" stroke-linejoin="round" fill="none" />
    <path d="M212.36101,540.2764 L204.37915,489.881 L153.98372,497.86288 L161.96556,548.2583 z" stroke="#000000" stroke-width="0.24" stroke-linecap="round" stroke-linejoin="round" fill="none" />
    <path d="M167.45966,365.0137 L218.48328,365.0137 L218.48328,313.99008 L167.45966,313.99008 z" stroke="#000000" stroke-width="0.24" stroke-linecap="round" stroke-linejoin="round" fill="none" />
    <path d="M167.45966,417.45462 L218.48328,417.45462 L218.48328,366.43103 L167.45966,366.43103 z" stroke="#000000" stroke-width="0.24" stroke-linecap="round" stroke-linejoin="round" fill="none" />
    <path d="M167.45966,469.8956 L218.48328,469.8956 L218.48328,418.87195 L167.45966,418.87195 z" stroke="#000000" stroke-width="0.24" stroke-linecap="round" stroke-linejoin="round" fill="none" />
    <path d="M264.1563,532.07294 L256.17444,481.67746 L205.77902,489.6593 L213.76088,540.05475 z" stroke="#000000" stroke-width="0.24" stroke-linecap="round" stroke-linejoin="round" fill="none" />
    <path d="M103.03427,565.76807 L92.62564,500.05054 L145.66315,479.84973 L159.3097,304.87112 L266.03445,304.87112 L272.33694,266.2656 L339.17184,269.76825 L339.83917,285.3117 L397.9653,291.45956 L397.2739,335.49594 L502.57434,352.188 L485.2218,575.4144 L325.91425,550.1826 L301.0664,550.1826 z" stroke="#000000" stroke-width="0.24" stroke-linecap="round" stroke-linejoin="round" fill="none" />
    <path d="M164.62502,472.73026 L164.62502,311.15543 L270.92422,311.15543 L277.1846,272.80798 L333.7998,275.77505 L334.45264,291.0887 L392.2863,297.1673 L391.59882,340.9542 L496.58737,357.58273 L471.31152,517.1683 L363.52124,500.096 L370.29617,457.32086 L319.01477,451.93097 L320.59674,436.87967 L273.75888,434.425 L273.75888,472.73026 z" stroke="#000000" stroke-width="0.24" stroke-linecap="round" stroke-linejoin="round" fill="none" />
    <path d="M107.81395,559.7051 L98.94522,503.71014 L151.03612,483.86987 L164.62502,311.15543 L270.92422,311.15543 L277.1846,272.80798 L333.7998,275.77505 L334.45264,291.0887 L392.2863,297.1673 L391.59882,340.9542 L496.58737,357.58273 L480.04532,568.8546 L326.36044,544.5133 L300.84366,544.5133 z" stroke="#000000" stroke-width="0.24" stroke-linecap="round" stroke-linejoin="round" fill="none" />
    <path d="M270.27838,552.6057 L258.53076,478.43427 L202.53584,487.30298 L150.74054,495.50653 L98.94522,503.71014 L108.70357,565.3219 z" stroke="#000000" stroke-width="0.24" stroke-linecap="round" stroke-linejoin="round" fill="none" />
    <path d="M434.9669,402.35266 L485.36234,410.3345 L493.3442,359.93906 L442.94873,351.9572 z" stroke="#000000" stroke-width="0.24" stroke-linecap="round" stroke-linejoin="round" fill="none" />
  </g>
</svg>