<?xml version="1.0" encoding="utf-8" standalone="no"?>
<!DOCTYPE svg PUBLIC "-//W3C//DTD SVG 1.1//EN" "http://www.w3.org/Graphics/SVG/1.1/DTD/svg11.dtd">
<svg version="1.1" width="2384pt" height="3370pt" viewBox="0 0 2383.92 3370.32" xmlns="http://www.w3.org/2000/svg">
  <defs />
  <g id="Default">
    <path d="M1323.148,1716.9502 L1362.4468,1722.4731 L1367.9698,1683.1743 L1328.671,1677.6514 z" stroke="#000000" stroke-width="0.24" stroke-linecap="round" stroke-linejoin="round" fill="none" />
    <path d="M1277.3094,1656.1204 L1316.6083,1661.6434 L1322.1313,1622.3447 L1282.8325,1616.8215 z" stroke="#000000" stroke-width="0.24" stroke-linecap="round" stroke-linejoin="round" fill="none" />
    <path d="M1269.8137,1709.4545 L1309.1125,1714.9775 L1314.6357,1675.6787 L1275.3369,1670.1556 z" stroke="#000000" stroke-width="0.24" stroke-linecap="round" stroke-linejoin="round" fill="none" />
    <path d="M1262.3182,1762.7886 L1301.6171,1768.3116 L1307.1401,1729.0128 L1267.8413,1723.4897 z" stroke="#000000" stroke-width="0.24" stroke-linecap="round" stroke-linejoin="round" fill="none" />
    <path d="M1221.2823,1604.2122 L1260.8706,1606.9805 L1263.6389,1567.3921 L1224.0505,1564.6238 z" stroke="#000000" stroke-width="0.24" stroke-linecap="round" stroke-linejoin="round" fill="none" />
    <path d="M1217.5253,1657.9392 L1257.1136,1660.7075 L1259.882,1621.1191 L1220.2936,1618.3508 z" stroke="#000000" stroke-width="0.24" stroke-linecap="round" stroke-linejoin="round" fill="none" />
    <path d="M1213.7683,1711.6663 L1253.3568,1714.4346 L1256.125,1674.8462 L1216.5366,1672.0779 z" stroke="#000000" stroke-width="0.24" stroke-linecap="round" stroke-linejoin="round" fill="none" />
    <path d="M1159.2667,1585.5247 L1198.9517,1585.5247 L1198.9517,1545.8395 L1159.2667,1545.8395 z" stroke="#000000" stroke-width="0.24" stroke-linecap="round" stroke-linejoin="round" fill="none" />
    <path d="M1159.2667,1639.3828 L1198.9517,1639.3828 L1198.9517,1599.6978 L1159.2667,1599.6978 z" stroke="#000000" stroke-width="0.24" stroke-linecap="round" stroke-linejoin="round" fill="none" />
    <path d="M1159.2667,1693.2411 L1198.9517,1693.2411 L1198.9517,1653.556 L1159.2667,1653.556 z" stroke="#000000" stroke-width="0.24" stroke-linecap="round" stroke-linejoin="round" fill="none" />
    <path d="M1099.1958,1625.8855 L1138.784,1623.1172 L1136.0159,1583.5288 L1096.4275,1586.2971 z" stroke="#000000" stroke-width="0.24" stroke-linecap="round" stroke-linejoin="round" fill="none" />
    <path d="M1102.9526,1679.6125 L1142.5411,1676.8442 L1139.7728,1637.2559 L1100.1843,1640.0242 z" stroke="#000000" stroke-width="0.24" stroke-linecap="round" stroke-linejoin="round" fill="none" />
    <path d="M1106.7096,1733.3396 L1146.298,1730.5713 L1143.5297,1690.9829 L1103.9414,1693.7512 z" stroke="#000000" stroke-width="0.24" stroke-linecap="round" stroke-linejoin="round" fill="none" />
    <path d="M1045.4688,1629.6425 L1085.057,1626.8741 L1082.2888,1587.2858 L1042.7004,1590.0541 z" stroke="#000000" stroke-width="0.24" stroke-linecap="round" stroke-linejoin="round" fill="none" />
    <path d="M1049.2256,1683.3695 L1088.814,1680.6012 L1086.0457,1641.013 L1046.4573,1643.7811 z" stroke="#000000" stroke-width="0.24" stroke-linecap="round" stroke-linejoin="round" fill="none" />
    <path d="M1052.9825,1737.0966 L1092.5709,1734.3282 L1089.8026,1694.74 L1050.2144,1697.5082 z" stroke="#000000" stroke-width="0.24" stroke-linecap="round" stroke-linejoin="round" fill="none" />
    <path d="M1324.7533,1664.7919 A3.6850393,3.6850393 0 0 0 1327.8895,1668.954 L1371.1183,1675.0294 A3.6850393,3.6850393 0 0 0 1375.2803,1671.8931 L1381.3557,1628.6644 A3.6850393,3.6850393 0 0 0 1378.2194,1624.5023 L1334.9907,1618.4269 A3.6850393,3.6850393 0 0 0 1330.8286,1621.5632 z" stroke="#000000" stroke-width="0.24" stroke-linecap="round" stroke-linejoin="round" fill="none" />
    <path d="M1317.2577,1718.1261 A3.6850393,3.6850393 0 0 0 1320.3939,1722.2881 L1363.6227,1728.3635 A3.6850393,3.6850393 0 0 0 1367.7847,1725.2272 L1373.8601,1681.9984 A3.6850393,3.6850393 0 0 0 1370.7238,1677.8364 L1327.4951,1671.761 A3.6850393,3.6850393 0 0 0 1323.333,1674.8973 z" stroke="#000000" stroke-width="0.24" stroke-linecap="round" stroke-linejoin="round" fill="none" />
    <path d="M1271.4192,1657.2963 A3.6850393,3.6850393 0 0 0 1274.5554,1661.4584 L1317.7842,1667.5337 A3.6850393,3.6850393 0 0 0 1321.9462,1664.3975 L1328.0216,1621.1687 A3.6850393,3.6850393 0 0 0 1324.8853,1617.0067 L1281.6566,1610.9312 A3.6850393,3.6850393 0 0 0 1277.4945,1614.0676 z" stroke="#000000" stroke-width="0.24" stroke-linecap="round" stroke-linejoin="round" fill="none" />
    <path d="M1263.9235,1710.6304 A3.6850393,3.6850393 0 0 0 1267.0598,1714.7925 L1310.2886,1720.8678 A3.6850393,3.6850393 0 0 0 1314.4506,1717.7316 L1320.5259,1674.5028 A3.6850393,3.6850393 0 0 0 1317.3896,1670.3408 L1274.1609,1664.2654 A3.6850393,3.6850393 0 0 0 1269.9989,1667.4017 z" stroke="#000000" stroke-width="0.24" stroke-linecap="round" stroke-linejoin="round" fill="none" />
    <path d="M1256.4279,1763.9646 A3.6850393,3.6850393 0 0 0 1259.5642,1768.1266 L1302.7928,1774.202 A3.6850393,3.6850393 0 0 0 1306.955,1771.0657 L1313.0304,1727.837 A3.6850393,3.6850393 0 0 0 1309.894,1723.6749 L1266.6653,1717.5995 A3.6850393,3.6850393 0 0 0 1262.5033,1720.7358 z" stroke="#000000" stroke-width="0.24" stroke-linecap="round" stroke-linejoin="round" fill="none" />
    <path d="M1215.4884,1605.7961 A3.6850393,3.6850393 0 0 0 1218.9073,1609.7292 L1262.4546,1612.7743 A3.6850393,3.6850393 0 0 0 1266.3877,1609.3553 L1269.4327,1565.8081 A3.6850393,3.6850393 0 0 0 1266.0138,1561.875 L1222.4666,1558.8298 A3.6850393,3.6850393 0 0 0 1218.5334,1562.2489 z" stroke="#000000" stroke-width="0.24" stroke-linecap="round" stroke-linejoin="round" fill="none" />
    <path d="M1211.7314,1659.5232 A3.6850393,3.6850393 0 0 0 1215.1504,1663.4563 L1258.6976,1666.5015 A3.6850393,3.6850393 0 0 0 1262.6307,1663.0824 L1265.6759,1619.5353 A3.6850393,3.6850393 0 0 0 1262.2568,1615.602 L1218.7097,1612.557 A3.6850393,3.6850393 0 0 0 1214.7765,1615.976 z" stroke="#000000" stroke-width="0.24" stroke-linecap="round" stroke-linejoin="round" fill="none" />
    <path d="M1207.9745,1713.2502 A3.6850393,3.6850393 0 0 0 1211.3934,1717.1833 L1254.9407,1720.2285 A3.6850393,3.6850393 0 0 0 1258.8738,1716.8094 L1261.919,1673.2623 A3.6850393,3.6850393 0 0 0 1258.4999,1669.3291 L1214.9526,1666.284 A3.6850393,3.6850393 0 0 0 1211.0195,1669.703 z" stroke="#000000" stroke-width="0.24" stroke-linecap="round" stroke-linejoin="round" fill="none" />
    <path d="M1153.5974,1587.5088 A3.6850393,3.6850393 0 0 0 1157.2823,1591.1938 L1200.936,1591.1938 A3.6850393,3.6850393 0 0 0 1204.621,1587.5088 L1204.621,1543.8553 A3.6850393,3.6850393 0 0 0 1200.9359,1540.1702 L1157.2823,1540.1703 A3.6850393,3.6850393 0 0 0 1153.5974,1543.8552 z" stroke="#000000" stroke-width="0.24" stroke-linecap="round" stroke-linejoin="round" fill="none" />
    <path d="M1153.5974,1641.3671 A3.6850393,3.6850393 0 0 0 1157.2823,1645.0521 L1200.936,1645.0521 A3.6850393,3.6850393 0 0 0 1204.621,1641.3671 L1204.621,1597.7135 A3.6850393,3.6850393 0 0 0 1200.9359,1594.0284 L1157.2823,1594.0284 A3.6850393,3.6850393 0 0 0 1153.5974,1597.7135 z" stroke="#000000" stroke-width="0.24" stroke-linecap="round" stroke-linejoin="round" fill="none" />
    <path d="M1153.5974,1695.2253 A3.6850393,3.6850393 0 0 0 1157.2823,1698.9104 L1200.936,1698.9104 A3.6850393,3.6850393 0 0 0 1204.621,1695.2253 L1204.621,1651.5718 A3.6850393,3.6850393 0 0 0 1200.9359,1647.8867 L1157.2823,1647.8867 A3.6850393,3.6850393 0 0 0 1153.5974,1651.5718 z" stroke="#000000" stroke-width="0.24" stroke-linecap="round" stroke-linejoin="round" fill="none" />
    <path d="M1093.6787,1628.2604 A3.6850393,3.6850393 0 0 0 1097.6118,1631.6793 L1141.1589,1628.6343 A3.6850393,3.6850393 0 0 0 1144.578,1624.7012 L1141.533,1581.1539 A3.6850393,3.6850393 0 0 0 1137.5997,1577.735 L1094.0525,1580.78 A3.6850393,3.6850393 0 0 0 1090.6335,1584.7131 z" stroke="#000000" stroke-width="0.24" stroke-linecap="round" stroke-linejoin="round" fill="none" />
    <path d="M1097.4357,1681.9874 A3.6850393,3.6850393 0 0 0 1101.3688,1685.4065 L1144.9159,1682.3613 A3.6850393,3.6850393 0 0 0 1148.335,1678.4282 L1145.2898,1634.8811 A3.6850393,3.6850393 0 0 0 1141.3567,1631.462 L1097.8096,1634.5071 A3.6850393,3.6850393 0 0 0 1094.3905,1638.4402 z" stroke="#000000" stroke-width="0.24" stroke-linecap="round" stroke-linejoin="round" fill="none" />
    <path d="M1101.1926,1735.7145 A3.6850393,3.6850393 0 0 0 1105.1257,1739.1335 L1148.673,1736.0884 A3.6850393,3.6850393 0 0 0 1152.0919,1732.1553 L1149.0468,1688.6082 A3.6850393,3.6850393 0 0 0 1145.1136,1685.1891 L1101.5665,1688.2341 A3.6850393,3.6850393 0 0 0 1098.1475,1692.1674 z" stroke="#000000" stroke-width="0.24" stroke-linecap="round" stroke-linejoin="round" fill="none" />
    <path d="M1039.9515,1632.0173 A3.6850393,3.6850393 0 0 0 1043.8848,1635.4363 L1087.4319,1632.3911 A3.6850393,3.6850393 0 0 0 1090.851,1628.4581 L1087.8059,1584.9109 A3.6850393,3.6850393 0 0 0 1083.8727,1581.492 L1040.3254,1584.537 A3.6850393,3.6850393 0 0 0 1036.9065,1588.4701 z" stroke="#000000" stroke-width="0.24" stroke-linecap="round" stroke-linejoin="round" fill="none" />
    <path d="M1043.7086,1685.7444 A3.6850393,3.6850393 0 0 0 1047.6417,1689.1635 L1091.1888,1686.1183 A3.6850393,3.6850393 0 0 0 1094.6079,1682.1852 L1091.5627,1638.638 A3.6850393,3.6850393 0 0 0 1087.6296,1635.219 L1044.0825,1638.264 A3.6850393,3.6850393 0 0 0 1040.6635,1642.1971 z" stroke="#000000" stroke-width="0.24" stroke-linecap="round" stroke-linejoin="round" fill="none" />
    <path d="M1047.4656,1739.4714 A3.6850393,3.6850393 0 0 0 1051.3987,1742.8905 L1094.9458,1739.8453 A3.6850393,3.6850393 0 0 0 1098.3649,1735.9122 L1095.3197,1692.365 A3.6850393,3.6850393 0 0 0 1091.3866,1688.946 L1047.8394,1691.9911 A3.6850393,3.6850393 0 0 0 1044.4204,1695.9243 z" stroke="#000000" stroke-width="0.24" stroke-linecap="round" stroke-linejoin="round" fill="none" />
    <path d="M1115.2476,1797.7898 A3.6850393,3.6850393 0 0 0 1119.8057,1800.3163 L1161.7681,1788.2838 A3.6850393,3.6850393 0 0 0 1164.2947,1783.7257 L1152.2621,1741.7633 A3.6850393,3.6850393 0 0 0 1147.7041,1739.2367 L1105.7417,1751.2692 A3.6850393,3.6850393 0 0 0 1103.2151,1755.8273 z" stroke="#000000" stroke-width="0.24" stroke-linecap="round" stroke-linejoin="round" fill="none" />
    <path d="M1063.4757,1812.6351 A3.6850393,3.6850393 0 0 0 1068.0337,1815.1616 L1109.9962,1803.1292 A3.6850393,3.6850393 0 0 0 1112.5227,1798.571 L1100.4902,1756.6086 A3.6850393,3.6850393 0 0 0 1095.9321,1754.082 L1053.9697,1766.1146 A3.6850393,3.6850393 0 0 0 1051.4431,1770.6726 z" stroke="#000000" stroke-width="0.24" stroke-linecap="round" stroke-linejoin="round" fill="none" />
    <path d="M1011.7038,1827.4805 A3.6850393,3.6850393 0 0 0 1016.26184,1830.0071 L1058.2244,1817.9745 A3.6850393,3.6850393 0 0 0 1060.7509,1813.4165 L1048.7183,1771.454 A3.6850393,3.6850393 0 0 0 1044.1603,1768.9274 L1002.1978,1780.96 A3.6850393,3.6850393 0 0 0 999.67126,1785.518 z" stroke="#000000" stroke-width="0.24" stroke-linecap="round" stroke-linejoin="round" fill="none" />
    <path d="M1252.7944,1770.5764 L1277.8606,1608.169 L1384.3915,1623.313 L1359.8477,1786.7651 z" stroke="#000000" stroke-width="0.24" stroke-linecap="round" stroke-linejoin="round" fill="none" />
    <path d="M1330.6436,1663.616 L1369.9424,1669.139 L1375.4655,1629.8402 L1336.1666,1624.3171 z" stroke="#000000" stroke-width="0.24" stroke-linecap="round" stroke-linejoin="round" fill="none" />
  </g>
  <path d="M1047.4655,1739.4714 C1047.5068,1740.3372 1047.9564,1741.3209 1048.7198,1741.9998 C1049.1017,1742.3394 1049.5619,1742.6027 1050.0275,1742.7269 C1050.493,1742.8514 1050.964,1742.837 1051.4365,1742.8197 C1054.9998,1742.6893 1058.6484,1742.3962 1062.2855,1742.1292 C1065.9224,1741.8622 1069.5477,1741.6213 1073.1722,1741.3679 C1076.7968,1741.1145 1080.4208,1740.8485 1084.0591,1740.6067 C1087.6974,1740.3647 1091.3499,1740.1469 1094.9011,1739.7812 C1095.372,1739.7328 1095.8412,1739.6818 1096.281,1739.4927 C1096.7208,1739.3036 1097.1313,1738.9764 1097.47,1738.5869 C1097.8085,1738.1973 1098.0753,1737.7454 1098.2013,1737.2834 C1098.3274,1736.8215 1098.3126,1736.35 1098.2952,1735.8768 C1098.1628,1732.3092 1097.8704,1728.6619 1097.6035,1725.0254 C1097.3368,1721.389 1097.0958,1717.7633 1096.8423,1714.1385 C1096.5889,1710.5139 1096.3229,1706.8901 1096.081,1703.2518 C1095.8391,1699.6136 1095.6212,1695.961 1095.2556,1692.4098 C1095.2072,1691.9388 1095.1561,1691.4697 1094.967,1691.0299 C1094.778,1690.5901 1094.4508,1690.1796 1094.0613,1689.841 C1093.6716,1689.5023 1093.2197,1689.2356 1092.7578,1689.1096 C1092.2959,1688.9835 1091.8243,1688.9983 1091.3512,1689.0157 C1087.7836,1689.148 1084.1362,1689.4406 1080.4998,1689.7074 C1076.8634,1689.9741 1073.2377,1690.2151 1069.6129,1690.4686 C1065.9883,1690.722 1062.3645,1690.9879 1058.7262,1691.2299 C1055.088,1691.4717 1051.4354,1691.6897 1047.8842,1692.0552 C1047.4132,1692.1038 1046.9441,1692.1548 1046.5043,1692.3439 C1046.0645,1692.533 1045.6539,1692.86 1045.3153,1693.2495 C1044.9767,1693.6392 1044.71,1694.0912 1044.584,1694.5531 C1044.4579,1695.0149 1044.4728,1695.4866 1044.4904,1695.9596 C1044.6228,1699.5272 1044.9133,1703.1748 1045.1818,1706.811 C1045.45,1710.4473 1045.6959,1714.0724 1045.9458,1717.6993 C1046.4453,1724.9531 1046.9603,1732.2147 1047.4655,1739.4714 z" stroke="#960000" stroke-width="0.24" stroke-linecap="round" stroke-linejoin="round" fill="none" />
  <path d="M1043.7085,1685.7444 C1043.7498,1686.6101 1044.1995,1687.5939 1044.9629,1688.2727 C1045.3447,1688.6122 1045.8049,1688.8755 1046.2705,1688.9999 C1046.7361,1689.1244 1047.207,1689.1099 1047.6796,1689.0925 C1051.2428,1688.9623 1054.8915,1688.6692 1058.5284,1688.4021 C1062.1655,1688.1351 1065.7906,1687.8942 1069.4153,1687.6409 C1073.0399,1687.3873 1076.6638,1687.1215 1080.3021,1686.8796 C1083.9403,1686.6376 1087.5928,1686.4198 1091.1442,1686.0542 C1091.615,1686.0057 1092.0841,1685.9546 1092.5239,1685.7656 C1092.9637,1685.5765 1093.3744,1685.2494 1093.7129,1684.8599 C1094.0516,1684.4702 1094.3185,1684.0182 1094.4445,1683.5564 C1094.5704,1683.0945 1094.5558,1682.6229 1094.5382,1682.1498 C1094.406,1678.5822 1094.1134,1674.9348 1093.8467,1671.2983 C1093.5798,1667.6619 1093.3387,1664.0363 1093.0854,1660.4115 C1092.8319,1656.7867 1092.566,1653.163 1092.324,1649.5248 C1092.0822,1645.8866 1091.8643,1642.234 1091.4987,1638.6827 C1091.4502,1638.2118 1091.3992,1637.7427 1091.2101,1637.3029 C1091.021,1636.863 1090.6938,1636.4525 1090.3043,1636.1139 C1089.9148,1635.7751 1089.4626,1635.5084 1089.0009,1635.3823 C1088.539,1635.2563 1088.0673,1635.2711 1087.5942,1635.2886 C1084.0267,1635.4209 1080.3794,1635.7134 1076.7429,1635.9802 C1073.1063,1636.247 1069.4808,1636.488 1065.8561,1636.7416 C1062.2313,1636.995 1058.6074,1637.2609 1054.9692,1637.5028 C1051.331,1637.7446 1047.6785,1637.9626 1044.1272,1638.3281 C1043.6562,1638.3766 1043.1871,1638.4277 1042.7474,1638.6167 C1042.3076,1638.8059 1041.8971,1639.1329 1041.5583,1639.5225 C1041.2197,1639.9121 1040.9529,1640.3641 1040.8269,1640.8259 C1040.7009,1641.2878 1040.7157,1641.7595 1040.7333,1642.2325 C1040.8658,1645.8002 1041.1565,1649.4478 1041.4247,1653.084 C1041.693,1656.7202 1041.939,1660.3453 1042.1887,1663.9723 C1042.6885,1671.2261 1043.2034,1678.4877 1043.7085,1685.7444 z" stroke="#960000" stroke-width="0.24" stroke-linecap="round" stroke-linejoin="round" fill="none" />
  <path d="M1039.9517,1632.0173 C1039.9929,1632.883 1040.4425,1633.8668 1041.206,1634.5457 C1041.5876,1634.8851 1042.0479,1635.1484 1042.5134,1635.2728 C1042.9791,1635.3972 1043.4502,1635.3828 1043.9226,1635.3655 C1047.4858,1635.2352 1051.1346,1634.9421 1054.7715,1634.675 C1058.4084,1634.4081 1062.0337,1634.1671 1065.6583,1633.9138 C1069.283,1633.6603 1072.9069,1633.3944 1076.545,1633.1526 C1080.1833,1632.9105 1083.8359,1632.6927 1087.3872,1632.327 C1087.8582,1632.2787 1088.3273,1632.2275 1088.7671,1632.0385 C1089.2068,1631.8494 1089.6173,1631.5223 1089.956,1631.1328 C1090.2947,1630.7432 1090.5614,1630.2911 1090.6875,1629.8293 C1090.8135,1629.3674 1090.7987,1628.8959 1090.7812,1628.4227 C1090.6489,1624.8551 1090.3564,1621.2078 1090.0896,1617.5713 C1089.8229,1613.9348 1089.5818,1610.3092 1089.3284,1606.6844 C1089.0748,1603.0597 1088.809,1599.4359 1088.5671,1595.7977 C1088.3252,1592.1595 1088.1073,1588.507 1087.7417,1584.9557 C1087.6932,1584.4847 1087.6421,1584.0156 1087.4531,1583.5758 C1087.264,1583.136 1086.9369,1582.7255 1086.5474,1582.3868 C1086.1577,1582.0481 1085.7057,1581.7814 1085.2439,1581.6553 C1084.7821,1581.5293 1084.3104,1581.5441 1083.8373,1581.5615 C1080.2697,1581.6938 1076.6223,1581.9863 1072.9858,1582.2532 C1069.3494,1582.5199 1065.7239,1582.761 1062.0991,1583.0144 C1058.4744,1583.268 1054.8505,1583.5338 1051.2123,1583.7758 C1047.5741,1584.0176 1043.9215,1584.2356 1040.3702,1584.6011 C1039.8994,1584.6495 1039.4302,1584.7007 1038.9904,1584.8896 C1038.5505,1585.0789 1038.14,1585.4059 1037.8014,1585.7954 C1037.4628,1586.185 1037.1959,1586.6371 1037.07,1587.0989 C1036.9438,1587.5608 1036.9587,1588.0325 1036.9763,1588.5055 C1037.1089,1592.073 1037.3995,1595.7206 1037.6677,1599.3569 C1037.936,1602.9932 1038.182,1606.6183 1038.4319,1610.2452 C1038.9314,1617.499 1039.4464,1624.7606 1039.9517,1632.0173 z" stroke="#960000" stroke-width="0.24" stroke-linecap="round" stroke-linejoin="round" fill="none" />
  <path d="M1101.1925,1735.7145 C1101.2339,1736.5802 1101.6835,1737.564 1102.4469,1738.2429 C1102.8287,1738.5824 1103.289,1738.8456 1103.7545,1738.9701 C1104.2201,1739.0945 1104.691,1739.0801 1105.1636,1739.0627 C1108.7269,1738.9324 1112.3755,1738.6392 1116.0126,1738.3723 C1119.6494,1738.1052 1123.2748,1737.8644 1126.8993,1737.611 C1130.5239,1737.3575 1134.148,1737.0917 1137.7861,1736.8496 C1141.4244,1736.6078 1145.0769,1736.3899 1148.6282,1736.0243 C1149.099,1735.9758 1149.5682,1735.9248 1150.008,1735.7357 C1150.4479,1735.5466 1150.8584,1735.2195 1151.197,1734.83 C1151.5356,1734.4404 1151.8024,1733.9883 1151.9283,1733.5265 C1152.0544,1733.0646 1152.0397,1732.5929 1152.0222,1732.1199 C1151.89,1728.5522 1151.5974,1724.9049 1151.3306,1721.2686 C1151.064,1717.632 1150.8229,1714.0063 1150.5693,1710.3817 C1150.3159,1706.757 1150.05,1703.133 1149.8081,1699.4949 C1149.5662,1695.8567 1149.3483,1692.2041 1148.9827,1688.6528 C1148.9342,1688.1819 1148.8832,1687.7128 1148.6941,1687.273 C1148.505,1686.8333 1148.178,1686.4227 1147.7885,1686.084 C1147.3988,1685.7454 1146.9468,1685.4786 1146.4849,1685.3525 C1146.023,1685.2266 1145.5514,1685.2412 1145.0784,1685.2588 C1141.5106,1685.391 1137.8633,1685.6836 1134.2269,1685.9503 C1130.5905,1686.2172 1126.9647,1686.4583 1123.3401,1686.7117 C1119.7153,1686.9651 1116.0916,1687.2311 1112.4534,1687.4729 C1108.8151,1687.7148 1105.1625,1687.9327 1101.6112,1688.2983 C1101.1403,1688.3468 1100.6711,1688.3978 1100.2313,1688.5869 C1099.7915,1688.7759 1099.3811,1689.1031 1099.0424,1689.4927 C1098.7037,1689.8822 1098.437,1690.3344 1098.311,1690.7961 C1098.1849,1691.2579 1098.1998,1691.7296 1098.2174,1692.2026 C1098.35,1695.7703 1098.6404,1699.4178 1098.9088,1703.0541 C1099.177,1706.6904 1099.423,1710.3153 1099.6729,1713.9423 C1100.1724,1721.1962 1100.6874,1728.4579 1101.1925,1735.7145 z" stroke="#960000" stroke-width="0.24" stroke-linecap="round" stroke-linejoin="round" fill="none" />
  <path d="M1097.4357,1681.9874 C1097.4769,1682.8531 1097.9265,1683.8368 1098.69,1684.5159 C1099.0718,1684.8553 1099.532,1685.1185 1099.9976,1685.2429 C1100.4631,1685.3674 1100.9341,1685.353 1101.4066,1685.3357 C1104.9698,1685.2053 1108.6187,1684.9121 1112.2555,1684.6451 C1115.8926,1684.3782 1119.5177,1684.1373 1123.1423,1683.8838 C1126.767,1683.6305 1130.3909,1683.3646 1134.0292,1683.1226 C1137.6674,1682.8807 1141.3198,1682.6628 1144.8712,1682.2972 C1145.3422,1682.2487 1145.8112,1682.1978 1146.251,1682.0085 C1146.6908,1681.8196 1147.1014,1681.4924 1147.44,1681.1029 C1147.7787,1680.7134 1148.0455,1680.2612 1148.1715,1679.7993 C1148.2975,1679.3375 1148.2828,1678.8658 1148.2653,1678.3928 C1148.133,1674.8252 1147.8405,1671.1779 1147.5737,1667.5415 C1147.3069,1663.9049 1147.0658,1660.2793 1146.8125,1656.6547 C1146.559,1653.0299 1146.2931,1649.406 1146.0511,1645.7678 C1145.8092,1642.1295 1145.5913,1638.477 1145.2257,1634.9257 C1145.1772,1634.4548 1145.1262,1633.9857 1144.9371,1633.5459 C1144.748,1633.1061 1144.4209,1632.6957 1144.0314,1632.3569 C1143.6418,1632.0183 1143.1897,1631.7516 1142.7279,1631.6255 C1142.2661,1631.4995 1141.7944,1631.5142 1141.3213,1631.5317 C1137.7538,1631.664 1134.1064,1631.9565 1130.47,1632.2233 C1126.8335,1632.4901 1123.2079,1632.7311 1119.5831,1632.9846 C1115.9584,1633.2379 1112.3345,1633.504 1108.6963,1633.7458 C1105.0581,1633.9878 1101.4056,1634.2056 1097.8542,1634.5712 C1097.3833,1634.6198 1096.9143,1634.6707 1096.4745,1634.8599 C1096.0347,1635.0488 1095.6241,1635.3761 1095.2855,1635.7656 C1094.9468,1636.1552 1094.6799,1636.6072 1094.554,1637.0691 C1094.428,1637.5309 1094.4427,1638.0026 1094.4603,1638.4756 C1094.5929,1642.0432 1094.8835,1645.6908 1095.1517,1649.327 C1095.4202,1652.9634 1095.6661,1656.5883 1095.9158,1660.2152 C1096.4155,1667.4691 1096.9304,1674.7308 1097.4357,1681.9874 z" stroke="#960000" stroke-width="0.24" stroke-linecap="round" stroke-linejoin="round" fill="none" />
  <path d="M1093.6787,1628.2603 C1093.72,1629.1261 1094.1696,1630.1097 1094.9331,1630.7887 C1095.3148,1631.1283 1095.7749,1631.3915 1096.2406,1631.5159 C1096.7063,1631.6404 1097.1772,1631.626 1097.6498,1631.6086 C1101.2129,1631.4783 1104.8617,1631.185 1108.4985,1630.9181 C1112.1355,1630.651 1115.7609,1630.4103 1119.3854,1630.1567 C1123.01,1629.9034 1126.6339,1629.6375 1130.2721,1629.3955 C1133.9105,1629.1537 1137.563,1628.9358 1141.1143,1628.5702 C1141.5852,1628.5216 1142.0543,1628.4707 1142.4941,1628.2815 C1142.934,1628.0925 1143.3444,1627.7653 1143.6831,1627.3757 C1144.0217,1626.9862 1144.2885,1626.5342 1144.4146,1626.0723 C1144.5405,1625.6105 1144.5258,1625.1388 1144.5083,1624.6656 C1144.376,1621.0981 1144.0835,1617.4508 1143.8167,1613.8143 C1143.5499,1610.1779 1143.309,1606.5522 1143.0554,1602.9275 C1142.802,1599.3029 1142.536,1595.679 1142.2942,1592.0406 C1142.0522,1588.4025 1141.8344,1584.75 1141.4689,1581.1986 C1141.4203,1580.7278 1141.3693,1580.2587 1141.1802,1579.8188 C1140.9911,1579.379 1140.664,1578.9685 1140.2744,1578.6299 C1139.8848,1578.2913 1139.4329,1578.0245 1138.971,1577.8984 C1138.5092,1577.7725 1138.0375,1577.7871 1137.5643,1577.8047 C1133.9967,1577.9369 1130.3494,1578.2295 1126.7129,1578.4962 C1123.0765,1578.7631 1119.4509,1579.004 1115.8262,1579.2576 C1112.2015,1579.5109 1108.5776,1579.7769 1104.9393,1580.0188 C1101.3011,1580.2606 1097.6486,1580.4785 1094.0973,1580.8441 C1093.6265,1580.8927 1093.1573,1580.9436 1092.7174,1581.1328 C1092.2776,1581.3218 1091.8671,1581.6489 1091.5284,1582.0386 C1091.19,1582.4281 1090.9231,1582.8801 1090.7971,1583.342 C1090.6711,1583.8038 1090.6859,1584.2755 1090.7035,1584.7485 C1090.8359,1588.3162 1091.1266,1591.9637 1091.3949,1595.6 C1091.6631,1599.2362 1091.909,1602.8612 1092.1589,1606.4882 C1092.6584,1613.7421 1093.1735,1621.0037 1093.6787,1628.2603 z" stroke="#960000" stroke-width="0.24" stroke-linecap="round" stroke-linejoin="round" fill="none" />
  <path d="M1153.5974,1695.2253 C1153.5781,1696.0918 1153.9581,1697.1046 1154.6724,1697.8351 C1155.0294,1698.2004 1155.4702,1698.495 1155.9259,1698.6517 C1156.3817,1698.8082 1156.8527,1698.8268 1157.3251,1698.8424 C1160.8888,1698.9609 1164.5491,1698.9231 1168.1958,1698.9104 C1171.8425,1698.8978 1175.4757,1698.9103 1179.1093,1698.9104 C1182.7427,1698.9104 1186.3762,1698.898 1190.0226,1698.9104 C1193.6688,1698.9229 1197.3276,1698.9602 1200.8958,1698.8433 C1201.3689,1698.8278 1201.8405,1698.8096 1202.2925,1698.6517 C1202.7443,1698.4937 1203.1766,1698.196 1203.5416,1697.831 C1203.9067,1697.4661 1204.2043,1697.0337 1204.3622,1696.5818 C1204.5201,1696.1298 1204.5385,1695.6583 1204.554,1695.1852 C1204.6709,1691.6171 1204.6334,1687.9583 1204.621,1684.3119 C1204.6085,1680.6658 1204.621,1677.0321 1204.621,1673.3986 C1204.621,1669.765 1204.6085,1666.1315 1204.621,1662.4851 C1204.6334,1658.839 1204.6709,1655.1802 1204.554,1651.6119 C1204.5385,1651.1388 1204.5201,1650.6672 1204.3622,1650.2153 C1204.2043,1649.7634 1203.9067,1649.331 1203.5416,1648.9661 C1203.1766,1648.6011 1202.7443,1648.3035 1202.2925,1648.1455 C1201.8405,1647.9875 1201.3689,1647.9694 1200.8958,1647.9537 C1197.3276,1647.8368 1193.6688,1647.8744 1190.0226,1647.8867 C1186.3763,1647.8992 1182.7427,1647.8867 1179.1093,1647.8867 C1175.4756,1647.8867 1171.8419,1647.8992 1168.1958,1647.8867 C1164.5496,1647.8744 1160.8906,1647.8368 1157.3225,1647.9537 C1156.8495,1647.9694 1156.3779,1647.9875 1155.9259,1648.1455 C1155.474,1648.3035 1155.0417,1648.6011 1154.6766,1648.9661 C1154.3116,1649.331 1154.014,1649.7634 1153.8561,1650.2153 C1153.6981,1650.6672 1153.68,1651.1388 1153.6646,1651.6119 C1153.548,1655.18 1153.5835,1658.839 1153.5974,1662.4851 C1153.6113,1666.1313 1153.6039,1669.7646 1153.6001,1673.4001 C1153.5924,1680.6713 1153.5996,1687.951 1153.5974,1695.2253 z" stroke="#960000" stroke-width="0.24" stroke-linecap="round" stroke-linejoin="round" fill="none" />
  <path d="M1153.5974,1641.3671 C1153.5781,1642.2335 1153.9581,1643.2462 1154.6724,1643.9768 C1155.0294,1644.342 1155.4702,1644.6368 1155.9259,1644.7933 C1156.3817,1644.95 1156.8527,1644.9684 1157.3251,1644.9841 C1160.8888,1645.1027 1164.5491,1645.0648 1168.1958,1645.0521 C1171.8425,1645.0394 1175.4757,1645.0521 1179.1093,1645.0521 C1182.7427,1645.0521 1186.3762,1645.0397 1190.0226,1645.0521 C1193.6688,1645.0646 1197.3276,1645.102 1200.8958,1644.9851 C1201.3689,1644.9695 1201.8405,1644.9513 1202.2925,1644.7933 C1202.7443,1644.6354 1203.1766,1644.3378 1203.5416,1643.9728 C1203.9067,1643.6078 1204.2043,1643.1754 1204.3622,1642.7235 C1204.5201,1642.2716 1204.5385,1641.8 1204.554,1641.3269 C1204.6709,1637.7588 1204.6334,1634.0999 1204.621,1630.4537 C1204.6085,1626.8074 1204.621,1623.174 1204.621,1619.5403 C1204.621,1615.9067 1204.6085,1612.2731 1204.621,1608.627 C1204.6334,1604.9807 1204.6709,1601.3218 1204.554,1597.7537 C1204.5385,1597.2805 1204.5201,1596.8091 1204.3622,1596.357 C1204.2043,1595.9052 1203.9067,1595.4728 1203.5416,1595.1079 C1203.1766,1594.7428 1202.7443,1594.4452 1202.2925,1594.2872 C1201.8405,1594.1294 1201.3689,1594.1111 1200.8958,1594.0956 C1197.3276,1593.9786 1193.6688,1594.016 1190.0226,1594.0284 C1186.3763,1594.041 1182.7427,1594.0284 1179.1093,1594.0284 C1175.4756,1594.0284 1171.8419,1594.041 1168.1958,1594.0284 C1164.5496,1594.016 1160.8906,1593.9786 1157.3225,1594.0956 C1156.8495,1594.1111 1156.3779,1594.1294 1155.9259,1594.2872 C1155.474,1594.4452 1155.0417,1594.7428 1154.6766,1595.1079 C1154.3116,1595.4728 1154.014,1595.9052 1153.8561,1596.357 C1153.6981,1596.8091 1153.68,1597.2805 1153.6646,1597.7537 C1153.548,1601.3218 1153.5835,1604.9808 1153.5974,1608.627 C1153.6113,1612.273 1153.6039,1615.9064 1153.6001,1619.5419 C1153.5924,1626.813 1153.5996,1634.0929 1153.5974,1641.3671 z" stroke="#960000" stroke-width="0.24" stroke-linecap="round" stroke-linejoin="round" fill="none" />
  <path d="M1153.5974,1587.5088 C1153.5781,1588.3752 1153.9581,1589.3881 1154.6724,1590.1187 C1155.0294,1590.4838 1155.4702,1590.7784 1155.9259,1590.9352 C1156.3817,1591.0917 1156.8527,1591.1101 1157.3251,1591.126 C1160.8888,1591.2444 1164.5491,1591.2064 1168.1958,1591.1938 C1171.8425,1591.1813 1175.4757,1591.1938 1179.1093,1591.1938 C1182.7427,1591.1938 1186.3762,1591.1814 1190.0226,1591.1938 C1193.6688,1591.2063 1197.3276,1591.2437 1200.8958,1591.1267 C1201.3689,1591.1113 1201.8405,1591.093 1202.2925,1590.9352 C1202.7443,1590.7772 1203.1766,1590.4795 1203.5416,1590.1145 C1203.9067,1589.7495 1204.2043,1589.3171 1204.3622,1588.8652 C1204.5201,1588.4133 1204.5385,1587.9418 1204.554,1587.4686 C1204.6709,1583.9005 1204.6334,1580.2417 1204.621,1576.5953 C1204.6085,1572.9492 1204.621,1569.3156 1204.621,1565.6821 C1204.621,1562.0485 1204.6085,1558.4149 1204.621,1554.7687 C1204.6334,1551.1224 1204.6709,1547.4635 1204.554,1543.8954 C1204.5385,1543.4224 1204.5201,1542.9507 1204.3622,1542.4989 C1204.2043,1542.0469 1203.9067,1541.6146 1203.5416,1541.2495 C1203.1766,1540.8845 1202.7443,1540.5869 1202.2925,1540.429 C1201.8405,1540.271 1201.3689,1540.2528 1200.8958,1540.2373 C1197.3276,1540.1204 1193.6688,1540.1577 1190.0226,1540.1703 C1186.3763,1540.1826 1182.7427,1540.1703 1179.1093,1540.1703 C1175.4756,1540.1703 1171.8419,1540.1826 1168.1958,1540.1703 C1164.5496,1540.1577 1160.8906,1540.1204 1157.3225,1540.2373 C1156.8495,1540.2528 1156.3779,1540.271 1155.9259,1540.429 C1155.474,1540.5869 1155.0417,1540.8845 1154.6766,1541.2495 C1154.3116,1541.6146 1154.014,1542.0469 1153.8561,1542.4989 C1153.6981,1542.9507 1153.68,1543.4224 1153.6646,1543.8954 C1153.548,1547.4635 1153.5835,1551.1224 1153.5974,1554.7687 C1153.6113,1558.4148 1153.6039,1562.0481 1153.6001,1565.6836 C1153.5924,1572.9547 1153.5996,1580.2345 1153.5974,1587.5088 z" stroke="#960000" stroke-width="0.24" stroke-linecap="round" stroke-linejoin="round" fill="none" />
  <path d="M1207.9745,1713.2502 C1207.8948,1714.1133 1208.2031,1715.15 1208.8647,1715.9286 C1209.1954,1716.3179 1209.6146,1716.6427 1210.0583,1716.8306 C1210.5021,1717.0186 1210.9705,1717.07 1211.4408,1717.1185 C1214.9875,1717.4854 1218.6415,1717.7029 1222.2803,1717.9446 C1225.919,1718.1864 1229.5425,1718.4524 1233.167,1718.7059 C1236.7916,1718.9595 1240.4174,1719.2004 1244.0538,1719.4673 C1247.6904,1719.7339 1251.3376,1720.0266 1254.9053,1720.1587 C1255.3784,1720.1763 1255.8501,1720.1909 1256.3119,1720.065 C1256.7737,1719.939 1257.2257,1719.6722 1257.6154,1719.3335 C1258.0049,1718.995 1258.3319,1718.5844 1258.5211,1718.1445 C1258.7101,1717.7047 1258.7612,1717.2356 1258.8097,1716.7648 C1259.1753,1713.2134 1259.3932,1709.5609 1259.6351,1705.9227 C1259.877,1702.2845 1260.1428,1698.6606 1260.3964,1695.0359 C1260.6498,1691.4111 1260.8909,1687.7856 1261.1576,1684.149 C1261.4244,1680.5126 1261.7169,1676.8652 1261.8492,1673.2977 C1261.8667,1672.8246 1261.8815,1672.3529 1261.7554,1671.8911 C1261.6294,1671.4292 1261.3627,1670.9772 1261.0239,1670.5876 C1260.6853,1670.1981 1260.2748,1669.8708 1259.835,1669.6819 C1259.3951,1669.4928 1258.926,1669.4418 1258.4551,1669.3932 C1254.9038,1669.0277 1251.2512,1668.8098 1247.613,1668.5679 C1243.9749,1668.326 1240.3511,1668.06 1236.7263,1667.8066 C1233.1016,1667.5532 1229.476,1667.3121 1225.8395,1667.0453 C1222.203,1666.7786 1218.5557,1666.486 1214.988,1666.3538 C1214.515,1666.3362 1214.0435,1666.3215 1213.5814,1666.4475 C1213.1196,1666.5736 1212.6676,1666.8403 1212.278,1667.179 C1211.8884,1667.5177 1211.5614,1667.9282 1211.3722,1668.3679 C1211.1832,1668.8077 1211.1322,1669.2769 1211.0839,1669.7477 C1210.7185,1673.2991 1210.4987,1676.9517 1210.2583,1680.5898 C1210.018,1684.2281 1209.757,1687.852 1209.4995,1691.4784 C1208.9847,1698.7312 1208.4841,1705.9938 1207.9745,1713.2502 z" stroke="#960000" stroke-width="0.24" stroke-linecap="round" stroke-linejoin="round" fill="none" />
  <path d="M1211.7314,1659.5231 C1211.6519,1660.3862 1211.9602,1661.423 1212.6217,1662.2015 C1212.9525,1662.5908 1213.3716,1662.9155 1213.8153,1663.1035 C1214.259,1663.2915 1214.7275,1663.3429 1215.1978,1663.3915 C1218.7445,1663.7583 1222.3986,1663.9758 1226.0372,1664.2175 C1229.676,1664.4594 1233.2994,1664.7253 1236.9241,1664.9789 C1240.5486,1665.2324 1244.1743,1665.4733 1247.8109,1665.7401 C1251.4473,1666.0068 1255.0946,1666.2994 1258.6622,1666.4316 C1259.1353,1666.4492 1259.6069,1666.4639 1260.0688,1666.3379 C1260.5306,1666.2119 1260.9828,1665.9451 1261.3723,1665.6064 C1261.7618,1665.268 1262.089,1664.8573 1262.278,1664.4175 C1262.4672,1663.9777 1262.5181,1663.5085 1262.5667,1663.0377 C1262.9321,1659.4863 1263.1501,1655.8339 1263.392,1652.1957 C1263.6339,1648.5574 1263.8999,1644.9335 1264.1532,1641.3088 C1264.4067,1637.6841 1264.6478,1634.0585 1264.9146,1630.422 C1265.1813,1626.7855 1265.474,1623.1382 1265.6061,1619.5707 C1265.6237,1619.0975 1265.6383,1618.6259 1265.5123,1618.1641 C1265.3862,1617.7021 1265.1196,1617.2501 1264.7809,1616.8606 C1264.4423,1616.4711 1264.0317,1616.1438 1263.5919,1615.9548 C1263.1521,1615.7656 1262.683,1615.7147 1262.2122,1615.6661 C1258.6608,1615.3007 1255.0083,1615.0826 1251.3701,1614.8408 C1247.7319,1614.599 1244.1079,1614.3329 1240.4833,1614.0796 C1236.8585,1613.826 1233.2329,1613.5851 1229.5964,1613.3182 C1225.96,1613.0515 1222.3126,1612.7589 1218.7451,1612.6267 C1218.272,1612.6091 1217.8003,1612.5945 1217.3385,1612.7205 C1216.8766,1612.8466 1216.4246,1613.1133 1216.035,1613.4519 C1215.6454,1613.7905 1215.3182,1614.201 1215.1293,1614.6409 C1214.9402,1615.0807 1214.8893,1615.5498 1214.8407,1616.0206 C1214.4756,1619.572 1214.2556,1623.2245 1214.0153,1626.8628 C1213.7748,1630.5011 1213.5139,1634.125 1213.2565,1637.7513 C1212.7418,1645.0042 1212.2411,1652.2667 1211.7314,1659.5231 z" stroke="#960000" stroke-width="0.24" stroke-linecap="round" stroke-linejoin="round" fill="none" />
  <path d="M1215.4883,1605.796 C1215.4087,1606.6592 1215.717,1607.6959 1216.3785,1608.4745 C1216.7095,1608.8638 1217.1284,1609.1885 1217.5723,1609.3765 C1218.0161,1609.5645 1218.4845,1609.6157 1218.9547,1609.6644 C1222.5015,1610.0312 1226.1554,1610.2487 1229.7942,1610.4905 C1233.4329,1610.7322 1237.0563,1610.9983 1240.6809,1611.2518 C1244.3055,1611.5054 1247.9313,1611.7462 1251.5677,1612.0131 C1255.2043,1612.2798 1258.8516,1612.5724 1262.4192,1612.7046 C1262.8923,1612.7222 1263.3639,1612.7368 1263.8258,1612.6108 C1264.2876,1612.4849 1264.7396,1612.218 1265.1292,1611.8794 C1265.5188,1611.5408 1265.846,1611.1302 1266.0349,1610.6904 C1266.2241,1610.2506 1266.2751,1609.7815 1266.3236,1609.3107 C1266.6892,1605.7593 1266.907,1602.1068 1267.149,1598.4685 C1267.3909,1594.8303 1267.6567,1591.2064 1267.9103,1587.5817 C1268.1637,1583.957 1268.4047,1580.3314 1268.6715,1576.6948 C1268.9384,1573.0585 1269.2308,1569.4111 1269.3632,1565.8435 C1269.3806,1565.3705 1269.3954,1564.8988 1269.2693,1564.437 C1269.1433,1563.9751 1268.8765,1563.523 1268.538,1563.1334 C1268.1992,1562.7439 1267.7887,1562.4167 1267.349,1562.2278 C1266.909,1562.0386 1266.44,1561.9877 1265.9691,1561.9391 C1262.4178,1561.5736 1258.7651,1561.3556 1255.127,1561.1138 C1251.4888,1560.8718 1247.8649,1560.6058 1244.2401,1560.3525 C1240.6155,1560.099 1236.9899,1559.8579 1233.3534,1559.5912 C1229.7169,1559.3245 1226.0697,1559.0317 1222.502,1558.8997 C1222.0289,1558.8821 1221.5573,1558.8674 1221.0953,1558.9934 C1220.6335,1559.1195 1220.1815,1559.3862 1219.7919,1559.7249 C1219.4023,1560.0635 1219.0753,1560.474 1218.8862,1560.9138 C1218.6971,1561.3536 1218.6461,1561.8228 1218.5978,1562.2936 C1218.2325,1565.845 1218.0127,1569.4974 1217.7722,1573.1356 C1217.5319,1576.7739 1217.2709,1580.398 1217.0135,1584.0243 C1216.4987,1591.2771 1215.9979,1598.5397 1215.4883,1605.796 z" stroke="#960000" stroke-width="0.24" stroke-linecap="round" stroke-linejoin="round" fill="none" />
  <path d="M1256.4279,1763.9645 C1256.2883,1764.8198 1256.5236,1765.8756 1257.1292,1766.6985 C1257.432,1767.1099 1257.8275,1767.4631 1258.257,1767.6815 C1258.6865,1767.9001 1259.1503,1767.9839 1259.616,1768.0652 C1263.1284,1768.6786 1266.7584,1769.1504 1270.3713,1769.6454 C1273.9844,1770.1404 1277.5804,1770.6586 1281.1786,1771.1643 C1284.7766,1771.67 1288.3767,1772.1633 1291.9857,1772.6831 C1295.5947,1773.203 1299.2128,1773.7491 1302.7625,1774.1299 C1303.2332,1774.1804 1303.7026,1774.228 1304.1722,1774.1345 C1304.6416,1774.0411 1305.1112,1773.8065 1305.5234,1773.4958 C1305.9358,1773.1852 1306.2906,1772.7985 1306.51,1772.3729 C1306.7292,1771.9473 1306.8129,1771.4829 1306.894,1771.0166 C1307.5065,1767.4995 1307.9786,1763.871 1308.4738,1760.2584 C1308.9689,1756.646 1309.4869,1753.0496 1309.9927,1749.4513 C1310.4983,1745.853 1310.9917,1742.2532 1311.5115,1738.6442 C1312.0314,1735.0352 1312.5776,1731.4171 1312.9584,1727.8673 C1313.0088,1727.3967 1313.0564,1726.9272 1312.9629,1726.4576 C1312.8694,1725.9882 1312.6349,1725.5187 1312.3242,1725.1064 C1312.0135,1724.6941 1311.6268,1724.3392 1311.2012,1724.1199 C1310.7758,1723.9006 1310.3113,1723.817 1309.8448,1723.7358 C1306.3278,1723.1234 1302.6993,1722.6512 1299.0868,1722.1561 C1295.4744,1721.661 1291.8779,1721.143 1288.2797,1720.6372 C1284.6814,1720.1316 1281.0814,1719.6382 1277.4725,1719.1184 C1273.8635,1718.5985 1270.2455,1718.0522 1266.6958,1717.6715 C1266.2251,1717.6211 1265.7555,1717.5735 1265.2861,1717.667 C1264.8165,1717.7605 1264.3469,1717.995 1263.9348,1718.3057 C1263.5226,1718.6163 1263.1676,1719.003 1262.9484,1719.4286 C1262.729,1719.8541 1262.6454,1720.3186 1262.5643,1720.785 C1261.9523,1724.3021 1261.478,1727.9304 1260.9845,1731.5431 C1260.4907,1735.1556 1259.9778,1738.7526 1259.468,1742.3522 C1258.4486,1749.5514 1257.4425,1756.7615 1256.4279,1763.9645 z" stroke="#960000" stroke-width="0.24" stroke-linecap="round" stroke-linejoin="round" fill="none" />
  <path d="M1263.9236,1710.6305 C1263.7838,1711.4857 1264.0192,1712.5415 1264.6248,1713.3644 C1264.9276,1713.7758 1265.323,1714.129 1265.7526,1714.3474 C1266.1821,1714.5659 1266.6459,1714.6498 1267.1117,1714.7311 C1270.6241,1715.3445 1274.254,1715.8163 1277.867,1716.3113 C1281.48,1716.8063 1285.0762,1717.3245 1288.6742,1717.8301 C1292.2722,1718.3359 1295.8724,1718.8292 1299.4814,1719.349 C1303.0905,1719.8688 1306.7084,1720.415 1310.258,1720.7959 C1310.7289,1720.8463 1311.1982,1720.8939 1311.6677,1720.8004 C1312.1373,1720.7069 1312.6069,1720.4723 1313.0192,1720.1616 C1313.4314,1719.8511 1313.7863,1719.4644 1314.0056,1719.0388 C1314.2249,1718.6132 1314.3086,1718.1488 1314.3898,1717.6825 C1315.0022,1714.1653 1315.4744,1710.5369 1315.9695,1706.9244 C1316.4646,1703.3119 1316.9825,1699.7153 1317.4883,1696.1172 C1317.994,1692.5189 1318.4873,1688.9191 1319.0071,1685.31 C1319.5269,1681.7009 1320.0732,1678.0829 1320.454,1674.5333 C1320.5045,1674.0626 1320.5521,1673.5931 1320.4585,1673.1235 C1320.365,1672.654 1320.1304,1672.1846 1319.8198,1671.7722 C1319.5092,1671.36 1319.1226,1671.005 1318.6969,1670.7858 C1318.2714,1670.5665 1317.807,1670.4829 1317.3406,1670.4016 C1313.8234,1669.7892 1310.195,1669.317 1306.5825,1668.8219 C1302.97,1668.3268 1299.3735,1667.8087 1295.7754,1667.3031 C1292.1771,1666.7974 1288.5771,1666.3041 1284.9681,1665.7842 C1281.3591,1665.2644 1277.7411,1664.7181 1274.1914,1664.3374 C1273.7207,1664.2869 1273.2512,1664.2394 1272.7816,1664.3329 C1272.3121,1664.4264 1271.8427,1664.6609 1271.4303,1664.9716 C1271.0181,1665.2822 1270.6631,1665.669 1270.4438,1666.0945 C1270.2246,1666.52 1270.1411,1666.9845 1270.0598,1667.4508 C1269.4478,1670.968 1268.9736,1674.5962 1268.48,1678.2089 C1267.9865,1681.8214 1267.4734,1685.4185 1266.9636,1689.0181 C1265.9442,1696.2173 1264.9381,1703.4272 1263.9236,1710.6305 z" stroke="#960000" stroke-width="0.24" stroke-linecap="round" stroke-linejoin="round" fill="none" />
  <path d="M1271.4191,1657.2964 C1271.2795,1658.1517 1271.5148,1659.2074 1272.1205,1660.0302 C1272.4233,1660.4417 1272.8187,1660.7948 1273.2482,1661.0133 C1273.6777,1661.2318 1274.1415,1661.3157 1274.6072,1661.397 C1278.1198,1662.0103 1281.7496,1662.4822 1285.3627,1662.9772 C1288.9757,1663.4722 1292.5717,1663.9904 1296.1698,1664.496 C1299.768,1665.0017 1303.3679,1665.4951 1306.9769,1666.0149 C1310.5859,1666.5347 1314.204,1667.0809 1317.7538,1667.4618 C1318.2244,1667.5122 1318.694,1667.5598 1319.1635,1667.4663 C1319.6329,1667.3728 1320.1025,1667.1382 1320.5146,1666.8275 C1320.927,1666.5168 1321.2819,1666.1301 1321.5012,1665.7046 C1321.7206,1665.2792 1321.8042,1664.8147 1321.8854,1664.3483 C1322.4977,1660.8312 1322.97,1657.2026 1323.465,1653.5903 C1323.9601,1649.9778 1324.4781,1646.3812 1324.9839,1642.783 C1325.4896,1639.1849 1325.9829,1635.5848 1326.5027,1631.9758 C1327.0226,1628.3668 1327.5688,1624.7488 1327.9497,1621.1992 C1328,1620.7284 1328.0476,1620.259 1327.9542,1619.7894 C1327.8607,1619.32 1327.6261,1618.8503 1327.3154,1618.4381 C1327.0048,1618.0259 1326.618,1617.671 1326.1925,1617.4517 C1325.767,1617.2324 1325.3025,1617.1487 1324.8362,1617.0675 C1321.3191,1616.4551 1317.6906,1615.9829 1314.078,1615.4878 C1310.4656,1614.9927 1306.8691,1614.4746 1303.2709,1613.969 C1299.6726,1613.4633 1296.0728,1612.97 1292.4637,1612.4501 C1288.8547,1611.9303 1285.2367,1611.384 1281.687,1611.0033 C1281.2163,1610.9528 1280.7468,1610.9052 1280.2773,1610.9987 C1279.8079,1611.0923 1279.3383,1611.3268 1278.926,1611.6373 C1278.5138,1611.948 1278.1588,1612.3347 1277.9396,1612.7604 C1277.7202,1613.1859 1277.6367,1613.6503 1277.5555,1614.1167 C1276.9435,1617.6339 1276.4692,1621.2621 1275.9757,1624.8748 C1275.482,1628.4874 1274.969,1632.0842 1274.4594,1635.684 C1273.4398,1642.883 1272.4337,1650.0931 1271.4191,1657.2964 z" stroke="#960000" stroke-width="0.24" stroke-linecap="round" stroke-linejoin="round" fill="none" />
  <path d="M1317.2576,1718.126 C1317.118,1718.9813 1317.3533,1720.0371 1317.959,1720.86 C1318.2617,1721.2715 1318.6571,1721.6245 1319.0868,1721.8431 C1319.5162,1722.0615 1319.98,1722.1454 1320.4458,1722.2268 C1323.9583,1722.84 1327.5881,1723.3119 1331.2012,1723.8069 C1334.8141,1724.3019 1338.4103,1724.82 1342.0083,1725.3258 C1345.6064,1725.8314 1349.2064,1726.3248 1352.8154,1726.8446 C1356.4246,1727.3644 1360.0425,1727.9106 1363.5923,1728.2915 C1364.0629,1728.3419 1364.5325,1728.3895 1365.0018,1728.296 C1365.4714,1728.2025 1365.941,1727.9679 1366.3533,1727.6573 C1366.7654,1727.3467 1367.1204,1726.96 1367.3396,1726.5343 C1367.5591,1726.1089 1367.6427,1725.6444 1367.7239,1725.178 C1368.3363,1721.6609 1368.8085,1718.0325 1369.3036,1714.4199 C1369.7987,1710.8075 1370.3167,1707.211 1370.8224,1703.6128 C1371.3281,1700.0145 1371.8215,1696.4146 1372.3412,1692.8057 C1372.8611,1689.1967 1373.4072,1685.5786 1373.7881,1682.0288 C1373.8386,1681.5582 1373.8862,1681.0886 1373.7927,1680.6193 C1373.6992,1680.1497 1373.4646,1679.68 1373.1539,1679.268 C1372.8433,1678.8557 1372.4565,1678.5007 1372.031,1678.2815 C1371.6055,1678.062 1371.1411,1677.9784 1370.6747,1677.8972 C1367.1576,1677.2849 1363.529,1676.8126 1359.9166,1676.3176 C1356.3041,1675.8225 1352.7076,1675.3044 1349.1094,1674.7987 C1345.5112,1674.293 1341.9113,1673.7997 1338.3022,1673.2799 C1334.6932,1672.76 1331.0752,1672.2139 1327.5255,1671.833 C1327.0548,1671.7826 1326.5853,1671.735 1326.1157,1671.8284 C1325.6464,1671.9219 1325.1768,1672.1565 1324.7645,1672.4672 C1324.3522,1672.7778 1323.9973,1673.1646 1323.778,1673.5901 C1323.5587,1674.0157 1323.4752,1674.4801 1323.394,1674.9464 C1322.7819,1678.4636 1322.3077,1682.0919 1321.8142,1685.7045 C1321.3206,1689.3171 1320.8075,1692.9141 1320.2977,1696.5135 C1319.2783,1703.7129 1318.2722,1710.9229 1317.2576,1718.126 z" stroke="#960000" stroke-width="0.24" stroke-linecap="round" stroke-linejoin="round" fill="none" />
  <path d="M1324.7533,1664.7919 C1324.6136,1665.6472 1324.8489,1666.703 1325.4545,1667.5259 C1325.7573,1667.9373 1326.1528,1668.2905 1326.5823,1668.5089 C1327.012,1668.7275 1327.4756,1668.8113 1327.9413,1668.8926 C1331.4539,1669.506 1335.0837,1669.9778 1338.6968,1670.4728 C1342.3098,1670.9678 1345.9058,1671.486 1349.5039,1671.9917 C1353.1019,1672.4974 1356.702,1672.9907 1360.311,1673.5105 C1363.9202,1674.0304 1367.5382,1674.5765 1371.0879,1674.9573 C1371.5585,1675.0078 1372.028,1675.0554 1372.4976,1674.9619 C1372.9672,1674.8684 1373.4365,1674.6339 1373.8489,1674.3232 C1374.2611,1674.0126 1374.6161,1673.6259 1374.8353,1673.2003 C1375.0546,1672.7747 1375.1382,1672.3103 1375.2195,1671.8439 C1375.8319,1668.3268 1376.3041,1664.6984 1376.7992,1661.0858 C1377.2943,1657.4734 1377.8124,1653.877 1378.318,1650.2787 C1378.8237,1646.6804 1379.317,1643.0806 1379.8369,1639.4716 C1380.3567,1635.8625 1380.903,1632.2445 1381.2837,1628.6947 C1381.3342,1628.2241 1381.3817,1627.7546 1381.2882,1627.285 C1381.1947,1626.8156 1380.9602,1626.346 1380.6495,1625.9338 C1380.3389,1625.5215 1379.9521,1625.1665 1379.5267,1624.9473 C1379.1011,1624.7279 1378.6366,1624.6443 1378.1703,1624.5631 C1374.6532,1623.9507 1371.0248,1623.4786 1367.4122,1622.9835 C1363.7998,1622.4884 1360.2032,1621.9702 1356.605,1621.4646 C1353.0068,1620.959 1349.4069,1620.4656 1345.7979,1619.9458 C1342.1888,1619.4259 1338.5708,1618.8796 1335.0211,1618.4989 C1334.5504,1618.4485 1334.081,1618.4009 1333.6115,1618.4944 C1333.1418,1618.5878 1332.6724,1618.8224 1332.2601,1619.133 C1331.8479,1619.4437 1331.4929,1619.8304 1331.2737,1620.256 C1331.0544,1620.6815 1330.9707,1621.146 1330.8896,1621.6124 C1330.2776,1625.1295 1329.8035,1628.7578 1329.3098,1632.3705 C1328.8163,1635.9829 1328.3031,1639.58 1327.7935,1643.1796 C1326.7739,1650.3788 1325.7678,1657.5887 1324.7533,1664.7919 z" stroke="#960000" stroke-width="0.24" stroke-linecap="round" stroke-linejoin="round" fill="none" />
  <path d="M1011.70386,1827.4805 C1011.92413,1828.3186 1012.5684,1829.1874 1013.4565,1829.6929 C1013.9004,1829.9456 1014.40533,1830.1073 1014.88666,1830.1322 C1015.3679,1830.1571 1015.82556,1830.0452 1016.28424,1829.9299 C1019.74243,1829.0615 1023.2504,1828.0162 1026.7524,1826.9989 C1030.2544,1825.9816 1033.7504,1824.9922 1037.243,1823.9907 C1040.7357,1822.9893 1044.2252,1821.9757 1047.7338,1820.9827 C1051.2421,1819.9895 1054.7695,1819.0171 1058.1671,1817.9211 C1058.6177,1817.7759 1059.0659,1817.6283 1059.4569,1817.3518 C1059.8478,1817.0756 1060.1814,1816.6702 1060.4315,1816.2188 C1060.6819,1815.7672 1060.8488,1815.2697 1060.8761,1814.7916 C1060.9032,1814.3137 1060.7909,1813.8555 1060.6753,1813.3962 C1059.8042,1809.9342 1058.7598,1806.4274 1057.7427,1802.9258 C1056.7257,1799.4243 1055.7361,1795.9281 1054.7346,1792.4352 C1053.733,1788.9424 1052.7195,1785.453 1051.7264,1781.9446 C1050.7334,1778.4362 1049.7609,1774.9087 1048.6649,1771.511 C1048.5195,1771.0605 1048.3722,1770.6123 1048.0957,1770.2213 C1047.8193,1769.8306 1047.4141,1769.497 1046.9626,1769.2467 C1046.5111,1768.9965 1046.0135,1768.8296 1045.5355,1768.8022 C1045.0575,1768.775 1044.5992,1768.8875 1044.1401,1769.0029 C1040.678,1769.874 1037.1713,1770.9185 1033.6697,1771.9355 C1030.1681,1772.9525 1026.6719,1773.9421 1023.1791,1774.9437 C1019.68616,1775.9453 1016.1968,1776.9589 1012.6884,1777.9519 C1009.17993,1778.945 1005.6526,1779.9175 1002.2549,1781.0134 C1001.80444,1781.1587 1001.3562,1781.3062 1000.9652,1781.5825 C1000.5743,1781.8589 1000.2408,1782.2643 999.9906,1782.7157 C999.7403,1783.1672 999.5733,1783.6648 999.5461,1784.1428 C999.5189,1784.6207 999.6314,1785.079 999.74695,1785.5381 C1000.61835,1789.0001 1001.66095,1792.5076 1002.6793,1796.0085 C1003.6978,1799.5096 1004.69214,1803.0044 1005.6906,1806.5 C1007.68744,1813.4916 1009.70087,1820.4874 1011.70386,1827.4805 z" stroke="#960000" stroke-width="0.24" stroke-linecap="round" stroke-linejoin="round" fill="none" />
  <path d="M1063.4757,1812.6351 C1063.696,1813.4733 1064.3403,1814.3422 1065.2283,1814.8474 C1065.6724,1815.1002 1066.1771,1815.262 1066.6586,1815.2869 C1067.1399,1815.3118 1067.5974,1815.1997 1068.056,1815.0846 C1071.5143,1814.2163 1075.0223,1813.1708 1078.5244,1812.1536 C1082.0262,1811.1362 1085.5222,1810.147 1089.015,1809.1454 C1092.5077,1808.1439 1095.9972,1807.1302 1099.5056,1806.1372 C1103.014,1805.1442 1106.5415,1804.1716 1109.9391,1803.0757 C1110.3896,1802.9304 1110.8379,1802.783 1111.2289,1802.5065 C1111.6196,1802.2302 1111.9531,1801.8248 1112.2035,1801.3734 C1112.4536,1800.9219 1112.6206,1800.4243 1112.648,1799.9463 C1112.6752,1799.4683 1112.5626,1799.0101 1112.4473,1798.551 C1111.5762,1795.0887 1110.5317,1791.582 1109.5146,1788.0806 C1108.4976,1784.579 1107.508,1781.0826 1106.5065,1777.5898 C1105.5049,1774.097 1104.4913,1770.6077 1103.4983,1767.0992 C1102.5052,1763.5908 1101.5327,1760.0635 1100.4368,1756.6656 C1100.2915,1756.2152 1100.1439,1755.767 1099.8677,1755.3761 C1099.5912,1754.9851 1099.1859,1754.6516 1098.7344,1754.4014 C1098.283,1754.1511 1097.7853,1753.9841 1097.3074,1753.9569 C1096.8295,1753.9296 1096.3711,1754.0421 1095.9121,1754.1577 C1092.4498,1755.0287 1088.943,1756.0732 1085.4417,1757.0902 C1081.9401,1758.1072 1078.4437,1759.0968 1074.9509,1760.0984 C1071.4581,1761.0999 1067.9688,1762.1134 1064.4603,1763.1064 C1060.9519,1764.0995 1057.4244,1765.072 1054.0269,1766.168 C1053.5762,1766.3132 1053.1279,1766.4608 1052.7372,1766.7373 C1052.3462,1767.0135 1052.0127,1767.419 1051.7623,1767.8704 C1051.5122,1768.3219 1051.3452,1768.8195 1051.318,1769.2975 C1051.2906,1769.7754 1051.4033,1770.2336 1051.5189,1770.6927 C1052.3903,1774.1548 1053.4329,1777.6622 1054.4513,1781.1633 C1055.4697,1784.6643 1056.4641,1788.1589 1057.4624,1791.6548 C1059.4592,1798.6461 1061.4728,1805.642 1063.4757,1812.6351 z" stroke="#960000" stroke-width="0.24" stroke-linecap="round" stroke-linejoin="round" fill="none" />
  <path d="M1115.2476,1797.7897 C1115.468,1798.6279 1116.1123,1799.4968 1117.0002,1800.0021 C1117.4442,1800.2548 1117.9491,1800.4166 1118.4303,1800.4414 C1118.9116,1800.4664 1119.3694,1800.3544 1119.8279,1800.2391 C1123.2863,1799.3708 1126.7943,1798.3256 1130.2961,1797.3082 C1133.7982,1796.2909 1137.2942,1795.3015 1140.7867,1794.3 C1144.2795,1793.2986 1147.769,1792.2849 1151.2775,1791.2919 C1154.7859,1790.2988 1158.3134,1789.3263 1161.7109,1788.2303 C1162.1616,1788.0851 1162.6099,1787.9375 1163.0006,1787.6613 C1163.3916,1787.3848 1163.7251,1786.9795 1163.9753,1786.528 C1164.2256,1786.0767 1164.3926,1785.5789 1164.4198,1785.1011 C1164.447,1784.623 1164.3346,1784.1647 1164.2191,1783.7057 C1163.348,1780.2435 1162.3035,1776.7367 1161.2865,1773.2351 C1160.2694,1769.7336 1159.2799,1766.2373 1158.2783,1762.7446 C1157.2769,1759.2517 1156.2633,1755.7623 1155.2703,1752.2539 C1154.2772,1748.7455 1153.3047,1745.218 1152.2087,1741.8204 C1152.0634,1741.3698 1151.9159,1740.9215 1151.6395,1740.5308 C1151.363,1740.1398 1150.9579,1739.8063 1150.5063,1739.556 C1150.0549,1739.3058 1149.5573,1739.1388 1149.0793,1739.1116 C1148.6013,1739.0844 1148.1431,1739.1968 1147.684,1739.3123 C1144.2218,1740.1833 1140.715,1741.2279 1137.2134,1742.2449 C1133.7119,1743.262 1130.2157,1744.2515 1126.7228,1745.253 C1123.23,1746.2545 1119.7406,1747.2681 1116.2323,1748.2611 C1112.7238,1749.2542 1109.1963,1750.2267 1105.7987,1751.3226 C1105.3481,1751.468 1104.8999,1751.6155 1104.509,1751.8918 C1104.1182,1752.1683 1103.7847,1752.5735 1103.5343,1753.025 C1103.284,1753.4764 1103.1171,1753.9741 1103.0898,1754.452 C1103.0626,1754.93 1103.1752,1755.3882 1103.2906,1755.8474 C1104.1621,1759.3094 1105.2047,1762.8169 1106.2231,1766.318 C1107.2417,1769.819 1108.2358,1773.3136 1109.2343,1776.8093 C1111.2312,1783.8008 1113.2446,1790.7966 1115.2476,1797.7897 z" stroke="#960000" stroke-width="0.24" stroke-linecap="round" stroke-linejoin="round" fill="none" />
  <path d="M1052.9827,1737.0966 L1092.5709,1734.3284 L1089.8027,1694.74 L1050.2144,1697.5082 z" stroke="#960000" stroke-width="0.24" stroke-linecap="round" stroke-linejoin="round" fill="none" />
  <path d="M1049.2257,1683.3695 L1088.814,1680.6012 L1086.0458,1641.0128 L1046.4574,1643.7811 z" stroke="#960000" stroke-width="0.24" stroke-linecap="round" stroke-linejoin="round" fill="none" />
  <path d="M1045.4686,1629.6425 L1085.057,1626.8741 L1082.2888,1587.2858 L1042.7004,1590.0541 z" stroke="#960000" stroke-width="0.24" stroke-linecap="round" stroke-linejoin="round" fill="none" />
  <path d="M1106.7097,1733.3396 L1146.2981,1730.5714 L1143.5298,1690.983 L1103.9414,1693.7512 z" stroke="#960000" stroke-width="0.24" stroke-linecap="round" stroke-linejoin="round" fill="none" />
  <path d="M1102.9528,1679.6125 L1142.5411,1676.8442 L1139.7728,1637.2559 L1100.1844,1640.0242 z" stroke="#960000" stroke-width="0.24" stroke-linecap="round" stroke-linejoin="round" fill="none" />
  <path d="M1099.1958,1625.8855 L1138.7842,1623.1172 L1136.0159,1583.5288 L1096.4275,1586.2971 z" stroke="#960000" stroke-width="0.24" stroke-linecap="round" stroke-linejoin="round" fill="none" />
  <path d="M1159.2667,1693.2411 L1198.9517,1693.2411 L1198.9517,1653.556 L1159.2667,1653.556 z" stroke="#960000" stroke-width="0.24" stroke-linecap="round" stroke-linejoin="round" fill="none" />
  <path d="M1159.2667,1639.3828 L1198.9517,1639.3828 L1198.9517,1599.6978 L1159.2667,1599.6978 z" stroke="#960000" stroke-width="0.24" stroke-linecap="round" stroke-linejoin="round" fill="none" />
  <path d="M1159.2667,1585.5245 L1198.9517,1585.5245 L1198.9517,1545.8396 L1159.2667,1545.8396 z" stroke="#960000" stroke-width="0.24" stroke-linecap="round" stroke-linejoin="round" fill="none" />
  <path d="M1213.7683,1711.6664 L1253.3567,1714.4346 L1256.125,1674.8462 L1216.5366,1672.078 z" stroke="#960000" stroke-width="0.24" stroke-linecap="round" stroke-linejoin="round" fill="none" />
  <path d="M1217.5253,1657.9392 L1257.1136,1660.7075 L1259.882,1621.1191 L1220.2936,1618.3508 z" stroke="#960000" stroke-width="0.24" stroke-linecap="round" stroke-linejoin="round" fill="none" />
  <path d="M1221.2822,1604.2122 L1260.8706,1606.9805 L1263.6389,1567.3921 L1224.0505,1564.6238 z" stroke="#960000" stroke-width="0.24" stroke-linecap="round" stroke-linejoin="round" fill="none" />
  <path d="M1262.3182,1762.7887 L1301.6171,1768.3118 L1307.1401,1729.013 L1267.8413,1723.4899 z" stroke="#960000" stroke-width="0.24" stroke-linecap="round" stroke-linejoin="round" fill="none" />
  <path d="M1269.8138,1709.4545 L1309.1127,1714.9777 L1314.6357,1675.6788 L1275.3369,1670.1556 z" stroke="#960000" stroke-width="0.24" stroke-linecap="round" stroke-linejoin="round" fill="none" />
  <path d="M1277.3094,1656.1204 L1316.6083,1661.6434 L1322.1313,1622.3446 L1282.8325,1616.8215 z" stroke="#960000" stroke-width="0.24" stroke-linecap="round" stroke-linejoin="round" fill="none" />
  <path d="M1323.148,1716.9502 L1362.4468,1722.4733 L1367.9698,1683.1744 L1328.671,1677.6514 z" stroke="#960000" stroke-width="0.24" stroke-linecap="round" stroke-linejoin="round" fill="none" />
  <path d="M1330.6436,1663.616 L1369.9424,1669.1392 L1375.4655,1629.8403 L1336.1666,1624.3171 z" stroke="#960000" stroke-width="0.24" stroke-linecap="round" stroke-linejoin="round" fill="none" />
  <path d="M1016.60657,1824.0105 L1054.7543,1813.0718 L1043.8156,1774.9241 L1005.6679,1785.8628 z" stroke="#960000" stroke-width="0.24" stroke-linecap="round" stroke-linejoin="round" fill="none" />
  <path d="M1068.3784,1809.165 L1106.5261,1798.2264 L1095.5875,1760.0787 L1057.4398,1771.0173 z" stroke="#960000" stroke-width="0.24" stroke-linecap="round" stroke-linejoin="round" fill="none" />
  <path d="M1120.1504,1794.3197 L1158.2981,1783.3811 L1147.3594,1745.2334 L1109.2117,1756.172 z" stroke="#960000" stroke-width="0.24" stroke-linecap="round" stroke-linejoin="round" fill="none" />
</svg>