<?xml version="1.0" encoding="utf-8" standalone="no"?>
<!DOCTYPE svg PUBLIC "-//W3C//DTD SVG 1.1//EN" "http://www.w3.org/Graphics/SVG/1.1/DTD/svg11.dtd">
<svg version="1.1" width="595.2pt" height="841.7pt" viewBox="0 0 595.2 841.68" xmlns="http://www.w3.org/2000/svg">
  <defs />
  <g id="keycaps">
    <path d="M419.2045,670.68097 L469.59995,678.66284 L477.58182,628.2674 L427.18634,620.2856 z" stroke="#00FFFF" stroke-width="0.24" stroke-linecap="round" stroke-linejoin="round" fill="none" />
    <path d="M479.2034,627.08923 L529.5989,635.0711 L537.5807,584.67566 L487.18524,576.6938 z" stroke="#00FFFF" stroke-width="0.24" stroke-linecap="round" stroke-linejoin="round" fill="none" />
    <path d="M366.3667,674.1447 L417.1108,679.47815 L422.44424,628.734 L371.7001,623.4006 z" stroke="#00FFFF" stroke-width="0.24" stroke-linecap="round" stroke-linejoin="round" fill="none" />
    <path d="M318.68857,603.84644 L369.64224,606.51685 L372.31262,555.5632 L321.35892,552.89276 z" stroke="#00FFFF" stroke-width="0.24" stroke-linecap="round" stroke-linejoin="round" fill="none" />
    <path d="M315.944,656.2156 L366.8977,658.8859 L369.56805,607.9322 L318.61438,605.26184 z" stroke="#00FFFF" stroke-width="0.24" stroke-linecap="round" stroke-linejoin="round" fill="none" />
    <path d="M377.32983,569.8374 L428.07394,575.1708 L433.40735,524.4267 L382.66327,519.09326 z" stroke="#00FFFF" stroke-width="0.24" stroke-linecap="round" stroke-linejoin="round" fill="none" />
    <path d="M264.13712,589.7503 L315.16074,589.7503 L315.16074,538.7266 L264.13712,538.7266 z" stroke="#00FFFF" stroke-width="0.24" stroke-linecap="round" stroke-linejoin="round" fill="none" />
    <path d="M211.69615,694.6322 L262.7198,694.6322 L262.7198,643.6086 L211.69615,643.6086 z" stroke="#00FFFF" stroke-width="0.24" stroke-linecap="round" stroke-linejoin="round" fill="none" />
    <path d="M371.84827,621.991 L422.5924,627.32446 L427.9258,576.5804 L377.18167,571.24695 z" stroke="#00FFFF" stroke-width="0.24" stroke-linecap="round" stroke-linejoin="round" fill="none" />
    <path d="M264.13712,642.1912 L315.16074,642.1912 L315.16074,591.16766 L264.13712,591.16766 z" stroke="#00FFFF" stroke-width="0.24" stroke-linecap="round" stroke-linejoin="round" fill="none" />
    <path d="M462.79626,730.6799 L513.19165,738.6617 L521.1735,688.2663 L470.7781,680.2844 z" stroke="#00FFFF" stroke-width="0.24" stroke-linecap="round" stroke-linejoin="round" fill="none" />
    <path d="M209.44829,785.28845 L196.24239,736.0034 L146.95735,749.2093 L160.16325,798.4943 z" stroke="#00FFFF" stroke-width="0.24" stroke-linecap="round" stroke-linejoin="round" fill="none" />
    <path d="M264.13712,694.6322 L315.16074,694.6322 L315.16074,643.6086 L264.13712,643.6086 z" stroke="#00FFFF" stroke-width="0.24" stroke-linecap="round" stroke-linejoin="round" fill="none" />
    <path d="M211.69615,589.7503 L262.7198,589.7503 L262.7198,538.7266 L211.69615,538.7266 z" stroke="#00FFFF" stroke-width="0.24" stroke-linecap="round" stroke-linejoin="round" fill="none" />
    <path d="M211.69615,642.1912 L262.7198,642.1912 L262.7198,591.16766 L211.69615,591.16766 z" stroke="#00FFFF" stroke-width="0.24" stroke-linecap="round" stroke-linejoin="round" fill="none" />
    <path d="M310.7564,758.143 L297.5505,708.858 L248.2655,722.06384 L261.47137,771.3489 z" stroke="#00FFFF" stroke-width="0.24" stroke-linecap="round" stroke-linejoin="round" fill="none" />
    <path d="M427.40808,618.8856 L477.80353,626.8675 L485.78537,576.4721 L435.38995,568.49023 z" stroke="#00FFFF" stroke-width="0.24" stroke-linecap="round" stroke-linejoin="round" fill="none" />
    <path d="M411.00095,722.4763 L461.39636,730.4582 L469.37823,680.06274 L418.9828,672.0809 z" stroke="#00FFFF" stroke-width="0.24" stroke-linecap="round" stroke-linejoin="round" fill="none" />
    <path d="M260.10236,771.7157 L246.89645,722.4307 L197.61142,735.63654 L210.8173,784.9216 z" stroke="#00FFFF" stroke-width="0.24" stroke-linecap="round" stroke-linejoin="round" fill="none" />
    <path d="M470.99982,678.8845 L521.39526,686.8664 L529.37714,636.47095 L478.98166,628.4891 z" stroke="#00FFFF" stroke-width="0.24" stroke-linecap="round" stroke-linejoin="round" fill="none" />
    <path d="M321.4331,551.4774 L372.3868,554.14777 L375.05716,503.19403 L324.1035,500.52368 z" stroke="#00FFFF" stroke-width="0.24" stroke-linecap="round" stroke-linejoin="round" fill="none" />
  </g>
  <g id="helpers">
    <path d="M208.86151,535.89197 L315.16074,535.89197 L321.42105,497.54456 L378.0363,500.51163 L378.6921,515.7873 L436.5228,521.90393 L435.83554,565.67676 L540.8239,582.31934 L522.5393,795.25543 L370.5184,765.9591 L345.00162,765.9591 L158.15886,801.96606 L143.48566,747.2049 L197.52293,694.6322 z" stroke="#414141" stroke-width="0.24" stroke-linecap="round" stroke-linejoin="round" fill="none" />
  </g>
</svg>