<?xml version="1.0" encoding="utf-8" standalone="no"?>
<!DOCTYPE svg PUBLIC "-//W3C//DTD SVG 1.1//EN" "http://www.w3.org/Graphics/SVG/1.1/DTD/svg11.dtd">
<svg version="1.1" width="595.2pt" height="841.7pt" viewBox="0 0 595.2 841.68" xmlns="http://www.w3.org/2000/svg">
  <defs />
  <g id="keycaps">
    <path d="M352.80762,650.27783 L337.04044,601.75146 L288.5141,617.5187 L304.28128,666.045 z" stroke="#00FFFF" stroke-width="0.24" stroke-linecap="round" stroke-linejoin="round" fill="none" />
    <path d="M302.93332,666.483 L287.16614,617.9566 L238.6398,633.72375 L254.40697,682.2501 z" stroke="#00FFFF" stroke-width="0.24" stroke-linecap="round" stroke-linejoin="round" fill="none" />
    <path d="M256.24707,597.61224 L307.27072,597.61224 L307.27072,546.5886 L256.24707,546.5886 z" stroke="#00FFFF" stroke-width="0.24" stroke-linecap="round" stroke-linejoin="round" fill="none" />
    <path d="M523.75433,530.0693 L574.1498,538.05115 L582.1316,487.65573 L531.73615,479.67386 z" stroke="#00FFFF" stroke-width="0.24" stroke-linecap="round" stroke-linejoin="round" fill="none" />
    <path d="M515.5508,581.8646 L565.94617,589.84644 L573.92804,539.45105 L523.53265,531.4692 z" stroke="#00FFFF" stroke-width="0.24" stroke-linecap="round" stroke-linejoin="round" fill="none" />
    <path d="M471.95905,521.8658 L522.35443,529.8476 L530.3363,479.45215 L479.9409,471.4703 z" stroke="#00FFFF" stroke-width="0.24" stroke-linecap="round" stroke-linejoin="round" fill="none" />
    <path d="M463.75543,573.6611 L514.1509,581.64294 L522.1327,531.24744 L471.7373,523.2656 z" stroke="#00FFFF" stroke-width="0.24" stroke-linecap="round" stroke-linejoin="round" fill="none" />
    <path d="M256.24707,492.73038 L307.27072,492.73038 L307.27072,441.70673 L256.24707,441.70673 z" stroke="#00FFFF" stroke-width="0.24" stroke-linecap="round" stroke-linejoin="round" fill="none" />
    <path d="M421.88077,472.81747 L472.62488,478.15088 L477.9583,427.40677 L427.2142,422.07333 z" stroke="#00FFFF" stroke-width="0.24" stroke-linecap="round" stroke-linejoin="round" fill="none" />
    <path d="M416.3992,524.9711 L467.14334,530.30457 L472.47675,479.56042 L421.7326,474.22702 z" stroke="#00FFFF" stroke-width="0.24" stroke-linecap="round" stroke-linejoin="round" fill="none" />
    <path d="M410.91763,577.12476 L461.66174,582.4582 L466.99518,531.7141 L416.25107,526.3807 z" stroke="#00FFFF" stroke-width="0.24" stroke-linecap="round" stroke-linejoin="round" fill="none" />
    <path d="M365.98404,454.45746 L416.93774,457.1278 L419.6081,406.17413 L368.65442,403.50375 z" stroke="#00FFFF" stroke-width="0.24" stroke-linecap="round" stroke-linejoin="round" fill="none" />
    <path d="M363.2395,506.8265 L414.19318,509.49692 L416.86356,458.5432 L365.90985,455.87283 z" stroke="#00FFFF" stroke-width="0.24" stroke-linecap="round" stroke-linejoin="round" fill="none" />
    <path d="M360.49493,559.1956 L411.44864,561.86597 L414.11902,510.9123 L363.1653,508.24188 z" stroke="#00FFFF" stroke-width="0.24" stroke-linecap="round" stroke-linejoin="round" fill="none" />
    <path d="M308.68805,492.73038 L359.71167,492.73038 L359.71167,441.70673 L308.68805,441.70673 z" stroke="#00FFFF" stroke-width="0.24" stroke-linecap="round" stroke-linejoin="round" fill="none" />
    <path d="M308.68805,545.1713 L359.71167,545.1713 L359.71167,494.1477 L308.68805,494.1477 z" stroke="#00FFFF" stroke-width="0.24" stroke-linecap="round" stroke-linejoin="round" fill="none" />
    <path d="M308.68805,597.61224 L359.71167,597.61224 L359.71167,546.5886 L308.68805,546.5886 z" stroke="#00FFFF" stroke-width="0.24" stroke-linecap="round" stroke-linejoin="round" fill="none" />
    <path d="M256.24707,545.1713 L307.27072,545.1713 L307.27072,494.1477 L256.24707,494.1477 z" stroke="#00FFFF" stroke-width="0.24" stroke-linecap="round" stroke-linejoin="round" fill="none" />
    <path d="M253.05902,682.6881 L237.29184,634.16174 L188.76549,649.9289 L204.53265,698.45526 z" stroke="#00FFFF" stroke-width="0.24" stroke-linecap="round" stroke-linejoin="round" fill="none" />
    <path d="M256.24707,597.61224 L307.27072,597.61224 L307.27072,546.5886 L256.24707,546.5886 z" stroke="#00FFFF" stroke-width="0.24" stroke-linecap="round" stroke-linejoin="round" fill="none" />
    <path d="M523.75433,530.0693 L574.1498,538.05115 L582.1316,487.65573 L531.73615,479.67386 z" stroke="#00FFFF" stroke-width="0.24" stroke-linecap="round" stroke-linejoin="round" fill="none" />
    <path d="M515.5508,581.8646 L565.94617,589.84644 L573.92804,539.45105 L523.53265,531.4692 z" stroke="#00FFFF" stroke-width="0.24" stroke-linecap="round" stroke-linejoin="round" fill="none" />
    <path d="M507.34717,633.6599 L557.7426,641.64185 L565.7245,591.24634 L515.32904,583.2645 z" stroke="#00FFFF" stroke-width="0.24" stroke-linecap="round" stroke-linejoin="round" fill="none" />
    <path d="M471.95905,521.8658 L522.35443,529.8476 L530.3363,479.45215 L479.9409,471.4703 z" stroke="#00FFFF" stroke-width="0.24" stroke-linecap="round" stroke-linejoin="round" fill="none" />
    <path d="M463.75543,573.6611 L514.1509,581.64294 L522.1327,531.24744 L471.7373,523.2656 z" stroke="#00FFFF" stroke-width="0.24" stroke-linecap="round" stroke-linejoin="round" fill="none" />
    <path d="M455.55188,625.45636 L505.9473,633.43823 L513.9292,583.0428 L463.53372,575.0609 z" stroke="#00FFFF" stroke-width="0.24" stroke-linecap="round" stroke-linejoin="round" fill="none" />
    <path d="M421.88077,472.81747 L472.62488,478.15088 L477.9583,427.40677 L427.2142,422.07333 z" stroke="#00FFFF" stroke-width="0.24" stroke-linecap="round" stroke-linejoin="round" fill="none" />
    <path d="M416.3992,524.9711 L467.14334,530.30457 L472.47675,479.56042 L421.7326,474.22702 z" stroke="#00FFFF" stroke-width="0.24" stroke-linecap="round" stroke-linejoin="round" fill="none" />
    <path d="M410.91763,577.12476 L461.66174,582.4582 L466.99518,531.7141 L416.25107,526.3807 z" stroke="#00FFFF" stroke-width="0.24" stroke-linecap="round" stroke-linejoin="round" fill="none" />
    <path d="M365.98404,454.45746 L416.93774,457.1278 L419.6081,406.17413 L368.65442,403.50375 z" stroke="#00FFFF" stroke-width="0.24" stroke-linecap="round" stroke-linejoin="round" fill="none" />
    <path d="M363.2395,506.8265 L414.19318,509.49692 L416.86356,458.5432 L365.90985,455.87283 z" stroke="#00FFFF" stroke-width="0.24" stroke-linecap="round" stroke-linejoin="round" fill="none" />
    <path d="M360.49493,559.1956 L411.44864,561.86597 L414.11902,510.9123 L363.1653,508.24188 z" stroke="#00FFFF" stroke-width="0.24" stroke-linecap="round" stroke-linejoin="round" fill="none" />
    <path d="M308.68805,492.73038 L359.71167,492.73038 L359.71167,441.70673 L308.68805,441.70673 z" stroke="#00FFFF" stroke-width="0.24" stroke-linecap="round" stroke-linejoin="round" fill="none" />
    <path d="M308.68805,545.1713 L359.71167,545.1713 L359.71167,494.1477 L308.68805,494.1477 z" stroke="#00FFFF" stroke-width="0.24" stroke-linecap="round" stroke-linejoin="round" fill="none" />
    <path d="M308.68805,597.61224 L359.71167,597.61224 L359.71167,546.5886 L308.68805,546.5886 z" stroke="#00FFFF" stroke-width="0.24" stroke-linecap="round" stroke-linejoin="round" fill="none" />
    <path d="M256.24707,492.73038 L307.27072,492.73038 L307.27072,441.70673 L256.24707,441.70673 z" stroke="#00FFFF" stroke-width="0.24" stroke-linecap="round" stroke-linejoin="round" fill="none" />
    <path d="M256.24707,545.1713 L307.27072,545.1713 L307.27072,494.1477 L256.24707,494.1477 z" stroke="#00FFFF" stroke-width="0.24" stroke-linecap="round" stroke-linejoin="round" fill="none" />
    <path d="M455.55188,625.45636 L505.9473,633.43823 L513.9292,583.0428 L463.53372,575.0609 z" stroke="#00FFFF" stroke-width="0.24" stroke-linecap="round" stroke-linejoin="round" fill="none" />
  </g>
  <g id="Default">
    <path d="M585.3748,485.29944 L480.38647,468.65686 L481.07373,424.88397 L423.24304,418.76736 L422.58725,403.4917 L365.972,400.52463 L359.71167,438.8721 L253.41243,438.8721 L239.96056,609.8453 L185.19363,648.109 L202.7127,702.0271 L389.55255,672.4346 L415.06934,672.4346 L568.7364,696.7731 z" stroke="#2000FF" stroke-width="0.24" stroke-linecap="round" stroke-linejoin="round" fill="none" />
  </g>
  <path d="M352.80765,650.27783 L337.04047,601.7515 L288.51413,617.5187 L304.28128,666.045 z" stroke="#009600" stroke-width="0.48" stroke-linecap="round" stroke-linejoin="round" fill="none" />
  <path d="M256.2471,597.61224 L307.27075,597.61224 L307.27072,546.5887 L256.2471,546.5887 z" stroke="#009600" stroke-width="0.48" stroke-linecap="round" stroke-linejoin="round" fill="none" />
  <path d="M256.2471,545.1713 L307.27075,545.1713 L307.27072,494.1477 L256.2471,494.1477 z" stroke="#009600" stroke-width="0.48" stroke-linecap="round" stroke-linejoin="round" fill="none" />
  <path d="M256.2471,492.73038 L307.27075,492.73038 L307.27072,441.70676 L256.2471,441.70676 z" stroke="#009600" stroke-width="0.48" stroke-linecap="round" stroke-linejoin="round" fill="none" />
  <path d="M302.93335,666.483 L287.16617,617.95667 L238.63982,633.7238 L254.40698,682.2501 z" stroke="#009600" stroke-width="0.48" stroke-linecap="round" stroke-linejoin="round" fill="none" />
  <path d="M253.05904,682.6881 L237.29187,634.16174 L188.76552,649.92896 L204.53268,698.4553 z" stroke="#009600" stroke-width="0.48" stroke-linecap="round" stroke-linejoin="round" fill="none" />
  <path d="M308.68805,597.61224 L359.71167,597.61224 L359.71167,546.5887 L308.68805,546.5887 z" stroke="#009600" stroke-width="0.48" stroke-linecap="round" stroke-linejoin="round" fill="none" />
  <path d="M308.68805,545.1713 L359.71167,545.1713 L359.71167,494.1477 L308.68805,494.1477 z" stroke="#009600" stroke-width="0.48" stroke-linecap="round" stroke-linejoin="round" fill="none" />
  <path d="M308.68805,492.73038 L359.71167,492.73038 L359.71167,441.70676 L308.68805,441.70676 z" stroke="#009600" stroke-width="0.48" stroke-linecap="round" stroke-linejoin="round" fill="none" />
  <path d="M360.49496,559.1956 L411.44867,561.866 L414.11905,510.91232 L363.16534,508.24194 z" stroke="#009600" stroke-width="0.48" stroke-linecap="round" stroke-linejoin="round" fill="none" />
  <path d="M363.23953,506.82657 L414.1932,509.49692 L416.8636,458.54324 L365.90988,455.87286 z" stroke="#009600" stroke-width="0.48" stroke-linecap="round" stroke-linejoin="round" fill="none" />
  <path d="M365.98407,454.4575 L416.93777,457.12784 L419.60812,406.17416 L368.65445,403.50378 z" stroke="#009600" stroke-width="0.48" stroke-linecap="round" stroke-linejoin="round" fill="none" />
  <path d="M410.91766,577.1248 L461.66177,582.45825 L466.9952,531.7141 L416.2511,526.3807 z" stroke="#009600" stroke-width="0.48" stroke-linecap="round" stroke-linejoin="round" fill="none" />
  <path d="M416.39923,524.9711 L467.14334,530.30457 L472.47678,479.56046 L421.73264,474.22705 z" stroke="#009600" stroke-width="0.48" stroke-linecap="round" stroke-linejoin="round" fill="none" />
  <path d="M421.8808,472.81747 L472.6249,478.1509 L477.9583,427.4068 L427.21423,422.07336 z" stroke="#009600" stroke-width="0.48" stroke-linecap="round" stroke-linejoin="round" fill="none" />
  <path d="M455.5519,625.45636 L505.94733,633.43823 L513.9292,583.0428 L463.53375,575.061 z" stroke="#009600" stroke-width="0.48" stroke-linecap="round" stroke-linejoin="round" fill="none" />
  <path d="M463.75546,573.6611 L514.15094,581.64294 L522.13275,531.2475 L471.73734,523.2656 z" stroke="#009600" stroke-width="0.48" stroke-linecap="round" stroke-linejoin="round" fill="none" />
  <path d="M471.95905,521.8658 L522.3545,529.8476 L530.3363,479.45218 L479.9409,471.47034 z" stroke="#009600" stroke-width="0.48" stroke-linecap="round" stroke-linejoin="round" fill="none" />
  <path d="M507.3472,633.66 L557.7426,641.64185 L565.7245,591.2464 L515.32904,583.2645 z" stroke="#009600" stroke-width="0.48" stroke-linecap="round" stroke-linejoin="round" fill="none" />
  <path d="M515.5508,581.8646 L565.9462,589.8465 L573.9281,539.45105 L523.53265,531.46924 z" stroke="#009600" stroke-width="0.48" stroke-linecap="round" stroke-linejoin="round" fill="none" />
  <path d="M523.75433,530.06934 L574.1498,538.0512 L582.13165,487.65576 L531.7362,479.6739 z" stroke="#009600" stroke-width="0.48" stroke-linecap="round" stroke-linejoin="round" fill="none" />
</svg>