<?xml version="1.0" encoding="utf-8" standalone="no"?>
<!DOCTYPE svg PUBLIC "-//W3C//DTD SVG 1.1//EN" "http://www.w3.org/Graphics/SVG/1.1/DTD/svg11.dtd">
<svg version="1.1" width="2384pt" height="3370pt" viewBox="0 0 2383.92 3370.32" xmlns="http://www.w3.org/2000/svg">
  <defs />
  <g id="export">
    <path d="M1338.7278,1716.519 A2.8346457,2.8346457 0 0 0 1341.0841,1719.7623 L1385.8801,1726.8573 A2.8346457,2.8346457 0 0 0 1389.1233,1724.501 L1396.2183,1679.7051 A2.8346457,2.8346457 0 0 0 1393.8619,1676.4618 L1349.066,1669.3668 A2.8346457,2.8346457 0 0 0 1345.8228,1671.7231 z" stroke="#FF0083" stroke-width="0.24" stroke-linecap="round" stroke-linejoin="round" fill="none" />
    <path d="M1303.3396,1604.7249 A2.8346457,2.8346457 0 0 0 1305.6959,1607.9681 L1350.492,1615.0631 A2.8346457,2.8346457 0 0 0 1353.7351,1612.7068 L1360.8301,1567.9109 A2.8346457,2.8346457 0 0 0 1358.4738,1564.6676 L1313.6779,1557.5728 A2.8346457,2.8346457 0 0 0 1310.4347,1559.929 z" stroke="#FF0083" stroke-width="0.24" stroke-linecap="round" stroke-linejoin="round" fill="none" />
    <path d="M1295.1361,1656.5203 A2.8346457,2.8346457 0 0 0 1297.4924,1659.7634 L1342.2883,1666.8584 A2.8346457,2.8346457 0 0 0 1345.5315,1664.5021 L1352.6265,1619.706 A2.8346457,2.8346457 0 0 0 1350.2701,1616.4629 L1305.4742,1609.3679 A2.8346457,2.8346457 0 0 0 1302.2311,1611.7242 z" stroke="#FF0083" stroke-width="0.24" stroke-linecap="round" stroke-linejoin="round" fill="none" />
    <path d="M1286.9325,1708.3156 A2.8346457,2.8346457 0 0 0 1289.2888,1711.5587 L1334.0847,1718.6537 A2.8346457,2.8346457 0 0 0 1337.328,1716.2974 L1344.423,1671.5015 A2.8346457,2.8346457 0 0 0 1342.0667,1668.2583 L1297.2706,1661.1633 A2.8346457,2.8346457 0 0 0 1294.0275,1663.5195 z" stroke="#FF0083" stroke-width="0.24" stroke-linecap="round" stroke-linejoin="round" fill="none" />
    <path d="M1253.1143,1555.6572 A2.8346457,2.8346457 0 0 0 1255.6371,1558.7727 L1300.7429,1563.5135 A2.8346457,2.8346457 0 0 0 1303.8584,1560.9907 L1308.5991,1515.8848 A2.8346457,2.8346457 0 0 0 1306.0764,1512.7694 L1260.9706,1508.0286 A2.8346457,2.8346457 0 0 0 1257.8551,1510.5514 z" stroke="#FF0083" stroke-width="0.24" stroke-linecap="round" stroke-linejoin="round" fill="none" />
    <path d="M1247.6327,1607.8109 A2.8346457,2.8346457 0 0 0 1250.1555,1610.9264 L1295.2614,1615.6671 A2.8346457,2.8346457 0 0 0 1298.3768,1613.1443 L1303.1177,1568.0385 A2.8346457,2.8346457 0 0 0 1300.5948,1564.9231 L1255.489,1560.1823 A2.8346457,2.8346457 0 0 0 1252.3735,1562.7051 z" stroke="#FF0083" stroke-width="0.24" stroke-linecap="round" stroke-linejoin="round" fill="none" />
    <path d="M1242.1511,1659.9646 A2.8346457,2.8346457 0 0 0 1244.674,1663.08 L1289.7798,1667.8208 A2.8346457,2.8346457 0 0 0 1292.8953,1665.298 L1297.6361,1620.1921 A2.8346457,2.8346457 0 0 0 1295.1133,1617.0767 L1250.0074,1612.3359 A2.8346457,2.8346457 0 0 0 1246.892,1614.8588 z" stroke="#FF0083" stroke-width="0.24" stroke-linecap="round" stroke-linejoin="round" fill="none" />
    <path d="M1197.0696,1537.2856 A2.8346457,2.8346457 0 0 0 1199.752,1540.2648 L1245.0442,1542.6384 A2.8346457,2.8346457 0 0 0 1248.0233,1539.9559 L1250.397,1494.6637 A2.8346457,2.8346457 0 0 0 1247.7146,1491.6847 L1202.4224,1489.311 A2.8346457,2.8346457 0 0 0 1199.4432,1491.9934 z" stroke="#FF0083" stroke-width="0.24" stroke-linecap="round" stroke-linejoin="round" fill="none" />
    <path d="M1194.3251,1589.6547 A2.8346457,2.8346457 0 0 0 1197.0074,1592.6338 L1242.2997,1595.0074 A2.8346457,2.8346457 0 0 0 1245.2787,1592.3251 L1247.6525,1547.0328 A2.8346457,2.8346457 0 0 0 1244.97,1544.0537 L1199.6779,1541.68 A2.8346457,2.8346457 0 0 0 1196.6987,1544.3625 z" stroke="#FF0083" stroke-width="0.24" stroke-linecap="round" stroke-linejoin="round" fill="none" />
    <path d="M1191.5804,1642.0238 A2.8346457,2.8346457 0 0 0 1194.263,1645.0029 L1239.5552,1647.3765 A2.8346457,2.8346457 0 0 0 1242.5342,1644.6941 L1244.9078,1599.402 A2.8346457,2.8346457 0 0 0 1242.2255,1596.4229 L1196.9333,1594.0492 A2.8346457,2.8346457 0 0 0 1193.9542,1596.7316 z" stroke="#FF0083" stroke-width="0.24" stroke-linecap="round" stroke-linejoin="round" fill="none" />
    <path d="M1139.6252,1575.5547 A2.8346457,2.8346457 0 0 0 1142.4598,1578.3893 L1187.8142,1578.3893 A2.8346457,2.8346457 0 0 0 1190.6488,1575.5547 L1190.6489,1530.2003 A2.8346457,2.8346457 0 0 0 1187.8142,1527.3656 L1142.4598,1527.3656 A2.8346457,2.8346457 0 0 0 1139.6252,1530.2003 z" stroke="#FF0083" stroke-width="0.24" stroke-linecap="round" stroke-linejoin="round" fill="none" />
    <path d="M1139.6252,1627.9956 A2.8346457,2.8346457 0 0 0 1142.4598,1630.8302 L1187.8142,1630.8302 A2.8346457,2.8346457 0 0 0 1190.6488,1627.9956 L1190.6489,1582.6412 A2.8346457,2.8346457 0 0 0 1187.8142,1579.8066 L1142.4598,1579.8065 A2.8346457,2.8346457 0 0 0 1139.6252,1582.6412 z" stroke="#FF0083" stroke-width="0.24" stroke-linecap="round" stroke-linejoin="round" fill="none" />
    <path d="M1139.6252,1680.4365 A2.8346457,2.8346457 0 0 0 1142.4598,1683.2711 L1187.8142,1683.2711 A2.8346457,2.8346457 0 0 0 1190.6488,1680.4365 L1190.6489,1635.0822 A2.8346457,2.8346457 0 0 0 1187.8142,1632.2476 L1142.4598,1632.2476 A2.8346457,2.8346457 0 0 0 1139.6252,1635.0822 z" stroke="#FF0083" stroke-width="0.24" stroke-linecap="round" stroke-linejoin="round" fill="none" />
    <path d="M1087.1843,1751.3026 A2.8346457,2.8346457 0 0 0 1090.0189,1754.1373 L1135.3733,1754.1372 A2.8346457,2.8346457 0 0 0 1138.2079,1751.3026 L1138.208,1705.9484 A2.8346457,2.8346457 0 0 0 1135.3733,1703.1136 L1090.0189,1703.1138 A2.8346457,2.8346457 0 0 0 1087.1843,1705.9484 z" stroke="#FF0083" stroke-width="0.24" stroke-linecap="round" stroke-linejoin="round" fill="none" />
    <path d="M1034.8259,1759.439 A2.8346457,2.8346457 0 0 0 1038.0691,1761.7953 L1082.8651,1754.7003 A2.8346457,2.8346457 0 0 0 1085.2214,1751.4572 L1078.1265,1706.6613 A2.8346457,2.8346457 0 0 0 1074.8832,1704.3049 L1030.0873,1711.3999 A2.8346457,2.8346457 0 0 0 1027.731,1714.6431 z" stroke="#FF0083" stroke-width="0.24" stroke-linecap="round" stroke-linejoin="round" fill="none" />
    <path d="M1087.1843,1575.5547 A2.8346457,2.8346457 0 0 0 1090.0189,1578.3893 L1135.3733,1578.3893 A2.8346457,2.8346457 0 0 0 1138.2079,1575.5547 L1138.208,1530.2003 A2.8346457,2.8346457 0 0 0 1135.3733,1527.3656 L1090.0189,1527.3656 A2.8346457,2.8346457 0 0 0 1087.1843,1530.2003 z" stroke="#FF0083" stroke-width="0.24" stroke-linecap="round" stroke-linejoin="round" fill="none" />
    <path d="M1087.1843,1627.9956 A2.8346457,2.8346457 0 0 0 1090.0189,1630.8302 L1135.3733,1630.8302 A2.8346457,2.8346457 0 0 0 1138.2079,1627.9956 L1138.208,1582.6412 A2.8346457,2.8346457 0 0 0 1135.3733,1579.8066 L1090.0189,1579.8065 A2.8346457,2.8346457 0 0 0 1087.1843,1582.6412 z" stroke="#FF0083" stroke-width="0.24" stroke-linecap="round" stroke-linejoin="round" fill="none" />
    <path d="M1087.1843,1680.4365 A2.8346457,2.8346457 0 0 0 1090.0189,1683.2711 L1135.3733,1683.2711 A2.8346457,2.8346457 0 0 0 1138.2079,1680.4365 L1138.208,1635.0822 A2.8346457,2.8346457 0 0 0 1135.3733,1632.2476 L1090.0189,1632.2476 A2.8346457,2.8346457 0 0 0 1087.1843,1635.0822 z" stroke="#FF0083" stroke-width="0.24" stroke-linecap="round" stroke-linejoin="round" fill="none" />
    <path d="M1139.6252,1751.3026 A2.8346457,2.8346457 0 0 0 1142.4598,1754.1373 L1187.8142,1754.1372 A2.8346457,2.8346457 0 0 0 1190.6488,1751.3026 L1190.6489,1705.9484 A2.8346457,2.8346457 0 0 0 1187.8142,1703.1136 L1142.4598,1703.1138 A2.8346457,2.8346457 0 0 0 1139.6252,1705.9484 z" stroke="#FF0083" stroke-width="0.24" stroke-linecap="round" stroke-linejoin="round" fill="none" />
    <path d="M1355.135,1612.9285 A2.8346457,2.8346457 0 0 0 1357.4913,1616.1716 L1402.2872,1623.2666 A2.8346457,2.8346457 0 0 0 1405.5304,1620.9103 L1412.6254,1576.1144 A2.8346457,2.8346457 0 0 0 1410.269,1572.8712 L1365.4731,1565.7761 A2.8346457,2.8346457 0 0 0 1362.23,1568.1326 z" stroke="#FF0083" stroke-width="0.24" stroke-linecap="round" stroke-linejoin="round" fill="none" />
    <path d="M1346.9314,1664.7238 A2.8346457,2.8346457 0 0 0 1349.2877,1667.9669 L1394.0836,1675.062 A2.8346457,2.8346457 0 0 0 1397.3268,1672.7057 L1404.4218,1627.9097 A2.8346457,2.8346457 0 0 0 1402.0656,1624.6665 L1357.2697,1617.5715 A2.8346457,2.8346457 0 0 0 1354.0264,1619.9279 z" stroke="#FF0083" stroke-width="0.24" stroke-linecap="round" stroke-linejoin="round" fill="none" />
  </g>
  <path d="M1038.5126,1764.5951 C1037.2012,1764.8323 1035.5691,1764.5004 1034.2891,1763.5891 C1033.6489,1763.1335 1033.097,1762.5332 1032.7457,1761.8812 C1032.3947,1761.2295 1032.2445,1760.5262 1032.1012,1759.8168 C1031.3722,1756.2037 1030.8282,1752.4315 1030.2524,1748.6835 C1029.6766,1744.9353 1029.069,1741.2114 1028.4788,1737.4845 C1027.8883,1733.7576 1027.3153,1730.0275 1026.705,1726.2854 C1026.0947,1722.5435 1025.4473,1718.7896 1025.0215,1715.1229 C1024.938,1714.403 1024.8629,1713.6865 1024.9979,1712.9631 C1025.1329,1712.2397 1025.4779,1711.5096 1025.9442,1710.8673 C1026.4104,1710.225 1026.9978,1709.6705 1027.645,1709.3197 C1028.2922,1708.9689 1028.9989,1708.8215 1029.7107,1708.6802 C1033.7509,1707.8774 1037.9493,1707.2643 1042.1246,1706.6234 C1046.2999,1705.9824 1050.452,1705.314 1054.6056,1704.6465 C1058.759,1703.9791 1062.9143,1703.3129 1067.0864,1702.6698 C1071.2585,1702.0269 1075.4475,1701.4073 1079.5144,1700.621 C1080.1593,1700.4963 1080.801,1700.3674 1081.3939,1700.0712 C1081.9869,1699.775 1082.531,1699.3115 1082.9913,1698.7754 C1083.4517,1698.2394 1083.828,1697.6307 1084.0212,1696.9951 C1084.2144,1696.3594 1084.2242,1695.6965 1084.2335,1695.0334 C1084.424,1681.3909 1084.3694,1667.6213 1084.3496,1653.8702 C1084.33,1640.1191 1084.3453,1626.3865 1084.3496,1612.647 C1084.354,1598.9075 1084.3474,1585.161 1084.3505,1571.4257 C1084.3519,1564.558 1084.3557,1557.6931 1084.3496,1550.8119 C1084.3435,1543.9308 1084.3275,1537.0331 1084.384,1530.2593 C1084.3871,1529.8933 1084.3903,1529.5278 1084.4443,1529.1687 C1084.4983,1528.8094 1084.6029,1528.4567 1084.7445,1528.1106 C1085.0278,1527.4185 1085.4591,1526.7538 1086.0103,1526.1915 C1086.5612,1525.6292 1087.2319,1525.1692 1087.9321,1524.9291 C1088.6323,1524.689 1089.3619,1524.669 1090.093,1524.6509 C1098.2603,1524.4495 1106.5881,1524.5078 1114.894,1524.531 C1123.2001,1524.5543 1131.4844,1524.5424 1139.7693,1524.531 C1148.0542,1524.5197 1156.3398,1524.5087 1164.6444,1524.531 C1172.9489,1524.5532 1181.2723,1524.6088 1189.4537,1524.416 C1190.1615,1524.3994 1190.8683,1524.3809 1191.5455,1524.1567 C1192.2227,1523.9325 1192.8701,1523.5026 1193.422,1522.974 C1193.974,1522.4456 1194.4303,1521.8185 1194.7013,1521.162 C1194.9722,1520.5056 1195.0576,1519.8198 1195.1288,1519.1249 C1195.3547,1516.9171 1195.4352,1514.6162 1195.539,1512.3301 C1195.6426,1510.0441 1195.7695,1507.7727 1195.8969,1505.5017 C1196.0239,1503.2308 1196.1516,1500.9603 1196.2546,1498.6735 C1196.3578,1496.3865 1196.4364,1494.0831 1196.6659,1491.881 C1196.7407,1491.164 1196.8313,1490.4578 1197.1191,1489.782 C1197.4071,1489.1061 1197.8922,1488.4607 1198.4806,1487.9286 C1199.0687,1487.3967 1199.7601,1486.978 1200.466,1486.7686 C1201.1718,1486.5591 1201.8921,1486.5587 1202.6167,1486.5664 C1206.3071,1486.6062 1210.1084,1486.8578 1213.8938,1487.0736 C1217.6792,1487.2896 1221.4487,1487.4697 1225.2168,1487.6671 C1228.9849,1487.8644 1232.7516,1488.0791 1236.5399,1488.2605 C1240.3282,1488.4419 1244.1381,1488.5903 1247.8029,1488.9327 C1248.5225,1489 1249.2365,1489.0747 1249.9261,1489.3607 C1250.6157,1489.6466 1251.281,1490.1437 1251.7954,1490.7269 C1252.8245,1491.8932 1253.2502,1493.4036 1253.2687,1494.8633 C1253.2771,1495.5409 1253.1979,1496.2075 1253.1196,1496.8759 C1253.0411,1497.5442 1252.9639,1498.2144 1252.9729,1498.8937 C1252.9916,1500.3086 1253.3857,1501.7635 1254.3466,1502.914 C1254.827,1503.4893 1255.4491,1503.9884 1256.1047,1504.2905 C1256.7603,1504.5927 1257.4492,1504.6979 1258.1427,1504.7974 C1262.055,1505.3589 1266.1149,1505.738 1270.1533,1506.1434 C1274.192,1506.5488 1278.2092,1506.9803 1282.2264,1507.4124 C1286.2438,1507.8444 1290.2611,1508.2771 1294.2996,1508.6814 C1298.3381,1509.0857 1302.3977,1509.4615 1306.3113,1510.0319 C1307.0289,1510.1365 1307.7418,1510.2476 1308.4065,1510.5642 C1309.0712,1510.881 1309.6877,1511.4033 1310.186,1512.0208 C1310.6842,1512.6381 1311.0641,1513.3506 1311.2406,1514.0641 C1311.4171,1514.7776 1311.3903,1515.4921 1311.3497,1516.2129 C1311.2023,1518.8329 1310.8732,1521.5372 1310.5725,1524.2281 C1310.272,1526.9193 1309.9995,1529.597 1309.7268,1532.2753 C1309.4541,1534.9535 1309.1809,1537.6321 1308.881,1540.3224 C1308.5812,1543.0126 1308.2544,1545.7145 1308.1017,1548.3403 C1308.0612,1549.0387 1308.0328,1549.7318 1308.1957,1550.4233 C1308.3586,1551.115 1308.7128,1551.8052 1309.1757,1552.4133 C1309.6387,1553.0214 1310.2106,1553.5474 1310.8441,1553.8749 C1311.4777,1554.2024 1312.1729,1554.3313 1312.8694,1554.4585 C1320.8911,1555.9237 1329.0914,1557.1665 1337.2681,1558.439 C1345.4447,1559.7114 1353.5975,1561.0138 1361.7495,1562.3164 C1369.9016,1563.6191 1378.0529,1564.9222 1386.231,1566.194 C1394.4093,1567.4658 1402.6145,1568.7063 1410.6207,1570.1781 C1411.3398,1570.3104 1412.0574,1570.4445 1412.7114,1570.7911 C1413.3654,1571.1377 1413.9559,1571.6969 1414.4122,1572.3386 C1414.8684,1572.9802 1415.1904,1573.7042 1415.3622,1574.432 C1415.4479,1574.7959 1415.4962,1575.1606 1415.493,1575.524 C1415.4899,1575.8876 1415.4354,1576.2498 1415.3806,1576.6123 C1414.1869,1584.5188 1412.9005,1592.5386 1411.6261,1600.5437 C1410.3518,1608.5488 1409.0895,1616.5394 1407.8254,1624.5319 C1405.2972,1640.5167 1402.7622,1656.5088 1400.2291,1672.5013 C1397.6963,1688.4938 1395.1655,1704.4866 1392.6302,1720.4703 C1391.3627,1728.4622 1390.094,1736.4518 1388.8322,1744.4589 C1387.5704,1752.466 1386.3157,1760.4904 1385.0077,1768.3799 C1384.9478,1768.7416 1384.8877,1769.1028 1384.7783,1769.4489 C1384.6691,1769.7948 1384.5105,1770.1255 1384.3164,1770.4458 C1383.9282,1771.0863 1383.3978,1771.6853 1382.7661,1772.1444 C1382.1343,1772.6036 1381.4011,1772.9231 1380.6711,1773.0938 C1380.3062,1773.1791 1379.9421,1773.227 1379.5806,1773.2252 C1379.2191,1773.2234 1378.86,1773.1715 1378.5002,1773.119 C1374.3387,1772.5118 1370.0767,1771.8219 1365.828,1771.143 C1361.5796,1770.464 1357.3442,1769.796 1353.1073,1769.1267 C1344.6333,1767.7881 1336.1523,1766.4445 1327.6724,1765.1005 C1310.7124,1762.4127 1293.7566,1759.7242 1276.7955,1757.0472 C1276.6488,1757.0242 1276.5022,1757.001 1276.3547,1756.9894 C1276.2073,1756.9779 1276.0588,1756.9778 1275.9103,1756.9778 C1244.4396,1756.968 1212.9695,1756.9719 1181.4995,1756.9719 C1150.0295,1756.9719 1118.5594,1756.968 1087.0886,1756.9778 C1086.9403,1756.9778 1086.7919,1756.9779 1086.6443,1756.9894 C1086.4967,1757.001 1086.3501,1757.024 1086.2036,1757.0471 C1078.2532,1758.2974 1070.3055,1759.5588 1062.3574,1760.8184 C1054.4093,1762.078 1046.4608,1763.3358 1038.5126,1764.5951 z" stroke="#009600" stroke-width="0.48" stroke-linecap="round" stroke-linejoin="round" fill="none" />
  <path d="M1139.6252,1751.3026 C1139.6104,1751.9692 1139.903,1752.7478 1140.452,1753.3104 C1140.7264,1753.5917 1141.0651,1753.8191 1141.4165,1753.9382 C1141.768,1754.0575 1142.132,1754.0686 1142.497,1754.0785 C1146.2139,1754.1785 1150.0117,1754.1476 1153.7985,1754.1372 C1157.5853,1754.127 1161.3611,1754.1372 1165.1371,1754.1372 C1168.9131,1754.1373 1172.6892,1754.1272 1176.4757,1754.1372 C1180.262,1754.1475 1184.0586,1754.178 1187.7795,1754.0792 C1188.1449,1754.0697 1188.5094,1754.0587 1188.8575,1753.9382 C1189.2058,1753.8179 1189.5377,1753.5879 1189.8186,1753.3071 C1190.0995,1753.0262 1190.3295,1752.6943 1190.4498,1752.3461 C1190.5703,1751.9979 1190.5812,1751.6333 1190.591,1751.2681 C1190.6895,1747.5471 1190.6589,1743.7505 1190.6489,1739.964 C1190.6387,1736.1777 1190.6489,1732.4016 1190.6489,1728.6255 C1190.6489,1724.8494 1190.6387,1721.0732 1190.6489,1717.287 C1190.6589,1713.5005 1190.6895,1709.7039 1190.591,1705.983 C1190.5812,1705.6177 1190.5703,1705.253 1190.4498,1704.9049 C1190.3295,1704.5566 1190.0995,1704.2247 1189.8186,1703.944 C1189.5377,1703.6631 1189.2058,1703.4331 1188.8575,1703.3127 C1188.5094,1703.1924 1188.1449,1703.1813 1187.7795,1703.1718 C1184.0586,1703.073 1180.262,1703.1035 1176.4757,1703.1138 C1172.6892,1703.1238 1168.9132,1703.1138 1165.1371,1703.1138 C1161.361,1703.1138 1157.5848,1703.1238 1153.7985,1703.1138 C1150.0122,1703.1035 1146.2155,1703.073 1142.4946,1703.1718 C1142.1293,1703.1813 1141.7648,1703.1924 1141.4165,1703.3127 C1141.0682,1703.4331 1140.7365,1703.6631 1140.4556,1703.944 C1140.1746,1704.2249 1139.9447,1704.5566 1139.8242,1704.9049 C1139.7039,1705.253 1139.693,1705.6177 1139.6833,1705.983 C1139.5851,1709.7039 1139.6139,1713.5006 1139.6252,1717.287 C1139.6366,1721.0731 1139.6305,1724.8491 1139.6274,1728.6268 C1139.6212,1736.1821 1139.6271,1743.7448 1139.6252,1751.3026 z" stroke="#009600" stroke-width="0.48" stroke-linecap="round" stroke-linejoin="round" fill="none" />
  <path d="M1087.1843,1680.4365 C1087.1694,1681.1031 1087.462,1681.8817 1088.0111,1682.4443 C1088.2855,1682.7256 1088.6241,1682.9529 1088.9755,1683.0721 C1089.3268,1683.1914 1089.691,1683.2025 1090.056,1683.2124 C1093.773,1683.3124 1097.5708,1683.2815 1101.3575,1683.2711 C1105.1443,1683.2609 1108.9202,1683.2711 1112.6962,1683.2711 C1116.4722,1683.2711 1120.2483,1683.261 1124.0347,1683.2711 C1127.821,1683.2814 1131.6177,1683.3119 1135.3386,1683.2131 C1135.7039,1683.2035 1136.0685,1683.1925 1136.4166,1683.0721 C1136.7649,1682.9517 1137.0968,1682.7218 1137.3777,1682.4409 C1137.6586,1682.16 1137.8885,1681.8281 1138.0089,1681.48 C1138.1294,1681.1317 1138.1403,1680.7671 1138.1499,1680.4019 C1138.2485,1676.6809 1138.218,1672.8843 1138.208,1669.0979 C1138.1978,1665.3116 1138.208,1661.5355 1138.208,1657.7593 C1138.208,1653.9832 1138.1978,1650.2072 1138.208,1646.4208 C1138.218,1642.6344 1138.2485,1638.8378 1138.1499,1635.1168 C1138.1403,1634.7516 1138.1294,1634.387 1138.0089,1634.0388 C1137.8885,1633.6906 1137.6586,1633.3586 1137.3777,1633.0778 C1137.0968,1632.7969 1136.7649,1632.5669 1136.4166,1632.4467 C1136.0685,1632.3262 1135.7039,1632.3152 1135.3386,1632.3055 C1131.6177,1632.2069 1127.821,1632.2374 1124.0347,1632.2476 C1120.2483,1632.2577 1116.4723,1632.2476 1112.6962,1632.2476 C1108.92,1632.2476 1105.1439,1632.2577 1101.3575,1632.2476 C1097.571,1632.2374 1093.7745,1632.2069 1090.0536,1632.3055 C1089.6884,1632.3152 1089.3237,1632.3262 1088.9755,1632.4467 C1088.6273,1632.5669 1088.2954,1632.7969 1088.0145,1633.0778 C1087.7336,1633.3586 1087.5038,1633.6906 1087.3833,1634.0388 C1087.263,1634.387 1087.2521,1634.7516 1087.2424,1635.1168 C1087.144,1638.8378 1087.173,1642.6344 1087.1843,1646.4208 C1087.1957,1650.207 1087.1896,1653.9829 1087.1865,1657.7606 C1087.1803,1665.316 1087.186,1672.8785 1087.1843,1680.4365 z" stroke="#009600" stroke-width="0.48" stroke-linecap="round" stroke-linejoin="round" fill="none" />
  <path d="M1087.1843,1627.9956 C1087.1694,1628.6622 1087.462,1629.4407 1088.0111,1630.0033 C1088.2855,1630.2847 1088.6241,1630.512 1088.9755,1630.6312 C1089.3268,1630.7505 1089.691,1630.7616 1090.056,1630.7712 C1093.773,1630.8715 1097.5708,1630.8406 1101.3575,1630.8302 C1105.1443,1630.82 1108.9202,1630.8302 1112.6962,1630.8302 C1116.4722,1630.8302 1120.2483,1630.8201 1124.0347,1630.8302 C1127.821,1630.8403 1131.6177,1630.8707 1135.3386,1630.7722 C1135.7039,1630.7625 1136.0685,1630.7516 1136.4166,1630.6312 C1136.7649,1630.5107 1137.0968,1630.2809 1137.3777,1630 C1137.6586,1629.7191 1137.8885,1629.3872 1138.0089,1629.0391 C1138.1294,1628.6908 1138.1403,1628.3262 1138.1499,1627.9609 C1138.2485,1624.24 1138.218,1620.4434 1138.208,1616.657 C1138.1978,1612.8706 1138.208,1609.0945 1138.208,1605.3184 C1138.208,1601.5422 1138.1978,1597.7662 1138.208,1593.9799 C1138.218,1590.1935 1138.2485,1586.3969 1138.1499,1582.6759 C1138.1403,1582.3107 1138.1294,1581.946 1138.0089,1581.5978 C1137.8885,1581.2496 1137.6586,1580.9177 1137.3777,1580.6368 C1137.0968,1580.356 1136.7649,1580.126 1136.4166,1580.0056 C1136.0685,1579.8853 1135.7039,1579.8743 1135.3386,1579.8646 C1131.6177,1579.766 1127.821,1579.7965 1124.0347,1579.8065 C1120.2483,1579.8168 1116.4723,1579.8065 1112.6962,1579.8065 C1108.92,1579.8065 1105.1439,1579.8168 1101.3575,1579.8065 C1097.571,1579.7965 1093.7745,1579.766 1090.0536,1579.8646 C1089.6884,1579.8743 1089.3237,1579.8853 1088.9755,1580.0056 C1088.6273,1580.126 1088.2954,1580.356 1088.0145,1580.6368 C1087.7336,1580.9177 1087.5038,1581.2496 1087.3833,1581.5978 C1087.263,1581.946 1087.2521,1582.3107 1087.2424,1582.6759 C1087.144,1586.3969 1087.173,1590.1935 1087.1843,1593.9799 C1087.1957,1597.7661 1087.1896,1601.542 1087.1865,1605.3197 C1087.1803,1612.8751 1087.186,1620.4376 1087.1843,1627.9956 z" stroke="#009600" stroke-width="0.48" stroke-linecap="round" stroke-linejoin="round" fill="none" />
  <path d="M1087.1843,1575.5547 C1087.1694,1576.2213 1087.462,1576.9996 1088.0111,1577.5623 C1088.2855,1577.8436 1088.6241,1578.071 1088.9755,1578.1902 C1089.3268,1578.3094 1089.691,1578.3207 1090.056,1578.3303 C1093.773,1578.4305 1097.5708,1578.3997 1101.3575,1578.3893 C1105.1443,1578.379 1108.9202,1578.3892 1112.6962,1578.3893 C1116.4722,1578.3893 1120.2483,1578.3792 1124.0347,1578.3893 C1127.821,1578.3994 1131.6177,1578.4298 1135.3386,1578.3313 C1135.7039,1578.3215 1136.0685,1578.3107 1136.4166,1578.1902 C1136.7649,1578.0698 1137.0968,1577.84 1137.3777,1577.5591 C1137.6586,1577.2781 1137.8885,1576.9463 1138.0089,1576.5981 C1138.1294,1576.2498 1138.1403,1575.8853 1138.1499,1575.52 C1138.2485,1571.7991 1138.218,1568.0024 1138.208,1564.2161 C1138.1978,1560.4297 1138.208,1556.6536 1138.208,1552.8774 C1138.208,1549.1013 1138.1978,1545.3252 1138.208,1541.5388 C1138.218,1537.7526 1138.2485,1533.9559 1138.1499,1530.235 C1138.1403,1529.8696 1138.1294,1529.5051 1138.0089,1529.1569 C1137.8885,1528.8087 1137.6586,1528.4768 1137.3777,1528.1959 C1137.0968,1527.915 1136.7649,1527.685 1136.4166,1527.5647 C1136.0685,1527.4442 1135.7039,1527.4333 1135.3386,1527.4236 C1131.6177,1527.3251 1127.821,1527.3556 1124.0347,1527.3656 C1120.2483,1527.3759 1116.4723,1527.3656 1112.6962,1527.3656 C1108.92,1527.3656 1105.1439,1527.3759 1101.3575,1527.3656 C1097.571,1527.3556 1093.7745,1527.3251 1090.0536,1527.4236 C1089.6884,1527.4333 1089.3237,1527.4442 1088.9755,1527.5647 C1088.6273,1527.685 1088.2954,1527.915 1088.0145,1528.1959 C1087.7336,1528.4768 1087.5038,1528.8087 1087.3833,1529.1569 C1087.263,1529.5051 1087.2521,1529.8696 1087.2424,1530.235 C1087.144,1533.9559 1087.173,1537.7526 1087.1843,1541.5388 C1087.1957,1545.3252 1087.1896,1549.1011 1087.1865,1552.8788 C1087.1803,1560.4342 1087.186,1567.9966 1087.1843,1575.5547 z" stroke="#009600" stroke-width="0.48" stroke-linecap="round" stroke-linejoin="round" fill="none" />
  <path d="M1034.8259,1759.439 C1034.9155,1760.0997 1035.3264,1760.8228 1035.9565,1761.2926 C1036.2717,1761.5276 1036.6418,1761.6991 1037.0074,1761.762 C1037.3732,1761.8247 1037.7346,1761.7787 1038.0964,1761.7313 C1041.7833,1761.2488 1045.5295,1760.6241 1049.2682,1760.0216 C1053.0067,1759.4191 1056.7375,1758.8385 1060.467,1758.2478 C1064.1967,1757.6571 1067.9248,1757.0564 1071.6661,1756.4741 C1075.4075,1755.8918 1079.1621,1755.328 1082.8218,1754.6484 C1083.181,1754.5818 1083.5394,1754.5139 1083.8645,1754.3405 C1084.1896,1754.1671 1084.4814,1753.8882 1084.715,1753.5668 C1084.9485,1753.2454 1085.1235,1752.8816 1085.188,1752.5189 C1085.2524,1752.1561 1085.2063,1751.7943 1085.1587,1751.432 C1084.6741,1747.7415 1084.05,1743.9963 1083.4476,1740.2582 C1082.8453,1736.52 1082.2646,1732.7887 1081.674,1729.0591 C1081.0831,1725.3296 1080.4824,1721.6016 1079.9001,1717.8602 C1079.3179,1714.1188 1078.754,1710.3643 1078.0746,1706.7046 C1078.0078,1706.3452 1077.9401,1705.9869 1077.7666,1705.6617 C1077.5933,1705.3367 1077.3142,1705.0448 1076.9928,1704.8114 C1076.6714,1704.5779 1076.3076,1704.4027 1075.945,1704.3383 C1075.5822,1704.2738 1075.2203,1704.3201 1074.858,1704.3677 C1071.1676,1704.8523 1067.4224,1705.4763 1063.6842,1706.0786 C1059.946,1706.681 1056.215,1707.2617 1052.4854,1707.8524 C1048.7557,1708.443 1045.0276,1709.0438 1041.2863,1709.6262 C1037.5449,1710.2084 1033.7903,1710.7722 1030.1306,1711.4517 C1029.7714,1711.5184 1029.413,1711.5863 1029.0879,1711.7596 C1028.7628,1711.9331 1028.471,1712.212 1028.2374,1712.5334 C1028.0039,1712.8549 1027.8289,1713.2185 1027.7644,1713.5814 C1027.7,1713.9441 1027.7462,1714.3059 1027.7938,1714.6682 C1028.2788,1718.3586 1028.9012,1722.1041 1029.5048,1725.842 C1030.1083,1729.58 1030.6929,1733.3103 1031.2808,1737.042 C1032.4567,1744.5052 1033.6454,1751.9738 1034.8259,1759.439 z" stroke="#009600" stroke-width="0.48" stroke-linecap="round" stroke-linejoin="round" fill="none" />
  <path d="M1087.1843,1751.3026 C1087.1694,1751.9692 1087.462,1752.7478 1088.0111,1753.3104 C1088.2855,1753.5917 1088.6241,1753.8191 1088.9755,1753.9382 C1089.3268,1754.0575 1089.691,1754.0686 1090.056,1754.0785 C1093.773,1754.1785 1097.5708,1754.1476 1101.3575,1754.1372 C1105.1443,1754.127 1108.9202,1754.1372 1112.6962,1754.1372 C1116.4722,1754.1373 1120.2483,1754.1272 1124.0347,1754.1372 C1127.821,1754.1475 1131.6177,1754.178 1135.3386,1754.0792 C1135.7039,1754.0697 1136.0685,1754.0587 1136.4166,1753.9382 C1136.7649,1753.8179 1137.0968,1753.5879 1137.3777,1753.3071 C1137.6586,1753.0262 1137.8885,1752.6943 1138.0089,1752.3461 C1138.1294,1751.9979 1138.1403,1751.6333 1138.1499,1751.2681 C1138.2485,1747.5471 1138.218,1743.7505 1138.208,1739.964 C1138.1978,1736.1777 1138.208,1732.4016 1138.208,1728.6255 C1138.208,1724.8494 1138.1978,1721.0732 1138.208,1717.287 C1138.218,1713.5005 1138.2485,1709.7039 1138.1499,1705.983 C1138.1403,1705.6177 1138.1294,1705.253 1138.0089,1704.9049 C1137.8885,1704.5566 1137.6586,1704.2247 1137.3777,1703.944 C1137.0968,1703.6631 1136.7649,1703.4331 1136.4166,1703.3127 C1136.0685,1703.1924 1135.7039,1703.1813 1135.3386,1703.1718 C1131.6177,1703.073 1127.821,1703.1035 1124.0347,1703.1138 C1120.2483,1703.1238 1116.4723,1703.1138 1112.6962,1703.1138 C1108.92,1703.1138 1105.1439,1703.1238 1101.3575,1703.1138 C1097.571,1703.1035 1093.7745,1703.073 1090.0536,1703.1718 C1089.6884,1703.1813 1089.3237,1703.1924 1088.9755,1703.3127 C1088.6273,1703.4331 1088.2954,1703.6631 1088.0145,1703.944 C1087.7336,1704.2249 1087.5038,1704.5566 1087.3833,1704.9049 C1087.263,1705.253 1087.2521,1705.6177 1087.2424,1705.983 C1087.144,1709.7039 1087.173,1713.5006 1087.1843,1717.287 C1087.1957,1721.0731 1087.1896,1724.8491 1087.1865,1728.6268 C1087.1803,1736.1821 1087.186,1743.7448 1087.1843,1751.3026 z" stroke="#009600" stroke-width="0.48" stroke-linecap="round" stroke-linejoin="round" fill="none" />
  <path d="M1139.6252,1680.4365 C1139.6104,1681.1031 1139.903,1681.8817 1140.452,1682.4443 C1140.7264,1682.7256 1141.0651,1682.9529 1141.4165,1683.0721 C1141.768,1683.1914 1142.132,1683.2025 1142.497,1683.2124 C1146.2139,1683.3124 1150.0117,1683.2815 1153.7985,1683.2711 C1157.5853,1683.2609 1161.3611,1683.2711 1165.1371,1683.2711 C1168.9131,1683.2711 1172.6892,1683.261 1176.4757,1683.2711 C1180.262,1683.2814 1184.0586,1683.3119 1187.7795,1683.2131 C1188.1449,1683.2035 1188.5094,1683.1925 1188.8575,1683.0721 C1189.2058,1682.9517 1189.5377,1682.7218 1189.8186,1682.4409 C1190.0995,1682.16 1190.3295,1681.8281 1190.4498,1681.48 C1190.5703,1681.1317 1190.5812,1680.7671 1190.591,1680.4019 C1190.6895,1676.6809 1190.6589,1672.8843 1190.6489,1669.0979 C1190.6387,1665.3116 1190.6489,1661.5355 1190.6489,1657.7593 C1190.6489,1653.9832 1190.6387,1650.2072 1190.6489,1646.4208 C1190.6589,1642.6344 1190.6895,1638.8378 1190.591,1635.1168 C1190.5812,1634.7516 1190.5703,1634.387 1190.4498,1634.0388 C1190.3295,1633.6906 1190.0995,1633.3586 1189.8186,1633.0778 C1189.5377,1632.7969 1189.2058,1632.5669 1188.8575,1632.4467 C1188.5094,1632.3262 1188.1449,1632.3152 1187.7795,1632.3055 C1184.0586,1632.2069 1180.262,1632.2374 1176.4757,1632.2476 C1172.6892,1632.2577 1168.9132,1632.2476 1165.1371,1632.2476 C1161.361,1632.2476 1157.5848,1632.2577 1153.7985,1632.2476 C1150.0122,1632.2374 1146.2155,1632.2069 1142.4946,1632.3055 C1142.1293,1632.3152 1141.7648,1632.3262 1141.4165,1632.4467 C1141.0682,1632.5669 1140.7365,1632.7969 1140.4556,1633.0778 C1140.1746,1633.3586 1139.9447,1633.6906 1139.8242,1634.0388 C1139.7039,1634.387 1139.693,1634.7516 1139.6833,1635.1168 C1139.5851,1638.8378 1139.6139,1642.6344 1139.6252,1646.4208 C1139.6366,1650.207 1139.6305,1653.9829 1139.6274,1657.7606 C1139.6212,1665.316 1139.6271,1672.8785 1139.6252,1680.4365 z" stroke="#009600" stroke-width="0.48" stroke-linecap="round" stroke-linejoin="round" fill="none" />
  <path d="M1139.6252,1627.9956 C1139.6104,1628.6622 1139.903,1629.4407 1140.452,1630.0033 C1140.7264,1630.2847 1141.0651,1630.512 1141.4165,1630.6312 C1141.768,1630.7505 1142.132,1630.7616 1142.497,1630.7712 C1146.2139,1630.8715 1150.0117,1630.8406 1153.7985,1630.8302 C1157.5853,1630.82 1161.3611,1630.8302 1165.1371,1630.8302 C1168.9131,1630.8302 1172.6892,1630.8201 1176.4757,1630.8302 C1180.262,1630.8403 1184.0586,1630.8707 1187.7795,1630.7722 C1188.1449,1630.7625 1188.5094,1630.7516 1188.8575,1630.6312 C1189.2058,1630.5107 1189.5377,1630.2809 1189.8186,1630 C1190.0995,1629.7191 1190.3295,1629.3872 1190.4498,1629.0391 C1190.5703,1628.6908 1190.5812,1628.3262 1190.591,1627.9609 C1190.6895,1624.24 1190.6589,1620.4434 1190.6489,1616.657 C1190.6387,1612.8706 1190.6489,1609.0945 1190.6489,1605.3184 C1190.6489,1601.5422 1190.6387,1597.7662 1190.6489,1593.9799 C1190.6589,1590.1935 1190.6895,1586.3969 1190.591,1582.6759 C1190.5812,1582.3107 1190.5703,1581.946 1190.4498,1581.5978 C1190.3295,1581.2496 1190.0995,1580.9177 1189.8186,1580.6368 C1189.5377,1580.356 1189.2058,1580.126 1188.8575,1580.0056 C1188.5094,1579.8853 1188.1449,1579.8743 1187.7795,1579.8646 C1184.0586,1579.766 1180.262,1579.7965 1176.4757,1579.8065 C1172.6892,1579.8168 1168.9132,1579.8065 1165.1371,1579.8065 C1161.361,1579.8065 1157.5848,1579.8168 1153.7985,1579.8065 C1150.0122,1579.7965 1146.2155,1579.766 1142.4946,1579.8646 C1142.1293,1579.8743 1141.7648,1579.8853 1141.4165,1580.0056 C1141.0682,1580.126 1140.7365,1580.356 1140.4556,1580.6368 C1140.1746,1580.9177 1139.9447,1581.2496 1139.8242,1581.5978 C1139.7039,1581.946 1139.693,1582.3107 1139.6833,1582.6759 C1139.5851,1586.3969 1139.6139,1590.1935 1139.6252,1593.9799 C1139.6366,1597.7661 1139.6305,1601.542 1139.6274,1605.3197 C1139.6212,1612.8751 1139.6271,1620.4376 1139.6252,1627.9956 z" stroke="#009600" stroke-width="0.48" stroke-linecap="round" stroke-linejoin="round" fill="none" />
  <path d="M1139.6252,1575.5547 C1139.6104,1576.2213 1139.903,1576.9996 1140.452,1577.5623 C1140.7264,1577.8436 1141.0651,1578.071 1141.4165,1578.1902 C1141.768,1578.3094 1142.132,1578.3207 1142.497,1578.3303 C1146.2139,1578.4305 1150.0117,1578.3997 1153.7985,1578.3893 C1157.5853,1578.379 1161.3611,1578.3892 1165.1371,1578.3893 C1168.9131,1578.3893 1172.6892,1578.3792 1176.4757,1578.3893 C1180.262,1578.3994 1184.0586,1578.4298 1187.7795,1578.3313 C1188.1449,1578.3215 1188.5094,1578.3107 1188.8575,1578.1902 C1189.2058,1578.0698 1189.5377,1577.84 1189.8186,1577.5591 C1190.0995,1577.2781 1190.3295,1576.9463 1190.4498,1576.5981 C1190.5703,1576.2498 1190.5812,1575.8853 1190.591,1575.52 C1190.6895,1571.7991 1190.6589,1568.0024 1190.6489,1564.2161 C1190.6387,1560.4297 1190.6489,1556.6536 1190.6489,1552.8774 C1190.6489,1549.1013 1190.6387,1545.3252 1190.6489,1541.5388 C1190.6589,1537.7526 1190.6895,1533.9559 1190.591,1530.235 C1190.5812,1529.8696 1190.5703,1529.5051 1190.4498,1529.1569 C1190.3295,1528.8087 1190.0995,1528.4768 1189.8186,1528.1959 C1189.5377,1527.915 1189.2058,1527.685 1188.8575,1527.5647 C1188.5094,1527.4442 1188.1449,1527.4333 1187.7795,1527.4236 C1184.0586,1527.3251 1180.262,1527.3556 1176.4757,1527.3656 C1172.6892,1527.3759 1168.9132,1527.3656 1165.1371,1527.3656 C1161.361,1527.3656 1157.5848,1527.3759 1153.7985,1527.3656 C1150.0122,1527.3556 1146.2155,1527.3251 1142.4946,1527.4236 C1142.1293,1527.4333 1141.7648,1527.4442 1141.4165,1527.5647 C1141.0682,1527.685 1140.7365,1527.915 1140.4556,1528.1959 C1140.1746,1528.4768 1139.9447,1528.8087 1139.8242,1529.1569 C1139.7039,1529.5051 1139.693,1529.8696 1139.6833,1530.235 C1139.5851,1533.9559 1139.6139,1537.7526 1139.6252,1541.5388 C1139.6366,1545.3252 1139.6305,1549.1011 1139.6274,1552.8788 C1139.6212,1560.4342 1139.6271,1567.9966 1139.6252,1575.5547 z" stroke="#009600" stroke-width="0.48" stroke-linecap="round" stroke-linejoin="round" fill="none" />
  <path d="M1191.5806,1642.0238 C1191.5308,1642.6888 1191.7822,1643.4814 1192.301,1644.0719 C1192.5604,1644.3673 1192.8867,1644.612 1193.2313,1644.7495 C1193.576,1644.887 1193.9391,1644.9171 1194.303,1644.946 C1198.0095,1645.2406 1201.8037,1645.4083 1205.5859,1645.5963 C1209.368,1645.7842 1213.1382,1645.9921 1216.9089,1646.1897 C1220.6798,1646.3873 1224.4514,1646.5748 1228.2319,1646.7831 C1232.0127,1646.9915 1235.8025,1647.2206 1239.5234,1647.3168 C1239.8888,1647.3263 1240.2534,1647.3345 1240.6074,1647.2324 C1240.9614,1647.1304 1241.3049,1646.9181 1241.6001,1646.6523 C1241.8954,1646.3865 1242.1423,1646.0671 1242.2808,1645.7257 C1242.4193,1645.3843 1242.4493,1645.0209 1242.4781,1644.6565 C1242.7714,1640.9458 1242.9396,1637.1528 1243.1276,1633.3711 C1243.3157,1629.5894 1243.5234,1625.819 1243.7211,1622.0481 C1243.9187,1618.2771 1244.1061,1614.5056 1244.3145,1610.725 C1244.5227,1606.9443 1244.752,1603.1545 1244.8481,1599.4336 C1244.8577,1599.0682 1244.8657,1598.7036 1244.7638,1598.3496 C1244.6616,1597.9955 1244.4495,1597.6521 1244.1837,1597.3568 C1243.9178,1597.0616 1243.5984,1596.8147 1243.2571,1596.6761 C1242.9155,1596.5377 1242.5521,1596.5078 1242.1879,1596.479 C1238.477,1596.1858 1234.6841,1596.0175 1230.9025,1595.8293 C1227.1207,1595.6414 1223.3503,1595.4336 1219.5793,1595.2361 C1215.8085,1595.0383 1212.0369,1594.8508 1208.2563,1594.6426 C1204.4756,1594.4342 1200.6859,1594.2052 1196.9648,1594.1089 C1196.5996,1594.0995 1196.2349,1594.0913 1195.8809,1594.1934 C1195.5269,1594.2954 1195.1833,1594.5076 1194.8882,1594.7734 C1194.593,1595.0392 1194.346,1595.3585 1194.2075,1595.7 C1194.069,1596.0415 1194.0392,1596.405 1194.0104,1596.7692 C1193.7174,1600.4799 1193.5475,1604.273 1193.3607,1608.0546 C1193.174,1611.8364 1192.9702,1615.6068 1192.7694,1619.3792 C1192.3678,1626.9238 1191.9779,1634.4763 1191.5806,1642.0238 z" stroke="#009600" stroke-width="0.48" stroke-linecap="round" stroke-linejoin="round" fill="none" />
  <path d="M1194.3251,1589.6547 C1194.2753,1590.3197 1194.5267,1591.1123 1195.0455,1591.703 C1195.305,1591.9982 1195.6312,1592.2429 1195.976,1592.3804 C1196.3206,1592.518 1196.6836,1592.548 1197.0475,1592.5769 C1200.7542,1592.8715 1204.5483,1593.0394 1208.3306,1593.2272 C1212.1127,1593.415 1215.8828,1593.6229 1219.6536,1593.8207 C1223.4243,1594.0182 1227.1959,1594.2057 1230.9767,1594.4141 C1234.7572,1594.6223 1238.5471,1594.8514 1242.2681,1594.9478 C1242.6334,1594.9572 1242.9979,1594.9653 1243.352,1594.8633 C1243.7062,1594.7614 1244.0494,1594.5491 1244.3447,1594.2832 C1244.6399,1594.0175 1244.887,1593.6981 1245.0254,1593.3566 C1245.1638,1593.0153 1245.1938,1592.6517 1245.2227,1592.2874 C1245.5159,1588.5768 1245.6841,1584.7837 1245.8721,1581.002 C1246.0602,1577.2203 1246.268,1573.4498 1246.4656,1569.679 C1246.6632,1565.908 1246.8507,1562.1366 1247.059,1558.356 C1247.2673,1554.5753 1247.4965,1550.7854 1247.5927,1547.0645 C1247.6022,1546.6992 1247.6104,1546.3345 1247.5083,1545.9805 C1247.4062,1545.6265 1247.194,1545.283 1246.9282,1544.9878 C1246.6625,1544.6926 1246.343,1544.4456 1246.0016,1544.3071 C1245.6602,1544.1687 1245.2966,1544.1387 1244.9324,1544.1099 C1241.2217,1543.8167 1237.4286,1543.6483 1233.647,1543.4604 C1229.8652,1543.2723 1226.0948,1543.0646 1222.3239,1542.867 C1218.553,1542.6693 1214.7816,1542.4819 1211.0009,1542.2736 C1207.2202,1542.0652 1203.4304,1541.836 1199.7094,1541.7399 C1199.3441,1541.7303 1198.9794,1541.7223 1198.6254,1541.8242 C1198.2714,1541.9263 1197.9279,1542.1385 1197.6327,1542.4043 C1197.3375,1542.67 1197.0906,1542.9895 1196.952,1543.3309 C1196.8137,1543.6724 1196.7837,1544.0359 1196.755,1544.4001 C1196.462,1548.1108 1196.2921,1551.9038 1196.1052,1555.6855 C1195.9185,1559.4673 1195.7148,1563.2377 1195.5139,1567.01 C1195.1123,1574.5547 1194.7224,1582.1072 1194.3251,1589.6547 z" stroke="#009600" stroke-width="0.48" stroke-linecap="round" stroke-linejoin="round" fill="none" />
  <path d="M1197.0696,1537.2856 C1197.0198,1537.9506 1197.2712,1538.7433 1197.79,1539.3339 C1198.0496,1539.6292 1198.3757,1539.8739 1198.7205,1540.0114 C1199.0651,1540.1488 1199.4281,1540.179 1199.792,1540.2079 C1203.4987,1540.5023 1207.293,1540.6703 1211.0751,1540.8582 C1214.8572,1541.046 1218.6273,1541.2539 1222.3981,1541.4515 C1226.169,1541.6493 1229.9404,1541.8367 1233.7212,1542.045 C1237.5017,1542.2533 1241.2916,1542.4823 1245.0126,1542.5786 C1245.3779,1542.588 1245.7426,1542.5962 1246.0967,1542.4943 C1246.4507,1542.3922 1246.7941,1542.18 1247.0894,1541.9142 C1247.3845,1541.6483 1247.6315,1541.329 1247.77,1540.9875 C1247.9083,1540.6461 1247.9384,1540.2826 1247.9672,1539.9183 C1248.2604,1536.2076 1248.4287,1532.4147 1248.6167,1528.6329 C1248.8047,1524.8512 1249.0125,1521.0808 1249.2101,1517.3099 C1249.4077,1513.539 1249.5952,1509.7675 1249.8035,1505.9868 C1250.0118,1502.2062 1250.241,1498.4164 1250.3372,1494.6954 C1250.3467,1494.3301 1250.3549,1493.9655 1250.2528,1493.6115 C1250.1508,1493.2573 1249.9385,1492.914 1249.6727,1492.6187 C1249.407,1492.3235 1249.0876,1492.0765 1248.7461,1491.9381 C1248.4047,1491.7996 1248.0411,1491.7695 1247.6769,1491.7407 C1243.9663,1491.4475 1240.1732,1491.2793 1236.3915,1491.0913 C1232.6097,1490.9032 1228.8394,1490.6954 1225.0685,1490.4978 C1221.2975,1490.3003 1217.5261,1490.1128 1213.7454,1489.9044 C1209.9648,1489.6962 1206.1749,1489.467 1202.4539,1489.3707 C1202.0886,1489.3613 1201.7241,1489.3531 1201.3699,1489.4551 C1201.0159,1489.5571 1200.6725,1489.7694 1200.3772,1490.0352 C1200.082,1490.3011 1199.8351,1490.6205 1199.6967,1490.9619 C1199.5582,1491.3032 1199.5282,1491.6667 1199.4995,1492.0311 C1199.2067,1495.7417 1199.0366,1499.5348 1198.8499,1503.3165 C1198.663,1507.0981 1198.4594,1510.8685 1198.2585,1514.641 C1197.8569,1522.1855 1197.467,1529.738 1197.0696,1537.2856 z" stroke="#009600" stroke-width="0.48" stroke-linecap="round" stroke-linejoin="round" fill="none" />
  <path d="M1242.1511,1659.9646 C1242.0667,1660.6261 1242.2764,1661.4308 1242.7634,1662.0477 C1243.0071,1662.3561 1243.3201,1662.6177 1243.657,1662.773 C1243.994,1662.9283 1244.355,1662.9773 1244.7169,1663.0253 C1248.403,1663.5133 1252.1832,1663.8796 1255.9504,1664.2653 C1259.7175,1664.6508 1263.4716,1665.0557 1267.2268,1665.4504 C1270.9822,1665.8452 1274.7388,1666.2297 1278.5033,1666.6356 C1282.268,1667.0415 1286.0405,1667.4686 1289.7515,1667.7595 C1290.1157,1667.7881 1290.4794,1667.8153 1290.8384,1667.7319 C1291.1971,1667.6486 1291.5513,1667.4546 1291.86,1667.2046 C1292.1688,1666.9547 1292.4321,1666.6486 1292.5883,1666.315 C1292.7444,1665.9812 1292.7935,1665.6198 1292.8412,1665.2574 C1293.3282,1661.5673 1293.6948,1657.7883 1294.0804,1654.0215 C1294.4662,1650.2549 1294.8708,1646.5005 1295.2657,1642.745 C1295.6604,1638.9896 1296.045,1635.2332 1296.4508,1631.4685 C1296.8568,1627.704 1297.2839,1623.9314 1297.5747,1620.2206 C1297.6034,1619.8562 1297.6305,1619.4926 1297.5472,1619.1337 C1297.4637,1618.7747 1297.2699,1618.4207 1297.0199,1618.1118 C1296.7699,1617.8032 1296.4639,1617.5399 1296.1302,1617.3837 C1295.7964,1617.2275 1295.435,1617.1786 1295.0728,1617.1307 C1291.3824,1616.6438 1287.6035,1616.2772 1283.8368,1615.8915 C1280.0701,1615.5059 1276.3158,1615.101 1272.5603,1614.7063 C1268.8049,1614.3116 1265.0485,1613.927 1261.2838,1613.521 C1257.5193,1613.1152 1253.7466,1612.6881 1250.0358,1612.3972 C1249.6714,1612.3687 1249.3079,1612.3414 1248.9489,1612.4248 C1248.59,1612.508 1248.2358,1612.702 1247.9272,1612.9521 C1247.6184,1613.202 1247.3551,1613.508 1247.1989,1613.8418 C1247.0428,1614.1755 1246.9939,1614.537 1246.9462,1614.8993 C1246.4595,1618.5895 1246.0913,1622.3685 1245.7068,1626.1353 C1245.3223,1629.902 1244.9215,1633.6566 1244.5237,1637.4131 C1243.7277,1644.9265 1242.943,1652.4481 1242.1511,1659.9646 z" stroke="#009600" stroke-width="0.48" stroke-linecap="round" stroke-linejoin="round" fill="none" />
  <path d="M1247.6327,1607.811 C1247.5482,1608.4724 1247.7579,1609.2771 1248.245,1609.894 C1248.4886,1610.2025 1248.8016,1610.464 1249.1385,1610.6194 C1249.4756,1610.7747 1249.8365,1610.8237 1250.1985,1610.8717 C1253.8845,1611.3597 1257.6648,1611.726 1261.432,1612.1116 C1265.1991,1612.4971 1268.9531,1612.902 1272.7085,1613.2968 C1276.4637,1613.6914 1280.2203,1614.076 1283.9849,1614.4819 C1287.7495,1614.8878 1291.5221,1615.315 1295.233,1615.6058 C1295.5973,1615.6344 1295.9609,1615.6616 1296.32,1615.5782 C1296.6787,1615.495 1297.0328,1615.301 1297.3416,1615.0509 C1297.6504,1614.801 1297.9137,1614.495 1298.0698,1614.1613 C1298.226,1613.8275 1298.2749,1613.4661 1298.3228,1613.1038 C1298.8098,1609.4136 1299.1764,1605.6345 1299.562,1601.8679 C1299.9478,1598.1012 1300.3524,1594.3468 1300.7473,1590.5914 C1301.142,1586.8359 1301.5266,1583.0795 1301.9324,1579.315 C1302.3384,1575.5503 1302.7655,1571.7777 1303.0563,1568.0669 C1303.085,1567.7026 1303.112,1567.3389 1303.0288,1566.98 C1302.9453,1566.6211 1302.7515,1566.267 1302.5015,1565.9583 C1302.2515,1565.6497 1301.9454,1565.3862 1301.6118,1565.2301 C1301.278,1565.0739 1300.9166,1565.0249 1300.5542,1564.977 C1296.864,1564.49 1293.0851,1564.1235 1289.3184,1563.7378 C1285.5516,1563.3522 1281.7974,1562.9474 1278.0419,1562.5527 C1274.2865,1562.1578 1270.53,1561.7733 1266.7655,1561.3674 C1263.0009,1560.9615 1259.2281,1560.5344 1255.5173,1560.2435 C1255.153,1560.215 1254.7894,1560.1877 1254.4304,1560.271 C1254.0715,1560.3545 1253.7174,1560.5485 1253.4088,1560.7983 C1253.1,1561.0483 1252.8367,1561.3545 1252.6805,1561.6882 C1252.5244,1562.0219 1252.4755,1562.3833 1252.4277,1562.7456 C1251.941,1566.4358 1251.5728,1570.2147 1251.1884,1573.9816 C1250.8038,1577.7483 1250.4031,1581.5028 1250.0052,1585.2595 C1249.2092,1592.773 1248.4246,1600.2946 1247.6327,1607.811 z" stroke="#009600" stroke-width="0.48" stroke-linecap="round" stroke-linejoin="round" fill="none" />
  <path d="M1253.1143,1555.6572 C1253.0298,1556.3188 1253.2395,1557.1235 1253.7266,1557.7404 C1253.9702,1558.0488 1254.2832,1558.3104 1254.6201,1558.4657 C1254.9572,1558.621 1255.3181,1558.67 1255.68,1558.718 C1259.3661,1559.206 1263.1465,1559.5723 1266.9136,1559.9579 C1270.6807,1560.3435 1274.4347,1560.7484 1278.1901,1561.1431 C1281.9453,1561.5378 1285.7019,1561.9225 1289.4664,1562.3282 C1293.2311,1562.7341 1297.0037,1563.1614 1300.7146,1563.4523 C1301.0789,1563.4807 1301.4425,1563.508 1301.8015,1563.4246 C1302.1604,1563.3413 1302.5144,1563.1473 1302.8231,1562.8973 C1303.132,1562.6472 1303.3953,1562.3413 1303.5514,1562.0076 C1303.7075,1561.6738 1303.7565,1561.3124 1303.8043,1560.9502 C1304.2914,1557.2599 1304.658,1553.4808 1305.0436,1549.7142 C1305.4292,1545.9475 1305.8341,1542.1931 1306.2289,1538.4377 C1306.6235,1534.6824 1307.0082,1530.9258 1307.414,1527.1613 C1307.8198,1523.3967 1308.2471,1519.6241 1308.5378,1515.9132 C1308.5665,1515.549 1308.5936,1515.1852 1308.5104,1514.8263 C1308.427,1514.4674 1308.2329,1514.1134 1307.983,1513.8046 C1307.733,1513.4958 1307.4271,1513.2325 1307.0933,1513.0764 C1306.7595,1512.9203 1306.3982,1512.8713 1306.0358,1512.8235 C1302.3456,1512.3364 1298.5667,1511.9698 1294.7999,1511.5842 C1291.0332,1511.1985 1287.2789,1510.7937 1283.5234,1510.3989 C1279.7681,1510.0043 1276.0116,1509.6196 1272.2471,1509.2137 C1268.4824,1508.808 1264.7097,1508.3807 1260.9989,1508.09 C1260.6345,1508.0613 1260.271,1508.034 1259.912,1508.1174 C1259.5532,1508.2008 1259.199,1508.3948 1258.8904,1508.6447 C1258.5815,1508.8948 1258.3182,1509.2007 1258.1621,1509.5345 C1258.006,1509.8683 1257.957,1510.2296 1257.9093,1510.5919 C1257.4226,1514.2821 1257.0543,1518.061 1256.6699,1521.8278 C1256.2854,1525.5946 1255.8848,1529.3491 1255.4868,1533.1058 C1254.6908,1540.6191 1253.9061,1548.1409 1253.1143,1555.6572 z" stroke="#009600" stroke-width="0.48" stroke-linecap="round" stroke-linejoin="round" fill="none" />
  <path d="M1286.9325,1708.3156 C1286.8136,1708.9717 1286.9808,1709.7863 1287.435,1710.4279 C1287.6621,1710.7485 1287.9609,1711.0262 1288.2894,1711.199 C1288.6178,1711.3717 1288.9757,1711.4396 1289.3346,1711.5063 C1292.9901,1712.1868 1296.746,1712.7502 1300.4878,1713.3325 C1304.2296,1713.9147 1307.9574,1714.5155 1311.6869,1715.1062 C1315.4164,1715.6969 1319.1476,1716.2776 1322.8857,1716.88 C1326.624,1717.4823 1330.3691,1718.1063 1334.0596,1718.5911 C1334.4219,1718.6385 1334.7837,1718.6848 1335.1465,1718.6204 C1335.5093,1718.5559 1335.873,1718.3806 1336.1943,1718.1472 C1336.5157,1717.9138 1336.7947,1717.6218 1336.9681,1717.2968 C1337.1416,1716.9717 1337.2094,1716.6134 1337.2761,1716.254 C1337.9556,1712.5944 1338.5194,1708.8397 1339.1017,1705.0984 C1339.684,1701.357 1340.2847,1697.629 1340.8755,1693.8994 C1341.4662,1690.1698 1342.0469,1686.4386 1342.6492,1682.7004 C1343.2515,1678.9623 1343.8755,1675.2172 1344.3602,1671.5266 C1344.4078,1671.1643 1344.4541,1670.8025 1344.3895,1670.4397 C1344.3251,1670.0769 1344.15,1669.7131 1343.9165,1669.3918 C1343.683,1669.0706 1343.3911,1668.7915 1343.066,1668.618 C1342.741,1668.4446 1342.3826,1668.3768 1342.0233,1668.31 C1338.3636,1667.6306 1334.6089,1667.0669 1330.8677,1666.4845 C1327.1263,1665.9022 1323.3983,1665.3015 1319.6686,1664.7108 C1315.939,1664.12 1312.2079,1663.5394 1308.4697,1662.937 C1304.7316,1662.3347 1300.9863,1661.7107 1297.2959,1661.226 C1296.9335,1661.1783 1296.5718,1661.1321 1296.209,1661.1967 C1295.8462,1661.2611 1295.4825,1661.4362 1295.161,1661.6698 C1294.8397,1661.9032 1294.5607,1662.195 1294.3872,1662.5201 C1294.214,1662.8452 1294.1461,1663.2036 1294.0795,1663.563 C1293.4003,1667.2225 1292.8348,1670.9772 1292.2538,1674.7186 C1291.6726,1678.4601 1291.076,1682.1885 1290.4819,1685.9192 C1289.294,1693.3806 1288.1167,1700.851 1286.9325,1708.3156 z" stroke="#009600" stroke-width="0.48" stroke-linecap="round" stroke-linejoin="round" fill="none" />
  <path d="M1295.1361,1656.5201 C1295.0171,1657.1763 1295.1842,1657.991 1295.6385,1658.6324 C1295.8657,1658.9534 1296.1646,1659.2308 1296.493,1659.4036 C1296.8214,1659.5763 1297.1792,1659.6443 1297.5382,1659.711 C1301.1936,1660.3914 1304.9496,1660.955 1308.6914,1661.5371 C1312.4332,1662.1193 1316.1608,1662.7201 1319.8903,1663.3109 C1323.6198,1663.9016 1327.3512,1664.4823 1331.0894,1665.0846 C1334.8275,1665.687 1338.5726,1666.311 1342.2632,1666.7957 C1342.6255,1666.8433 1342.9873,1666.8895 1343.3501,1666.8251 C1343.7128,1666.7606 1344.0765,1666.5854 1344.398,1666.3519 C1344.7192,1666.1184 1344.9983,1665.8267 1345.1718,1665.5016 C1345.3451,1665.1764 1345.413,1664.818 1345.4796,1664.4587 C1346.1592,1660.7991 1346.723,1657.0444 1347.3053,1653.3031 C1347.8876,1649.5618 1348.4883,1645.8337 1349.079,1642.1041 C1349.6698,1638.3745 1350.2505,1634.6433 1350.8528,1630.9052 C1351.4551,1627.167 1352.0791,1623.4219 1352.5638,1619.7313 C1352.6115,1619.3689 1352.6576,1619.0072 1352.5931,1618.6444 C1352.5287,1618.2817 1352.3535,1617.918 1352.12,1617.5964 C1351.8865,1617.2751 1351.5947,1616.9961 1351.2697,1616.8228 C1350.9446,1616.6494 1350.5862,1616.5815 1350.2269,1616.5149 C1346.5673,1615.8353 1342.8125,1615.2715 1339.0712,1614.6892 C1335.3298,1614.1069 1331.6018,1613.5062 1327.8722,1612.9154 C1324.1426,1612.3247 1320.4115,1611.744 1316.6733,1611.1417 C1312.935,1610.5393 1309.19,1609.9153 1305.4995,1609.4307 C1305.1371,1609.383 1304.7754,1609.3369 1304.4126,1609.4014 C1304.0497,1609.4658 1303.686,1609.641 1303.3646,1609.8744 C1303.0433,1610.1079 1302.7643,1610.3998 1302.5908,1610.7249 C1302.4175,1611.0499 1302.3497,1611.4083 1302.283,1611.7676 C1301.6039,1615.4274 1301.0383,1619.1818 1300.4574,1622.9232 C1299.8762,1626.6647 1299.2795,1630.3932 1298.6854,1634.1239 C1297.4976,1641.5852 1296.3202,1649.0555 1295.1361,1656.5201 z" stroke="#009600" stroke-width="0.48" stroke-linecap="round" stroke-linejoin="round" fill="none" />
  <path d="M1303.3397,1604.725 C1303.2206,1605.3811 1303.3878,1606.1957 1303.8422,1606.8373 C1304.0693,1607.158 1304.3682,1607.4355 1304.6965,1607.6083 C1305.0249,1607.781 1305.3828,1607.849 1305.7417,1607.9158 C1309.3972,1608.5961 1313.1532,1609.1597 1316.895,1609.7418 C1320.6368,1610.3241 1324.3644,1610.9249 1328.0939,1611.5156 C1331.8234,1612.1063 1335.5548,1612.687 1339.293,1613.2894 C1343.0311,1613.8917 1346.7761,1614.5157 1350.4668,1615.0004 C1350.8291,1615.0479 1351.1909,1615.0942 1351.5537,1615.0298 C1351.9164,1614.9653 1352.2802,1614.79 1352.6016,1614.5566 C1352.9229,1614.3231 1353.2019,1614.0312 1353.3752,1613.7062 C1353.5487,1613.3811 1353.6166,1613.0228 1353.6832,1612.6635 C1354.3627,1609.0038 1354.9265,1605.2491 1355.5089,1601.5078 C1356.0912,1597.7665 1356.6919,1594.0385 1357.2826,1590.3088 C1357.8733,1586.5792 1358.454,1582.8479 1359.0564,1579.1097 C1359.6587,1575.3716 1360.2827,1571.6265 1360.7673,1567.9359 C1360.815,1567.5737 1360.8612,1567.2118 1360.7968,1566.8491 C1360.7323,1566.4863 1360.5571,1566.1226 1360.3236,1565.8013 C1360.0901,1565.4799 1359.7983,1565.2009 1359.4731,1565.0275 C1359.1481,1564.854 1358.7898,1564.7861 1358.4304,1564.7195 C1354.7709,1564.04 1351.0161,1563.4761 1347.2748,1562.8939 C1343.5334,1562.3116 1339.8054,1561.7108 1336.0758,1561.1202 C1332.3462,1560.5294 1328.6149,1559.9487 1324.8767,1559.3464 C1321.1385,1558.7441 1317.3936,1558.1201 1313.7029,1557.6354 C1313.3407,1557.5878 1312.9789,1557.5415 1312.6161,1557.606 C1312.2533,1557.6704 1311.8895,1557.8456 1311.5682,1558.0792 C1311.2468,1558.3126 1310.9678,1558.6044 1310.7944,1558.9294 C1310.621,1559.2545 1310.5532,1559.613 1310.4866,1559.9723 C1309.8075,1563.632 1309.242,1567.3865 1308.6609,1571.128 C1308.0798,1574.8695 1307.483,1578.5979 1306.889,1582.3286 C1305.701,1589.79 1304.5238,1597.2603 1303.3397,1604.725 z" stroke="#009600" stroke-width="0.48" stroke-linecap="round" stroke-linejoin="round" fill="none" />
  <path d="M1338.7279,1716.5192 C1338.6088,1717.1753 1338.776,1717.9899 1339.2303,1718.6315 C1339.4575,1718.9521 1339.7563,1719.2299 1340.0846,1719.4026 C1340.4131,1719.5752 1340.771,1719.6431 1341.1299,1719.71 C1344.7854,1720.3901 1348.5414,1720.9539 1352.2832,1721.536 C1356.0249,1722.1183 1359.7526,1722.7191 1363.482,1723.3098 C1367.2115,1723.9005 1370.9429,1724.4812 1374.6812,1725.0835 C1378.4193,1725.6859 1382.1643,1726.3099 1385.855,1726.7946 C1386.2173,1726.8422 1386.579,1726.8883 1386.9419,1726.8239 C1387.3046,1726.7594 1387.6683,1726.5842 1387.9897,1726.3508 C1388.311,1726.1173 1388.5901,1725.8254 1388.7635,1725.5004 C1388.9369,1725.1753 1389.0046,1724.8169 1389.0714,1724.4576 C1389.7509,1720.798 1390.3147,1717.0433 1390.897,1713.302 C1391.4794,1709.5607 1392.0801,1705.8325 1392.6708,1702.103 C1393.2614,1698.3734 1393.8422,1694.6421 1394.4446,1690.9039 C1395.0469,1687.1658 1395.6709,1683.4207 1396.1556,1679.7302 C1396.2031,1679.3679 1396.2494,1679.006 1396.1849,1678.6433 C1396.1205,1678.2805 1395.9452,1677.9167 1395.7118,1677.5955 C1395.4783,1677.2739 1395.1864,1676.9951 1394.8613,1676.8217 C1394.5363,1676.6482 1394.178,1676.5803 1393.8186,1676.5137 C1390.1589,1675.8342 1386.4043,1675.2704 1382.663,1674.6881 C1378.9216,1674.1058 1375.1936,1673.505 1371.464,1672.9144 C1367.7344,1672.3236 1364.003,1671.7429 1360.2649,1671.1406 C1356.5267,1670.5383 1352.7817,1669.9143 1349.0912,1669.4296 C1348.7289,1669.382 1348.367,1669.3357 1348.0043,1669.4001 C1347.6415,1669.4646 1347.2777,1669.6398 1346.9564,1669.8734 C1346.635,1670.1068 1346.356,1670.3986 1346.1826,1670.7236 C1346.0092,1671.0488 1345.9414,1671.4072 1345.8748,1671.7665 C1345.1957,1675.4261 1344.6301,1679.1807 1344.0491,1682.9222 C1343.468,1686.6636 1342.8712,1690.3921 1342.2772,1694.1227 C1341.0894,1701.5842 1339.9119,1709.0544 1338.7279,1716.5192 z" stroke="#009600" stroke-width="0.48" stroke-linecap="round" stroke-linejoin="round" fill="none" />
  <path d="M1346.9314,1664.7238 C1346.8124,1665.3799 1346.9796,1666.1945 1347.4338,1666.836 C1347.6609,1667.157 1347.9598,1667.4344 1348.2882,1667.6072 C1348.6167,1667.7799 1348.9746,1667.8478 1349.3335,1667.9146 C1352.989,1668.595 1356.7449,1669.1586 1360.4867,1669.7407 C1364.2284,1670.3229 1367.9562,1670.9237 1371.6857,1671.5144 C1375.4152,1672.1052 1379.1465,1672.6859 1382.8846,1673.2882 C1386.6228,1673.8905 1390.3679,1674.5145 1394.0585,1674.9993 C1394.4208,1675.0469 1394.7826,1675.0931 1395.1453,1675.0286 C1395.5082,1674.9641 1395.8718,1674.7891 1396.1932,1674.5554 C1396.5146,1674.322 1396.7937,1674.0302 1396.967,1673.7051 C1397.1404,1673.38 1397.2083,1673.0216 1397.2749,1672.6624 C1397.9545,1669.0027 1398.5183,1665.2479 1399.1006,1661.5066 C1399.6829,1657.7653 1400.2837,1654.0374 1400.8744,1650.3076 C1401.465,1646.578 1402.0457,1642.8469 1402.648,1639.1088 C1403.2505,1635.3706 1403.8744,1631.6254 1404.359,1627.9349 C1404.4066,1627.5725 1404.4529,1627.2108 1404.3884,1626.848 C1404.324,1626.4852 1404.1488,1626.1216 1403.9154,1625.8 C1403.6819,1625.4788 1403.39,1625.1997 1403.065,1625.0262 C1402.7399,1624.8529 1402.3815,1624.7852 1402.0222,1624.7183 C1398.3624,1624.0388 1394.6079,1623.4751 1390.8666,1622.8928 C1387.1251,1622.3104 1383.3971,1621.7097 1379.6675,1621.119 C1375.938,1620.5283 1372.2067,1619.9476 1368.4685,1619.3452 C1364.7303,1618.7429 1360.9852,1618.1189 1357.2947,1617.6343 C1356.9325,1617.5867 1356.5706,1617.5405 1356.2079,1617.605 C1355.8451,1617.6694 1355.4813,1617.8446 1355.16,1618.078 C1354.8385,1618.3114 1354.5596,1618.6034 1354.3862,1618.9285 C1354.2128,1619.2535 1354.145,1619.6118 1354.0784,1619.9712 C1353.3992,1623.631 1352.8337,1627.3854 1352.2526,1631.1268 C1351.6715,1634.8683 1351.0748,1638.5967 1350.4808,1642.3275 C1349.2927,1649.7888 1348.1155,1657.2592 1346.9314,1664.7238 z" stroke="#009600" stroke-width="0.48" stroke-linecap="round" stroke-linejoin="round" fill="none" />
  <path d="M1355.1349,1612.9285 C1355.016,1613.5847 1355.1832,1614.3993 1355.6375,1615.0409 C1355.8645,1615.3616 1356.1635,1615.6392 1356.4918,1615.8119 C1356.8202,1615.9846 1357.1782,1616.0525 1357.537,1616.1194 C1361.1926,1616.7996 1364.9485,1617.3632 1368.6902,1617.9453 C1372.432,1618.5277 1376.1598,1619.1284 1379.8893,1619.7191 C1383.6188,1620.3098 1387.35,1620.8905 1391.0883,1621.4928 C1394.8264,1622.0952 1398.5715,1622.7192 1402.262,1623.2039 C1402.6244,1623.2515 1402.9862,1623.2977 1403.3489,1623.2333 C1403.7117,1623.1688 1404.0754,1622.9937 1404.3969,1622.7601 C1404.7183,1622.5267 1404.9972,1622.2349 1405.1705,1621.9098 C1405.344,1621.5847 1405.4119,1621.2262 1405.4785,1620.8671 C1406.158,1617.2073 1406.7219,1613.4528 1407.3041,1609.7114 C1407.8864,1605.97 1408.4872,1602.242 1409.0779,1598.5123 C1409.6686,1594.7827 1410.2493,1591.0515 1410.8516,1587.3134 C1411.454,1583.5752 1412.078,1579.8301 1412.5626,1576.1395 C1412.6102,1575.7772 1412.6565,1575.4154 1412.592,1575.0527 C1412.5276,1574.69 1412.3524,1574.3262 1412.1189,1574.0049 C1411.8854,1573.6833 1411.5936,1573.4044 1411.2686,1573.2311 C1410.9434,1573.0576 1410.585,1572.9897 1410.2257,1572.9231 C1406.566,1572.2437 1402.8115,1571.6797 1399.0701,1571.0974 C1395.3287,1570.5151 1391.6007,1569.9144 1387.8711,1569.3237 C1384.1415,1568.733 1380.4103,1568.1522 1376.6721,1567.5499 C1372.934,1566.9476 1369.1888,1566.3237 1365.4983,1565.839 C1365.136,1565.7914 1364.7742,1565.7451 1364.4114,1565.8096 C1364.0487,1565.874 1363.6849,1566.0492 1363.3635,1566.2827 C1363.0421,1566.5162 1362.7632,1566.808 1362.5898,1567.133 C1362.4164,1567.4581 1362.3486,1567.8165 1362.282,1568.1758 C1361.6028,1571.8356 1361.0374,1575.5901 1360.4562,1579.3315 C1359.8751,1583.073 1359.2784,1586.8015 1358.6844,1590.5321 C1357.4963,1597.9935 1356.3191,1605.4639 1355.1349,1612.9285 z" stroke="#009600" stroke-width="0.48" stroke-linecap="round" stroke-linejoin="round" fill="none" />
</svg>