0
SECTION
2
HEADER
9
$ACADVER
1
AC1014
9
$DIMALTU
70
2
9
$DIMLUNIT
70
2
9
$LIMMIN
10
0.0
20
0.0
9
$LIMMAX
10
50.0
20
50.0
9
$HANDSEED
5
1048575
9
$LUNITS
70
4
0
ENDSEC
0
SECTION
2
TABLES
0
TABLE
2
APPID
5
1
100
AcDbSymbolTable
70
0
0
APPID
5
2
100
AcDbSymbolTableRecord
100
AcDbRegAppTableRecord
2
ACAD
70
0
0
ENDTAB
0
TABLE
2
DIMSTYLE
5
3
100
AcDbSymbolTable
70
0
0
ENDTAB
0
TABLE
2
UCS
5
4
100
AcDbSymbolTable
70
0
0
ENDTAB
0
TABLE
2
VIEW
5
5
100
AcDbSymbolTable
70
0
0
ENDTAB
0
TABLE
2
VPORT
5
6
100
AcDbSymbolTable
70
3
0
VPORT
5
7
100
AcDbSymbolTableRecord
100
AcDbViewportTableRecord
2
*ACTIVE
70
0
12
-35.0
22
10.1912
13
10.0
23
10.0
14
10.0
24
10.0
15
10.0
25
10.0
40
116.5582
41
2
74
3
75
0
76
1
77
0
0
ENDTAB
0
TABLE
2
STYLE
5
8
100
AcDbSymbolTable
70
1
0
STYLE
5
9
100
AcDbSymbolTableRecord
100
AcDbTextStyleTableRecord
2
STANDARD
70
0
40
0.0
41
1.0
50
0.0
71
0
3
txt
4

0
STYLE
5
10
100
AcDbSymbolTableRecord
100
AcDbTextStyleTableRecord
2
Default
70
0
40
1.0
41
1.0
50
0.0
71
0
3

4

1001
ACAD
1000

1071
10
0
ENDTAB
0
TABLE
2
LTYPE
5
11
100
AcDbSymbolTable
70
3
0
LTYPE
5
12
100
AcDbSymbolTableRecord
100
AcDbLinetypeTableRecord
2
BYBLOCK
70
0
3

72
65
73
0
40
0.0
0
LTYPE
5
13
100
AcDbSymbolTableRecord
100
AcDbLinetypeTableRecord
2
BYLAYER
70
0
3

72
65
73
0
40
0.0
0
LTYPE
5
14
100
AcDbSymbolTableRecord
100
AcDbLinetypeTableRecord
2
CONTINUOUS
70
0
3

72
65
73
0
40
0.0
0
ENDTAB
0
TABLE
2
LAYER
5
15
100
AcDbSymbolTable
70
9
0
LAYER
5
16
100
AcDbSymbolTableRecord
100
AcDbLayerTableRecord
2
0
70
0
6
CONTINUOUS
370
0.5
0
LAYER
5
17
100
AcDbSymbolTableRecord
100
AcDbLayerTableRecord
2
B_Cu_____________
70
0
62
3
6
CONTINUOUS
370
0.5
0
ENDTAB
0
TABLE
2
BLOCK_RECORD
5
18
100
AcDbSymbolTable
70
3
0
BLOCK_RECORD
5
19
100
AcDbSymbolTableRecord
100
AcDbBlockTableRecord
2
*MODEL_SPACE
0
BLOCK_RECORD
5
20
100
AcDbSymbolTableRecord
100
AcDbBlockTableRecord
2
*PAPER_SPACE
0
BLOCK_RECORD
5
21
100
AcDbSymbolTableRecord
100
AcDbBlockTableRecord
2
UNIT_DISC
0
BLOCK_RECORD
5
22
100
AcDbSymbolTableRecord
100
AcDbBlockTableRecord
2
MTHOLE
0
BLOCK_RECORD
5
23
100
AcDbSymbolTableRecord
100
AcDbBlockTableRecord
2
TARGET
0
BLOCK_RECORD
5
24
100
AcDbSymbolTableRecord
100
AcDbBlockTableRecord
2
SIGN_DIAM
0
ENDTAB
0
ENDSEC
0
SECTION
2
BLOCKS
0
BLOCK
5
26
330
25
100
AcDbEntity
8
0
100
AcDbBlockBegin
2
*MODEL_SPACE
0
ENDBLK
5
27
330
25
100
AcDbEntity
8
0
100
AcDbBlockEnd
0
BLOCK
5
29
330
28
100
AcDbEntity
67
1
8
0
100
AcDbBlockBegin
2
*PAPER_SPACE
0
ENDBLK
5
30
330
28
100
AcDbEntity
67
1
8
0
100
AcDbBlockEnd
0
BLOCK
5
32
330
31
100
AcDbEntity
8
0
100
AcDbBlockBegin
2
UNIT_DISC
0
LWPOLYLINE
5
33
100
AcDbEntity
8
0
62
256
100
AcDbPolyline
90
2
70
1
43
0.5
10
0.25
20
0.0
42
1.0
10
-0.25
20
0.0
42
1.0
0
ENDBLK
5
34
330
31
100
AcDbEntity
8
0
100
AcDbBlockEnd
0
BLOCK
5
36
330
35
100
AcDbEntity
8
0
100
AcDbBlockBegin
2
MTHOLE
0
LINE
5
37
100
AcDbEntity
8
0
62
256
100
AcDbLine
10
0.5
20
0.0
30
0.0
11
-0.5
21
0.0
31
0.0
0
LINE
5
38
100
AcDbEntity
8
0
62
256
100
AcDbLine
10
0.0
20
-0.5
30
0.0
11
0.0
21
0.5
31
0.0
0
CIRCLE
5
39
100
AcDbEntity
8
0
62
256
100
AcDbCircle
39
0.0
10
0.0
20
0.0
40
0.5
0
ENDBLK
5
40
330
35
100
AcDbEntity
8
0
100
AcDbBlockEnd
0
BLOCK
5
42
330
41
100
AcDbEntity
8
0
100
AcDbBlockBegin
2
TARGET
0
LINE
5
43
100
AcDbEntity
8
0
62
256
100
AcDbLine
10
0.5
20
0.0
30
0.0
11
-0.5
21
0.0
31
0.0
0
LINE
5
44
100
AcDbEntity
8
0
62
256
100
AcDbLine
10
0.0
20
-0.5
30
0.0
11
0.0
21
0.5
31
0.0
0
CIRCLE
5
45
100
AcDbEntity
8
0
62
256
100
AcDbCircle
39
0.0
10
0.0
20
0.0
40
0.4
0
CIRCLE
5
46
100
AcDbEntity
8
0
62
256
100
AcDbCircle
39
0.0
10
0.0
20
0.0
40
0.3
0
CIRCLE
5
47
100
AcDbEntity
8
0
62
256
100
AcDbCircle
39
0.0
10
0.0
20
0.0
40
0.2
0
CIRCLE
5
48
100
AcDbEntity
8
0
62
256
100
AcDbCircle
39
0.0
10
0.0
20
0.0
40
0.1
0
ENDBLK
5
49
330
41
100
AcDbEntity
8
0
100
AcDbBlockEnd
0
BLOCK
5
51
330
50
100
AcDbEntity
8
0
100
AcDbBlockBegin
2
SIGN_DIAM
0
LINE
5
52
100
AcDbEntity
8
0
62
256
100
AcDbLine
10
-0.5
20
-0.5
30
0.0
11
0.5
21
0.5
31
0.0
0
CIRCLE
5
53
100
AcDbEntity
8
0
62
256
100
AcDbCircle
39
0.0
10
0.0
20
0.0
40
0.3
0
ENDBLK
5
54
330
50
100
AcDbEntity
8
0
100
AcDbBlockEnd
0
ENDSEC
0
SECTION
2
ENTITIES
0
INSERT
5
55
100
AcDbEntity
8
B_Cu_____________
62
256
100
AcDbBlockReference
2
UNIT_DISC
10
-130.6654
20
-1.0772
41
0.6
42
0.6
50
0
0
INSERT
5
56
100
AcDbEntity
8
B_Cu_____________
62
256
100
AcDbBlockReference
2
UNIT_DISC
10
-129.448
20
-15.7513
41
0.6
42
0.6
50
0
0
INSERT
5
57
100
AcDbEntity
8
B_Cu_____________
62
256
100
AcDbBlockReference
2
UNIT_DISC
10
-126.4687
20
-12.297
41
0.6
42
0.6
50
0
0
INSERT
5
58
100
AcDbEntity
8
B_Cu_____________
62
256
100
AcDbBlockReference
2
UNIT_DISC
10
-131.7094
20
-0.1748
41
0.6
42
0.6
50
0
0
INSERT
5
59
100
AcDbEntity
8
B_Cu_____________
62
256
100
AcDbBlockReference
2
UNIT_DISC
10
-81.0154
20
2.4684
41
0.6
42
0.6
50
0
0
INSERT
5
60
100
AcDbEntity
8
B_Cu_____________
62
256
100
AcDbBlockReference
2
UNIT_DISC
10
-113.563
20
10.1582
41
0.6
42
0.6
50
0
0
INSERT
5
61
100
AcDbEntity
8
B_Cu_____________
62
256
100
AcDbBlockReference
2
UNIT_DISC
10
-99.846
20
15.679
41
0.6
42
0.6
50
0
0
INSERT
5
62
100
AcDbEntity
8
B_Cu_____________
62
256
100
AcDbBlockReference
2
UNIT_DISC
10
58.8381
20
-7.4008
41
0.6
42
0.6
50
0
0
INSERT
5
63
100
AcDbEntity
8
B_Cu_____________
62
256
100
AcDbBlockReference
2
UNIT_DISC
10
59.3676
20
-5.2144
41
0.6
42
0.6
50
0
0
INSERT
5
64
100
AcDbEntity
8
B_Cu_____________
62
256
100
AcDbBlockReference
2
UNIT_DISC
10
74.4842
20
7.2092
41
0.6
42
0.6
50
0
0
INSERT
5
65
100
AcDbEntity
8
B_Cu_____________
62
256
100
AcDbBlockReference
2
UNIT_DISC
10
8.0767
20
-7.2545
41
0.6
42
0.6
50
0
0
INSERT
5
66
100
AcDbEntity
8
B_Cu_____________
62
256
100
AcDbBlockReference
2
UNIT_DISC
10
14.8926
20
-26.7568
41
0.6
42
0.6
50
0
0
INSERT
5
67
100
AcDbEntity
8
B_Cu_____________
62
256
100
AcDbBlockReference
2
UNIT_DISC
10
12.3989
20
-19.3398
41
0.6
42
0.6
50
0
0
INSERT
5
68
100
AcDbEntity
8
B_Cu_____________
62
256
100
AcDbBlockReference
2
UNIT_DISC
10
88.0582
20
-12.3807
41
0.6
42
0.6
50
0
0
INSERT
5
69
100
AcDbEntity
8
B_Cu_____________
62
256
100
AcDbBlockReference
2
UNIT_DISC
10
38.0185
20
25.9401
41
0.6
42
0.6
50
0
0
INSERT
5
70
100
AcDbEntity
8
B_Cu_____________
62
256
100
AcDbBlockReference
2
UNIT_DISC
10
57.4619
20
-4.3006
41
0.6
42
0.6
50
0
0
INSERT
5
71
100
AcDbEntity
8
B_Cu_____________
62
256
100
AcDbBlockReference
2
UNIT_DISC
10
20.3687
20
-7.0014
41
0.6
42
0.6
50
0
0
INSERT
5
72
100
AcDbEntity
8
B_Cu_____________
62
256
100
AcDbBlockReference
2
UNIT_DISC
10
56.2169
20
20.484
41
0.6
42
0.6
50
0
0
INSERT
5
73
100
AcDbEntity
8
B_Cu_____________
62
256
100
AcDbBlockReference
2
UNIT_DISC
10
21.8685
20
12.3008
41
0.6
42
0.6
50
0
0
INSERT
5
74
100
AcDbEntity
8
B_Cu_____________
62
256
100
AcDbBlockReference
2
UNIT_DISC
10
-82.7581
20
-8.0551
41
0.6
42
0.6
50
0
0
INSERT
5
75
100
AcDbEntity
8
B_Cu_____________
62
256
100
AcDbBlockReference
2
UNIT_DISC
10
-128.4075
20
-0.0279
41
0.6
42
0.6
50
0
0
ENDSEC
0
SECTION
2
OBJECTS
0
DICTIONARY
5
76
100
AcDbDictionary
3
ACAD_GROUP
350
77
3
ACAD_LAYOUT
350
78
3
ACAD_MLINESTYLE
350
79
3
ACDBHEADERROUNDTRIPXREC
350
80
0
DICTIONARY
5
77
100
AcDbDictionary
0
DICTIONARY
5
78
100
AcDbDictionary
0
DICTIONARY
5
79
100
AcDbDictionary
3
STANDARD
350
82
0
DICTIONARY
5
80
100
AcDbDictionary
3
STANDARD
350
82
3
INSUNITS
350
81
0
XRECORD
5
81
100
AcDbXrecord
90
4
0
MLINESTYLE
5
82
100
AcDbMlineStyle
2
STANDARD
71
2
49
0.5
49
-0.5
0
ENDSEC
0
EOF
