0
SECTION
2
HEADER
9
$ACADVER
1
AC1014
9
$DIMALTU
70
2
9
$DIMLUNIT
70
2
9
$LIMMIN
10
0.0
20
0.0
9
$LIMMAX
10
50.0
20
50.0
9
$HANDSEED
5
1048575
9
$LUNITS
70
4
0
ENDSEC
0
SECTION
2
TABLES
0
TABLE
2
APPID
5
1
100
AcDbSymbolTable
70
0
0
APPID
5
2
100
AcDbSymbolTableRecord
100
AcDbRegAppTableRecord
2
ACAD
70
0
0
ENDTAB
0
TABLE
2
DIMSTYLE
5
3
100
AcDbSymbolTable
70
0
0
ENDTAB
0
TABLE
2
UCS
5
4
100
AcDbSymbolTable
70
0
0
ENDTAB
0
TABLE
2
VIEW
5
5
100
AcDbSymbolTable
70
0
0
ENDTAB
0
TABLE
2
VPORT
5
6
100
AcDbSymbolTable
70
3
0
VPORT
5
7
100
AcDbSymbolTableRecord
100
AcDbViewportTableRecord
2
*ACTIVE
70
0
12
-35.0
22
10.1912
13
10.0
23
10.0
14
10.0
24
10.0
15
10.0
25
10.0
40
116.5582
41
2
74
3
75
0
76
1
77
0
0
ENDTAB
0
TABLE
2
STYLE
5
8
100
AcDbSymbolTable
70
1
0
STYLE
5
9
100
AcDbSymbolTableRecord
100
AcDbTextStyleTableRecord
2
STANDARD
70
0
40
0.0
41
1.0
50
0.0
71
0
3
txt
4

0
STYLE
5
10
100
AcDbSymbolTableRecord
100
AcDbTextStyleTableRecord
2
Default
70
0
40
1.0
41
1.0
50
0.0
71
0
3

4

1001
ACAD
1000

1071
10
0
ENDTAB
0
TABLE
2
LTYPE
5
11
100
AcDbSymbolTable
70
3
0
LTYPE
5
12
100
AcDbSymbolTableRecord
100
AcDbLinetypeTableRecord
2
BYBLOCK
70
0
3

72
65
73
0
40
0.0
0
LTYPE
5
13
100
AcDbSymbolTableRecord
100
AcDbLinetypeTableRecord
2
BYLAYER
70
0
3

72
65
73
0
40
0.0
0
LTYPE
5
14
100
AcDbSymbolTableRecord
100
AcDbLinetypeTableRecord
2
CONTINUOUS
70
0
3

72
65
73
0
40
0.0
0
ENDTAB
0
TABLE
2
LAYER
5
15
100
AcDbSymbolTable
70
9
0
LAYER
5
16
100
AcDbSymbolTableRecord
100
AcDbLayerTableRecord
2
0
70
0
6
CONTINUOUS
370
0.5
0
LAYER
5
17
100
AcDbSymbolTableRecord
100
AcDbLayerTableRecord
2
F_Cu_____________
70
0
62
0
6
CONTINUOUS
370
0.5
0
ENDTAB
0
TABLE
2
BLOCK_RECORD
5
18
100
AcDbSymbolTable
70
3
0
BLOCK_RECORD
5
19
100
AcDbSymbolTableRecord
100
AcDbBlockTableRecord
2
*MODEL_SPACE
0
BLOCK_RECORD
5
20
100
AcDbSymbolTableRecord
100
AcDbBlockTableRecord
2
*PAPER_SPACE
0
BLOCK_RECORD
5
21
100
AcDbSymbolTableRecord
100
AcDbBlockTableRecord
2
UNIT_DISC
0
BLOCK_RECORD
5
22
100
AcDbSymbolTableRecord
100
AcDbBlockTableRecord
2
MTHOLE
0
BLOCK_RECORD
5
23
100
AcDbSymbolTableRecord
100
AcDbBlockTableRecord
2
TARGET
0
BLOCK_RECORD
5
24
100
AcDbSymbolTableRecord
100
AcDbBlockTableRecord
2
SIGN_DIAM
0
ENDTAB
0
ENDSEC
0
SECTION
2
BLOCKS
0
BLOCK
5
26
330
25
100
AcDbEntity
8
0
100
AcDbBlockBegin
2
*MODEL_SPACE
0
ENDBLK
5
27
330
25
100
AcDbEntity
8
0
100
AcDbBlockEnd
0
BLOCK
5
29
330
28
100
AcDbEntity
67
1
8
0
100
AcDbBlockBegin
2
*PAPER_SPACE
0
ENDBLK
5
30
330
28
100
AcDbEntity
67
1
8
0
100
AcDbBlockEnd
0
BLOCK
5
32
330
31
100
AcDbEntity
8
0
100
AcDbBlockBegin
2
UNIT_DISC
0
LWPOLYLINE
5
33
100
AcDbEntity
8
0
62
256
100
AcDbPolyline
90
2
70
1
43
0.5
10
0.25
20
0.0
42
1.0
10
-0.25
20
0.0
42
1.0
0
ENDBLK
5
34
330
31
100
AcDbEntity
8
0
100
AcDbBlockEnd
0
BLOCK
5
36
330
35
100
AcDbEntity
8
0
100
AcDbBlockBegin
2
MTHOLE
0
LINE
5
37
100
AcDbEntity
8
0
62
256
100
AcDbLine
10
0.5
20
0.0
30
0.0
11
-0.5
21
0.0
31
0.0
0
LINE
5
38
100
AcDbEntity
8
0
62
256
100
AcDbLine
10
0.0
20
-0.5
30
0.0
11
0.0
21
0.5
31
0.0
0
CIRCLE
5
39
100
AcDbEntity
8
0
62
256
100
AcDbCircle
39
0.0
10
0.0
20
0.0
40
0.5
0
ENDBLK
5
40
330
35
100
AcDbEntity
8
0
100
AcDbBlockEnd
0
BLOCK
5
42
330
41
100
AcDbEntity
8
0
100
AcDbBlockBegin
2
TARGET
0
LINE
5
43
100
AcDbEntity
8
0
62
256
100
AcDbLine
10
0.5
20
0.0
30
0.0
11
-0.5
21
0.0
31
0.0
0
LINE
5
44
100
AcDbEntity
8
0
62
256
100
AcDbLine
10
0.0
20
-0.5
30
0.0
11
0.0
21
0.5
31
0.0
0
CIRCLE
5
45
100
AcDbEntity
8
0
62
256
100
AcDbCircle
39
0.0
10
0.0
20
0.0
40
0.4
0
CIRCLE
5
46
100
AcDbEntity
8
0
62
256
100
AcDbCircle
39
0.0
10
0.0
20
0.0
40
0.3
0
CIRCLE
5
47
100
AcDbEntity
8
0
62
256
100
AcDbCircle
39
0.0
10
0.0
20
0.0
40
0.2
0
CIRCLE
5
48
100
AcDbEntity
8
0
62
256
100
AcDbCircle
39
0.0
10
0.0
20
0.0
40
0.1
0
ENDBLK
5
49
330
41
100
AcDbEntity
8
0
100
AcDbBlockEnd
0
BLOCK
5
51
330
50
100
AcDbEntity
8
0
100
AcDbBlockBegin
2
SIGN_DIAM
0
LINE
5
52
100
AcDbEntity
8
0
62
256
100
AcDbLine
10
-0.5
20
-0.5
30
0.0
11
0.5
21
0.5
31
0.0
0
CIRCLE
5
53
100
AcDbEntity
8
0
62
256
100
AcDbCircle
39
0.0
10
0.0
20
0.0
40
0.3
0
ENDBLK
5
54
330
50
100
AcDbEntity
8
0
100
AcDbBlockEnd
0
ENDSEC
0
SECTION
2
ENTITIES
0
INSERT
5
55
100
AcDbEntity
8
F_Cu_____________
62
256
100
AcDbBlockReference
2
UNIT_DISC
10
-123.3065
20
-19.1345
41
0.5
42
0.5
50
0
0
LWPOLYLINE
5
56
100
AcDbEntity
8
F_Cu_____________
62
256
100
AcDbPolyline
90
2
70
0
43
0.5
10
-123.3065
20
-19.1345
10
-124.1998
20
-18.3921
0
INSERT
5
57
100
AcDbEntity
8
F_Cu_____________
62
256
100
AcDbBlockReference
2
UNIT_DISC
10
-124.1998
20
-18.3921
41
0.5
42
0.5
50
0
0
INSERT
5
58
100
AcDbEntity
8
F_Cu_____________
62
256
100
AcDbBlockReference
2
UNIT_DISC
10
-124.1998
20
-18.3921
41
0.5
42
0.5
50
0
0
LWPOLYLINE
5
59
100
AcDbEntity
8
F_Cu_____________
62
256
100
AcDbPolyline
90
2
70
0
43
0.5
10
-124.1998
20
-18.3921
10
-124.2014
20
-18.3907
0
INSERT
5
60
100
AcDbEntity
8
F_Cu_____________
62
256
100
AcDbBlockReference
2
UNIT_DISC
10
-124.2014
20
-18.3907
41
0.5
42
0.5
50
0
0
INSERT
5
61
100
AcDbEntity
8
F_Cu_____________
62
256
100
AcDbBlockReference
2
UNIT_DISC
10
-124.2101
20
-18.3807
41
0.5
42
0.5
50
0
0
INSERT
5
62
100
AcDbEntity
8
F_Cu_____________
62
256
100
AcDbBlockReference
2
UNIT_DISC
10
-124.2014
20
-18.3907
41
0.5
42
0.5
50
0
0
LWPOLYLINE
5
63
100
AcDbEntity
8
F_Cu_____________
62
256
100
AcDbPolyline
90
2
70
0
43
0.5
10
-124.2101
20
-18.3807
42
0.068081
10
-124.2014
20
-18.3907
0
INSERT
5
64
100
AcDbEntity
8
F_Cu_____________
62
256
100
AcDbBlockReference
2
UNIT_DISC
10
-124.2101
20
-18.3807
41
0.5
42
0.5
50
0
0
LWPOLYLINE
5
65
100
AcDbEntity
8
F_Cu_____________
62
256
100
AcDbPolyline
90
2
70
0
43
0.5
10
-124.2101
20
-18.3807
10
-124.6984
20
-17.6337
0
INSERT
5
66
100
AcDbEntity
8
F_Cu_____________
62
256
100
AcDbBlockReference
2
UNIT_DISC
10
-124.6984
20
-17.6337
41
0.5
42
0.5
50
0
0
INSERT
5
67
100
AcDbEntity
8
F_Cu_____________
62
256
100
AcDbBlockReference
2
UNIT_DISC
10
-124.7281
20
-17.5843
41
0.5
42
0.5
50
0
0
INSERT
5
68
100
AcDbEntity
8
F_Cu_____________
62
256
100
AcDbBlockReference
2
UNIT_DISC
10
-124.6984
20
-17.6337
41
0.5
42
0.5
50
0
0
LWPOLYLINE
5
69
100
AcDbEntity
8
F_Cu_____________
62
256
100
AcDbPolyline
90
2
70
0
43
0.5
10
-124.7281
20
-17.5843
42
0.019208
10
-124.6984
20
-17.6337
0
INSERT
5
70
100
AcDbEntity
8
F_Cu_____________
62
256
100
AcDbBlockReference
2
UNIT_DISC
10
-124.7281
20
-17.5843
41
0.5
42
0.5
50
0
0
LWPOLYLINE
5
71
100
AcDbEntity
8
F_Cu_____________
62
256
100
AcDbPolyline
90
2
70
0
43
0.5
10
-124.7281
20
-17.5843
10
-124.7752
20
-17.4985
0
INSERT
5
72
100
AcDbEntity
8
F_Cu_____________
62
256
100
AcDbBlockReference
2
UNIT_DISC
10
-124.7752
20
-17.4985
41
0.5
42
0.5
50
0
0
INSERT
5
73
100
AcDbEntity
8
F_Cu_____________
62
256
100
AcDbBlockReference
2
UNIT_DISC
10
-124.8633
20
-17.2193
41
0.5
42
0.5
50
0
0
INSERT
5
74
100
AcDbEntity
8
F_Cu_____________
62
256
100
AcDbBlockReference
2
UNIT_DISC
10
-124.7752
20
-17.4985
41
0.5
42
0.5
50
0
0
LWPOLYLINE
5
75
100
AcDbEntity
8
F_Cu_____________
62
256
100
AcDbPolyline
90
2
70
0
43
0.5
10
-124.8633
20
-17.2193
42
0.098469
10
-124.7752
20
-17.4985
0
INSERT
5
76
100
AcDbEntity
8
F_Cu_____________
62
256
100
AcDbBlockReference
2
UNIT_DISC
10
-124.8633
20
-17.2193
41
0.5
42
0.5
50
0
0
LWPOLYLINE
5
77
100
AcDbEntity
8
F_Cu_____________
62
256
100
AcDbPolyline
90
2
70
0
43
0.5
10
-124.8633
20
-17.2193
10
-124.874
20
-17.122
0
INSERT
5
78
100
AcDbEntity
8
F_Cu_____________
62
256
100
AcDbBlockReference
2
UNIT_DISC
10
-124.874
20
-17.122
41
0.5
42
0.5
50
0
0
INSERT
5
79
100
AcDbEntity
8
F_Cu_____________
62
256
100
AcDbBlockReference
2
UNIT_DISC
10
-124.8756
20
-16.9746
41
0.5
42
0.5
50
0
0
INSERT
5
80
100
AcDbEntity
8
F_Cu_____________
62
256
100
AcDbBlockReference
2
UNIT_DISC
10
-124.874
20
-17.122
41
0.5
42
0.5
50
0
0
LWPOLYLINE
5
81
100
AcDbEntity
8
F_Cu_____________
62
256
100
AcDbPolyline
90
2
70
0
43
0.5
10
-124.8756
20
-16.9746
42
0.049224
10
-124.874
20
-17.122
0
INSERT
5
82
100
AcDbEntity
8
F_Cu_____________
62
256
100
AcDbBlockReference
2
UNIT_DISC
10
-124.8756
20
-16.9746
41
0.5
42
0.5
50
0
0
LWPOLYLINE
5
83
100
AcDbEntity
8
F_Cu_____________
62
256
100
AcDbPolyline
90
2
70
0
43
0.5
10
-124.8756
20
-16.9746
10
-124.5628
20
-13.3983
0
INSERT
5
84
100
AcDbEntity
8
F_Cu_____________
62
256
100
AcDbBlockReference
2
UNIT_DISC
10
-124.5628
20
-13.3983
41
0.5
42
0.5
50
0
0
INSERT
5
85
100
AcDbEntity
8
F_Cu_____________
62
256
100
AcDbBlockReference
2
UNIT_DISC
10
-124.5568
20
-13.3482
41
0.5
42
0.5
50
0
0
INSERT
5
86
100
AcDbEntity
8
F_Cu_____________
62
256
100
AcDbBlockReference
2
UNIT_DISC
10
-124.5628
20
-13.3983
41
0.5
42
0.5
50
0
0
LWPOLYLINE
5
87
100
AcDbEntity
8
F_Cu_____________
62
256
100
AcDbPolyline
90
2
70
0
43
0.5
10
-124.5568
20
-13.3482
42
0.016813
10
-124.5628
20
-13.3983
0
INSERT
5
88
100
AcDbEntity
8
F_Cu_____________
62
256
100
AcDbBlockReference
2
UNIT_DISC
10
-124.5568
20
-13.3482
41
0.5
42
0.5
50
0
0
LWPOLYLINE
5
89
100
AcDbEntity
8
F_Cu_____________
62
256
100
AcDbPolyline
90
2
70
0
43
0.5
10
-124.5568
20
-13.3482
10
-124.4422
20
-12.6125
0
INSERT
5
90
100
AcDbEntity
8
F_Cu_____________
62
256
100
AcDbBlockReference
2
UNIT_DISC
10
-124.4422
20
-12.6125
41
0.5
42
0.5
50
0
0
INSERT
5
91
100
AcDbEntity
8
F_Cu_____________
62
256
100
AcDbBlockReference
2
UNIT_DISC
10
-124.4422
20
-12.6125
41
0.5
42
0.5
50
0
0
INSERT
5
92
100
AcDbEntity
8
F_Cu_____________
62
256
100
AcDbBlockReference
2
UNIT_DISC
10
-124.6926
20
-11.2715
41
0.5
42
0.5
50
0
0
LWPOLYLINE
5
93
100
AcDbEntity
8
F_Cu_____________
62
256
100
AcDbPolyline
90
2
70
0
43
0.5
10
-124.4422
20
-12.6125
42
0.171161
10
-124.6926
20
-11.2715
0
INSERT
5
94
100
AcDbEntity
8
F_Cu_____________
62
256
100
AcDbBlockReference
2
UNIT_DISC
10
-124.6926
20
-11.2715
41
0.5
42
0.5
50
0
0
LWPOLYLINE
5
95
100
AcDbEntity
8
F_Cu_____________
62
256
100
AcDbPolyline
90
2
70
0
43
0.5
10
-124.6926
20
-11.2715
10
-130.2432
20
-1.6587
0
INSERT
5
96
100
AcDbEntity
8
F_Cu_____________
62
256
100
AcDbBlockReference
2
UNIT_DISC
10
-130.2432
20
-1.6587
41
0.5
42
0.5
50
0
0
INSERT
5
97
100
AcDbEntity
8
F_Cu_____________
62
256
100
AcDbBlockReference
2
UNIT_DISC
10
-123.5279
20
-21.6649
41
0.5
42
0.5
50
0
0
LWPOLYLINE
5
98
100
AcDbEntity
8
F_Cu_____________
62
256
100
AcDbPolyline
90
2
70
0
43
0.5
10
-123.5279
20
-21.6649
10
-124.252
20
-21.3256
0
INSERT
5
99
100
AcDbEntity
8
F_Cu_____________
62
256
100
AcDbBlockReference
2
UNIT_DISC
10
-124.252
20
-21.3256
41
0.5
42
0.5
50
0
0
INSERT
5
100
100
AcDbEntity
8
F_Cu_____________
62
256
100
AcDbBlockReference
2
UNIT_DISC
10
-124.252
20
-21.3256
41
0.5
42
0.5
50
0
0
LWPOLYLINE
5
101
100
AcDbEntity
8
F_Cu_____________
62
256
100
AcDbPolyline
90
2
70
0
43
0.5
10
-124.252
20
-21.3256
10
-124.501
20
-21.3038
0
INSERT
5
102
100
AcDbEntity
8
F_Cu_____________
62
256
100
AcDbBlockReference
2
UNIT_DISC
10
-124.501
20
-21.3038
41
0.5
42
0.5
50
0
0
INSERT
5
103
100
AcDbEntity
8
F_Cu_____________
62
256
100
AcDbBlockReference
2
UNIT_DISC
10
-124.501
20
-21.3038
41
0.5
42
0.5
50
0
0
LWPOLYLINE
5
104
100
AcDbEntity
8
F_Cu_____________
62
256
100
AcDbPolyline
90
2
70
0
43
0.5
10
-124.501
20
-21.3038
10
-124.5056
20
-21.3033
0
INSERT
5
105
100
AcDbEntity
8
F_Cu_____________
62
256
100
AcDbBlockReference
2
UNIT_DISC
10
-124.5056
20
-21.3033
41
0.5
42
0.5
50
0
0
INSERT
5
106
100
AcDbEntity
8
F_Cu_____________
62
256
100
AcDbBlockReference
2
UNIT_DISC
10
-124.5178
20
-21.3017
41
0.5
42
0.5
50
0
0
INSERT
5
107
100
AcDbEntity
8
F_Cu_____________
62
256
100
AcDbBlockReference
2
UNIT_DISC
10
-124.5056
20
-21.3033
41
0.5
42
0.5
50
0
0
LWPOLYLINE
5
108
100
AcDbEntity
8
F_Cu_____________
62
256
100
AcDbPolyline
90
2
70
0
43
0.5
10
-124.5178
20
-21.3017
42
0.012307
10
-124.5056
20
-21.3033
0
INSERT
5
109
100
AcDbEntity
8
F_Cu_____________
62
256
100
AcDbBlockReference
2
UNIT_DISC
10
-124.5178
20
-21.3017
41
0.5
42
0.5
50
0
0
LWPOLYLINE
5
110
100
AcDbEntity
8
F_Cu_____________
62
256
100
AcDbPolyline
90
2
70
0
43
0.5
10
-124.5178
20
-21.3017
10
-126.6192
20
-20.9742
0
INSERT
5
111
100
AcDbEntity
8
F_Cu_____________
62
256
100
AcDbBlockReference
2
UNIT_DISC
10
-126.6192
20
-20.9742
41
0.5
42
0.5
50
0
0
INSERT
5
112
100
AcDbEntity
8
F_Cu_____________
62
256
100
AcDbBlockReference
2
UNIT_DISC
10
-128.2238
20
-19.6197
41
0.5
42
0.5
50
0
0
INSERT
5
113
100
AcDbEntity
8
F_Cu_____________
62
256
100
AcDbBlockReference
2
UNIT_DISC
10
-126.6192
20
-20.9742
41
0.5
42
0.5
50
0
0
LWPOLYLINE
5
114
100
AcDbEntity
8
F_Cu_____________
62
256
100
AcDbPolyline
90
2
70
0
43
0.5
10
-128.2238
20
-19.6197
42
0.280223
10
-126.6192
20
-20.9742
0
INSERT
5
115
100
AcDbEntity
8
F_Cu_____________
62
256
100
AcDbBlockReference
2
UNIT_DISC
10
-128.2238
20
-19.6197
41
0.5
42
0.5
50
0
0
LWPOLYLINE
5
116
100
AcDbEntity
8
F_Cu_____________
62
256
100
AcDbPolyline
90
2
70
0
43
0.5
10
-128.2238
20
-19.6197
10
-129.8687
20
-14.71
0
INSERT
5
117
100
AcDbEntity
8
F_Cu_____________
62
256
100
AcDbBlockReference
2
UNIT_DISC
10
-129.8687
20
-14.71
41
0.5
42
0.5
50
0
0
INSERT
5
118
100
AcDbEntity
8
F_Cu_____________
62
256
100
AcDbBlockReference
2
UNIT_DISC
10
-123.9706
20
-26.7255
41
0.5
42
0.5
50
0
0
LWPOLYLINE
5
119
100
AcDbEntity
8
F_Cu_____________
62
256
100
AcDbPolyline
90
2
70
0
43
0.5
10
-123.9706
20
-26.7255
10
-124.8639
20
-25.9831
0
INSERT
5
120
100
AcDbEntity
8
F_Cu_____________
62
256
100
AcDbBlockReference
2
UNIT_DISC
10
-124.8639
20
-25.9831
41
0.5
42
0.5
50
0
0
INSERT
5
121
100
AcDbEntity
8
F_Cu_____________
62
256
100
AcDbBlockReference
2
UNIT_DISC
10
-124.8639
20
-25.9831
41
0.5
42
0.5
50
0
0
LWPOLYLINE
5
122
100
AcDbEntity
8
F_Cu_____________
62
256
100
AcDbPolyline
90
2
70
0
43
0.5
10
-124.8639
20
-25.9831
10
-124.8655
20
-25.9817
0
INSERT
5
123
100
AcDbEntity
8
F_Cu_____________
62
256
100
AcDbBlockReference
2
UNIT_DISC
10
-124.8655
20
-25.9817
41
0.5
42
0.5
50
0
0
INSERT
5
124
100
AcDbEntity
8
F_Cu_____________
62
256
100
AcDbBlockReference
2
UNIT_DISC
10
-124.8725
20
-25.9741
41
0.5
42
0.5
50
0
0
INSERT
5
125
100
AcDbEntity
8
F_Cu_____________
62
256
100
AcDbBlockReference
2
UNIT_DISC
10
-124.8655
20
-25.9817
41
0.5
42
0.5
50
0
0
LWPOLYLINE
5
126
100
AcDbEntity
8
F_Cu_____________
62
256
100
AcDbPolyline
90
2
70
0
43
0.5
10
-124.8725
20
-25.9741
42
0.052984
10
-124.8655
20
-25.9817
0
INSERT
5
127
100
AcDbEntity
8
F_Cu_____________
62
256
100
AcDbBlockReference
2
UNIT_DISC
10
-124.8725
20
-25.9741
41
0.5
42
0.5
50
0
0
LWPOLYLINE
5
128
100
AcDbEntity
8
F_Cu_____________
62
256
100
AcDbPolyline
90
2
70
0
43
0.5
10
-124.8725
20
-25.9741
10
-128.7327
20
-20.7798
0
INSERT
5
129
100
AcDbEntity
8
F_Cu_____________
62
256
100
AcDbBlockReference
2
UNIT_DISC
10
-128.7327
20
-20.7798
41
0.5
42
0.5
50
0
0
INSERT
5
130
100
AcDbEntity
8
F_Cu_____________
62
256
100
AcDbBlockReference
2
UNIT_DISC
10
-129.1631
20
-19.9651
41
0.5
42
0.5
50
0
0
INSERT
5
131
100
AcDbEntity
8
F_Cu_____________
62
256
100
AcDbBlockReference
2
UNIT_DISC
10
-128.7327
20
-20.7798
41
0.5
42
0.5
50
0
0
LWPOLYLINE
5
132
100
AcDbEntity
8
F_Cu_____________
62
256
100
AcDbPolyline
90
2
70
0
43
0.5
10
-129.1631
20
-19.9651
42
0.076699
10
-128.7327
20
-20.7798
0
INSERT
5
133
100
AcDbEntity
8
F_Cu_____________
62
256
100
AcDbBlockReference
2
UNIT_DISC
10
-129.1631
20
-19.9651
41
0.5
42
0.5
50
0
0
LWPOLYLINE
5
134
100
AcDbEntity
8
F_Cu_____________
62
256
100
AcDbPolyline
90
2
70
0
43
0.5
10
-129.1631
20
-19.9651
10
-130.8615
20
-15.0533
0
INSERT
5
135
100
AcDbEntity
8
F_Cu_____________
62
256
100
AcDbBlockReference
2
UNIT_DISC
10
-130.8615
20
-15.0533
41
0.5
42
0.5
50
0
0
INSERT
5
136
100
AcDbEntity
8
F_Cu_____________
62
256
100
AcDbBlockReference
2
UNIT_DISC
10
-130.2412
20
-13.7278
41
0.5
42
0.5
50
0
0
INSERT
5
137
100
AcDbEntity
8
F_Cu_____________
62
256
100
AcDbBlockReference
2
UNIT_DISC
10
-130.8615
20
-15.0533
41
0.5
42
0.5
50
0
0
LWPOLYLINE
5
138
100
AcDbEntity
8
F_Cu_____________
62
256
100
AcDbPolyline
90
2
70
0
43
0.5
10
-130.2412
20
-13.7278
42
0.405578
10
-130.8615
20
-15.0533
0
INSERT
5
139
100
AcDbEntity
8
F_Cu_____________
62
256
100
AcDbBlockReference
2
UNIT_DISC
10
-130.2412
20
-13.7278
41
0.5
42
0.5
50
0
0
LWPOLYLINE
5
140
100
AcDbEntity
8
F_Cu_____________
62
256
100
AcDbPolyline
90
2
70
0
43
0.5
10
-130.2412
20
-13.7278
10
-126.4687
20
-12.297
0
INSERT
5
141
100
AcDbEntity
8
F_Cu_____________
62
256
100
AcDbBlockReference
2
UNIT_DISC
10
-126.4687
20
-12.297
41
0.5
42
0.5
50
0
0
INSERT
5
142
100
AcDbEntity
8
F_Cu_____________
62
256
100
AcDbBlockReference
2
UNIT_DISC
10
-104.5316
20
-13.128
41
0.5
42
0.5
50
0
0
LWPOLYLINE
5
143
100
AcDbEntity
8
F_Cu_____________
62
256
100
AcDbPolyline
90
2
70
0
43
0.5
10
-104.5316
20
-13.128
10
-104.0227
20
-12.6444
0
INSERT
5
144
100
AcDbEntity
8
F_Cu_____________
62
256
100
AcDbBlockReference
2
UNIT_DISC
10
-104.0227
20
-12.6444
41
0.5
42
0.5
50
0
0
INSERT
5
145
100
AcDbEntity
8
F_Cu_____________
62
256
100
AcDbBlockReference
2
UNIT_DISC
10
-104.0227
20
-12.6444
41
0.5
42
0.5
50
0
0
LWPOLYLINE
5
146
100
AcDbEntity
8
F_Cu_____________
62
256
100
AcDbPolyline
90
2
70
0
43
0.5
10
-104.0227
20
-12.6444
10
-104.0009
20
-12.3954
0
INSERT
5
147
100
AcDbEntity
8
F_Cu_____________
62
256
100
AcDbBlockReference
2
UNIT_DISC
10
-104.0009
20
-12.3954
41
0.5
42
0.5
50
0
0
INSERT
5
148
100
AcDbEntity
8
F_Cu_____________
62
256
100
AcDbBlockReference
2
UNIT_DISC
10
-104.0009
20
-12.3954
41
0.5
42
0.5
50
0
0
LWPOLYLINE
5
149
100
AcDbEntity
8
F_Cu_____________
62
256
100
AcDbPolyline
90
2
70
0
43
0.5
10
-104.0009
20
-12.3954
10
-103.9676
20
-12.015
0
INSERT
5
150
100
AcDbEntity
8
F_Cu_____________
62
256
100
AcDbBlockReference
2
UNIT_DISC
10
-103.9676
20
-12.015
41
0.5
42
0.5
50
0
0
INSERT
5
151
100
AcDbEntity
8
F_Cu_____________
62
256
100
AcDbBlockReference
2
UNIT_DISC
10
-103.9676
20
-12.015
41
0.5
42
0.5
50
0
0
INSERT
5
152
100
AcDbEntity
8
F_Cu_____________
62
256
100
AcDbBlockReference
2
UNIT_DISC
10
-103.9656
20
-11.9559
41
0.5
42
0.5
50
0
0
LWPOLYLINE
5
153
100
AcDbEntity
8
F_Cu_____________
62
256
100
AcDbPolyline
90
2
70
0
43
0.5
10
-103.9676
20
-12.015
42
0.026874
10
-103.9656
20
-11.9559
0
INSERT
5
154
100
AcDbEntity
8
F_Cu_____________
62
256
100
AcDbBlockReference
2
UNIT_DISC
10
-103.9656
20
-11.9559
41
0.5
42
0.5
50
0
0
LWPOLYLINE
5
155
100
AcDbEntity
8
F_Cu_____________
62
256
100
AcDbPolyline
90
2
70
0
43
0.5
10
-103.9656
20
-11.9559
10
-103.9686
20
-11.8071
0
INSERT
5
156
100
AcDbEntity
8
F_Cu_____________
62
256
100
AcDbBlockReference
2
UNIT_DISC
10
-103.9686
20
-11.8071
41
0.5
42
0.5
50
0
0
INSERT
5
157
100
AcDbEntity
8
F_Cu_____________
62
256
100
AcDbBlockReference
2
UNIT_DISC
10
-103.9686
20
-11.8071
41
0.5
42
0.5
50
0
0
INSERT
5
158
100
AcDbEntity
8
F_Cu_____________
62
256
100
AcDbBlockReference
2
UNIT_DISC
10
-103.9689
20
-11.7967
41
0.5
42
0.5
50
0
0
LWPOLYLINE
5
159
100
AcDbEntity
8
F_Cu_____________
62
256
100
AcDbPolyline
90
2
70
0
43
0.5
10
-103.9686
20
-11.8071
42
0.004725
10
-103.9689
20
-11.7967
0
INSERT
5
160
100
AcDbEntity
8
F_Cu_____________
62
256
100
AcDbBlockReference
2
UNIT_DISC
10
-103.9689
20
-11.7967
41
0.5
42
0.5
50
0
0
LWPOLYLINE
5
161
100
AcDbEntity
8
F_Cu_____________
62
256
100
AcDbPolyline
90
2
70
0
43
0.5
10
-103.9689
20
-11.7967
10
-103.9699
20
-11.7711
0
INSERT
5
162
100
AcDbEntity
8
F_Cu_____________
62
256
100
AcDbBlockReference
2
UNIT_DISC
10
-103.9699
20
-11.7711
41
0.5
42
0.5
50
0
0
INSERT
5
163
100
AcDbEntity
8
F_Cu_____________
62
256
100
AcDbBlockReference
2
UNIT_DISC
10
-103.9699
20
-11.7711
41
0.5
42
0.5
50
0
0
INSERT
5
164
100
AcDbEntity
8
F_Cu_____________
62
256
100
AcDbBlockReference
2
UNIT_DISC
10
-103.9716
20
-11.7446
41
0.5
42
0.5
50
0
0
LWPOLYLINE
5
165
100
AcDbEntity
8
F_Cu_____________
62
256
100
AcDbPolyline
90
2
70
0
43
0.5
10
-103.9699
20
-11.7711
42
0.012061
10
-103.9716
20
-11.7446
0
INSERT
5
166
100
AcDbEntity
8
F_Cu_____________
62
256
100
AcDbBlockReference
2
UNIT_DISC
10
-103.9716
20
-11.7446
41
0.5
42
0.5
50
0
0
LWPOLYLINE
5
167
100
AcDbEntity
8
F_Cu_____________
62
256
100
AcDbPolyline
90
2
70
0
43
0.5
10
-103.9716
20
-11.7446
10
-103.9822
20
-11.6234
0
INSERT
5
168
100
AcDbEntity
8
F_Cu_____________
62
256
100
AcDbBlockReference
2
UNIT_DISC
10
-103.9822
20
-11.6234
41
0.5
42
0.5
50
0
0
INSERT
5
169
100
AcDbEntity
8
F_Cu_____________
62
256
100
AcDbBlockReference
2
UNIT_DISC
10
-103.9822
20
-11.6234
41
0.5
42
0.5
50
0
0
LWPOLYLINE
5
170
100
AcDbEntity
8
F_Cu_____________
62
256
100
AcDbPolyline
90
2
70
0
43
0.5
10
-103.9822
20
-11.6234
10
-103.9825
20
-11.62
0
INSERT
5
171
100
AcDbEntity
8
F_Cu_____________
62
256
100
AcDbBlockReference
2
UNIT_DISC
10
-103.9825
20
-11.62
41
0.5
42
0.5
50
0
0
INSERT
5
172
100
AcDbEntity
8
F_Cu_____________
62
256
100
AcDbBlockReference
2
UNIT_DISC
10
-103.9825
20
-11.62
41
0.5
42
0.5
50
0
0
LWPOLYLINE
5
173
100
AcDbEntity
8
F_Cu_____________
62
256
100
AcDbPolyline
90
2
70
0
43
0.5
10
-103.9825
20
-11.62
10
-103.9849
20
-11.5944
0
INSERT
5
174
100
AcDbEntity
8
F_Cu_____________
62
256
100
AcDbBlockReference
2
UNIT_DISC
10
-103.9849
20
-11.5944
41
0.5
42
0.5
50
0
0
INSERT
5
175
100
AcDbEntity
8
F_Cu_____________
62
256
100
AcDbBlockReference
2
UNIT_DISC
10
-103.9849
20
-11.5944
41
0.5
42
0.5
50
0
0
INSERT
5
176
100
AcDbEntity
8
F_Cu_____________
62
256
100
AcDbBlockReference
2
UNIT_DISC
10
-103.9901
20
-11.5548
41
0.5
42
0.5
50
0
0
LWPOLYLINE
5
177
100
AcDbEntity
8
F_Cu_____________
62
256
100
AcDbPolyline
90
2
70
0
43
0.5
10
-103.9849
20
-11.5944
42
0.018144
10
-103.9901
20
-11.5548
0
INSERT
5
178
100
AcDbEntity
8
F_Cu_____________
62
256
100
AcDbBlockReference
2
UNIT_DISC
10
-103.9901
20
-11.5548
41
0.5
42
0.5
50
0
0
LWPOLYLINE
5
179
100
AcDbEntity
8
F_Cu_____________
62
256
100
AcDbPolyline
90
2
70
0
43
0.5
10
-103.9901
20
-11.5548
10
-104.0151
20
-11.4057
0
INSERT
5
180
100
AcDbEntity
8
F_Cu_____________
62
256
100
AcDbBlockReference
2
UNIT_DISC
10
-104.0151
20
-11.4057
41
0.5
42
0.5
50
0
0
INSERT
5
181
100
AcDbEntity
8
F_Cu_____________
62
256
100
AcDbBlockReference
2
UNIT_DISC
10
-104.0151
20
-11.4057
41
0.5
42
0.5
50
0
0
INSERT
5
182
100
AcDbEntity
8
F_Cu_____________
62
256
100
AcDbBlockReference
2
UNIT_DISC
10
-104.0241
20
-11.3625
41
0.5
42
0.5
50
0
0
LWPOLYLINE
5
183
100
AcDbEntity
8
F_Cu_____________
62
256
100
AcDbPolyline
90
2
70
0
43
0.5
10
-104.0151
20
-11.4057
42
0.020048
10
-104.0241
20
-11.3625
0
INSERT
5
184
100
AcDbEntity
8
F_Cu_____________
62
256
100
AcDbBlockReference
2
UNIT_DISC
10
-104.0241
20
-11.3625
41
0.5
42
0.5
50
0
0
LWPOLYLINE
5
185
100
AcDbEntity
8
F_Cu_____________
62
256
100
AcDbPolyline
90
2
70
0
43
0.5
10
-104.0241
20
-11.3625
10
-104.0611
20
-11.2153
0
INSERT
5
186
100
AcDbEntity
8
F_Cu_____________
62
256
100
AcDbBlockReference
2
UNIT_DISC
10
-104.0611
20
-11.2153
41
0.5
42
0.5
50
0
0
INSERT
5
187
100
AcDbEntity
8
F_Cu_____________
62
256
100
AcDbBlockReference
2
UNIT_DISC
10
-104.0611
20
-11.2153
41
0.5
42
0.5
50
0
0
INSERT
5
188
100
AcDbEntity
8
F_Cu_____________
62
256
100
AcDbBlockReference
2
UNIT_DISC
10
-104.0724
20
-11.1766
41
0.5
42
0.5
50
0
0
LWPOLYLINE
5
189
100
AcDbEntity
8
F_Cu_____________
62
256
100
AcDbPolyline
90
2
70
0
43
0.5
10
-104.0611
20
-11.2153
42
0.018315
10
-104.0724
20
-11.1766
0
INSERT
5
190
100
AcDbEntity
8
F_Cu_____________
62
256
100
AcDbBlockReference
2
UNIT_DISC
10
-104.0724
20
-11.1766
41
0.5
42
0.5
50
0
0
LWPOLYLINE
5
191
100
AcDbEntity
8
F_Cu_____________
62
256
100
AcDbPolyline
90
2
70
0
43
0.5
10
-104.0724
20
-11.1766
10
-104.1204
20
-11.0315
0
INSERT
5
192
100
AcDbEntity
8
F_Cu_____________
62
256
100
AcDbBlockReference
2
UNIT_DISC
10
-104.1204
20
-11.0315
41
0.5
42
0.5
50
0
0
INSERT
5
193
100
AcDbEntity
8
F_Cu_____________
62
256
100
AcDbBlockReference
2
UNIT_DISC
10
-104.1204
20
-11.0315
41
0.5
42
0.5
50
0
0
INSERT
5
194
100
AcDbEntity
8
F_Cu_____________
62
256
100
AcDbBlockReference
2
UNIT_DISC
10
-104.1338
20
-10.9951
41
0.5
42
0.5
50
0
0
LWPOLYLINE
5
195
100
AcDbEntity
8
F_Cu_____________
62
256
100
AcDbPolyline
90
2
70
0
43
0.5
10
-104.1204
20
-11.0315
42
0.01762
10
-104.1338
20
-10.9951
0
INSERT
5
196
100
AcDbEntity
8
F_Cu_____________
62
256
100
AcDbBlockReference
2
UNIT_DISC
10
-104.1338
20
-10.9951
41
0.5
42
0.5
50
0
0
LWPOLYLINE
5
197
100
AcDbEntity
8
F_Cu_____________
62
256
100
AcDbPolyline
90
2
70
0
43
0.5
10
-104.1338
20
-10.9951
10
-104.18
20
-10.8827
0
INSERT
5
198
100
AcDbEntity
8
F_Cu_____________
62
256
100
AcDbBlockReference
2
UNIT_DISC
10
-104.18
20
-10.8827
41
0.5
42
0.5
50
0
0
INSERT
5
199
100
AcDbEntity
8
F_Cu_____________
62
256
100
AcDbBlockReference
2
UNIT_DISC
10
-104.18
20
-10.8827
41
0.5
42
0.5
50
0
0
LWPOLYLINE
5
200
100
AcDbEntity
8
F_Cu_____________
62
256
100
AcDbPolyline
90
2
70
0
43
0.5
10
-104.18
20
-10.8827
10
-104.1805
20
-10.8816
0
INSERT
5
201
100
AcDbEntity
8
F_Cu_____________
62
256
100
AcDbBlockReference
2
UNIT_DISC
10
-104.1805
20
-10.8816
41
0.5
42
0.5
50
0
0
INSERT
5
202
100
AcDbEntity
8
F_Cu_____________
62
256
100
AcDbBlockReference
2
UNIT_DISC
10
-104.1805
20
-10.8816
41
0.5
42
0.5
50
0
0
LWPOLYLINE
5
203
100
AcDbEntity
8
F_Cu_____________
62
256
100
AcDbPolyline
90
2
70
0
43
0.5
10
-104.1805
20
-10.8816
10
-104.1903
20
-10.8579
0
INSERT
5
204
100
AcDbEntity
8
F_Cu_____________
62
256
100
AcDbBlockReference
2
UNIT_DISC
10
-104.1903
20
-10.8579
41
0.5
42
0.5
50
0
0
INSERT
5
205
100
AcDbEntity
8
F_Cu_____________
62
256
100
AcDbBlockReference
2
UNIT_DISC
10
-104.1903
20
-10.8579
41
0.5
42
0.5
50
0
0
INSERT
5
206
100
AcDbEntity
8
F_Cu_____________
62
256
100
AcDbBlockReference
2
UNIT_DISC
10
-104.2045
20
-10.8264
41
0.5
42
0.5
50
0
0
LWPOLYLINE
5
207
100
AcDbEntity
8
F_Cu_____________
62
256
100
AcDbPolyline
90
2
70
0
43
0.5
10
-104.1903
20
-10.8579
42
0.015696
10
-104.2045
20
-10.8264
0
INSERT
5
208
100
AcDbEntity
8
F_Cu_____________
62
256
100
AcDbBlockReference
2
UNIT_DISC
10
-104.2045
20
-10.8264
41
0.5
42
0.5
50
0
0
LWPOLYLINE
5
209
100
AcDbEntity
8
F_Cu_____________
62
256
100
AcDbPolyline
90
2
70
0
43
0.5
10
-104.2045
20
-10.8264
10
-104.2591
20
-10.7148
0
INSERT
5
210
100
AcDbEntity
8
F_Cu_____________
62
256
100
AcDbBlockReference
2
UNIT_DISC
10
-104.2591
20
-10.7148
41
0.5
42
0.5
50
0
0
INSERT
5
211
100
AcDbEntity
8
F_Cu_____________
62
256
100
AcDbBlockReference
2
UNIT_DISC
10
-104.2591
20
-10.7148
41
0.5
42
0.5
50
0
0
LWPOLYLINE
5
212
100
AcDbEntity
8
F_Cu_____________
62
256
100
AcDbPolyline
90
2
70
0
43
0.5
10
-104.2591
20
-10.7148
10
-104.2599
20
-10.7131
0
INSERT
5
213
100
AcDbEntity
8
F_Cu_____________
62
256
100
AcDbBlockReference
2
UNIT_DISC
10
-104.2599
20
-10.7131
41
0.5
42
0.5
50
0
0
INSERT
5
214
100
AcDbEntity
8
F_Cu_____________
62
256
100
AcDbBlockReference
2
UNIT_DISC
10
-104.2599
20
-10.7131
41
0.5
42
0.5
50
0
0
LWPOLYLINE
5
215
100
AcDbEntity
8
F_Cu_____________
62
256
100
AcDbPolyline
90
2
70
0
43
0.5
10
-104.2599
20
-10.7131
10
-104.2713
20
-10.69
0
INSERT
5
216
100
AcDbEntity
8
F_Cu_____________
62
256
100
AcDbBlockReference
2
UNIT_DISC
10
-104.2713
20
-10.69
41
0.5
42
0.5
50
0
0
INSERT
5
217
100
AcDbEntity
8
F_Cu_____________
62
256
100
AcDbBlockReference
2
UNIT_DISC
10
-104.2713
20
-10.69
41
0.5
42
0.5
50
0
0
INSERT
5
218
100
AcDbEntity
8
F_Cu_____________
62
256
100
AcDbBlockReference
2
UNIT_DISC
10
-104.2906
20
-10.6543
41
0.5
42
0.5
50
0
0
LWPOLYLINE
5
219
100
AcDbEntity
8
F_Cu_____________
62
256
100
AcDbPolyline
90
2
70
0
43
0.5
10
-104.2713
20
-10.69
42
0.018436
10
-104.2906
20
-10.6543
0
INSERT
5
220
100
AcDbEntity
8
F_Cu_____________
62
256
100
AcDbBlockReference
2
UNIT_DISC
10
-104.2906
20
-10.6543
41
0.5
42
0.5
50
0
0
LWPOLYLINE
5
221
100
AcDbEntity
8
F_Cu_____________
62
256
100
AcDbPolyline
90
2
70
0
43
0.5
10
-104.2906
20
-10.6543
10
-104.3666
20
-10.5252
0
INSERT
5
222
100
AcDbEntity
8
F_Cu_____________
62
256
100
AcDbBlockReference
2
UNIT_DISC
10
-104.3666
20
-10.5252
41
0.5
42
0.5
50
0
0
INSERT
5
223
100
AcDbEntity
8
F_Cu_____________
62
256
100
AcDbBlockReference
2
UNIT_DISC
10
-104.3666
20
-10.5252
41
0.5
42
0.5
50
0
0
INSERT
5
224
100
AcDbEntity
8
F_Cu_____________
62
256
100
AcDbBlockReference
2
UNIT_DISC
10
-104.3838
20
-10.4979
41
0.5
42
0.5
50
0
0
LWPOLYLINE
5
225
100
AcDbEntity
8
F_Cu_____________
62
256
100
AcDbPolyline
90
2
70
0
43
0.5
10
-104.3666
20
-10.5252
42
0.014656
10
-104.3838
20
-10.4979
0
INSERT
5
226
100
AcDbEntity
8
F_Cu_____________
62
256
100
AcDbBlockReference
2
UNIT_DISC
10
-104.3838
20
-10.4979
41
0.5
42
0.5
50
0
0
LWPOLYLINE
5
227
100
AcDbEntity
8
F_Cu_____________
62
256
100
AcDbPolyline
90
2
70
0
43
0.5
10
-104.3838
20
-10.4979
10
-104.4534
20
-10.3941
0
INSERT
5
228
100
AcDbEntity
8
F_Cu_____________
62
256
100
AcDbBlockReference
2
UNIT_DISC
10
-104.4534
20
-10.3941
41
0.5
42
0.5
50
0
0
INSERT
5
229
100
AcDbEntity
8
F_Cu_____________
62
256
100
AcDbBlockReference
2
UNIT_DISC
10
-104.4534
20
-10.3941
41
0.5
42
0.5
50
0
0
LWPOLYLINE
5
230
100
AcDbEntity
8
F_Cu_____________
62
256
100
AcDbPolyline
90
2
70
0
43
0.5
10
-104.4534
20
-10.3941
10
-104.4539
20
-10.3934
0
INSERT
5
231
100
AcDbEntity
8
F_Cu_____________
62
256
100
AcDbBlockReference
2
UNIT_DISC
10
-104.4539
20
-10.3934
41
0.5
42
0.5
50
0
0
INSERT
5
232
100
AcDbEntity
8
F_Cu_____________
62
256
100
AcDbBlockReference
2
UNIT_DISC
10
-104.4539
20
-10.3934
41
0.5
42
0.5
50
0
0
LWPOLYLINE
5
233
100
AcDbEntity
8
F_Cu_____________
62
256
100
AcDbPolyline
90
2
70
0
43
0.5
10
-104.4539
20
-10.3934
10
-104.4683
20
-10.372
0
INSERT
5
234
100
AcDbEntity
8
F_Cu_____________
62
256
100
AcDbBlockReference
2
UNIT_DISC
10
-104.4683
20
-10.372
41
0.5
42
0.5
50
0
0
INSERT
5
235
100
AcDbEntity
8
F_Cu_____________
62
256
100
AcDbBlockReference
2
UNIT_DISC
10
-104.4683
20
-10.372
41
0.5
42
0.5
50
0
0
INSERT
5
236
100
AcDbEntity
8
F_Cu_____________
62
256
100
AcDbBlockReference
2
UNIT_DISC
10
-104.497
20
-10.3331
41
0.5
42
0.5
50
0
0
LWPOLYLINE
5
237
100
AcDbEntity
8
F_Cu_____________
62
256
100
AcDbPolyline
90
2
70
0
43
0.5
10
-104.4683
20
-10.372
42
0.021965
10
-104.497
20
-10.3331
0
INSERT
5
238
100
AcDbEntity
8
F_Cu_____________
62
256
100
AcDbBlockReference
2
UNIT_DISC
10
-104.497
20
-10.3331
41
0.5
42
0.5
50
0
0
LWPOLYLINE
5
239
100
AcDbEntity
8
F_Cu_____________
62
256
100
AcDbPolyline
90
2
70
0
43
0.5
10
-104.497
20
-10.3331
10
-104.5758
20
-10.2357
0
INSERT
5
240
100
AcDbEntity
8
F_Cu_____________
62
256
100
AcDbBlockReference
2
UNIT_DISC
10
-104.5758
20
-10.2357
41
0.5
42
0.5
50
0
0
INSERT
5
241
100
AcDbEntity
8
F_Cu_____________
62
256
100
AcDbBlockReference
2
UNIT_DISC
10
-104.5758
20
-10.2357
41
0.5
42
0.5
50
0
0
LWPOLYLINE
5
242
100
AcDbEntity
8
F_Cu_____________
62
256
100
AcDbPolyline
90
2
70
0
43
0.5
10
-104.5758
20
-10.2357
10
-104.576
20
-10.2354
0
INSERT
5
243
100
AcDbEntity
8
F_Cu_____________
62
256
100
AcDbBlockReference
2
UNIT_DISC
10
-104.576
20
-10.2354
41
0.5
42
0.5
50
0
0
INSERT
5
244
100
AcDbEntity
8
F_Cu_____________
62
256
100
AcDbBlockReference
2
UNIT_DISC
10
-104.576
20
-10.2354
41
0.5
42
0.5
50
0
0
LWPOLYLINE
5
245
100
AcDbEntity
8
F_Cu_____________
62
256
100
AcDbPolyline
90
2
70
0
43
0.5
10
-104.576
20
-10.2354
10
-104.5922
20
-10.2154
0
INSERT
5
246
100
AcDbEntity
8
F_Cu_____________
62
256
100
AcDbBlockReference
2
UNIT_DISC
10
-104.5922
20
-10.2154
41
0.5
42
0.5
50
0
0
INSERT
5
247
100
AcDbEntity
8
F_Cu_____________
62
256
100
AcDbBlockReference
2
UNIT_DISC
10
-104.5922
20
-10.2154
41
0.5
42
0.5
50
0
0
INSERT
5
248
100
AcDbEntity
8
F_Cu_____________
62
256
100
AcDbBlockReference
2
UNIT_DISC
10
-104.6106
20
-10.1938
41
0.5
42
0.5
50
0
0
LWPOLYLINE
5
249
100
AcDbEntity
8
F_Cu_____________
62
256
100
AcDbPolyline
90
2
70
0
43
0.5
10
-104.5922
20
-10.2154
42
0.012887
10
-104.6106
20
-10.1938
0
INSERT
5
250
100
AcDbEntity
8
F_Cu_____________
62
256
100
AcDbBlockReference
2
UNIT_DISC
10
-104.6106
20
-10.1938
41
0.5
42
0.5
50
0
0
LWPOLYLINE
5
251
100
AcDbEntity
8
F_Cu_____________
62
256
100
AcDbPolyline
90
2
70
0
43
0.5
10
-104.6106
20
-10.1938
10
-104.6944
20
-10.1006
0
INSERT
5
252
100
AcDbEntity
8
F_Cu_____________
62
256
100
AcDbBlockReference
2
UNIT_DISC
10
-104.6944
20
-10.1006
41
0.5
42
0.5
50
0
0
INSERT
5
253
100
AcDbEntity
8
F_Cu_____________
62
256
100
AcDbBlockReference
2
UNIT_DISC
10
-104.6944
20
-10.1006
41
0.5
42
0.5
50
0
0
LWPOLYLINE
5
254
100
AcDbEntity
8
F_Cu_____________
62
256
100
AcDbPolyline
90
2
70
0
43
0.5
10
-104.6944
20
-10.1006
10
-104.6957
20
-10.0992
0
INSERT
5
255
100
AcDbEntity
8
F_Cu_____________
62
256
100
AcDbBlockReference
2
UNIT_DISC
10
-104.6957
20
-10.0992
41
0.5
42
0.5
50
0
0
INSERT
5
256
100
AcDbEntity
8
F_Cu_____________
62
256
100
AcDbBlockReference
2
UNIT_DISC
10
-104.6957
20
-10.0992
41
0.5
42
0.5
50
0
0
LWPOLYLINE
5
257
100
AcDbEntity
8
F_Cu_____________
62
256
100
AcDbPolyline
90
2
70
0
43
0.5
10
-104.6957
20
-10.0992
10
-104.7129
20
-10.0802
0
INSERT
5
258
100
AcDbEntity
8
F_Cu_____________
62
256
100
AcDbBlockReference
2
UNIT_DISC
10
-104.7129
20
-10.0802
41
0.5
42
0.5
50
0
0
INSERT
5
259
100
AcDbEntity
8
F_Cu_____________
62
256
100
AcDbBlockReference
2
UNIT_DISC
10
-104.7129
20
-10.0802
41
0.5
42
0.5
50
0
0
INSERT
5
260
100
AcDbEntity
8
F_Cu_____________
62
256
100
AcDbBlockReference
2
UNIT_DISC
10
-104.7471
20
-10.0457
41
0.5
42
0.5
50
0
0
LWPOLYLINE
5
261
100
AcDbEntity
8
F_Cu_____________
62
256
100
AcDbPolyline
90
2
70
0
43
0.5
10
-104.7129
20
-10.0802
42
0.022072
10
-104.7471
20
-10.0457
0
INSERT
5
262
100
AcDbEntity
8
F_Cu_____________
62
256
100
AcDbBlockReference
2
UNIT_DISC
10
-104.7471
20
-10.0457
41
0.5
42
0.5
50
0
0
LWPOLYLINE
5
263
100
AcDbEntity
8
F_Cu_____________
62
256
100
AcDbPolyline
90
2
70
0
43
0.5
10
-104.7471
20
-10.0457
10
-104.8571
20
-9.9439
0
INSERT
5
264
100
AcDbEntity
8
F_Cu_____________
62
256
100
AcDbBlockReference
2
UNIT_DISC
10
-104.8571
20
-9.9439
41
0.5
42
0.5
50
0
0
INSERT
5
265
100
AcDbEntity
8
F_Cu_____________
62
256
100
AcDbBlockReference
2
UNIT_DISC
10
-104.8571
20
-9.9439
41
0.5
42
0.5
50
0
0
INSERT
5
266
100
AcDbEntity
8
F_Cu_____________
62
256
100
AcDbBlockReference
2
UNIT_DISC
10
-104.8801
20
-9.9238
41
0.5
42
0.5
50
0
0
LWPOLYLINE
5
267
100
AcDbEntity
8
F_Cu_____________
62
256
100
AcDbPolyline
90
2
70
0
43
0.5
10
-104.8571
20
-9.9439
42
0.013875
10
-104.8801
20
-9.9238
0
INSERT
5
268
100
AcDbEntity
8
F_Cu_____________
62
256
100
AcDbBlockReference
2
UNIT_DISC
10
-104.8801
20
-9.9238
41
0.5
42
0.5
50
0
0
LWPOLYLINE
5
269
100
AcDbEntity
8
F_Cu_____________
62
256
100
AcDbPolyline
90
2
70
0
43
0.5
10
-104.8801
20
-9.9238
10
-104.9763
20
-9.8442
0
INSERT
5
270
100
AcDbEntity
8
F_Cu_____________
62
256
100
AcDbBlockReference
2
UNIT_DISC
10
-104.9763
20
-9.8442
41
0.5
42
0.5
50
0
0
INSERT
5
271
100
AcDbEntity
8
F_Cu_____________
62
256
100
AcDbBlockReference
2
UNIT_DISC
10
-104.9763
20
-9.8442
41
0.5
42
0.5
50
0
0
LWPOLYLINE
5
272
100
AcDbEntity
8
F_Cu_____________
62
256
100
AcDbPolyline
90
2
70
0
43
0.5
10
-104.9763
20
-9.8442
10
-104.9773
20
-9.8433
0
INSERT
5
273
100
AcDbEntity
8
F_Cu_____________
62
256
100
AcDbBlockReference
2
UNIT_DISC
10
-104.9773
20
-9.8433
41
0.5
42
0.5
50
0
0
INSERT
5
274
100
AcDbEntity
8
F_Cu_____________
62
256
100
AcDbBlockReference
2
UNIT_DISC
10
-104.9773
20
-9.8433
41
0.5
42
0.5
50
0
0
LWPOLYLINE
5
275
100
AcDbEntity
8
F_Cu_____________
62
256
100
AcDbPolyline
90
2
70
0
43
0.5
10
-104.9773
20
-9.8433
10
-104.9971
20
-9.827
0
INSERT
5
276
100
AcDbEntity
8
F_Cu_____________
62
256
100
AcDbBlockReference
2
UNIT_DISC
10
-104.9971
20
-9.827
41
0.5
42
0.5
50
0
0
INSERT
5
277
100
AcDbEntity
8
F_Cu_____________
62
256
100
AcDbBlockReference
2
UNIT_DISC
10
-104.9971
20
-9.827
41
0.5
42
0.5
50
0
0
INSERT
5
278
100
AcDbEntity
8
F_Cu_____________
62
256
100
AcDbBlockReference
2
UNIT_DISC
10
-105.0323
20
-9.8003
41
0.5
42
0.5
50
0
0
LWPOLYLINE
5
279
100
AcDbEntity
8
F_Cu_____________
62
256
100
AcDbPolyline
90
2
70
0
43
0.5
10
-104.9971
20
-9.827
42
0.020072
10
-105.0323
20
-9.8003
0
INSERT
5
280
100
AcDbEntity
8
F_Cu_____________
62
256
100
AcDbBlockReference
2
UNIT_DISC
10
-105.0323
20
-9.8003
41
0.5
42
0.5
50
0
0
LWPOLYLINE
5
281
100
AcDbEntity
8
F_Cu_____________
62
256
100
AcDbPolyline
90
2
70
0
43
0.5
10
-105.0323
20
-9.8003
10
-105.1553
20
-9.7146
0
INSERT
5
282
100
AcDbEntity
8
F_Cu_____________
62
256
100
AcDbBlockReference
2
UNIT_DISC
10
-105.1553
20
-9.7146
41
0.5
42
0.5
50
0
0
INSERT
5
283
100
AcDbEntity
8
F_Cu_____________
62
256
100
AcDbBlockReference
2
UNIT_DISC
10
-105.1553
20
-9.7146
41
0.5
42
0.5
50
0
0
INSERT
5
284
100
AcDbEntity
8
F_Cu_____________
62
256
100
AcDbBlockReference
2
UNIT_DISC
10
-105.1807
20
-9.6979
41
0.5
42
0.5
50
0
0
LWPOLYLINE
5
285
100
AcDbEntity
8
F_Cu_____________
62
256
100
AcDbPolyline
90
2
70
0
43
0.5
10
-105.1553
20
-9.7146
42
0.013807
10
-105.1807
20
-9.6979
0
INSERT
5
286
100
AcDbEntity
8
F_Cu_____________
62
256
100
AcDbBlockReference
2
UNIT_DISC
10
-105.1807
20
-9.6979
41
0.5
42
0.5
50
0
0
LWPOLYLINE
5
287
100
AcDbEntity
8
F_Cu_____________
62
256
100
AcDbPolyline
90
2
70
0
43
0.5
10
-105.1807
20
-9.6979
10
-105.3057
20
-9.6207
0
INSERT
5
288
100
AcDbEntity
8
F_Cu_____________
62
256
100
AcDbBlockReference
2
UNIT_DISC
10
-105.3057
20
-9.6207
41
0.5
42
0.5
50
0
0
INSERT
5
289
100
AcDbEntity
8
F_Cu_____________
62
256
100
AcDbBlockReference
2
UNIT_DISC
10
-105.3057
20
-9.6207
41
0.5
42
0.5
50
0
0
INSERT
5
290
100
AcDbEntity
8
F_Cu_____________
62
256
100
AcDbBlockReference
2
UNIT_DISC
10
-105.3431
20
-9.5996
41
0.5
42
0.5
50
0
0
LWPOLYLINE
5
291
100
AcDbEntity
8
F_Cu_____________
62
256
100
AcDbPolyline
90
2
70
0
43
0.5
10
-105.3057
20
-9.6207
42
0.019508
10
-105.3431
20
-9.5996
0
INSERT
5
292
100
AcDbEntity
8
F_Cu_____________
62
256
100
AcDbBlockReference
2
UNIT_DISC
10
-105.3431
20
-9.5996
41
0.5
42
0.5
50
0
0
LWPOLYLINE
5
293
100
AcDbEntity
8
F_Cu_____________
62
256
100
AcDbPolyline
90
2
70
0
43
0.5
10
-105.3431
20
-9.5996
10
-105.4791
20
-9.5296
0
INSERT
5
294
100
AcDbEntity
8
F_Cu_____________
62
256
100
AcDbBlockReference
2
UNIT_DISC
10
-105.4791
20
-9.5296
41
0.5
42
0.5
50
0
0
INSERT
5
295
100
AcDbEntity
8
F_Cu_____________
62
256
100
AcDbBlockReference
2
UNIT_DISC
10
-105.4791
20
-9.5296
41
0.5
42
0.5
50
0
0
INSERT
5
296
100
AcDbEntity
8
F_Cu_____________
62
256
100
AcDbBlockReference
2
UNIT_DISC
10
-105.5169
20
-9.5119
41
0.5
42
0.5
50
0
0
LWPOLYLINE
5
297
100
AcDbEntity
8
F_Cu_____________
62
256
100
AcDbPolyline
90
2
70
0
43
0.5
10
-105.4791
20
-9.5296
42
0.018961
10
-105.5169
20
-9.5119
0
INSERT
5
298
100
AcDbEntity
8
F_Cu_____________
62
256
100
AcDbBlockReference
2
UNIT_DISC
10
-105.5169
20
-9.5119
41
0.5
42
0.5
50
0
0
LWPOLYLINE
5
299
100
AcDbEntity
8
F_Cu_____________
62
256
100
AcDbPolyline
90
2
70
0
43
0.5
10
-105.5169
20
-9.5119
10
-105.6569
20
-9.4528
0
INSERT
5
300
100
AcDbEntity
8
F_Cu_____________
62
256
100
AcDbBlockReference
2
UNIT_DISC
10
-105.6569
20
-9.4528
41
0.5
42
0.5
50
0
0
INSERT
5
301
100
AcDbEntity
8
F_Cu_____________
62
256
100
AcDbBlockReference
2
UNIT_DISC
10
-105.6569
20
-9.4528
41
0.5
42
0.5
50
0
0
INSERT
5
302
100
AcDbEntity
8
F_Cu_____________
62
256
100
AcDbBlockReference
2
UNIT_DISC
10
-105.6908
20
-9.4398
41
0.5
42
0.5
50
0
0
LWPOLYLINE
5
303
100
AcDbEntity
8
F_Cu_____________
62
256
100
AcDbPolyline
90
2
70
0
43
0.5
10
-105.6569
20
-9.4528
42
0.016492
10
-105.6908
20
-9.4398
0
INSERT
5
304
100
AcDbEntity
8
F_Cu_____________
62
256
100
AcDbBlockReference
2
UNIT_DISC
10
-105.6908
20
-9.4398
41
0.5
42
0.5
50
0
0
LWPOLYLINE
5
305
100
AcDbEntity
8
F_Cu_____________
62
256
100
AcDbPolyline
90
2
70
0
43
0.5
10
-105.6908
20
-9.4398
10
-128.4153
20
-1.5664
0
INSERT
5
306
100
AcDbEntity
8
F_Cu_____________
62
256
100
AcDbBlockReference
2
UNIT_DISC
10
-128.4153
20
-1.5664
41
0.5
42
0.5
50
0
0
INSERT
5
307
100
AcDbEntity
8
F_Cu_____________
62
256
100
AcDbBlockReference
2
UNIT_DISC
10
-128.6495
20
-1.4509
41
0.5
42
0.5
50
0
0
INSERT
5
308
100
AcDbEntity
8
F_Cu_____________
62
256
100
AcDbBlockReference
2
UNIT_DISC
10
-128.4153
20
-1.5664
41
0.5
42
0.5
50
0
0
LWPOLYLINE
5
309
100
AcDbEntity
8
F_Cu_____________
62
256
100
AcDbPolyline
90
2
70
0
43
0.5
10
-128.6495
20
-1.4509
42
0.062388
10
-128.4153
20
-1.5664
0
INSERT
5
310
100
AcDbEntity
8
F_Cu_____________
62
256
100
AcDbBlockReference
2
UNIT_DISC
10
-128.6495
20
-1.4509
41
0.5
42
0.5
50
0
0
LWPOLYLINE
5
311
100
AcDbEntity
8
F_Cu_____________
62
256
100
AcDbPolyline
90
2
70
0
43
0.5
10
-128.6495
20
-1.4509
10
-129.6651
20
-0.7816
0
INSERT
5
312
100
AcDbEntity
8
F_Cu_____________
62
256
100
AcDbBlockReference
2
UNIT_DISC
10
-129.6651
20
-0.7816
41
0.5
42
0.5
50
0
0
INSERT
5
313
100
AcDbEntity
8
F_Cu_____________
62
256
100
AcDbBlockReference
2
UNIT_DISC
10
-129.6651
20
-0.7816
41
0.5
42
0.5
50
0
0
INSERT
5
314
100
AcDbEntity
8
F_Cu_____________
62
256
100
AcDbBlockReference
2
UNIT_DISC
10
-130.434
20
-0.6257
41
0.5
42
0.5
50
0
0
LWPOLYLINE
5
315
100
AcDbEntity
8
F_Cu_____________
62
256
100
AcDbPolyline
90
2
70
0
43
0.5
10
-129.6651
20
-0.7816
42
0.193719
10
-130.434
20
-0.6257
0
INSERT
5
316
100
AcDbEntity
8
F_Cu_____________
62
256
100
AcDbBlockReference
2
UNIT_DISC
10
-130.434
20
-0.6257
41
0.5
42
0.5
50
0
0
LWPOLYLINE
5
317
100
AcDbEntity
8
F_Cu_____________
62
256
100
AcDbPolyline
90
2
70
0
43
0.5
10
-130.434
20
-0.6257
10
-131.2811
20
-0.7821
0
INSERT
5
318
100
AcDbEntity
8
F_Cu_____________
62
256
100
AcDbBlockReference
2
UNIT_DISC
10
-131.2811
20
-0.7821
41
0.5
42
0.5
50
0
0
INSERT
5
319
100
AcDbEntity
8
F_Cu_____________
62
256
100
AcDbBlockReference
2
UNIT_DISC
10
-104.7529
20
-15.6584
41
0.5
42
0.5
50
0
0
LWPOLYLINE
5
320
100
AcDbEntity
8
F_Cu_____________
62
256
100
AcDbPolyline
90
2
70
0
43
0.5
10
-104.7529
20
-15.6584
10
-103.7442
20
-15.0824
0
INSERT
5
321
100
AcDbEntity
8
F_Cu_____________
62
256
100
AcDbBlockReference
2
UNIT_DISC
10
-103.7442
20
-15.0824
41
0.5
42
0.5
50
0
0
INSERT
5
322
100
AcDbEntity
8
F_Cu_____________
62
256
100
AcDbBlockReference
2
UNIT_DISC
10
-103.7442
20
-15.0824
41
0.5
42
0.5
50
0
0
LWPOLYLINE
5
323
100
AcDbEntity
8
F_Cu_____________
62
256
100
AcDbPolyline
90
2
70
0
43
0.5
10
-103.7442
20
-15.0824
10
-103.7421
20
-15.0811
0
INSERT
5
324
100
AcDbEntity
8
F_Cu_____________
62
256
100
AcDbBlockReference
2
UNIT_DISC
10
-103.7421
20
-15.0811
41
0.5
42
0.5
50
0
0
INSERT
5
325
100
AcDbEntity
8
F_Cu_____________
62
256
100
AcDbBlockReference
2
UNIT_DISC
10
-103.7421
20
-15.0811
41
0.5
42
0.5
50
0
0
INSERT
5
326
100
AcDbEntity
8
F_Cu_____________
62
256
100
AcDbBlockReference
2
UNIT_DISC
10
-103.7321
20
-15.073
41
0.5
42
0.5
50
0
0
LWPOLYLINE
5
327
100
AcDbEntity
8
F_Cu_____________
62
256
100
AcDbPolyline
90
2
70
0
43
0.5
10
-103.7421
20
-15.0811
42
0.066041
10
-103.7321
20
-15.073
0
INSERT
5
328
100
AcDbEntity
8
F_Cu_____________
62
256
100
AcDbBlockReference
2
UNIT_DISC
10
-103.7321
20
-15.073
41
0.5
42
0.5
50
0
0
LWPOLYLINE
5
329
100
AcDbEntity
8
F_Cu_____________
62
256
100
AcDbPolyline
90
2
70
0
43
0.5
10
-103.7321
20
-15.073
10
-103.1215
20
-14.4221
0
INSERT
5
330
100
AcDbEntity
8
F_Cu_____________
62
256
100
AcDbBlockReference
2
UNIT_DISC
10
-103.1215
20
-14.4221
41
0.5
42
0.5
50
0
0
INSERT
5
331
100
AcDbEntity
8
F_Cu_____________
62
256
100
AcDbBlockReference
2
UNIT_DISC
10
-103.1215
20
-14.4221
41
0.5
42
0.5
50
0
0
INSERT
5
332
100
AcDbEntity
8
F_Cu_____________
62
256
100
AcDbBlockReference
2
UNIT_DISC
10
-103.0832
20
-14.3778
41
0.5
42
0.5
50
0
0
LWPOLYLINE
5
333
100
AcDbEntity
8
F_Cu_____________
62
256
100
AcDbPolyline
90
2
70
0
43
0.5
10
-103.1215
20
-14.4221
42
0.019515
10
-103.0832
20
-14.3778
0
INSERT
5
334
100
AcDbEntity
8
F_Cu_____________
62
256
100
AcDbBlockReference
2
UNIT_DISC
10
-103.0832
20
-14.3778
41
0.5
42
0.5
50
0
0
LWPOLYLINE
5
335
100
AcDbEntity
8
F_Cu_____________
62
256
100
AcDbPolyline
90
2
70
0
43
0.5
10
-103.0832
20
-14.3778
10
-103.022
20
-14.3014
0
INSERT
5
336
100
AcDbEntity
8
F_Cu_____________
62
256
100
AcDbBlockReference
2
UNIT_DISC
10
-103.022
20
-14.3014
41
0.5
42
0.5
50
0
0
INSERT
5
337
100
AcDbEntity
8
F_Cu_____________
62
256
100
AcDbBlockReference
2
UNIT_DISC
10
-103.022
20
-14.3014
41
0.5
42
0.5
50
0
0
INSERT
5
338
100
AcDbEntity
8
F_Cu_____________
62
256
100
AcDbBlockReference
2
UNIT_DISC
10
-102.8876
20
-14.0436
41
0.5
42
0.5
50
0
0
LWPOLYLINE
5
339
100
AcDbEntity
8
F_Cu_____________
62
256
100
AcDbPolyline
90
2
70
0
43
0.5
10
-103.022
20
-14.3014
42
0.097775
10
-102.8876
20
-14.0436
0
INSERT
5
340
100
AcDbEntity
8
F_Cu_____________
62
256
100
AcDbBlockReference
2
UNIT_DISC
10
-102.8876
20
-14.0436
41
0.5
42
0.5
50
0
0
LWPOLYLINE
5
341
100
AcDbEntity
8
F_Cu_____________
62
256
100
AcDbPolyline
90
2
70
0
43
0.5
10
-102.8876
20
-14.0436
10
-102.8738
20
-13.9966
0
INSERT
5
342
100
AcDbEntity
8
F_Cu_____________
62
256
100
AcDbBlockReference
2
UNIT_DISC
10
-102.8738
20
-13.9966
41
0.5
42
0.5
50
0
0
INSERT
5
343
100
AcDbEntity
8
F_Cu_____________
62
256
100
AcDbBlockReference
2
UNIT_DISC
10
-102.8738
20
-13.9966
41
0.5
42
0.5
50
0
0
LWPOLYLINE
5
344
100
AcDbEntity
8
F_Cu_____________
62
256
100
AcDbPolyline
90
2
70
0
43
0.5
10
-102.8738
20
-13.9966
10
-102.8734
20
-13.9952
0
INSERT
5
345
100
AcDbEntity
8
F_Cu_____________
62
256
100
AcDbBlockReference
2
UNIT_DISC
10
-102.8734
20
-13.9952
41
0.5
42
0.5
50
0
0
INSERT
5
346
100
AcDbEntity
8
F_Cu_____________
62
256
100
AcDbBlockReference
2
UNIT_DISC
10
-102.8734
20
-13.9952
41
0.5
42
0.5
50
0
0
LWPOLYLINE
5
347
100
AcDbEntity
8
F_Cu_____________
62
256
100
AcDbPolyline
90
2
70
0
43
0.5
10
-102.8734
20
-13.9952
10
-102.8597
20
-13.9482
0
INSERT
5
348
100
AcDbEntity
8
F_Cu_____________
62
256
100
AcDbBlockReference
2
UNIT_DISC
10
-102.8597
20
-13.9482
41
0.5
42
0.5
50
0
0
INSERT
5
349
100
AcDbEntity
8
F_Cu_____________
62
256
100
AcDbBlockReference
2
UNIT_DISC
10
-102.8597
20
-13.9482
41
0.5
42
0.5
50
0
0
INSERT
5
350
100
AcDbEntity
8
F_Cu_____________
62
256
100
AcDbBlockReference
2
UNIT_DISC
10
-102.8326
20
-13.8037
41
0.5
42
0.5
50
0
0
LWPOLYLINE
5
351
100
AcDbEntity
8
F_Cu_____________
62
256
100
AcDbPolyline
90
2
70
0
43
0.5
10
-102.8597
20
-13.9482
42
0.049094
10
-102.8326
20
-13.8037
0
INSERT
5
352
100
AcDbEntity
8
F_Cu_____________
62
256
100
AcDbBlockReference
2
UNIT_DISC
10
-102.8326
20
-13.8037
41
0.5
42
0.5
50
0
0
LWPOLYLINE
5
353
100
AcDbEntity
8
F_Cu_____________
62
256
100
AcDbPolyline
90
2
70
0
43
0.5
10
-102.8326
20
-13.8037
10
-102.7628
20
-13.0068
0
INSERT
5
354
100
AcDbEntity
8
F_Cu_____________
62
256
100
AcDbBlockReference
2
UNIT_DISC
10
-102.7628
20
-13.0068
41
0.5
42
0.5
50
0
0
INSERT
5
355
100
AcDbEntity
8
F_Cu_____________
62
256
100
AcDbBlockReference
2
UNIT_DISC
10
-102.7628
20
-13.0068
41
0.5
42
0.5
50
0
0
LWPOLYLINE
5
356
100
AcDbEntity
8
F_Cu_____________
62
256
100
AcDbPolyline
90
2
70
0
43
0.5
10
-102.7628
20
-13.0068
10
-102.7627
20
-13.0064
0
INSERT
5
357
100
AcDbEntity
8
F_Cu_____________
62
256
100
AcDbBlockReference
2
UNIT_DISC
10
-102.7627
20
-13.0064
41
0.5
42
0.5
50
0
0
INSERT
5
358
100
AcDbEntity
8
F_Cu_____________
62
256
100
AcDbBlockReference
2
UNIT_DISC
10
-102.7627
20
-13.0064
41
0.5
42
0.5
50
0
0
LWPOLYLINE
5
359
100
AcDbEntity
8
F_Cu_____________
62
256
100
AcDbPolyline
90
2
70
0
43
0.5
10
-102.7627
20
-13.0064
10
-102.741
20
-12.7573
0
INSERT
5
360
100
AcDbEntity
8
F_Cu_____________
62
256
100
AcDbBlockReference
2
UNIT_DISC
10
-102.741
20
-12.7573
41
0.5
42
0.5
50
0
0
INSERT
5
361
100
AcDbEntity
8
F_Cu_____________
62
256
100
AcDbBlockReference
2
UNIT_DISC
10
-102.741
20
-12.7573
41
0.5
42
0.5
50
0
0
INSERT
5
362
100
AcDbEntity
8
F_Cu_____________
62
256
100
AcDbBlockReference
2
UNIT_DISC
10
-102.7426
20
-12.611
41
0.5
42
0.5
50
0
0
LWPOLYLINE
5
363
100
AcDbEntity
8
F_Cu_____________
62
256
100
AcDbPolyline
90
2
70
0
43
0.5
10
-102.741
20
-12.7573
42
0.048852
10
-102.7426
20
-12.611
0
INSERT
5
364
100
AcDbEntity
8
F_Cu_____________
62
256
100
AcDbBlockReference
2
UNIT_DISC
10
-102.7426
20
-12.611
41
0.5
42
0.5
50
0
0
LWPOLYLINE
5
365
100
AcDbEntity
8
F_Cu_____________
62
256
100
AcDbPolyline
90
2
70
0
43
0.5
10
-102.7426
20
-12.611
10
-102.7479
20
-12.5623
0
INSERT
5
366
100
AcDbEntity
8
F_Cu_____________
62
256
100
AcDbBlockReference
2
UNIT_DISC
10
-102.7479
20
-12.5623
41
0.5
42
0.5
50
0
0
INSERT
5
367
100
AcDbEntity
8
F_Cu_____________
62
256
100
AcDbBlockReference
2
UNIT_DISC
10
-102.7479
20
-12.5623
41
0.5
42
0.5
50
0
0
LWPOLYLINE
5
368
100
AcDbEntity
8
F_Cu_____________
62
256
100
AcDbPolyline
90
2
70
0
43
0.5
10
-102.7479
20
-12.5623
10
-102.7481
20
-12.5606
0
INSERT
5
369
100
AcDbEntity
8
F_Cu_____________
62
256
100
AcDbBlockReference
2
UNIT_DISC
10
-102.7481
20
-12.5606
41
0.5
42
0.5
50
0
0
INSERT
5
370
100
AcDbEntity
8
F_Cu_____________
62
256
100
AcDbBlockReference
2
UNIT_DISC
10
-102.7481
20
-12.5606
41
0.5
42
0.5
50
0
0
LWPOLYLINE
5
371
100
AcDbEntity
8
F_Cu_____________
62
256
100
AcDbPolyline
90
2
70
0
43
0.5
10
-102.7481
20
-12.5606
10
-102.7535
20
-12.512
0
INSERT
5
372
100
AcDbEntity
8
F_Cu_____________
62
256
100
AcDbBlockReference
2
UNIT_DISC
10
-102.7535
20
-12.512
41
0.5
42
0.5
50
0
0
INSERT
5
373
100
AcDbEntity
8
F_Cu_____________
62
256
100
AcDbBlockReference
2
UNIT_DISC
10
-102.7535
20
-12.512
41
0.5
42
0.5
50
0
0
INSERT
5
374
100
AcDbEntity
8
F_Cu_____________
62
256
100
AcDbBlockReference
2
UNIT_DISC
10
-102.7732
20
-12.4056
41
0.5
42
0.5
50
0
0
LWPOLYLINE
5
375
100
AcDbEntity
8
F_Cu_____________
62
256
100
AcDbPolyline
90
2
70
0
43
0.5
10
-102.7535
20
-12.512
42
0.036093
10
-102.7732
20
-12.4056
0
INSERT
5
376
100
AcDbEntity
8
F_Cu_____________
62
256
100
AcDbBlockReference
2
UNIT_DISC
10
-102.7732
20
-12.4056
41
0.5
42
0.5
50
0
0
LWPOLYLINE
5
377
100
AcDbEntity
8
F_Cu_____________
62
256
100
AcDbPolyline
90
2
70
0
43
0.5
10
-102.7732
20
-12.4056
10
-103.2527
20
-10.5655
0
INSERT
5
378
100
AcDbEntity
8
F_Cu_____________
62
256
100
AcDbBlockReference
2
UNIT_DISC
10
-103.2527
20
-10.5655
41
0.5
42
0.5
50
0
0
INSERT
5
379
100
AcDbEntity
8
F_Cu_____________
62
256
100
AcDbBlockReference
2
UNIT_DISC
10
-103.2527
20
-10.5655
41
0.5
42
0.5
50
0
0
INSERT
5
380
100
AcDbEntity
8
F_Cu_____________
62
256
100
AcDbBlockReference
2
UNIT_DISC
10
-103.4058
20
-10.1893
41
0.5
42
0.5
50
0
0
LWPOLYLINE
5
381
100
AcDbEntity
8
F_Cu_____________
62
256
100
AcDbPolyline
90
2
70
0
43
0.5
10
-103.2527
20
-10.5655
42
0.06575
10
-103.4058
20
-10.1893
0
INSERT
5
382
100
AcDbEntity
8
F_Cu_____________
62
256
100
AcDbBlockReference
2
UNIT_DISC
10
-103.4058
20
-10.1893
41
0.5
42
0.5
50
0
0
LWPOLYLINE
5
383
100
AcDbEntity
8
F_Cu_____________
62
256
100
AcDbPolyline
90
2
70
0
43
0.5
10
-103.4058
20
-10.1893
10
-103.4698
20
-10.0769
0
INSERT
5
384
100
AcDbEntity
8
F_Cu_____________
62
256
100
AcDbBlockReference
2
UNIT_DISC
10
-103.4698
20
-10.0769
41
0.5
42
0.5
50
0
0
INSERT
5
385
100
AcDbEntity
8
F_Cu_____________
62
256
100
AcDbBlockReference
2
UNIT_DISC
10
-103.4698
20
-10.0769
41
0.5
42
0.5
50
0
0
INSERT
5
386
100
AcDbEntity
8
F_Cu_____________
62
256
100
AcDbBlockReference
2
UNIT_DISC
10
-103.4804
20
-10.0586
41
0.5
42
0.5
50
0
0
LWPOLYLINE
5
387
100
AcDbEntity
8
F_Cu_____________
62
256
100
AcDbPolyline
90
2
70
0
43
0.5
10
-103.4698
20
-10.0769
42
0.003409
10
-103.4804
20
-10.0586
0
INSERT
5
388
100
AcDbEntity
8
F_Cu_____________
62
256
100
AcDbBlockReference
2
UNIT_DISC
10
-103.4804
20
-10.0586
41
0.5
42
0.5
50
0
0
LWPOLYLINE
5
389
100
AcDbEntity
8
F_Cu_____________
62
256
100
AcDbPolyline
90
2
70
0
43
0.5
10
-103.4804
20
-10.0586
10
-103.4908
20
-10.0409
0
INSERT
5
390
100
AcDbEntity
8
F_Cu_____________
62
256
100
AcDbBlockReference
2
UNIT_DISC
10
-103.4908
20
-10.0409
41
0.5
42
0.5
50
0
0
INSERT
5
391
100
AcDbEntity
8
F_Cu_____________
62
256
100
AcDbBlockReference
2
UNIT_DISC
10
-103.4908
20
-10.0409
41
0.5
42
0.5
50
0
0
LWPOLYLINE
5
392
100
AcDbEntity
8
F_Cu_____________
62
256
100
AcDbPolyline
90
2
70
0
43
0.5
10
-103.4908
20
-10.0409
10
-103.4911
20
-10.0402
0
INSERT
5
393
100
AcDbEntity
8
F_Cu_____________
62
256
100
AcDbBlockReference
2
UNIT_DISC
10
-103.4911
20
-10.0402
41
0.5
42
0.5
50
0
0
INSERT
5
394
100
AcDbEntity
8
F_Cu_____________
62
256
100
AcDbBlockReference
2
UNIT_DISC
10
-103.4911
20
-10.0402
41
0.5
42
0.5
50
0
0
LWPOLYLINE
5
395
100
AcDbEntity
8
F_Cu_____________
62
256
100
AcDbPolyline
90
2
70
0
43
0.5
10
-103.4911
20
-10.0402
10
-103.5041
20
-10.0181
0
INSERT
5
396
100
AcDbEntity
8
F_Cu_____________
62
256
100
AcDbBlockReference
2
UNIT_DISC
10
-103.5041
20
-10.0181
41
0.5
42
0.5
50
0
0
INSERT
5
397
100
AcDbEntity
8
F_Cu_____________
62
256
100
AcDbBlockReference
2
UNIT_DISC
10
-103.5041
20
-10.0181
41
0.5
42
0.5
50
0
0
INSERT
5
398
100
AcDbEntity
8
F_Cu_____________
62
256
100
AcDbBlockReference
2
UNIT_DISC
10
-103.5528
20
-9.9407
41
0.5
42
0.5
50
0
0
LWPOLYLINE
5
399
100
AcDbEntity
8
F_Cu_____________
62
256
100
AcDbPolyline
90
2
70
0
43
0.5
10
-103.5041
20
-10.0181
42
0.014743
10
-103.5528
20
-9.9407
0
INSERT
5
400
100
AcDbEntity
8
F_Cu_____________
62
256
100
AcDbBlockReference
2
UNIT_DISC
10
-103.5528
20
-9.9407
41
0.5
42
0.5
50
0
0
LWPOLYLINE
5
401
100
AcDbEntity
8
F_Cu_____________
62
256
100
AcDbPolyline
90
2
70
0
43
0.5
10
-103.5528
20
-9.9407
10
-103.6224
20
-9.8369
0
INSERT
5
402
100
AcDbEntity
8
F_Cu_____________
62
256
100
AcDbBlockReference
2
UNIT_DISC
10
-103.6224
20
-9.8369
41
0.5
42
0.5
50
0
0
INSERT
5
403
100
AcDbEntity
8
F_Cu_____________
62
256
100
AcDbBlockReference
2
UNIT_DISC
10
-103.6224
20
-9.8369
41
0.5
42
0.5
50
0
0
LWPOLYLINE
5
404
100
AcDbEntity
8
F_Cu_____________
62
256
100
AcDbPolyline
90
2
70
0
43
0.5
10
-103.6224
20
-9.8369
10
-103.6238
20
-9.8348
0
INSERT
5
405
100
AcDbEntity
8
F_Cu_____________
62
256
100
AcDbBlockReference
2
UNIT_DISC
10
-103.6238
20
-9.8348
41
0.5
42
0.5
50
0
0
INSERT
5
406
100
AcDbEntity
8
F_Cu_____________
62
256
100
AcDbBlockReference
2
UNIT_DISC
10
-103.6238
20
-9.8348
41
0.5
42
0.5
50
0
0
LWPOLYLINE
5
407
100
AcDbEntity
8
F_Cu_____________
62
256
100
AcDbPolyline
90
2
70
0
43
0.5
10
-103.6238
20
-9.8348
10
-103.6382
20
-9.8134
0
INSERT
5
408
100
AcDbEntity
8
F_Cu_____________
62
256
100
AcDbBlockReference
2
UNIT_DISC
10
-103.6382
20
-9.8134
41
0.5
42
0.5
50
0
0
INSERT
5
409
100
AcDbEntity
8
F_Cu_____________
62
256
100
AcDbBlockReference
2
UNIT_DISC
10
-103.6382
20
-9.8134
41
0.5
42
0.5
50
0
0
INSERT
5
410
100
AcDbEntity
8
F_Cu_____________
62
256
100
AcDbBlockReference
2
UNIT_DISC
10
-103.7192
20
-9.7038
41
0.5
42
0.5
50
0
0
LWPOLYLINE
5
411
100
AcDbEntity
8
F_Cu_____________
62
256
100
AcDbPolyline
90
2
70
0
43
0.5
10
-103.6382
20
-9.8134
42
0.021978
10
-103.7192
20
-9.7038
0
INSERT
5
412
100
AcDbEntity
8
F_Cu_____________
62
256
100
AcDbBlockReference
2
UNIT_DISC
10
-103.7192
20
-9.7038
41
0.5
42
0.5
50
0
0
LWPOLYLINE
5
413
100
AcDbEntity
8
F_Cu_____________
62
256
100
AcDbPolyline
90
2
70
0
43
0.5
10
-103.7192
20
-9.7038
10
-103.798
20
-9.6064
0
INSERT
5
414
100
AcDbEntity
8
F_Cu_____________
62
256
100
AcDbBlockReference
2
UNIT_DISC
10
-103.798
20
-9.6064
41
0.5
42
0.5
50
0
0
INSERT
5
415
100
AcDbEntity
8
F_Cu_____________
62
256
100
AcDbBlockReference
2
UNIT_DISC
10
-103.798
20
-9.6064
41
0.5
42
0.5
50
0
0
LWPOLYLINE
5
416
100
AcDbEntity
8
F_Cu_____________
62
256
100
AcDbPolyline
90
2
70
0
43
0.5
10
-103.798
20
-9.6064
10
-103.7986
20
-9.6057
0
INSERT
5
417
100
AcDbEntity
8
F_Cu_____________
62
256
100
AcDbBlockReference
2
UNIT_DISC
10
-103.7986
20
-9.6057
41
0.5
42
0.5
50
0
0
INSERT
5
418
100
AcDbEntity
8
F_Cu_____________
62
256
100
AcDbBlockReference
2
UNIT_DISC
10
-103.7986
20
-9.6057
41
0.5
42
0.5
50
0
0
LWPOLYLINE
5
419
100
AcDbEntity
8
F_Cu_____________
62
256
100
AcDbPolyline
90
2
70
0
43
0.5
10
-103.7986
20
-9.6057
10
-103.8148
20
-9.5857
0
INSERT
5
420
100
AcDbEntity
8
F_Cu_____________
62
256
100
AcDbBlockReference
2
UNIT_DISC
10
-103.8148
20
-9.5857
41
0.5
42
0.5
50
0
0
INSERT
5
421
100
AcDbEntity
8
F_Cu_____________
62
256
100
AcDbBlockReference
2
UNIT_DISC
10
-103.8148
20
-9.5857
41
0.5
42
0.5
50
0
0
INSERT
5
422
100
AcDbEntity
8
F_Cu_____________
62
256
100
AcDbBlockReference
2
UNIT_DISC
10
-103.8667
20
-9.5249
41
0.5
42
0.5
50
0
0
LWPOLYLINE
5
423
100
AcDbEntity
8
F_Cu_____________
62
256
100
AcDbPolyline
90
2
70
0
43
0.5
10
-103.8148
20
-9.5857
42
0.012888
10
-103.8667
20
-9.5249
0
INSERT
5
424
100
AcDbEntity
8
F_Cu_____________
62
256
100
AcDbBlockReference
2
UNIT_DISC
10
-103.8667
20
-9.5249
41
0.5
42
0.5
50
0
0
LWPOLYLINE
5
425
100
AcDbEntity
8
F_Cu_____________
62
256
100
AcDbPolyline
90
2
70
0
43
0.5
10
-103.8667
20
-9.5249
10
-103.9505
20
-9.4317
0
INSERT
5
426
100
AcDbEntity
8
F_Cu_____________
62
256
100
AcDbBlockReference
2
UNIT_DISC
10
-103.9505
20
-9.4317
41
0.5
42
0.5
50
0
0
INSERT
5
427
100
AcDbEntity
8
F_Cu_____________
62
256
100
AcDbBlockReference
2
UNIT_DISC
10
-103.9505
20
-9.4317
41
0.5
42
0.5
50
0
0
LWPOLYLINE
5
428
100
AcDbEntity
8
F_Cu_____________
62
256
100
AcDbPolyline
90
2
70
0
43
0.5
10
-103.9505
20
-9.4317
10
-103.954
20
-9.4278
0
INSERT
5
429
100
AcDbEntity
8
F_Cu_____________
62
256
100
AcDbBlockReference
2
UNIT_DISC
10
-103.954
20
-9.4278
41
0.5
42
0.5
50
0
0
INSERT
5
430
100
AcDbEntity
8
F_Cu_____________
62
256
100
AcDbBlockReference
2
UNIT_DISC
10
-103.954
20
-9.4278
41
0.5
42
0.5
50
0
0
LWPOLYLINE
5
431
100
AcDbEntity
8
F_Cu_____________
62
256
100
AcDbPolyline
90
2
70
0
43
0.5
10
-103.954
20
-9.4278
10
-103.9712
20
-9.4088
0
INSERT
5
432
100
AcDbEntity
8
F_Cu_____________
62
256
100
AcDbBlockReference
2
UNIT_DISC
10
-103.9712
20
-9.4088
41
0.5
42
0.5
50
0
0
INSERT
5
433
100
AcDbEntity
8
F_Cu_____________
62
256
100
AcDbBlockReference
2
UNIT_DISC
10
-103.9712
20
-9.4088
41
0.5
42
0.5
50
0
0
INSERT
5
434
100
AcDbEntity
8
F_Cu_____________
62
256
100
AcDbBlockReference
2
UNIT_DISC
10
-104.0675
20
-9.3114
41
0.5
42
0.5
50
0
0
LWPOLYLINE
5
435
100
AcDbEntity
8
F_Cu_____________
62
256
100
AcDbPolyline
90
2
70
0
43
0.5
10
-103.9712
20
-9.4088
42
0.022088
10
-104.0675
20
-9.3114
0
INSERT
5
436
100
AcDbEntity
8
F_Cu_____________
62
256
100
AcDbBlockReference
2
UNIT_DISC
10
-104.0675
20
-9.3114
41
0.5
42
0.5
50
0
0
LWPOLYLINE
5
437
100
AcDbEntity
8
F_Cu_____________
62
256
100
AcDbPolyline
90
2
70
0
43
0.5
10
-104.0675
20
-9.3114
10
-104.1775
20
-9.2096
0
INSERT
5
438
100
AcDbEntity
8
F_Cu_____________
62
256
100
AcDbBlockReference
2
UNIT_DISC
10
-104.1775
20
-9.2096
41
0.5
42
0.5
50
0
0
INSERT
5
439
100
AcDbEntity
8
F_Cu_____________
62
256
100
AcDbBlockReference
2
UNIT_DISC
10
-104.1775
20
-9.2096
41
0.5
42
0.5
50
0
0
INSERT
5
440
100
AcDbEntity
8
F_Cu_____________
62
256
100
AcDbBlockReference
2
UNIT_DISC
10
-104.2422
20
-9.1529
41
0.5
42
0.5
50
0
0
LWPOLYLINE
5
441
100
AcDbEntity
8
F_Cu_____________
62
256
100
AcDbPolyline
90
2
70
0
43
0.5
10
-104.1775
20
-9.2096
42
0.013869
10
-104.2422
20
-9.1529
0
INSERT
5
442
100
AcDbEntity
8
F_Cu_____________
62
256
100
AcDbBlockReference
2
UNIT_DISC
10
-104.2422
20
-9.1529
41
0.5
42
0.5
50
0
0
LWPOLYLINE
5
443
100
AcDbEntity
8
F_Cu_____________
62
256
100
AcDbPolyline
90
2
70
0
43
0.5
10
-104.2422
20
-9.1529
10
-104.3384
20
-9.0733
0
INSERT
5
444
100
AcDbEntity
8
F_Cu_____________
62
256
100
AcDbBlockReference
2
UNIT_DISC
10
-104.3384
20
-9.0733
41
0.5
42
0.5
50
0
0
INSERT
5
445
100
AcDbEntity
8
F_Cu_____________
62
256
100
AcDbBlockReference
2
UNIT_DISC
10
-104.3384
20
-9.0733
41
0.5
42
0.5
50
0
0
LWPOLYLINE
5
446
100
AcDbEntity
8
F_Cu_____________
62
256
100
AcDbPolyline
90
2
70
0
43
0.5
10
-104.3384
20
-9.0733
10
-104.3414
20
-9.0709
0
INSERT
5
447
100
AcDbEntity
8
F_Cu_____________
62
256
100
AcDbBlockReference
2
UNIT_DISC
10
-104.3414
20
-9.0709
41
0.5
42
0.5
50
0
0
INSERT
5
448
100
AcDbEntity
8
F_Cu_____________
62
256
100
AcDbBlockReference
2
UNIT_DISC
10
-104.3414
20
-9.0709
41
0.5
42
0.5
50
0
0
LWPOLYLINE
5
449
100
AcDbEntity
8
F_Cu_____________
62
256
100
AcDbPolyline
90
2
70
0
43
0.5
10
-104.3414
20
-9.0709
10
-104.3612
20
-9.0546
0
INSERT
5
450
100
AcDbEntity
8
F_Cu_____________
62
256
100
AcDbBlockReference
2
UNIT_DISC
10
-104.3612
20
-9.0546
41
0.5
42
0.5
50
0
0
INSERT
5
451
100
AcDbEntity
8
F_Cu_____________
62
256
100
AcDbBlockReference
2
UNIT_DISC
10
-104.3612
20
-9.0546
41
0.5
42
0.5
50
0
0
INSERT
5
452
100
AcDbEntity
8
F_Cu_____________
62
256
100
AcDbBlockReference
2
UNIT_DISC
10
-104.4603
20
-8.9794
41
0.5
42
0.5
50
0
0
LWPOLYLINE
5
453
100
AcDbEntity
8
F_Cu_____________
62
256
100
AcDbPolyline
90
2
70
0
43
0.5
10
-104.3612
20
-9.0546
42
0.02006
10
-104.4603
20
-8.9794
0
INSERT
5
454
100
AcDbEntity
8
F_Cu_____________
62
256
100
AcDbBlockReference
2
UNIT_DISC
10
-104.4603
20
-8.9794
41
0.5
42
0.5
50
0
0
LWPOLYLINE
5
455
100
AcDbEntity
8
F_Cu_____________
62
256
100
AcDbPolyline
90
2
70
0
43
0.5
10
-104.4603
20
-8.9794
10
-104.5833
20
-8.8937
0
INSERT
5
456
100
AcDbEntity
8
F_Cu_____________
62
256
100
AcDbBlockReference
2
UNIT_DISC
10
-104.5833
20
-8.8937
41
0.5
42
0.5
50
0
0
INSERT
5
457
100
AcDbEntity
8
F_Cu_____________
62
256
100
AcDbBlockReference
2
UNIT_DISC
10
-104.5833
20
-8.8937
41
0.5
42
0.5
50
0
0
INSERT
5
458
100
AcDbEntity
8
F_Cu_____________
62
256
100
AcDbBlockReference
2
UNIT_DISC
10
-104.655
20
-8.8467
41
0.5
42
0.5
50
0
0
LWPOLYLINE
5
459
100
AcDbEntity
8
F_Cu_____________
62
256
100
AcDbPolyline
90
2
70
0
43
0.5
10
-104.5833
20
-8.8937
42
0.013821
10
-104.655
20
-8.8467
0
INSERT
5
460
100
AcDbEntity
8
F_Cu_____________
62
256
100
AcDbBlockReference
2
UNIT_DISC
10
-104.655
20
-8.8467
41
0.5
42
0.5
50
0
0
LWPOLYLINE
5
461
100
AcDbEntity
8
F_Cu_____________
62
256
100
AcDbPolyline
90
2
70
0
43
0.5
10
-104.655
20
-8.8467
10
-104.78
20
-8.7695
0
INSERT
5
462
100
AcDbEntity
8
F_Cu_____________
62
256
100
AcDbBlockReference
2
UNIT_DISC
10
-104.78
20
-8.7695
41
0.5
42
0.5
50
0
0
INSERT
5
463
100
AcDbEntity
8
F_Cu_____________
62
256
100
AcDbBlockReference
2
UNIT_DISC
10
-104.78
20
-8.7695
41
0.5
42
0.5
50
0
0
INSERT
5
464
100
AcDbEntity
8
F_Cu_____________
62
256
100
AcDbBlockReference
2
UNIT_DISC
10
-104.8852
20
-8.7101
41
0.5
42
0.5
50
0
0
LWPOLYLINE
5
465
100
AcDbEntity
8
F_Cu_____________
62
256
100
AcDbPolyline
90
2
70
0
43
0.5
10
-104.78
20
-8.7695
42
0.019481
10
-104.8852
20
-8.7101
0
INSERT
5
466
100
AcDbEntity
8
F_Cu_____________
62
256
100
AcDbBlockReference
2
UNIT_DISC
10
-104.8852
20
-8.7101
41
0.5
42
0.5
50
0
0
LWPOLYLINE
5
467
100
AcDbEntity
8
F_Cu_____________
62
256
100
AcDbPolyline
90
2
70
0
43
0.5
10
-104.8852
20
-8.7101
10
-105.0212
20
-8.6401
0
INSERT
5
468
100
AcDbEntity
8
F_Cu_____________
62
256
100
AcDbBlockReference
2
UNIT_DISC
10
-105.0212
20
-8.6401
41
0.5
42
0.5
50
0
0
INSERT
5
469
100
AcDbEntity
8
F_Cu_____________
62
256
100
AcDbBlockReference
2
UNIT_DISC
10
-105.0212
20
-8.6401
41
0.5
42
0.5
50
0
0
INSERT
5
470
100
AcDbEntity
8
F_Cu_____________
62
256
100
AcDbBlockReference
2
UNIT_DISC
10
-105.1278
20
-8.5902
41
0.5
42
0.5
50
0
0
LWPOLYLINE
5
471
100
AcDbEntity
8
F_Cu_____________
62
256
100
AcDbPolyline
90
2
70
0
43
0.5
10
-105.0212
20
-8.6401
42
0.018979
10
-105.1278
20
-8.5902
0
INSERT
5
472
100
AcDbEntity
8
F_Cu_____________
62
256
100
AcDbBlockReference
2
UNIT_DISC
10
-105.1278
20
-8.5902
41
0.5
42
0.5
50
0
0
LWPOLYLINE
5
473
100
AcDbEntity
8
F_Cu_____________
62
256
100
AcDbPolyline
90
2
70
0
43
0.5
10
-105.1278
20
-8.5902
10
-105.2678
20
-8.5311
0
INSERT
5
474
100
AcDbEntity
8
F_Cu_____________
62
256
100
AcDbBlockReference
2
UNIT_DISC
10
-105.2678
20
-8.5311
41
0.5
42
0.5
50
0
0
INSERT
5
475
100
AcDbEntity
8
F_Cu_____________
62
256
100
AcDbBlockReference
2
UNIT_DISC
10
-105.2678
20
-8.5311
41
0.5
42
0.5
50
0
0
INSERT
5
476
100
AcDbEntity
8
F_Cu_____________
62
256
100
AcDbBlockReference
2
UNIT_DISC
10
-105.3602
20
-8.4955
41
0.5
42
0.5
50
0
0
LWPOLYLINE
5
477
100
AcDbEntity
8
F_Cu_____________
62
256
100
AcDbPolyline
90
2
70
0
43
0.5
10
-105.2678
20
-8.5311
42
0.015965
10
-105.3602
20
-8.4955
0
INSERT
5
478
100
AcDbEntity
8
F_Cu_____________
62
256
100
AcDbBlockReference
2
UNIT_DISC
10
-105.3602
20
-8.4955
41
0.5
42
0.5
50
0
0
LWPOLYLINE
5
479
100
AcDbEntity
8
F_Cu_____________
62
256
100
AcDbPolyline
90
2
70
0
43
0.5
10
-105.3602
20
-8.4955
10
-128.0714
20
-0.5738
0
INSERT
5
480
100
AcDbEntity
8
F_Cu_____________
62
256
100
AcDbBlockReference
2
UNIT_DISC
10
-128.0714
20
-0.5738
41
0.5
42
0.5
50
0
0
INSERT
5
481
100
AcDbEntity
8
F_Cu_____________
62
256
100
AcDbBlockReference
2
UNIT_DISC
10
-170.7088
20
-22.7535
41
0.5
42
0.5
50
0
0
LWPOLYLINE
5
482
100
AcDbEntity
8
F_Cu_____________
62
256
100
AcDbPolyline
90
2
70
0
43
0.5
10
-170.7088
20
-22.7535
10
-170.2081
20
-22.7535
0
INSERT
5
483
100
AcDbEntity
8
F_Cu_____________
62
256
100
AcDbBlockReference
2
UNIT_DISC
10
-170.2081
20
-22.7535
41
0.5
42
0.5
50
0
0
INSERT
5
484
100
AcDbEntity
8
F_Cu_____________
62
256
100
AcDbBlockReference
2
UNIT_DISC
10
-170.2081
20
-22.7535
41
0.5
42
0.5
50
0
0
INSERT
5
485
100
AcDbEntity
8
F_Cu_____________
62
256
100
AcDbBlockReference
2
UNIT_DISC
10
-170.1634
20
-22.7477
41
0.5
42
0.5
50
0
0
LWPOLYLINE
5
486
100
AcDbEntity
8
F_Cu_____________
62
256
100
AcDbPolyline
90
2
70
0
43
0.5
10
-170.2081
20
-22.7535
42
0.064661
10
-170.1634
20
-22.7477
0
INSERT
5
487
100
AcDbEntity
8
F_Cu_____________
62
256
100
AcDbBlockReference
2
UNIT_DISC
10
-170.1634
20
-22.7477
41
0.5
42
0.5
50
0
0
LWPOLYLINE
5
488
100
AcDbEntity
8
F_Cu_____________
62
256
100
AcDbPolyline
90
2
70
0
43
0.5
10
-170.1634
20
-22.7477
10
-126.7369
20
-11.2813
0
INSERT
5
489
100
AcDbEntity
8
F_Cu_____________
62
256
100
AcDbBlockReference
2
UNIT_DISC
10
-126.7369
20
-11.2813
41
0.5
42
0.5
50
0
0
INSERT
5
490
100
AcDbEntity
8
F_Cu_____________
62
256
100
AcDbBlockReference
2
UNIT_DISC
10
-125.4307
20
-12.4588
41
0.5
42
0.5
50
0
0
INSERT
5
491
100
AcDbEntity
8
F_Cu_____________
62
256
100
AcDbBlockReference
2
UNIT_DISC
10
-126.7369
20
-11.2813
41
0.5
42
0.5
50
0
0
LWPOLYLINE
5
492
100
AcDbEntity
8
F_Cu_____________
62
256
100
AcDbPolyline
90
2
70
0
43
0.5
10
-125.4307
20
-12.4588
42
0.540988
10
-126.7369
20
-11.2813
0
INSERT
5
493
100
AcDbEntity
8
F_Cu_____________
62
256
100
AcDbBlockReference
2
UNIT_DISC
10
-125.4307
20
-12.4588
41
0.5
42
0.5
50
0
0
LWPOLYLINE
5
494
100
AcDbEntity
8
F_Cu_____________
62
256
100
AcDbPolyline
90
2
70
0
43
0.5
10
-125.4307
20
-12.4588
10
-125.5453
20
-13.1941
0
INSERT
5
495
100
AcDbEntity
8
F_Cu_____________
62
256
100
AcDbBlockReference
2
UNIT_DISC
10
-125.5453
20
-13.1941
41
0.5
42
0.5
50
0
0
INSERT
5
496
100
AcDbEntity
8
F_Cu_____________
62
256
100
AcDbBlockReference
2
UNIT_DISC
10
-125.5453
20
-13.1941
41
0.5
42
0.5
50
0
0
INSERT
5
497
100
AcDbEntity
8
F_Cu_____________
62
256
100
AcDbBlockReference
2
UNIT_DISC
10
-125.5512
20
-13.2349
41
0.5
42
0.5
50
0
0
LWPOLYLINE
5
498
100
AcDbEntity
8
F_Cu_____________
62
256
100
AcDbPolyline
90
2
70
0
43
0.5
10
-125.5453
20
-13.1941
42
0.005886
10
-125.5512
20
-13.2349
0
INSERT
5
499
100
AcDbEntity
8
F_Cu_____________
62
256
100
AcDbBlockReference
2
UNIT_DISC
10
-125.5512
20
-13.2349
41
0.5
42
0.5
50
0
0
LWPOLYLINE
5
500
100
AcDbEntity
8
F_Cu_____________
62
256
100
AcDbPolyline
90
2
70
0
43
0.5
10
-125.5512
20
-13.2349
10
-126.308
20
-18.9778
0
INSERT
5
501
100
AcDbEntity
8
F_Cu_____________
62
256
100
AcDbBlockReference
2
UNIT_DISC
10
-126.308
20
-18.9778
41
0.5
42
0.5
50
0
0
INSERT
5
502
100
AcDbEntity
8
F_Cu_____________
62
256
100
AcDbBlockReference
2
UNIT_DISC
10
-80.9152
20
2.4634
41
0.5
42
0.5
50
0
0
LWPOLYLINE
5
503
100
AcDbEntity
8
F_Cu_____________
62
256
100
AcDbPolyline
90
2
70
0
43
0.5
10
-80.9152
20
2.4634
10
-82.6517
20
-8.0569
0
INSERT
5
504
100
AcDbEntity
8
F_Cu_____________
62
256
100
AcDbBlockReference
2
UNIT_DISC
10
-82.6517
20
-8.0569
41
0.5
42
0.5
50
0
0
INSERT
5
505
100
AcDbEntity
8
F_Cu_____________
62
256
100
AcDbBlockReference
2
UNIT_DISC
10
-104.9743
20
-18.1887
41
0.5
42
0.5
50
0
0
LWPOLYLINE
5
506
100
AcDbEntity
8
F_Cu_____________
62
256
100
AcDbPolyline
90
2
70
0
43
0.5
10
-104.9743
20
-18.1887
10
-103.9656
20
-17.6127
0
INSERT
5
507
100
AcDbEntity
8
F_Cu_____________
62
256
100
AcDbBlockReference
2
UNIT_DISC
10
-103.9656
20
-17.6127
41
0.5
42
0.5
50
0
0
INSERT
5
508
100
AcDbEntity
8
F_Cu_____________
62
256
100
AcDbBlockReference
2
UNIT_DISC
10
-103.9656
20
-17.6127
41
0.5
42
0.5
50
0
0
LWPOLYLINE
5
509
100
AcDbEntity
8
F_Cu_____________
62
256
100
AcDbPolyline
90
2
70
0
43
0.5
10
-103.9656
20
-17.6127
10
-103.9635
20
-17.6114
0
INSERT
5
510
100
AcDbEntity
8
F_Cu_____________
62
256
100
AcDbBlockReference
2
UNIT_DISC
10
-103.9635
20
-17.6114
41
0.5
42
0.5
50
0
0
INSERT
5
511
100
AcDbEntity
8
F_Cu_____________
62
256
100
AcDbBlockReference
2
UNIT_DISC
10
-103.9635
20
-17.6114
41
0.5
42
0.5
50
0
0
INSERT
5
512
100
AcDbEntity
8
F_Cu_____________
62
256
100
AcDbBlockReference
2
UNIT_DISC
10
-103.9535
20
-17.6033
41
0.5
42
0.5
50
0
0
LWPOLYLINE
5
513
100
AcDbEntity
8
F_Cu_____________
62
256
100
AcDbPolyline
90
2
70
0
43
0.5
10
-103.9635
20
-17.6114
42
0.066041
10
-103.9535
20
-17.6033
0
INSERT
5
514
100
AcDbEntity
8
F_Cu_____________
62
256
100
AcDbBlockReference
2
UNIT_DISC
10
-103.9535
20
-17.6033
41
0.5
42
0.5
50
0
0
LWPOLYLINE
5
515
100
AcDbEntity
8
F_Cu_____________
62
256
100
AcDbPolyline
90
2
70
0
43
0.5
10
-103.9535
20
-17.6033
10
-103.3429
20
-16.9526
0
INSERT
5
516
100
AcDbEntity
8
F_Cu_____________
62
256
100
AcDbBlockReference
2
UNIT_DISC
10
-103.3429
20
-16.9526
41
0.5
42
0.5
50
0
0
INSERT
5
517
100
AcDbEntity
8
F_Cu_____________
62
256
100
AcDbBlockReference
2
UNIT_DISC
10
-103.3429
20
-16.9526
41
0.5
42
0.5
50
0
0
INSERT
5
518
100
AcDbEntity
8
F_Cu_____________
62
256
100
AcDbBlockReference
2
UNIT_DISC
10
-103.3045
20
-16.9082
41
0.5
42
0.5
50
0
0
LWPOLYLINE
5
519
100
AcDbEntity
8
F_Cu_____________
62
256
100
AcDbPolyline
90
2
70
0
43
0.5
10
-103.3429
20
-16.9526
42
0.019562
10
-103.3045
20
-16.9082
0
INSERT
5
520
100
AcDbEntity
8
F_Cu_____________
62
256
100
AcDbBlockReference
2
UNIT_DISC
10
-103.3045
20
-16.9082
41
0.5
42
0.5
50
0
0
LWPOLYLINE
5
521
100
AcDbEntity
8
F_Cu_____________
62
256
100
AcDbPolyline
90
2
70
0
43
0.5
10
-103.3045
20
-16.9082
10
-103.2433
20
-16.8318
0
INSERT
5
522
100
AcDbEntity
8
F_Cu_____________
62
256
100
AcDbBlockReference
2
UNIT_DISC
10
-103.2433
20
-16.8318
41
0.5
42
0.5
50
0
0
INSERT
5
523
100
AcDbEntity
8
F_Cu_____________
62
256
100
AcDbBlockReference
2
UNIT_DISC
10
-103.2433
20
-16.8318
41
0.5
42
0.5
50
0
0
INSERT
5
524
100
AcDbEntity
8
F_Cu_____________
62
256
100
AcDbBlockReference
2
UNIT_DISC
10
-103.1661
20
-16.7144
41
0.5
42
0.5
50
0
0
LWPOLYLINE
5
525
100
AcDbEntity
8
F_Cu_____________
62
256
100
AcDbPolyline
90
2
70
0
43
0.5
10
-103.2433
20
-16.8318
42
0.04691
10
-103.1661
20
-16.7144
0
INSERT
5
526
100
AcDbEntity
8
F_Cu_____________
62
256
100
AcDbBlockReference
2
UNIT_DISC
10
-103.1661
20
-16.7144
41
0.5
42
0.5
50
0
0
LWPOLYLINE
5
527
100
AcDbEntity
8
F_Cu_____________
62
256
100
AcDbPolyline
90
2
70
0
43
0.5
10
-103.1661
20
-16.7144
10
-102.0472
20
-14.606
0
INSERT
5
528
100
AcDbEntity
8
F_Cu_____________
62
256
100
AcDbBlockReference
2
UNIT_DISC
10
-102.0472
20
-14.606
41
0.5
42
0.5
50
0
0
INSERT
5
529
100
AcDbEntity
8
F_Cu_____________
62
256
100
AcDbBlockReference
2
UNIT_DISC
10
-102.0472
20
-14.606
41
0.5
42
0.5
50
0
0
INSERT
5
530
100
AcDbEntity
8
F_Cu_____________
62
256
100
AcDbBlockReference
2
UNIT_DISC
10
-101.9129
20
-14.2752
41
0.5
42
0.5
50
0
0
LWPOLYLINE
5
531
100
AcDbEntity
8
F_Cu_____________
62
256
100
AcDbPolyline
90
2
70
0
43
0.5
10
-102.0472
20
-14.606
42
0.051108
10
-101.9129
20
-14.2752
0
INSERT
5
532
100
AcDbEntity
8
F_Cu_____________
62
256
100
AcDbBlockReference
2
UNIT_DISC
10
-101.9129
20
-14.2752
41
0.5
42
0.5
50
0
0
LWPOLYLINE
5
533
100
AcDbEntity
8
F_Cu_____________
62
256
100
AcDbPolyline
90
2
70
0
43
0.5
10
-101.9129
20
-14.2752
10
-101.8992
20
-14.2282
0
INSERT
5
534
100
AcDbEntity
8
F_Cu_____________
62
256
100
AcDbBlockReference
2
UNIT_DISC
10
-101.8992
20
-14.2282
41
0.5
42
0.5
50
0
0
INSERT
5
535
100
AcDbEntity
8
F_Cu_____________
62
256
100
AcDbBlockReference
2
UNIT_DISC
10
-101.8992
20
-14.2282
41
0.5
42
0.5
50
0
0
INSERT
5
536
100
AcDbEntity
8
F_Cu_____________
62
256
100
AcDbBlockReference
2
UNIT_DISC
10
-101.8359
20
-13.891
41
0.5
42
0.5
50
0
0
LWPOLYLINE
5
537
100
AcDbEntity
8
F_Cu_____________
62
256
100
AcDbPolyline
90
2
70
0
43
0.5
10
-101.8992
20
-14.2282
42
0.049104
10
-101.8359
20
-13.891
0
INSERT
5
538
100
AcDbEntity
8
F_Cu_____________
62
256
100
AcDbBlockReference
2
UNIT_DISC
10
-101.8359
20
-13.891
41
0.5
42
0.5
50
0
0
LWPOLYLINE
5
539
100
AcDbEntity
8
F_Cu_____________
62
256
100
AcDbPolyline
90
2
70
0
43
0.5
10
-101.8359
20
-13.891
10
-101.7661
20
-13.0941
0
INSERT
5
540
100
AcDbEntity
8
F_Cu_____________
62
256
100
AcDbBlockReference
2
UNIT_DISC
10
-101.7661
20
-13.0941
41
0.5
42
0.5
50
0
0
INSERT
5
541
100
AcDbEntity
8
F_Cu_____________
62
256
100
AcDbBlockReference
2
UNIT_DISC
10
-101.7661
20
-13.0941
41
0.5
42
0.5
50
0
0
LWPOLYLINE
5
542
100
AcDbEntity
8
F_Cu_____________
62
256
100
AcDbPolyline
90
2
70
0
43
0.5
10
-101.7661
20
-13.0941
10
-101.766
20
-13.0933
0
INSERT
5
543
100
AcDbEntity
8
F_Cu_____________
62
256
100
AcDbBlockReference
2
UNIT_DISC
10
-101.766
20
-13.0933
41
0.5
42
0.5
50
0
0
INSERT
5
544
100
AcDbEntity
8
F_Cu_____________
62
256
100
AcDbBlockReference
2
UNIT_DISC
10
-101.766
20
-13.0933
41
0.5
42
0.5
50
0
0
LWPOLYLINE
5
545
100
AcDbEntity
8
F_Cu_____________
62
256
100
AcDbPolyline
90
2
70
0
43
0.5
10
-101.766
20
-13.0933
10
-101.7443
20
-12.8442
0
INSERT
5
546
100
AcDbEntity
8
F_Cu_____________
62
256
100
AcDbBlockReference
2
UNIT_DISC
10
-101.7443
20
-12.8442
41
0.5
42
0.5
50
0
0
INSERT
5
547
100
AcDbEntity
8
F_Cu_____________
62
256
100
AcDbBlockReference
2
UNIT_DISC
10
-101.7443
20
-12.8442
41
0.5
42
0.5
50
0
0
INSERT
5
548
100
AcDbEntity
8
F_Cu_____________
62
256
100
AcDbBlockReference
2
UNIT_DISC
10
-101.748
20
-12.5028
41
0.5
42
0.5
50
0
0
LWPOLYLINE
5
549
100
AcDbEntity
8
F_Cu_____________
62
256
100
AcDbPolyline
90
2
70
0
43
0.5
10
-101.7443
20
-12.8442
42
0.048863
10
-101.748
20
-12.5028
0
INSERT
5
550
100
AcDbEntity
8
F_Cu_____________
62
256
100
AcDbBlockReference
2
UNIT_DISC
10
-101.748
20
-12.5028
41
0.5
42
0.5
50
0
0
LWPOLYLINE
5
551
100
AcDbEntity
8
F_Cu_____________
62
256
100
AcDbPolyline
90
2
70
0
43
0.5
10
-101.748
20
-12.5028
10
-101.7533
20
-12.4541
0
INSERT
5
552
100
AcDbEntity
8
F_Cu_____________
62
256
100
AcDbBlockReference
2
UNIT_DISC
10
-101.7533
20
-12.4541
41
0.5
42
0.5
50
0
0
INSERT
5
553
100
AcDbEntity
8
F_Cu_____________
62
256
100
AcDbBlockReference
2
UNIT_DISC
10
-101.7533
20
-12.4541
41
0.5
42
0.5
50
0
0
LWPOLYLINE
5
554
100
AcDbEntity
8
F_Cu_____________
62
256
100
AcDbPolyline
90
2
70
0
43
0.5
10
-101.7533
20
-12.4541
10
-101.7537
20
-12.4501
0
INSERT
5
555
100
AcDbEntity
8
F_Cu_____________
62
256
100
AcDbBlockReference
2
UNIT_DISC
10
-101.7537
20
-12.4501
41
0.5
42
0.5
50
0
0
INSERT
5
556
100
AcDbEntity
8
F_Cu_____________
62
256
100
AcDbBlockReference
2
UNIT_DISC
10
-101.7537
20
-12.4501
41
0.5
42
0.5
50
0
0
LWPOLYLINE
5
557
100
AcDbEntity
8
F_Cu_____________
62
256
100
AcDbPolyline
90
2
70
0
43
0.5
10
-101.7537
20
-12.4501
10
-101.7591
20
-12.4015
0
INSERT
5
558
100
AcDbEntity
8
F_Cu_____________
62
256
100
AcDbBlockReference
2
UNIT_DISC
10
-101.7591
20
-12.4015
41
0.5
42
0.5
50
0
0
INSERT
5
559
100
AcDbEntity
8
F_Cu_____________
62
256
100
AcDbBlockReference
2
UNIT_DISC
10
-101.7591
20
-12.4015
41
0.5
42
0.5
50
0
0
INSERT
5
560
100
AcDbEntity
8
F_Cu_____________
62
256
100
AcDbBlockReference
2
UNIT_DISC
10
-101.805
20
-12.1533
41
0.5
42
0.5
50
0
0
LWPOLYLINE
5
561
100
AcDbEntity
8
F_Cu_____________
62
256
100
AcDbPolyline
90
2
70
0
43
0.5
10
-101.7591
20
-12.4015
42
0.036085
10
-101.805
20
-12.1533
0
INSERT
5
562
100
AcDbEntity
8
F_Cu_____________
62
256
100
AcDbBlockReference
2
UNIT_DISC
10
-101.805
20
-12.1533
41
0.5
42
0.5
50
0
0
LWPOLYLINE
5
563
100
AcDbEntity
8
F_Cu_____________
62
256
100
AcDbPolyline
90
2
70
0
43
0.5
10
-101.805
20
-12.1533
10
-102.2846
20
-10.3132
0
INSERT
5
564
100
AcDbEntity
8
F_Cu_____________
62
256
100
AcDbBlockReference
2
UNIT_DISC
10
-102.2846
20
-10.3132
41
0.5
42
0.5
50
0
0
INSERT
5
565
100
AcDbEntity
8
F_Cu_____________
62
256
100
AcDbBlockReference
2
UNIT_DISC
10
-102.2846
20
-10.3132
41
0.5
42
0.5
50
0
0
INSERT
5
566
100
AcDbEntity
8
F_Cu_____________
62
256
100
AcDbBlockReference
2
UNIT_DISC
10
-102.4274
20
-9.9084
41
0.5
42
0.5
50
0
0
LWPOLYLINE
5
567
100
AcDbEntity
8
F_Cu_____________
62
256
100
AcDbPolyline
90
2
70
0
43
0.5
10
-102.2846
20
-10.3132
42
0.042133
10
-102.4274
20
-9.9084
0
INSERT
5
568
100
AcDbEntity
8
F_Cu_____________
62
256
100
AcDbBlockReference
2
UNIT_DISC
10
-102.4274
20
-9.9084
41
0.5
42
0.5
50
0
0
LWPOLYLINE
5
569
100
AcDbEntity
8
F_Cu_____________
62
256
100
AcDbPolyline
90
2
70
0
43
0.5
10
-102.4274
20
-9.9084
10
-107.6069
20
1.585
0
INSERT
5
570
100
AcDbEntity
8
F_Cu_____________
62
256
100
AcDbBlockReference
2
UNIT_DISC
10
-107.6069
20
1.585
41
0.5
42
0.5
50
0
0
INSERT
5
571
100
AcDbEntity
8
F_Cu_____________
62
256
100
AcDbBlockReference
2
UNIT_DISC
10
-107.6069
20
1.585
41
0.5
42
0.5
50
0
0
INSERT
5
572
100
AcDbEntity
8
F_Cu_____________
62
256
100
AcDbBlockReference
2
UNIT_DISC
10
-107.7936
20
1.9133
41
0.5
42
0.5
50
0
0
LWPOLYLINE
5
573
100
AcDbEntity
8
F_Cu_____________
62
256
100
AcDbPolyline
90
2
70
0
43
0.5
10
-107.6069
20
1.585
42
0.046833
10
-107.7936
20
1.9133
0
INSERT
5
574
100
AcDbEntity
8
F_Cu_____________
62
256
100
AcDbBlockReference
2
UNIT_DISC
10
-107.7936
20
1.9133
41
0.5
42
0.5
50
0
0
LWPOLYLINE
5
575
100
AcDbEntity
8
F_Cu_____________
62
256
100
AcDbPolyline
90
2
70
0
43
0.5
10
-107.7936
20
1.9133
10
-113.563
20
10.1582
0
INSERT
5
576
100
AcDbEntity
8
F_Cu_____________
62
256
100
AcDbBlockReference
2
UNIT_DISC
10
-113.563
20
10.1582
41
0.5
42
0.5
50
0
0
INSERT
5
577
100
AcDbEntity
8
F_Cu_____________
62
256
100
AcDbBlockReference
2
UNIT_DISC
10
-170.7088
20
-24.2535
41
0.5
42
0.5
50
0
0
LWPOLYLINE
5
578
100
AcDbEntity
8
F_Cu_____________
62
256
100
AcDbPolyline
90
2
70
0
43
0.5
10
-170.7088
20
-24.2535
10
-171.2095
20
-24.2535
0
INSERT
5
579
100
AcDbEntity
8
F_Cu_____________
62
256
100
AcDbBlockReference
2
UNIT_DISC
10
-171.2095
20
-24.2535
41
0.5
42
0.5
50
0
0
INSERT
5
580
100
AcDbEntity
8
F_Cu_____________
62
256
100
AcDbBlockReference
2
UNIT_DISC
10
-171.2095
20
-24.2535
41
0.5
42
0.5
50
0
0
INSERT
5
581
100
AcDbEntity
8
F_Cu_____________
62
256
100
AcDbBlockReference
2
UNIT_DISC
10
-171.2773
20
-24.2672
41
0.5
42
0.5
50
0
0
LWPOLYLINE
5
582
100
AcDbEntity
8
F_Cu_____________
62
256
100
AcDbPolyline
90
2
70
0
43
0.5
10
-171.2095
20
-24.2535
42
0.099808
10
-171.2773
20
-24.2672
0
INSERT
5
583
100
AcDbEntity
8
F_Cu_____________
62
256
100
AcDbBlockReference
2
UNIT_DISC
10
-171.2773
20
-24.2672
41
0.5
42
0.5
50
0
0
LWPOLYLINE
5
584
100
AcDbEntity
8
F_Cu_____________
62
256
100
AcDbPolyline
90
2
70
0
43
0.5
10
-171.2773
20
-24.2672
10
-172.0937
20
-24.6102
0
INSERT
5
585
100
AcDbEntity
8
F_Cu_____________
62
256
100
AcDbBlockReference
2
UNIT_DISC
10
-172.0937
20
-24.6102
41
0.5
42
0.5
50
0
0
INSERT
5
586
100
AcDbEntity
8
F_Cu_____________
62
256
100
AcDbBlockReference
2
UNIT_DISC
10
-173.0298
20
-22.3992
41
0.5
42
0.5
50
0
0
INSERT
5
587
100
AcDbEntity
8
F_Cu_____________
62
256
100
AcDbBlockReference
2
UNIT_DISC
10
-172.0937
20
-24.6102
41
0.5
42
0.5
50
0
0
LWPOLYLINE
5
588
100
AcDbEntity
8
F_Cu_____________
62
256
100
AcDbPolyline
90
2
70
0
43
0.5
10
-173.0298
20
-22.3992
42
0.997351
10
-172.0937
20
-24.6102
0
INSERT
5
589
100
AcDbEntity
8
F_Cu_____________
62
256
100
AcDbBlockReference
2
UNIT_DISC
10
-173.0298
20
-22.3992
41
0.5
42
0.5
50
0
0
LWPOLYLINE
5
590
100
AcDbEntity
8
F_Cu_____________
62
256
100
AcDbPolyline
90
2
70
0
43
0.5
10
-173.0298
20
-22.3992
10
-140.4504
20
-8.5043
0
INSERT
5
591
100
AcDbEntity
8
F_Cu_____________
62
256
100
AcDbBlockReference
2
UNIT_DISC
10
-140.4504
20
-8.5043
41
0.5
42
0.5
50
0
0
INSERT
5
592
100
AcDbEntity
8
F_Cu_____________
62
256
100
AcDbBlockReference
2
UNIT_DISC
10
-140.4504
20
-8.5043
41
0.5
42
0.5
50
0
0
INSERT
5
593
100
AcDbEntity
8
F_Cu_____________
62
256
100
AcDbBlockReference
2
UNIT_DISC
10
-140.3716
20
-8.451
41
0.5
42
0.5
50
0
0
LWPOLYLINE
5
594
100
AcDbEntity
8
F_Cu_____________
62
256
100
AcDbPolyline
90
2
70
0
43
0.5
10
-140.4504
20
-8.5043
42
0.095825
10
-140.3716
20
-8.451
0
INSERT
5
595
100
AcDbEntity
8
F_Cu_____________
62
256
100
AcDbBlockReference
2
UNIT_DISC
10
-140.3716
20
-8.451
41
0.5
42
0.5
50
0
0
LWPOLYLINE
5
596
100
AcDbEntity
8
F_Cu_____________
62
256
100
AcDbPolyline
90
2
70
0
43
0.5
10
-140.3716
20
-8.451
10
-139.5136
20
-7.593
0
INSERT
5
597
100
AcDbEntity
8
F_Cu_____________
62
256
100
AcDbBlockReference
2
UNIT_DISC
10
-139.5136
20
-7.593
41
0.5
42
0.5
50
0
0
INSERT
5
598
100
AcDbEntity
8
F_Cu_____________
62
256
100
AcDbBlockReference
2
UNIT_DISC
10
-139.5136
20
-7.593
41
0.5
42
0.5
50
0
0
LWPOLYLINE
5
599
100
AcDbEntity
8
F_Cu_____________
62
256
100
AcDbPolyline
90
2
70
0
43
0.5
10
-139.5136
20
-7.593
10
-139.5128
20
-7.5923
0
INSERT
5
600
100
AcDbEntity
8
F_Cu_____________
62
256
100
AcDbBlockReference
2
UNIT_DISC
10
-139.5128
20
-7.5923
41
0.5
42
0.5
50
0
0
INSERT
5
601
100
AcDbEntity
8
F_Cu_____________
62
256
100
AcDbBlockReference
2
UNIT_DISC
10
-139.5128
20
-7.5923
41
0.5
42
0.5
50
0
0
LWPOLYLINE
5
602
100
AcDbEntity
8
F_Cu_____________
62
256
100
AcDbPolyline
90
2
70
0
43
0.5
10
-139.5128
20
-7.5923
10
-132.0271
20
-0.0425
0
INSERT
5
603
100
AcDbEntity
8
F_Cu_____________
62
256
100
AcDbBlockReference
2
UNIT_DISC
10
-132.0271
20
-0.0425
41
0.5
42
0.5
50
0
0
INSERT
5
604
100
AcDbEntity
8
F_Cu_____________
62
256
100
AcDbBlockReference
2
UNIT_DISC
10
-131.4136
20
0.26
41
0.5
42
0.5
50
0
0
INSERT
5
605
100
AcDbEntity
8
F_Cu_____________
62
256
100
AcDbBlockReference
2
UNIT_DISC
10
-132.0271
20
-0.0425
41
0.5
42
0.5
50
0
0
LWPOLYLINE
5
606
100
AcDbEntity
8
F_Cu_____________
62
256
100
AcDbPolyline
90
2
70
0
43
0.5
10
-131.4136
20
0.26
42
0.167346
10
-132.0271
20
-0.0425
0
INSERT
5
607
100
AcDbEntity
8
F_Cu_____________
62
256
100
AcDbBlockReference
2
UNIT_DISC
10
-131.4136
20
0.26
41
0.5
42
0.5
50
0
0
LWPOLYLINE
5
608
100
AcDbEntity
8
F_Cu_____________
62
256
100
AcDbPolyline
90
2
70
0
43
0.5
10
-131.4136
20
0.26
10
-130.5019
20
0.3759
0
INSERT
5
609
100
AcDbEntity
8
F_Cu_____________
62
256
100
AcDbBlockReference
2
UNIT_DISC
10
-130.5019
20
0.3759
41
0.5
42
0.5
50
0
0
INSERT
5
610
100
AcDbEntity
8
F_Cu_____________
62
256
100
AcDbBlockReference
2
UNIT_DISC
10
-130.3221
20
0.3908
41
0.5
42
0.5
50
0
0
INSERT
5
611
100
AcDbEntity
8
F_Cu_____________
62
256
100
AcDbBlockReference
2
UNIT_DISC
10
-130.5019
20
0.3759
41
0.5
42
0.5
50
0
0
LWPOLYLINE
5
612
100
AcDbEntity
8
F_Cu_____________
62
256
100
AcDbPolyline
90
2
70
0
43
0.5
10
-130.3221
20
0.3908
42
0.022002
10
-130.5019
20
0.3759
0
INSERT
5
613
100
AcDbEntity
8
F_Cu_____________
62
256
100
AcDbBlockReference
2
UNIT_DISC
10
-130.3221
20
0.3908
41
0.5
42
0.5
50
0
0
LWPOLYLINE
5
614
100
AcDbEntity
8
F_Cu_____________
62
256
100
AcDbPolyline
90
2
70
0
43
0.5
10
-130.3221
20
0.3908
10
-128.1118
20
0.4759
0
INSERT
5
615
100
AcDbEntity
8
F_Cu_____________
62
256
100
AcDbBlockReference
2
UNIT_DISC
10
-128.1118
20
0.4759
41
0.5
42
0.5
50
0
0
INSERT
5
616
100
AcDbEntity
8
F_Cu_____________
62
256
100
AcDbBlockReference
2
UNIT_DISC
10
-128.0871
20
0.4766
41
0.5
42
0.5
50
0
0
INSERT
5
617
100
AcDbEntity
8
F_Cu_____________
62
256
100
AcDbBlockReference
2
UNIT_DISC
10
-128.1118
20
0.4759
41
0.5
42
0.5
50
0
0
LWPOLYLINE
5
618
100
AcDbEntity
8
F_Cu_____________
62
256
100
AcDbPolyline
90
2
70
0
43
0.5
10
-128.0871
20
0.4766
42
0.005881
10
-128.1118
20
0.4759
0
INSERT
5
619
100
AcDbEntity
8
F_Cu_____________
62
256
100
AcDbBlockReference
2
UNIT_DISC
10
-128.0871
20
0.4766
41
0.5
42
0.5
50
0
0
LWPOLYLINE
5
620
100
AcDbEntity
8
F_Cu_____________
62
256
100
AcDbPolyline
90
2
70
0
43
0.5
10
-128.0871
20
0.4766
10
-109.449
20
0.7549
0
INSERT
5
621
100
AcDbEntity
8
F_Cu_____________
62
256
100
AcDbBlockReference
2
UNIT_DISC
10
-109.449
20
0.7549
41
0.5
42
0.5
50
0
0
INSERT
5
622
100
AcDbEntity
8
F_Cu_____________
62
256
100
AcDbBlockReference
2
UNIT_DISC
10
-99.846
20
15.679
41
0.5
42
0.5
50
0
0
LWPOLYLINE
5
623
100
AcDbEntity
8
F_Cu_____________
62
256
100
AcDbPolyline
90
2
70
0
43
0.5
10
-99.846
20
15.679
10
-105.3336
20
1.4834
0
INSERT
5
624
100
AcDbEntity
8
F_Cu_____________
62
256
100
AcDbBlockReference
2
UNIT_DISC
10
-105.3336
20
1.4834
41
0.5
42
0.5
50
0
0
INSERT
5
625
100
AcDbEntity
8
F_Cu_____________
62
256
100
AcDbBlockReference
2
UNIT_DISC
10
-105.3336
20
1.4834
41
0.5
42
0.5
50
0
0
INSERT
5
626
100
AcDbEntity
8
F_Cu_____________
62
256
100
AcDbBlockReference
2
UNIT_DISC
10
-105.3241
20
0.0024
41
0.5
42
0.5
50
0
0
LWPOLYLINE
5
627
100
AcDbEntity
8
F_Cu_____________
62
256
100
AcDbPolyline
90
2
70
0
43
0.5
10
-105.3336
20
1.4834
42
0.189858
10
-105.3241
20
0.0024
0
INSERT
5
628
100
AcDbEntity
8
F_Cu_____________
62
256
100
AcDbBlockReference
2
UNIT_DISC
10
-105.3241
20
0.0024
41
0.5
42
0.5
50
0
0
LWPOLYLINE
5
629
100
AcDbEntity
8
F_Cu_____________
62
256
100
AcDbPolyline
90
2
70
0
43
0.5
10
-105.3241
20
0.0024
10
-101.4571
20
-9.6338
0
INSERT
5
630
100
AcDbEntity
8
F_Cu_____________
62
256
100
AcDbBlockReference
2
UNIT_DISC
10
-101.4571
20
-9.6338
41
0.5
42
0.5
50
0
0
INSERT
5
631
100
AcDbEntity
8
F_Cu_____________
62
256
100
AcDbBlockReference
2
UNIT_DISC
10
-101.3164
20
-10.0609
41
0.5
42
0.5
50
0
0
INSERT
5
632
100
AcDbEntity
8
F_Cu_____________
62
256
100
AcDbBlockReference
2
UNIT_DISC
10
-101.4571
20
-9.6338
41
0.5
42
0.5
50
0
0
LWPOLYLINE
5
633
100
AcDbEntity
8
F_Cu_____________
62
256
100
AcDbPolyline
90
2
70
0
43
0.5
10
-101.3164
20
-10.0609
42
0.031681
10
-101.4571
20
-9.6338
0
INSERT
5
634
100
AcDbEntity
8
F_Cu_____________
62
256
100
AcDbBlockReference
2
UNIT_DISC
10
-101.3164
20
-10.0609
41
0.5
42
0.5
50
0
0
LWPOLYLINE
5
635
100
AcDbEntity
8
F_Cu_____________
62
256
100
AcDbPolyline
90
2
70
0
43
0.5
10
-101.3164
20
-10.0609
10
-100.8368
20
-11.901
0
INSERT
5
636
100
AcDbEntity
8
F_Cu_____________
62
256
100
AcDbBlockReference
2
UNIT_DISC
10
-100.8368
20
-11.901
41
0.5
42
0.5
50
0
0
INSERT
5
637
100
AcDbEntity
8
F_Cu_____________
62
256
100
AcDbBlockReference
2
UNIT_DISC
10
-100.7647
20
-12.291
41
0.5
42
0.5
50
0
0
INSERT
5
638
100
AcDbEntity
8
F_Cu_____________
62
256
100
AcDbBlockReference
2
UNIT_DISC
10
-100.8368
20
-11.901
41
0.5
42
0.5
50
0
0
LWPOLYLINE
5
639
100
AcDbEntity
8
F_Cu_____________
62
256
100
AcDbPolyline
90
2
70
0
43
0.5
10
-100.7647
20
-12.291
42
0.036082
10
-100.8368
20
-11.901
0
INSERT
5
640
100
AcDbEntity
8
F_Cu_____________
62
256
100
AcDbBlockReference
2
UNIT_DISC
10
-100.7647
20
-12.291
41
0.5
42
0.5
50
0
0
LWPOLYLINE
5
641
100
AcDbEntity
8
F_Cu_____________
62
256
100
AcDbPolyline
90
2
70
0
43
0.5
10
-100.7647
20
-12.291
10
-100.7593
20
-12.3396
0
INSERT
5
642
100
AcDbEntity
8
F_Cu_____________
62
256
100
AcDbBlockReference
2
UNIT_DISC
10
-100.7593
20
-12.3396
41
0.5
42
0.5
50
0
0
INSERT
5
643
100
AcDbEntity
8
F_Cu_____________
62
256
100
AcDbBlockReference
2
UNIT_DISC
10
-100.7593
20
-12.3396
41
0.5
42
0.5
50
0
0
LWPOLYLINE
5
644
100
AcDbEntity
8
F_Cu_____________
62
256
100
AcDbPolyline
90
2
70
0
43
0.5
10
-100.7593
20
-12.3396
10
-100.7587
20
-12.3458
0
INSERT
5
645
100
AcDbEntity
8
F_Cu_____________
62
256
100
AcDbBlockReference
2
UNIT_DISC
10
-100.7587
20
-12.3458
41
0.5
42
0.5
50
0
0
INSERT
5
646
100
AcDbEntity
8
F_Cu_____________
62
256
100
AcDbBlockReference
2
UNIT_DISC
10
-100.7587
20
-12.3458
41
0.5
42
0.5
50
0
0
LWPOLYLINE
5
647
100
AcDbEntity
8
F_Cu_____________
62
256
100
AcDbPolyline
90
2
70
0
43
0.5
10
-100.7587
20
-12.3458
10
-100.7534
20
-12.3945
0
INSERT
5
648
100
AcDbEntity
8
F_Cu_____________
62
256
100
AcDbBlockReference
2
UNIT_DISC
10
-100.7534
20
-12.3945
41
0.5
42
0.5
50
0
0
INSERT
5
649
100
AcDbEntity
8
F_Cu_____________
62
256
100
AcDbBlockReference
2
UNIT_DISC
10
-100.7476
20
-12.931
41
0.5
42
0.5
50
0
0
INSERT
5
650
100
AcDbEntity
8
F_Cu_____________
62
256
100
AcDbBlockReference
2
UNIT_DISC
10
-100.7534
20
-12.3945
41
0.5
42
0.5
50
0
0
LWPOLYLINE
5
651
100
AcDbEntity
8
F_Cu_____________
62
256
100
AcDbPolyline
90
2
70
0
43
0.5
10
-100.7476
20
-12.931
42
0.048866
10
-100.7534
20
-12.3945
0
INSERT
5
652
100
AcDbEntity
8
F_Cu_____________
62
256
100
AcDbBlockReference
2
UNIT_DISC
10
-100.7476
20
-12.931
41
0.5
42
0.5
50
0
0
LWPOLYLINE
5
653
100
AcDbEntity
8
F_Cu_____________
62
256
100
AcDbPolyline
90
2
70
0
43
0.5
10
-100.7476
20
-12.931
10
-100.7693
20
-13.1801
0
INSERT
5
654
100
AcDbEntity
8
F_Cu_____________
62
256
100
AcDbBlockReference
2
UNIT_DISC
10
-100.7693
20
-13.1801
41
0.5
42
0.5
50
0
0
INSERT
5
655
100
AcDbEntity
8
F_Cu_____________
62
256
100
AcDbBlockReference
2
UNIT_DISC
10
-100.7693
20
-13.1801
41
0.5
42
0.5
50
0
0
LWPOLYLINE
5
656
100
AcDbEntity
8
F_Cu_____________
62
256
100
AcDbPolyline
90
2
70
0
43
0.5
10
-100.7693
20
-13.1801
10
-100.7694
20
-13.1814
0
INSERT
5
657
100
AcDbEntity
8
F_Cu_____________
62
256
100
AcDbBlockReference
2
UNIT_DISC
10
-100.7694
20
-13.1814
41
0.5
42
0.5
50
0
0
INSERT
5
658
100
AcDbEntity
8
F_Cu_____________
62
256
100
AcDbBlockReference
2
UNIT_DISC
10
-100.7694
20
-13.1814
41
0.5
42
0.5
50
0
0
LWPOLYLINE
5
659
100
AcDbEntity
8
F_Cu_____________
62
256
100
AcDbPolyline
90
2
70
0
43
0.5
10
-100.7694
20
-13.1814
10
-100.8392
20
-13.9783
0
INSERT
5
660
100
AcDbEntity
8
F_Cu_____________
62
256
100
AcDbBlockReference
2
UNIT_DISC
10
-100.8392
20
-13.9783
41
0.5
42
0.5
50
0
0
INSERT
5
661
100
AcDbEntity
8
F_Cu_____________
62
256
100
AcDbBlockReference
2
UNIT_DISC
10
-100.9386
20
-14.5082
41
0.5
42
0.5
50
0
0
INSERT
5
662
100
AcDbEntity
8
F_Cu_____________
62
256
100
AcDbBlockReference
2
UNIT_DISC
10
-100.8392
20
-13.9783
41
0.5
42
0.5
50
0
0
LWPOLYLINE
5
663
100
AcDbEntity
8
F_Cu_____________
62
256
100
AcDbPolyline
90
2
70
0
43
0.5
10
-100.9386
20
-14.5082
42
0.049104
10
-100.8392
20
-13.9783
0
INSERT
5
664
100
AcDbEntity
8
F_Cu_____________
62
256
100
AcDbBlockReference
2
UNIT_DISC
10
-100.9386
20
-14.5082
41
0.5
42
0.5
50
0
0
LWPOLYLINE
5
665
100
AcDbEntity
8
F_Cu_____________
62
256
100
AcDbPolyline
90
2
70
0
43
0.5
10
-100.9386
20
-14.5082
10
-100.9523
20
-14.5552
0
INSERT
5
666
100
AcDbEntity
8
F_Cu_____________
62
256
100
AcDbBlockReference
2
UNIT_DISC
10
-100.9523
20
-14.5552
41
0.5
42
0.5
50
0
0
INSERT
5
667
100
AcDbEntity
8
F_Cu_____________
62
256
100
AcDbBlockReference
2
UNIT_DISC
10
-101.1662
20
-15.0801
41
0.5
42
0.5
50
0
0
INSERT
5
668
100
AcDbEntity
8
F_Cu_____________
62
256
100
AcDbBlockReference
2
UNIT_DISC
10
-100.9523
20
-14.5552
41
0.5
42
0.5
50
0
0
LWPOLYLINE
5
669
100
AcDbEntity
8
F_Cu_____________
62
256
100
AcDbPolyline
90
2
70
0
43
0.5
10
-101.1662
20
-15.0801
42
0.051637
10
-100.9523
20
-14.5552
0
INSERT
5
670
100
AcDbEntity
8
F_Cu_____________
62
256
100
AcDbBlockReference
2
UNIT_DISC
10
-101.1662
20
-15.0801
41
0.5
42
0.5
50
0
0
LWPOLYLINE
5
671
100
AcDbEntity
8
F_Cu_____________
62
256
100
AcDbPolyline
90
2
70
0
43
0.5
10
-101.1662
20
-15.0801
10
-103.3882
20
-19.2461
0
INSERT
5
672
100
AcDbEntity
8
F_Cu_____________
62
256
100
AcDbBlockReference
2
UNIT_DISC
10
-103.3882
20
-19.2461
41
0.5
42
0.5
50
0
0
INSERT
5
673
100
AcDbEntity
8
F_Cu_____________
62
256
100
AcDbBlockReference
2
UNIT_DISC
10
-103.4647
20
-19.3621
41
0.5
42
0.5
50
0
0
INSERT
5
674
100
AcDbEntity
8
F_Cu_____________
62
256
100
AcDbBlockReference
2
UNIT_DISC
10
-103.3882
20
-19.2461
41
0.5
42
0.5
50
0
0
LWPOLYLINE
5
675
100
AcDbEntity
8
F_Cu_____________
62
256
100
AcDbPolyline
90
2
70
0
43
0.5
10
-103.4647
20
-19.3621
42
0.046388
10
-103.3882
20
-19.2461
0
INSERT
5
676
100
AcDbEntity
8
F_Cu_____________
62
256
100
AcDbBlockReference
2
UNIT_DISC
10
-103.4647
20
-19.3621
41
0.5
42
0.5
50
0
0
LWPOLYLINE
5
677
100
AcDbEntity
8
F_Cu_____________
62
256
100
AcDbPolyline
90
2
70
0
43
0.5
10
-103.4647
20
-19.3621
10
-103.5259
20
-19.4385
0
INSERT
5
678
100
AcDbEntity
8
F_Cu_____________
62
256
100
AcDbBlockReference
2
UNIT_DISC
10
-103.5259
20
-19.4385
41
0.5
42
0.5
50
0
0
INSERT
5
679
100
AcDbEntity
8
F_Cu_____________
62
256
100
AcDbBlockReference
2
UNIT_DISC
10
-103.627
20
-19.5423
41
0.5
42
0.5
50
0
0
INSERT
5
680
100
AcDbEntity
8
F_Cu_____________
62
256
100
AcDbBlockReference
2
UNIT_DISC
10
-103.5259
20
-19.4385
41
0.5
42
0.5
50
0
0
LWPOLYLINE
5
681
100
AcDbEntity
8
F_Cu_____________
62
256
100
AcDbPolyline
90
2
70
0
43
0.5
10
-103.627
20
-19.5423
42
0.048383
10
-103.5259
20
-19.4385
0
INSERT
5
682
100
AcDbEntity
8
F_Cu_____________
62
256
100
AcDbBlockReference
2
UNIT_DISC
10
-103.627
20
-19.5423
41
0.5
42
0.5
50
0
0
LWPOLYLINE
5
683
100
AcDbEntity
8
F_Cu_____________
62
256
100
AcDbPolyline
90
2
70
0
43
0.5
10
-103.627
20
-19.5423
10
-104.2422
20
-20.0627
0
INSERT
5
684
100
AcDbEntity
8
F_Cu_____________
62
256
100
AcDbBlockReference
2
UNIT_DISC
10
-104.2422
20
-20.0627
41
0.5
42
0.5
50
0
0
INSERT
5
685
100
AcDbEntity
8
F_Cu_____________
62
256
100
AcDbBlockReference
2
UNIT_DISC
10
-104.2422
20
-20.0627
41
0.5
42
0.5
50
0
0
LWPOLYLINE
5
686
100
AcDbEntity
8
F_Cu_____________
62
256
100
AcDbPolyline
90
2
70
0
43
0.5
10
-104.2422
20
-20.0627
10
-104.2483
20
-20.0687
0
INSERT
5
687
100
AcDbEntity
8
F_Cu_____________
62
256
100
AcDbBlockReference
2
UNIT_DISC
10
-104.2483
20
-20.0687
41
0.5
42
0.5
50
0
0
INSERT
5
688
100
AcDbEntity
8
F_Cu_____________
62
256
100
AcDbBlockReference
2
UNIT_DISC
10
-104.2483
20
-20.0687
41
0.5
42
0.5
50
0
0
LWPOLYLINE
5
689
100
AcDbEntity
8
F_Cu_____________
62
256
100
AcDbPolyline
90
2
70
0
43
0.5
10
-104.2483
20
-20.0687
10
-104.2488
20
-20.0694
0
INSERT
5
690
100
AcDbEntity
8
F_Cu_____________
62
256
100
AcDbBlockReference
2
UNIT_DISC
10
-104.2488
20
-20.0694
41
0.5
42
0.5
50
0
0
INSERT
5
691
100
AcDbEntity
8
F_Cu_____________
62
256
100
AcDbBlockReference
2
UNIT_DISC
10
-104.2488
20
-20.0694
41
0.5
42
0.5
50
0
0
LWPOLYLINE
5
692
100
AcDbEntity
8
F_Cu_____________
62
256
100
AcDbPolyline
90
2
70
0
43
0.5
10
-104.2488
20
-20.0694
10
-105.1957
20
-20.719
0
INSERT
5
693
100
AcDbEntity
8
F_Cu_____________
62
256
100
AcDbBlockReference
2
UNIT_DISC
10
-105.1957
20
-20.719
41
0.5
42
0.5
50
0
0
INSERT
5
694
100
AcDbEntity
8
F_Cu_____________
62
256
100
AcDbBlockReference
2
UNIT_DISC
10
-105.6384
20
-25.7797
41
0.5
42
0.5
50
0
0
LWPOLYLINE
5
695
100
AcDbEntity
8
F_Cu_____________
62
256
100
AcDbPolyline
90
2
70
0
43
0.5
10
-105.6384
20
-25.7797
10
-104.6297
20
-25.2037
0
INSERT
5
696
100
AcDbEntity
8
F_Cu_____________
62
256
100
AcDbBlockReference
2
UNIT_DISC
10
-104.6297
20
-25.2037
41
0.5
42
0.5
50
0
0
INSERT
5
697
100
AcDbEntity
8
F_Cu_____________
62
256
100
AcDbBlockReference
2
UNIT_DISC
10
-104.6297
20
-25.2037
41
0.5
42
0.5
50
0
0
LWPOLYLINE
5
698
100
AcDbEntity
8
F_Cu_____________
62
256
100
AcDbPolyline
90
2
70
0
43
0.5
10
-104.6297
20
-25.2037
10
-104.6276
20
-25.2024
0
INSERT
5
699
100
AcDbEntity
8
F_Cu_____________
62
256
100
AcDbBlockReference
2
UNIT_DISC
10
-104.6276
20
-25.2024
41
0.5
42
0.5
50
0
0
INSERT
5
700
100
AcDbEntity
8
F_Cu_____________
62
256
100
AcDbBlockReference
2
UNIT_DISC
10
-104.6276
20
-25.2024
41
0.5
42
0.5
50
0
0
INSERT
5
701
100
AcDbEntity
8
F_Cu_____________
62
256
100
AcDbBlockReference
2
UNIT_DISC
10
-104.6176
20
-25.1943
41
0.5
42
0.5
50
0
0
LWPOLYLINE
5
702
100
AcDbEntity
8
F_Cu_____________
62
256
100
AcDbPolyline
90
2
70
0
43
0.5
10
-104.6276
20
-25.2024
42
0.066041
10
-104.6176
20
-25.1943
0
INSERT
5
703
100
AcDbEntity
8
F_Cu_____________
62
256
100
AcDbBlockReference
2
UNIT_DISC
10
-104.6176
20
-25.1943
41
0.5
42
0.5
50
0
0
LWPOLYLINE
5
704
100
AcDbEntity
8
F_Cu_____________
62
256
100
AcDbPolyline
90
2
70
0
43
0.5
10
-104.6176
20
-25.1943
10
-104.0071
20
-24.5435
0
INSERT
5
705
100
AcDbEntity
8
F_Cu_____________
62
256
100
AcDbBlockReference
2
UNIT_DISC
10
-104.0071
20
-24.5435
41
0.5
42
0.5
50
0
0
INSERT
5
706
100
AcDbEntity
8
F_Cu_____________
62
256
100
AcDbBlockReference
2
UNIT_DISC
10
-104.0071
20
-24.5435
41
0.5
42
0.5
50
0
0
INSERT
5
707
100
AcDbEntity
8
F_Cu_____________
62
256
100
AcDbBlockReference
2
UNIT_DISC
10
-103.9688
20
-24.4993
41
0.5
42
0.5
50
0
0
LWPOLYLINE
5
708
100
AcDbEntity
8
F_Cu_____________
62
256
100
AcDbPolyline
90
2
70
0
43
0.5
10
-104.0071
20
-24.5435
42
0.01949
10
-103.9688
20
-24.4993
0
INSERT
5
709
100
AcDbEntity
8
F_Cu_____________
62
256
100
AcDbBlockReference
2
UNIT_DISC
10
-103.9688
20
-24.4993
41
0.5
42
0.5
50
0
0
LWPOLYLINE
5
710
100
AcDbEntity
8
F_Cu_____________
62
256
100
AcDbPolyline
90
2
70
0
43
0.5
10
-103.9688
20
-24.4993
10
-103.9236
20
-24.4429
0
INSERT
5
711
100
AcDbEntity
8
F_Cu_____________
62
256
100
AcDbBlockReference
2
UNIT_DISC
10
-103.9236
20
-24.4429
41
0.5
42
0.5
50
0
0
INSERT
5
712
100
AcDbEntity
8
F_Cu_____________
62
256
100
AcDbBlockReference
2
UNIT_DISC
10
-103.9236
20
-24.4429
41
0.5
42
0.5
50
0
0
LWPOLYLINE
5
713
100
AcDbEntity
8
F_Cu_____________
62
256
100
AcDbPolyline
90
2
70
0
43
0.5
10
-103.9236
20
-24.4429
10
-103.9232
20
-24.4424
0
INSERT
5
714
100
AcDbEntity
8
F_Cu_____________
62
256
100
AcDbBlockReference
2
UNIT_DISC
10
-103.9232
20
-24.4424
41
0.5
42
0.5
50
0
0
INSERT
5
715
100
AcDbEntity
8
F_Cu_____________
62
256
100
AcDbBlockReference
2
UNIT_DISC
10
-103.9232
20
-24.4424
41
0.5
42
0.5
50
0
0
LWPOLYLINE
5
716
100
AcDbEntity
8
F_Cu_____________
62
256
100
AcDbPolyline
90
2
70
0
43
0.5
10
-103.9232
20
-24.4424
10
-103.9072
20
-24.4224
0
INSERT
5
717
100
AcDbEntity
8
F_Cu_____________
62
256
100
AcDbBlockReference
2
UNIT_DISC
10
-103.9072
20
-24.4224
41
0.5
42
0.5
50
0
0
INSERT
5
718
100
AcDbEntity
8
F_Cu_____________
62
256
100
AcDbBlockReference
2
UNIT_DISC
10
-103.9072
20
-24.4224
41
0.5
42
0.5
50
0
0
INSERT
5
719
100
AcDbEntity
8
F_Cu_____________
62
256
100
AcDbBlockReference
2
UNIT_DISC
10
-103.7981
20
-24.2366
41
0.5
42
0.5
50
0
0
LWPOLYLINE
5
720
100
AcDbEntity
8
F_Cu_____________
62
256
100
AcDbPolyline
90
2
70
0
43
0.5
10
-103.9072
20
-24.4224
42
0.072149
10
-103.7981
20
-24.2366
0
INSERT
5
721
100
AcDbEntity
8
F_Cu_____________
62
256
100
AcDbBlockReference
2
UNIT_DISC
10
-103.7981
20
-24.2366
41
0.5
42
0.5
50
0
0
LWPOLYLINE
5
722
100
AcDbEntity
8
F_Cu_____________
62
256
100
AcDbPolyline
90
2
70
0
43
0.5
10
-103.7981
20
-24.2366
10
-100.1189
20
-15.2
0
INSERT
5
723
100
AcDbEntity
8
F_Cu_____________
62
256
100
AcDbBlockReference
2
UNIT_DISC
10
-100.1189
20
-15.2
41
0.5
42
0.5
50
0
0
INSERT
5
724
100
AcDbEntity
8
F_Cu_____________
62
256
100
AcDbBlockReference
2
UNIT_DISC
10
-100.1189
20
-15.2
41
0.5
42
0.5
50
0
0
INSERT
5
725
100
AcDbEntity
8
F_Cu_____________
62
256
100
AcDbBlockReference
2
UNIT_DISC
10
-99.9918
20
-14.8352
41
0.5
42
0.5
50
0
0
LWPOLYLINE
5
726
100
AcDbEntity
8
F_Cu_____________
62
256
100
AcDbPolyline
90
2
70
0
43
0.5
10
-100.1189
20
-15.2
42
0.025757
10
-99.9918
20
-14.8352
0
INSERT
5
727
100
AcDbEntity
8
F_Cu_____________
62
256
100
AcDbBlockReference
2
UNIT_DISC
10
-99.9918
20
-14.8352
41
0.5
42
0.5
50
0
0
LWPOLYLINE
5
728
100
AcDbEntity
8
F_Cu_____________
62
256
100
AcDbPolyline
90
2
70
0
43
0.5
10
-99.9918
20
-14.8352
10
-99.9781
20
-14.7882
0
INSERT
5
729
100
AcDbEntity
8
F_Cu_____________
62
256
100
AcDbBlockReference
2
UNIT_DISC
10
-99.9781
20
-14.7882
41
0.5
42
0.5
50
0
0
INSERT
5
730
100
AcDbEntity
8
F_Cu_____________
62
256
100
AcDbBlockReference
2
UNIT_DISC
10
-99.9781
20
-14.7882
41
0.5
42
0.5
50
0
0
INSERT
5
731
100
AcDbEntity
8
F_Cu_____________
62
256
100
AcDbBlockReference
2
UNIT_DISC
10
-99.8425
20
-14.0656
41
0.5
42
0.5
50
0
0
LWPOLYLINE
5
732
100
AcDbEntity
8
F_Cu_____________
62
256
100
AcDbPolyline
90
2
70
0
43
0.5
10
-99.9781
20
-14.7882
42
0.049106
10
-99.8425
20
-14.0656
0
INSERT
5
733
100
AcDbEntity
8
F_Cu_____________
62
256
100
AcDbBlockReference
2
UNIT_DISC
10
-99.8425
20
-14.0656
41
0.5
42
0.5
50
0
0
LWPOLYLINE
5
734
100
AcDbEntity
8
F_Cu_____________
62
256
100
AcDbPolyline
90
2
70
0
43
0.5
10
-99.8425
20
-14.0656
10
-99.7727
20
-13.2687
0
INSERT
5
735
100
AcDbEntity
8
F_Cu_____________
62
256
100
AcDbBlockReference
2
UNIT_DISC
10
-99.7727
20
-13.2687
41
0.5
42
0.5
50
0
0
INSERT
5
736
100
AcDbEntity
8
F_Cu_____________
62
256
100
AcDbBlockReference
2
UNIT_DISC
10
-99.7727
20
-13.2687
41
0.5
42
0.5
50
0
0
LWPOLYLINE
5
737
100
AcDbEntity
8
F_Cu_____________
62
256
100
AcDbPolyline
90
2
70
0
43
0.5
10
-99.7727
20
-13.2687
10
-99.7726
20
-13.2669
0
INSERT
5
738
100
AcDbEntity
8
F_Cu_____________
62
256
100
AcDbBlockReference
2
UNIT_DISC
10
-99.7726
20
-13.2669
41
0.5
42
0.5
50
0
0
INSERT
5
739
100
AcDbEntity
8
F_Cu_____________
62
256
100
AcDbBlockReference
2
UNIT_DISC
10
-99.7726
20
-13.2669
41
0.5
42
0.5
50
0
0
LWPOLYLINE
5
740
100
AcDbEntity
8
F_Cu_____________
62
256
100
AcDbPolyline
90
2
70
0
43
0.5
10
-99.7726
20
-13.2669
10
-99.7509
20
-13.0178
0
INSERT
5
741
100
AcDbEntity
8
F_Cu_____________
62
256
100
AcDbBlockReference
2
UNIT_DISC
10
-99.7509
20
-13.0178
41
0.5
42
0.5
50
0
0
INSERT
5
742
100
AcDbEntity
8
F_Cu_____________
62
256
100
AcDbBlockReference
2
UNIT_DISC
10
-99.7509
20
-13.0178
41
0.5
42
0.5
50
0
0
INSERT
5
743
100
AcDbEntity
8
F_Cu_____________
62
256
100
AcDbBlockReference
2
UNIT_DISC
10
-99.7587
20
-12.2863
41
0.5
42
0.5
50
0
0
LWPOLYLINE
5
744
100
AcDbEntity
8
F_Cu_____________
62
256
100
AcDbPolyline
90
2
70
0
43
0.5
10
-99.7509
20
-13.0178
42
0.04886
10
-99.7587
20
-12.2863
0
INSERT
5
745
100
AcDbEntity
8
F_Cu_____________
62
256
100
AcDbBlockReference
2
UNIT_DISC
10
-99.7587
20
-12.2863
41
0.5
42
0.5
50
0
0
LWPOLYLINE
5
746
100
AcDbEntity
8
F_Cu_____________
62
256
100
AcDbPolyline
90
2
70
0
43
0.5
10
-99.7587
20
-12.2863
10
-99.764
20
-12.2376
0
INSERT
5
747
100
AcDbEntity
8
F_Cu_____________
62
256
100
AcDbBlockReference
2
UNIT_DISC
10
-99.764
20
-12.2376
41
0.5
42
0.5
50
0
0
INSERT
5
748
100
AcDbEntity
8
F_Cu_____________
62
256
100
AcDbBlockReference
2
UNIT_DISC
10
-99.764
20
-12.2376
41
0.5
42
0.5
50
0
0
LWPOLYLINE
5
749
100
AcDbEntity
8
F_Cu_____________
62
256
100
AcDbPolyline
90
2
70
0
43
0.5
10
-99.764
20
-12.2376
10
-99.7649
20
-12.2292
0
INSERT
5
750
100
AcDbEntity
8
F_Cu_____________
62
256
100
AcDbBlockReference
2
UNIT_DISC
10
-99.7649
20
-12.2292
41
0.5
42
0.5
50
0
0
INSERT
5
751
100
AcDbEntity
8
F_Cu_____________
62
256
100
AcDbBlockReference
2
UNIT_DISC
10
-99.7649
20
-12.2292
41
0.5
42
0.5
50
0
0
LWPOLYLINE
5
752
100
AcDbEntity
8
F_Cu_____________
62
256
100
AcDbPolyline
90
2
70
0
43
0.5
10
-99.7649
20
-12.2292
10
-99.7703
20
-12.1806
0
INSERT
5
753
100
AcDbEntity
8
F_Cu_____________
62
256
100
AcDbBlockReference
2
UNIT_DISC
10
-99.7703
20
-12.1806
41
0.5
42
0.5
50
0
0
INSERT
5
754
100
AcDbEntity
8
F_Cu_____________
62
256
100
AcDbBlockReference
2
UNIT_DISC
10
-99.7703
20
-12.1806
41
0.5
42
0.5
50
0
0
INSERT
5
755
100
AcDbEntity
8
F_Cu_____________
62
256
100
AcDbBlockReference
2
UNIT_DISC
10
-99.8687
20
-11.6486
41
0.5
42
0.5
50
0
0
LWPOLYLINE
5
756
100
AcDbEntity
8
F_Cu_____________
62
256
100
AcDbPolyline
90
2
70
0
43
0.5
10
-99.7703
20
-12.1806
42
0.036096
10
-99.8687
20
-11.6486
0
INSERT
5
757
100
AcDbEntity
8
F_Cu_____________
62
256
100
AcDbBlockReference
2
UNIT_DISC
10
-99.8687
20
-11.6486
41
0.5
42
0.5
50
0
0
LWPOLYLINE
5
758
100
AcDbEntity
8
F_Cu_____________
62
256
100
AcDbPolyline
90
2
70
0
43
0.5
10
-99.8687
20
-11.6486
10
-100.3483
20
-9.8085
0
INSERT
5
759
100
AcDbEntity
8
F_Cu_____________
62
256
100
AcDbBlockReference
2
UNIT_DISC
10
-100.3483
20
-9.8085
41
0.5
42
0.5
50
0
0
INSERT
5
760
100
AcDbEntity
8
F_Cu_____________
62
256
100
AcDbBlockReference
2
UNIT_DISC
10
-100.3483
20
-9.8085
41
0.5
42
0.5
50
0
0
INSERT
5
761
100
AcDbEntity
8
F_Cu_____________
62
256
100
AcDbBlockReference
2
UNIT_DISC
10
-100.3857
20
-9.6736
41
0.5
42
0.5
50
0
0
LWPOLYLINE
5
762
100
AcDbEntity
8
F_Cu_____________
62
256
100
AcDbPolyline
90
2
70
0
43
0.5
10
-100.3483
20
-9.8085
42
0.007688
10
-100.3857
20
-9.6736
0
INSERT
5
763
100
AcDbEntity
8
F_Cu_____________
62
256
100
AcDbBlockReference
2
UNIT_DISC
10
-100.3857
20
-9.6736
41
0.5
42
0.5
50
0
0
LWPOLYLINE
5
764
100
AcDbEntity
8
F_Cu_____________
62
256
100
AcDbPolyline
90
2
70
0
43
0.5
10
-100.3857
20
-9.6736
10
-103.449
20
0.7549
0
INSERT
5
765
100
AcDbEntity
8
F_Cu_____________
62
256
100
AcDbBlockReference
2
UNIT_DISC
10
-103.449
20
0.7549
41
0.5
42
0.5
50
0
0
INSERT
5
766
100
AcDbEntity
8
F_Cu_____________
62
256
100
AcDbBlockReference
2
UNIT_DISC
10
100.7088
20
-20.001
41
0.5
42
0.5
50
0
0
LWPOLYLINE
5
767
100
AcDbEntity
8
F_Cu_____________
62
256
100
AcDbPolyline
90
2
70
0
43
0.5
10
100.7088
20
-20.001
10
100.2148
20
-19.7924
0
INSERT
5
768
100
AcDbEntity
8
F_Cu_____________
62
256
100
AcDbBlockReference
2
UNIT_DISC
10
100.2148
20
-19.7924
41
0.5
42
0.5
50
0
0
INSERT
5
769
100
AcDbEntity
8
F_Cu_____________
62
256
100
AcDbBlockReference
2
UNIT_DISC
10
100.2148
20
-19.7924
41
0.5
42
0.5
50
0
0
LWPOLYLINE
5
770
100
AcDbEntity
8
F_Cu_____________
62
256
100
AcDbPolyline
90
2
70
0
43
0.5
10
100.2148
20
-19.7924
10
100.2128
20
-19.7919
0
INSERT
5
771
100
AcDbEntity
8
F_Cu_____________
62
256
100
AcDbBlockReference
2
UNIT_DISC
10
100.2128
20
-19.7919
41
0.5
42
0.5
50
0
0
INSERT
5
772
100
AcDbEntity
8
F_Cu_____________
62
256
100
AcDbBlockReference
2
UNIT_DISC
10
100.1997
20
-19.7851
41
0.5
42
0.5
50
0
0
INSERT
5
773
100
AcDbEntity
8
F_Cu_____________
62
256
100
AcDbBlockReference
2
UNIT_DISC
10
100.2128
20
-19.7919
41
0.5
42
0.5
50
0
0
LWPOLYLINE
5
774
100
AcDbEntity
8
F_Cu_____________
62
256
100
AcDbPolyline
90
2
70
0
43
0.5
10
100.1997
20
-19.7851
42
0.109203
10
100.2128
20
-19.7919
0
INSERT
5
775
100
AcDbEntity
8
F_Cu_____________
62
256
100
AcDbBlockReference
2
UNIT_DISC
10
100.1997
20
-19.7851
41
0.5
42
0.5
50
0
0
LWPOLYLINE
5
776
100
AcDbEntity
8
F_Cu_____________
62
256
100
AcDbPolyline
90
2
70
0
43
0.5
10
100.1997
20
-19.7851
10
89.3577
20
-10.8003
0
INSERT
5
777
100
AcDbEntity
8
F_Cu_____________
62
256
100
AcDbBlockReference
2
UNIT_DISC
10
89.3577
20
-10.8003
41
0.5
42
0.5
50
0
0
INSERT
5
778
100
AcDbEntity
8
F_Cu_____________
62
256
100
AcDbBlockReference
2
UNIT_DISC
10
89.3577
20
-10.8003
41
0.5
42
0.5
50
0
0
INSERT
5
779
100
AcDbEntity
8
F_Cu_____________
62
256
100
AcDbBlockReference
2
UNIT_DISC
10
88.617
20
-10.4087
41
0.5
42
0.5
50
0
0
LWPOLYLINE
5
780
100
AcDbEntity
8
F_Cu_____________
62
256
100
AcDbPolyline
90
2
70
0
43
0.5
10
89.3577
20
-10.8003
42
0.103214
10
88.617
20
-10.4087
0
INSERT
5
781
100
AcDbEntity
8
F_Cu_____________
62
256
100
AcDbBlockReference
2
UNIT_DISC
10
88.617
20
-10.4087
41
0.5
42
0.5
50
0
0
LWPOLYLINE
5
782
100
AcDbEntity
8
F_Cu_____________
62
256
100
AcDbPolyline
90
2
70
0
43
0.5
10
88.617
20
-10.4087
10
60.7703
20
-2.3828
0
INSERT
5
783
100
AcDbEntity
8
F_Cu_____________
62
256
100
AcDbBlockReference
2
UNIT_DISC
10
60.7703
20
-2.3828
41
0.5
42
0.5
50
0
0
INSERT
5
784
100
AcDbEntity
8
F_Cu_____________
62
256
100
AcDbBlockReference
2
UNIT_DISC
10
60.7703
20
-2.3828
41
0.5
42
0.5
50
0
0
INSERT
5
785
100
AcDbEntity
8
F_Cu_____________
62
256
100
AcDbBlockReference
2
UNIT_DISC
10
60.3655
20
-2.2953
41
0.5
42
0.5
50
0
0
LWPOLYLINE
5
786
100
AcDbEntity
8
F_Cu_____________
62
256
100
AcDbPolyline
90
2
70
0
43
0.5
10
60.7703
20
-2.3828
42
0.033969
10
60.3655
20
-2.2953
0
INSERT
5
787
100
AcDbEntity
8
F_Cu_____________
62
256
100
AcDbBlockReference
2
UNIT_DISC
10
60.3655
20
-2.2953
41
0.5
42
0.5
50
0
0
LWPOLYLINE
5
788
100
AcDbEntity
8
F_Cu_____________
62
256
100
AcDbPolyline
90
2
70
0
43
0.5
10
60.3655
20
-2.2953
10
39.449
20
0.7549
0
INSERT
5
789
100
AcDbEntity
8
F_Cu_____________
62
256
100
AcDbBlockReference
2
UNIT_DISC
10
39.449
20
0.7549
41
0.5
42
0.5
50
0
0
INSERT
5
790
100
AcDbEntity
8
F_Cu_____________
62
256
100
AcDbBlockReference
2
UNIT_DISC
10
100.7088
20
-21.501
41
0.5
42
0.5
50
0
0
LWPOLYLINE
5
791
100
AcDbEntity
8
F_Cu_____________
62
256
100
AcDbPolyline
90
2
70
0
43
0.5
10
100.7088
20
-21.501
10
100.2148
20
-21.2924
0
INSERT
5
792
100
AcDbEntity
8
F_Cu_____________
62
256
100
AcDbBlockReference
2
UNIT_DISC
10
100.2148
20
-21.2924
41
0.5
42
0.5
50
0
0
INSERT
5
793
100
AcDbEntity
8
F_Cu_____________
62
256
100
AcDbBlockReference
2
UNIT_DISC
10
100.2148
20
-21.2924
41
0.5
42
0.5
50
0
0
LWPOLYLINE
5
794
100
AcDbEntity
8
F_Cu_____________
62
256
100
AcDbPolyline
90
2
70
0
43
0.5
10
100.2148
20
-21.2924
10
100.2128
20
-21.2919
0
INSERT
5
795
100
AcDbEntity
8
F_Cu_____________
62
256
100
AcDbBlockReference
2
UNIT_DISC
10
100.2128
20
-21.2919
41
0.5
42
0.5
50
0
0
INSERT
5
796
100
AcDbEntity
8
F_Cu_____________
62
256
100
AcDbBlockReference
2
UNIT_DISC
10
100.1994
20
-21.2849
41
0.5
42
0.5
50
0
0
INSERT
5
797
100
AcDbEntity
8
F_Cu_____________
62
256
100
AcDbBlockReference
2
UNIT_DISC
10
100.2128
20
-21.2919
41
0.5
42
0.5
50
0
0
LWPOLYLINE
5
798
100
AcDbEntity
8
F_Cu_____________
62
256
100
AcDbPolyline
90
2
70
0
43
0.5
10
100.1994
20
-21.2849
42
0.111857
10
100.2128
20
-21.2919
0
INSERT
5
799
100
AcDbEntity
8
F_Cu_____________
62
256
100
AcDbBlockReference
2
UNIT_DISC
10
100.1994
20
-21.2849
41
0.5
42
0.5
50
0
0
LWPOLYLINE
5
800
100
AcDbEntity
8
F_Cu_____________
62
256
100
AcDbPolyline
90
2
70
0
43
0.5
10
100.1994
20
-21.2849
10
88.7276
20
-11.5776
0
INSERT
5
801
100
AcDbEntity
8
F_Cu_____________
62
256
100
AcDbBlockReference
2
UNIT_DISC
10
88.7276
20
-11.5776
41
0.5
42
0.5
50
0
0
INSERT
5
802
100
AcDbEntity
8
F_Cu_____________
62
256
100
AcDbBlockReference
2
UNIT_DISC
10
88.7276
20
-11.5776
41
0.5
42
0.5
50
0
0
INSERT
5
803
100
AcDbEntity
8
F_Cu_____________
62
256
100
AcDbBlockReference
2
UNIT_DISC
10
88.3399
20
-11.3701
41
0.5
42
0.5
50
0
0
LWPOLYLINE
5
804
100
AcDbEntity
8
F_Cu_____________
62
256
100
AcDbPolyline
90
2
70
0
43
0.5
10
88.7276
20
-11.5776
42
0.105822
10
88.3399
20
-11.3701
0
INSERT
5
805
100
AcDbEntity
8
F_Cu_____________
62
256
100
AcDbBlockReference
2
UNIT_DISC
10
88.3399
20
-11.3701
41
0.5
42
0.5
50
0
0
LWPOLYLINE
5
806
100
AcDbEntity
8
F_Cu_____________
62
256
100
AcDbPolyline
90
2
70
0
43
0.5
10
88.3399
20
-11.3701
10
60.4932
20
-3.3441
0
INSERT
5
807
100
AcDbEntity
8
F_Cu_____________
62
256
100
AcDbBlockReference
2
UNIT_DISC
10
60.4932
20
-3.3441
41
0.5
42
0.5
50
0
0
INSERT
5
808
100
AcDbEntity
8
F_Cu_____________
62
256
100
AcDbBlockReference
2
UNIT_DISC
10
60.4932
20
-3.3441
41
0.5
42
0.5
50
0
0
INSERT
5
809
100
AcDbEntity
8
F_Cu_____________
62
256
100
AcDbBlockReference
2
UNIT_DISC
10
59.7561
20
-3.2709
41
0.5
42
0.5
50
0
0
LWPOLYLINE
5
810
100
AcDbEntity
8
F_Cu_____________
62
256
100
AcDbPolyline
90
2
70
0
43
0.5
10
60.4932
20
-3.3441
42
0.091037
10
59.7561
20
-3.2709
0
INSERT
5
811
100
AcDbEntity
8
F_Cu_____________
62
256
100
AcDbBlockReference
2
UNIT_DISC
10
59.7561
20
-3.2709
41
0.5
42
0.5
50
0
0
LWPOLYLINE
5
812
100
AcDbEntity
8
F_Cu_____________
62
256
100
AcDbPolyline
90
2
70
0
43
0.5
10
59.7561
20
-3.2709
10
57.8738
20
-3.4266
0
INSERT
5
813
100
AcDbEntity
8
F_Cu_____________
62
256
100
AcDbBlockReference
2
UNIT_DISC
10
57.8738
20
-3.4266
41
0.5
42
0.5
50
0
0
INSERT
5
814
100
AcDbEntity
8
F_Cu_____________
62
256
100
AcDbBlockReference
2
UNIT_DISC
10
57.8738
20
-3.4266
41
0.5
42
0.5
50
0
0
INSERT
5
815
100
AcDbEntity
8
F_Cu_____________
62
256
100
AcDbBlockReference
2
UNIT_DISC
10
57.7305
20
-3.4485
41
0.5
42
0.5
50
0
0
LWPOLYLINE
5
816
100
AcDbEntity
8
F_Cu_____________
62
256
100
AcDbPolyline
90
2
70
0
43
0.5
10
57.8738
20
-3.4266
42
0.034541
10
57.7305
20
-3.4485
0
INSERT
5
817
100
AcDbEntity
8
F_Cu_____________
62
256
100
AcDbBlockReference
2
UNIT_DISC
10
57.7305
20
-3.4485
41
0.5
42
0.5
50
0
0
LWPOLYLINE
5
818
100
AcDbEntity
8
F_Cu_____________
62
256
100
AcDbPolyline
90
2
70
0
43
0.5
10
57.7305
20
-3.4485
10
35.8175
20
-8.3622
0
INSERT
5
819
100
AcDbEntity
8
F_Cu_____________
62
256
100
AcDbBlockReference
2
UNIT_DISC
10
35.8175
20
-8.3622
41
0.5
42
0.5
50
0
0
INSERT
5
820
100
AcDbEntity
8
F_Cu_____________
62
256
100
AcDbBlockReference
2
UNIT_DISC
10
35.8175
20
-8.3622
41
0.5
42
0.5
50
0
0
INSERT
5
821
100
AcDbEntity
8
F_Cu_____________
62
256
100
AcDbBlockReference
2
UNIT_DISC
10
35.7741
20
-8.3726
41
0.5
42
0.5
50
0
0
LWPOLYLINE
5
822
100
AcDbEntity
8
F_Cu_____________
62
256
100
AcDbPolyline
90
2
70
0
43
0.5
10
35.8175
20
-8.3622
42
0.007194
10
35.7741
20
-8.3726
0
INSERT
5
823
100
AcDbEntity
8
F_Cu_____________
62
256
100
AcDbBlockReference
2
UNIT_DISC
10
35.7741
20
-8.3726
41
0.5
42
0.5
50
0
0
LWPOLYLINE
5
824
100
AcDbEntity
8
F_Cu_____________
62
256
100
AcDbPolyline
90
2
70
0
43
0.5
10
35.7741
20
-8.3726
10
35.6563
20
-8.4026
0
INSERT
5
825
100
AcDbEntity
8
F_Cu_____________
62
256
100
AcDbBlockReference
2
UNIT_DISC
10
35.6563
20
-8.4026
41
0.5
42
0.5
50
0
0
INSERT
5
826
100
AcDbEntity
8
F_Cu_____________
62
256
100
AcDbBlockReference
2
UNIT_DISC
10
35.6563
20
-8.4026
41
0.5
42
0.5
50
0
0
LWPOLYLINE
5
827
100
AcDbEntity
8
F_Cu_____________
62
256
100
AcDbPolyline
90
2
70
0
43
0.5
10
35.6563
20
-8.4026
10
35.653
20
-8.4034
0
INSERT
5
828
100
AcDbEntity
8
F_Cu_____________
62
256
100
AcDbBlockReference
2
UNIT_DISC
10
35.653
20
-8.4034
41
0.5
42
0.5
50
0
0
INSERT
5
829
100
AcDbEntity
8
F_Cu_____________
62
256
100
AcDbBlockReference
2
UNIT_DISC
10
35.653
20
-8.4034
41
0.5
42
0.5
50
0
0
LWPOLYLINE
5
830
100
AcDbEntity
8
F_Cu_____________
62
256
100
AcDbPolyline
90
2
70
0
43
0.5
10
35.653
20
-8.4034
10
35.6281
20
-8.4098
0
INSERT
5
831
100
AcDbEntity
8
F_Cu_____________
62
256
100
AcDbBlockReference
2
UNIT_DISC
10
35.6281
20
-8.4098
41
0.5
42
0.5
50
0
0
INSERT
5
832
100
AcDbEntity
8
F_Cu_____________
62
256
100
AcDbBlockReference
2
UNIT_DISC
10
35.6281
20
-8.4098
41
0.5
42
0.5
50
0
0
INSERT
5
833
100
AcDbEntity
8
F_Cu_____________
62
256
100
AcDbBlockReference
2
UNIT_DISC
10
35.5207
20
-8.4416
41
0.5
42
0.5
50
0
0
LWPOLYLINE
5
834
100
AcDbEntity
8
F_Cu_____________
62
256
100
AcDbPolyline
90
2
70
0
43
0.5
10
35.6281
20
-8.4098
42
0.01806
10
35.5207
20
-8.4416
0
INSERT
5
835
100
AcDbEntity
8
F_Cu_____________
62
256
100
AcDbBlockReference
2
UNIT_DISC
10
35.5207
20
-8.4416
41
0.5
42
0.5
50
0
0
LWPOLYLINE
5
836
100
AcDbEntity
8
F_Cu_____________
62
256
100
AcDbPolyline
90
2
70
0
43
0.5
10
35.5207
20
-8.4416
10
35.3774
20
-8.4897
0
INSERT
5
837
100
AcDbEntity
8
F_Cu_____________
62
256
100
AcDbBlockReference
2
UNIT_DISC
10
35.3774
20
-8.4897
41
0.5
42
0.5
50
0
0
INSERT
5
838
100
AcDbEntity
8
F_Cu_____________
62
256
100
AcDbBlockReference
2
UNIT_DISC
10
35.3774
20
-8.4897
41
0.5
42
0.5
50
0
0
INSERT
5
839
100
AcDbEntity
8
F_Cu_____________
62
256
100
AcDbBlockReference
2
UNIT_DISC
10
35.2683
20
-8.531
41
0.5
42
0.5
50
0
0
LWPOLYLINE
5
840
100
AcDbEntity
8
F_Cu_____________
62
256
100
AcDbPolyline
90
2
70
0
43
0.5
10
35.3774
20
-8.4897
42
0.01881
10
35.2683
20
-8.531
0
INSERT
5
841
100
AcDbEntity
8
F_Cu_____________
62
256
100
AcDbBlockReference
2
UNIT_DISC
10
35.2683
20
-8.531
41
0.5
42
0.5
50
0
0
LWPOLYLINE
5
842
100
AcDbEntity
8
F_Cu_____________
62
256
100
AcDbPolyline
90
2
70
0
43
0.5
10
35.2683
20
-8.531
10
35.1521
20
-8.58
0
INSERT
5
843
100
AcDbEntity
8
F_Cu_____________
62
256
100
AcDbBlockReference
2
UNIT_DISC
10
35.1521
20
-8.58
41
0.5
42
0.5
50
0
0
INSERT
5
844
100
AcDbEntity
8
F_Cu_____________
62
256
100
AcDbBlockReference
2
UNIT_DISC
10
35.1521
20
-8.58
41
0.5
42
0.5
50
0
0
LWPOLYLINE
5
845
100
AcDbEntity
8
F_Cu_____________
62
256
100
AcDbPolyline
90
2
70
0
43
0.5
10
35.1521
20
-8.58
10
35.1445
20
-8.5832
0
INSERT
5
846
100
AcDbEntity
8
F_Cu_____________
62
256
100
AcDbBlockReference
2
UNIT_DISC
10
35.1445
20
-8.5832
41
0.5
42
0.5
50
0
0
INSERT
5
847
100
AcDbEntity
8
F_Cu_____________
62
256
100
AcDbBlockReference
2
UNIT_DISC
10
35.1445
20
-8.5832
41
0.5
42
0.5
50
0
0
LWPOLYLINE
5
848
100
AcDbEntity
8
F_Cu_____________
62
256
100
AcDbPolyline
90
2
70
0
43
0.5
10
35.1445
20
-8.5832
10
35.1209
20
-8.5933
0
INSERT
5
849
100
AcDbEntity
8
F_Cu_____________
62
256
100
AcDbBlockReference
2
UNIT_DISC
10
35.1209
20
-8.5933
41
0.5
42
0.5
50
0
0
INSERT
5
850
100
AcDbEntity
8
F_Cu_____________
62
256
100
AcDbBlockReference
2
UNIT_DISC
10
35.1209
20
-8.5933
41
0.5
42
0.5
50
0
0
INSERT
5
851
100
AcDbEntity
8
F_Cu_____________
62
256
100
AcDbBlockReference
2
UNIT_DISC
10
35.0209
20
-8.6403
41
0.5
42
0.5
50
0
0
LWPOLYLINE
5
852
100
AcDbEntity
8
F_Cu_____________
62
256
100
AcDbPolyline
90
2
70
0
43
0.5
10
35.1209
20
-8.5933
42
0.017816
10
35.0209
20
-8.6403
0
INSERT
5
853
100
AcDbEntity
8
F_Cu_____________
62
256
100
AcDbBlockReference
2
UNIT_DISC
10
35.0209
20
-8.6403
41
0.5
42
0.5
50
0
0
LWPOLYLINE
5
854
100
AcDbEntity
8
F_Cu_____________
62
256
100
AcDbPolyline
90
2
70
0
43
0.5
10
35.0209
20
-8.6403
10
34.9079
20
-8.6985
0
INSERT
5
855
100
AcDbEntity
8
F_Cu_____________
62
256
100
AcDbBlockReference
2
UNIT_DISC
10
34.9079
20
-8.6985
41
0.5
42
0.5
50
0
0
INSERT
5
856
100
AcDbEntity
8
F_Cu_____________
62
256
100
AcDbBlockReference
2
UNIT_DISC
10
34.9079
20
-8.6985
41
0.5
42
0.5
50
0
0
LWPOLYLINE
5
857
100
AcDbEntity
8
F_Cu_____________
62
256
100
AcDbPolyline
90
2
70
0
43
0.5
10
34.9079
20
-8.6985
10
34.9052
20
-8.6999
0
INSERT
5
858
100
AcDbEntity
8
F_Cu_____________
62
256
100
AcDbBlockReference
2
UNIT_DISC
10
34.9052
20
-8.6999
41
0.5
42
0.5
50
0
0
INSERT
5
859
100
AcDbEntity
8
F_Cu_____________
62
256
100
AcDbBlockReference
2
UNIT_DISC
10
34.9052
20
-8.6999
41
0.5
42
0.5
50
0
0
LWPOLYLINE
5
860
100
AcDbEntity
8
F_Cu_____________
62
256
100
AcDbPolyline
90
2
70
0
43
0.5
10
34.9052
20
-8.6999
10
34.8824
20
-8.7117
0
INSERT
5
861
100
AcDbEntity
8
F_Cu_____________
62
256
100
AcDbBlockReference
2
UNIT_DISC
10
34.8824
20
-8.7117
41
0.5
42
0.5
50
0
0
INSERT
5
862
100
AcDbEntity
8
F_Cu_____________
62
256
100
AcDbBlockReference
2
UNIT_DISC
10
34.8824
20
-8.7117
41
0.5
42
0.5
50
0
0
INSERT
5
863
100
AcDbEntity
8
F_Cu_____________
62
256
100
AcDbBlockReference
2
UNIT_DISC
10
34.7836
20
-8.7676
41
0.5
42
0.5
50
0
0
LWPOLYLINE
5
864
100
AcDbEntity
8
F_Cu_____________
62
256
100
AcDbPolyline
90
2
70
0
43
0.5
10
34.8824
20
-8.7117
42
0.018304
10
34.7836
20
-8.7676
0
INSERT
5
865
100
AcDbEntity
8
F_Cu_____________
62
256
100
AcDbBlockReference
2
UNIT_DISC
10
34.7836
20
-8.7676
41
0.5
42
0.5
50
0
0
LWPOLYLINE
5
866
100
AcDbEntity
8
F_Cu_____________
62
256
100
AcDbPolyline
90
2
70
0
43
0.5
10
34.7836
20
-8.7676
10
34.6579
20
-8.8448
0
INSERT
5
867
100
AcDbEntity
8
F_Cu_____________
62
256
100
AcDbBlockReference
2
UNIT_DISC
10
34.6579
20
-8.8448
41
0.5
42
0.5
50
0
0
INSERT
5
868
100
AcDbEntity
8
F_Cu_____________
62
256
100
AcDbBlockReference
2
UNIT_DISC
10
34.6579
20
-8.8448
41
0.5
42
0.5
50
0
0
INSERT
5
869
100
AcDbEntity
8
F_Cu_____________
62
256
100
AcDbBlockReference
2
UNIT_DISC
10
34.5822
20
-8.8944
41
0.5
42
0.5
50
0
0
LWPOLYLINE
5
870
100
AcDbEntity
8
F_Cu_____________
62
256
100
AcDbPolyline
90
2
70
0
43
0.5
10
34.6579
20
-8.8448
42
0.014591
10
34.5822
20
-8.8944
0
INSERT
5
871
100
AcDbEntity
8
F_Cu_____________
62
256
100
AcDbBlockReference
2
UNIT_DISC
10
34.5822
20
-8.8944
41
0.5
42
0.5
50
0
0
LWPOLYLINE
5
872
100
AcDbEntity
8
F_Cu_____________
62
256
100
AcDbPolyline
90
2
70
0
43
0.5
10
34.5822
20
-8.8944
10
34.4595
20
-8.98
0
INSERT
5
873
100
AcDbEntity
8
F_Cu_____________
62
256
100
AcDbBlockReference
2
UNIT_DISC
10
34.4595
20
-8.98
41
0.5
42
0.5
50
0
0
INSERT
5
874
100
AcDbEntity
8
F_Cu_____________
62
256
100
AcDbBlockReference
2
UNIT_DISC
10
34.4595
20
-8.98
41
0.5
42
0.5
50
0
0
INSERT
5
875
100
AcDbEntity
8
F_Cu_____________
62
256
100
AcDbBlockReference
2
UNIT_DISC
10
34.3566
20
-9.0583
41
0.5
42
0.5
50
0
0
LWPOLYLINE
5
876
100
AcDbEntity
8
F_Cu_____________
62
256
100
AcDbPolyline
90
2
70
0
43
0.5
10
34.4595
20
-8.98
42
0.020851
10
34.3566
20
-9.0583
0
INSERT
5
877
100
AcDbEntity
8
F_Cu_____________
62
256
100
AcDbBlockReference
2
UNIT_DISC
10
34.3566
20
-9.0583
41
0.5
42
0.5
50
0
0
LWPOLYLINE
5
878
100
AcDbEntity
8
F_Cu_____________
62
256
100
AcDbPolyline
90
2
70
0
43
0.5
10
34.3566
20
-9.0583
10
34.241
20
-9.1542
0
INSERT
5
879
100
AcDbEntity
8
F_Cu_____________
62
256
100
AcDbBlockReference
2
UNIT_DISC
10
34.241
20
-9.1542
41
0.5
42
0.5
50
0
0
INSERT
5
880
100
AcDbEntity
8
F_Cu_____________
62
256
100
AcDbBlockReference
2
UNIT_DISC
10
34.241
20
-9.1542
41
0.5
42
0.5
50
0
0
INSERT
5
881
100
AcDbEntity
8
F_Cu_____________
62
256
100
AcDbBlockReference
2
UNIT_DISC
10
34.1803
20
-9.2073
41
0.5
42
0.5
50
0
0
LWPOLYLINE
5
882
100
AcDbEntity
8
F_Cu_____________
62
256
100
AcDbPolyline
90
2
70
0
43
0.5
10
34.241
20
-9.1542
42
0.013002
10
34.1803
20
-9.2073
0
INSERT
5
883
100
AcDbEntity
8
F_Cu_____________
62
256
100
AcDbBlockReference
2
UNIT_DISC
10
34.1803
20
-9.2073
41
0.5
42
0.5
50
0
0
LWPOLYLINE
5
884
100
AcDbEntity
8
F_Cu_____________
62
256
100
AcDbPolyline
90
2
70
0
43
0.5
10
34.1803
20
-9.2073
10
34.0887
20
-9.2917
0
INSERT
5
885
100
AcDbEntity
8
F_Cu_____________
62
256
100
AcDbBlockReference
2
UNIT_DISC
10
34.0887
20
-9.2917
41
0.5
42
0.5
50
0
0
INSERT
5
886
100
AcDbEntity
8
F_Cu_____________
62
256
100
AcDbBlockReference
2
UNIT_DISC
10
34.0887
20
-9.2917
41
0.5
42
0.5
50
0
0
LWPOLYLINE
5
887
100
AcDbEntity
8
F_Cu_____________
62
256
100
AcDbPolyline
90
2
70
0
43
0.5
10
34.0887
20
-9.2917
10
34.0862
20
-9.294
0
INSERT
5
888
100
AcDbEntity
8
F_Cu_____________
62
256
100
AcDbBlockReference
2
UNIT_DISC
10
34.0862
20
-9.294
41
0.5
42
0.5
50
0
0
INSERT
5
889
100
AcDbEntity
8
F_Cu_____________
62
256
100
AcDbBlockReference
2
UNIT_DISC
10
34.0862
20
-9.294
41
0.5
42
0.5
50
0
0
LWPOLYLINE
5
890
100
AcDbEntity
8
F_Cu_____________
62
256
100
AcDbPolyline
90
2
70
0
43
0.5
10
34.0862
20
-9.294
10
34.0674
20
-9.3114
0
INSERT
5
891
100
AcDbEntity
8
F_Cu_____________
62
256
100
AcDbBlockReference
2
UNIT_DISC
10
34.0674
20
-9.3114
41
0.5
42
0.5
50
0
0
INSERT
5
892
100
AcDbEntity
8
F_Cu_____________
62
256
100
AcDbBlockReference
2
UNIT_DISC
10
34.0674
20
-9.3114
41
0.5
42
0.5
50
0
0
INSERT
5
893
100
AcDbEntity
8
F_Cu_____________
62
256
100
AcDbBlockReference
2
UNIT_DISC
10
33.9738
20
-9.4057
41
0.5
42
0.5
50
0
0
LWPOLYLINE
5
894
100
AcDbEntity
8
F_Cu_____________
62
256
100
AcDbPolyline
90
2
70
0
43
0.5
10
34.0674
20
-9.3114
42
0.021426
10
33.9738
20
-9.4057
0
INSERT
5
895
100
AcDbEntity
8
F_Cu_____________
62
256
100
AcDbBlockReference
2
UNIT_DISC
10
33.9738
20
-9.4057
41
0.5
42
0.5
50
0
0
LWPOLYLINE
5
896
100
AcDbEntity
8
F_Cu_____________
62
256
100
AcDbPolyline
90
2
70
0
43
0.5
10
33.9738
20
-9.4057
10
32.3917
20
-11.1441
0
INSERT
5
897
100
AcDbEntity
8
F_Cu_____________
62
256
100
AcDbBlockReference
2
UNIT_DISC
10
32.3917
20
-11.1441
41
0.5
42
0.5
50
0
0
INSERT
5
898
100
AcDbEntity
8
F_Cu_____________
62
256
100
AcDbBlockReference
2
UNIT_DISC
10
32.3917
20
-11.1441
41
0.5
42
0.5
50
0
0
INSERT
5
899
100
AcDbEntity
8
F_Cu_____________
62
256
100
AcDbBlockReference
2
UNIT_DISC
10
32.1668
20
-11.4532
41
0.5
42
0.5
50
0
0
LWPOLYLINE
5
900
100
AcDbEntity
8
F_Cu_____________
62
256
100
AcDbPolyline
90
2
70
0
43
0.5
10
32.3917
20
-11.1441
42
0.05474
10
32.1668
20
-11.4532
0
INSERT
5
901
100
AcDbEntity
8
F_Cu_____________
62
256
100
AcDbBlockReference
2
UNIT_DISC
10
32.1668
20
-11.4532
41
0.5
42
0.5
50
0
0
LWPOLYLINE
5
902
100
AcDbEntity
8
F_Cu_____________
62
256
100
AcDbPolyline
90
2
70
0
43
0.5
10
32.1668
20
-11.4532
10
32.1541
20
-11.4754
0
INSERT
5
903
100
AcDbEntity
8
F_Cu_____________
62
256
100
AcDbBlockReference
2
UNIT_DISC
10
32.1541
20
-11.4754
41
0.5
42
0.5
50
0
0
INSERT
5
904
100
AcDbEntity
8
F_Cu_____________
62
256
100
AcDbBlockReference
2
UNIT_DISC
10
32.1541
20
-11.4754
41
0.5
42
0.5
50
0
0
LWPOLYLINE
5
905
100
AcDbEntity
8
F_Cu_____________
62
256
100
AcDbPolyline
90
2
70
0
43
0.5
10
32.1541
20
-11.4754
10
32.1539
20
-11.4759
0
INSERT
5
906
100
AcDbEntity
8
F_Cu_____________
62
256
100
AcDbBlockReference
2
UNIT_DISC
10
32.1539
20
-11.4759
41
0.5
42
0.5
50
0
0
INSERT
5
907
100
AcDbEntity
8
F_Cu_____________
62
256
100
AcDbBlockReference
2
UNIT_DISC
10
32.1539
20
-11.4759
41
0.5
42
0.5
50
0
0
LWPOLYLINE
5
908
100
AcDbEntity
8
F_Cu_____________
62
256
100
AcDbPolyline
90
2
70
0
43
0.5
10
32.1539
20
-11.4759
10
32.118
20
-11.5387
0
INSERT
5
909
100
AcDbEntity
8
F_Cu_____________
62
256
100
AcDbBlockReference
2
UNIT_DISC
10
32.118
20
-11.5387
41
0.5
42
0.5
50
0
0
INSERT
5
910
100
AcDbEntity
8
F_Cu_____________
62
256
100
AcDbBlockReference
2
UNIT_DISC
10
32.118
20
-11.5387
41
0.5
42
0.5
50
0
0
INSERT
5
911
100
AcDbEntity
8
F_Cu_____________
62
256
100
AcDbBlockReference
2
UNIT_DISC
10
31.9018
20
-12.1812
41
0.5
42
0.5
50
0
0
LWPOLYLINE
5
912
100
AcDbEntity
8
F_Cu_____________
62
256
100
AcDbPolyline
90
2
70
0
43
0.5
10
32.118
20
-11.5387
42
0.097712
10
31.9018
20
-12.1812
0
INSERT
5
913
100
AcDbEntity
8
F_Cu_____________
62
256
100
AcDbBlockReference
2
UNIT_DISC
10
31.9018
20
-12.1812
41
0.5
42
0.5
50
0
0
LWPOLYLINE
5
914
100
AcDbEntity
8
F_Cu_____________
62
256
100
AcDbPolyline
90
2
70
0
43
0.5
10
31.9018
20
-12.1812
10
31.8985
20
-12.2065
0
INSERT
5
915
100
AcDbEntity
8
F_Cu_____________
62
256
100
AcDbBlockReference
2
UNIT_DISC
10
31.8985
20
-12.2065
41
0.5
42
0.5
50
0
0
INSERT
5
916
100
AcDbEntity
8
F_Cu_____________
62
256
100
AcDbBlockReference
2
UNIT_DISC
10
31.8985
20
-12.2065
41
0.5
42
0.5
50
0
0
LWPOLYLINE
5
917
100
AcDbEntity
8
F_Cu_____________
62
256
100
AcDbPolyline
90
2
70
0
43
0.5
10
31.8985
20
-12.2065
10
31.8983
20
-12.2084
0
INSERT
5
918
100
AcDbEntity
8
F_Cu_____________
62
256
100
AcDbBlockReference
2
UNIT_DISC
10
31.8983
20
-12.2084
41
0.5
42
0.5
50
0
0
INSERT
5
919
100
AcDbEntity
8
F_Cu_____________
62
256
100
AcDbBlockReference
2
UNIT_DISC
10
31.8983
20
-12.2084
41
0.5
42
0.5
50
0
0
LWPOLYLINE
5
920
100
AcDbEntity
8
F_Cu_____________
62
256
100
AcDbPolyline
90
2
70
0
43
0.5
10
31.8983
20
-12.2084
10
31.8923
20
-12.2548
0
INSERT
5
921
100
AcDbEntity
8
F_Cu_____________
62
256
100
AcDbBlockReference
2
UNIT_DISC
10
31.8923
20
-12.2548
41
0.5
42
0.5
50
0
0
INSERT
5
922
100
AcDbEntity
8
F_Cu_____________
62
256
100
AcDbBlockReference
2
UNIT_DISC
10
31.8923
20
-12.2548
41
0.5
42
0.5
50
0
0
LWPOLYLINE
5
923
100
AcDbEntity
8
F_Cu_____________
62
256
100
AcDbPolyline
90
2
70
0
43
0.5
10
31.8923
20
-12.2548
10
31.8915
20
-12.2605
0
INSERT
5
924
100
AcDbEntity
8
F_Cu_____________
62
256
100
AcDbBlockReference
2
UNIT_DISC
10
31.8915
20
-12.2605
41
0.5
42
0.5
50
0
0
INSERT
5
925
100
AcDbEntity
8
F_Cu_____________
62
256
100
AcDbBlockReference
2
UNIT_DISC
10
31.8915
20
-12.2605
41
0.5
42
0.5
50
0
0
LWPOLYLINE
5
926
100
AcDbEntity
8
F_Cu_____________
62
256
100
AcDbPolyline
90
2
70
0
43
0.5
10
31.8915
20
-12.2605
10
31.8883
20
-12.2859
0
INSERT
5
927
100
AcDbEntity
8
F_Cu_____________
62
256
100
AcDbBlockReference
2
UNIT_DISC
10
31.8883
20
-12.2859
41
0.5
42
0.5
50
0
0
INSERT
5
928
100
AcDbEntity
8
F_Cu_____________
62
256
100
AcDbBlockReference
2
UNIT_DISC
10
31.8883
20
-12.2859
41
0.5
42
0.5
50
0
0
INSERT
5
929
100
AcDbEntity
8
F_Cu_____________
62
256
100
AcDbBlockReference
2
UNIT_DISC
10
31.876
20
-12.5737
41
0.5
42
0.5
50
0
0
LWPOLYLINE
5
930
100
AcDbEntity
8
F_Cu_____________
62
256
100
AcDbPolyline
90
2
70
0
43
0.5
10
31.8883
20
-12.2859
42
0.041198
10
31.876
20
-12.5737
0
INSERT
5
931
100
AcDbEntity
8
F_Cu_____________
62
256
100
AcDbBlockReference
2
UNIT_DISC
10
31.876
20
-12.5737
41
0.5
42
0.5
50
0
0
LWPOLYLINE
5
932
100
AcDbEntity
8
F_Cu_____________
62
256
100
AcDbPolyline
90
2
70
0
43
0.5
10
31.876
20
-12.5737
10
32.2029
20
-20.875
0
INSERT
5
933
100
AcDbEntity
8
F_Cu_____________
62
256
100
AcDbBlockReference
2
UNIT_DISC
10
32.2029
20
-20.875
41
0.5
42
0.5
50
0
0
INSERT
5
934
100
AcDbEntity
8
F_Cu_____________
62
256
100
AcDbBlockReference
2
UNIT_DISC
10
52.9737
20
-14.2244
41
0.5
42
0.5
50
0
0
LWPOLYLINE
5
935
100
AcDbEntity
8
F_Cu_____________
62
256
100
AcDbPolyline
90
2
70
0
43
0.5
10
52.9737
20
-14.2244
10
53.9227
20
-13.5836
0
INSERT
5
936
100
AcDbEntity
8
F_Cu_____________
62
256
100
AcDbBlockReference
2
UNIT_DISC
10
53.9227
20
-13.5836
41
0.5
42
0.5
50
0
0
INSERT
5
937
100
AcDbEntity
8
F_Cu_____________
62
256
100
AcDbBlockReference
2
UNIT_DISC
10
53.9227
20
-13.5836
41
0.5
42
0.5
50
0
0
LWPOLYLINE
5
938
100
AcDbEntity
8
F_Cu_____________
62
256
100
AcDbPolyline
90
2
70
0
43
0.5
10
53.9227
20
-13.5836
10
53.9244
20
-13.5831
0
INSERT
5
939
100
AcDbEntity
8
F_Cu_____________
62
256
100
AcDbBlockReference
2
UNIT_DISC
10
53.9244
20
-13.5831
41
0.5
42
0.5
50
0
0
INSERT
5
940
100
AcDbEntity
8
F_Cu_____________
62
256
100
AcDbBlockReference
2
UNIT_DISC
10
53.9244
20
-13.5831
41
0.5
42
0.5
50
0
0
INSERT
5
941
100
AcDbEntity
8
F_Cu_____________
62
256
100
AcDbBlockReference
2
UNIT_DISC
10
53.9465
20
-13.5687
41
0.5
42
0.5
50
0
0
LWPOLYLINE
5
942
100
AcDbEntity
8
F_Cu_____________
62
256
100
AcDbPolyline
90
2
70
0
43
0.5
10
53.9244
20
-13.5831
42
0.137373
10
53.9465
20
-13.5687
0
INSERT
5
943
100
AcDbEntity
8
F_Cu_____________
62
256
100
AcDbBlockReference
2
UNIT_DISC
10
53.9465
20
-13.5687
41
0.5
42
0.5
50
0
0
LWPOLYLINE
5
944
100
AcDbEntity
8
F_Cu_____________
62
256
100
AcDbPolyline
90
2
70
0
43
0.5
10
53.9465
20
-13.5687
10
59.3042
20
-7.4671
0
INSERT
5
945
100
AcDbEntity
8
F_Cu_____________
62
256
100
AcDbBlockReference
2
UNIT_DISC
10
59.3042
20
-7.4671
41
0.5
42
0.5
50
0
0
INSERT
5
946
100
AcDbEntity
8
F_Cu_____________
62
256
100
AcDbBlockReference
2
UNIT_DISC
10
53.1508
20
-16.7582
41
0.5
42
0.5
50
0
0
LWPOLYLINE
5
947
100
AcDbEntity
8
F_Cu_____________
62
256
100
AcDbPolyline
90
2
70
0
43
0.5
10
53.1508
20
-16.7582
10
54.0569
20
-16.0315
0
INSERT
5
948
100
AcDbEntity
8
F_Cu_____________
62
256
100
AcDbBlockReference
2
UNIT_DISC
10
54.0569
20
-16.0315
41
0.5
42
0.5
50
0
0
INSERT
5
949
100
AcDbEntity
8
F_Cu_____________
62
256
100
AcDbBlockReference
2
UNIT_DISC
10
54.0569
20
-16.0315
41
0.5
42
0.5
50
0
0
LWPOLYLINE
5
950
100
AcDbEntity
8
F_Cu_____________
62
256
100
AcDbPolyline
90
2
70
0
43
0.5
10
54.0569
20
-16.0315
10
54.0588
20
-16.0298
0
INSERT
5
951
100
AcDbEntity
8
F_Cu_____________
62
256
100
AcDbBlockReference
2
UNIT_DISC
10
54.0588
20
-16.0298
41
0.5
42
0.5
50
0
0
INSERT
5
952
100
AcDbEntity
8
F_Cu_____________
62
256
100
AcDbBlockReference
2
UNIT_DISC
10
54.0588
20
-16.0298
41
0.5
42
0.5
50
0
0
LWPOLYLINE
5
953
100
AcDbEntity
8
F_Cu_____________
62
256
100
AcDbPolyline
90
2
70
0
43
0.5
10
54.0588
20
-16.0298
10
54.0657
20
-16.0226
0
INSERT
5
954
100
AcDbEntity
8
F_Cu_____________
62
256
100
AcDbBlockReference
2
UNIT_DISC
10
54.0657
20
-16.0226
41
0.5
42
0.5
50
0
0
INSERT
5
955
100
AcDbEntity
8
F_Cu_____________
62
256
100
AcDbBlockReference
2
UNIT_DISC
10
54.0657
20
-16.0226
41
0.5
42
0.5
50
0
0
LWPOLYLINE
5
956
100
AcDbEntity
8
F_Cu_____________
62
256
100
AcDbPolyline
90
2
70
0
43
0.5
10
54.0657
20
-16.0226
10
60.1377
20
-8.1065
0
INSERT
5
957
100
AcDbEntity
8
F_Cu_____________
62
256
100
AcDbBlockReference
2
UNIT_DISC
10
60.1377
20
-8.1065
41
0.5
42
0.5
50
0
0
INSERT
5
958
100
AcDbEntity
8
F_Cu_____________
62
256
100
AcDbBlockReference
2
UNIT_DISC
10
60.1377
20
-8.1065
41
0.5
42
0.5
50
0
0
INSERT
5
959
100
AcDbEntity
8
F_Cu_____________
62
256
100
AcDbBlockReference
2
UNIT_DISC
10
60.3322
20
-7.251
41
0.5
42
0.5
50
0
0
LWPOLYLINE
5
960
100
AcDbEntity
8
F_Cu_____________
62
256
100
AcDbPolyline
90
2
70
0
43
0.5
10
60.1377
20
-8.1065
42
0.218786
10
60.3322
20
-7.251
0
INSERT
5
961
100
AcDbEntity
8
F_Cu_____________
62
256
100
AcDbBlockReference
2
UNIT_DISC
10
60.3322
20
-7.251
41
0.5
42
0.5
50
0
0
LWPOLYLINE
5
962
100
AcDbEntity
8
F_Cu_____________
62
256
100
AcDbPolyline
90
2
70
0
43
0.5
10
60.3322
20
-7.251
10
59.9252
20
-5.3149
0
INSERT
5
963
100
AcDbEntity
8
F_Cu_____________
62
256
100
AcDbBlockReference
2
UNIT_DISC
10
59.9252
20
-5.3149
41
0.5
42
0.5
50
0
0
INSERT
5
964
100
AcDbEntity
8
F_Cu_____________
62
256
100
AcDbBlockReference
2
UNIT_DISC
10
35.1923
20
-20.5602
41
0.5
42
0.5
50
0
0
LWPOLYLINE
5
965
100
AcDbEntity
8
F_Cu_____________
62
256
100
AcDbPolyline
90
2
70
0
43
0.5
10
35.1923
20
-20.5602
10
34.1939
20
-19.9667
0
INSERT
5
966
100
AcDbEntity
8
F_Cu_____________
62
256
100
AcDbBlockReference
2
UNIT_DISC
10
34.1939
20
-19.9667
41
0.5
42
0.5
50
0
0
INSERT
5
967
100
AcDbEntity
8
F_Cu_____________
62
256
100
AcDbBlockReference
2
UNIT_DISC
10
34.1939
20
-19.9667
41
0.5
42
0.5
50
0
0
LWPOLYLINE
5
968
100
AcDbEntity
8
F_Cu_____________
62
256
100
AcDbPolyline
90
2
70
0
43
0.5
10
34.1939
20
-19.9667
10
34.1919
20
-19.9654
0
INSERT
5
969
100
AcDbEntity
8
F_Cu_____________
62
256
100
AcDbBlockReference
2
UNIT_DISC
10
34.1919
20
-19.9654
41
0.5
42
0.5
50
0
0
INSERT
5
970
100
AcDbEntity
8
F_Cu_____________
62
256
100
AcDbBlockReference
2
UNIT_DISC
10
34.182
20
-19.957
41
0.5
42
0.5
50
0
0
INSERT
5
971
100
AcDbEntity
8
F_Cu_____________
62
256
100
AcDbBlockReference
2
UNIT_DISC
10
34.1919
20
-19.9654
41
0.5
42
0.5
50
0
0
LWPOLYLINE
5
972
100
AcDbEntity
8
F_Cu_____________
62
256
100
AcDbPolyline
90
2
70
0
43
0.5
10
34.182
20
-19.957
42
0.066722
10
34.1919
20
-19.9654
0
INSERT
5
973
100
AcDbEntity
8
F_Cu_____________
62
256
100
AcDbBlockReference
2
UNIT_DISC
10
34.182
20
-19.957
41
0.5
42
0.5
50
0
0
LWPOLYLINE
5
974
100
AcDbEntity
8
F_Cu_____________
62
256
100
AcDbPolyline
90
2
70
0
43
0.5
10
34.182
20
-19.957
10
33.5828
20
-19.2955
0
INSERT
5
975
100
AcDbEntity
8
F_Cu_____________
62
256
100
AcDbBlockReference
2
UNIT_DISC
10
33.5828
20
-19.2955
41
0.5
42
0.5
50
0
0
INSERT
5
976
100
AcDbEntity
8
F_Cu_____________
62
256
100
AcDbBlockReference
2
UNIT_DISC
10
33.5458
20
-19.2515
41
0.5
42
0.5
50
0
0
INSERT
5
977
100
AcDbEntity
8
F_Cu_____________
62
256
100
AcDbBlockReference
2
UNIT_DISC
10
33.5828
20
-19.2955
41
0.5
42
0.5
50
0
0
LWPOLYLINE
5
978
100
AcDbEntity
8
F_Cu_____________
62
256
100
AcDbPolyline
90
2
70
0
43
0.5
10
33.5458
20
-19.2515
42
0.019157
10
33.5828
20
-19.2955
0
INSERT
5
979
100
AcDbEntity
8
F_Cu_____________
62
256
100
AcDbBlockReference
2
UNIT_DISC
10
33.5458
20
-19.2515
41
0.5
42
0.5
50
0
0
LWPOLYLINE
5
980
100
AcDbEntity
8
F_Cu_____________
62
256
100
AcDbPolyline
90
2
70
0
43
0.5
10
33.5458
20
-19.2515
10
33.4858
20
-19.1741
0
INSERT
5
981
100
AcDbEntity
8
F_Cu_____________
62
256
100
AcDbBlockReference
2
UNIT_DISC
10
33.4858
20
-19.1741
41
0.5
42
0.5
50
0
0
INSERT
5
982
100
AcDbEntity
8
F_Cu_____________
62
256
100
AcDbBlockReference
2
UNIT_DISC
10
33.355
20
-18.912
41
0.5
42
0.5
50
0
0
INSERT
5
983
100
AcDbEntity
8
F_Cu_____________
62
256
100
AcDbBlockReference
2
UNIT_DISC
10
33.4858
20
-19.1741
41
0.5
42
0.5
50
0
0
LWPOLYLINE
5
984
100
AcDbEntity
8
F_Cu_____________
62
256
100
AcDbPolyline
90
2
70
0
43
0.5
10
33.355
20
-18.912
42
0.098521
10
33.4858
20
-19.1741
0
INSERT
5
985
100
AcDbEntity
8
F_Cu_____________
62
256
100
AcDbBlockReference
2
UNIT_DISC
10
33.355
20
-18.912
41
0.5
42
0.5
50
0
0
LWPOLYLINE
5
986
100
AcDbEntity
8
F_Cu_____________
62
256
100
AcDbPolyline
90
2
70
0
43
0.5
10
33.355
20
-18.912
10
33.3292
20
-18.8175
0
INSERT
5
987
100
AcDbEntity
8
F_Cu_____________
62
256
100
AcDbBlockReference
2
UNIT_DISC
10
33.3292
20
-18.8175
41
0.5
42
0.5
50
0
0
INSERT
5
988
100
AcDbEntity
8
F_Cu_____________
62
256
100
AcDbBlockReference
2
UNIT_DISC
10
33.3045
20
-18.6723
41
0.5
42
0.5
50
0
0
INSERT
5
989
100
AcDbEntity
8
F_Cu_____________
62
256
100
AcDbBlockReference
2
UNIT_DISC
10
33.3292
20
-18.8175
41
0.5
42
0.5
50
0
0
LWPOLYLINE
5
990
100
AcDbEntity
8
F_Cu_____________
62
256
100
AcDbPolyline
90
2
70
0
43
0.5
10
33.3045
20
-18.6723
42
0.04918
10
33.3292
20
-18.8175
0
INSERT
5
991
100
AcDbEntity
8
F_Cu_____________
62
256
100
AcDbBlockReference
2
UNIT_DISC
10
33.3045
20
-18.6723
41
0.5
42
0.5
50
0
0
LWPOLYLINE
5
992
100
AcDbEntity
8
F_Cu_____________
62
256
100
AcDbPolyline
90
2
70
0
43
0.5
10
33.3045
20
-18.6723
10
33.287
20
-18.4229
0
INSERT
5
993
100
AcDbEntity
8
F_Cu_____________
62
256
100
AcDbBlockReference
2
UNIT_DISC
10
33.287
20
-18.4229
41
0.5
42
0.5
50
0
0
INSERT
5
994
100
AcDbEntity
8
F_Cu_____________
62
256
100
AcDbBlockReference
2
UNIT_DISC
10
33.287
20
-18.4229
41
0.5
42
0.5
50
0
0
LWPOLYLINE
5
995
100
AcDbEntity
8
F_Cu_____________
62
256
100
AcDbPolyline
90
2
70
0
43
0.5
10
33.287
20
-18.4229
10
33.287
20
-18.4228
0
INSERT
5
996
100
AcDbEntity
8
F_Cu_____________
62
256
100
AcDbBlockReference
2
UNIT_DISC
10
33.287
20
-18.4228
41
0.5
42
0.5
50
0
0
INSERT
5
997
100
AcDbEntity
8
F_Cu_____________
62
256
100
AcDbBlockReference
2
UNIT_DISC
10
33.287
20
-18.4228
41
0.5
42
0.5
50
0
0
LWPOLYLINE
5
998
100
AcDbEntity
8
F_Cu_____________
62
256
100
AcDbPolyline
90
2
70
0
43
0.5
10
33.287
20
-18.4228
10
33.0714
20
-15.3404
0
INSERT
5
999
100
AcDbEntity
8
F_Cu_____________
62
256
100
AcDbBlockReference
2
UNIT_DISC
10
33.0714
20
-15.3404
41
0.5
42
0.5
50
0
0
INSERT
5
1000
100
AcDbEntity
8
F_Cu_____________
62
256
100
AcDbBlockReference
2
UNIT_DISC
10
33.0714
20
-15.3404
41
0.5
42
0.5
50
0
0
LWPOLYLINE
5
1001
100
AcDbEntity
8
F_Cu_____________
62
256
100
AcDbPolyline
90
2
70
0
43
0.5
10
33.0714
20
-15.3404
10
33.0714
20
-15.3403
0
INSERT
5
1002
100
AcDbEntity
8
F_Cu_____________
62
256
100
AcDbBlockReference
2
UNIT_DISC
10
33.0714
20
-15.3403
41
0.5
42
0.5
50
0
0
INSERT
5
1003
100
AcDbEntity
8
F_Cu_____________
62
256
100
AcDbBlockReference
2
UNIT_DISC
10
33.0714
20
-15.3403
41
0.5
42
0.5
50
0
0
LWPOLYLINE
5
1004
100
AcDbEntity
8
F_Cu_____________
62
256
100
AcDbPolyline
90
2
70
0
43
0.5
10
33.0714
20
-15.3403
10
32.8786
20
-12.5826
0
INSERT
5
1005
100
AcDbEntity
8
F_Cu_____________
62
256
100
AcDbBlockReference
2
UNIT_DISC
10
32.8786
20
-12.5826
41
0.5
42
0.5
50
0
0
INSERT
5
1006
100
AcDbEntity
8
F_Cu_____________
62
256
100
AcDbBlockReference
2
UNIT_DISC
10
32.8786
20
-12.5826
41
0.5
42
0.5
50
0
0
LWPOLYLINE
5
1007
100
AcDbEntity
8
F_Cu_____________
62
256
100
AcDbPolyline
90
2
70
0
43
0.5
10
32.8786
20
-12.5826
10
32.8785
20
-12.5802
0
INSERT
5
1008
100
AcDbEntity
8
F_Cu_____________
62
256
100
AcDbBlockReference
2
UNIT_DISC
10
32.8785
20
-12.5802
41
0.5
42
0.5
50
0
0
INSERT
5
1009
100
AcDbEntity
8
F_Cu_____________
62
256
100
AcDbBlockReference
2
UNIT_DISC
10
32.8785
20
-12.5802
41
0.5
42
0.5
50
0
0
LWPOLYLINE
5
1010
100
AcDbEntity
8
F_Cu_____________
62
256
100
AcDbPolyline
90
2
70
0
43
0.5
10
32.8785
20
-12.5802
10
32.8768
20
-12.5547
0
INSERT
5
1011
100
AcDbEntity
8
F_Cu_____________
62
256
100
AcDbBlockReference
2
UNIT_DISC
10
32.8768
20
-12.5547
41
0.5
42
0.5
50
0
0
INSERT
5
1012
100
AcDbEntity
8
F_Cu_____________
62
256
100
AcDbBlockReference
2
UNIT_DISC
10
32.881
20
-12.411
41
0.5
42
0.5
50
0
0
INSERT
5
1013
100
AcDbEntity
8
F_Cu_____________
62
256
100
AcDbBlockReference
2
UNIT_DISC
10
32.8768
20
-12.5547
41
0.5
42
0.5
50
0
0
LWPOLYLINE
5
1014
100
AcDbEntity
8
F_Cu_____________
62
256
100
AcDbPolyline
90
2
70
0
43
0.5
10
32.881
20
-12.411
42
0.048001
10
32.8768
20
-12.5547
0
INSERT
5
1015
100
AcDbEntity
8
F_Cu_____________
62
256
100
AcDbBlockReference
2
UNIT_DISC
10
32.881
20
-12.411
41
0.5
42
0.5
50
0
0
LWPOLYLINE
5
1016
100
AcDbEntity
8
F_Cu_____________
62
256
100
AcDbPolyline
90
2
70
0
43
0.5
10
32.881
20
-12.411
10
32.8842
20
-12.3856
0
INSERT
5
1017
100
AcDbEntity
8
F_Cu_____________
62
256
100
AcDbBlockReference
2
UNIT_DISC
10
32.8842
20
-12.3856
41
0.5
42
0.5
50
0
0
INSERT
5
1018
100
AcDbEntity
8
F_Cu_____________
62
256
100
AcDbBlockReference
2
UNIT_DISC
10
32.8842
20
-12.3856
41
0.5
42
0.5
50
0
0
LWPOLYLINE
5
1019
100
AcDbEntity
8
F_Cu_____________
62
256
100
AcDbPolyline
90
2
70
0
43
0.5
10
32.8842
20
-12.3856
10
32.8845
20
-12.3832
0
INSERT
5
1020
100
AcDbEntity
8
F_Cu_____________
62
256
100
AcDbBlockReference
2
UNIT_DISC
10
32.8845
20
-12.3832
41
0.5
42
0.5
50
0
0
INSERT
5
1021
100
AcDbEntity
8
F_Cu_____________
62
256
100
AcDbBlockReference
2
UNIT_DISC
10
32.8845
20
-12.3832
41
0.5
42
0.5
50
0
0
LWPOLYLINE
5
1022
100
AcDbEntity
8
F_Cu_____________
62
256
100
AcDbPolyline
90
2
70
0
43
0.5
10
32.8845
20
-12.3832
10
32.8905
20
-12.3368
0
INSERT
5
1023
100
AcDbEntity
8
F_Cu_____________
62
256
100
AcDbBlockReference
2
UNIT_DISC
10
32.8905
20
-12.3368
41
0.5
42
0.5
50
0
0
INSERT
5
1024
100
AcDbEntity
8
F_Cu_____________
62
256
100
AcDbBlockReference
2
UNIT_DISC
10
32.8905
20
-12.3368
41
0.5
42
0.5
50
0
0
LWPOLYLINE
5
1025
100
AcDbEntity
8
F_Cu_____________
62
256
100
AcDbPolyline
90
2
70
0
43
0.5
10
32.8905
20
-12.3368
10
32.8906
20
-12.3359
0
INSERT
5
1026
100
AcDbEntity
8
F_Cu_____________
62
256
100
AcDbBlockReference
2
UNIT_DISC
10
32.8906
20
-12.3359
41
0.5
42
0.5
50
0
0
INSERT
5
1027
100
AcDbEntity
8
F_Cu_____________
62
256
100
AcDbBlockReference
2
UNIT_DISC
10
32.8906
20
-12.3359
41
0.5
42
0.5
50
0
0
LWPOLYLINE
5
1028
100
AcDbEntity
8
F_Cu_____________
62
256
100
AcDbPolyline
90
2
70
0
43
0.5
10
32.8906
20
-12.3359
10
32.8939
20
-12.3106
0
INSERT
5
1029
100
AcDbEntity
8
F_Cu_____________
62
256
100
AcDbBlockReference
2
UNIT_DISC
10
32.8939
20
-12.3106
41
0.5
42
0.5
50
0
0
INSERT
5
1030
100
AcDbEntity
8
F_Cu_____________
62
256
100
AcDbBlockReference
2
UNIT_DISC
10
32.9865
20
-12.0352
41
0.5
42
0.5
50
0
0
INSERT
5
1031
100
AcDbEntity
8
F_Cu_____________
62
256
100
AcDbBlockReference
2
UNIT_DISC
10
32.8939
20
-12.3106
41
0.5
42
0.5
50
0
0
LWPOLYLINE
5
1032
100
AcDbEntity
8
F_Cu_____________
62
256
100
AcDbPolyline
90
2
70
0
43
0.5
10
32.9865
20
-12.0352
42
0.097705
10
32.8939
20
-12.3106
0
INSERT
5
1033
100
AcDbEntity
8
F_Cu_____________
62
256
100
AcDbBlockReference
2
UNIT_DISC
10
32.9865
20
-12.0352
41
0.5
42
0.5
50
0
0
LWPOLYLINE
5
1034
100
AcDbEntity
8
F_Cu_____________
62
256
100
AcDbPolyline
90
2
70
0
43
0.5
10
32.9865
20
-12.0352
10
33.0224
20
-11.9724
0
INSERT
5
1035
100
AcDbEntity
8
F_Cu_____________
62
256
100
AcDbBlockReference
2
UNIT_DISC
10
33.0224
20
-11.9724
41
0.5
42
0.5
50
0
0
INSERT
5
1036
100
AcDbEntity
8
F_Cu_____________
62
256
100
AcDbBlockReference
2
UNIT_DISC
10
33.0224
20
-11.9724
41
0.5
42
0.5
50
0
0
LWPOLYLINE
5
1037
100
AcDbEntity
8
F_Cu_____________
62
256
100
AcDbPolyline
90
2
70
0
43
0.5
10
33.0224
20
-11.9724
10
33.0226
20
-11.9722
0
INSERT
5
1038
100
AcDbEntity
8
F_Cu_____________
62
256
100
AcDbBlockReference
2
UNIT_DISC
10
33.0226
20
-11.9722
41
0.5
42
0.5
50
0
0
INSERT
5
1039
100
AcDbEntity
8
F_Cu_____________
62
256
100
AcDbBlockReference
2
UNIT_DISC
10
33.0226
20
-11.9722
41
0.5
42
0.5
50
0
0
LWPOLYLINE
5
1040
100
AcDbEntity
8
F_Cu_____________
62
256
100
AcDbPolyline
90
2
70
0
43
0.5
10
33.0226
20
-11.9722
10
33.0353
20
-11.95
0
INSERT
5
1041
100
AcDbEntity
8
F_Cu_____________
62
256
100
AcDbBlockReference
2
UNIT_DISC
10
33.0353
20
-11.95
41
0.5
42
0.5
50
0
0
INSERT
5
1042
100
AcDbEntity
8
F_Cu_____________
62
256
100
AcDbBlockReference
2
UNIT_DISC
10
33.1317
20
-11.8176
41
0.5
42
0.5
50
0
0
INSERT
5
1043
100
AcDbEntity
8
F_Cu_____________
62
256
100
AcDbBlockReference
2
UNIT_DISC
10
33.0353
20
-11.95
41
0.5
42
0.5
50
0
0
LWPOLYLINE
5
1044
100
AcDbEntity
8
F_Cu_____________
62
256
100
AcDbPolyline
90
2
70
0
43
0.5
10
33.1317
20
-11.8176
42
0.054722
10
33.0353
20
-11.95
0
INSERT
5
1045
100
AcDbEntity
8
F_Cu_____________
62
256
100
AcDbBlockReference
2
UNIT_DISC
10
33.1317
20
-11.8176
41
0.5
42
0.5
50
0
0
LWPOLYLINE
5
1046
100
AcDbEntity
8
F_Cu_____________
62
256
100
AcDbPolyline
90
2
70
0
43
0.5
10
33.1317
20
-11.8176
10
34.7138
20
-10.0792
0
INSERT
5
1047
100
AcDbEntity
8
F_Cu_____________
62
256
100
AcDbBlockReference
2
UNIT_DISC
10
34.7138
20
-10.0792
41
0.5
42
0.5
50
0
0
INSERT
5
1048
100
AcDbEntity
8
F_Cu_____________
62
256
100
AcDbBlockReference
2
UNIT_DISC
10
34.747
20
-10.0457
41
0.5
42
0.5
50
0
0
INSERT
5
1049
100
AcDbEntity
8
F_Cu_____________
62
256
100
AcDbBlockReference
2
UNIT_DISC
10
34.7138
20
-10.0792
41
0.5
42
0.5
50
0
0
LWPOLYLINE
5
1050
100
AcDbEntity
8
F_Cu_____________
62
256
100
AcDbPolyline
90
2
70
0
43
0.5
10
34.747
20
-10.0457
42
0.02143
10
34.7138
20
-10.0792
0
INSERT
5
1051
100
AcDbEntity
8
F_Cu_____________
62
256
100
AcDbBlockReference
2
UNIT_DISC
10
34.747
20
-10.0457
41
0.5
42
0.5
50
0
0
LWPOLYLINE
5
1052
100
AcDbEntity
8
F_Cu_____________
62
256
100
AcDbPolyline
90
2
70
0
43
0.5
10
34.747
20
-10.0457
10
34.7658
20
-10.0283
0
INSERT
5
1053
100
AcDbEntity
8
F_Cu_____________
62
256
100
AcDbBlockReference
2
UNIT_DISC
10
34.7658
20
-10.0283
41
0.5
42
0.5
50
0
0
INSERT
5
1054
100
AcDbEntity
8
F_Cu_____________
62
256
100
AcDbBlockReference
2
UNIT_DISC
10
34.7658
20
-10.0283
41
0.5
42
0.5
50
0
0
LWPOLYLINE
5
1055
100
AcDbEntity
8
F_Cu_____________
62
256
100
AcDbPolyline
90
2
70
0
43
0.5
10
34.7658
20
-10.0283
10
34.7667
20
-10.0275
0
INSERT
5
1056
100
AcDbEntity
8
F_Cu_____________
62
256
100
AcDbBlockReference
2
UNIT_DISC
10
34.7667
20
-10.0275
41
0.5
42
0.5
50
0
0
INSERT
5
1057
100
AcDbEntity
8
F_Cu_____________
62
256
100
AcDbBlockReference
2
UNIT_DISC
10
34.7667
20
-10.0275
41
0.5
42
0.5
50
0
0
LWPOLYLINE
5
1058
100
AcDbEntity
8
F_Cu_____________
62
256
100
AcDbPolyline
90
2
70
0
43
0.5
10
34.7667
20
-10.0275
10
34.8583
20
-9.9431
0
INSERT
5
1059
100
AcDbEntity
8
F_Cu_____________
62
256
100
AcDbBlockReference
2
UNIT_DISC
10
34.8583
20
-9.9431
41
0.5
42
0.5
50
0
0
INSERT
5
1060
100
AcDbEntity
8
F_Cu_____________
62
256
100
AcDbBlockReference
2
UNIT_DISC
10
34.8798
20
-9.9242
41
0.5
42
0.5
50
0
0
INSERT
5
1061
100
AcDbEntity
8
F_Cu_____________
62
256
100
AcDbBlockReference
2
UNIT_DISC
10
34.8583
20
-9.9431
41
0.5
42
0.5
50
0
0
LWPOLYLINE
5
1062
100
AcDbEntity
8
F_Cu_____________
62
256
100
AcDbPolyline
90
2
70
0
43
0.5
10
34.8798
20
-9.9242
42
0.013003
10
34.8583
20
-9.9431
0
INSERT
5
1063
100
AcDbEntity
8
F_Cu_____________
62
256
100
AcDbBlockReference
2
UNIT_DISC
10
34.8798
20
-9.9242
41
0.5
42
0.5
50
0
0
LWPOLYLINE
5
1064
100
AcDbEntity
8
F_Cu_____________
62
256
100
AcDbPolyline
90
2
70
0
43
0.5
10
34.8798
20
-9.9242
10
34.9954
20
-9.8283
0
INSERT
5
1065
100
AcDbEntity
8
F_Cu_____________
62
256
100
AcDbBlockReference
2
UNIT_DISC
10
34.9954
20
-9.8283
41
0.5
42
0.5
50
0
0
INSERT
5
1066
100
AcDbEntity
8
F_Cu_____________
62
256
100
AcDbBlockReference
2
UNIT_DISC
10
35.0319
20
-9.8005
41
0.5
42
0.5
50
0
0
INSERT
5
1067
100
AcDbEntity
8
F_Cu_____________
62
256
100
AcDbBlockReference
2
UNIT_DISC
10
34.9954
20
-9.8283
41
0.5
42
0.5
50
0
0
LWPOLYLINE
5
1068
100
AcDbEntity
8
F_Cu_____________
62
256
100
AcDbPolyline
90
2
70
0
43
0.5
10
35.0319
20
-9.8005
42
0.020844
10
34.9954
20
-9.8283
0
INSERT
5
1069
100
AcDbEntity
8
F_Cu_____________
62
256
100
AcDbBlockReference
2
UNIT_DISC
10
35.0319
20
-9.8005
41
0.5
42
0.5
50
0
0
LWPOLYLINE
5
1070
100
AcDbEntity
8
F_Cu_____________
62
256
100
AcDbPolyline
90
2
70
0
43
0.5
10
35.0319
20
-9.8005
10
35.1546
20
-9.7149
0
INSERT
5
1071
100
AcDbEntity
8
F_Cu_____________
62
256
100
AcDbBlockReference
2
UNIT_DISC
10
35.1546
20
-9.7149
41
0.5
42
0.5
50
0
0
INSERT
5
1072
100
AcDbEntity
8
F_Cu_____________
62
256
100
AcDbBlockReference
2
UNIT_DISC
10
35.1815
20
-9.6973
41
0.5
42
0.5
50
0
0
INSERT
5
1073
100
AcDbEntity
8
F_Cu_____________
62
256
100
AcDbBlockReference
2
UNIT_DISC
10
35.1546
20
-9.7149
41
0.5
42
0.5
50
0
0
LWPOLYLINE
5
1074
100
AcDbEntity
8
F_Cu_____________
62
256
100
AcDbPolyline
90
2
70
0
43
0.5
10
35.1815
20
-9.6973
42
0.014601
10
35.1546
20
-9.7149
0
INSERT
5
1075
100
AcDbEntity
8
F_Cu_____________
62
256
100
AcDbBlockReference
2
UNIT_DISC
10
35.1815
20
-9.6973
41
0.5
42
0.5
50
0
0
LWPOLYLINE
5
1076
100
AcDbEntity
8
F_Cu_____________
62
256
100
AcDbPolyline
90
2
70
0
43
0.5
10
35.1815
20
-9.6973
10
35.3072
20
-9.6201
0
INSERT
5
1077
100
AcDbEntity
8
F_Cu_____________
62
256
100
AcDbBlockReference
2
UNIT_DISC
10
35.3072
20
-9.6201
41
0.5
42
0.5
50
0
0
INSERT
5
1078
100
AcDbEntity
8
F_Cu_____________
62
256
100
AcDbBlockReference
2
UNIT_DISC
10
35.3423
20
-9.6003
41
0.5
42
0.5
50
0
0
INSERT
5
1079
100
AcDbEntity
8
F_Cu_____________
62
256
100
AcDbBlockReference
2
UNIT_DISC
10
35.3072
20
-9.6201
41
0.5
42
0.5
50
0
0
LWPOLYLINE
5
1080
100
AcDbEntity
8
F_Cu_____________
62
256
100
AcDbPolyline
90
2
70
0
43
0.5
10
35.3423
20
-9.6003
42
0.018308
10
35.3072
20
-9.6201
0
INSERT
5
1081
100
AcDbEntity
8
F_Cu_____________
62
256
100
AcDbBlockReference
2
UNIT_DISC
10
35.3423
20
-9.6003
41
0.5
42
0.5
50
0
0
LWPOLYLINE
5
1082
100
AcDbEntity
8
F_Cu_____________
62
256
100
AcDbPolyline
90
2
70
0
43
0.5
10
35.3423
20
-9.6003
10
35.3651
20
-9.5885
0
INSERT
5
1083
100
AcDbEntity
8
F_Cu_____________
62
256
100
AcDbBlockReference
2
UNIT_DISC
10
35.3651
20
-9.5885
41
0.5
42
0.5
50
0
0
INSERT
5
1084
100
AcDbEntity
8
F_Cu_____________
62
256
100
AcDbBlockReference
2
UNIT_DISC
10
35.3651
20
-9.5885
41
0.5
42
0.5
50
0
0
LWPOLYLINE
5
1085
100
AcDbEntity
8
F_Cu_____________
62
256
100
AcDbPolyline
90
2
70
0
43
0.5
10
35.3651
20
-9.5885
10
35.366
20
-9.588
0
INSERT
5
1086
100
AcDbEntity
8
F_Cu_____________
62
256
100
AcDbBlockReference
2
UNIT_DISC
10
35.366
20
-9.588
41
0.5
42
0.5
50
0
0
INSERT
5
1087
100
AcDbEntity
8
F_Cu_____________
62
256
100
AcDbBlockReference
2
UNIT_DISC
10
35.366
20
-9.588
41
0.5
42
0.5
50
0
0
LWPOLYLINE
5
1088
100
AcDbEntity
8
F_Cu_____________
62
256
100
AcDbPolyline
90
2
70
0
43
0.5
10
35.366
20
-9.588
10
35.479
20
-9.5298
0
INSERT
5
1089
100
AcDbEntity
8
F_Cu_____________
62
256
100
AcDbBlockReference
2
UNIT_DISC
10
35.479
20
-9.5298
41
0.5
42
0.5
50
0
0
INSERT
5
1090
100
AcDbEntity
8
F_Cu_____________
62
256
100
AcDbBlockReference
2
UNIT_DISC
10
35.5145
20
-9.5131
41
0.5
42
0.5
50
0
0
INSERT
5
1091
100
AcDbEntity
8
F_Cu_____________
62
256
100
AcDbBlockReference
2
UNIT_DISC
10
35.479
20
-9.5298
41
0.5
42
0.5
50
0
0
LWPOLYLINE
5
1092
100
AcDbEntity
8
F_Cu_____________
62
256
100
AcDbPolyline
90
2
70
0
43
0.5
10
35.5145
20
-9.5131
42
0.017822
10
35.479
20
-9.5298
0
INSERT
5
1093
100
AcDbEntity
8
F_Cu_____________
62
256
100
AcDbBlockReference
2
UNIT_DISC
10
35.5145
20
-9.5131
41
0.5
42
0.5
50
0
0
LWPOLYLINE
5
1094
100
AcDbEntity
8
F_Cu_____________
62
256
100
AcDbPolyline
90
2
70
0
43
0.5
10
35.5145
20
-9.5131
10
35.5381
20
-9.503
0
INSERT
5
1095
100
AcDbEntity
8
F_Cu_____________
62
256
100
AcDbBlockReference
2
UNIT_DISC
10
35.5381
20
-9.503
41
0.5
42
0.5
50
0
0
INSERT
5
1096
100
AcDbEntity
8
F_Cu_____________
62
256
100
AcDbBlockReference
2
UNIT_DISC
10
35.5381
20
-9.503
41
0.5
42
0.5
50
0
0
LWPOLYLINE
5
1097
100
AcDbEntity
8
F_Cu_____________
62
256
100
AcDbPolyline
90
2
70
0
43
0.5
10
35.5381
20
-9.503
10
35.5408
20
-9.5019
0
INSERT
5
1098
100
AcDbEntity
8
F_Cu_____________
62
256
100
AcDbBlockReference
2
UNIT_DISC
10
35.5408
20
-9.5019
41
0.5
42
0.5
50
0
0
INSERT
5
1099
100
AcDbEntity
8
F_Cu_____________
62
256
100
AcDbBlockReference
2
UNIT_DISC
10
35.5408
20
-9.5019
41
0.5
42
0.5
50
0
0
LWPOLYLINE
5
1100
100
AcDbEntity
8
F_Cu_____________
62
256
100
AcDbPolyline
90
2
70
0
43
0.5
10
35.5408
20
-9.5019
10
35.657
20
-9.4529
0
INSERT
5
1101
100
AcDbEntity
8
F_Cu_____________
62
256
100
AcDbBlockReference
2
UNIT_DISC
10
35.657
20
-9.4529
41
0.5
42
0.5
50
0
0
INSERT
5
1102
100
AcDbEntity
8
F_Cu_____________
62
256
100
AcDbBlockReference
2
UNIT_DISC
10
35.6957
20
-9.4382
41
0.5
42
0.5
50
0
0
INSERT
5
1103
100
AcDbEntity
8
F_Cu_____________
62
256
100
AcDbBlockReference
2
UNIT_DISC
10
35.657
20
-9.4529
41
0.5
42
0.5
50
0
0
LWPOLYLINE
5
1104
100
AcDbEntity
8
F_Cu_____________
62
256
100
AcDbPolyline
90
2
70
0
43
0.5
10
35.6957
20
-9.4382
42
0.018807
10
35.657
20
-9.4529
0
INSERT
5
1105
100
AcDbEntity
8
F_Cu_____________
62
256
100
AcDbBlockReference
2
UNIT_DISC
10
35.6957
20
-9.4382
41
0.5
42
0.5
50
0
0
LWPOLYLINE
5
1106
100
AcDbEntity
8
F_Cu_____________
62
256
100
AcDbPolyline
90
2
70
0
43
0.5
10
35.6957
20
-9.4382
10
35.839
20
-9.3901
0
INSERT
5
1107
100
AcDbEntity
8
F_Cu_____________
62
256
100
AcDbBlockReference
2
UNIT_DISC
10
35.839
20
-9.3901
41
0.5
42
0.5
50
0
0
INSERT
5
1108
100
AcDbEntity
8
F_Cu_____________
62
256
100
AcDbBlockReference
2
UNIT_DISC
10
35.8772
20
-9.3788
41
0.5
42
0.5
50
0
0
INSERT
5
1109
100
AcDbEntity
8
F_Cu_____________
62
256
100
AcDbBlockReference
2
UNIT_DISC
10
35.839
20
-9.3901
41
0.5
42
0.5
50
0
0
LWPOLYLINE
5
1110
100
AcDbEntity
8
F_Cu_____________
62
256
100
AcDbPolyline
90
2
70
0
43
0.5
10
35.8772
20
-9.3788
42
0.018096
10
35.839
20
-9.3901
0
INSERT
5
1111
100
AcDbEntity
8
F_Cu_____________
62
256
100
AcDbBlockReference
2
UNIT_DISC
10
35.8772
20
-9.3788
41
0.5
42
0.5
50
0
0
LWPOLYLINE
5
1112
100
AcDbEntity
8
F_Cu_____________
62
256
100
AcDbPolyline
90
2
70
0
43
0.5
10
35.8772
20
-9.3788
10
35.9021
20
-9.3724
0
INSERT
5
1113
100
AcDbEntity
8
F_Cu_____________
62
256
100
AcDbBlockReference
2
UNIT_DISC
10
35.9021
20
-9.3724
41
0.5
42
0.5
50
0
0
INSERT
5
1114
100
AcDbEntity
8
F_Cu_____________
62
256
100
AcDbBlockReference
2
UNIT_DISC
10
35.9021
20
-9.3724
41
0.5
42
0.5
50
0
0
LWPOLYLINE
5
1115
100
AcDbEntity
8
F_Cu_____________
62
256
100
AcDbPolyline
90
2
70
0
43
0.5
10
35.9021
20
-9.3724
10
35.9032
20
-9.3721
0
INSERT
5
1116
100
AcDbEntity
8
F_Cu_____________
62
256
100
AcDbBlockReference
2
UNIT_DISC
10
35.9032
20
-9.3721
41
0.5
42
0.5
50
0
0
INSERT
5
1117
100
AcDbEntity
8
F_Cu_____________
62
256
100
AcDbBlockReference
2
UNIT_DISC
10
35.9032
20
-9.3721
41
0.5
42
0.5
50
0
0
LWPOLYLINE
5
1118
100
AcDbEntity
8
F_Cu_____________
62
256
100
AcDbPolyline
90
2
70
0
43
0.5
10
35.9032
20
-9.3721
10
36.021
20
-9.3421
0
INSERT
5
1119
100
AcDbEntity
8
F_Cu_____________
62
256
100
AcDbBlockReference
2
UNIT_DISC
10
36.021
20
-9.3421
41
0.5
42
0.5
50
0
0
INSERT
5
1120
100
AcDbEntity
8
F_Cu_____________
62
256
100
AcDbBlockReference
2
UNIT_DISC
10
36.0376
20
-9.3382
41
0.5
42
0.5
50
0
0
INSERT
5
1121
100
AcDbEntity
8
F_Cu_____________
62
256
100
AcDbBlockReference
2
UNIT_DISC
10
36.021
20
-9.3421
41
0.5
42
0.5
50
0
0
LWPOLYLINE
5
1122
100
AcDbEntity
8
F_Cu_____________
62
256
100
AcDbPolyline
90
2
70
0
43
0.5
10
36.0376
20
-9.3382
42
0.007744
10
36.021
20
-9.3421
0
INSERT
5
1123
100
AcDbEntity
8
F_Cu_____________
62
256
100
AcDbBlockReference
2
UNIT_DISC
10
36.0376
20
-9.3382
41
0.5
42
0.5
50
0
0
LWPOLYLINE
5
1124
100
AcDbEntity
8
F_Cu_____________
62
256
100
AcDbPolyline
90
2
70
0
43
0.5
10
36.0376
20
-9.3382
10
57.9604
20
-4.4735
0
INSERT
5
1125
100
AcDbEntity
8
F_Cu_____________
62
256
100
AcDbBlockReference
2
UNIT_DISC
10
57.9604
20
-4.4735
41
0.5
42
0.5
50
0
0
INSERT
5
1126
100
AcDbEntity
8
F_Cu_____________
62
256
100
AcDbBlockReference
2
UNIT_DISC
10
22.0456
20
12.2626
41
0.5
42
0.5
50
0
0
LWPOLYLINE
5
1127
100
AcDbEntity
8
F_Cu_____________
62
256
100
AcDbPolyline
90
2
70
0
43
0.5
10
22.0456
20
12.2626
10
34.6388
20
23.7289
0
INSERT
5
1128
100
AcDbEntity
8
F_Cu_____________
62
256
100
AcDbBlockReference
2
UNIT_DISC
10
34.6388
20
23.7289
41
0.5
42
0.5
50
0
0
INSERT
5
1129
100
AcDbEntity
8
F_Cu_____________
62
256
100
AcDbBlockReference
2
UNIT_DISC
10
34.6507
20
23.7391
41
0.5
42
0.5
50
0
0
INSERT
5
1130
100
AcDbEntity
8
F_Cu_____________
62
256
100
AcDbBlockReference
2
UNIT_DISC
10
34.6388
20
23.7289
41
0.5
42
0.5
50
0
0
LWPOLYLINE
5
1131
100
AcDbEntity
8
F_Cu_____________
62
256
100
AcDbPolyline
90
2
70
0
43
0.5
10
34.6507
20
23.7391
42
0.015648
10
34.6388
20
23.7289
0
INSERT
5
1132
100
AcDbEntity
8
F_Cu_____________
62
256
100
AcDbBlockReference
2
UNIT_DISC
10
34.6507
20
23.7391
41
0.5
42
0.5
50
0
0
LWPOLYLINE
5
1133
100
AcDbEntity
8
F_Cu_____________
62
256
100
AcDbPolyline
90
2
70
0
43
0.5
10
34.6507
20
23.7391
10
37.3733
20
25.9225
0
INSERT
5
1134
100
AcDbEntity
8
F_Cu_____________
62
256
100
AcDbBlockReference
2
UNIT_DISC
10
37.3733
20
25.9225
41
0.5
42
0.5
50
0
0
INSERT
5
1135
100
AcDbEntity
8
F_Cu_____________
62
256
100
AcDbBlockReference
2
UNIT_DISC
10
57.2675
20
20.4473
41
0.5
42
0.5
50
0
0
LWPOLYLINE
5
1136
100
AcDbEntity
8
F_Cu_____________
62
256
100
AcDbPolyline
90
2
70
0
43
0.5
10
57.2675
20
20.4473
10
37.3733
20
25.9225
0
INSERT
5
1137
100
AcDbEntity
8
F_Cu_____________
62
256
100
AcDbBlockReference
2
UNIT_DISC
10
37.3733
20
25.9225
41
0.5
42
0.5
50
0
0
INSERT
5
1138
100
AcDbEntity
8
F_Cu_____________
62
256
100
AcDbBlockReference
2
UNIT_DISC
10
74.5016
20
7.2102
41
0.5
42
0.5
50
0
0
LWPOLYLINE
5
1139
100
AcDbEntity
8
F_Cu_____________
62
256
100
AcDbPolyline
90
2
70
0
43
0.5
10
74.5016
20
7.2102
10
57.2675
20
20.4473
0
INSERT
5
1140
100
AcDbEntity
8
F_Cu_____________
62
256
100
AcDbBlockReference
2
UNIT_DISC
10
57.2675
20
20.4473
41
0.5
42
0.5
50
0
0
INSERT
5
1141
100
AcDbEntity
8
F_Cu_____________
62
256
100
AcDbBlockReference
2
UNIT_DISC
10
22.0456
20
12.2626
41
0.5
42
0.5
50
0
0
LWPOLYLINE
5
1142
100
AcDbEntity
8
F_Cu_____________
62
256
100
AcDbPolyline
90
2
70
0
43
0.5
10
22.0456
20
12.2626
10
25.0523
20
6.7859
0
INSERT
5
1143
100
AcDbEntity
8
F_Cu_____________
62
256
100
AcDbBlockReference
2
UNIT_DISC
10
25.0523
20
6.7859
41
0.5
42
0.5
50
0
0
INSERT
5
1144
100
AcDbEntity
8
F_Cu_____________
62
256
100
AcDbBlockReference
2
UNIT_DISC
10
25.0638
20
6.7619
41
0.5
42
0.5
50
0
0
INSERT
5
1145
100
AcDbEntity
8
F_Cu_____________
62
256
100
AcDbBlockReference
2
UNIT_DISC
10
25.0523
20
6.7859
41
0.5
42
0.5
50
0
0
LWPOLYLINE
5
1146
100
AcDbEntity
8
F_Cu_____________
62
256
100
AcDbPolyline
90
2
70
0
43
0.5
10
25.0638
20
6.7619
42
0.026578
10
25.0523
20
6.7859
0
INSERT
5
1147
100
AcDbEntity
8
F_Cu_____________
62
256
100
AcDbBlockReference
2
UNIT_DISC
10
25.0638
20
6.7619
41
0.5
42
0.5
50
0
0
LWPOLYLINE
5
1148
100
AcDbEntity
8
F_Cu_____________
62
256
100
AcDbPolyline
90
2
70
0
43
0.5
10
25.0638
20
6.7619
10
25.0737
20
6.7382
0
INSERT
5
1149
100
AcDbEntity
8
F_Cu_____________
62
256
100
AcDbBlockReference
2
UNIT_DISC
10
25.0737
20
6.7382
41
0.5
42
0.5
50
0
0
INSERT
5
1150
100
AcDbEntity
8
F_Cu_____________
62
256
100
AcDbBlockReference
2
UNIT_DISC
10
25.0737
20
6.7382
41
0.5
42
0.5
50
0
0
LWPOLYLINE
5
1151
100
AcDbEntity
8
F_Cu_____________
62
256
100
AcDbPolyline
90
2
70
0
43
0.5
10
25.0737
20
6.7382
10
25.074
20
6.7374
0
INSERT
5
1152
100
AcDbEntity
8
F_Cu_____________
62
256
100
AcDbBlockReference
2
UNIT_DISC
10
25.074
20
6.7374
41
0.5
42
0.5
50
0
0
INSERT
5
1153
100
AcDbEntity
8
F_Cu_____________
62
256
100
AcDbBlockReference
2
UNIT_DISC
10
25.074
20
6.7374
41
0.5
42
0.5
50
0
0
LWPOLYLINE
5
1154
100
AcDbEntity
8
F_Cu_____________
62
256
100
AcDbPolyline
90
2
70
0
43
0.5
10
25.074
20
6.7374
10
25.3686
20
6.026
0
INSERT
5
1155
100
AcDbEntity
8
F_Cu_____________
62
256
100
AcDbBlockReference
2
UNIT_DISC
10
25.3686
20
6.026
41
0.5
42
0.5
50
0
0
INSERT
5
1156
100
AcDbEntity
8
F_Cu_____________
62
256
100
AcDbBlockReference
2
UNIT_DISC
10
25.3838
20
5.974
41
0.5
42
0.5
50
0
0
INSERT
5
1157
100
AcDbEntity
8
F_Cu_____________
62
256
100
AcDbBlockReference
2
UNIT_DISC
10
25.3686
20
6.026
41
0.5
42
0.5
50
0
0
LWPOLYLINE
5
1158
100
AcDbEntity
8
F_Cu_____________
62
256
100
AcDbPolyline
90
2
70
0
43
0.5
10
25.3838
20
5.974
42
0.054237
10
25.3686
20
6.026
0
INSERT
5
1159
100
AcDbEntity
8
F_Cu_____________
62
256
100
AcDbBlockReference
2
UNIT_DISC
10
25.3838
20
5.974
41
0.5
42
0.5
50
0
0
LWPOLYLINE
5
1160
100
AcDbEntity
8
F_Cu_____________
62
256
100
AcDbPolyline
90
2
70
0
43
0.5
10
25.3838
20
5.974
10
30.2135
20
-21.2282
0
INSERT
5
1161
100
AcDbEntity
8
F_Cu_____________
62
256
100
AcDbBlockReference
2
UNIT_DISC
10
30.2135
20
-21.2282
41
0.5
42
0.5
50
0
0
INSERT
5
1162
100
AcDbEntity
8
F_Cu_____________
62
256
100
AcDbBlockReference
2
UNIT_DISC
10
30.2135
20
-21.2282
41
0.5
42
0.5
50
0
0
INSERT
5
1163
100
AcDbEntity
8
F_Cu_____________
62
256
100
AcDbBlockReference
2
UNIT_DISC
10
32.5109
20
-22.8719
41
0.5
42
0.5
50
0
0
LWPOLYLINE
5
1164
100
AcDbEntity
8
F_Cu_____________
62
256
100
AcDbPolyline
90
2
70
0
43
0.5
10
30.2135
20
-21.2282
42
0.407587
10
32.5109
20
-22.8719
0
INSERT
5
1165
100
AcDbEntity
8
F_Cu_____________
62
256
100
AcDbBlockReference
2
UNIT_DISC
10
32.5109
20
-22.8719
41
0.5
42
0.5
50
0
0
LWPOLYLINE
5
1166
100
AcDbEntity
8
F_Cu_____________
62
256
100
AcDbPolyline
90
2
70
0
43
0.5
10
32.5109
20
-22.8719
10
34.3268
20
-22.5918
0
INSERT
5
1167
100
AcDbEntity
8
F_Cu_____________
62
256
100
AcDbBlockReference
2
UNIT_DISC
10
34.3268
20
-22.5918
41
0.5
42
0.5
50
0
0
INSERT
5
1168
100
AcDbEntity
8
F_Cu_____________
62
256
100
AcDbBlockReference
2
UNIT_DISC
10
34.3375
20
-22.5913
41
0.5
42
0.5
50
0
0
INSERT
5
1169
100
AcDbEntity
8
F_Cu_____________
62
256
100
AcDbBlockReference
2
UNIT_DISC
10
34.3268
20
-22.5918
41
0.5
42
0.5
50
0
0
LWPOLYLINE
5
1170
100
AcDbEntity
8
F_Cu_____________
62
256
100
AcDbPolyline
90
2
70
0
43
0.5
10
34.3375
20
-22.5913
42
0.054937
10
34.3268
20
-22.5918
0
INSERT
5
1171
100
AcDbEntity
8
F_Cu_____________
62
256
100
AcDbBlockReference
2
UNIT_DISC
10
34.3375
20
-22.5913
41
0.5
42
0.5
50
0
0
LWPOLYLINE
5
1172
100
AcDbEntity
8
F_Cu_____________
62
256
100
AcDbPolyline
90
2
70
0
43
0.5
10
34.3375
20
-22.5913
10
34.3405
20
-22.5915
0
INSERT
5
1173
100
AcDbEntity
8
F_Cu_____________
62
256
100
AcDbBlockReference
2
UNIT_DISC
10
34.3405
20
-22.5915
41
0.5
42
0.5
50
0
0
INSERT
5
1174
100
AcDbEntity
8
F_Cu_____________
62
256
100
AcDbBlockReference
2
UNIT_DISC
10
34.3405
20
-22.5915
41
0.5
42
0.5
50
0
0
LWPOLYLINE
5
1175
100
AcDbEntity
8
F_Cu_____________
62
256
100
AcDbPolyline
90
2
70
0
43
0.5
10
34.3405
20
-22.5915
10
35.3695
20
-23.094
0
INSERT
5
1176
100
AcDbEntity
8
F_Cu_____________
62
256
100
AcDbBlockReference
2
UNIT_DISC
10
35.3695
20
-23.094
41
0.5
42
0.5
50
0
0
INSERT
5
1177
100
AcDbEntity
8
F_Cu_____________
62
256
100
AcDbBlockReference
2
UNIT_DISC
10
8.0775
20
-7.2481
41
0.5
42
0.5
50
0
0
LWPOLYLINE
5
1178
100
AcDbEntity
8
F_Cu_____________
62
256
100
AcDbPolyline
90
2
70
0
43
0.5
10
8.0775
20
-7.2481
10
20.3552
20
-6.9852
0
INSERT
5
1179
100
AcDbEntity
8
F_Cu_____________
62
256
100
AcDbBlockReference
2
UNIT_DISC
10
20.3552
20
-6.9852
41
0.5
42
0.5
50
0
0
INSERT
5
1180
100
AcDbEntity
8
F_Cu_____________
62
256
100
AcDbBlockReference
2
UNIT_DISC
10
35.5467
20
-25.6278
41
0.5
42
0.5
50
0
0
LWPOLYLINE
5
1181
100
AcDbEntity
8
F_Cu_____________
62
256
100
AcDbPolyline
90
2
70
0
43
0.5
10
35.5467
20
-25.6278
10
34.5177
20
-25.1253
0
INSERT
5
1182
100
AcDbEntity
8
F_Cu_____________
62
256
100
AcDbBlockReference
2
UNIT_DISC
10
34.5177
20
-25.1253
41
0.5
42
0.5
50
0
0
INSERT
5
1183
100
AcDbEntity
8
F_Cu_____________
62
256
100
AcDbBlockReference
2
UNIT_DISC
10
34.5177
20
-25.1253
41
0.5
42
0.5
50
0
0
LWPOLYLINE
5
1184
100
AcDbEntity
8
F_Cu_____________
62
256
100
AcDbPolyline
90
2
70
0
43
0.5
10
34.5177
20
-25.1253
10
34.5169
20
-25.1252
0
INSERT
5
1185
100
AcDbEntity
8
F_Cu_____________
62
256
100
AcDbBlockReference
2
UNIT_DISC
10
34.5169
20
-25.1252
41
0.5
42
0.5
50
0
0
INSERT
5
1186
100
AcDbEntity
8
F_Cu_____________
62
256
100
AcDbBlockReference
2
UNIT_DISC
10
34.505
20
-25.1219
41
0.5
42
0.5
50
0
0
INSERT
5
1187
100
AcDbEntity
8
F_Cu_____________
62
256
100
AcDbBlockReference
2
UNIT_DISC
10
34.5169
20
-25.1252
41
0.5
42
0.5
50
0
0
LWPOLYLINE
5
1188
100
AcDbEntity
8
F_Cu_____________
62
256
100
AcDbPolyline
90
2
70
0
43
0.5
10
34.505
20
-25.1219
42
0.063351
10
34.5169
20
-25.1252
0
INSERT
5
1189
100
AcDbEntity
8
F_Cu_____________
62
256
100
AcDbBlockReference
2
UNIT_DISC
10
34.505
20
-25.1219
41
0.5
42
0.5
50
0
0
LWPOLYLINE
5
1190
100
AcDbEntity
8
F_Cu_____________
62
256
100
AcDbPolyline
90
2
70
0
43
0.5
10
34.505
20
-25.1219
10
31.0308
20
-23.6594
0
INSERT
5
1191
100
AcDbEntity
8
F_Cu_____________
62
256
100
AcDbBlockReference
2
UNIT_DISC
10
31.0308
20
-23.6594
41
0.5
42
0.5
50
0
0
INSERT
5
1192
100
AcDbEntity
8
F_Cu_____________
62
256
100
AcDbBlockReference
2
UNIT_DISC
10
29.6117
20
-22.4282
41
0.5
42
0.5
50
0
0
INSERT
5
1193
100
AcDbEntity
8
F_Cu_____________
62
256
100
AcDbBlockReference
2
UNIT_DISC
10
31.0308
20
-23.6594
41
0.5
42
0.5
50
0
0
LWPOLYLINE
5
1194
100
AcDbEntity
8
F_Cu_____________
62
256
100
AcDbPolyline
90
2
70
0
43
0.5
10
29.6117
20
-22.4282
42
0.159423
10
31.0308
20
-23.6594
0
INSERT
5
1195
100
AcDbEntity
8
F_Cu_____________
62
256
100
AcDbBlockReference
2
UNIT_DISC
10
29.6117
20
-22.4282
41
0.5
42
0.5
50
0
0
LWPOLYLINE
5
1196
100
AcDbEntity
8
F_Cu_____________
62
256
100
AcDbPolyline
90
2
70
0
43
0.5
10
29.6117
20
-22.4282
10
20.3552
20
-6.9852
0
INSERT
5
1197
100
AcDbEntity
8
F_Cu_____________
62
256
100
AcDbBlockReference
2
UNIT_DISC
10
20.3552
20
-6.9852
41
0.5
42
0.5
50
0
0
INSERT
5
1198
100
AcDbEntity
8
F_Cu_____________
62
256
100
AcDbBlockReference
2
UNIT_DISC
10
14.8926
20
-26.7568
41
0.5
42
0.5
50
0
0
LWPOLYLINE
5
1199
100
AcDbEntity
8
F_Cu_____________
62
256
100
AcDbPolyline
90
2
70
0
43
0.5
10
14.8926
20
-26.7568
10
13.3278
20
-22.9201
0
INSERT
5
1200
100
AcDbEntity
8
F_Cu_____________
62
256
100
AcDbBlockReference
2
UNIT_DISC
10
13.3278
20
-22.9201
41
0.5
42
0.5
50
0
0
INSERT
5
1201
100
AcDbEntity
8
F_Cu_____________
62
256
100
AcDbBlockReference
2
UNIT_DISC
10
13.3219
20
-22.9038
41
0.5
42
0.5
50
0
0
INSERT
5
1202
100
AcDbEntity
8
F_Cu_____________
62
256
100
AcDbBlockReference
2
UNIT_DISC
10
13.3278
20
-22.9201
41
0.5
42
0.5
50
0
0
LWPOLYLINE
5
1203
100
AcDbEntity
8
F_Cu_____________
62
256
100
AcDbPolyline
90
2
70
0
43
0.5
10
13.3219
20
-22.9038
42
0.017305
10
13.3278
20
-22.9201
0
INSERT
5
1204
100
AcDbEntity
8
F_Cu_____________
62
256
100
AcDbBlockReference
2
UNIT_DISC
10
13.3219
20
-22.9038
41
0.5
42
0.5
50
0
0
LWPOLYLINE
5
1205
100
AcDbEntity
8
F_Cu_____________
62
256
100
AcDbPolyline
90
2
70
0
43
0.5
10
13.3219
20
-22.9038
10
12.1663
20
-19.3923
0
INSERT
5
1206
100
AcDbEntity
8
F_Cu_____________
62
256
100
AcDbBlockReference
2
UNIT_DISC
10
12.1663
20
-19.3923
41
0.5
42
0.5
50
0
0
INSERT
5
1207
100
AcDbEntity
8
F_Cu_____________
62
256
100
AcDbBlockReference
2
UNIT_DISC
10
52.7965
20
-11.6905
41
0.5
42
0.5
50
0
0
LWPOLYLINE
5
1208
100
AcDbEntity
8
F_Cu_____________
62
256
100
AcDbPolyline
90
2
70
0
43
0.5
10
52.7965
20
-11.6905
10
53.7026
20
-10.9638
0
INSERT
5
1209
100
AcDbEntity
8
F_Cu_____________
62
256
100
AcDbBlockReference
2
UNIT_DISC
10
53.7026
20
-10.9638
41
0.5
42
0.5
50
0
0
INSERT
5
1210
100
AcDbEntity
8
F_Cu_____________
62
256
100
AcDbBlockReference
2
UNIT_DISC
10
53.7026
20
-10.9638
41
0.5
42
0.5
50
0
0
LWPOLYLINE
5
1211
100
AcDbEntity
8
F_Cu_____________
62
256
100
AcDbPolyline
90
2
70
0
43
0.5
10
53.7026
20
-10.9638
10
53.7045
20
-10.9621
0
INSERT
5
1212
100
AcDbEntity
8
F_Cu_____________
62
256
100
AcDbBlockReference
2
UNIT_DISC
10
53.7045
20
-10.9621
41
0.5
42
0.5
50
0
0
INSERT
5
1213
100
AcDbEntity
8
F_Cu_____________
62
256
100
AcDbBlockReference
2
UNIT_DISC
10
53.7045
20
-10.9621
41
0.5
42
0.5
50
0
0
LWPOLYLINE
5
1214
100
AcDbEntity
8
F_Cu_____________
62
256
100
AcDbPolyline
90
2
70
0
43
0.5
10
53.7045
20
-10.9621
10
53.7095
20
-10.9572
0
INSERT
5
1215
100
AcDbEntity
8
F_Cu_____________
62
256
100
AcDbBlockReference
2
UNIT_DISC
10
53.7095
20
-10.9572
41
0.5
42
0.5
50
0
0
INSERT
5
1216
100
AcDbEntity
8
F_Cu_____________
62
256
100
AcDbBlockReference
2
UNIT_DISC
10
53.7095
20
-10.9572
41
0.5
42
0.5
50
0
0
LWPOLYLINE
5
1217
100
AcDbEntity
8
F_Cu_____________
62
256
100
AcDbPolyline
90
2
70
0
43
0.5
10
53.7095
20
-10.9572
10
58.7528
20
-5.1632
0
INSERT
5
1218
100
AcDbEntity
8
F_Cu_____________
62
256
100
AcDbBlockReference
2
UNIT_DISC
10
58.7528
20
-5.1632
41
0.5
42
0.5
50
0
0
INSERT
5
1219
100
AcDbEntity
8
F_Cu_____________
62
256
100
AcDbBlockReference
2
UNIT_DISC
10
58.7528
20
-5.1632
41
0.5
42
0.5
50
0
0
INSERT
5
1220
100
AcDbEntity
8
F_Cu_____________
62
256
100
AcDbBlockReference
2
UNIT_DISC
10
58.8337
20
-5.0574
41
0.5
42
0.5
50
0
0
LWPOLYLINE
5
1221
100
AcDbEntity
8
F_Cu_____________
62
256
100
AcDbPolyline
90
2
70
0
43
0.5
10
58.7528
20
-5.1632
42
0.031727
10
58.8337
20
-5.0574
0
INSERT
5
1222
100
AcDbEntity
8
F_Cu_____________
62
256
100
AcDbBlockReference
2
UNIT_DISC
10
58.8337
20
-5.0574
41
0.5
42
0.5
50
0
0
LWPOLYLINE
5
1223
100
AcDbEntity
8
F_Cu_____________
62
256
100
AcDbPolyline
90
2
70
0
43
0.5
10
58.8337
20
-5.0574
10
59.0519
20
-4.731
0
INSERT
5
1224
100
AcDbEntity
8
F_Cu_____________
62
256
100
AcDbBlockReference
2
UNIT_DISC
10
59.0519
20
-4.731
41
0.5
42
0.5
50
0
0
INSERT
5
1225
100
AcDbEntity
8
F_Cu_____________
62
256
100
AcDbBlockReference
2
UNIT_DISC
10
60.4971
20
-4.4338
41
0.5
42
0.5
50
0
0
INSERT
5
1226
100
AcDbEntity
8
F_Cu_____________
62
256
100
AcDbBlockReference
2
UNIT_DISC
10
59.0519
20
-4.731
41
0.5
42
0.5
50
0
0
LWPOLYLINE
5
1227
100
AcDbEntity
8
F_Cu_____________
62
256
100
AcDbPolyline
90
2
70
0
43
0.5
10
60.4971
20
-4.4338
42
0.410229
10
59.0519
20
-4.731
0
INSERT
5
1228
100
AcDbEntity
8
F_Cu_____________
62
256
100
AcDbBlockReference
2
UNIT_DISC
10
60.4971
20
-4.4338
41
0.5
42
0.5
50
0
0
LWPOLYLINE
5
1229
100
AcDbEntity
8
F_Cu_____________
62
256
100
AcDbPolyline
90
2
70
0
43
0.5
10
60.4971
20
-4.4338
10
69.323
20
-10.1625
0
INSERT
5
1230
100
AcDbEntity
8
F_Cu_____________
62
256
100
AcDbBlockReference
2
UNIT_DISC
10
69.323
20
-10.1625
41
0.5
42
0.5
50
0
0
INSERT
5
1231
100
AcDbEntity
8
F_Cu_____________
62
256
100
AcDbBlockReference
2
UNIT_DISC
10
69.323
20
-10.1625
41
0.5
42
0.5
50
0
0
INSERT
5
1232
100
AcDbEntity
8
F_Cu_____________
62
256
100
AcDbBlockReference
2
UNIT_DISC
10
69.6872
20
-10.3541
41
0.5
42
0.5
50
0
0
LWPOLYLINE
5
1233
100
AcDbEntity
8
F_Cu_____________
62
256
100
AcDbPolyline
90
2
70
0
43
0.5
10
69.323
20
-10.1625
42
0.045791
10
69.6872
20
-10.3541
0
INSERT
5
1234
100
AcDbEntity
8
F_Cu_____________
62
256
100
AcDbBlockReference
2
UNIT_DISC
10
69.6872
20
-10.3541
41
0.5
42
0.5
50
0
0
LWPOLYLINE
5
1235
100
AcDbEntity
8
F_Cu_____________
62
256
100
AcDbPolyline
90
2
70
0
43
0.5
10
69.6872
20
-10.3541
10
70.8082
20
-10.8184
0
INSERT
5
1236
100
AcDbEntity
8
F_Cu_____________
62
256
100
AcDbBlockReference
2
UNIT_DISC
10
70.8082
20
-10.8184
41
0.5
42
0.5
50
0
0
INSERT
5
1237
100
AcDbEntity
8
F_Cu_____________
62
256
100
AcDbBlockReference
2
UNIT_DISC
10
70.8082
20
-10.8184
41
0.5
42
0.5
50
0
0
INSERT
5
1238
100
AcDbEntity
8
F_Cu_____________
62
256
100
AcDbBlockReference
2
UNIT_DISC
10
71.4805
20
-10.9818
41
0.5
42
0.5
50
0
0
LWPOLYLINE
5
1239
100
AcDbEntity
8
F_Cu_____________
62
256
100
AcDbPolyline
90
2
70
0
43
0.5
10
70.8082
20
-10.8184
42
0.077283
10
71.4805
20
-10.9818
0
INSERT
5
1240
100
AcDbEntity
8
F_Cu_____________
62
256
100
AcDbBlockReference
2
UNIT_DISC
10
71.4805
20
-10.9818
41
0.5
42
0.5
50
0
0
LWPOLYLINE
5
1241
100
AcDbEntity
8
F_Cu_____________
62
256
100
AcDbPolyline
90
2
70
0
43
0.5
10
71.4805
20
-10.9818
10
88.049
20
-12.3795
0
INSERT
5
1242
100
AcDbEntity
8
F_Cu_____________
62
256
100
AcDbBlockReference
2
UNIT_DISC
10
88.049
20
-12.3795
41
0.5
42
0.5
50
0
0
ENDSEC
0
SECTION
2
OBJECTS
0
DICTIONARY
5
1243
100
AcDbDictionary
3
ACAD_GROUP
350
1244
3
ACAD_LAYOUT
350
1245
3
ACAD_MLINESTYLE
350
1246
3
ACDBHEADERROUNDTRIPXREC
350
1247
0
DICTIONARY
5
1244
100
AcDbDictionary
0
DICTIONARY
5
1245
100
AcDbDictionary
0
DICTIONARY
5
1246
100
AcDbDictionary
3
STANDARD
350
1249
0
DICTIONARY
5
1247
100
AcDbDictionary
3
STANDARD
350
1249
3
INSUNITS
350
1248
0
XRECORD
5
1248
100
AcDbXrecord
90
4
0
MLINESTYLE
5
1249
100
AcDbMlineStyle
2
STANDARD
71
2
49
0.5
49
-0.5
0
ENDSEC
0
EOF
