0
SECTION
2
HEADER
9
$ACADVER
1
AC1014
9
$DIMALTU
70
2
9
$DIMLUNIT
70
2
9
$LIMMIN
10
0.0
20
0.0
9
$LIMMAX
10
50.0
20
50.0
9
$HANDSEED
5
1048575
9
$LUNITS
70
4
0
ENDSEC
0
SECTION
2
TABLES
0
TABLE
2
APPID
5
1
100
AcDbSymbolTable
70
0
0
APPID
5
2
100
AcDbSymbolTableRecord
100
AcDbRegAppTableRecord
2
ACAD
70
0
0
ENDTAB
0
TABLE
2
DIMSTYLE
5
3
100
AcDbSymbolTable
70
0
0
ENDTAB
0
TABLE
2
UCS
5
4
100
AcDbSymbolTable
70
0
0
ENDTAB
0
TABLE
2
VIEW
5
5
100
AcDbSymbolTable
70
0
0
ENDTAB
0
TABLE
2
VPORT
5
6
100
AcDbSymbolTable
70
3
0
VPORT
5
7
100
AcDbSymbolTableRecord
100
AcDbViewportTableRecord
2
*ACTIVE
70
0
12
-35.0
22
9.1845
13
10.0
23
10.0
14
10.0
24
10.0
15
10.0
25
10.0
40
113.2739
41
2
74
3
75
0
76
1
77
0
0
ENDTAB
0
TABLE
2
STYLE
5
8
100
AcDbSymbolTable
70
1
0
STYLE
5
9
100
AcDbSymbolTableRecord
100
AcDbTextStyleTableRecord
2
STANDARD
70
0
40
0.0
41
1.0
50
0.0
71
0
3
txt
4

0
STYLE
5
10
100
AcDbSymbolTableRecord
100
AcDbTextStyleTableRecord
2
Default
70
0
40
1.0
41
1.0
50
0.0
71
0
3

4

1001
ACAD
1000

1071
10
0
ENDTAB
0
TABLE
2
LTYPE
5
11
100
AcDbSymbolTable
70
3
0
LTYPE
5
12
100
AcDbSymbolTableRecord
100
AcDbLinetypeTableRecord
2
BYBLOCK
70
0
3

72
65
73
0
40
0.0
0
LTYPE
5
13
100
AcDbSymbolTableRecord
100
AcDbLinetypeTableRecord
2
BYLAYER
70
0
3

72
65
73
0
40
0.0
0
LTYPE
5
14
100
AcDbSymbolTableRecord
100
AcDbLinetypeTableRecord
2
CONTINUOUS
70
0
3

72
65
73
0
40
0.0
0
ENDTAB
0
TABLE
2
LAYER
5
15
100
AcDbSymbolTable
70
9
0
LAYER
5
16
100
AcDbSymbolTableRecord
100
AcDbLayerTableRecord
2
0
70
0
6
CONTINUOUS
370
0.5
0
LAYER
5
17
100
AcDbSymbolTableRecord
100
AcDbLayerTableRecord
2
F_Cu_____________
70
0
62
0
6
CONTINUOUS
370
0.5
0
ENDTAB
0
TABLE
2
BLOCK_RECORD
5
18
100
AcDbSymbolTable
70
3
0
BLOCK_RECORD
5
19
100
AcDbSymbolTableRecord
100
AcDbBlockTableRecord
2
*MODEL_SPACE
0
BLOCK_RECORD
5
20
100
AcDbSymbolTableRecord
100
AcDbBlockTableRecord
2
*PAPER_SPACE
0
BLOCK_RECORD
5
21
100
AcDbSymbolTableRecord
100
AcDbBlockTableRecord
2
UNIT_DISC
0
BLOCK_RECORD
5
22
100
AcDbSymbolTableRecord
100
AcDbBlockTableRecord
2
MTHOLE
0
BLOCK_RECORD
5
23
100
AcDbSymbolTableRecord
100
AcDbBlockTableRecord
2
TARGET
0
BLOCK_RECORD
5
24
100
AcDbSymbolTableRecord
100
AcDbBlockTableRecord
2
SIGN_DIAM
0
ENDTAB
0
ENDSEC
0
SECTION
2
BLOCKS
0
BLOCK
5
26
330
25
100
AcDbEntity
8
0
100
AcDbBlockBegin
2
*MODEL_SPACE
0
ENDBLK
5
27
330
25
100
AcDbEntity
8
0
100
AcDbBlockEnd
0
BLOCK
5
29
330
28
100
AcDbEntity
67
1
8
0
100
AcDbBlockBegin
2
*PAPER_SPACE
0
ENDBLK
5
30
330
28
100
AcDbEntity
67
1
8
0
100
AcDbBlockEnd
0
BLOCK
5
32
330
31
100
AcDbEntity
8
0
100
AcDbBlockBegin
2
UNIT_DISC
0
LWPOLYLINE
5
33
100
AcDbEntity
8
0
62
256
100
AcDbPolyline
90
2
70
1
43
0.5
10
0.25
20
0.0
42
1.0
10
-0.25
20
0.0
42
1.0
0
ENDBLK
5
34
330
31
100
AcDbEntity
8
0
100
AcDbBlockEnd
0
BLOCK
5
36
330
35
100
AcDbEntity
8
0
100
AcDbBlockBegin
2
MTHOLE
0
LINE
5
37
100
AcDbEntity
8
0
62
256
100
AcDbLine
10
0.5
20
0.0
30
0.0
11
-0.5
21
0.0
31
0.0
0
LINE
5
38
100
AcDbEntity
8
0
62
256
100
AcDbLine
10
0.0
20
-0.5
30
0.0
11
0.0
21
0.5
31
0.0
0
CIRCLE
5
39
100
AcDbEntity
8
0
62
256
100
AcDbCircle
39
0.0
10
0.0
20
0.0
40
0.5
0
ENDBLK
5
40
330
35
100
AcDbEntity
8
0
100
AcDbBlockEnd
0
BLOCK
5
42
330
41
100
AcDbEntity
8
0
100
AcDbBlockBegin
2
TARGET
0
LINE
5
43
100
AcDbEntity
8
0
62
256
100
AcDbLine
10
0.5
20
0.0
30
0.0
11
-0.5
21
0.0
31
0.0
0
LINE
5
44
100
AcDbEntity
8
0
62
256
100
AcDbLine
10
0.0
20
-0.5
30
0.0
11
0.0
21
0.5
31
0.0
0
CIRCLE
5
45
100
AcDbEntity
8
0
62
256
100
AcDbCircle
39
0.0
10
0.0
20
0.0
40
0.4
0
CIRCLE
5
46
100
AcDbEntity
8
0
62
256
100
AcDbCircle
39
0.0
10
0.0
20
0.0
40
0.3
0
CIRCLE
5
47
100
AcDbEntity
8
0
62
256
100
AcDbCircle
39
0.0
10
0.0
20
0.0
40
0.2
0
CIRCLE
5
48
100
AcDbEntity
8
0
62
256
100
AcDbCircle
39
0.0
10
0.0
20
0.0
40
0.1
0
ENDBLK
5
49
330
41
100
AcDbEntity
8
0
100
AcDbBlockEnd
0
BLOCK
5
51
330
50
100
AcDbEntity
8
0
100
AcDbBlockBegin
2
SIGN_DIAM
0
LINE
5
52
100
AcDbEntity
8
0
62
256
100
AcDbLine
10
-0.5
20
-0.5
30
0.0
11
0.5
21
0.5
31
0.0
0
CIRCLE
5
53
100
AcDbEntity
8
0
62
256
100
AcDbCircle
39
0.0
10
0.0
20
0.0
40
0.3
0
ENDBLK
5
54
330
50
100
AcDbEntity
8
0
100
AcDbBlockEnd
0
ENDSEC
0
SECTION
2
ENTITIES
0
INSERT
5
55
100
AcDbEntity
8
F_Cu_____________
62
256
100
AcDbBlockReference
2
UNIT_DISC
10
-129.9956
20
-8.4113
41
0.6
42
0.6
50
0
0
INSERT
5
56
100
AcDbEntity
8
F_Cu_____________
62
256
100
AcDbBlockReference
2
UNIT_DISC
10
-125.9501
20
-11.4498
41
0.6
42
0.6
50
0
0
INSERT
5
57
100
AcDbEntity
8
F_Cu_____________
62
256
100
AcDbBlockReference
2
UNIT_DISC
10
-138.7057
20
-18.8351
41
0.6
42
0.6
50
0
0
INSERT
5
58
100
AcDbEntity
8
F_Cu_____________
62
256
100
AcDbBlockReference
2
UNIT_DISC
10
-130.8473
20
-4.5991
41
0.6
42
0.6
50
0
0
INSERT
5
59
100
AcDbEntity
8
F_Cu_____________
62
256
100
AcDbBlockReference
2
UNIT_DISC
10
-139.9127
20
-14.409
41
0.6
42
0.6
50
0
0
INSERT
5
60
100
AcDbEntity
8
F_Cu_____________
62
256
100
AcDbBlockReference
2
UNIT_DISC
10
-124.1125
20
-6.7128
41
0.6
42
0.6
50
0
0
INSERT
5
61
100
AcDbEntity
8
F_Cu_____________
62
256
100
AcDbBlockReference
2
UNIT_DISC
10
-116.4225
20
44.4809
41
0.6
42
0.6
50
0
0
INSERT
5
62
100
AcDbEntity
8
F_Cu_____________
62
256
100
AcDbBlockReference
2
UNIT_DISC
10
-96.2335
20
31.7689
41
0.6
42
0.6
50
0
0
INSERT
5
63
100
AcDbEntity
8
F_Cu_____________
62
256
100
AcDbBlockReference
2
UNIT_DISC
10
59.1206
20
-2.7626
41
0.6
42
0.6
50
0
0
INSERT
5
64
100
AcDbEntity
8
F_Cu_____________
62
256
100
AcDbBlockReference
2
UNIT_DISC
10
59.2201
20
-1.3589
41
0.6
42
0.6
50
0
0
INSERT
5
65
100
AcDbEntity
8
F_Cu_____________
62
256
100
AcDbBlockReference
2
UNIT_DISC
10
27.8251
20
-9.3884
41
0.6
42
0.6
50
0
0
INSERT
5
66
100
AcDbEntity
8
F_Cu_____________
62
256
100
AcDbBlockReference
2
UNIT_DISC
10
41.3056
20
42.1492
41
0.6
42
0.6
50
0
0
INSERT
5
67
100
AcDbEntity
8
F_Cu_____________
62
256
100
AcDbBlockReference
2
UNIT_DISC
10
5.9442
20
11.7846
41
0.6
42
0.6
50
0
0
INSERT
5
68
100
AcDbEntity
8
F_Cu_____________
62
256
100
AcDbBlockReference
2
UNIT_DISC
10
53.7779
20
22.964
41
0.6
42
0.6
50
0
0
INSERT
5
69
100
AcDbEntity
8
F_Cu_____________
62
256
100
AcDbBlockReference
2
UNIT_DISC
10
29.8681
20
1.0988
41
0.6
42
0.6
50
0
0
INSERT
5
70
100
AcDbEntity
8
F_Cu_____________
62
256
100
AcDbBlockReference
2
UNIT_DISC
10
54.4815
20
-6.8668
41
0.6
42
0.6
50
0
0
INSERT
5
71
100
AcDbEntity
8
F_Cu_____________
62
256
100
AcDbBlockReference
2
UNIT_DISC
10
77.3448
20
32.4675
41
0.6
42
0.6
50
0
0
INSERT
5
72
100
AcDbEntity
8
F_Cu_____________
62
256
100
AcDbBlockReference
2
UNIT_DISC
10
17.6235
20
13.3953
41
0.6
42
0.6
50
0
0
INSERT
5
73
100
AcDbEntity
8
F_Cu_____________
62
256
100
AcDbBlockReference
2
UNIT_DISC
10
-95.5512
20
19.3346
41
0.6
42
0.6
50
0
0
INSERT
5
74
100
AcDbEntity
8
F_Cu_____________
62
256
100
AcDbBlockReference
2
UNIT_DISC
10
-115.8111
20
34.5028
41
0.6
42
0.6
50
0
0
INSERT
5
75
100
AcDbEntity
8
F_Cu_____________
62
256
100
AcDbBlockReference
2
UNIT_DISC
10
-130.1922
20
-10.004
41
0.6
42
0.6
50
0
0
INSERT
5
76
100
AcDbEntity
8
F_Cu_____________
62
256
100
AcDbBlockReference
2
UNIT_DISC
10
-114.4683
20
15.7528
41
0.6
42
0.6
50
0
0
INSERT
5
77
100
AcDbEntity
8
F_Cu_____________
62
256
100
AcDbBlockReference
2
UNIT_DISC
10
29.2461
20
-9.5696
41
0.6
42
0.6
50
0
0
INSERT
5
78
100
AcDbEntity
8
F_Cu_____________
62
256
100
AcDbBlockReference
2
UNIT_DISC
10
55.9309
20
36.7522
41
0.6
42
0.6
50
0
0
INSERT
5
79
100
AcDbEntity
8
F_Cu_____________
62
256
100
AcDbBlockReference
2
UNIT_DISC
10
22.7219
20
-6.1465
41
0.6
42
0.6
50
0
0
INSERT
5
80
100
AcDbEntity
8
F_Cu_____________
62
256
100
AcDbBlockReference
2
UNIT_DISC
10
39.1788
20
25.0764
41
0.6
42
0.6
50
0
0
LWPOLYLINE
5
81
100
AcDbEntity
8
F_Cu_____________
62
256
100
AcDbPolyline
90
20
70
1
10
34.7228
20
-28.2566
10
34.7486
20
-28.3511
10
34.8086
20
-28.4285
10
34.8936
20
-28.4771
10
34.9907
20
-28.4895
10
36.487
20
-28.3849
10
36.5814
20
-28.359
10
36.6588
20
-28.2991
10
36.7074
20
-28.2141
10
36.7199
20
-28.117
10
36.6466
20
-27.0696
10
36.6208
20
-26.9751
10
36.5608
20
-26.8977
10
36.4758
20
-26.8491
10
36.3787
20
-26.8367
10
34.8824
20
-26.9413
10
34.788
20
-26.9672
10
34.7106
20
-27.0271
10
34.662
20
-27.1121
10
34.6495
20
-27.2092
0
HATCH
5
82
100
AcDbEntity
8
F_Cu_____________
62
256
100
AcDbHatch
10
0.0
20
0.0
210
0.0
220
0.0
230
1.0
2
SOLID
70
1
71
1
91
1
92
1
93
20
72
1
10
34.7228
20
-28.2566
11
34.7486
21
-28.3511
72
1
10
34.7486
20
-28.3511
11
34.8086
21
-28.4285
72
1
10
34.8086
20
-28.4285
11
34.8936
21
-28.4771
72
1
10
34.8936
20
-28.4771
11
34.9907
21
-28.4895
72
1
10
34.9907
20
-28.4895
11
36.487
21
-28.3849
72
1
10
36.487
20
-28.3849
11
36.5814
21
-28.359
72
1
10
36.5814
20
-28.359
11
36.6588
21
-28.2991
72
1
10
36.6588
20
-28.2991
11
36.7074
21
-28.2141
72
1
10
36.7074
20
-28.2141
11
36.7199
21
-28.117
72
1
10
36.7199
20
-28.117
11
36.6466
21
-27.0696
72
1
10
36.6466
20
-27.0696
11
36.6208
21
-26.9751
72
1
10
36.6208
20
-26.9751
11
36.5608
21
-26.8977
72
1
10
36.5608
20
-26.8977
11
36.4758
21
-26.8491
72
1
10
36.4758
20
-26.8491
11
36.3787
21
-26.8367
72
1
10
36.3787
20
-26.8367
11
34.8824
21
-26.9413
72
1
10
34.8824
20
-26.9413
11
34.788
21
-26.9672
72
1
10
34.788
20
-26.9672
11
34.7106
21
-27.0271
72
1
10
34.7106
20
-27.0271
11
34.662
21
-27.1121
72
1
10
34.662
20
-27.1121
11
34.6495
21
-27.2092
72
1
10
34.6495
20
-27.2092
11
34.7228
21
-28.2566
97
1
330
81
75
0
76
0
98
0
0
LWPOLYLINE
5
83
100
AcDbEntity
8
F_Cu_____________
62
256
100
AcDbPolyline
90
20
70
1
10
34.5456
20
-25.7228
10
34.5714
20
-25.8173
10
34.6314
20
-25.8947
10
34.7164
20
-25.9433
10
34.8135
20
-25.9557
10
36.3098
20
-25.8511
10
36.4042
20
-25.8252
10
36.4816
20
-25.7653
10
36.5302
20
-25.6803
10
36.5427
20
-25.5832
10
36.4694
20
-24.5358
10
36.4436
20
-24.4413
10
36.3836
20
-24.3639
10
36.2986
20
-24.3153
10
36.2015
20
-24.3029
10
34.7052
20
-24.4075
10
34.6108
20
-24.4334
10
34.5334
20
-24.4933
10
34.4848
20
-24.5783
10
34.4723
20
-24.6754
0
HATCH
5
84
100
AcDbEntity
8
F_Cu_____________
62
256
100
AcDbHatch
10
0.0
20
0.0
210
0.0
220
0.0
230
1.0
2
SOLID
70
1
71
1
91
1
92
1
93
20
72
1
10
34.5456
20
-25.7228
11
34.5714
21
-25.8173
72
1
10
34.5714
20
-25.8173
11
34.6314
21
-25.8947
72
1
10
34.6314
20
-25.8947
11
34.7164
21
-25.9433
72
1
10
34.7164
20
-25.9433
11
34.8135
21
-25.9557
72
1
10
34.8135
20
-25.9557
11
36.3098
21
-25.8511
72
1
10
36.3098
20
-25.8511
11
36.4042
21
-25.8252
72
1
10
36.4042
20
-25.8252
11
36.4816
21
-25.7653
72
1
10
36.4816
20
-25.7653
11
36.5302
21
-25.6803
72
1
10
36.5302
20
-25.6803
11
36.5427
21
-25.5832
72
1
10
36.5427
20
-25.5832
11
36.4694
21
-24.5358
72
1
10
36.4694
20
-24.5358
11
36.4436
21
-24.4413
72
1
10
36.4436
20
-24.4413
11
36.3836
21
-24.3639
72
1
10
36.3836
20
-24.3639
11
36.2986
21
-24.3153
72
1
10
36.2986
20
-24.3153
11
36.2015
21
-24.3029
72
1
10
36.2015
20
-24.3029
11
34.7052
21
-24.4075
72
1
10
34.7052
20
-24.4075
11
34.6108
21
-24.4334
72
1
10
34.6108
20
-24.4334
11
34.5334
21
-24.4933
72
1
10
34.5334
20
-24.4933
11
34.4848
21
-24.5783
72
1
10
34.4848
20
-24.5783
11
34.4723
21
-24.6754
72
1
10
34.4723
20
-24.6754
11
34.5456
21
-25.7228
97
1
330
83
75
0
76
0
98
0
0
LWPOLYLINE
5
85
100
AcDbEntity
8
F_Cu_____________
62
256
100
AcDbPolyline
90
20
70
1
10
34.3684
20
-23.189
10
34.3942
20
-23.2835
10
34.4542
20
-23.3609
10
34.5392
20
-23.4095
10
34.6363
20
-23.4219
10
36.1326
20
-23.3173
10
36.227
20
-23.2914
10
36.3044
20
-23.2315
10
36.353
20
-23.1465
10
36.3655
20
-23.0494
10
36.2922
20
-22.002
10
36.2664
20
-21.9075
10
36.2064
20
-21.8301
10
36.1214
20
-21.7815
10
36.0243
20
-21.7691
10
34.528
20
-21.8737
10
34.4336
20
-21.8996
10
34.3562
20
-21.9595
10
34.3076
20
-22.0445
10
34.2951
20
-22.1416
0
HATCH
5
86
100
AcDbEntity
8
F_Cu_____________
62
256
100
AcDbHatch
10
0.0
20
0.0
210
0.0
220
0.0
230
1.0
2
SOLID
70
1
71
1
91
1
92
1
93
20
72
1
10
34.3684
20
-23.189
11
34.3942
21
-23.2835
72
1
10
34.3942
20
-23.2835
11
34.4542
21
-23.3609
72
1
10
34.4542
20
-23.3609
11
34.5392
21
-23.4095
72
1
10
34.5392
20
-23.4095
11
34.6363
21
-23.4219
72
1
10
34.6363
20
-23.4219
11
36.1326
21
-23.3173
72
1
10
36.1326
20
-23.3173
11
36.227
21
-23.2914
72
1
10
36.227
20
-23.2914
11
36.3044
21
-23.2315
72
1
10
36.3044
20
-23.2315
11
36.353
21
-23.1465
72
1
10
36.353
20
-23.1465
11
36.3655
21
-23.0494
72
1
10
36.3655
20
-23.0494
11
36.2922
21
-22.002
72
1
10
36.2922
20
-22.002
11
36.2664
21
-21.9075
72
1
10
36.2664
20
-21.9075
11
36.2064
21
-21.8301
72
1
10
36.2064
20
-21.8301
11
36.1214
21
-21.7815
72
1
10
36.1214
20
-21.7815
11
36.0243
21
-21.7691
72
1
10
36.0243
20
-21.7691
11
34.528
21
-21.8737
72
1
10
34.528
20
-21.8737
11
34.4336
21
-21.8996
72
1
10
34.4336
20
-21.8996
11
34.3562
21
-21.9595
72
1
10
34.3562
20
-21.9595
11
34.3076
21
-22.0445
72
1
10
34.3076
20
-22.0445
11
34.2951
21
-22.1416
72
1
10
34.2951
20
-22.1416
11
34.3684
21
-23.189
97
1
330
85
75
0
76
0
98
0
0
LWPOLYLINE
5
87
100
AcDbEntity
8
F_Cu_____________
62
256
100
AcDbPolyline
90
20
70
1
10
34.1912
20
-20.6552
10
34.217
20
-20.7497
10
34.277
20
-20.8271
10
34.362
20
-20.8757
10
34.4591
20
-20.8881
10
35.9554
20
-20.7835
10
36.0498
20
-20.7576
10
36.1272
20
-20.6977
10
36.1758
20
-20.6127
10
36.1883
20
-20.5156
10
36.115
20
-19.4682
10
36.0892
20
-19.3737
10
36.0292
20
-19.2963
10
35.9442
20
-19.2477
10
35.8471
20
-19.2353
10
34.3508
20
-19.3399
10
34.2564
20
-19.3658
10
34.179
20
-19.4257
10
34.1304
20
-19.5107
10
34.1179
20
-19.6078
0
HATCH
5
88
100
AcDbEntity
8
F_Cu_____________
62
256
100
AcDbHatch
10
0.0
20
0.0
210
0.0
220
0.0
230
1.0
2
SOLID
70
1
71
1
91
1
92
1
93
20
72
1
10
34.1912
20
-20.6552
11
34.217
21
-20.7497
72
1
10
34.217
20
-20.7497
11
34.277
21
-20.8271
72
1
10
34.277
20
-20.8271
11
34.362
21
-20.8757
72
1
10
34.362
20
-20.8757
11
34.4591
21
-20.8881
72
1
10
34.4591
20
-20.8881
11
35.9554
21
-20.7835
72
1
10
35.9554
20
-20.7835
11
36.0498
21
-20.7576
72
1
10
36.0498
20
-20.7576
11
36.1272
21
-20.6977
72
1
10
36.1272
20
-20.6977
11
36.1758
21
-20.6127
72
1
10
36.1758
20
-20.6127
11
36.1883
21
-20.5156
72
1
10
36.1883
20
-20.5156
11
36.115
21
-19.4682
72
1
10
36.115
20
-19.4682
11
36.0892
21
-19.3737
72
1
10
36.0892
20
-19.3737
11
36.0292
21
-19.2963
72
1
10
36.0292
20
-19.2963
11
35.9442
21
-19.2477
72
1
10
35.9442
20
-19.2477
11
35.8471
21
-19.2353
72
1
10
35.8471
20
-19.2353
11
34.3508
21
-19.3399
72
1
10
34.3508
20
-19.3399
11
34.2564
21
-19.3658
72
1
10
34.2564
20
-19.3658
11
34.179
21
-19.4257
72
1
10
34.179
20
-19.4257
11
34.1304
21
-19.5107
72
1
10
34.1304
20
-19.5107
11
34.1179
21
-19.6078
72
1
10
34.1179
20
-19.6078
11
34.1912
21
-20.6552
97
1
330
87
75
0
76
0
98
0
0
LWPOLYLINE
5
89
100
AcDbEntity
8
F_Cu_____________
62
256
100
AcDbPolyline
90
20
70
1
10
34.014
20
-18.1213
10
34.0398
20
-18.2158
10
34.0998
20
-18.2932
10
34.1848
20
-18.3418
10
34.2819
20
-18.3542
10
35.7782
20
-18.2496
10
35.8726
20
-18.2237
10
35.95
20
-18.1638
10
35.9986
20
-18.0788
10
36.0111
20
-17.9817
10
35.9378
20
-16.9343
10
35.912
20
-16.8398
10
35.852
20
-16.7624
10
35.767
20
-16.7138
10
35.6699
20
-16.7014
10
34.1736
20
-16.806
10
34.0792
20
-16.8319
10
34.0018
20
-16.8918
10
33.9532
20
-16.9768
10
33.9407
20
-17.0739
0
HATCH
5
90
100
AcDbEntity
8
F_Cu_____________
62
256
100
AcDbHatch
10
0.0
20
0.0
210
0.0
220
0.0
230
1.0
2
SOLID
70
1
71
1
91
1
92
1
93
20
72
1
10
34.014
20
-18.1213
11
34.0398
21
-18.2158
72
1
10
34.0398
20
-18.2158
11
34.0998
21
-18.2932
72
1
10
34.0998
20
-18.2932
11
34.1848
21
-18.3418
72
1
10
34.1848
20
-18.3418
11
34.2819
21
-18.3542
72
1
10
34.2819
20
-18.3542
11
35.7782
21
-18.2496
72
1
10
35.7782
20
-18.2496
11
35.8726
21
-18.2237
72
1
10
35.8726
20
-18.2237
11
35.95
21
-18.1638
72
1
10
35.95
20
-18.1638
11
35.9986
21
-18.0788
72
1
10
35.9986
20
-18.0788
11
36.0111
21
-17.9817
72
1
10
36.0111
20
-17.9817
11
35.9378
21
-16.9343
72
1
10
35.9378
20
-16.9343
11
35.912
21
-16.8398
72
1
10
35.912
20
-16.8398
11
35.852
21
-16.7624
72
1
10
35.852
20
-16.7624
11
35.767
21
-16.7138
72
1
10
35.767
20
-16.7138
11
35.6699
21
-16.7014
72
1
10
35.6699
20
-16.7014
11
34.1736
21
-16.806
72
1
10
34.1736
20
-16.806
11
34.0792
21
-16.8319
72
1
10
34.0792
20
-16.8319
11
34.0018
21
-16.8918
72
1
10
34.0018
20
-16.8918
11
33.9532
21
-16.9768
72
1
10
33.9532
20
-16.9768
11
33.9407
21
-17.0739
72
1
10
33.9407
20
-17.0739
11
34.014
21
-18.1213
97
1
330
89
75
0
76
0
98
0
0
LWPOLYLINE
5
91
100
AcDbEntity
8
F_Cu_____________
62
256
100
AcDbPolyline
90
20
70
1
10
33.8368
20
-15.5875
10
33.8626
20
-15.682
10
33.9226
20
-15.7594
10
34.0076
20
-15.808
10
34.1047
20
-15.8204
10
35.601
20
-15.7158
10
35.6954
20
-15.6899
10
35.7728
20
-15.63
10
35.8214
20
-15.545
10
35.8339
20
-15.4479
10
35.7606
20
-14.4005
10
35.7348
20
-14.306
10
35.6748
20
-14.2286
10
35.5898
20
-14.18
10
35.4927
20
-14.1676
10
33.9964
20
-14.2722
10
33.902
20
-14.2981
10
33.8246
20
-14.358
10
33.776
20
-14.443
10
33.7635
20
-14.5401
0
HATCH
5
92
100
AcDbEntity
8
F_Cu_____________
62
256
100
AcDbHatch
10
0.0
20
0.0
210
0.0
220
0.0
230
1.0
2
SOLID
70
1
71
1
91
1
92
1
93
20
72
1
10
33.8368
20
-15.5875
11
33.8626
21
-15.682
72
1
10
33.8626
20
-15.682
11
33.9226
21
-15.7594
72
1
10
33.9226
20
-15.7594
11
34.0076
21
-15.808
72
1
10
34.0076
20
-15.808
11
34.1047
21
-15.8204
72
1
10
34.1047
20
-15.8204
11
35.601
21
-15.7158
72
1
10
35.601
20
-15.7158
11
35.6954
21
-15.6899
72
1
10
35.6954
20
-15.6899
11
35.7728
21
-15.63
72
1
10
35.7728
20
-15.63
11
35.8214
21
-15.545
72
1
10
35.8214
20
-15.545
11
35.8339
21
-15.4479
72
1
10
35.8339
20
-15.4479
11
35.7606
21
-14.4005
72
1
10
35.7606
20
-14.4005
11
35.7348
21
-14.306
72
1
10
35.7348
20
-14.306
11
35.6748
21
-14.2286
72
1
10
35.6748
20
-14.2286
11
35.5898
21
-14.18
72
1
10
35.5898
20
-14.18
11
35.4927
21
-14.1676
72
1
10
35.4927
20
-14.1676
11
33.9964
21
-14.2722
72
1
10
33.9964
20
-14.2722
11
33.902
21
-14.2981
72
1
10
33.902
20
-14.2981
11
33.8246
21
-14.358
72
1
10
33.8246
20
-14.358
11
33.776
21
-14.443
72
1
10
33.776
20
-14.443
11
33.7635
21
-14.5401
72
1
10
33.7635
20
-14.5401
11
33.8368
21
-15.5875
97
1
330
91
75
0
76
0
98
0
0
LWPOLYLINE
5
93
100
AcDbEntity
8
F_Cu_____________
62
256
100
AcDbPolyline
90
20
70
1
10
33.6597
20
-13.0537
10
33.6855
20
-13.1482
10
33.7455
20
-13.2256
10
33.8305
20
-13.2742
10
33.9276
20
-13.2866
10
35.4239
20
-13.182
10
35.5183
20
-13.1561
10
35.5957
20
-13.0962
10
35.6443
20
-13.0112
10
35.6568
20
-12.9141
10
35.5835
20
-11.8667
10
35.5577
20
-11.7722
10
35.4977
20
-11.6948
10
35.4127
20
-11.6462
10
35.3156
20
-11.6338
10
33.8193
20
-11.7384
10
33.7249
20
-11.7643
10
33.6475
20
-11.8242
10
33.5989
20
-11.9092
10
33.5864
20
-12.0063
0
HATCH
5
94
100
AcDbEntity
8
F_Cu_____________
62
256
100
AcDbHatch
10
0.0
20
0.0
210
0.0
220
0.0
230
1.0
2
SOLID
70
1
71
1
91
1
92
1
93
20
72
1
10
33.6597
20
-13.0537
11
33.6855
21
-13.1482
72
1
10
33.6855
20
-13.1482
11
33.7455
21
-13.2256
72
1
10
33.7455
20
-13.2256
11
33.8305
21
-13.2742
72
1
10
33.8305
20
-13.2742
11
33.9276
21
-13.2866
72
1
10
33.9276
20
-13.2866
11
35.4239
21
-13.182
72
1
10
35.4239
20
-13.182
11
35.5183
21
-13.1561
72
1
10
35.5183
20
-13.1561
11
35.5957
21
-13.0962
72
1
10
35.5957
20
-13.0962
11
35.6443
21
-13.0112
72
1
10
35.6443
20
-13.0112
11
35.6568
21
-12.9141
72
1
10
35.6568
20
-12.9141
11
35.5835
21
-11.8667
72
1
10
35.5835
20
-11.8667
11
35.5577
21
-11.7722
72
1
10
35.5577
20
-11.7722
11
35.4977
21
-11.6948
72
1
10
35.4977
20
-11.6948
11
35.4127
21
-11.6462
72
1
10
35.4127
20
-11.6462
11
35.3156
21
-11.6338
72
1
10
35.3156
20
-11.6338
11
33.8193
21
-11.7384
72
1
10
33.8193
20
-11.7384
11
33.7249
21
-11.7643
72
1
10
33.7249
20
-11.7643
11
33.6475
21
-11.8242
72
1
10
33.6475
20
-11.8242
11
33.5989
21
-11.9092
72
1
10
33.5989
20
-11.9092
11
33.5864
21
-12.0063
72
1
10
33.5864
20
-12.0063
11
33.6597
21
-13.0537
97
1
330
93
75
0
76
0
98
0
0
LWPOLYLINE
5
95
100
AcDbEntity
8
F_Cu_____________
62
256
100
AcDbPolyline
90
20
70
1
10
51.7954
20
-11.7855
10
51.8212
20
-11.88
10
51.8812
20
-11.9574
10
51.9662
20
-12.006
10
52.0633
20
-12.0184
10
53.5596
20
-11.9138
10
53.654
20
-11.8879
10
53.7314
20
-11.828
10
53.78
20
-11.743
10
53.7925
20
-11.6459
10
53.7192
20
-10.5985
10
53.6934
20
-10.504
10
53.6334
20
-10.4266
10
53.5484
20
-10.378
10
53.4513
20
-10.3656
10
51.955
20
-10.4702
10
51.8606
20
-10.4961
10
51.7832
20
-10.556
10
51.7346
20
-10.641
10
51.7221
20
-10.7381
0
HATCH
5
96
100
AcDbEntity
8
F_Cu_____________
62
256
100
AcDbHatch
10
0.0
20
0.0
210
0.0
220
0.0
230
1.0
2
SOLID
70
1
71
1
91
1
92
1
93
20
72
1
10
51.7954
20
-11.7855
11
51.8212
21
-11.88
72
1
10
51.8212
20
-11.88
11
51.8812
21
-11.9574
72
1
10
51.8812
20
-11.9574
11
51.9662
21
-12.006
72
1
10
51.9662
20
-12.006
11
52.0633
21
-12.0184
72
1
10
52.0633
20
-12.0184
11
53.5596
21
-11.9138
72
1
10
53.5596
20
-11.9138
11
53.654
21
-11.8879
72
1
10
53.654
20
-11.8879
11
53.7314
21
-11.828
72
1
10
53.7314
20
-11.828
11
53.78
21
-11.743
72
1
10
53.78
20
-11.743
11
53.7925
21
-11.6459
72
1
10
53.7925
20
-11.6459
11
53.7192
21
-10.5985
72
1
10
53.7192
20
-10.5985
11
53.6934
21
-10.504
72
1
10
53.6934
20
-10.504
11
53.6334
21
-10.4266
72
1
10
53.6334
20
-10.4266
11
53.5484
21
-10.378
72
1
10
53.5484
20
-10.378
11
53.4513
21
-10.3656
72
1
10
53.4513
20
-10.3656
11
51.955
21
-10.4702
72
1
10
51.955
20
-10.4702
11
51.8606
21
-10.4961
72
1
10
51.8606
20
-10.4961
11
51.7832
21
-10.556
72
1
10
51.7832
20
-10.556
11
51.7346
21
-10.641
72
1
10
51.7346
20
-10.641
11
51.7221
21
-10.7381
72
1
10
51.7221
20
-10.7381
11
51.7954
21
-11.7855
97
1
330
95
75
0
76
0
98
0
0
LWPOLYLINE
5
97
100
AcDbEntity
8
F_Cu_____________
62
256
100
AcDbPolyline
90
20
70
1
10
51.9726
20
-14.3194
10
51.9984
20
-14.4139
10
52.0584
20
-14.4913
10
52.1434
20
-14.5399
10
52.2405
20
-14.5523
10
53.7368
20
-14.4477
10
53.8312
20
-14.4218
10
53.9086
20
-14.3619
10
53.9572
20
-14.2769
10
53.9697
20
-14.1798
10
53.8964
20
-13.1324
10
53.8706
20
-13.0379
10
53.8106
20
-12.9605
10
53.7256
20
-12.9119
10
53.6285
20
-12.8995
10
52.1322
20
-13.0041
10
52.0378
20
-13.03
10
51.9604
20
-13.0899
10
51.9118
20
-13.1749
10
51.8993
20
-13.272
0
HATCH
5
98
100
AcDbEntity
8
F_Cu_____________
62
256
100
AcDbHatch
10
0.0
20
0.0
210
0.0
220
0.0
230
1.0
2
SOLID
70
1
71
1
91
1
92
1
93
20
72
1
10
51.9726
20
-14.3194
11
51.9984
21
-14.4139
72
1
10
51.9984
20
-14.4139
11
52.0584
21
-14.4913
72
1
10
52.0584
20
-14.4913
11
52.1434
21
-14.5399
72
1
10
52.1434
20
-14.5399
11
52.2405
21
-14.5523
72
1
10
52.2405
20
-14.5523
11
53.7368
21
-14.4477
72
1
10
53.7368
20
-14.4477
11
53.8312
21
-14.4218
72
1
10
53.8312
20
-14.4218
11
53.9086
21
-14.3619
72
1
10
53.9086
20
-14.3619
11
53.9572
21
-14.2769
72
1
10
53.9572
20
-14.2769
11
53.9697
21
-14.1798
72
1
10
53.9697
20
-14.1798
11
53.8964
21
-13.1324
72
1
10
53.8964
20
-13.1324
11
53.8706
21
-13.0379
72
1
10
53.8706
20
-13.0379
11
53.8106
21
-12.9605
72
1
10
53.8106
20
-12.9605
11
53.7256
21
-12.9119
72
1
10
53.7256
20
-12.9119
11
53.6285
21
-12.8995
72
1
10
53.6285
20
-12.8995
11
52.1322
21
-13.0041
72
1
10
52.1322
20
-13.0041
11
52.0378
21
-13.03
72
1
10
52.0378
20
-13.03
11
51.9604
21
-13.0899
72
1
10
51.9604
20
-13.0899
11
51.9118
21
-13.1749
72
1
10
51.9118
20
-13.1749
11
51.8993
21
-13.272
72
1
10
51.8993
20
-13.272
11
51.9726
21
-14.3194
97
1
330
97
75
0
76
0
98
0
0
LWPOLYLINE
5
99
100
AcDbEntity
8
F_Cu_____________
62
256
100
AcDbPolyline
90
20
70
1
10
52.1497
20
-16.8532
10
52.1755
20
-16.9477
10
52.2355
20
-17.0251
10
52.3205
20
-17.0737
10
52.4176
20
-17.0861
10
53.9139
20
-16.9815
10
54.0083
20
-16.9556
10
54.0857
20
-16.8957
10
54.1343
20
-16.8107
10
54.1468
20
-16.7136
10
54.0735
20
-15.6662
10
54.0477
20
-15.5717
10
53.9877
20
-15.4943
10
53.9027
20
-15.4457
10
53.8056
20
-15.4333
10
52.3093
20
-15.5379
10
52.2149
20
-15.5638
10
52.1375
20
-15.6237
10
52.0889
20
-15.7087
10
52.0764
20
-15.8058
0
HATCH
5
100
100
AcDbEntity
8
F_Cu_____________
62
256
100
AcDbHatch
10
0.0
20
0.0
210
0.0
220
0.0
230
1.0
2
SOLID
70
1
71
1
91
1
92
1
93
20
72
1
10
52.1497
20
-16.8532
11
52.1755
21
-16.9477
72
1
10
52.1755
20
-16.9477
11
52.2355
21
-17.0251
72
1
10
52.2355
20
-17.0251
11
52.3205
21
-17.0737
72
1
10
52.3205
20
-17.0737
11
52.4176
21
-17.0861
72
1
10
52.4176
20
-17.0861
11
53.9139
21
-16.9815
72
1
10
53.9139
20
-16.9815
11
54.0083
21
-16.9556
72
1
10
54.0083
20
-16.9556
11
54.0857
21
-16.8957
72
1
10
54.0857
20
-16.8957
11
54.1343
21
-16.8107
72
1
10
54.1343
20
-16.8107
11
54.1468
21
-16.7136
72
1
10
54.1468
20
-16.7136
11
54.0735
21
-15.6662
72
1
10
54.0735
20
-15.6662
11
54.0477
21
-15.5717
72
1
10
54.0477
20
-15.5717
11
53.9877
21
-15.4943
72
1
10
53.9877
20
-15.4943
11
53.9027
21
-15.4457
72
1
10
53.9027
20
-15.4457
11
53.8056
21
-15.4333
72
1
10
53.8056
20
-15.4333
11
52.3093
21
-15.5379
72
1
10
52.3093
20
-15.5379
11
52.2149
21
-15.5638
72
1
10
52.2149
20
-15.5638
11
52.1375
21
-15.6237
72
1
10
52.1375
20
-15.6237
11
52.0889
21
-15.7087
72
1
10
52.0889
20
-15.7087
11
52.0764
21
-15.8058
72
1
10
52.0764
20
-15.8058
11
52.1497
21
-16.8532
97
1
330
99
75
0
76
0
98
0
0
LWPOLYLINE
5
101
100
AcDbEntity
8
F_Cu_____________
62
256
100
AcDbPolyline
90
20
70
1
10
52.3269
20
-19.387
10
52.3527
20
-19.4815
10
52.4127
20
-19.5589
10
52.4977
20
-19.6075
10
52.5948
20
-19.6199
10
54.0911
20
-19.5153
10
54.1855
20
-19.4894
10
54.2629
20
-19.4295
10
54.3115
20
-19.3445
10
54.324
20
-19.2474
10
54.2507
20
-18.2
10
54.2249
20
-18.1055
10
54.1649
20
-18.0281
10
54.0799
20
-17.9795
10
53.9828
20
-17.9671
10
52.4865
20
-18.0717
10
52.3921
20
-18.0976
10
52.3147
20
-18.1575
10
52.2661
20
-18.2425
10
52.2536
20
-18.3396
0
HATCH
5
102
100
AcDbEntity
8
F_Cu_____________
62
256
100
AcDbHatch
10
0.0
20
0.0
210
0.0
220
0.0
230
1.0
2
SOLID
70
1
71
1
91
1
92
1
93
20
72
1
10
52.3269
20
-19.387
11
52.3527
21
-19.4815
72
1
10
52.3527
20
-19.4815
11
52.4127
21
-19.5589
72
1
10
52.4127
20
-19.5589
11
52.4977
21
-19.6075
72
1
10
52.4977
20
-19.6075
11
52.5948
21
-19.6199
72
1
10
52.5948
20
-19.6199
11
54.0911
21
-19.5153
72
1
10
54.0911
20
-19.5153
11
54.1855
21
-19.4894
72
1
10
54.1855
20
-19.4894
11
54.2629
21
-19.4295
72
1
10
54.2629
20
-19.4295
11
54.3115
21
-19.3445
72
1
10
54.3115
20
-19.3445
11
54.324
21
-19.2474
72
1
10
54.324
20
-19.2474
11
54.2507
21
-18.2
72
1
10
54.2507
20
-18.2
11
54.2249
21
-18.1055
72
1
10
54.2249
20
-18.1055
11
54.1649
21
-18.0281
72
1
10
54.1649
20
-18.0281
11
54.0799
21
-17.9795
72
1
10
54.0799
20
-17.9795
11
53.9828
21
-17.9671
72
1
10
53.9828
20
-17.9671
11
52.4865
21
-18.0717
72
1
10
52.4865
20
-18.0717
11
52.3921
21
-18.0976
72
1
10
52.3921
20
-18.0976
11
52.3147
21
-18.1575
72
1
10
52.3147
20
-18.1575
11
52.2661
21
-18.2425
72
1
10
52.2661
20
-18.2425
11
52.2536
21
-18.3396
72
1
10
52.2536
20
-18.3396
11
52.3269
21
-19.387
97
1
330
101
75
0
76
0
98
0
0
LWPOLYLINE
5
103
100
AcDbEntity
8
F_Cu_____________
62
256
100
AcDbPolyline
90
20
70
1
10
52.5041
20
-21.9208
10
52.5299
20
-22.0153
10
52.5899
20
-22.0927
10
52.6749
20
-22.1413
10
52.772
20
-22.1537
10
54.2683
20
-22.0491
10
54.3627
20
-22.0232
10
54.4401
20
-21.9633
10
54.4887
20
-21.8783
10
54.5012
20
-21.7812
10
54.4279
20
-20.7338
10
54.4021
20
-20.6393
10
54.3421
20
-20.5619
10
54.2571
20
-20.5133
10
54.16
20
-20.5009
10
52.6637
20
-20.6055
10
52.5693
20
-20.6314
10
52.4919
20
-20.6913
10
52.4433
20
-20.7763
10
52.4308
20
-20.8734
0
HATCH
5
104
100
AcDbEntity
8
F_Cu_____________
62
256
100
AcDbHatch
10
0.0
20
0.0
210
0.0
220
0.0
230
1.0
2
SOLID
70
1
71
1
91
1
92
1
93
20
72
1
10
52.5041
20
-21.9208
11
52.5299
21
-22.0153
72
1
10
52.5299
20
-22.0153
11
52.5899
21
-22.0927
72
1
10
52.5899
20
-22.0927
11
52.6749
21
-22.1413
72
1
10
52.6749
20
-22.1413
11
52.772
21
-22.1537
72
1
10
52.772
20
-22.1537
11
54.2683
21
-22.0491
72
1
10
54.2683
20
-22.0491
11
54.3627
21
-22.0232
72
1
10
54.3627
20
-22.0232
11
54.4401
21
-21.9633
72
1
10
54.4401
20
-21.9633
11
54.4887
21
-21.8783
72
1
10
54.4887
20
-21.8783
11
54.5012
21
-21.7812
72
1
10
54.5012
20
-21.7812
11
54.4279
21
-20.7338
72
1
10
54.4279
20
-20.7338
11
54.4021
21
-20.6393
72
1
10
54.4021
20
-20.6393
11
54.3421
21
-20.5619
72
1
10
54.3421
20
-20.5619
11
54.2571
21
-20.5133
72
1
10
54.2571
20
-20.5133
11
54.16
21
-20.5009
72
1
10
54.16
20
-20.5009
11
52.6637
21
-20.6055
72
1
10
52.6637
20
-20.6055
11
52.5693
21
-20.6314
72
1
10
52.5693
20
-20.6314
11
52.4919
21
-20.6913
72
1
10
52.4919
20
-20.6913
11
52.4433
21
-20.7763
72
1
10
52.4433
20
-20.7763
11
52.4308
21
-20.8734
72
1
10
52.4308
20
-20.8734
11
52.5041
21
-21.9208
97
1
330
103
75
0
76
0
98
0
0
LWPOLYLINE
5
105
100
AcDbEntity
8
F_Cu_____________
62
256
100
AcDbPolyline
90
20
70
1
10
52.6813
20
-24.4546
10
52.7071
20
-24.5491
10
52.7671
20
-24.6265
10
52.8521
20
-24.6751
10
52.9492
20
-24.6875
10
54.4455
20
-24.5829
10
54.5399
20
-24.557
10
54.6173
20
-24.4971
10
54.6659
20
-24.4121
10
54.6784
20
-24.315
10
54.6051
20
-23.2676
10
54.5793
20
-23.1731
10
54.5193
20
-23.0957
10
54.4343
20
-23.0471
10
54.3372
20
-23.0347
10
52.8409
20
-23.1393
10
52.7465
20
-23.1652
10
52.6691
20
-23.2251
10
52.6205
20
-23.3101
10
52.608
20
-23.4072
0
HATCH
5
106
100
AcDbEntity
8
F_Cu_____________
62
256
100
AcDbHatch
10
0.0
20
0.0
210
0.0
220
0.0
230
1.0
2
SOLID
70
1
71
1
91
1
92
1
93
20
72
1
10
52.6813
20
-24.4546
11
52.7071
21
-24.5491
72
1
10
52.7071
20
-24.5491
11
52.7671
21
-24.6265
72
1
10
52.7671
20
-24.6265
11
52.8521
21
-24.6751
72
1
10
52.8521
20
-24.6751
11
52.9492
21
-24.6875
72
1
10
52.9492
20
-24.6875
11
54.4455
21
-24.5829
72
1
10
54.4455
20
-24.5829
11
54.5399
21
-24.557
72
1
10
54.5399
20
-24.557
11
54.6173
21
-24.4971
72
1
10
54.6173
20
-24.4971
11
54.6659
21
-24.4121
72
1
10
54.6659
20
-24.4121
11
54.6784
21
-24.315
72
1
10
54.6784
20
-24.315
11
54.6051
21
-23.2676
72
1
10
54.6051
20
-23.2676
11
54.5793
21
-23.1731
72
1
10
54.5793
20
-23.1731
11
54.5193
21
-23.0957
72
1
10
54.5193
20
-23.0957
11
54.4343
21
-23.0471
72
1
10
54.4343
20
-23.0471
11
54.3372
21
-23.0347
72
1
10
54.3372
20
-23.0347
11
52.8409
21
-23.1393
72
1
10
52.8409
20
-23.1393
11
52.7465
21
-23.1652
72
1
10
52.7465
20
-23.1652
11
52.6691
21
-23.2251
72
1
10
52.6691
20
-23.2251
11
52.6205
21
-23.3101
72
1
10
52.6205
20
-23.3101
11
52.608
21
-23.4072
72
1
10
52.608
20
-23.4072
11
52.6813
21
-24.4546
97
1
330
105
75
0
76
0
98
0
0
LWPOLYLINE
5
107
100
AcDbEntity
8
F_Cu_____________
62
256
100
AcDbPolyline
90
20
70
1
10
52.8585
20
-26.9884
10
52.8843
20
-27.0829
10
52.9443
20
-27.1603
10
53.0293
20
-27.2089
10
53.1264
20
-27.2213
10
54.6227
20
-27.1167
10
54.7171
20
-27.0908
10
54.7945
20
-27.0309
10
54.8431
20
-26.9459
10
54.8556
20
-26.8488
10
54.7823
20
-25.8014
10
54.7565
20
-25.7069
10
54.6965
20
-25.6295
10
54.6115
20
-25.5809
10
54.5144
20
-25.5685
10
53.0181
20
-25.6731
10
52.9237
20
-25.699
10
52.8463
20
-25.7589
10
52.7977
20
-25.8439
10
52.7852
20
-25.941
0
HATCH
5
108
100
AcDbEntity
8
F_Cu_____________
62
256
100
AcDbHatch
10
0.0
20
0.0
210
0.0
220
0.0
230
1.0
2
SOLID
70
1
71
1
91
1
92
1
93
20
72
1
10
52.8585
20
-26.9884
11
52.8843
21
-27.0829
72
1
10
52.8843
20
-27.0829
11
52.9443
21
-27.1603
72
1
10
52.9443
20
-27.1603
11
53.0293
21
-27.2089
72
1
10
53.0293
20
-27.2089
11
53.1264
21
-27.2213
72
1
10
53.1264
20
-27.2213
11
54.6227
21
-27.1167
72
1
10
54.6227
20
-27.1167
11
54.7171
21
-27.0908
72
1
10
54.7171
20
-27.0908
11
54.7945
21
-27.0309
72
1
10
54.7945
20
-27.0309
11
54.8431
21
-26.9459
72
1
10
54.8431
20
-26.9459
11
54.8556
21
-26.8488
72
1
10
54.8556
20
-26.8488
11
54.7823
21
-25.8014
72
1
10
54.7823
20
-25.8014
11
54.7565
21
-25.7069
72
1
10
54.7565
20
-25.7069
11
54.6965
21
-25.6295
72
1
10
54.6965
20
-25.6295
11
54.6115
21
-25.5809
72
1
10
54.6115
20
-25.5809
11
54.5144
21
-25.5685
72
1
10
54.5144
20
-25.5685
11
53.0181
21
-25.6731
72
1
10
53.0181
20
-25.6731
11
52.9237
21
-25.699
72
1
10
52.9237
20
-25.699
11
52.8463
21
-25.7589
72
1
10
52.8463
20
-25.7589
11
52.7977
21
-25.8439
72
1
10
52.7977
20
-25.8439
11
52.7852
21
-25.941
72
1
10
52.7852
20
-25.941
11
52.8585
21
-26.9884
97
1
330
107
75
0
76
0
98
0
0
LWPOLYLINE
5
109
100
AcDbEntity
8
F_Cu_____________
62
256
100
AcDbPolyline
90
20
70
1
10
-124.9743
20
-26.6628
10
-124.9636
20
-26.7601
10
-124.9165
20
-26.8459
10
-124.8401
20
-26.9072
10
-124.7462
20
-26.9347
10
-123.2519
20
-27.0654
10
-123.1546
20
-27.0547
10
-123.0687
20
-27.0076
10
-123.0075
20
-26.9312
10
-122.98
20
-26.8372
10
-122.8885
20
-25.7912
10
-122.8992
20
-25.6939
10
-122.9463
20
-25.6081
10
-123.0227
20
-25.5468
10
-123.1166
20
-25.5193
10
-124.6109
20
-25.3886
10
-124.7082
20
-25.3993
10
-124.7941
20
-25.4464
10
-124.8553
20
-25.5228
10
-124.8828
20
-25.6168
0
HATCH
5
110
100
AcDbEntity
8
F_Cu_____________
62
256
100
AcDbHatch
10
0.0
20
0.0
210
0.0
220
0.0
230
1.0
2
SOLID
70
1
71
1
91
1
92
1
93
20
72
1
10
-124.9743
20
-26.6628
11
-124.9636
21
-26.7601
72
1
10
-124.9636
20
-26.7601
11
-124.9165
21
-26.8459
72
1
10
-124.9165
20
-26.8459
11
-124.8401
21
-26.9072
72
1
10
-124.8401
20
-26.9072
11
-124.7462
21
-26.9347
72
1
10
-124.7462
20
-26.9347
11
-123.2519
21
-27.0654
72
1
10
-123.2519
20
-27.0654
11
-123.1546
21
-27.0547
72
1
10
-123.1546
20
-27.0547
11
-123.0687
21
-27.0076
72
1
10
-123.0687
20
-27.0076
11
-123.0075
21
-26.9312
72
1
10
-123.0075
20
-26.9312
11
-122.98
21
-26.8372
72
1
10
-122.98
20
-26.8372
11
-122.8885
21
-25.7912
72
1
10
-122.8885
20
-25.7912
11
-122.8992
21
-25.6939
72
1
10
-122.8992
20
-25.6939
11
-122.9463
21
-25.6081
72
1
10
-122.9463
20
-25.6081
11
-123.0227
21
-25.5468
72
1
10
-123.0227
20
-25.5468
11
-123.1166
21
-25.5193
72
1
10
-123.1166
20
-25.5193
11
-124.6109
21
-25.3886
72
1
10
-124.6109
20
-25.3886
11
-124.7082
21
-25.3993
72
1
10
-124.7082
20
-25.3993
11
-124.7941
21
-25.4464
72
1
10
-124.7941
20
-25.4464
11
-124.8553
21
-25.5228
72
1
10
-124.8553
20
-25.5228
11
-124.8828
21
-25.6168
72
1
10
-124.8828
20
-25.6168
11
-124.9743
21
-26.6628
97
1
330
109
75
0
76
0
98
0
0
LWPOLYLINE
5
111
100
AcDbEntity
8
F_Cu_____________
62
256
100
AcDbPolyline
90
20
70
1
10
-124.753
20
-24.1325
10
-124.7423
20
-24.2298
10
-124.6952
20
-24.3156
10
-124.6188
20
-24.3769
10
-124.5249
20
-24.4044
10
-123.0306
20
-24.5351
10
-122.9333
20
-24.5244
10
-122.8474
20
-24.4773
10
-122.7862
20
-24.4009
10
-122.7587
20
-24.3069
10
-122.6672
20
-23.2609
10
-122.6779
20
-23.1636
10
-122.725
20
-23.0778
10
-122.8014
20
-23.0165
10
-122.8953
20
-22.989
10
-124.3896
20
-22.8583
10
-124.4869
20
-22.869
10
-124.5728
20
-22.9161
10
-124.634
20
-22.9925
10
-124.6615
20
-23.0865
0
HATCH
5
112
100
AcDbEntity
8
F_Cu_____________
62
256
100
AcDbHatch
10
0.0
20
0.0
210
0.0
220
0.0
230
1.0
2
SOLID
70
1
71
1
91
1
92
1
93
20
72
1
10
-124.753
20
-24.1325
11
-124.7423
21
-24.2298
72
1
10
-124.7423
20
-24.2298
11
-124.6952
21
-24.3156
72
1
10
-124.6952
20
-24.3156
11
-124.6188
21
-24.3769
72
1
10
-124.6188
20
-24.3769
11
-124.5249
21
-24.4044
72
1
10
-124.5249
20
-24.4044
11
-123.0306
21
-24.5351
72
1
10
-123.0306
20
-24.5351
11
-122.9333
21
-24.5244
72
1
10
-122.9333
20
-24.5244
11
-122.8474
21
-24.4773
72
1
10
-122.8474
20
-24.4773
11
-122.7862
21
-24.4009
72
1
10
-122.7862
20
-24.4009
11
-122.7587
21
-24.3069
72
1
10
-122.7587
20
-24.3069
11
-122.6672
21
-23.2609
72
1
10
-122.6672
20
-23.2609
11
-122.6779
21
-23.1636
72
1
10
-122.6779
20
-23.1636
11
-122.725
21
-23.0778
72
1
10
-122.725
20
-23.0778
11
-122.8014
21
-23.0165
72
1
10
-122.8014
20
-23.0165
11
-122.8953
21
-22.989
72
1
10
-122.8953
20
-22.989
11
-124.3896
21
-22.8583
72
1
10
-124.3896
20
-22.8583
11
-124.4869
21
-22.869
72
1
10
-124.4869
20
-22.869
11
-124.5728
21
-22.9161
72
1
10
-124.5728
20
-22.9161
11
-124.634
21
-22.9925
72
1
10
-124.634
20
-22.9925
11
-124.6615
21
-23.0865
72
1
10
-124.6615
20
-23.0865
11
-124.753
21
-24.1325
97
1
330
111
75
0
76
0
98
0
0
LWPOLYLINE
5
113
100
AcDbEntity
8
F_Cu_____________
62
256
100
AcDbPolyline
90
20
70
1
10
-124.5316
20
-21.6022
10
-124.5209
20
-21.6995
10
-124.4738
20
-21.7853
10
-124.3974
20
-21.8466
10
-124.3035
20
-21.8741
10
-122.8092
20
-22.0048
10
-122.7119
20
-21.9941
10
-122.626
20
-21.947
10
-122.5648
20
-21.8706
10
-122.5373
20
-21.7766
10
-122.4458
20
-20.7306
10
-122.4565
20
-20.6333
10
-122.5036
20
-20.5475
10
-122.58
20
-20.4862
10
-122.6739
20
-20.4587
10
-124.1682
20
-20.328
10
-124.2655
20
-20.3387
10
-124.3514
20
-20.3858
10
-124.4126
20
-20.4622
10
-124.4401
20
-20.5562
0
HATCH
5
114
100
AcDbEntity
8
F_Cu_____________
62
256
100
AcDbHatch
10
0.0
20
0.0
210
0.0
220
0.0
230
1.0
2
SOLID
70
1
71
1
91
1
92
1
93
20
72
1
10
-124.5316
20
-21.6022
11
-124.5209
21
-21.6995
72
1
10
-124.5209
20
-21.6995
11
-124.4738
21
-21.7853
72
1
10
-124.4738
20
-21.7853
11
-124.3974
21
-21.8466
72
1
10
-124.3974
20
-21.8466
11
-124.3035
21
-21.8741
72
1
10
-124.3035
20
-21.8741
11
-122.8092
21
-22.0048
72
1
10
-122.8092
20
-22.0048
11
-122.7119
21
-21.9941
72
1
10
-122.7119
20
-21.9941
11
-122.626
21
-21.947
72
1
10
-122.626
20
-21.947
11
-122.5648
21
-21.8706
72
1
10
-122.5648
20
-21.8706
11
-122.5373
21
-21.7766
72
1
10
-122.5373
20
-21.7766
11
-122.4458
21
-20.7306
72
1
10
-122.4458
20
-20.7306
11
-122.4565
21
-20.6333
72
1
10
-122.4565
20
-20.6333
11
-122.5036
21
-20.5475
72
1
10
-122.5036
20
-20.5475
11
-122.58
21
-20.4862
72
1
10
-122.58
20
-20.4862
11
-122.6739
21
-20.4587
72
1
10
-122.6739
20
-20.4587
11
-124.1682
21
-20.328
72
1
10
-124.1682
20
-20.328
11
-124.2655
21
-20.3387
72
1
10
-124.2655
20
-20.3387
11
-124.3514
21
-20.3858
72
1
10
-124.3514
20
-20.3858
11
-124.4126
21
-20.4622
72
1
10
-124.4126
20
-20.4622
11
-124.4401
21
-20.5562
72
1
10
-124.4401
20
-20.5562
11
-124.5316
21
-21.6022
97
1
330
113
75
0
76
0
98
0
0
LWPOLYLINE
5
115
100
AcDbEntity
8
F_Cu_____________
62
256
100
AcDbPolyline
90
20
70
1
10
-124.3102
20
-19.0718
10
-124.2995
20
-19.1691
10
-124.2524
20
-19.2549
10
-124.176
20
-19.3162
10
-124.0821
20
-19.3437
10
-122.5878
20
-19.4744
10
-122.4905
20
-19.4637
10
-122.4046
20
-19.4166
10
-122.3434
20
-19.3402
10
-122.3159
20
-19.2462
10
-122.2244
20
-18.2002
10
-122.2351
20
-18.1029
10
-122.2822
20
-18.0171
10
-122.3586
20
-17.9558
10
-122.4525
20
-17.9283
10
-123.9468
20
-17.7976
10
-124.0441
20
-17.8083
10
-124.13
20
-17.8554
10
-124.1912
20
-17.9318
10
-124.2187
20
-18.0258
0
HATCH
5
116
100
AcDbEntity
8
F_Cu_____________
62
256
100
AcDbHatch
10
0.0
20
0.0
210
0.0
220
0.0
230
1.0
2
SOLID
70
1
71
1
91
1
92
1
93
20
72
1
10
-124.3102
20
-19.0718
11
-124.2995
21
-19.1691
72
1
10
-124.2995
20
-19.1691
11
-124.2524
21
-19.2549
72
1
10
-124.2524
20
-19.2549
11
-124.176
21
-19.3162
72
1
10
-124.176
20
-19.3162
11
-124.0821
21
-19.3437
72
1
10
-124.0821
20
-19.3437
11
-122.5878
21
-19.4744
72
1
10
-122.5878
20
-19.4744
11
-122.4905
21
-19.4637
72
1
10
-122.4905
20
-19.4637
11
-122.4046
21
-19.4166
72
1
10
-122.4046
20
-19.4166
11
-122.3434
21
-19.3402
72
1
10
-122.3434
20
-19.3402
11
-122.3159
21
-19.2462
72
1
10
-122.3159
20
-19.2462
11
-122.2244
21
-18.2002
72
1
10
-122.2244
20
-18.2002
11
-122.2351
21
-18.1029
72
1
10
-122.2351
20
-18.1029
11
-122.2822
21
-18.0171
72
1
10
-122.2822
20
-18.0171
11
-122.3586
21
-17.9558
72
1
10
-122.3586
20
-17.9558
11
-122.4525
21
-17.9283
72
1
10
-122.4525
20
-17.9283
11
-123.9468
21
-17.7976
72
1
10
-123.9468
20
-17.7976
11
-124.0441
21
-17.8083
72
1
10
-124.0441
20
-17.8083
11
-124.13
21
-17.8554
72
1
10
-124.13
20
-17.8554
11
-124.1912
21
-17.9318
72
1
10
-124.1912
20
-17.9318
11
-124.2187
21
-18.0258
72
1
10
-124.2187
20
-18.0258
11
-124.3102
21
-19.0718
97
1
330
115
75
0
76
0
98
0
0
LWPOLYLINE
5
117
100
AcDbEntity
8
F_Cu_____________
62
256
100
AcDbPolyline
90
20
70
1
10
-124.0888
20
-16.5415
10
-124.0781
20
-16.6388
10
-124.031
20
-16.7246
10
-123.9546
20
-16.7859
10
-123.8607
20
-16.8134
10
-122.3664
20
-16.9441
10
-122.2691
20
-16.9334
10
-122.1832
20
-16.8863
10
-122.122
20
-16.8099
10
-122.0945
20
-16.7159
10
-122.003
20
-15.6699
10
-122.0137
20
-15.5726
10
-122.0608
20
-15.4868
10
-122.1372
20
-15.4255
10
-122.2311
20
-15.398
10
-123.7254
20
-15.2673
10
-123.8227
20
-15.278
10
-123.9086
20
-15.3251
10
-123.9698
20
-15.4015
10
-123.9973
20
-15.4955
0
HATCH
5
118
100
AcDbEntity
8
F_Cu_____________
62
256
100
AcDbHatch
10
0.0
20
0.0
210
0.0
220
0.0
230
1.0
2
SOLID
70
1
71
1
91
1
92
1
93
20
72
1
10
-124.0888
20
-16.5415
11
-124.0781
21
-16.6388
72
1
10
-124.0781
20
-16.6388
11
-124.031
21
-16.7246
72
1
10
-124.031
20
-16.7246
11
-123.9546
21
-16.7859
72
1
10
-123.9546
20
-16.7859
11
-123.8607
21
-16.8134
72
1
10
-123.8607
20
-16.8134
11
-122.3664
21
-16.9441
72
1
10
-122.3664
20
-16.9441
11
-122.2691
21
-16.9334
72
1
10
-122.2691
20
-16.9334
11
-122.1832
21
-16.8863
72
1
10
-122.1832
20
-16.8863
11
-122.122
21
-16.8099
72
1
10
-122.122
20
-16.8099
11
-122.0945
21
-16.7159
72
1
10
-122.0945
20
-16.7159
11
-122.003
21
-15.6699
72
1
10
-122.003
20
-15.6699
11
-122.0137
21
-15.5726
72
1
10
-122.0137
20
-15.5726
11
-122.0608
21
-15.4868
72
1
10
-122.0608
20
-15.4868
11
-122.1372
21
-15.4255
72
1
10
-122.1372
20
-15.4255
11
-122.2311
21
-15.398
72
1
10
-122.2311
20
-15.398
11
-123.7254
21
-15.2673
72
1
10
-123.7254
20
-15.2673
11
-123.8227
21
-15.278
72
1
10
-123.8227
20
-15.278
11
-123.9086
21
-15.3251
72
1
10
-123.9086
20
-15.3251
11
-123.9698
21
-15.4015
72
1
10
-123.9698
20
-15.4015
11
-123.9973
21
-15.4955
72
1
10
-123.9973
20
-15.4955
11
-124.0888
21
-16.5415
97
1
330
117
75
0
76
0
98
0
0
LWPOLYLINE
5
119
100
AcDbEntity
8
F_Cu_____________
62
256
100
AcDbPolyline
90
20
70
1
10
-123.8675
20
-14.0112
10
-123.8568
20
-14.1085
10
-123.8097
20
-14.1943
10
-123.7333
20
-14.2556
10
-123.6394
20
-14.2831
10
-122.1451
20
-14.4138
10
-122.0478
20
-14.4031
10
-121.9619
20
-14.356
10
-121.9007
20
-14.2796
10
-121.8732
20
-14.1856
10
-121.7817
20
-13.1396
10
-121.7924
20
-13.0423
10
-121.8395
20
-12.9565
10
-121.9159
20
-12.8952
10
-122.0098
20
-12.8677
10
-123.5041
20
-12.737
10
-123.6014
20
-12.7477
10
-123.6873
20
-12.7948
10
-123.7485
20
-12.8712
10
-123.776
20
-12.9652
0
HATCH
5
120
100
AcDbEntity
8
F_Cu_____________
62
256
100
AcDbHatch
10
0.0
20
0.0
210
0.0
220
0.0
230
1.0
2
SOLID
70
1
71
1
91
1
92
1
93
20
72
1
10
-123.8675
20
-14.0112
11
-123.8568
21
-14.1085
72
1
10
-123.8568
20
-14.1085
11
-123.8097
21
-14.1943
72
1
10
-123.8097
20
-14.1943
11
-123.7333
21
-14.2556
72
1
10
-123.7333
20
-14.2556
11
-123.6394
21
-14.2831
72
1
10
-123.6394
20
-14.2831
11
-122.1451
21
-14.4138
72
1
10
-122.1451
20
-14.4138
11
-122.0478
21
-14.4031
72
1
10
-122.0478
20
-14.4031
11
-121.9619
21
-14.356
72
1
10
-121.9619
20
-14.356
11
-121.9007
21
-14.2796
72
1
10
-121.9007
20
-14.2796
11
-121.8732
21
-14.1856
72
1
10
-121.8732
20
-14.1856
11
-121.7817
21
-13.1396
72
1
10
-121.7817
20
-13.1396
11
-121.7924
21
-13.0423
72
1
10
-121.7924
20
-13.0423
11
-121.8395
21
-12.9565
72
1
10
-121.8395
20
-12.9565
11
-121.9159
21
-12.8952
72
1
10
-121.9159
20
-12.8952
11
-122.0098
21
-12.8677
72
1
10
-122.0098
20
-12.8677
11
-123.5041
21
-12.737
72
1
10
-123.5041
20
-12.737
11
-123.6014
21
-12.7477
72
1
10
-123.6014
20
-12.7477
11
-123.6873
21
-12.7948
72
1
10
-123.6873
20
-12.7948
11
-123.7485
21
-12.8712
72
1
10
-123.7485
20
-12.8712
11
-123.776
21
-12.9652
72
1
10
-123.776
20
-12.9652
11
-123.8675
21
-14.0112
97
1
330
119
75
0
76
0
98
0
0
LWPOLYLINE
5
121
100
AcDbEntity
8
F_Cu_____________
62
256
100
AcDbPolyline
90
20
70
1
10
-123.6461
20
-11.4808
10
-123.6354
20
-11.5781
10
-123.5883
20
-11.6639
10
-123.5119
20
-11.7252
10
-123.418
20
-11.7527
10
-121.9237
20
-11.8834
10
-121.8264
20
-11.8727
10
-121.7405
20
-11.8256
10
-121.6793
20
-11.7492
10
-121.6518
20
-11.6552
10
-121.5603
20
-10.6092
10
-121.571
20
-10.5119
10
-121.6181
20
-10.4261
10
-121.6945
20
-10.3648
10
-121.7884
20
-10.3373
10
-123.2827
20
-10.2066
10
-123.38
20
-10.2173
10
-123.4659
20
-10.2644
10
-123.5271
20
-10.3408
10
-123.5546
20
-10.4348
0
HATCH
5
122
100
AcDbEntity
8
F_Cu_____________
62
256
100
AcDbHatch
10
0.0
20
0.0
210
0.0
220
0.0
230
1.0
2
SOLID
70
1
71
1
91
1
92
1
93
20
72
1
10
-123.6461
20
-11.4808
11
-123.6354
21
-11.5781
72
1
10
-123.6354
20
-11.5781
11
-123.5883
21
-11.6639
72
1
10
-123.5883
20
-11.6639
11
-123.5119
21
-11.7252
72
1
10
-123.5119
20
-11.7252
11
-123.418
21
-11.7527
72
1
10
-123.418
20
-11.7527
11
-121.9237
21
-11.8834
72
1
10
-121.9237
20
-11.8834
11
-121.8264
21
-11.8727
72
1
10
-121.8264
20
-11.8727
11
-121.7405
21
-11.8256
72
1
10
-121.7405
20
-11.8256
11
-121.6793
21
-11.7492
72
1
10
-121.6793
20
-11.7492
11
-121.6518
21
-11.6552
72
1
10
-121.6518
20
-11.6552
11
-121.5603
21
-10.6092
72
1
10
-121.5603
20
-10.6092
11
-121.571
21
-10.5119
72
1
10
-121.571
20
-10.5119
11
-121.6181
21
-10.4261
72
1
10
-121.6181
20
-10.4261
11
-121.6945
21
-10.3648
72
1
10
-121.6945
20
-10.3648
11
-121.7884
21
-10.3373
72
1
10
-121.7884
20
-10.3373
11
-123.2827
21
-10.2066
72
1
10
-123.2827
20
-10.2066
11
-123.38
21
-10.2173
72
1
10
-123.38
20
-10.2173
11
-123.4659
21
-10.2644
72
1
10
-123.4659
20
-10.2644
11
-123.5271
21
-10.3408
72
1
10
-123.5271
20
-10.3408
11
-123.5546
21
-10.4348
72
1
10
-123.5546
20
-10.4348
11
-123.6461
21
-11.4808
97
1
330
121
75
0
76
0
98
0
0
LWPOLYLINE
5
123
100
AcDbEntity
8
F_Cu_____________
62
256
100
AcDbPolyline
90
20
70
1
10
-105.5353
20
-13.0653
10
-105.5246
20
-13.1626
10
-105.4775
20
-13.2484
10
-105.4011
20
-13.3097
10
-105.3072
20
-13.3372
10
-103.8129
20
-13.4679
10
-103.7156
20
-13.4572
10
-103.6297
20
-13.4101
10
-103.5685
20
-13.3337
10
-103.541
20
-13.2397
10
-103.4495
20
-12.1937
10
-103.4602
20
-12.0964
10
-103.5073
20
-12.0106
10
-103.5837
20
-11.9493
10
-103.6776
20
-11.9218
10
-105.1719
20
-11.7911
10
-105.2692
20
-11.8018
10
-105.3551
20
-11.8489
10
-105.4163
20
-11.9253
10
-105.4438
20
-12.0193
0
HATCH
5
124
100
AcDbEntity
8
F_Cu_____________
62
256
100
AcDbHatch
10
0.0
20
0.0
210
0.0
220
0.0
230
1.0
2
SOLID
70
1
71
1
91
1
92
1
93
20
72
1
10
-105.5353
20
-13.0653
11
-105.5246
21
-13.1626
72
1
10
-105.5246
20
-13.1626
11
-105.4775
21
-13.2484
72
1
10
-105.4775
20
-13.2484
11
-105.4011
21
-13.3097
72
1
10
-105.4011
20
-13.3097
11
-105.3072
21
-13.3372
72
1
10
-105.3072
20
-13.3372
11
-103.8129
21
-13.4679
72
1
10
-103.8129
20
-13.4679
11
-103.7156
21
-13.4572
72
1
10
-103.7156
20
-13.4572
11
-103.6297
21
-13.4101
72
1
10
-103.6297
20
-13.4101
11
-103.5685
21
-13.3337
72
1
10
-103.5685
20
-13.3337
11
-103.541
21
-13.2397
72
1
10
-103.541
20
-13.2397
11
-103.4495
21
-12.1937
72
1
10
-103.4495
20
-12.1937
11
-103.4602
21
-12.0964
72
1
10
-103.4602
20
-12.0964
11
-103.5073
21
-12.0106
72
1
10
-103.5073
20
-12.0106
11
-103.5837
21
-11.9493
72
1
10
-103.5837
20
-11.9493
11
-103.6776
21
-11.9218
72
1
10
-103.6776
20
-11.9218
11
-105.1719
21
-11.7911
72
1
10
-105.1719
20
-11.7911
11
-105.2692
21
-11.8018
72
1
10
-105.2692
20
-11.8018
11
-105.3551
21
-11.8489
72
1
10
-105.3551
20
-11.8489
11
-105.4163
21
-11.9253
72
1
10
-105.4163
20
-11.9253
11
-105.4438
21
-12.0193
72
1
10
-105.4438
20
-12.0193
11
-105.5353
21
-13.0653
97
1
330
123
75
0
76
0
98
0
0
LWPOLYLINE
5
125
100
AcDbEntity
8
F_Cu_____________
62
256
100
AcDbPolyline
90
20
70
1
10
-105.7566
20
-15.5957
10
-105.7459
20
-15.693
10
-105.6988
20
-15.7788
10
-105.6224
20
-15.8401
10
-105.5285
20
-15.8676
10
-104.0342
20
-15.9983
10
-103.9369
20
-15.9876
10
-103.851
20
-15.9405
10
-103.7898
20
-15.8641
10
-103.7623
20
-15.7701
10
-103.6708
20
-14.7241
10
-103.6815
20
-14.6268
10
-103.7286
20
-14.541
10
-103.805
20
-14.4797
10
-103.8989
20
-14.4522
10
-105.3932
20
-14.3215
10
-105.4905
20
-14.3322
10
-105.5764
20
-14.3793
10
-105.6376
20
-14.4557
10
-105.6651
20
-14.5497
0
HATCH
5
126
100
AcDbEntity
8
F_Cu_____________
62
256
100
AcDbHatch
10
0.0
20
0.0
210
0.0
220
0.0
230
1.0
2
SOLID
70
1
71
1
91
1
92
1
93
20
72
1
10
-105.7566
20
-15.5957
11
-105.7459
21
-15.693
72
1
10
-105.7459
20
-15.693
11
-105.6988
21
-15.7788
72
1
10
-105.6988
20
-15.7788
11
-105.6224
21
-15.8401
72
1
10
-105.6224
20
-15.8401
11
-105.5285
21
-15.8676
72
1
10
-105.5285
20
-15.8676
11
-104.0342
21
-15.9983
72
1
10
-104.0342
20
-15.9983
11
-103.9369
21
-15.9876
72
1
10
-103.9369
20
-15.9876
11
-103.851
21
-15.9405
72
1
10
-103.851
20
-15.9405
11
-103.7898
21
-15.8641
72
1
10
-103.7898
20
-15.8641
11
-103.7623
21
-15.7701
72
1
10
-103.7623
20
-15.7701
11
-103.6708
21
-14.7241
72
1
10
-103.6708
20
-14.7241
11
-103.6815
21
-14.6268
72
1
10
-103.6815
20
-14.6268
11
-103.7286
21
-14.541
72
1
10
-103.7286
20
-14.541
11
-103.805
21
-14.4797
72
1
10
-103.805
20
-14.4797
11
-103.8989
21
-14.4522
72
1
10
-103.8989
20
-14.4522
11
-105.3932
21
-14.3215
72
1
10
-105.3932
20
-14.3215
11
-105.4905
21
-14.3322
72
1
10
-105.4905
20
-14.3322
11
-105.5764
21
-14.3793
72
1
10
-105.5764
20
-14.3793
11
-105.6376
21
-14.4557
72
1
10
-105.6376
20
-14.4557
11
-105.6651
21
-14.5497
72
1
10
-105.6651
20
-14.5497
11
-105.7566
21
-15.5957
97
1
330
125
75
0
76
0
98
0
0
LWPOLYLINE
5
127
100
AcDbEntity
8
F_Cu_____________
62
256
100
AcDbPolyline
90
20
70
1
10
-105.978
20
-18.126
10
-105.9673
20
-18.2233
10
-105.9202
20
-18.3091
10
-105.8438
20
-18.3704
10
-105.7499
20
-18.3979
10
-104.2556
20
-18.5286
10
-104.1583
20
-18.5179
10
-104.0724
20
-18.4708
10
-104.0112
20
-18.3944
10
-103.9837
20
-18.3004
10
-103.8922
20
-17.2544
10
-103.9029
20
-17.1571
10
-103.95
20
-17.0713
10
-104.0264
20
-17.01
10
-104.1203
20
-16.9825
10
-105.6146
20
-16.8518
10
-105.7119
20
-16.8625
10
-105.7978
20
-16.9096
10
-105.859
20
-16.986
10
-105.8865
20
-17.08
0
HATCH
5
128
100
AcDbEntity
8
F_Cu_____________
62
256
100
AcDbHatch
10
0.0
20
0.0
210
0.0
220
0.0
230
1.0
2
SOLID
70
1
71
1
91
1
92
1
93
20
72
1
10
-105.978
20
-18.126
11
-105.9673
21
-18.2233
72
1
10
-105.9673
20
-18.2233
11
-105.9202
21
-18.3091
72
1
10
-105.9202
20
-18.3091
11
-105.8438
21
-18.3704
72
1
10
-105.8438
20
-18.3704
11
-105.7499
21
-18.3979
72
1
10
-105.7499
20
-18.3979
11
-104.2556
21
-18.5286
72
1
10
-104.2556
20
-18.5286
11
-104.1583
21
-18.5179
72
1
10
-104.1583
20
-18.5179
11
-104.0724
21
-18.4708
72
1
10
-104.0724
20
-18.4708
11
-104.0112
21
-18.3944
72
1
10
-104.0112
20
-18.3944
11
-103.9837
21
-18.3004
72
1
10
-103.9837
20
-18.3004
11
-103.8922
21
-17.2544
72
1
10
-103.8922
20
-17.2544
11
-103.9029
21
-17.1571
72
1
10
-103.9029
20
-17.1571
11
-103.95
21
-17.0713
72
1
10
-103.95
20
-17.0713
11
-104.0264
21
-17.01
72
1
10
-104.0264
20
-17.01
11
-104.1203
21
-16.9825
72
1
10
-104.1203
20
-16.9825
11
-105.6146
21
-16.8518
72
1
10
-105.6146
20
-16.8518
11
-105.7119
21
-16.8625
72
1
10
-105.7119
20
-16.8625
11
-105.7978
21
-16.9096
72
1
10
-105.7978
20
-16.9096
11
-105.859
21
-16.986
72
1
10
-105.859
20
-16.986
11
-105.8865
21
-17.08
72
1
10
-105.8865
20
-17.08
11
-105.978
21
-18.126
97
1
330
127
75
0
76
0
98
0
0
LWPOLYLINE
5
129
100
AcDbEntity
8
F_Cu_____________
62
256
100
AcDbPolyline
90
20
70
1
10
-106.1994
20
-20.6563
10
-106.1887
20
-20.7536
10
-106.1416
20
-20.8394
10
-106.0652
20
-20.9007
10
-105.9713
20
-20.9282
10
-104.477
20
-21.0589
10
-104.3797
20
-21.0482
10
-104.2938
20
-21.0011
10
-104.2326
20
-20.9247
10
-104.2051
20
-20.8307
10
-104.1136
20
-19.7847
10
-104.1243
20
-19.6874
10
-104.1714
20
-19.6016
10
-104.2478
20
-19.5403
10
-104.3417
20
-19.5128
10
-105.836
20
-19.3821
10
-105.9333
20
-19.3928
10
-106.0192
20
-19.4399
10
-106.0804
20
-19.5163
10
-106.1079
20
-19.6103
0
HATCH
5
130
100
AcDbEntity
8
F_Cu_____________
62
256
100
AcDbHatch
10
0.0
20
0.0
210
0.0
220
0.0
230
1.0
2
SOLID
70
1
71
1
91
1
92
1
93
20
72
1
10
-106.1994
20
-20.6563
11
-106.1887
21
-20.7536
72
1
10
-106.1887
20
-20.7536
11
-106.1416
21
-20.8394
72
1
10
-106.1416
20
-20.8394
11
-106.0652
21
-20.9007
72
1
10
-106.0652
20
-20.9007
11
-105.9713
21
-20.9282
72
1
10
-105.9713
20
-20.9282
11
-104.477
21
-21.0589
72
1
10
-104.477
20
-21.0589
11
-104.3797
21
-21.0482
72
1
10
-104.3797
20
-21.0482
11
-104.2938
21
-21.0011
72
1
10
-104.2938
20
-21.0011
11
-104.2326
21
-20.9247
72
1
10
-104.2326
20
-20.9247
11
-104.2051
21
-20.8307
72
1
10
-104.2051
20
-20.8307
11
-104.1136
21
-19.7847
72
1
10
-104.1136
20
-19.7847
11
-104.1243
21
-19.6874
72
1
10
-104.1243
20
-19.6874
11
-104.1714
21
-19.6016
72
1
10
-104.1714
20
-19.6016
11
-104.2478
21
-19.5403
72
1
10
-104.2478
20
-19.5403
11
-104.3417
21
-19.5128
72
1
10
-104.3417
20
-19.5128
11
-105.836
21
-19.3821
72
1
10
-105.836
20
-19.3821
11
-105.9333
21
-19.3928
72
1
10
-105.9333
20
-19.3928
11
-106.0192
21
-19.4399
72
1
10
-106.0192
20
-19.4399
11
-106.0804
21
-19.5163
72
1
10
-106.0804
20
-19.5163
11
-106.1079
21
-19.6103
72
1
10
-106.1079
20
-19.6103
11
-106.1994
21
-20.6563
97
1
330
129
75
0
76
0
98
0
0
LWPOLYLINE
5
131
100
AcDbEntity
8
F_Cu_____________
62
256
100
AcDbPolyline
90
20
70
1
10
-106.4208
20
-23.1867
10
-106.4101
20
-23.284
10
-106.363
20
-23.3698
10
-106.2866
20
-23.4311
10
-106.1927
20
-23.4586
10
-104.6984
20
-23.5893
10
-104.6011
20
-23.5786
10
-104.5152
20
-23.5315
10
-104.454
20
-23.4551
10
-104.4265
20
-23.3611
10
-104.335
20
-22.3151
10
-104.3457
20
-22.2178
10
-104.3928
20
-22.132
10
-104.4692
20
-22.0707
10
-104.5631
20
-22.0432
10
-106.0574
20
-21.9125
10
-106.1547
20
-21.9232
10
-106.2406
20
-21.9703
10
-106.3018
20
-22.0467
10
-106.3293
20
-22.1407
0
HATCH
5
132
100
AcDbEntity
8
F_Cu_____________
62
256
100
AcDbHatch
10
0.0
20
0.0
210
0.0
220
0.0
230
1.0
2
SOLID
70
1
71
1
91
1
92
1
93
20
72
1
10
-106.4208
20
-23.1867
11
-106.4101
21
-23.284
72
1
10
-106.4101
20
-23.284
11
-106.363
21
-23.3698
72
1
10
-106.363
20
-23.3698
11
-106.2866
21
-23.4311
72
1
10
-106.2866
20
-23.4311
11
-106.1927
21
-23.4586
72
1
10
-106.1927
20
-23.4586
11
-104.6984
21
-23.5893
72
1
10
-104.6984
20
-23.5893
11
-104.6011
21
-23.5786
72
1
10
-104.6011
20
-23.5786
11
-104.5152
21
-23.5315
72
1
10
-104.5152
20
-23.5315
11
-104.454
21
-23.4551
72
1
10
-104.454
20
-23.4551
11
-104.4265
21
-23.3611
72
1
10
-104.4265
20
-23.3611
11
-104.335
21
-22.3151
72
1
10
-104.335
20
-22.3151
11
-104.3457
21
-22.2178
72
1
10
-104.3457
20
-22.2178
11
-104.3928
21
-22.132
72
1
10
-104.3928
20
-22.132
11
-104.4692
21
-22.0707
72
1
10
-104.4692
20
-22.0707
11
-104.5631
21
-22.0432
72
1
10
-104.5631
20
-22.0432
11
-106.0574
21
-21.9125
72
1
10
-106.0574
20
-21.9125
11
-106.1547
21
-21.9232
72
1
10
-106.1547
20
-21.9232
11
-106.2406
21
-21.9703
72
1
10
-106.2406
20
-21.9703
11
-106.3018
21
-22.0467
72
1
10
-106.3018
20
-22.0467
11
-106.3293
21
-22.1407
72
1
10
-106.3293
20
-22.1407
11
-106.4208
21
-23.1867
97
1
330
131
75
0
76
0
98
0
0
LWPOLYLINE
5
133
100
AcDbEntity
8
F_Cu_____________
62
256
100
AcDbPolyline
90
20
70
1
10
-106.6421
20
-25.717
10
-106.6314
20
-25.8143
10
-106.5843
20
-25.9001
10
-106.5079
20
-25.9614
10
-106.414
20
-25.9889
10
-104.9197
20
-26.1196
10
-104.8224
20
-26.1089
10
-104.7365
20
-26.0618
10
-104.6753
20
-25.9854
10
-104.6478
20
-25.8914
10
-104.5563
20
-24.8454
10
-104.567
20
-24.7481
10
-104.6141
20
-24.6623
10
-104.6905
20
-24.601
10
-104.7844
20
-24.5735
10
-106.2787
20
-24.4428
10
-106.376
20
-24.4535
10
-106.4619
20
-24.5006
10
-106.5231
20
-24.577
10
-106.5506
20
-24.671
0
HATCH
5
134
100
AcDbEntity
8
F_Cu_____________
62
256
100
AcDbHatch
10
0.0
20
0.0
210
0.0
220
0.0
230
1.0
2
SOLID
70
1
71
1
91
1
92
1
93
20
72
1
10
-106.6421
20
-25.717
11
-106.6314
21
-25.8143
72
1
10
-106.6314
20
-25.8143
11
-106.5843
21
-25.9001
72
1
10
-106.5843
20
-25.9001
11
-106.5079
21
-25.9614
72
1
10
-106.5079
20
-25.9614
11
-106.414
21
-25.9889
72
1
10
-106.414
20
-25.9889
11
-104.9197
21
-26.1196
72
1
10
-104.9197
20
-26.1196
11
-104.8224
21
-26.1089
72
1
10
-104.8224
20
-26.1089
11
-104.7365
21
-26.0618
72
1
10
-104.7365
20
-26.0618
11
-104.6753
21
-25.9854
72
1
10
-104.6753
20
-25.9854
11
-104.6478
21
-25.8914
72
1
10
-104.6478
20
-25.8914
11
-104.5563
21
-24.8454
72
1
10
-104.5563
20
-24.8454
11
-104.567
21
-24.7481
72
1
10
-104.567
20
-24.7481
11
-104.6141
21
-24.6623
72
1
10
-104.6141
20
-24.6623
11
-104.6905
21
-24.601
72
1
10
-104.6905
20
-24.601
11
-104.7844
21
-24.5735
72
1
10
-104.7844
20
-24.5735
11
-106.2787
21
-24.4428
72
1
10
-106.2787
20
-24.4428
11
-106.376
21
-24.4535
72
1
10
-106.376
20
-24.4535
11
-106.4619
21
-24.5006
72
1
10
-106.4619
20
-24.5006
11
-106.5231
21
-24.577
72
1
10
-106.5231
20
-24.577
11
-106.5506
21
-24.671
72
1
10
-106.5506
20
-24.671
11
-106.6421
21
-25.717
97
1
330
133
75
0
76
0
98
0
0
LWPOLYLINE
5
135
100
AcDbEntity
8
F_Cu_____________
62
256
100
AcDbPolyline
90
20
70
1
10
-106.8635
20
-28.2473
10
-106.8528
20
-28.3446
10
-106.8057
20
-28.4304
10
-106.7293
20
-28.4917
10
-106.6354
20
-28.5192
10
-105.1411
20
-28.6499
10
-105.0438
20
-28.6392
10
-104.9579
20
-28.5921
10
-104.8967
20
-28.5157
10
-104.8692
20
-28.4217
10
-104.7777
20
-27.3757
10
-104.7884
20
-27.2784
10
-104.8355
20
-27.1926
10
-104.9119
20
-27.1313
10
-105.0058
20
-27.1038
10
-106.5001
20
-26.9731
10
-106.5974
20
-26.9838
10
-106.6833
20
-27.0309
10
-106.7445
20
-27.1073
10
-106.772
20
-27.2013
0
HATCH
5
136
100
AcDbEntity
8
F_Cu_____________
62
256
100
AcDbHatch
10
0.0
20
0.0
210
0.0
220
0.0
230
1.0
2
SOLID
70
1
71
1
91
1
92
1
93
20
72
1
10
-106.8635
20
-28.2473
11
-106.8528
21
-28.3446
72
1
10
-106.8528
20
-28.3446
11
-106.8057
21
-28.4304
72
1
10
-106.8057
20
-28.4304
11
-106.7293
21
-28.4917
72
1
10
-106.7293
20
-28.4917
11
-106.6354
21
-28.5192
72
1
10
-106.6354
20
-28.5192
11
-105.1411
21
-28.6499
72
1
10
-105.1411
20
-28.6499
11
-105.0438
21
-28.6392
72
1
10
-105.0438
20
-28.6392
11
-104.9579
21
-28.5921
72
1
10
-104.9579
20
-28.5921
11
-104.8967
21
-28.5157
72
1
10
-104.8967
20
-28.5157
11
-104.8692
21
-28.4217
72
1
10
-104.8692
20
-28.4217
11
-104.7777
21
-27.3757
72
1
10
-104.7777
20
-27.3757
11
-104.7884
21
-27.2784
72
1
10
-104.7884
20
-27.2784
11
-104.8355
21
-27.1926
72
1
10
-104.8355
20
-27.1926
11
-104.9119
21
-27.1313
72
1
10
-104.9119
20
-27.1313
11
-105.0058
21
-27.1038
72
1
10
-105.0058
20
-27.1038
11
-106.5001
21
-26.9731
72
1
10
-106.5001
20
-26.9731
11
-106.5974
21
-26.9838
72
1
10
-106.5974
20
-26.9838
11
-106.6833
21
-27.0309
72
1
10
-106.6833
20
-27.0309
11
-106.7445
21
-27.1073
72
1
10
-106.7445
20
-27.1073
11
-106.772
21
-27.2013
72
1
10
-106.772
20
-27.2013
11
-106.8635
21
-28.2473
97
1
330
135
75
0
76
0
98
0
0
INSERT
5
137
100
AcDbEntity
8
F_Cu_____________
62
256
100
AcDbBlockReference
2
UNIT_DISC
10
32.1637
20
-20.3765
41
2.54
42
2.54
50
0
0
INSERT
5
138
100
AcDbEntity
8
F_Cu_____________
62
256
100
AcDbBlockReference
2
UNIT_DISC
10
-126.2688
20
-18.4794
41
2.54
42
2.54
50
0
0
INSERT
5
139
100
AcDbEntity
8
F_Cu_____________
62
256
100
AcDbBlockReference
2
UNIT_DISC
10
39.449
20
0.7549
41
2.54
42
2.54
50
0
0
INSERT
5
140
100
AcDbEntity
8
F_Cu_____________
62
256
100
AcDbBlockReference
2
UNIT_DISC
10
-103.449
20
0.7549
41
2.54
42
2.54
50
0
0
INSERT
5
141
100
AcDbEntity
8
F_Cu_____________
62
256
100
AcDbBlockReference
2
UNIT_DISC
10
-109.449
20
0.7549
41
2.54
42
2.54
50
0
0
INSERT
5
142
100
AcDbEntity
8
F_Cu_____________
62
256
100
AcDbBlockReference
2
UNIT_DISC
10
33.449
20
0.7549
41
2.54
42
2.54
50
0
0
LWPOLYLINE
5
143
100
AcDbEntity
8
F_Cu_____________
62
256
100
AcDbPolyline
90
20
70
1
10
-174.0098
20
-25.8535
10
-173.9907
20
-25.7575
10
-173.9363
20
-25.6761
10
-173.8548
20
-25.6217
10
-173.7588
20
-25.6025
10
-171.4588
20
-25.6025
10
-171.3628
20
-25.6217
10
-171.2813
20
-25.6761
10
-171.2269
20
-25.7575
10
-171.2078
20
-25.8535
10
-171.2078
20
-26.3535
10
-171.2269
20
-26.4495
10
-171.2813
20
-26.5309
10
-171.3628
20
-26.5853
10
-171.4588
20
-26.6045
10
-173.7588
20
-26.6045
10
-173.8548
20
-26.5853
10
-173.9363
20
-26.5309
10
-173.9907
20
-26.4495
10
-174.0098
20
-26.3535
0
HATCH
5
144
100
AcDbEntity
8
F_Cu_____________
62
256
100
AcDbHatch
10
0.0
20
0.0
210
0.0
220
0.0
230
1.0
2
SOLID
70
1
71
1
91
1
92
1
93
20
72
1
10
-174.0098
20
-25.8535
11
-173.9907
21
-25.7575
72
1
10
-173.9907
20
-25.7575
11
-173.9363
21
-25.6761
72
1
10
-173.9363
20
-25.6761
11
-173.8548
21
-25.6217
72
1
10
-173.8548
20
-25.6217
11
-173.7588
21
-25.6025
72
1
10
-173.7588
20
-25.6025
11
-171.4588
21
-25.6025
72
1
10
-171.4588
20
-25.6025
11
-171.3628
21
-25.6217
72
1
10
-171.3628
20
-25.6217
11
-171.2813
21
-25.6761
72
1
10
-171.2813
20
-25.6761
11
-171.2269
21
-25.7575
72
1
10
-171.2269
20
-25.7575
11
-171.2078
21
-25.8535
72
1
10
-171.2078
20
-25.8535
11
-171.2078
21
-26.3535
72
1
10
-171.2078
20
-26.3535
11
-171.2269
21
-26.4495
72
1
10
-171.2269
20
-26.4495
11
-171.2813
21
-26.5309
72
1
10
-171.2813
20
-26.5309
11
-171.3628
21
-26.5853
72
1
10
-171.3628
20
-26.5853
11
-171.4588
21
-26.6045
72
1
10
-171.4588
20
-26.6045
11
-173.7588
21
-26.6045
72
1
10
-173.7588
20
-26.6045
11
-173.8548
21
-26.5853
72
1
10
-173.8548
20
-26.5853
11
-173.9363
21
-26.5309
72
1
10
-173.9363
20
-26.5309
11
-173.9907
21
-26.4495
72
1
10
-173.9907
20
-26.4495
11
-174.0098
21
-26.3535
72
1
10
-174.0098
20
-26.3535
11
-174.0098
21
-25.8535
97
1
330
143
75
0
76
0
98
0
0
LWPOLYLINE
5
145
100
AcDbEntity
8
F_Cu_____________
62
256
100
AcDbPolyline
90
20
70
1
10
-174.0098
20
-17.9035
10
-173.9907
20
-17.8075
10
-173.9363
20
-17.7261
10
-173.8548
20
-17.6717
10
-173.7588
20
-17.6525
10
-171.4588
20
-17.6525
10
-171.3628
20
-17.6717
10
-171.2813
20
-17.7261
10
-171.2269
20
-17.8075
10
-171.2078
20
-17.9035
10
-171.2078
20
-18.4035
10
-171.2269
20
-18.4995
10
-171.2813
20
-18.5809
10
-171.3628
20
-18.6353
10
-171.4588
20
-18.6545
10
-173.7588
20
-18.6545
10
-173.8548
20
-18.6353
10
-173.9363
20
-18.5809
10
-173.9907
20
-18.4995
10
-174.0098
20
-18.4035
0
HATCH
5
146
100
AcDbEntity
8
F_Cu_____________
62
256
100
AcDbHatch
10
0.0
20
0.0
210
0.0
220
0.0
230
1.0
2
SOLID
70
1
71
1
91
1
92
1
93
20
72
1
10
-174.0098
20
-17.9035
11
-173.9907
21
-17.8075
72
1
10
-173.9907
20
-17.8075
11
-173.9363
21
-17.7261
72
1
10
-173.9363
20
-17.7261
11
-173.8548
21
-17.6717
72
1
10
-173.8548
20
-17.6717
11
-173.7588
21
-17.6525
72
1
10
-173.7588
20
-17.6525
11
-171.4588
21
-17.6525
72
1
10
-171.4588
20
-17.6525
11
-171.3628
21
-17.6717
72
1
10
-171.3628
20
-17.6717
11
-171.2813
21
-17.7261
72
1
10
-171.2813
20
-17.7261
11
-171.2269
21
-17.8075
72
1
10
-171.2269
20
-17.8075
11
-171.2078
21
-17.9035
72
1
10
-171.2078
20
-17.9035
11
-171.2078
21
-18.4035
72
1
10
-171.2078
20
-18.4035
11
-171.2269
21
-18.4995
72
1
10
-171.2269
20
-18.4995
11
-171.2813
21
-18.5809
72
1
10
-171.2813
20
-18.5809
11
-171.3628
21
-18.6353
72
1
10
-171.3628
20
-18.6353
11
-171.4588
21
-18.6545
72
1
10
-171.4588
20
-18.6545
11
-173.7588
21
-18.6545
72
1
10
-173.7588
20
-18.6545
11
-173.8548
21
-18.6353
72
1
10
-173.8548
20
-18.6353
11
-173.9363
21
-18.5809
72
1
10
-173.9363
20
-18.5809
11
-173.9907
21
-18.4995
72
1
10
-173.9907
20
-18.4995
11
-174.0098
21
-18.4035
72
1
10
-174.0098
20
-18.4035
11
-174.0098
21
-17.9035
97
1
330
145
75
0
76
0
98
0
0
LWPOLYLINE
5
147
100
AcDbEntity
8
F_Cu_____________
62
256
100
AcDbPolyline
90
20
70
1
10
-171.0338
20
-24.6042
10
-171.101
20
-24.5908
10
-171.158
20
-24.5527
10
-171.1961
20
-24.4957
10
-171.2095
20
-24.4285
10
-171.2095
20
-24.0785
10
-171.1961
20
-24.0113
10
-171.158
20
-23.9543
10
-171.101
20
-23.9162
10
-171.0338
20
-23.9028
10
-170.3838
20
-23.9028
10
-170.3166
20
-23.9162
10
-170.2596
20
-23.9543
10
-170.2215
20
-24.0113
10
-170.2081
20
-24.0785
10
-170.2081
20
-24.4285
10
-170.2215
20
-24.4957
10
-170.2596
20
-24.5527
10
-170.3166
20
-24.5908
10
-170.3838
20
-24.6042
0
HATCH
5
148
100
AcDbEntity
8
F_Cu_____________
62
256
100
AcDbHatch
10
0.0
20
0.0
210
0.0
220
0.0
230
1.0
2
SOLID
70
1
71
1
91
1
92
1
93
20
72
1
10
-171.0338
20
-24.6042
11
-171.101
21
-24.5908
72
1
10
-171.101
20
-24.5908
11
-171.158
21
-24.5527
72
1
10
-171.158
20
-24.5527
11
-171.1961
21
-24.4957
72
1
10
-171.1961
20
-24.4957
11
-171.2095
21
-24.4285
72
1
10
-171.2095
20
-24.4285
11
-171.2095
21
-24.0785
72
1
10
-171.2095
20
-24.0785
11
-171.1961
21
-24.0113
72
1
10
-171.1961
20
-24.0113
11
-171.158
21
-23.9543
72
1
10
-171.158
20
-23.9543
11
-171.101
21
-23.9162
72
1
10
-171.101
20
-23.9162
11
-171.0338
21
-23.9028
72
1
10
-171.0338
20
-23.9028
11
-170.3838
21
-23.9028
72
1
10
-170.3838
20
-23.9028
11
-170.3166
21
-23.9162
72
1
10
-170.3166
20
-23.9162
11
-170.2596
21
-23.9543
72
1
10
-170.2596
20
-23.9543
11
-170.2215
21
-24.0113
72
1
10
-170.2215
20
-24.0113
11
-170.2081
21
-24.0785
72
1
10
-170.2081
20
-24.0785
11
-170.2081
21
-24.4285
72
1
10
-170.2081
20
-24.4285
11
-170.2215
21
-24.4957
72
1
10
-170.2215
20
-24.4957
11
-170.2596
21
-24.5527
72
1
10
-170.2596
20
-24.5527
11
-170.3166
21
-24.5908
72
1
10
-170.3166
20
-24.5908
11
-170.3838
21
-24.6042
72
1
10
-170.3838
20
-24.6042
11
-171.0338
21
-24.6042
97
1
330
147
75
0
76
0
98
0
0
LWPOLYLINE
5
149
100
AcDbEntity
8
F_Cu_____________
62
256
100
AcDbPolyline
90
20
70
1
10
-171.0338
20
-23.1042
10
-171.101
20
-23.0908
10
-171.158
20
-23.0527
10
-171.1961
20
-22.9957
10
-171.2095
20
-22.9285
10
-171.2095
20
-22.5785
10
-171.1961
20
-22.5113
10
-171.158
20
-22.4543
10
-171.101
20
-22.4162
10
-171.0338
20
-22.4028
10
-170.3838
20
-22.4028
10
-170.3166
20
-22.4162
10
-170.2596
20
-22.4543
10
-170.2215
20
-22.5113
10
-170.2081
20
-22.5785
10
-170.2081
20
-22.9285
10
-170.2215
20
-22.9957
10
-170.2596
20
-23.0527
10
-170.3166
20
-23.0908
10
-170.3838
20
-23.1042
0
HATCH
5
150
100
AcDbEntity
8
F_Cu_____________
62
256
100
AcDbHatch
10
0.0
20
0.0
210
0.0
220
0.0
230
1.0
2
SOLID
70
1
71
1
91
1
92
1
93
20
72
1
10
-171.0338
20
-23.1042
11
-171.101
21
-23.0908
72
1
10
-171.101
20
-23.0908
11
-171.158
21
-23.0527
72
1
10
-171.158
20
-23.0527
11
-171.1961
21
-22.9957
72
1
10
-171.1961
20
-22.9957
11
-171.2095
21
-22.9285
72
1
10
-171.2095
20
-22.9285
11
-171.2095
21
-22.5785
72
1
10
-171.2095
20
-22.5785
11
-171.1961
21
-22.5113
72
1
10
-171.1961
20
-22.5113
11
-171.158
21
-22.4543
72
1
10
-171.158
20
-22.4543
11
-171.101
21
-22.4162
72
1
10
-171.101
20
-22.4162
11
-171.0338
21
-22.4028
72
1
10
-171.0338
20
-22.4028
11
-170.3838
21
-22.4028
72
1
10
-170.3838
20
-22.4028
11
-170.3166
21
-22.4162
72
1
10
-170.3166
20
-22.4162
11
-170.2596
21
-22.4543
72
1
10
-170.2596
20
-22.4543
11
-170.2215
21
-22.5113
72
1
10
-170.2215
20
-22.5113
11
-170.2081
21
-22.5785
72
1
10
-170.2081
20
-22.5785
11
-170.2081
21
-22.9285
72
1
10
-170.2081
20
-22.9285
11
-170.2215
21
-22.9957
72
1
10
-170.2215
20
-22.9957
11
-170.2596
21
-23.0527
72
1
10
-170.2596
20
-23.0527
11
-170.3166
21
-23.0908
72
1
10
-170.3166
20
-23.0908
11
-170.3838
21
-23.1042
72
1
10
-170.3838
20
-23.1042
11
-171.0338
21
-23.1042
97
1
330
149
75
0
76
0
98
0
0
LWPOLYLINE
5
151
100
AcDbEntity
8
F_Cu_____________
62
256
100
AcDbPolyline
90
20
70
1
10
-171.0338
20
-20.1042
10
-171.101
20
-20.0908
10
-171.158
20
-20.0527
10
-171.1961
20
-19.9957
10
-171.2095
20
-19.9285
10
-171.2095
20
-19.5785
10
-171.1961
20
-19.5113
10
-171.158
20
-19.4543
10
-171.101
20
-19.4162
10
-171.0338
20
-19.4028
10
-170.3838
20
-19.4028
10
-170.3166
20
-19.4162
10
-170.2596
20
-19.4543
10
-170.2215
20
-19.5113
10
-170.2081
20
-19.5785
10
-170.2081
20
-19.9285
10
-170.2215
20
-19.9957
10
-170.2596
20
-20.0527
10
-170.3166
20
-20.0908
10
-170.3838
20
-20.1042
0
HATCH
5
152
100
AcDbEntity
8
F_Cu_____________
62
256
100
AcDbHatch
10
0.0
20
0.0
210
0.0
220
0.0
230
1.0
2
SOLID
70
1
71
1
91
1
92
1
93
20
72
1
10
-171.0338
20
-20.1042
11
-171.101
21
-20.0908
72
1
10
-171.101
20
-20.0908
11
-171.158
21
-20.0527
72
1
10
-171.158
20
-20.0527
11
-171.1961
21
-19.9957
72
1
10
-171.1961
20
-19.9957
11
-171.2095
21
-19.9285
72
1
10
-171.2095
20
-19.9285
11
-171.2095
21
-19.5785
72
1
10
-171.2095
20
-19.5785
11
-171.1961
21
-19.5113
72
1
10
-171.1961
20
-19.5113
11
-171.158
21
-19.4543
72
1
10
-171.158
20
-19.4543
11
-171.101
21
-19.4162
72
1
10
-171.101
20
-19.4162
11
-171.0338
21
-19.4028
72
1
10
-171.0338
20
-19.4028
11
-170.3838
21
-19.4028
72
1
10
-170.3838
20
-19.4028
11
-170.3166
21
-19.4162
72
1
10
-170.3166
20
-19.4162
11
-170.2596
21
-19.4543
72
1
10
-170.2596
20
-19.4543
11
-170.2215
21
-19.5113
72
1
10
-170.2215
20
-19.5113
11
-170.2081
21
-19.5785
72
1
10
-170.2081
20
-19.5785
11
-170.2081
21
-19.9285
72
1
10
-170.2081
20
-19.9285
11
-170.2215
21
-19.9957
72
1
10
-170.2215
20
-19.9957
11
-170.2596
21
-20.0527
72
1
10
-170.2596
20
-20.0527
11
-170.3166
21
-20.0908
72
1
10
-170.3166
20
-20.0908
11
-170.3838
21
-20.1042
72
1
10
-170.3838
20
-20.1042
11
-171.0338
21
-20.1042
97
1
330
151
75
0
76
0
98
0
0
INSERT
5
153
100
AcDbEntity
8
F_Cu_____________
62
256
100
AcDbBlockReference
2
UNIT_DISC
10
-172.5088
20
-20.5035
41
0.9
42
0.9
50
0
0
INSERT
5
154
100
AcDbEntity
8
F_Cu_____________
62
256
100
AcDbBlockReference
2
UNIT_DISC
10
-172.5588
20
-23.5035
41
0.9
42
0.9
50
0
0
LWPOLYLINE
5
155
100
AcDbEntity
8
F_Cu_____________
62
256
100
AcDbPolyline
90
20
70
1
10
104.0098
20
-18.401
10
103.9907
20
-18.497
10
103.9363
20
-18.5784
10
103.8548
20
-18.6328
10
103.7588
20
-18.652
10
101.4588
20
-18.652
10
101.3628
20
-18.6328
10
101.2813
20
-18.5784
10
101.2269
20
-18.497
10
101.2078
20
-18.401
10
101.2078
20
-17.901
10
101.2269
20
-17.805
10
101.2813
20
-17.7236
10
101.3628
20
-17.6692
10
101.4588
20
-17.65
10
103.7588
20
-17.65
10
103.8548
20
-17.6692
10
103.9363
20
-17.7236
10
103.9907
20
-17.805
10
104.0098
20
-17.901
0
HATCH
5
156
100
AcDbEntity
8
F_Cu_____________
62
256
100
AcDbHatch
10
0.0
20
0.0
210
0.0
220
0.0
230
1.0
2
SOLID
70
1
71
1
91
1
92
1
93
20
72
1
10
104.0098
20
-18.401
11
103.9907
21
-18.497
72
1
10
103.9907
20
-18.497
11
103.9363
21
-18.5784
72
1
10
103.9363
20
-18.5784
11
103.8548
21
-18.6328
72
1
10
103.8548
20
-18.6328
11
103.7588
21
-18.652
72
1
10
103.7588
20
-18.652
11
101.4588
21
-18.652
72
1
10
101.4588
20
-18.652
11
101.3628
21
-18.6328
72
1
10
101.3628
20
-18.6328
11
101.2813
21
-18.5784
72
1
10
101.2813
20
-18.5784
11
101.2269
21
-18.497
72
1
10
101.2269
20
-18.497
11
101.2078
21
-18.401
72
1
10
101.2078
20
-18.401
11
101.2078
21
-17.901
72
1
10
101.2078
20
-17.901
11
101.2269
21
-17.805
72
1
10
101.2269
20
-17.805
11
101.2813
21
-17.7236
72
1
10
101.2813
20
-17.7236
11
101.3628
21
-17.6692
72
1
10
101.3628
20
-17.6692
11
101.4588
21
-17.65
72
1
10
101.4588
20
-17.65
11
103.7588
21
-17.65
72
1
10
103.7588
20
-17.65
11
103.8548
21
-17.6692
72
1
10
103.8548
20
-17.6692
11
103.9363
21
-17.7236
72
1
10
103.9363
20
-17.7236
11
103.9907
21
-17.805
72
1
10
103.9907
20
-17.805
11
104.0098
21
-17.901
72
1
10
104.0098
20
-17.901
11
104.0098
21
-18.401
97
1
330
155
75
0
76
0
98
0
0
LWPOLYLINE
5
157
100
AcDbEntity
8
F_Cu_____________
62
256
100
AcDbPolyline
90
20
70
1
10
104.0098
20
-26.351
10
103.9907
20
-26.447
10
103.9363
20
-26.5284
10
103.8548
20
-26.5828
10
103.7588
20
-26.602
10
101.4588
20
-26.602
10
101.3628
20
-26.5828
10
101.2813
20
-26.5284
10
101.2269
20
-26.447
10
101.2078
20
-26.351
10
101.2078
20
-25.851
10
101.2269
20
-25.755
10
101.2813
20
-25.6736
10
101.3628
20
-25.6192
10
101.4588
20
-25.6
10
103.7588
20
-25.6
10
103.8548
20
-25.6192
10
103.9363
20
-25.6736
10
103.9907
20
-25.755
10
104.0098
20
-25.851
0
HATCH
5
158
100
AcDbEntity
8
F_Cu_____________
62
256
100
AcDbHatch
10
0.0
20
0.0
210
0.0
220
0.0
230
1.0
2
SOLID
70
1
71
1
91
1
92
1
93
20
72
1
10
104.0098
20
-26.351
11
103.9907
21
-26.447
72
1
10
103.9907
20
-26.447
11
103.9363
21
-26.5284
72
1
10
103.9363
20
-26.5284
11
103.8548
21
-26.5828
72
1
10
103.8548
20
-26.5828
11
103.7588
21
-26.602
72
1
10
103.7588
20
-26.602
11
101.4588
21
-26.602
72
1
10
101.4588
20
-26.602
11
101.3628
21
-26.5828
72
1
10
101.3628
20
-26.5828
11
101.2813
21
-26.5284
72
1
10
101.2813
20
-26.5284
11
101.2269
21
-26.447
72
1
10
101.2269
20
-26.447
11
101.2078
21
-26.351
72
1
10
101.2078
20
-26.351
11
101.2078
21
-25.851
72
1
10
101.2078
20
-25.851
11
101.2269
21
-25.755
72
1
10
101.2269
20
-25.755
11
101.2813
21
-25.6736
72
1
10
101.2813
20
-25.6736
11
101.3628
21
-25.6192
72
1
10
101.3628
20
-25.6192
11
101.4588
21
-25.6
72
1
10
101.4588
20
-25.6
11
103.7588
21
-25.6
72
1
10
103.7588
20
-25.6
11
103.8548
21
-25.6192
72
1
10
103.8548
20
-25.6192
11
103.9363
21
-25.6736
72
1
10
103.9363
20
-25.6736
11
103.9907
21
-25.755
72
1
10
103.9907
20
-25.755
11
104.0098
21
-25.851
72
1
10
104.0098
20
-25.851
11
104.0098
21
-26.351
97
1
330
157
75
0
76
0
98
0
0
LWPOLYLINE
5
159
100
AcDbEntity
8
F_Cu_____________
62
256
100
AcDbPolyline
90
20
70
1
10
101.0338
20
-19.6503
10
101.101
20
-19.6637
10
101.158
20
-19.7018
10
101.1961
20
-19.7588
10
101.2095
20
-19.826
10
101.2095
20
-20.176
10
101.1961
20
-20.2432
10
101.158
20
-20.3002
10
101.101
20
-20.3383
10
101.0338
20
-20.3517
10
100.3838
20
-20.3517
10
100.3166
20
-20.3383
10
100.2596
20
-20.3002
10
100.2215
20
-20.2432
10
100.2081
20
-20.176
10
100.2081
20
-19.826
10
100.2215
20
-19.7588
10
100.2596
20
-19.7018
10
100.3166
20
-19.6637
10
100.3838
20
-19.6503
0
HATCH
5
160
100
AcDbEntity
8
F_Cu_____________
62
256
100
AcDbHatch
10
0.0
20
0.0
210
0.0
220
0.0
230
1.0
2
SOLID
70
1
71
1
91
1
92
1
93
20
72
1
10
101.0338
20
-19.6503
11
101.101
21
-19.6637
72
1
10
101.101
20
-19.6637
11
101.158
21
-19.7018
72
1
10
101.158
20
-19.7018
11
101.1961
21
-19.7588
72
1
10
101.1961
20
-19.7588
11
101.2095
21
-19.826
72
1
10
101.2095
20
-19.826
11
101.2095
21
-20.176
72
1
10
101.2095
20
-20.176
11
101.1961
21
-20.2432
72
1
10
101.1961
20
-20.2432
11
101.158
21
-20.3002
72
1
10
101.158
20
-20.3002
11
101.101
21
-20.3383
72
1
10
101.101
20
-20.3383
11
101.0338
21
-20.3517
72
1
10
101.0338
20
-20.3517
11
100.3838
21
-20.3517
72
1
10
100.3838
20
-20.3517
11
100.3166
21
-20.3383
72
1
10
100.3166
20
-20.3383
11
100.2596
21
-20.3002
72
1
10
100.2596
20
-20.3002
11
100.2215
21
-20.2432
72
1
10
100.2215
20
-20.2432
11
100.2081
21
-20.176
72
1
10
100.2081
20
-20.176
11
100.2081
21
-19.826
72
1
10
100.2081
20
-19.826
11
100.2215
21
-19.7588
72
1
10
100.2215
20
-19.7588
11
100.2596
21
-19.7018
72
1
10
100.2596
20
-19.7018
11
100.3166
21
-19.6637
72
1
10
100.3166
20
-19.6637
11
100.3838
21
-19.6503
72
1
10
100.3838
20
-19.6503
11
101.0338
21
-19.6503
97
1
330
159
75
0
76
0
98
0
0
LWPOLYLINE
5
161
100
AcDbEntity
8
F_Cu_____________
62
256
100
AcDbPolyline
90
20
70
1
10
101.0338
20
-21.1503
10
101.101
20
-21.1637
10
101.158
20
-21.2018
10
101.1961
20
-21.2588
10
101.2095
20
-21.326
10
101.2095
20
-21.676
10
101.1961
20
-21.7432
10
101.158
20
-21.8002
10
101.101
20
-21.8383
10
101.0338
20
-21.8517
10
100.3838
20
-21.8517
10
100.3166
20
-21.8383
10
100.2596
20
-21.8002
10
100.2215
20
-21.7432
10
100.2081
20
-21.676
10
100.2081
20
-21.326
10
100.2215
20
-21.2588
10
100.2596
20
-21.2018
10
100.3166
20
-21.1637
10
100.3838
20
-21.1503
0
HATCH
5
162
100
AcDbEntity
8
F_Cu_____________
62
256
100
AcDbHatch
10
0.0
20
0.0
210
0.0
220
0.0
230
1.0
2
SOLID
70
1
71
1
91
1
92
1
93
20
72
1
10
101.0338
20
-21.1503
11
101.101
21
-21.1637
72
1
10
101.101
20
-21.1637
11
101.158
21
-21.2018
72
1
10
101.158
20
-21.2018
11
101.1961
21
-21.2588
72
1
10
101.1961
20
-21.2588
11
101.2095
21
-21.326
72
1
10
101.2095
20
-21.326
11
101.2095
21
-21.676
72
1
10
101.2095
20
-21.676
11
101.1961
21
-21.7432
72
1
10
101.1961
20
-21.7432
11
101.158
21
-21.8002
72
1
10
101.158
20
-21.8002
11
101.101
21
-21.8383
72
1
10
101.101
20
-21.8383
11
101.0338
21
-21.8517
72
1
10
101.0338
20
-21.8517
11
100.3838
21
-21.8517
72
1
10
100.3838
20
-21.8517
11
100.3166
21
-21.8383
72
1
10
100.3166
20
-21.8383
11
100.2596
21
-21.8002
72
1
10
100.2596
20
-21.8002
11
100.2215
21
-21.7432
72
1
10
100.2215
20
-21.7432
11
100.2081
21
-21.676
72
1
10
100.2081
20
-21.676
11
100.2081
21
-21.326
72
1
10
100.2081
20
-21.326
11
100.2215
21
-21.2588
72
1
10
100.2215
20
-21.2588
11
100.2596
21
-21.2018
72
1
10
100.2596
20
-21.2018
11
100.3166
21
-21.1637
72
1
10
100.3166
20
-21.1637
11
100.3838
21
-21.1503
72
1
10
100.3838
20
-21.1503
11
101.0338
21
-21.1503
97
1
330
161
75
0
76
0
98
0
0
LWPOLYLINE
5
163
100
AcDbEntity
8
F_Cu_____________
62
256
100
AcDbPolyline
90
20
70
1
10
101.0338
20
-24.1503
10
101.101
20
-24.1637
10
101.158
20
-24.2018
10
101.1961
20
-24.2588
10
101.2095
20
-24.326
10
101.2095
20
-24.676
10
101.1961
20
-24.7432
10
101.158
20
-24.8002
10
101.101
20
-24.8383
10
101.0338
20
-24.8517
10
100.3838
20
-24.8517
10
100.3166
20
-24.8383
10
100.2596
20
-24.8002
10
100.2215
20
-24.7432
10
100.2081
20
-24.676
10
100.2081
20
-24.326
10
100.2215
20
-24.2588
10
100.2596
20
-24.2018
10
100.3166
20
-24.1637
10
100.3838
20
-24.1503
0
HATCH
5
164
100
AcDbEntity
8
F_Cu_____________
62
256
100
AcDbHatch
10
0.0
20
0.0
210
0.0
220
0.0
230
1.0
2
SOLID
70
1
71
1
91
1
92
1
93
20
72
1
10
101.0338
20
-24.1503
11
101.101
21
-24.1637
72
1
10
101.101
20
-24.1637
11
101.158
21
-24.2018
72
1
10
101.158
20
-24.2018
11
101.1961
21
-24.2588
72
1
10
101.1961
20
-24.2588
11
101.2095
21
-24.326
72
1
10
101.2095
20
-24.326
11
101.2095
21
-24.676
72
1
10
101.2095
20
-24.676
11
101.1961
21
-24.7432
72
1
10
101.1961
20
-24.7432
11
101.158
21
-24.8002
72
1
10
101.158
20
-24.8002
11
101.101
21
-24.8383
72
1
10
101.101
20
-24.8383
11
101.0338
21
-24.8517
72
1
10
101.0338
20
-24.8517
11
100.3838
21
-24.8517
72
1
10
100.3838
20
-24.8517
11
100.3166
21
-24.8383
72
1
10
100.3166
20
-24.8383
11
100.2596
21
-24.8002
72
1
10
100.2596
20
-24.8002
11
100.2215
21
-24.7432
72
1
10
100.2215
20
-24.7432
11
100.2081
21
-24.676
72
1
10
100.2081
20
-24.676
11
100.2081
21
-24.326
72
1
10
100.2081
20
-24.326
11
100.2215
21
-24.2588
72
1
10
100.2215
20
-24.2588
11
100.2596
21
-24.2018
72
1
10
100.2596
20
-24.2018
11
100.3166
21
-24.1637
72
1
10
100.3166
20
-24.1637
11
100.3838
21
-24.1503
72
1
10
100.3838
20
-24.1503
11
101.0338
21
-24.1503
97
1
330
163
75
0
76
0
98
0
0
INSERT
5
165
100
AcDbEntity
8
F_Cu_____________
62
256
100
AcDbBlockReference
2
UNIT_DISC
10
102.5088
20
-23.751
41
0.9
42
0.9
50
0
0
INSERT
5
166
100
AcDbEntity
8
F_Cu_____________
62
256
100
AcDbBlockReference
2
UNIT_DISC
10
102.5588
20
-20.751
41
0.9
42
0.9
50
0
0
INSERT
5
167
100
AcDbEntity
8
F_Cu_____________
62
256
100
AcDbBlockReference
2
UNIT_DISC
10
-129.9956
20
-8.4113
41
0.4
42
0.4
50
0
0
LWPOLYLINE
5
168
100
AcDbEntity
8
F_Cu_____________
62
256
100
AcDbPolyline
90
2
70
0
43
0.4
10
-129.9956
20
-8.4113
10
-129.6475
20
-8.7078
0
INSERT
5
169
100
AcDbEntity
8
F_Cu_____________
62
256
100
AcDbBlockReference
2
UNIT_DISC
10
-129.6475
20
-8.7078
41
0.4
42
0.4
50
0
0
INSERT
5
170
100
AcDbEntity
8
F_Cu_____________
62
256
100
AcDbBlockReference
2
UNIT_DISC
10
-129.6475
20
-8.7078
41
0.4
42
0.4
50
0
0
LWPOLYLINE
5
171
100
AcDbEntity
8
F_Cu_____________
62
256
100
AcDbPolyline
90
2
70
0
43
0.4
10
-129.6475
20
-8.7078
10
-128.896
20
-9.4593
0
INSERT
5
172
100
AcDbEntity
8
F_Cu_____________
62
256
100
AcDbBlockReference
2
UNIT_DISC
10
-128.896
20
-9.4593
41
0.4
42
0.4
50
0
0
INSERT
5
173
100
AcDbEntity
8
F_Cu_____________
62
256
100
AcDbBlockReference
2
UNIT_DISC
10
-128.896
20
-9.4593
41
0.4
42
0.4
50
0
0
LWPOLYLINE
5
174
100
AcDbEntity
8
F_Cu_____________
62
256
100
AcDbPolyline
90
2
70
0
43
0.4
10
-128.896
20
-9.4593
10
-124.949
20
-16.9995
0
INSERT
5
175
100
AcDbEntity
8
F_Cu_____________
62
256
100
AcDbBlockReference
2
UNIT_DISC
10
-124.949
20
-16.9995
41
0.4
42
0.4
50
0
0
INSERT
5
176
100
AcDbEntity
8
F_Cu_____________
62
256
100
AcDbBlockReference
2
UNIT_DISC
10
-124.949
20
-16.9995
41
0.4
42
0.4
50
0
0
LWPOLYLINE
5
177
100
AcDbEntity
8
F_Cu_____________
62
256
100
AcDbPolyline
90
2
70
0
43
0.4
10
-124.949
20
-16.9995
10
-124.8935
20
-17.0819
0
INSERT
5
178
100
AcDbEntity
8
F_Cu_____________
62
256
100
AcDbBlockReference
2
UNIT_DISC
10
-124.8935
20
-17.0819
41
0.4
42
0.4
50
0
0
INSERT
5
179
100
AcDbEntity
8
F_Cu_____________
62
256
100
AcDbBlockReference
2
UNIT_DISC
10
-124.8935
20
-17.0819
41
0.4
42
0.4
50
0
0
LWPOLYLINE
5
180
100
AcDbEntity
8
F_Cu_____________
62
256
100
AcDbPolyline
90
2
70
0
43
0.4
10
-124.8935
20
-17.0819
10
-124.4152
20
-17.5622
0
INSERT
5
181
100
AcDbEntity
8
F_Cu_____________
62
256
100
AcDbBlockReference
2
UNIT_DISC
10
-124.4152
20
-17.5622
41
0.4
42
0.4
50
0
0
INSERT
5
182
100
AcDbEntity
8
F_Cu_____________
62
256
100
AcDbBlockReference
2
UNIT_DISC
10
-124.4152
20
-17.5622
41
0.4
42
0.4
50
0
0
LWPOLYLINE
5
183
100
AcDbEntity
8
F_Cu_____________
62
256
100
AcDbPolyline
90
2
70
0
43
0.4
10
-124.4152
20
-17.5622
10
-124.1786
20
-17.8755
0
INSERT
5
184
100
AcDbEntity
8
F_Cu_____________
62
256
100
AcDbBlockReference
2
UNIT_DISC
10
-124.1786
20
-17.8755
41
0.4
42
0.4
50
0
0
INSERT
5
185
100
AcDbEntity
8
F_Cu_____________
62
256
100
AcDbBlockReference
2
UNIT_DISC
10
-124.1786
20
-17.8755
41
0.4
42
0.4
50
0
0
LWPOLYLINE
5
186
100
AcDbEntity
8
F_Cu_____________
62
256
100
AcDbPolyline
90
2
70
0
43
0.4
10
-124.1786
20
-17.8755
10
-124.1606
20
-17.8936
0
INSERT
5
187
100
AcDbEntity
8
F_Cu_____________
62
256
100
AcDbBlockReference
2
UNIT_DISC
10
-124.1606
20
-17.8936
41
0.4
42
0.4
50
0
0
INSERT
5
188
100
AcDbEntity
8
F_Cu_____________
62
256
100
AcDbBlockReference
2
UNIT_DISC
10
-124.1606
20
-17.8936
41
0.4
42
0.4
50
0
0
LWPOLYLINE
5
189
100
AcDbEntity
8
F_Cu_____________
62
256
100
AcDbPolyline
90
2
70
0
43
0.4
10
-124.1606
20
-17.8936
10
-123.2673
20
-18.636
0
INSERT
5
190
100
AcDbEntity
8
F_Cu_____________
62
256
100
AcDbBlockReference
2
UNIT_DISC
10
-123.2673
20
-18.636
41
0.4
42
0.4
50
0
0
INSERT
5
191
100
AcDbEntity
8
F_Cu_____________
62
256
100
AcDbBlockReference
2
UNIT_DISC
10
-123.4887
20
-21.1664
41
0.4
42
0.4
50
0
0
LWPOLYLINE
5
192
100
AcDbEntity
8
F_Cu_____________
62
256
100
AcDbPolyline
90
2
70
0
43
0.4
10
-123.4887
20
-21.1664
10
-124.2771
20
-20.9876
0
INSERT
5
193
100
AcDbEntity
8
F_Cu_____________
62
256
100
AcDbBlockReference
2
UNIT_DISC
10
-124.2771
20
-20.9876
41
0.4
42
0.4
50
0
0
INSERT
5
194
100
AcDbEntity
8
F_Cu_____________
62
256
100
AcDbBlockReference
2
UNIT_DISC
10
-124.2771
20
-20.9876
41
0.4
42
0.4
50
0
0
LWPOLYLINE
5
195
100
AcDbEntity
8
F_Cu_____________
62
256
100
AcDbPolyline
90
2
70
0
43
0.4
10
-124.2771
20
-20.9876
10
-124.4763
20
-20.9702
0
INSERT
5
196
100
AcDbEntity
8
F_Cu_____________
62
256
100
AcDbBlockReference
2
UNIT_DISC
10
-124.4763
20
-20.9702
41
0.4
42
0.4
50
0
0
INSERT
5
197
100
AcDbEntity
8
F_Cu_____________
62
256
100
AcDbBlockReference
2
UNIT_DISC
10
-124.4763
20
-20.9702
41
0.4
42
0.4
50
0
0
LWPOLYLINE
5
198
100
AcDbEntity
8
F_Cu_____________
62
256
100
AcDbPolyline
90
2
70
0
43
0.4
10
-124.4763
20
-20.9702
10
-126.996
20
-20.7499
0
INSERT
5
199
100
AcDbEntity
8
F_Cu_____________
62
256
100
AcDbBlockReference
2
UNIT_DISC
10
-126.996
20
-20.7499
41
0.4
42
0.4
50
0
0
INSERT
5
200
100
AcDbEntity
8
F_Cu_____________
62
256
100
AcDbBlockReference
2
UNIT_DISC
10
-126.996
20
-20.7499
41
0.4
42
0.4
50
0
0
LWPOLYLINE
5
201
100
AcDbEntity
8
F_Cu_____________
62
256
100
AcDbPolyline
90
2
70
0
43
0.4
10
-126.996
20
-20.7499
10
-127.363
20
-20.5979
0
INSERT
5
202
100
AcDbEntity
8
F_Cu_____________
62
256
100
AcDbBlockReference
2
UNIT_DISC
10
-127.363
20
-20.5979
41
0.4
42
0.4
50
0
0
INSERT
5
203
100
AcDbEntity
8
F_Cu_____________
62
256
100
AcDbBlockReference
2
UNIT_DISC
10
-127.363
20
-20.5979
41
0.4
42
0.4
50
0
0
LWPOLYLINE
5
204
100
AcDbEntity
8
F_Cu_____________
62
256
100
AcDbPolyline
90
2
70
0
43
0.4
10
-127.363
20
-20.5979
10
-128.3873
20
-19.5736
0
INSERT
5
205
100
AcDbEntity
8
F_Cu_____________
62
256
100
AcDbBlockReference
2
UNIT_DISC
10
-128.3873
20
-19.5736
41
0.4
42
0.4
50
0
0
INSERT
5
206
100
AcDbEntity
8
F_Cu_____________
62
256
100
AcDbBlockReference
2
UNIT_DISC
10
-128.3873
20
-19.5736
41
0.4
42
0.4
50
0
0
LWPOLYLINE
5
207
100
AcDbEntity
8
F_Cu_____________
62
256
100
AcDbPolyline
90
2
70
0
43
0.4
10
-128.3873
20
-19.5736
10
-128.5393
20
-19.2066
0
INSERT
5
208
100
AcDbEntity
8
F_Cu_____________
62
256
100
AcDbBlockReference
2
UNIT_DISC
10
-128.5393
20
-19.2066
41
0.4
42
0.4
50
0
0
INSERT
5
209
100
AcDbEntity
8
F_Cu_____________
62
256
100
AcDbBlockReference
2
UNIT_DISC
10
-128.5393
20
-19.2066
41
0.4
42
0.4
50
0
0
LWPOLYLINE
5
210
100
AcDbEntity
8
F_Cu_____________
62
256
100
AcDbPolyline
90
2
70
0
43
0.4
10
-128.5393
20
-19.2066
10
-130.1922
20
-10.004
0
INSERT
5
211
100
AcDbEntity
8
F_Cu_____________
62
256
100
AcDbBlockReference
2
UNIT_DISC
10
-130.1922
20
-10.004
41
0.4
42
0.4
50
0
0
INSERT
5
212
100
AcDbEntity
8
F_Cu_____________
62
256
100
AcDbBlockReference
2
UNIT_DISC
10
-125.9501
20
-11.4498
41
0.4
42
0.4
50
0
0
LWPOLYLINE
5
213
100
AcDbEntity
8
F_Cu_____________
62
256
100
AcDbPolyline
90
2
70
0
43
0.4
10
-125.9501
20
-11.4498
10
-127.8783
20
-8.7792
0
INSERT
5
214
100
AcDbEntity
8
F_Cu_____________
62
256
100
AcDbBlockReference
2
UNIT_DISC
10
-127.8783
20
-8.7792
41
0.4
42
0.4
50
0
0
INSERT
5
215
100
AcDbEntity
8
F_Cu_____________
62
256
100
AcDbBlockReference
2
UNIT_DISC
10
-127.8783
20
-8.7792
41
0.4
42
0.4
50
0
0
LWPOLYLINE
5
216
100
AcDbEntity
8
F_Cu_____________
62
256
100
AcDbPolyline
90
2
70
0
43
0.4
10
-127.8783
20
-8.7792
10
-128.6994
20
-7.8666
0
INSERT
5
217
100
AcDbEntity
8
F_Cu_____________
62
256
100
AcDbBlockReference
2
UNIT_DISC
10
-128.6994
20
-7.8666
41
0.4
42
0.4
50
0
0
INSERT
5
218
100
AcDbEntity
8
F_Cu_____________
62
256
100
AcDbBlockReference
2
UNIT_DISC
10
-128.6994
20
-7.8666
41
0.4
42
0.4
50
0
0
LWPOLYLINE
5
219
100
AcDbEntity
8
F_Cu_____________
62
256
100
AcDbPolyline
90
2
70
0
43
0.4
10
-128.6994
20
-7.8666
10
-129.4509
20
-7.1151
0
INSERT
5
220
100
AcDbEntity
8
F_Cu_____________
62
256
100
AcDbBlockReference
2
UNIT_DISC
10
-129.4509
20
-7.1151
41
0.4
42
0.4
50
0
0
INSERT
5
221
100
AcDbEntity
8
F_Cu_____________
62
256
100
AcDbBlockReference
2
UNIT_DISC
10
-129.4509
20
-7.1151
41
0.4
42
0.4
50
0
0
LWPOLYLINE
5
222
100
AcDbEntity
8
F_Cu_____________
62
256
100
AcDbPolyline
90
2
70
0
43
0.4
10
-129.4509
20
-7.1151
10
-129.4613
20
-7.1108
0
INSERT
5
223
100
AcDbEntity
8
F_Cu_____________
62
256
100
AcDbBlockReference
2
UNIT_DISC
10
-129.4613
20
-7.1108
41
0.4
42
0.4
50
0
0
INSERT
5
224
100
AcDbEntity
8
F_Cu_____________
62
256
100
AcDbBlockReference
2
UNIT_DISC
10
-129.4613
20
-7.1108
41
0.4
42
0.4
50
0
0
LWPOLYLINE
5
225
100
AcDbEntity
8
F_Cu_____________
62
256
100
AcDbPolyline
90
2
70
0
43
0.4
10
-129.4613
20
-7.1108
10
-130.5299
20
-7.1108
0
INSERT
5
226
100
AcDbEntity
8
F_Cu_____________
62
256
100
AcDbBlockReference
2
UNIT_DISC
10
-130.5299
20
-7.1108
41
0.4
42
0.4
50
0
0
INSERT
5
227
100
AcDbEntity
8
F_Cu_____________
62
256
100
AcDbBlockReference
2
UNIT_DISC
10
-130.5299
20
-7.1108
41
0.4
42
0.4
50
0
0
LWPOLYLINE
5
228
100
AcDbEntity
8
F_Cu_____________
62
256
100
AcDbPolyline
90
2
70
0
43
0.4
10
-130.5299
20
-7.1108
10
-130.5403
20
-7.1151
0
INSERT
5
229
100
AcDbEntity
8
F_Cu_____________
62
256
100
AcDbBlockReference
2
UNIT_DISC
10
-130.5403
20
-7.1151
41
0.4
42
0.4
50
0
0
INSERT
5
230
100
AcDbEntity
8
F_Cu_____________
62
256
100
AcDbBlockReference
2
UNIT_DISC
10
-130.5403
20
-7.1151
41
0.4
42
0.4
50
0
0
LWPOLYLINE
5
231
100
AcDbEntity
8
F_Cu_____________
62
256
100
AcDbPolyline
90
2
70
0
43
0.4
10
-130.5403
20
-7.1151
10
-131.2918
20
-7.8666
0
INSERT
5
232
100
AcDbEntity
8
F_Cu_____________
62
256
100
AcDbBlockReference
2
UNIT_DISC
10
-131.2918
20
-7.8666
41
0.4
42
0.4
50
0
0
INSERT
5
233
100
AcDbEntity
8
F_Cu_____________
62
256
100
AcDbBlockReference
2
UNIT_DISC
10
-131.2918
20
-7.8666
41
0.4
42
0.4
50
0
0
LWPOLYLINE
5
234
100
AcDbEntity
8
F_Cu_____________
62
256
100
AcDbPolyline
90
2
70
0
43
0.4
10
-131.2918
20
-7.8666
10
-131.2961
20
-7.877
0
INSERT
5
235
100
AcDbEntity
8
F_Cu_____________
62
256
100
AcDbBlockReference
2
UNIT_DISC
10
-131.2961
20
-7.877
41
0.4
42
0.4
50
0
0
INSERT
5
236
100
AcDbEntity
8
F_Cu_____________
62
256
100
AcDbBlockReference
2
UNIT_DISC
10
-131.2961
20
-7.877
41
0.4
42
0.4
50
0
0
LWPOLYLINE
5
237
100
AcDbEntity
8
F_Cu_____________
62
256
100
AcDbPolyline
90
2
70
0
43
0.4
10
-131.2961
20
-7.877
10
-131.4927
20
-9.4697
0
INSERT
5
238
100
AcDbEntity
8
F_Cu_____________
62
256
100
AcDbBlockReference
2
UNIT_DISC
10
-131.4927
20
-9.4697
41
0.4
42
0.4
50
0
0
INSERT
5
239
100
AcDbEntity
8
F_Cu_____________
62
256
100
AcDbBlockReference
2
UNIT_DISC
10
-131.4927
20
-9.4697
41
0.4
42
0.4
50
0
0
LWPOLYLINE
5
240
100
AcDbEntity
8
F_Cu_____________
62
256
100
AcDbPolyline
90
2
70
0
43
0.4
10
-131.4927
20
-9.4697
10
-131.4927
20
-10.5383
0
INSERT
5
241
100
AcDbEntity
8
F_Cu_____________
62
256
100
AcDbBlockReference
2
UNIT_DISC
10
-131.4927
20
-10.5383
41
0.4
42
0.4
50
0
0
INSERT
5
242
100
AcDbEntity
8
F_Cu_____________
62
256
100
AcDbBlockReference
2
UNIT_DISC
10
-131.4927
20
-10.5383
41
0.4
42
0.4
50
0
0
LWPOLYLINE
5
243
100
AcDbEntity
8
F_Cu_____________
62
256
100
AcDbPolyline
90
2
70
0
43
0.4
10
-131.4927
20
-10.5383
10
-129.7398
20
-19.3768
0
INSERT
5
244
100
AcDbEntity
8
F_Cu_____________
62
256
100
AcDbBlockReference
2
UNIT_DISC
10
-129.7398
20
-19.3768
41
0.4
42
0.4
50
0
0
INSERT
5
245
100
AcDbEntity
8
F_Cu_____________
62
256
100
AcDbBlockReference
2
UNIT_DISC
10
-129.7398
20
-19.3768
41
0.4
42
0.4
50
0
0
LWPOLYLINE
5
246
100
AcDbEntity
8
F_Cu_____________
62
256
100
AcDbPolyline
90
2
70
0
43
0.4
10
-129.7398
20
-19.3768
10
-129.6951
20
-19.5548
0
INSERT
5
247
100
AcDbEntity
8
F_Cu_____________
62
256
100
AcDbBlockReference
2
UNIT_DISC
10
-129.6951
20
-19.5548
41
0.4
42
0.4
50
0
0
INSERT
5
248
100
AcDbEntity
8
F_Cu_____________
62
256
100
AcDbBlockReference
2
UNIT_DISC
10
-129.6951
20
-19.5548
41
0.4
42
0.4
50
0
0
LWPOLYLINE
5
249
100
AcDbEntity
8
F_Cu_____________
62
256
100
AcDbPolyline
90
2
70
0
43
0.4
10
-129.6951
20
-19.5548
10
-129.4499
20
-20.1462
0
INSERT
5
250
100
AcDbEntity
8
F_Cu_____________
62
256
100
AcDbBlockReference
2
UNIT_DISC
10
-129.4499
20
-20.1462
41
0.4
42
0.4
50
0
0
INSERT
5
251
100
AcDbEntity
8
F_Cu_____________
62
256
100
AcDbBlockReference
2
UNIT_DISC
10
-129.4499
20
-20.1462
41
0.4
42
0.4
50
0
0
LWPOLYLINE
5
252
100
AcDbEntity
8
F_Cu_____________
62
256
100
AcDbPolyline
90
2
70
0
43
0.4
10
-129.4499
20
-20.1462
10
-129.3556
20
-20.3036
0
INSERT
5
253
100
AcDbEntity
8
F_Cu_____________
62
256
100
AcDbBlockReference
2
UNIT_DISC
10
-129.3556
20
-20.3036
41
0.4
42
0.4
50
0
0
INSERT
5
254
100
AcDbEntity
8
F_Cu_____________
62
256
100
AcDbBlockReference
2
UNIT_DISC
10
-129.3556
20
-20.3036
41
0.4
42
0.4
50
0
0
LWPOLYLINE
5
255
100
AcDbEntity
8
F_Cu_____________
62
256
100
AcDbPolyline
90
2
70
0
43
0.4
10
-129.3556
20
-20.3036
10
-125.6957
20
-24.73
0
INSERT
5
256
100
AcDbEntity
8
F_Cu_____________
62
256
100
AcDbBlockReference
2
UNIT_DISC
10
-125.6957
20
-24.73
41
0.4
42
0.4
50
0
0
INSERT
5
257
100
AcDbEntity
8
F_Cu_____________
62
256
100
AcDbBlockReference
2
UNIT_DISC
10
-125.6957
20
-24.73
41
0.4
42
0.4
50
0
0
LWPOLYLINE
5
258
100
AcDbEntity
8
F_Cu_____________
62
256
100
AcDbPolyline
90
2
70
0
43
0.4
10
-125.6957
20
-24.73
10
-125.1096
20
-25.3161
0
INSERT
5
259
100
AcDbEntity
8
F_Cu_____________
62
256
100
AcDbBlockReference
2
UNIT_DISC
10
-125.1096
20
-25.3161
41
0.4
42
0.4
50
0
0
INSERT
5
260
100
AcDbEntity
8
F_Cu_____________
62
256
100
AcDbBlockReference
2
UNIT_DISC
10
-125.1096
20
-25.3161
41
0.4
42
0.4
50
0
0
LWPOLYLINE
5
261
100
AcDbEntity
8
F_Cu_____________
62
256
100
AcDbPolyline
90
2
70
0
43
0.4
10
-125.1096
20
-25.3161
10
-124.8352
20
-25.4742
0
INSERT
5
262
100
AcDbEntity
8
F_Cu_____________
62
256
100
AcDbBlockReference
2
UNIT_DISC
10
-124.8352
20
-25.4742
41
0.4
42
0.4
50
0
0
INSERT
5
263
100
AcDbEntity
8
F_Cu_____________
62
256
100
AcDbBlockReference
2
UNIT_DISC
10
-124.8352
20
-25.4742
41
0.4
42
0.4
50
0
0
LWPOLYLINE
5
264
100
AcDbEntity
8
F_Cu_____________
62
256
100
AcDbPolyline
90
2
70
0
43
0.4
10
-124.8352
20
-25.4742
10
-124.8247
20
-25.4846
0
INSERT
5
265
100
AcDbEntity
8
F_Cu_____________
62
256
100
AcDbBlockReference
2
UNIT_DISC
10
-124.8247
20
-25.4846
41
0.4
42
0.4
50
0
0
INSERT
5
266
100
AcDbEntity
8
F_Cu_____________
62
256
100
AcDbBlockReference
2
UNIT_DISC
10
-124.8247
20
-25.4846
41
0.4
42
0.4
50
0
0
LWPOLYLINE
5
267
100
AcDbEntity
8
F_Cu_____________
62
256
100
AcDbPolyline
90
2
70
0
43
0.4
10
-124.8247
20
-25.4846
10
-123.9314
20
-26.227
0
INSERT
5
268
100
AcDbEntity
8
F_Cu_____________
62
256
100
AcDbBlockReference
2
UNIT_DISC
10
-123.9314
20
-26.227
41
0.4
42
0.4
50
0
0
INSERT
5
269
100
AcDbEntity
8
F_Cu_____________
62
256
100
AcDbBlockReference
2
UNIT_DISC
10
-138.7057
20
-18.8351
41
0.4
42
0.4
50
0
0
LWPOLYLINE
5
270
100
AcDbEntity
8
F_Cu_____________
62
256
100
AcDbPolyline
90
2
70
0
43
0.4
10
-138.7057
20
-18.8351
10
-132.3095
20
-7.1865
0
INSERT
5
271
100
AcDbEntity
8
F_Cu_____________
62
256
100
AcDbBlockReference
2
UNIT_DISC
10
-132.3095
20
-7.1865
41
0.4
42
0.4
50
0
0
INSERT
5
272
100
AcDbEntity
8
F_Cu_____________
62
256
100
AcDbBlockReference
2
UNIT_DISC
10
-132.3095
20
-7.1865
41
0.4
42
0.4
50
0
0
LWPOLYLINE
5
273
100
AcDbEntity
8
F_Cu_____________
62
256
100
AcDbPolyline
90
2
70
0
43
0.4
10
-132.3095
20
-7.1865
10
-131.2204
20
-6.0974
0
INSERT
5
274
100
AcDbEntity
8
F_Cu_____________
62
256
100
AcDbBlockReference
2
UNIT_DISC
10
-131.2204
20
-6.0974
41
0.4
42
0.4
50
0
0
INSERT
5
275
100
AcDbEntity
8
F_Cu_____________
62
256
100
AcDbBlockReference
2
UNIT_DISC
10
-131.2204
20
-6.0974
41
0.4
42
0.4
50
0
0
LWPOLYLINE
5
276
100
AcDbEntity
8
F_Cu_____________
62
256
100
AcDbPolyline
90
2
70
0
43
0.4
10
-131.2204
20
-6.0974
10
-130.7687
20
-5.9103
0
INSERT
5
277
100
AcDbEntity
8
F_Cu_____________
62
256
100
AcDbBlockReference
2
UNIT_DISC
10
-130.7687
20
-5.9103
41
0.4
42
0.4
50
0
0
INSERT
5
278
100
AcDbEntity
8
F_Cu_____________
62
256
100
AcDbBlockReference
2
UNIT_DISC
10
-130.7687
20
-5.9103
41
0.4
42
0.4
50
0
0
LWPOLYLINE
5
279
100
AcDbEntity
8
F_Cu_____________
62
256
100
AcDbPolyline
90
2
70
0
43
0.4
10
-130.7687
20
-5.9103
10
-130.313
20
-5.8996
0
INSERT
5
280
100
AcDbEntity
8
F_Cu_____________
62
256
100
AcDbBlockReference
2
UNIT_DISC
10
-130.313
20
-5.8996
41
0.4
42
0.4
50
0
0
INSERT
5
281
100
AcDbEntity
8
F_Cu_____________
62
256
100
AcDbBlockReference
2
UNIT_DISC
10
-130.313
20
-5.8996
41
0.4
42
0.4
50
0
0
LWPOLYLINE
5
282
100
AcDbEntity
8
F_Cu_____________
62
256
100
AcDbPolyline
90
2
70
0
43
0.4
10
-130.313
20
-5.8996
10
-124.6468
20
-5.4123
0
INSERT
5
283
100
AcDbEntity
8
F_Cu_____________
62
256
100
AcDbBlockReference
2
UNIT_DISC
10
-124.6468
20
-5.4123
41
0.4
42
0.4
50
0
0
INSERT
5
284
100
AcDbEntity
8
F_Cu_____________
62
256
100
AcDbBlockReference
2
UNIT_DISC
10
-124.6468
20
-5.4123
41
0.4
42
0.4
50
0
0
LWPOLYLINE
5
285
100
AcDbEntity
8
F_Cu_____________
62
256
100
AcDbPolyline
90
2
70
0
43
0.4
10
-124.6468
20
-5.4123
10
-123.5782
20
-5.4123
0
INSERT
5
286
100
AcDbEntity
8
F_Cu_____________
62
256
100
AcDbBlockReference
2
UNIT_DISC
10
-123.5782
20
-5.4123
41
0.4
42
0.4
50
0
0
INSERT
5
287
100
AcDbEntity
8
F_Cu_____________
62
256
100
AcDbBlockReference
2
UNIT_DISC
10
-123.5782
20
-5.4123
41
0.4
42
0.4
50
0
0
LWPOLYLINE
5
288
100
AcDbEntity
8
F_Cu_____________
62
256
100
AcDbPolyline
90
2
70
0
43
0.4
10
-123.5782
20
-5.4123
10
-105.9107
20
-8.8766
0
INSERT
5
289
100
AcDbEntity
8
F_Cu_____________
62
256
100
AcDbBlockReference
2
UNIT_DISC
10
-105.9107
20
-8.8766
41
0.4
42
0.4
50
0
0
INSERT
5
290
100
AcDbEntity
8
F_Cu_____________
62
256
100
AcDbBlockReference
2
UNIT_DISC
10
-105.9107
20
-8.8766
41
0.4
42
0.4
50
0
0
LWPOLYLINE
5
291
100
AcDbEntity
8
F_Cu_____________
62
256
100
AcDbPolyline
90
2
70
0
43
0.4
10
-105.9107
20
-8.8766
10
-105.7677
20
-8.9129
0
INSERT
5
292
100
AcDbEntity
8
F_Cu_____________
62
256
100
AcDbBlockReference
2
UNIT_DISC
10
-105.7677
20
-8.9129
41
0.4
42
0.4
50
0
0
INSERT
5
293
100
AcDbEntity
8
F_Cu_____________
62
256
100
AcDbBlockReference
2
UNIT_DISC
10
-105.7677
20
-8.9129
41
0.4
42
0.4
50
0
0
LWPOLYLINE
5
294
100
AcDbEntity
8
F_Cu_____________
62
256
100
AcDbPolyline
90
2
70
0
43
0.4
10
-105.7677
20
-8.9129
10
-105.6247
20
-8.961
0
INSERT
5
295
100
AcDbEntity
8
F_Cu_____________
62
256
100
AcDbBlockReference
2
UNIT_DISC
10
-105.6247
20
-8.961
41
0.4
42
0.4
50
0
0
INSERT
5
296
100
AcDbEntity
8
F_Cu_____________
62
256
100
AcDbBlockReference
2
UNIT_DISC
10
-105.6247
20
-8.961
41
0.4
42
0.4
50
0
0
LWPOLYLINE
5
297
100
AcDbEntity
8
F_Cu_____________
62
256
100
AcDbPolyline
90
2
70
0
43
0.4
10
-105.6247
20
-8.961
10
-105.4847
20
-9.0203
0
INSERT
5
298
100
AcDbEntity
8
F_Cu_____________
62
256
100
AcDbBlockReference
2
UNIT_DISC
10
-105.4847
20
-9.0203
41
0.4
42
0.4
50
0
0
INSERT
5
299
100
AcDbEntity
8
F_Cu_____________
62
256
100
AcDbBlockReference
2
UNIT_DISC
10
-105.4847
20
-9.0203
41
0.4
42
0.4
50
0
0
LWPOLYLINE
5
300
100
AcDbEntity
8
F_Cu_____________
62
256
100
AcDbPolyline
90
2
70
0
43
0.4
10
-105.4847
20
-9.0203
10
-105.4619
20
-9.032
0
INSERT
5
301
100
AcDbEntity
8
F_Cu_____________
62
256
100
AcDbBlockReference
2
UNIT_DISC
10
-105.4619
20
-9.032
41
0.4
42
0.4
50
0
0
INSERT
5
302
100
AcDbEntity
8
F_Cu_____________
62
256
100
AcDbBlockReference
2
UNIT_DISC
10
-105.4619
20
-9.032
41
0.4
42
0.4
50
0
0
LWPOLYLINE
5
303
100
AcDbEntity
8
F_Cu_____________
62
256
100
AcDbPolyline
90
2
70
0
43
0.4
10
-105.4619
20
-9.032
10
-105.3487
20
-9.0902
0
INSERT
5
304
100
AcDbEntity
8
F_Cu_____________
62
256
100
AcDbBlockReference
2
UNIT_DISC
10
-105.3487
20
-9.0902
41
0.4
42
0.4
50
0
0
INSERT
5
305
100
AcDbEntity
8
F_Cu_____________
62
256
100
AcDbBlockReference
2
UNIT_DISC
10
-105.3487
20
-9.0902
41
0.4
42
0.4
50
0
0
LWPOLYLINE
5
306
100
AcDbEntity
8
F_Cu_____________
62
256
100
AcDbPolyline
90
2
70
0
43
0.4
10
-105.3487
20
-9.0902
10
-105.2237
20
-9.1673
0
INSERT
5
307
100
AcDbEntity
8
F_Cu_____________
62
256
100
AcDbBlockReference
2
UNIT_DISC
10
-105.2237
20
-9.1673
41
0.4
42
0.4
50
0
0
INSERT
5
308
100
AcDbEntity
8
F_Cu_____________
62
256
100
AcDbBlockReference
2
UNIT_DISC
10
-105.2237
20
-9.1673
41
0.4
42
0.4
50
0
0
LWPOLYLINE
5
309
100
AcDbEntity
8
F_Cu_____________
62
256
100
AcDbPolyline
90
2
70
0
43
0.4
10
-105.2237
20
-9.1673
10
-105.1007
20
-9.253
0
INSERT
5
310
100
AcDbEntity
8
F_Cu_____________
62
256
100
AcDbBlockReference
2
UNIT_DISC
10
-105.1007
20
-9.253
41
0.4
42
0.4
50
0
0
INSERT
5
311
100
AcDbEntity
8
F_Cu_____________
62
256
100
AcDbBlockReference
2
UNIT_DISC
10
-105.1007
20
-9.253
41
0.4
42
0.4
50
0
0
LWPOLYLINE
5
312
100
AcDbEntity
8
F_Cu_____________
62
256
100
AcDbPolyline
90
2
70
0
43
0.4
10
-105.1007
20
-9.253
10
-105.0809
20
-9.2693
0
INSERT
5
313
100
AcDbEntity
8
F_Cu_____________
62
256
100
AcDbBlockReference
2
UNIT_DISC
10
-105.0809
20
-9.2693
41
0.4
42
0.4
50
0
0
INSERT
5
314
100
AcDbEntity
8
F_Cu_____________
62
256
100
AcDbBlockReference
2
UNIT_DISC
10
-105.0809
20
-9.2693
41
0.4
42
0.4
50
0
0
LWPOLYLINE
5
315
100
AcDbEntity
8
F_Cu_____________
62
256
100
AcDbPolyline
90
2
70
0
43
0.4
10
-105.0809
20
-9.2693
10
-104.9847
20
-9.3489
0
INSERT
5
316
100
AcDbEntity
8
F_Cu_____________
62
256
100
AcDbBlockReference
2
UNIT_DISC
10
-104.9847
20
-9.3489
41
0.4
42
0.4
50
0
0
INSERT
5
317
100
AcDbEntity
8
F_Cu_____________
62
256
100
AcDbBlockReference
2
UNIT_DISC
10
-104.9847
20
-9.3489
41
0.4
42
0.4
50
0
0
LWPOLYLINE
5
318
100
AcDbEntity
8
F_Cu_____________
62
256
100
AcDbPolyline
90
2
70
0
43
0.4
10
-104.9847
20
-9.3489
10
-104.8747
20
-9.4507
0
INSERT
5
319
100
AcDbEntity
8
F_Cu_____________
62
256
100
AcDbBlockReference
2
UNIT_DISC
10
-104.8747
20
-9.4507
41
0.4
42
0.4
50
0
0
INSERT
5
320
100
AcDbEntity
8
F_Cu_____________
62
256
100
AcDbBlockReference
2
UNIT_DISC
10
-104.8747
20
-9.4507
41
0.4
42
0.4
50
0
0
LWPOLYLINE
5
321
100
AcDbEntity
8
F_Cu_____________
62
256
100
AcDbPolyline
90
2
70
0
43
0.4
10
-104.8747
20
-9.4507
10
-104.5815
20
-9.7439
0
INSERT
5
322
100
AcDbEntity
8
F_Cu_____________
62
256
100
AcDbBlockReference
2
UNIT_DISC
10
-104.5815
20
-9.7439
41
0.4
42
0.4
50
0
0
INSERT
5
323
100
AcDbEntity
8
F_Cu_____________
62
256
100
AcDbBlockReference
2
UNIT_DISC
10
-104.5815
20
-9.7439
41
0.4
42
0.4
50
0
0
LWPOLYLINE
5
324
100
AcDbEntity
8
F_Cu_____________
62
256
100
AcDbPolyline
90
2
70
0
43
0.4
10
-104.5815
20
-9.7439
10
-104.5643
20
-9.7629
0
INSERT
5
325
100
AcDbEntity
8
F_Cu_____________
62
256
100
AcDbBlockReference
2
UNIT_DISC
10
-104.5643
20
-9.7629
41
0.4
42
0.4
50
0
0
INSERT
5
326
100
AcDbEntity
8
F_Cu_____________
62
256
100
AcDbBlockReference
2
UNIT_DISC
10
-104.5643
20
-9.7629
41
0.4
42
0.4
50
0
0
LWPOLYLINE
5
327
100
AcDbEntity
8
F_Cu_____________
62
256
100
AcDbPolyline
90
2
70
0
43
0.4
10
-104.5643
20
-9.7629
10
-104.4805
20
-9.8561
0
INSERT
5
328
100
AcDbEntity
8
F_Cu_____________
62
256
100
AcDbBlockReference
2
UNIT_DISC
10
-104.4805
20
-9.8561
41
0.4
42
0.4
50
0
0
INSERT
5
329
100
AcDbEntity
8
F_Cu_____________
62
256
100
AcDbBlockReference
2
UNIT_DISC
10
-104.4805
20
-9.8561
41
0.4
42
0.4
50
0
0
LWPOLYLINE
5
330
100
AcDbEntity
8
F_Cu_____________
62
256
100
AcDbPolyline
90
2
70
0
43
0.4
10
-104.4805
20
-9.8561
10
-104.3845
20
-9.9736
0
INSERT
5
331
100
AcDbEntity
8
F_Cu_____________
62
256
100
AcDbBlockReference
2
UNIT_DISC
10
-104.3845
20
-9.9736
41
0.4
42
0.4
50
0
0
INSERT
5
332
100
AcDbEntity
8
F_Cu_____________
62
256
100
AcDbBlockReference
2
UNIT_DISC
10
-104.3845
20
-9.9736
41
0.4
42
0.4
50
0
0
LWPOLYLINE
5
333
100
AcDbEntity
8
F_Cu_____________
62
256
100
AcDbPolyline
90
2
70
0
43
0.4
10
-104.3845
20
-9.9736
10
-104.3015
20
-10.0986
0
INSERT
5
334
100
AcDbEntity
8
F_Cu_____________
62
256
100
AcDbBlockReference
2
UNIT_DISC
10
-104.3015
20
-10.0986
41
0.4
42
0.4
50
0
0
INSERT
5
335
100
AcDbEntity
8
F_Cu_____________
62
256
100
AcDbBlockReference
2
UNIT_DISC
10
-104.3015
20
-10.0986
41
0.4
42
0.4
50
0
0
LWPOLYLINE
5
336
100
AcDbEntity
8
F_Cu_____________
62
256
100
AcDbPolyline
90
2
70
0
43
0.4
10
-104.3015
20
-10.0986
10
-104.2859
20
-10.1251
0
INSERT
5
337
100
AcDbEntity
8
F_Cu_____________
62
256
100
AcDbBlockReference
2
UNIT_DISC
10
-104.2859
20
-10.1251
41
0.4
42
0.4
50
0
0
INSERT
5
338
100
AcDbEntity
8
F_Cu_____________
62
256
100
AcDbBlockReference
2
UNIT_DISC
10
-104.2859
20
-10.1251
41
0.4
42
0.4
50
0
0
LWPOLYLINE
5
339
100
AcDbEntity
8
F_Cu_____________
62
256
100
AcDbPolyline
90
2
70
0
43
0.4
10
-104.2859
20
-10.1251
10
-104.2255
20
-10.2278
0
INSERT
5
340
100
AcDbEntity
8
F_Cu_____________
62
256
100
AcDbBlockReference
2
UNIT_DISC
10
-104.2255
20
-10.2278
41
0.4
42
0.4
50
0
0
INSERT
5
341
100
AcDbEntity
8
F_Cu_____________
62
256
100
AcDbBlockReference
2
UNIT_DISC
10
-104.2255
20
-10.2278
41
0.4
42
0.4
50
0
0
LWPOLYLINE
5
342
100
AcDbEntity
8
F_Cu_____________
62
256
100
AcDbPolyline
90
2
70
0
43
0.4
10
-104.2255
20
-10.2278
10
-104.2141
20
-10.2509
0
INSERT
5
343
100
AcDbEntity
8
F_Cu_____________
62
256
100
AcDbBlockReference
2
UNIT_DISC
10
-104.2141
20
-10.2509
41
0.4
42
0.4
50
0
0
INSERT
5
344
100
AcDbEntity
8
F_Cu_____________
62
256
100
AcDbBlockReference
2
UNIT_DISC
10
-104.2141
20
-10.2509
41
0.4
42
0.4
50
0
0
LWPOLYLINE
5
345
100
AcDbEntity
8
F_Cu_____________
62
256
100
AcDbPolyline
90
2
70
0
43
0.4
10
-104.2141
20
-10.2509
10
-104.1595
20
-10.3625
0
INSERT
5
346
100
AcDbEntity
8
F_Cu_____________
62
256
100
AcDbBlockReference
2
UNIT_DISC
10
-104.1595
20
-10.3625
41
0.4
42
0.4
50
0
0
INSERT
5
347
100
AcDbEntity
8
F_Cu_____________
62
256
100
AcDbBlockReference
2
UNIT_DISC
10
-104.1595
20
-10.3625
41
0.4
42
0.4
50
0
0
LWPOLYLINE
5
348
100
AcDbEntity
8
F_Cu_____________
62
256
100
AcDbPolyline
90
2
70
0
43
0.4
10
-104.1595
20
-10.3625
10
-104.1497
20
-10.3862
0
INSERT
5
349
100
AcDbEntity
8
F_Cu_____________
62
256
100
AcDbBlockReference
2
UNIT_DISC
10
-104.1497
20
-10.3862
41
0.4
42
0.4
50
0
0
INSERT
5
350
100
AcDbEntity
8
F_Cu_____________
62
256
100
AcDbBlockReference
2
UNIT_DISC
10
-104.1497
20
-10.3862
41
0.4
42
0.4
50
0
0
LWPOLYLINE
5
351
100
AcDbEntity
8
F_Cu_____________
62
256
100
AcDbPolyline
90
2
70
0
43
0.4
10
-104.1497
20
-10.3862
10
-103.5351
20
-11.9292
0
INSERT
5
352
100
AcDbEntity
8
F_Cu_____________
62
256
100
AcDbBlockReference
2
UNIT_DISC
10
-103.5351
20
-11.9292
41
0.4
42
0.4
50
0
0
INSERT
5
353
100
AcDbEntity
8
F_Cu_____________
62
256
100
AcDbBlockReference
2
UNIT_DISC
10
-103.5351
20
-11.9292
41
0.4
42
0.4
50
0
0
LWPOLYLINE
5
354
100
AcDbEntity
8
F_Cu_____________
62
256
100
AcDbPolyline
90
2
70
0
43
0.4
10
-103.5351
20
-11.9292
10
-103.5351
20
-11.9694
0
INSERT
5
355
100
AcDbEntity
8
F_Cu_____________
62
256
100
AcDbBlockReference
2
UNIT_DISC
10
-103.5351
20
-11.9694
41
0.4
42
0.4
50
0
0
INSERT
5
356
100
AcDbEntity
8
F_Cu_____________
62
256
100
AcDbBlockReference
2
UNIT_DISC
10
-103.5351
20
-11.9694
41
0.4
42
0.4
50
0
0
LWPOLYLINE
5
357
100
AcDbEntity
8
F_Cu_____________
62
256
100
AcDbPolyline
90
2
70
0
43
0.4
10
-103.5351
20
-11.9694
10
-103.5455
20
-11.9799
0
INSERT
5
358
100
AcDbEntity
8
F_Cu_____________
62
256
100
AcDbBlockReference
2
UNIT_DISC
10
-103.5455
20
-11.9799
41
0.4
42
0.4
50
0
0
INSERT
5
359
100
AcDbEntity
8
F_Cu_____________
62
256
100
AcDbBlockReference
2
UNIT_DISC
10
-103.5455
20
-11.9799
41
0.4
42
0.4
50
0
0
LWPOLYLINE
5
360
100
AcDbEntity
8
F_Cu_____________
62
256
100
AcDbPolyline
90
2
70
0
43
0.4
10
-103.5455
20
-11.9799
10
-104.4924
20
-12.6295
0
INSERT
5
361
100
AcDbEntity
8
F_Cu_____________
62
256
100
AcDbBlockReference
2
UNIT_DISC
10
-104.4924
20
-12.6295
41
0.4
42
0.4
50
0
0
INSERT
5
362
100
AcDbEntity
8
F_Cu_____________
62
256
100
AcDbBlockReference
2
UNIT_DISC
10
-130.8473
20
-4.5991
41
0.4
42
0.4
50
0
0
LWPOLYLINE
5
363
100
AcDbEntity
8
F_Cu_____________
62
256
100
AcDbPolyline
90
2
70
0
43
0.4
10
-130.8473
20
-4.5991
10
-124.8856
20
-4.2118
0
INSERT
5
364
100
AcDbEntity
8
F_Cu_____________
62
256
100
AcDbBlockReference
2
UNIT_DISC
10
-124.8856
20
-4.2118
41
0.4
42
0.4
50
0
0
INSERT
5
365
100
AcDbEntity
8
F_Cu_____________
62
256
100
AcDbBlockReference
2
UNIT_DISC
10
-124.8856
20
-4.2118
41
0.4
42
0.4
50
0
0
LWPOLYLINE
5
366
100
AcDbEntity
8
F_Cu_____________
62
256
100
AcDbPolyline
90
2
70
0
43
0.4
10
-124.8856
20
-4.2118
10
-123.3394
20
-4.2118
0
INSERT
5
367
100
AcDbEntity
8
F_Cu_____________
62
256
100
AcDbBlockReference
2
UNIT_DISC
10
-123.3394
20
-4.2118
41
0.4
42
0.4
50
0
0
INSERT
5
368
100
AcDbEntity
8
F_Cu_____________
62
256
100
AcDbBlockReference
2
UNIT_DISC
10
-123.3394
20
-4.2118
41
0.4
42
0.4
50
0
0
LWPOLYLINE
5
369
100
AcDbEntity
8
F_Cu_____________
62
256
100
AcDbPolyline
90
2
70
0
43
0.4
10
-123.3394
20
-4.2118
10
-105.6501
20
-7.6477
0
INSERT
5
370
100
AcDbEntity
8
F_Cu_____________
62
256
100
AcDbBlockReference
2
UNIT_DISC
10
-105.6501
20
-7.6477
41
0.4
42
0.4
50
0
0
INSERT
5
371
100
AcDbEntity
8
F_Cu_____________
62
256
100
AcDbBlockReference
2
UNIT_DISC
10
-105.6501
20
-7.6477
41
0.4
42
0.4
50
0
0
LWPOLYLINE
5
372
100
AcDbEntity
8
F_Cu_____________
62
256
100
AcDbPolyline
90
2
70
0
43
0.4
10
-105.6501
20
-7.6477
10
-105.5041
20
-7.6761
0
INSERT
5
373
100
AcDbEntity
8
F_Cu_____________
62
256
100
AcDbBlockReference
2
UNIT_DISC
10
-105.5041
20
-7.6761
41
0.4
42
0.4
50
0
0
INSERT
5
374
100
AcDbEntity
8
F_Cu_____________
62
256
100
AcDbBlockReference
2
UNIT_DISC
10
-105.5041
20
-7.6761
41
0.4
42
0.4
50
0
0
LWPOLYLINE
5
375
100
AcDbEntity
8
F_Cu_____________
62
256
100
AcDbPolyline
90
2
70
0
43
0.4
10
-105.5041
20
-7.6761
10
-105.3611
20
-7.7124
0
INSERT
5
376
100
AcDbEntity
8
F_Cu_____________
62
256
100
AcDbBlockReference
2
UNIT_DISC
10
-105.3611
20
-7.7124
41
0.4
42
0.4
50
0
0
INSERT
5
377
100
AcDbEntity
8
F_Cu_____________
62
256
100
AcDbBlockReference
2
UNIT_DISC
10
-105.3611
20
-7.7124
41
0.4
42
0.4
50
0
0
LWPOLYLINE
5
378
100
AcDbEntity
8
F_Cu_____________
62
256
100
AcDbPolyline
90
2
70
0
43
0.4
10
-105.3611
20
-7.7124
10
-105.2181
20
-7.7605
0
INSERT
5
379
100
AcDbEntity
8
F_Cu_____________
62
256
100
AcDbBlockReference
2
UNIT_DISC
10
-105.2181
20
-7.7605
41
0.4
42
0.4
50
0
0
INSERT
5
380
100
AcDbEntity
8
F_Cu_____________
62
256
100
AcDbBlockReference
2
UNIT_DISC
10
-105.2181
20
-7.7605
41
0.4
42
0.4
50
0
0
LWPOLYLINE
5
381
100
AcDbEntity
8
F_Cu_____________
62
256
100
AcDbPolyline
90
2
70
0
43
0.4
10
-105.2181
20
-7.7605
10
-105.0604
20
-7.8258
0
INSERT
5
382
100
AcDbEntity
8
F_Cu_____________
62
256
100
AcDbBlockReference
2
UNIT_DISC
10
-105.0604
20
-7.8258
41
0.4
42
0.4
50
0
0
INSERT
5
383
100
AcDbEntity
8
F_Cu_____________
62
256
100
AcDbBlockReference
2
UNIT_DISC
10
-105.0604
20
-7.8258
41
0.4
42
0.4
50
0
0
LWPOLYLINE
5
384
100
AcDbEntity
8
F_Cu_____________
62
256
100
AcDbPolyline
90
2
70
0
43
0.4
10
-105.0604
20
-7.8258
10
-104.9204
20
-7.8851
0
INSERT
5
385
100
AcDbEntity
8
F_Cu_____________
62
256
100
AcDbBlockReference
2
UNIT_DISC
10
-104.9204
20
-7.8851
41
0.4
42
0.4
50
0
0
INSERT
5
386
100
AcDbEntity
8
F_Cu_____________
62
256
100
AcDbBlockReference
2
UNIT_DISC
10
-104.9204
20
-7.8851
41
0.4
42
0.4
50
0
0
LWPOLYLINE
5
387
100
AcDbEntity
8
F_Cu_____________
62
256
100
AcDbPolyline
90
2
70
0
43
0.4
10
-104.9204
20
-7.8851
10
-104.8976
20
-7.8968
0
INSERT
5
388
100
AcDbEntity
8
F_Cu_____________
62
256
100
AcDbBlockReference
2
UNIT_DISC
10
-104.8976
20
-7.8968
41
0.4
42
0.4
50
0
0
INSERT
5
389
100
AcDbEntity
8
F_Cu_____________
62
256
100
AcDbBlockReference
2
UNIT_DISC
10
-104.8976
20
-7.8968
41
0.4
42
0.4
50
0
0
LWPOLYLINE
5
390
100
AcDbEntity
8
F_Cu_____________
62
256
100
AcDbPolyline
90
2
70
0
43
0.4
10
-104.8976
20
-7.8968
10
-104.7844
20
-7.955
0
INSERT
5
391
100
AcDbEntity
8
F_Cu_____________
62
256
100
AcDbBlockReference
2
UNIT_DISC
10
-104.7844
20
-7.955
41
0.4
42
0.4
50
0
0
INSERT
5
392
100
AcDbEntity
8
F_Cu_____________
62
256
100
AcDbBlockReference
2
UNIT_DISC
10
-104.7844
20
-7.955
41
0.4
42
0.4
50
0
0
LWPOLYLINE
5
393
100
AcDbEntity
8
F_Cu_____________
62
256
100
AcDbPolyline
90
2
70
0
43
0.4
10
-104.7844
20
-7.955
10
-104.6594
20
-8.0321
0
INSERT
5
394
100
AcDbEntity
8
F_Cu_____________
62
256
100
AcDbBlockReference
2
UNIT_DISC
10
-104.6594
20
-8.0321
41
0.4
42
0.4
50
0
0
INSERT
5
395
100
AcDbEntity
8
F_Cu_____________
62
256
100
AcDbBlockReference
2
UNIT_DISC
10
-104.6594
20
-8.0321
41
0.4
42
0.4
50
0
0
LWPOLYLINE
5
396
100
AcDbEntity
8
F_Cu_____________
62
256
100
AcDbPolyline
90
2
70
0
43
0.4
10
-104.6594
20
-8.0321
10
-104.5364
20
-8.1178
0
INSERT
5
397
100
AcDbEntity
8
F_Cu_____________
62
256
100
AcDbBlockReference
2
UNIT_DISC
10
-104.5364
20
-8.1178
41
0.4
42
0.4
50
0
0
INSERT
5
398
100
AcDbEntity
8
F_Cu_____________
62
256
100
AcDbBlockReference
2
UNIT_DISC
10
-104.5364
20
-8.1178
41
0.4
42
0.4
50
0
0
LWPOLYLINE
5
399
100
AcDbEntity
8
F_Cu_____________
62
256
100
AcDbPolyline
90
2
70
0
43
0.4
10
-104.5364
20
-8.1178
10
-104.5166
20
-8.1341
0
INSERT
5
400
100
AcDbEntity
8
F_Cu_____________
62
256
100
AcDbBlockReference
2
UNIT_DISC
10
-104.5166
20
-8.1341
41
0.4
42
0.4
50
0
0
INSERT
5
401
100
AcDbEntity
8
F_Cu_____________
62
256
100
AcDbBlockReference
2
UNIT_DISC
10
-104.5166
20
-8.1341
41
0.4
42
0.4
50
0
0
LWPOLYLINE
5
402
100
AcDbEntity
8
F_Cu_____________
62
256
100
AcDbPolyline
90
2
70
0
43
0.4
10
-104.5166
20
-8.1341
10
-104.4204
20
-8.2137
0
INSERT
5
403
100
AcDbEntity
8
F_Cu_____________
62
256
100
AcDbBlockReference
2
UNIT_DISC
10
-104.4204
20
-8.2137
41
0.4
42
0.4
50
0
0
INSERT
5
404
100
AcDbEntity
8
F_Cu_____________
62
256
100
AcDbBlockReference
2
UNIT_DISC
10
-104.4204
20
-8.2137
41
0.4
42
0.4
50
0
0
LWPOLYLINE
5
405
100
AcDbEntity
8
F_Cu_____________
62
256
100
AcDbPolyline
90
2
70
0
43
0.4
10
-104.4204
20
-8.2137
10
-104.3104
20
-8.3155
0
INSERT
5
406
100
AcDbEntity
8
F_Cu_____________
62
256
100
AcDbBlockReference
2
UNIT_DISC
10
-104.3104
20
-8.3155
41
0.4
42
0.4
50
0
0
INSERT
5
407
100
AcDbEntity
8
F_Cu_____________
62
256
100
AcDbBlockReference
2
UNIT_DISC
10
-104.3104
20
-8.3155
41
0.4
42
0.4
50
0
0
LWPOLYLINE
5
408
100
AcDbEntity
8
F_Cu_____________
62
256
100
AcDbPolyline
90
2
70
0
43
0.4
10
-104.3104
20
-8.3155
10
-103.4463
20
-9.1796
0
INSERT
5
409
100
AcDbEntity
8
F_Cu_____________
62
256
100
AcDbBlockReference
2
UNIT_DISC
10
-103.4463
20
-9.1796
41
0.4
42
0.4
50
0
0
INSERT
5
410
100
AcDbEntity
8
F_Cu_____________
62
256
100
AcDbBlockReference
2
UNIT_DISC
10
-103.4463
20
-9.1796
41
0.4
42
0.4
50
0
0
LWPOLYLINE
5
411
100
AcDbEntity
8
F_Cu_____________
62
256
100
AcDbPolyline
90
2
70
0
43
0.4
10
-103.4463
20
-9.1796
10
-103.4291
20
-9.1986
0
INSERT
5
412
100
AcDbEntity
8
F_Cu_____________
62
256
100
AcDbBlockReference
2
UNIT_DISC
10
-103.4291
20
-9.1986
41
0.4
42
0.4
50
0
0
INSERT
5
413
100
AcDbEntity
8
F_Cu_____________
62
256
100
AcDbBlockReference
2
UNIT_DISC
10
-103.4291
20
-9.1986
41
0.4
42
0.4
50
0
0
LWPOLYLINE
5
414
100
AcDbEntity
8
F_Cu_____________
62
256
100
AcDbPolyline
90
2
70
0
43
0.4
10
-103.4291
20
-9.1986
10
-103.3453
20
-9.2918
0
INSERT
5
415
100
AcDbEntity
8
F_Cu_____________
62
256
100
AcDbBlockReference
2
UNIT_DISC
10
-103.3453
20
-9.2918
41
0.4
42
0.4
50
0
0
INSERT
5
416
100
AcDbEntity
8
F_Cu_____________
62
256
100
AcDbBlockReference
2
UNIT_DISC
10
-103.3453
20
-9.2918
41
0.4
42
0.4
50
0
0
LWPOLYLINE
5
417
100
AcDbEntity
8
F_Cu_____________
62
256
100
AcDbPolyline
90
2
70
0
43
0.4
10
-103.3453
20
-9.2918
10
-103.2493
20
-9.4093
0
INSERT
5
418
100
AcDbEntity
8
F_Cu_____________
62
256
100
AcDbBlockReference
2
UNIT_DISC
10
-103.2493
20
-9.4093
41
0.4
42
0.4
50
0
0
INSERT
5
419
100
AcDbEntity
8
F_Cu_____________
62
256
100
AcDbBlockReference
2
UNIT_DISC
10
-103.2493
20
-9.4093
41
0.4
42
0.4
50
0
0
LWPOLYLINE
5
420
100
AcDbEntity
8
F_Cu_____________
62
256
100
AcDbPolyline
90
2
70
0
43
0.4
10
-103.2493
20
-9.4093
10
-103.1663
20
-9.5343
0
INSERT
5
421
100
AcDbEntity
8
F_Cu_____________
62
256
100
AcDbBlockReference
2
UNIT_DISC
10
-103.1663
20
-9.5343
41
0.4
42
0.4
50
0
0
INSERT
5
422
100
AcDbEntity
8
F_Cu_____________
62
256
100
AcDbBlockReference
2
UNIT_DISC
10
-103.1663
20
-9.5343
41
0.4
42
0.4
50
0
0
LWPOLYLINE
5
423
100
AcDbEntity
8
F_Cu_____________
62
256
100
AcDbPolyline
90
2
70
0
43
0.4
10
-103.1663
20
-9.5343
10
-103.1507
20
-9.5608
0
INSERT
5
424
100
AcDbEntity
8
F_Cu_____________
62
256
100
AcDbBlockReference
2
UNIT_DISC
10
-103.1507
20
-9.5608
41
0.4
42
0.4
50
0
0
INSERT
5
425
100
AcDbEntity
8
F_Cu_____________
62
256
100
AcDbBlockReference
2
UNIT_DISC
10
-103.1507
20
-9.5608
41
0.4
42
0.4
50
0
0
LWPOLYLINE
5
426
100
AcDbEntity
8
F_Cu_____________
62
256
100
AcDbPolyline
90
2
70
0
43
0.4
10
-103.1507
20
-9.5608
10
-103.0903
20
-9.6635
0
INSERT
5
427
100
AcDbEntity
8
F_Cu_____________
62
256
100
AcDbBlockReference
2
UNIT_DISC
10
-103.0903
20
-9.6635
41
0.4
42
0.4
50
0
0
INSERT
5
428
100
AcDbEntity
8
F_Cu_____________
62
256
100
AcDbBlockReference
2
UNIT_DISC
10
-103.0903
20
-9.6635
41
0.4
42
0.4
50
0
0
LWPOLYLINE
5
429
100
AcDbEntity
8
F_Cu_____________
62
256
100
AcDbPolyline
90
2
70
0
43
0.4
10
-103.0903
20
-9.6635
10
-103.0789
20
-9.6866
0
INSERT
5
430
100
AcDbEntity
8
F_Cu_____________
62
256
100
AcDbBlockReference
2
UNIT_DISC
10
-103.0789
20
-9.6866
41
0.4
42
0.4
50
0
0
INSERT
5
431
100
AcDbEntity
8
F_Cu_____________
62
256
100
AcDbBlockReference
2
UNIT_DISC
10
-103.0789
20
-9.6866
41
0.4
42
0.4
50
0
0
LWPOLYLINE
5
432
100
AcDbEntity
8
F_Cu_____________
62
256
100
AcDbPolyline
90
2
70
0
43
0.4
10
-103.0789
20
-9.6866
10
-103.0136
20
-9.8443
0
INSERT
5
433
100
AcDbEntity
8
F_Cu_____________
62
256
100
AcDbBlockReference
2
UNIT_DISC
10
-103.0136
20
-9.8443
41
0.4
42
0.4
50
0
0
INSERT
5
434
100
AcDbEntity
8
F_Cu_____________
62
256
100
AcDbBlockReference
2
UNIT_DISC
10
-103.0136
20
-9.8443
41
0.4
42
0.4
50
0
0
LWPOLYLINE
5
435
100
AcDbEntity
8
F_Cu_____________
62
256
100
AcDbPolyline
90
2
70
0
43
0.4
10
-103.0136
20
-9.8443
10
-102.4597
20
-11.682
0
INSERT
5
436
100
AcDbEntity
8
F_Cu_____________
62
256
100
AcDbBlockReference
2
UNIT_DISC
10
-102.4597
20
-11.682
41
0.4
42
0.4
50
0
0
INSERT
5
437
100
AcDbEntity
8
F_Cu_____________
62
256
100
AcDbBlockReference
2
UNIT_DISC
10
-102.4597
20
-11.682
41
0.4
42
0.4
50
0
0
LWPOLYLINE
5
438
100
AcDbEntity
8
F_Cu_____________
62
256
100
AcDbPolyline
90
2
70
0
43
0.4
10
-102.4597
20
-11.682
10
-102.4543
20
-11.7306
0
INSERT
5
439
100
AcDbEntity
8
F_Cu_____________
62
256
100
AcDbBlockReference
2
UNIT_DISC
10
-102.4543
20
-11.7306
41
0.4
42
0.4
50
0
0
INSERT
5
440
100
AcDbEntity
8
F_Cu_____________
62
256
100
AcDbBlockReference
2
UNIT_DISC
10
-102.4543
20
-11.7306
41
0.4
42
0.4
50
0
0
LWPOLYLINE
5
441
100
AcDbEntity
8
F_Cu_____________
62
256
100
AcDbPolyline
90
2
70
0
43
0.4
10
-102.4543
20
-11.7306
10
-102.449
20
-11.7793
0
INSERT
5
442
100
AcDbEntity
8
F_Cu_____________
62
256
100
AcDbBlockReference
2
UNIT_DISC
10
-102.449
20
-11.7793
41
0.4
42
0.4
50
0
0
INSERT
5
443
100
AcDbEntity
8
F_Cu_____________
62
256
100
AcDbBlockReference
2
UNIT_DISC
10
-102.449
20
-11.7793
41
0.4
42
0.4
50
0
0
LWPOLYLINE
5
444
100
AcDbEntity
8
F_Cu_____________
62
256
100
AcDbPolyline
90
2
70
0
43
0.4
10
-102.449
20
-11.7793
10
-102.449
20
-12.6081
0
INSERT
5
445
100
AcDbEntity
8
F_Cu_____________
62
256
100
AcDbBlockReference
2
UNIT_DISC
10
-102.449
20
-12.6081
41
0.4
42
0.4
50
0
0
INSERT
5
446
100
AcDbEntity
8
F_Cu_____________
62
256
100
AcDbBlockReference
2
UNIT_DISC
10
-102.449
20
-12.6081
41
0.4
42
0.4
50
0
0
LWPOLYLINE
5
447
100
AcDbEntity
8
F_Cu_____________
62
256
100
AcDbPolyline
90
2
70
0
43
0.4
10
-102.449
20
-12.6081
10
-102.4664
20
-12.8074
0
INSERT
5
448
100
AcDbEntity
8
F_Cu_____________
62
256
100
AcDbBlockReference
2
UNIT_DISC
10
-102.4664
20
-12.8074
41
0.4
42
0.4
50
0
0
INSERT
5
449
100
AcDbEntity
8
F_Cu_____________
62
256
100
AcDbBlockReference
2
UNIT_DISC
10
-102.4664
20
-12.8074
41
0.4
42
0.4
50
0
0
LWPOLYLINE
5
450
100
AcDbEntity
8
F_Cu_____________
62
256
100
AcDbPolyline
90
2
70
0
43
0.4
10
-102.4664
20
-12.8074
10
-102.523
20
-13.4548
0
INSERT
5
451
100
AcDbEntity
8
F_Cu_____________
62
256
100
AcDbBlockReference
2
UNIT_DISC
10
-102.523
20
-13.4548
41
0.4
42
0.4
50
0
0
INSERT
5
452
100
AcDbEntity
8
F_Cu_____________
62
256
100
AcDbBlockReference
2
UNIT_DISC
10
-102.523
20
-13.4548
41
0.4
42
0.4
50
0
0
LWPOLYLINE
5
453
100
AcDbEntity
8
F_Cu_____________
62
256
100
AcDbPolyline
90
2
70
0
43
0.4
10
-102.523
20
-13.4548
10
-102.5405
20
-13.6541
0
INSERT
5
454
100
AcDbEntity
8
F_Cu_____________
62
256
100
AcDbBlockReference
2
UNIT_DISC
10
-102.5405
20
-13.6541
41
0.4
42
0.4
50
0
0
INSERT
5
455
100
AcDbEntity
8
F_Cu_____________
62
256
100
AcDbBlockReference
2
UNIT_DISC
10
-102.5405
20
-13.6541
41
0.4
42
0.4
50
0
0
LWPOLYLINE
5
456
100
AcDbEntity
8
F_Cu_____________
62
256
100
AcDbPolyline
90
2
70
0
43
0.4
10
-102.5405
20
-13.6541
10
-102.5542
20
-13.7011
0
INSERT
5
457
100
AcDbEntity
8
F_Cu_____________
62
256
100
AcDbBlockReference
2
UNIT_DISC
10
-102.5542
20
-13.7011
41
0.4
42
0.4
50
0
0
INSERT
5
458
100
AcDbEntity
8
F_Cu_____________
62
256
100
AcDbBlockReference
2
UNIT_DISC
10
-102.5542
20
-13.7011
41
0.4
42
0.4
50
0
0
LWPOLYLINE
5
459
100
AcDbEntity
8
F_Cu_____________
62
256
100
AcDbPolyline
90
2
70
0
43
0.4
10
-102.5542
20
-13.7011
10
-102.568
20
-13.7481
0
INSERT
5
460
100
AcDbEntity
8
F_Cu_____________
62
256
100
AcDbBlockReference
2
UNIT_DISC
10
-102.568
20
-13.7481
41
0.4
42
0.4
50
0
0
INSERT
5
461
100
AcDbEntity
8
F_Cu_____________
62
256
100
AcDbBlockReference
2
UNIT_DISC
10
-102.568
20
-13.7481
41
0.4
42
0.4
50
0
0
LWPOLYLINE
5
462
100
AcDbEntity
8
F_Cu_____________
62
256
100
AcDbPolyline
90
2
70
0
43
0.4
10
-102.568
20
-13.7481
10
-103.1541
20
-14.3342
0
INSERT
5
463
100
AcDbEntity
8
F_Cu_____________
62
256
100
AcDbBlockReference
2
UNIT_DISC
10
-103.1541
20
-14.3342
41
0.4
42
0.4
50
0
0
INSERT
5
464
100
AcDbEntity
8
F_Cu_____________
62
256
100
AcDbBlockReference
2
UNIT_DISC
10
-103.1541
20
-14.3342
41
0.4
42
0.4
50
0
0
LWPOLYLINE
5
465
100
AcDbEntity
8
F_Cu_____________
62
256
100
AcDbPolyline
90
2
70
0
43
0.4
10
-103.1541
20
-14.3342
10
-103.6614
20
-14.6754
0
INSERT
5
466
100
AcDbEntity
8
F_Cu_____________
62
256
100
AcDbBlockReference
2
UNIT_DISC
10
-103.6614
20
-14.6754
41
0.4
42
0.4
50
0
0
INSERT
5
467
100
AcDbEntity
8
F_Cu_____________
62
256
100
AcDbBlockReference
2
UNIT_DISC
10
-103.6614
20
-14.6754
41
0.4
42
0.4
50
0
0
LWPOLYLINE
5
468
100
AcDbEntity
8
F_Cu_____________
62
256
100
AcDbPolyline
90
2
70
0
43
0.4
10
-103.6614
20
-14.6754
10
-103.6761
20
-14.6754
0
INSERT
5
469
100
AcDbEntity
8
F_Cu_____________
62
256
100
AcDbBlockReference
2
UNIT_DISC
10
-103.6761
20
-14.6754
41
0.4
42
0.4
50
0
0
INSERT
5
470
100
AcDbEntity
8
F_Cu_____________
62
256
100
AcDbBlockReference
2
UNIT_DISC
10
-103.6761
20
-14.6754
41
0.4
42
0.4
50
0
0
LWPOLYLINE
5
471
100
AcDbEntity
8
F_Cu_____________
62
256
100
AcDbPolyline
90
2
70
0
43
0.4
10
-103.6761
20
-14.6754
10
-104.7137
20
-15.1599
0
INSERT
5
472
100
AcDbEntity
8
F_Cu_____________
62
256
100
AcDbBlockReference
2
UNIT_DISC
10
-104.7137
20
-15.1599
41
0.4
42
0.4
50
0
0
INSERT
5
473
100
AcDbEntity
8
F_Cu_____________
62
256
100
AcDbBlockReference
2
UNIT_DISC
10
-170.7088
20
-22.7535
41
0.4
42
0.4
50
0
0
LWPOLYLINE
5
474
100
AcDbEntity
8
F_Cu_____________
62
256
100
AcDbPolyline
90
2
70
0
43
0.4
10
-170.7088
20
-22.7535
10
-170.2081
20
-22.7535
0
INSERT
5
475
100
AcDbEntity
8
F_Cu_____________
62
256
100
AcDbBlockReference
2
UNIT_DISC
10
-170.2081
20
-22.7535
41
0.4
42
0.4
50
0
0
INSERT
5
476
100
AcDbEntity
8
F_Cu_____________
62
256
100
AcDbBlockReference
2
UNIT_DISC
10
-170.2081
20
-22.7535
41
0.4
42
0.4
50
0
0
LWPOLYLINE
5
477
100
AcDbEntity
8
F_Cu_____________
62
256
100
AcDbPolyline
90
2
70
0
43
0.4
10
-170.2081
20
-22.7535
10
-170.1356
20
-22.7535
0
INSERT
5
478
100
AcDbEntity
8
F_Cu_____________
62
256
100
AcDbBlockReference
2
UNIT_DISC
10
-170.1356
20
-22.7535
41
0.4
42
0.4
50
0
0
INSERT
5
479
100
AcDbEntity
8
F_Cu_____________
62
256
100
AcDbBlockReference
2
UNIT_DISC
10
-170.1356
20
-22.7535
41
0.4
42
0.4
50
0
0
LWPOLYLINE
5
480
100
AcDbEntity
8
F_Cu_____________
62
256
100
AcDbPolyline
90
2
70
0
43
0.4
10
-170.1356
20
-22.7535
10
-139.9127
20
-14.409
0
INSERT
5
481
100
AcDbEntity
8
F_Cu_____________
62
256
100
AcDbBlockReference
2
UNIT_DISC
10
-139.9127
20
-14.409
41
0.4
42
0.4
50
0
0
INSERT
5
482
100
AcDbEntity
8
F_Cu_____________
62
256
100
AcDbBlockReference
2
UNIT_DISC
10
-122.8246
20
-13.5754
41
0.4
42
0.4
50
0
0
LWPOLYLINE
5
483
100
AcDbEntity
8
F_Cu_____________
62
256
100
AcDbPolyline
90
2
70
0
43
0.4
10
-122.8246
20
-13.5754
10
-123.7179
20
-12.833
0
INSERT
5
484
100
AcDbEntity
8
F_Cu_____________
62
256
100
AcDbBlockReference
2
UNIT_DISC
10
-123.7179
20
-12.833
41
0.4
42
0.4
50
0
0
INSERT
5
485
100
AcDbEntity
8
F_Cu_____________
62
256
100
AcDbBlockReference
2
UNIT_DISC
10
-123.7179
20
-12.833
41
0.4
42
0.4
50
0
0
LWPOLYLINE
5
486
100
AcDbEntity
8
F_Cu_____________
62
256
100
AcDbPolyline
90
2
70
0
43
0.4
10
-123.7179
20
-12.833
10
-123.7284
20
-12.8226
0
INSERT
5
487
100
AcDbEntity
8
F_Cu_____________
62
256
100
AcDbBlockReference
2
UNIT_DISC
10
-123.7284
20
-12.8226
41
0.4
42
0.4
50
0
0
INSERT
5
488
100
AcDbEntity
8
F_Cu_____________
62
256
100
AcDbBlockReference
2
UNIT_DISC
10
-123.7284
20
-12.8226
41
0.4
42
0.4
50
0
0
LWPOLYLINE
5
489
100
AcDbEntity
8
F_Cu_____________
62
256
100
AcDbPolyline
90
2
70
0
43
0.4
10
-123.7284
20
-12.8226
10
-124.0027
20
-12.6644
0
INSERT
5
490
100
AcDbEntity
8
F_Cu_____________
62
256
100
AcDbBlockReference
2
UNIT_DISC
10
-124.0027
20
-12.6644
41
0.4
42
0.4
50
0
0
INSERT
5
491
100
AcDbEntity
8
F_Cu_____________
62
256
100
AcDbBlockReference
2
UNIT_DISC
10
-124.0027
20
-12.6644
41
0.4
42
0.4
50
0
0
LWPOLYLINE
5
492
100
AcDbEntity
8
F_Cu_____________
62
256
100
AcDbPolyline
90
2
70
0
43
0.4
10
-124.0027
20
-12.6644
10
-124.5888
20
-12.0783
0
INSERT
5
493
100
AcDbEntity
8
F_Cu_____________
62
256
100
AcDbBlockReference
2
UNIT_DISC
10
-124.5888
20
-12.0783
41
0.4
42
0.4
50
0
0
INSERT
5
494
100
AcDbEntity
8
F_Cu_____________
62
256
100
AcDbBlockReference
2
UNIT_DISC
10
-124.5888
20
-12.0783
41
0.4
42
0.4
50
0
0
LWPOLYLINE
5
495
100
AcDbEntity
8
F_Cu_____________
62
256
100
AcDbPolyline
90
2
70
0
43
0.4
10
-124.5888
20
-12.0783
10
-124.6359
20
-11.9925
0
INSERT
5
496
100
AcDbEntity
8
F_Cu_____________
62
256
100
AcDbBlockReference
2
UNIT_DISC
10
-124.6359
20
-11.9925
41
0.4
42
0.4
50
0
0
INSERT
5
497
100
AcDbEntity
8
F_Cu_____________
62
256
100
AcDbBlockReference
2
UNIT_DISC
10
-124.6359
20
-11.9925
41
0.4
42
0.4
50
0
0
LWPOLYLINE
5
498
100
AcDbEntity
8
F_Cu_____________
62
256
100
AcDbPolyline
90
2
70
0
43
0.4
10
-124.6359
20
-11.9925
10
-124.6466
20
-11.8952
0
INSERT
5
499
100
AcDbEntity
8
F_Cu_____________
62
256
100
AcDbBlockReference
2
UNIT_DISC
10
-124.6466
20
-11.8952
41
0.4
42
0.4
50
0
0
INSERT
5
500
100
AcDbEntity
8
F_Cu_____________
62
256
100
AcDbBlockReference
2
UNIT_DISC
10
-124.6466
20
-11.8952
41
0.4
42
0.4
50
0
0
LWPOLYLINE
5
501
100
AcDbEntity
8
F_Cu_____________
62
256
100
AcDbPolyline
90
2
70
0
43
0.4
10
-124.6466
20
-11.8952
10
-124.6466
20
-11.0664
0
INSERT
5
502
100
AcDbEntity
8
F_Cu_____________
62
256
100
AcDbBlockReference
2
UNIT_DISC
10
-124.6466
20
-11.0664
41
0.4
42
0.4
50
0
0
INSERT
5
503
100
AcDbEntity
8
F_Cu_____________
62
256
100
AcDbBlockReference
2
UNIT_DISC
10
-124.6466
20
-11.0664
41
0.4
42
0.4
50
0
0
LWPOLYLINE
5
504
100
AcDbEntity
8
F_Cu_____________
62
256
100
AcDbPolyline
90
2
70
0
43
0.4
10
-124.6466
20
-11.0664
10
-124.5551
20
-10.0204
0
INSERT
5
505
100
AcDbEntity
8
F_Cu_____________
62
256
100
AcDbBlockReference
2
UNIT_DISC
10
-124.5551
20
-10.0204
41
0.4
42
0.4
50
0
0
INSERT
5
506
100
AcDbEntity
8
F_Cu_____________
62
256
100
AcDbBlockReference
2
UNIT_DISC
10
-124.5551
20
-10.0204
41
0.4
42
0.4
50
0
0
LWPOLYLINE
5
507
100
AcDbEntity
8
F_Cu_____________
62
256
100
AcDbPolyline
90
2
70
0
43
0.4
10
-124.5551
20
-10.0204
10
-124.1125
20
-6.7128
0
INSERT
5
508
100
AcDbEntity
8
F_Cu_____________
62
256
100
AcDbBlockReference
2
UNIT_DISC
10
-124.1125
20
-6.7128
41
0.4
42
0.4
50
0
0
INSERT
5
509
100
AcDbEntity
8
F_Cu_____________
62
256
100
AcDbBlockReference
2
UNIT_DISC
10
-104.9351
20
-17.6902
41
0.4
42
0.4
50
0
0
LWPOLYLINE
5
510
100
AcDbEntity
8
F_Cu_____________
62
256
100
AcDbPolyline
90
2
70
0
43
0.4
10
-104.9351
20
-17.6902
10
-103.8975
20
-17.2057
0
INSERT
5
511
100
AcDbEntity
8
F_Cu_____________
62
256
100
AcDbBlockReference
2
UNIT_DISC
10
-103.8975
20
-17.2057
41
0.4
42
0.4
50
0
0
INSERT
5
512
100
AcDbEntity
8
F_Cu_____________
62
256
100
AcDbBlockReference
2
UNIT_DISC
10
-103.8975
20
-17.2057
41
0.4
42
0.4
50
0
0
LWPOLYLINE
5
513
100
AcDbEntity
8
F_Cu_____________
62
256
100
AcDbPolyline
90
2
70
0
43
0.4
10
-103.8975
20
-17.2057
10
-103.8828
20
-17.2057
0
INSERT
5
514
100
AcDbEntity
8
F_Cu_____________
62
256
100
AcDbBlockReference
2
UNIT_DISC
10
-103.8828
20
-17.2057
41
0.4
42
0.4
50
0
0
INSERT
5
515
100
AcDbEntity
8
F_Cu_____________
62
256
100
AcDbBlockReference
2
UNIT_DISC
10
-103.8828
20
-17.2057
41
0.4
42
0.4
50
0
0
LWPOLYLINE
5
516
100
AcDbEntity
8
F_Cu_____________
62
256
100
AcDbPolyline
90
2
70
0
43
0.4
10
-103.8828
20
-17.2057
10
-103.3754
20
-16.8646
0
INSERT
5
517
100
AcDbEntity
8
F_Cu_____________
62
256
100
AcDbBlockReference
2
UNIT_DISC
10
-103.3754
20
-16.8646
41
0.4
42
0.4
50
0
0
INSERT
5
518
100
AcDbEntity
8
F_Cu_____________
62
256
100
AcDbBlockReference
2
UNIT_DISC
10
-103.3754
20
-16.8646
41
0.4
42
0.4
50
0
0
LWPOLYLINE
5
519
100
AcDbEntity
8
F_Cu_____________
62
256
100
AcDbPolyline
90
2
70
0
43
0.4
10
-103.3754
20
-16.8646
10
-102.7893
20
-16.2785
0
INSERT
5
520
100
AcDbEntity
8
F_Cu_____________
62
256
100
AcDbBlockReference
2
UNIT_DISC
10
-102.7893
20
-16.2785
41
0.4
42
0.4
50
0
0
INSERT
5
521
100
AcDbEntity
8
F_Cu_____________
62
256
100
AcDbBlockReference
2
UNIT_DISC
10
-102.7893
20
-16.2785
41
0.4
42
0.4
50
0
0
LWPOLYLINE
5
522
100
AcDbEntity
8
F_Cu_____________
62
256
100
AcDbPolyline
90
2
70
0
43
0.4
10
-102.7893
20
-16.2785
10
-101.4951
20
-14.3415
0
INSERT
5
523
100
AcDbEntity
8
F_Cu_____________
62
256
100
AcDbBlockReference
2
UNIT_DISC
10
-101.4951
20
-14.3415
41
0.4
42
0.4
50
0
0
INSERT
5
524
100
AcDbEntity
8
F_Cu_____________
62
256
100
AcDbBlockReference
2
UNIT_DISC
10
-101.4951
20
-14.3415
41
0.4
42
0.4
50
0
0
LWPOLYLINE
5
525
100
AcDbEntity
8
F_Cu_____________
62
256
100
AcDbPolyline
90
2
70
0
43
0.4
10
-101.4951
20
-14.3415
10
-101.3537
20
-14.0001
0
INSERT
5
526
100
AcDbEntity
8
F_Cu_____________
62
256
100
AcDbBlockReference
2
UNIT_DISC
10
-101.3537
20
-14.0001
41
0.4
42
0.4
50
0
0
INSERT
5
527
100
AcDbEntity
8
F_Cu_____________
62
256
100
AcDbBlockReference
2
UNIT_DISC
10
-101.3537
20
-14.0001
41
0.4
42
0.4
50
0
0
LWPOLYLINE
5
528
100
AcDbEntity
8
F_Cu_____________
62
256
100
AcDbPolyline
90
2
70
0
43
0.4
10
-101.3537
20
-14.0001
10
-101.34
20
-13.9531
0
INSERT
5
529
100
AcDbEntity
8
F_Cu_____________
62
256
100
AcDbBlockReference
2
UNIT_DISC
10
-101.34
20
-13.9531
41
0.4
42
0.4
50
0
0
INSERT
5
530
100
AcDbEntity
8
F_Cu_____________
62
256
100
AcDbBlockReference
2
UNIT_DISC
10
-101.34
20
-13.9531
41
0.4
42
0.4
50
0
0
LWPOLYLINE
5
531
100
AcDbEntity
8
F_Cu_____________
62
256
100
AcDbPolyline
90
2
70
0
43
0.4
10
-101.34
20
-13.9531
10
-101.3225
20
-13.7538
0
INSERT
5
532
100
AcDbEntity
8
F_Cu_____________
62
256
100
AcDbBlockReference
2
UNIT_DISC
10
-101.3225
20
-13.7538
41
0.4
42
0.4
50
0
0
INSERT
5
533
100
AcDbEntity
8
F_Cu_____________
62
256
100
AcDbBlockReference
2
UNIT_DISC
10
-101.3225
20
-13.7538
41
0.4
42
0.4
50
0
0
LWPOLYLINE
5
534
100
AcDbEntity
8
F_Cu_____________
62
256
100
AcDbPolyline
90
2
70
0
43
0.4
10
-101.3225
20
-13.7538
10
-101.2659
20
-13.1064
0
INSERT
5
535
100
AcDbEntity
8
F_Cu_____________
62
256
100
AcDbBlockReference
2
UNIT_DISC
10
-101.2659
20
-13.1064
41
0.4
42
0.4
50
0
0
INSERT
5
536
100
AcDbEntity
8
F_Cu_____________
62
256
100
AcDbBlockReference
2
UNIT_DISC
10
-101.2659
20
-13.1064
41
0.4
42
0.4
50
0
0
LWPOLYLINE
5
537
100
AcDbEntity
8
F_Cu_____________
62
256
100
AcDbPolyline
90
2
70
0
43
0.4
10
-101.2659
20
-13.1064
10
-101.2485
20
-12.9071
0
INSERT
5
538
100
AcDbEntity
8
F_Cu_____________
62
256
100
AcDbBlockReference
2
UNIT_DISC
10
-101.2485
20
-12.9071
41
0.4
42
0.4
50
0
0
INSERT
5
539
100
AcDbEntity
8
F_Cu_____________
62
256
100
AcDbBlockReference
2
UNIT_DISC
10
-101.2485
20
-12.9071
41
0.4
42
0.4
50
0
0
LWPOLYLINE
5
540
100
AcDbEntity
8
F_Cu_____________
62
256
100
AcDbPolyline
90
2
70
0
43
0.4
10
-101.2485
20
-12.9071
10
-101.2485
20
-11.4803
0
INSERT
5
541
100
AcDbEntity
8
F_Cu_____________
62
256
100
AcDbBlockReference
2
UNIT_DISC
10
-101.2485
20
-11.4803
41
0.4
42
0.4
50
0
0
INSERT
5
542
100
AcDbEntity
8
F_Cu_____________
62
256
100
AcDbBlockReference
2
UNIT_DISC
10
-101.2485
20
-11.4803
41
0.4
42
0.4
50
0
0
LWPOLYLINE
5
543
100
AcDbEntity
8
F_Cu_____________
62
256
100
AcDbPolyline
90
2
70
0
43
0.4
10
-101.2485
20
-11.4803
10
-101.2538
20
-11.4316
0
INSERT
5
544
100
AcDbEntity
8
F_Cu_____________
62
256
100
AcDbBlockReference
2
UNIT_DISC
10
-101.2538
20
-11.4316
41
0.4
42
0.4
50
0
0
INSERT
5
545
100
AcDbEntity
8
F_Cu_____________
62
256
100
AcDbBlockReference
2
UNIT_DISC
10
-101.2538
20
-11.4316
41
0.4
42
0.4
50
0
0
LWPOLYLINE
5
546
100
AcDbEntity
8
F_Cu_____________
62
256
100
AcDbPolyline
90
2
70
0
43
0.4
10
-101.2538
20
-11.4316
10
-101.2592
20
-11.383
0
INSERT
5
547
100
AcDbEntity
8
F_Cu_____________
62
256
100
AcDbBlockReference
2
UNIT_DISC
10
-101.2592
20
-11.383
41
0.4
42
0.4
50
0
0
INSERT
5
548
100
AcDbEntity
8
F_Cu_____________
62
256
100
AcDbBlockReference
2
UNIT_DISC
10
-101.2592
20
-11.383
41
0.4
42
0.4
50
0
0
LWPOLYLINE
5
549
100
AcDbEntity
8
F_Cu_____________
62
256
100
AcDbPolyline
90
2
70
0
43
0.4
10
-101.2592
20
-11.383
10
-101.8304
20
-9.5621
0
INSERT
5
550
100
AcDbEntity
8
F_Cu_____________
62
256
100
AcDbBlockReference
2
UNIT_DISC
10
-101.8304
20
-9.5621
41
0.4
42
0.4
50
0
0
INSERT
5
551
100
AcDbEntity
8
F_Cu_____________
62
256
100
AcDbBlockReference
2
UNIT_DISC
10
-101.8304
20
-9.5621
41
0.4
42
0.4
50
0
0
LWPOLYLINE
5
552
100
AcDbEntity
8
F_Cu_____________
62
256
100
AcDbPolyline
90
2
70
0
43
0.4
10
-101.8304
20
-9.5621
10
-102.0436
20
-9.0482
0
INSERT
5
553
100
AcDbEntity
8
F_Cu_____________
62
256
100
AcDbBlockReference
2
UNIT_DISC
10
-102.0436
20
-9.0482
41
0.4
42
0.4
50
0
0
INSERT
5
554
100
AcDbEntity
8
F_Cu_____________
62
256
100
AcDbBlockReference
2
UNIT_DISC
10
-102.0436
20
-9.0482
41
0.4
42
0.4
50
0
0
LWPOLYLINE
5
555
100
AcDbEntity
8
F_Cu_____________
62
256
100
AcDbPolyline
90
2
70
0
43
0.4
10
-102.0436
20
-9.0482
10
-102.055
20
-9.0251
0
INSERT
5
556
100
AcDbEntity
8
F_Cu_____________
62
256
100
AcDbBlockReference
2
UNIT_DISC
10
-102.055
20
-9.0251
41
0.4
42
0.4
50
0
0
INSERT
5
557
100
AcDbEntity
8
F_Cu_____________
62
256
100
AcDbBlockReference
2
UNIT_DISC
10
-102.055
20
-9.0251
41
0.4
42
0.4
50
0
0
LWPOLYLINE
5
558
100
AcDbEntity
8
F_Cu_____________
62
256
100
AcDbPolyline
90
2
70
0
43
0.4
10
-102.055
20
-9.0251
10
-106.6301
20
-0.9119
0
INSERT
5
559
100
AcDbEntity
8
F_Cu_____________
62
256
100
AcDbBlockReference
2
UNIT_DISC
10
-106.6301
20
-0.9119
41
0.4
42
0.4
50
0
0
INSERT
5
560
100
AcDbEntity
8
F_Cu_____________
62
256
100
AcDbBlockReference
2
UNIT_DISC
10
-106.6301
20
-0.9119
41
0.4
42
0.4
50
0
0
LWPOLYLINE
5
561
100
AcDbEntity
8
F_Cu_____________
62
256
100
AcDbPolyline
90
2
70
0
43
0.4
10
-106.6301
20
-0.9119
10
-106.8753
20
-0.3205
0
INSERT
5
562
100
AcDbEntity
8
F_Cu_____________
62
256
100
AcDbBlockReference
2
UNIT_DISC
10
-106.8753
20
-0.3205
41
0.4
42
0.4
50
0
0
INSERT
5
563
100
AcDbEntity
8
F_Cu_____________
62
256
100
AcDbBlockReference
2
UNIT_DISC
10
-106.8753
20
-0.3205
41
0.4
42
0.4
50
0
0
LWPOLYLINE
5
564
100
AcDbEntity
8
F_Cu_____________
62
256
100
AcDbPolyline
90
2
70
0
43
0.4
10
-106.8753
20
-0.3205
10
-106.92
20
-0.1425
0
INSERT
5
565
100
AcDbEntity
8
F_Cu_____________
62
256
100
AcDbBlockReference
2
UNIT_DISC
10
-106.92
20
-0.1425
41
0.4
42
0.4
50
0
0
INSERT
5
566
100
AcDbEntity
8
F_Cu_____________
62
256
100
AcDbBlockReference
2
UNIT_DISC
10
-106.92
20
-0.1425
41
0.4
42
0.4
50
0
0
LWPOLYLINE
5
567
100
AcDbEntity
8
F_Cu_____________
62
256
100
AcDbPolyline
90
2
70
0
43
0.4
10
-106.92
20
-0.1425
10
-107.1785
20
1.4821
0
INSERT
5
568
100
AcDbEntity
8
F_Cu_____________
62
256
100
AcDbBlockReference
2
UNIT_DISC
10
-107.1785
20
1.4821
41
0.4
42
0.4
50
0
0
INSERT
5
569
100
AcDbEntity
8
F_Cu_____________
62
256
100
AcDbBlockReference
2
UNIT_DISC
10
-107.1785
20
1.4821
41
0.4
42
0.4
50
0
0
LWPOLYLINE
5
570
100
AcDbEntity
8
F_Cu_____________
62
256
100
AcDbPolyline
90
2
70
0
43
0.4
10
-107.1785
20
1.4821
10
-107.3305
20
1.8491
0
INSERT
5
571
100
AcDbEntity
8
F_Cu_____________
62
256
100
AcDbBlockReference
2
UNIT_DISC
10
-107.3305
20
1.8491
41
0.4
42
0.4
50
0
0
INSERT
5
572
100
AcDbEntity
8
F_Cu_____________
62
256
100
AcDbBlockReference
2
UNIT_DISC
10
-107.3305
20
1.8491
41
0.4
42
0.4
50
0
0
LWPOLYLINE
5
573
100
AcDbEntity
8
F_Cu_____________
62
256
100
AcDbPolyline
90
2
70
0
43
0.4
10
-107.3305
20
1.8491
10
-114.4683
20
15.7528
0
INSERT
5
574
100
AcDbEntity
8
F_Cu_____________
62
256
100
AcDbBlockReference
2
UNIT_DISC
10
-114.4683
20
15.7528
41
0.4
42
0.4
50
0
0
INSERT
5
575
100
AcDbEntity
8
F_Cu_____________
62
256
100
AcDbBlockReference
2
UNIT_DISC
10
-116.4225
20
44.4809
41
0.4
42
0.4
50
0
0
LWPOLYLINE
5
576
100
AcDbEntity
8
F_Cu_____________
62
256
100
AcDbPolyline
90
2
70
0
43
0.4
10
-116.4225
20
44.4809
10
-115.8111
20
34.5028
0
INSERT
5
577
100
AcDbEntity
8
F_Cu_____________
62
256
100
AcDbBlockReference
2
UNIT_DISC
10
-115.8111
20
34.5028
41
0.4
42
0.4
50
0
0
INSERT
5
578
100
AcDbEntity
8
F_Cu_____________
62
256
100
AcDbBlockReference
2
UNIT_DISC
10
-114.4683
20
15.7528
41
0.4
42
0.4
50
0
0
LWPOLYLINE
5
579
100
AcDbEntity
8
F_Cu_____________
62
256
100
AcDbPolyline
90
2
70
0
43
0.4
10
-114.4683
20
15.7528
10
-115.8111
20
34.5028
0
INSERT
5
580
100
AcDbEntity
8
F_Cu_____________
62
256
100
AcDbBlockReference
2
UNIT_DISC
10
-115.8111
20
34.5028
41
0.4
42
0.4
50
0
0
INSERT
5
581
100
AcDbEntity
8
F_Cu_____________
62
256
100
AcDbBlockReference
2
UNIT_DISC
10
-170.7088
20
-24.2535
41
0.4
42
0.4
50
0
0
LWPOLYLINE
5
582
100
AcDbEntity
8
F_Cu_____________
62
256
100
AcDbPolyline
90
2
70
0
43
0.4
10
-170.7088
20
-24.2535
10
-170.2081
20
-24.2535
0
INSERT
5
583
100
AcDbEntity
8
F_Cu_____________
62
256
100
AcDbBlockReference
2
UNIT_DISC
10
-170.2081
20
-24.2535
41
0.4
42
0.4
50
0
0
INSERT
5
584
100
AcDbEntity
8
F_Cu_____________
62
256
100
AcDbBlockReference
2
UNIT_DISC
10
-170.2081
20
-24.2535
41
0.4
42
0.4
50
0
0
LWPOLYLINE
5
585
100
AcDbEntity
8
F_Cu_____________
62
256
100
AcDbPolyline
90
2
70
0
43
0.4
10
-170.2081
20
-24.2535
10
-170.1356
20
-24.2535
0
INSERT
5
586
100
AcDbEntity
8
F_Cu_____________
62
256
100
AcDbBlockReference
2
UNIT_DISC
10
-170.1356
20
-24.2535
41
0.4
42
0.4
50
0
0
INSERT
5
587
100
AcDbEntity
8
F_Cu_____________
62
256
100
AcDbBlockReference
2
UNIT_DISC
10
-170.1356
20
-24.2535
41
0.4
42
0.4
50
0
0
LWPOLYLINE
5
588
100
AcDbEntity
8
F_Cu_____________
62
256
100
AcDbPolyline
90
2
70
0
43
0.4
10
-170.1356
20
-24.2535
10
-139.3784
20
-15.7095
0
INSERT
5
589
100
AcDbEntity
8
F_Cu_____________
62
256
100
AcDbBlockReference
2
UNIT_DISC
10
-139.3784
20
-15.7095
41
0.4
42
0.4
50
0
0
INSERT
5
590
100
AcDbEntity
8
F_Cu_____________
62
256
100
AcDbBlockReference
2
UNIT_DISC
10
-139.3784
20
-15.7095
41
0.4
42
0.4
50
0
0
LWPOLYLINE
5
591
100
AcDbEntity
8
F_Cu_____________
62
256
100
AcDbPolyline
90
2
70
0
43
0.4
10
-139.3784
20
-15.7095
10
-139.368
20
-15.7052
0
INSERT
5
592
100
AcDbEntity
8
F_Cu_____________
62
256
100
AcDbBlockReference
2
UNIT_DISC
10
-139.368
20
-15.7052
41
0.4
42
0.4
50
0
0
INSERT
5
593
100
AcDbEntity
8
F_Cu_____________
62
256
100
AcDbBlockReference
2
UNIT_DISC
10
-139.368
20
-15.7052
41
0.4
42
0.4
50
0
0
LWPOLYLINE
5
594
100
AcDbEntity
8
F_Cu_____________
62
256
100
AcDbPolyline
90
2
70
0
43
0.4
10
-139.368
20
-15.7052
10
-138.6165
20
-14.9537
0
INSERT
5
595
100
AcDbEntity
8
F_Cu_____________
62
256
100
AcDbBlockReference
2
UNIT_DISC
10
-138.6165
20
-14.9537
41
0.4
42
0.4
50
0
0
INSERT
5
596
100
AcDbEntity
8
F_Cu_____________
62
256
100
AcDbBlockReference
2
UNIT_DISC
10
-138.6165
20
-14.9537
41
0.4
42
0.4
50
0
0
LWPOLYLINE
5
597
100
AcDbEntity
8
F_Cu_____________
62
256
100
AcDbPolyline
90
2
70
0
43
0.4
10
-138.6165
20
-14.9537
10
-132.1435
20
-4.0544
0
INSERT
5
598
100
AcDbEntity
8
F_Cu_____________
62
256
100
AcDbBlockReference
2
UNIT_DISC
10
-132.1435
20
-4.0544
41
0.4
42
0.4
50
0
0
INSERT
5
599
100
AcDbEntity
8
F_Cu_____________
62
256
100
AcDbBlockReference
2
UNIT_DISC
10
-132.1435
20
-4.0544
41
0.4
42
0.4
50
0
0
LWPOLYLINE
5
600
100
AcDbEntity
8
F_Cu_____________
62
256
100
AcDbPolyline
90
2
70
0
43
0.4
10
-132.1435
20
-4.0544
10
-131.392
20
-3.3029
0
INSERT
5
601
100
AcDbEntity
8
F_Cu_____________
62
256
100
AcDbBlockReference
2
UNIT_DISC
10
-131.392
20
-3.3029
41
0.4
42
0.4
50
0
0
INSERT
5
602
100
AcDbEntity
8
F_Cu_____________
62
256
100
AcDbBlockReference
2
UNIT_DISC
10
-131.392
20
-3.3029
41
0.4
42
0.4
50
0
0
LWPOLYLINE
5
603
100
AcDbEntity
8
F_Cu_____________
62
256
100
AcDbPolyline
90
2
70
0
43
0.4
10
-131.392
20
-3.3029
10
-131.3816
20
-3.2986
0
INSERT
5
604
100
AcDbEntity
8
F_Cu_____________
62
256
100
AcDbBlockReference
2
UNIT_DISC
10
-131.3816
20
-3.2986
41
0.4
42
0.4
50
0
0
INSERT
5
605
100
AcDbEntity
8
F_Cu_____________
62
256
100
AcDbBlockReference
2
UNIT_DISC
10
-131.3816
20
-3.2986
41
0.4
42
0.4
50
0
0
LWPOLYLINE
5
606
100
AcDbEntity
8
F_Cu_____________
62
256
100
AcDbPolyline
90
2
70
0
43
0.4
10
-131.3816
20
-3.2986
10
-109.449
20
0.7549
0
INSERT
5
607
100
AcDbEntity
8
F_Cu_____________
62
256
100
AcDbBlockReference
2
UNIT_DISC
10
-109.449
20
0.7549
41
0.4
42
0.4
50
0
0
INSERT
5
608
100
AcDbEntity
8
F_Cu_____________
62
256
100
AcDbBlockReference
2
UNIT_DISC
10
-96.2335
20
31.7689
41
0.4
42
0.4
50
0
0
LWPOLYLINE
5
609
100
AcDbEntity
8
F_Cu_____________
62
256
100
AcDbPolyline
90
2
70
0
43
0.4
10
-96.2335
20
31.7689
10
-95.5512
20
19.3346
0
INSERT
5
610
100
AcDbEntity
8
F_Cu_____________
62
256
100
AcDbBlockReference
2
UNIT_DISC
10
-95.5512
20
19.3346
41
0.4
42
0.4
50
0
0
INSERT
5
611
100
AcDbEntity
8
F_Cu_____________
62
256
100
AcDbBlockReference
2
UNIT_DISC
10
-105.1565
20
-20.2205
41
0.4
42
0.4
50
0
0
LWPOLYLINE
5
612
100
AcDbEntity
8
F_Cu_____________
62
256
100
AcDbPolyline
90
2
70
0
43
0.4
10
-105.1565
20
-20.2205
10
-104.1189
20
-19.736
0
INSERT
5
613
100
AcDbEntity
8
F_Cu_____________
62
256
100
AcDbBlockReference
2
UNIT_DISC
10
-104.1189
20
-19.736
41
0.4
42
0.4
50
0
0
INSERT
5
614
100
AcDbEntity
8
F_Cu_____________
62
256
100
AcDbBlockReference
2
UNIT_DISC
10
-104.1189
20
-19.736
41
0.4
42
0.4
50
0
0
LWPOLYLINE
5
615
100
AcDbEntity
8
F_Cu_____________
62
256
100
AcDbPolyline
90
2
70
0
43
0.4
10
-104.1189
20
-19.736
10
-104.1042
20
-19.736
0
INSERT
5
616
100
AcDbEntity
8
F_Cu_____________
62
256
100
AcDbBlockReference
2
UNIT_DISC
10
-104.1042
20
-19.736
41
0.4
42
0.4
50
0
0
INSERT
5
617
100
AcDbEntity
8
F_Cu_____________
62
256
100
AcDbBlockReference
2
UNIT_DISC
10
-104.1042
20
-19.736
41
0.4
42
0.4
50
0
0
LWPOLYLINE
5
618
100
AcDbEntity
8
F_Cu_____________
62
256
100
AcDbPolyline
90
2
70
0
43
0.4
10
-104.1042
20
-19.736
10
-103.5968
20
-19.3949
0
INSERT
5
619
100
AcDbEntity
8
F_Cu_____________
62
256
100
AcDbBlockReference
2
UNIT_DISC
10
-103.5968
20
-19.3949
41
0.4
42
0.4
50
0
0
INSERT
5
620
100
AcDbEntity
8
F_Cu_____________
62
256
100
AcDbBlockReference
2
UNIT_DISC
10
-103.5968
20
-19.3949
41
0.4
42
0.4
50
0
0
LWPOLYLINE
5
621
100
AcDbEntity
8
F_Cu_____________
62
256
100
AcDbPolyline
90
2
70
0
43
0.4
10
-103.5968
20
-19.3949
10
-103.0107
20
-18.8088
0
INSERT
5
622
100
AcDbEntity
8
F_Cu_____________
62
256
100
AcDbBlockReference
2
UNIT_DISC
10
-103.0107
20
-18.8088
41
0.4
42
0.4
50
0
0
INSERT
5
623
100
AcDbEntity
8
F_Cu_____________
62
256
100
AcDbBlockReference
2
UNIT_DISC
10
-103.0107
20
-18.8088
41
0.4
42
0.4
50
0
0
LWPOLYLINE
5
624
100
AcDbEntity
8
F_Cu_____________
62
256
100
AcDbPolyline
90
2
70
0
43
0.4
10
-103.0107
20
-18.8088
10
-101.7164
20
-16.8719
0
INSERT
5
625
100
AcDbEntity
8
F_Cu_____________
62
256
100
AcDbBlockReference
2
UNIT_DISC
10
-101.7164
20
-16.8719
41
0.4
42
0.4
50
0
0
INSERT
5
626
100
AcDbEntity
8
F_Cu_____________
62
256
100
AcDbBlockReference
2
UNIT_DISC
10
-101.7164
20
-16.8719
41
0.4
42
0.4
50
0
0
LWPOLYLINE
5
627
100
AcDbEntity
8
F_Cu_____________
62
256
100
AcDbPolyline
90
2
70
0
43
0.4
10
-101.7164
20
-16.8719
10
-100.5231
20
-15.0678
0
INSERT
5
628
100
AcDbEntity
8
F_Cu_____________
62
256
100
AcDbBlockReference
2
UNIT_DISC
10
-100.5231
20
-15.0678
41
0.4
42
0.4
50
0
0
INSERT
5
629
100
AcDbEntity
8
F_Cu_____________
62
256
100
AcDbBlockReference
2
UNIT_DISC
10
-100.5231
20
-15.0678
41
0.4
42
0.4
50
0
0
LWPOLYLINE
5
630
100
AcDbEntity
8
F_Cu_____________
62
256
100
AcDbPolyline
90
2
70
0
43
0.4
10
-100.5231
20
-15.0678
10
-100.4358
20
-14.9222
0
INSERT
5
631
100
AcDbEntity
8
F_Cu_____________
62
256
100
AcDbBlockReference
2
UNIT_DISC
10
-100.4358
20
-14.9222
41
0.4
42
0.4
50
0
0
INSERT
5
632
100
AcDbEntity
8
F_Cu_____________
62
256
100
AcDbBlockReference
2
UNIT_DISC
10
-100.4358
20
-14.9222
41
0.4
42
0.4
50
0
0
LWPOLYLINE
5
633
100
AcDbEntity
8
F_Cu_____________
62
256
100
AcDbPolyline
90
2
70
0
43
0.4
10
-100.4358
20
-14.9222
10
-100.1945
20
-14.3402
0
INSERT
5
634
100
AcDbEntity
8
F_Cu_____________
62
256
100
AcDbBlockReference
2
UNIT_DISC
10
-100.1945
20
-14.3402
41
0.4
42
0.4
50
0
0
INSERT
5
635
100
AcDbEntity
8
F_Cu_____________
62
256
100
AcDbBlockReference
2
UNIT_DISC
10
-100.1945
20
-14.3402
41
0.4
42
0.4
50
0
0
LWPOLYLINE
5
636
100
AcDbEntity
8
F_Cu_____________
62
256
100
AcDbPolyline
90
2
70
0
43
0.4
10
-100.1945
20
-14.3402
10
-100.1808
20
-14.2932
0
INSERT
5
637
100
AcDbEntity
8
F_Cu_____________
62
256
100
AcDbBlockReference
2
UNIT_DISC
10
-100.1808
20
-14.2932
41
0.4
42
0.4
50
0
0
INSERT
5
638
100
AcDbEntity
8
F_Cu_____________
62
256
100
AcDbBlockReference
2
UNIT_DISC
10
-100.1808
20
-14.2932
41
0.4
42
0.4
50
0
0
LWPOLYLINE
5
639
100
AcDbEntity
8
F_Cu_____________
62
256
100
AcDbPolyline
90
2
70
0
43
0.4
10
-100.1808
20
-14.2932
10
-100.1395
20
-14.1285
0
INSERT
5
640
100
AcDbEntity
8
F_Cu_____________
62
256
100
AcDbBlockReference
2
UNIT_DISC
10
-100.1395
20
-14.1285
41
0.4
42
0.4
50
0
0
INSERT
5
641
100
AcDbEntity
8
F_Cu_____________
62
256
100
AcDbBlockReference
2
UNIT_DISC
10
-100.1395
20
-14.1285
41
0.4
42
0.4
50
0
0
LWPOLYLINE
5
642
100
AcDbEntity
8
F_Cu_____________
62
256
100
AcDbPolyline
90
2
70
0
43
0.4
10
-100.1395
20
-14.1285
10
-100.122
20
-13.9292
0
INSERT
5
643
100
AcDbEntity
8
F_Cu_____________
62
256
100
AcDbBlockReference
2
UNIT_DISC
10
-100.122
20
-13.9292
41
0.4
42
0.4
50
0
0
INSERT
5
644
100
AcDbEntity
8
F_Cu_____________
62
256
100
AcDbBlockReference
2
UNIT_DISC
10
-100.122
20
-13.9292
41
0.4
42
0.4
50
0
0
LWPOLYLINE
5
645
100
AcDbEntity
8
F_Cu_____________
62
256
100
AcDbPolyline
90
2
70
0
43
0.4
10
-100.122
20
-13.9292
10
-100.0654
20
-13.2818
0
INSERT
5
646
100
AcDbEntity
8
F_Cu_____________
62
256
100
AcDbBlockReference
2
UNIT_DISC
10
-100.0654
20
-13.2818
41
0.4
42
0.4
50
0
0
INSERT
5
647
100
AcDbEntity
8
F_Cu_____________
62
256
100
AcDbBlockReference
2
UNIT_DISC
10
-100.0654
20
-13.2818
41
0.4
42
0.4
50
0
0
LWPOLYLINE
5
648
100
AcDbEntity
8
F_Cu_____________
62
256
100
AcDbPolyline
90
2
70
0
43
0.4
10
-100.0654
20
-13.2818
10
-100.048
20
-13.0825
0
INSERT
5
649
100
AcDbEntity
8
F_Cu_____________
62
256
100
AcDbBlockReference
2
UNIT_DISC
10
-100.048
20
-13.0825
41
0.4
42
0.4
50
0
0
INSERT
5
650
100
AcDbEntity
8
F_Cu_____________
62
256
100
AcDbBlockReference
2
UNIT_DISC
10
-100.048
20
-13.0825
41
0.4
42
0.4
50
0
0
LWPOLYLINE
5
651
100
AcDbEntity
8
F_Cu_____________
62
256
100
AcDbPolyline
90
2
70
0
43
0.4
10
-100.048
20
-13.0825
10
-100.048
20
-11.3049
0
INSERT
5
652
100
AcDbEntity
8
F_Cu_____________
62
256
100
AcDbBlockReference
2
UNIT_DISC
10
-100.048
20
-11.3049
41
0.4
42
0.4
50
0
0
INSERT
5
653
100
AcDbEntity
8
F_Cu_____________
62
256
100
AcDbBlockReference
2
UNIT_DISC
10
-100.048
20
-11.3049
41
0.4
42
0.4
50
0
0
LWPOLYLINE
5
654
100
AcDbEntity
8
F_Cu_____________
62
256
100
AcDbPolyline
90
2
70
0
43
0.4
10
-100.048
20
-11.3049
10
-100.0533
20
-11.2562
0
INSERT
5
655
100
AcDbEntity
8
F_Cu_____________
62
256
100
AcDbBlockReference
2
UNIT_DISC
10
-100.0533
20
-11.2562
41
0.4
42
0.4
50
0
0
INSERT
5
656
100
AcDbEntity
8
F_Cu_____________
62
256
100
AcDbBlockReference
2
UNIT_DISC
10
-100.0533
20
-11.2562
41
0.4
42
0.4
50
0
0
LWPOLYLINE
5
657
100
AcDbEntity
8
F_Cu_____________
62
256
100
AcDbPolyline
90
2
70
0
43
0.4
10
-100.0533
20
-11.2562
10
-100.0587
20
-11.2076
0
INSERT
5
658
100
AcDbEntity
8
F_Cu_____________
62
256
100
AcDbBlockReference
2
UNIT_DISC
10
-100.0587
20
-11.2076
41
0.4
42
0.4
50
0
0
INSERT
5
659
100
AcDbEntity
8
F_Cu_____________
62
256
100
AcDbBlockReference
2
UNIT_DISC
10
-100.0587
20
-11.2076
41
0.4
42
0.4
50
0
0
LWPOLYLINE
5
660
100
AcDbEntity
8
F_Cu_____________
62
256
100
AcDbPolyline
90
2
70
0
43
0.4
10
-100.0587
20
-11.2076
10
-100.1
20
-11.0429
0
INSERT
5
661
100
AcDbEntity
8
F_Cu_____________
62
256
100
AcDbBlockReference
2
UNIT_DISC
10
-100.1
20
-11.0429
41
0.4
42
0.4
50
0
0
INSERT
5
662
100
AcDbEntity
8
F_Cu_____________
62
256
100
AcDbBlockReference
2
UNIT_DISC
10
-100.1
20
-11.0429
41
0.4
42
0.4
50
0
0
LWPOLYLINE
5
663
100
AcDbEntity
8
F_Cu_____________
62
256
100
AcDbPolyline
90
2
70
0
43
0.4
10
-100.1
20
-11.0429
10
-100.6876
20
-9.1842
0
INSERT
5
664
100
AcDbEntity
8
F_Cu_____________
62
256
100
AcDbBlockReference
2
UNIT_DISC
10
-100.6876
20
-9.1842
41
0.4
42
0.4
50
0
0
INSERT
5
665
100
AcDbEntity
8
F_Cu_____________
62
256
100
AcDbBlockReference
2
UNIT_DISC
10
-100.6876
20
-9.1842
41
0.4
42
0.4
50
0
0
LWPOLYLINE
5
666
100
AcDbEntity
8
F_Cu_____________
62
256
100
AcDbPolyline
90
2
70
0
43
0.4
10
-100.6876
20
-9.1842
10
-100.9683
20
-8.5069
0
INSERT
5
667
100
AcDbEntity
8
F_Cu_____________
62
256
100
AcDbBlockReference
2
UNIT_DISC
10
-100.9683
20
-8.5069
41
0.4
42
0.4
50
0
0
INSERT
5
668
100
AcDbEntity
8
F_Cu_____________
62
256
100
AcDbBlockReference
2
UNIT_DISC
10
-100.9683
20
-8.5069
41
0.4
42
0.4
50
0
0
LWPOLYLINE
5
669
100
AcDbEntity
8
F_Cu_____________
62
256
100
AcDbPolyline
90
2
70
0
43
0.4
10
-100.9683
20
-8.5069
10
-100.9797
20
-8.4838
0
INSERT
5
670
100
AcDbEntity
8
F_Cu_____________
62
256
100
AcDbBlockReference
2
UNIT_DISC
10
-100.9797
20
-8.4838
41
0.4
42
0.4
50
0
0
INSERT
5
671
100
AcDbEntity
8
F_Cu_____________
62
256
100
AcDbBlockReference
2
UNIT_DISC
10
-100.9797
20
-8.4838
41
0.4
42
0.4
50
0
0
LWPOLYLINE
5
672
100
AcDbEntity
8
F_Cu_____________
62
256
100
AcDbPolyline
90
2
70
0
43
0.4
10
-100.9797
20
-8.4838
10
-105.5675
20
-0.3393
0
INSERT
5
673
100
AcDbEntity
8
F_Cu_____________
62
256
100
AcDbBlockReference
2
UNIT_DISC
10
-105.5675
20
-0.3393
41
0.4
42
0.4
50
0
0
INSERT
5
674
100
AcDbEntity
8
F_Cu_____________
62
256
100
AcDbBlockReference
2
UNIT_DISC
10
-105.5675
20
-0.3393
41
0.4
42
0.4
50
0
0
LWPOLYLINE
5
675
100
AcDbEntity
8
F_Cu_____________
62
256
100
AcDbPolyline
90
2
70
0
43
0.4
10
-105.5675
20
-0.3393
10
-105.7195
20
0.0277
0
INSERT
5
676
100
AcDbEntity
8
F_Cu_____________
62
256
100
AcDbBlockReference
2
UNIT_DISC
10
-105.7195
20
0.0277
41
0.4
42
0.4
50
0
0
INSERT
5
677
100
AcDbEntity
8
F_Cu_____________
62
256
100
AcDbBlockReference
2
UNIT_DISC
10
-105.7195
20
0.0277
41
0.4
42
0.4
50
0
0
LWPOLYLINE
5
678
100
AcDbEntity
8
F_Cu_____________
62
256
100
AcDbPolyline
90
2
70
0
43
0.4
10
-105.7195
20
0.0277
10
-105.7195
20
1.4821
0
INSERT
5
679
100
AcDbEntity
8
F_Cu_____________
62
256
100
AcDbBlockReference
2
UNIT_DISC
10
-105.7195
20
1.4821
41
0.4
42
0.4
50
0
0
INSERT
5
680
100
AcDbEntity
8
F_Cu_____________
62
256
100
AcDbBlockReference
2
UNIT_DISC
10
-105.7195
20
1.4821
41
0.4
42
0.4
50
0
0
LWPOLYLINE
5
681
100
AcDbEntity
8
F_Cu_____________
62
256
100
AcDbPolyline
90
2
70
0
43
0.4
10
-105.7195
20
1.4821
10
-105.5675
20
1.8491
0
INSERT
5
682
100
AcDbEntity
8
F_Cu_____________
62
256
100
AcDbBlockReference
2
UNIT_DISC
10
-105.5675
20
1.8491
41
0.4
42
0.4
50
0
0
INSERT
5
683
100
AcDbEntity
8
F_Cu_____________
62
256
100
AcDbBlockReference
2
UNIT_DISC
10
-105.5675
20
1.8491
41
0.4
42
0.4
50
0
0
LWPOLYLINE
5
684
100
AcDbEntity
8
F_Cu_____________
62
256
100
AcDbPolyline
90
2
70
0
43
0.4
10
-105.5675
20
1.8491
10
-95.5512
20
19.3346
0
INSERT
5
685
100
AcDbEntity
8
F_Cu_____________
62
256
100
AcDbBlockReference
2
UNIT_DISC
10
-95.5512
20
19.3346
41
0.4
42
0.4
50
0
0
INSERT
5
686
100
AcDbEntity
8
F_Cu_____________
62
256
100
AcDbBlockReference
2
UNIT_DISC
10
-103.449
20
0.7549
41
0.4
42
0.4
50
0
0
LWPOLYLINE
5
687
100
AcDbEntity
8
F_Cu_____________
62
256
100
AcDbPolyline
90
2
70
0
43
0.4
10
-103.449
20
0.7549
10
-99.5476
20
-8.7988
0
INSERT
5
688
100
AcDbEntity
8
F_Cu_____________
62
256
100
AcDbBlockReference
2
UNIT_DISC
10
-99.5476
20
-8.7988
41
0.4
42
0.4
50
0
0
INSERT
5
689
100
AcDbEntity
8
F_Cu_____________
62
256
100
AcDbBlockReference
2
UNIT_DISC
10
-99.5476
20
-8.7988
41
0.4
42
0.4
50
0
0
LWPOLYLINE
5
690
100
AcDbEntity
8
F_Cu_____________
62
256
100
AcDbPolyline
90
2
70
0
43
0.4
10
-99.5476
20
-8.7988
10
-99.5423
20
-8.815
0
INSERT
5
691
100
AcDbEntity
8
F_Cu_____________
62
256
100
AcDbBlockReference
2
UNIT_DISC
10
-99.5423
20
-8.815
41
0.4
42
0.4
50
0
0
INSERT
5
692
100
AcDbEntity
8
F_Cu_____________
62
256
100
AcDbBlockReference
2
UNIT_DISC
10
-99.5423
20
-8.815
41
0.4
42
0.4
50
0
0
LWPOLYLINE
5
693
100
AcDbEntity
8
F_Cu_____________
62
256
100
AcDbPolyline
90
2
70
0
43
0.4
10
-99.5423
20
-8.815
10
-98.9572
20
-10.665
0
INSERT
5
694
100
AcDbEntity
8
F_Cu_____________
62
256
100
AcDbBlockReference
2
UNIT_DISC
10
-98.9572
20
-10.665
41
0.4
42
0.4
50
0
0
INSERT
5
695
100
AcDbEntity
8
F_Cu_____________
62
256
100
AcDbBlockReference
2
UNIT_DISC
10
-98.9572
20
-10.665
41
0.4
42
0.4
50
0
0
LWPOLYLINE
5
696
100
AcDbEntity
8
F_Cu_____________
62
256
100
AcDbPolyline
90
2
70
0
43
0.4
10
-98.9572
20
-10.665
10
-98.8582
20
-11.0592
0
INSERT
5
697
100
AcDbEntity
8
F_Cu_____________
62
256
100
AcDbBlockReference
2
UNIT_DISC
10
-98.8582
20
-11.0592
41
0.4
42
0.4
50
0
0
INSERT
5
698
100
AcDbEntity
8
F_Cu_____________
62
256
100
AcDbBlockReference
2
UNIT_DISC
10
-98.8582
20
-11.0592
41
0.4
42
0.4
50
0
0
LWPOLYLINE
5
699
100
AcDbEntity
8
F_Cu_____________
62
256
100
AcDbPolyline
90
2
70
0
43
0.4
10
-98.8582
20
-11.0592
10
-98.8528
20
-11.1078
0
INSERT
5
700
100
AcDbEntity
8
F_Cu_____________
62
256
100
AcDbBlockReference
2
UNIT_DISC
10
-98.8528
20
-11.1078
41
0.4
42
0.4
50
0
0
INSERT
5
701
100
AcDbEntity
8
F_Cu_____________
62
256
100
AcDbBlockReference
2
UNIT_DISC
10
-98.8528
20
-11.1078
41
0.4
42
0.4
50
0
0
LWPOLYLINE
5
702
100
AcDbEntity
8
F_Cu_____________
62
256
100
AcDbPolyline
90
2
70
0
43
0.4
10
-98.8528
20
-11.1078
10
-98.8475
20
-11.1565
0
INSERT
5
703
100
AcDbEntity
8
F_Cu_____________
62
256
100
AcDbBlockReference
2
UNIT_DISC
10
-98.8475
20
-11.1565
41
0.4
42
0.4
50
0
0
INSERT
5
704
100
AcDbEntity
8
F_Cu_____________
62
256
100
AcDbBlockReference
2
UNIT_DISC
10
-98.8475
20
-11.1565
41
0.4
42
0.4
50
0
0
LWPOLYLINE
5
705
100
AcDbEntity
8
F_Cu_____________
62
256
100
AcDbPolyline
90
2
70
0
43
0.4
10
-98.8475
20
-11.1565
10
-98.8475
20
-13.2309
0
INSERT
5
706
100
AcDbEntity
8
F_Cu_____________
62
256
100
AcDbBlockReference
2
UNIT_DISC
10
-98.8475
20
-13.2309
41
0.4
42
0.4
50
0
0
INSERT
5
707
100
AcDbEntity
8
F_Cu_____________
62
256
100
AcDbBlockReference
2
UNIT_DISC
10
-98.8475
20
-13.2309
41
0.4
42
0.4
50
0
0
LWPOLYLINE
5
708
100
AcDbEntity
8
F_Cu_____________
62
256
100
AcDbPolyline
90
2
70
0
43
0.4
10
-98.8475
20
-13.2309
10
-98.8649
20
-13.4302
0
INSERT
5
709
100
AcDbEntity
8
F_Cu_____________
62
256
100
AcDbBlockReference
2
UNIT_DISC
10
-98.8649
20
-13.4302
41
0.4
42
0.4
50
0
0
INSERT
5
710
100
AcDbEntity
8
F_Cu_____________
62
256
100
AcDbBlockReference
2
UNIT_DISC
10
-98.8649
20
-13.4302
41
0.4
42
0.4
50
0
0
LWPOLYLINE
5
711
100
AcDbEntity
8
F_Cu_____________
62
256
100
AcDbPolyline
90
2
70
0
43
0.4
10
-98.8649
20
-13.4302
10
-98.9215
20
-14.0776
0
INSERT
5
712
100
AcDbEntity
8
F_Cu_____________
62
256
100
AcDbBlockReference
2
UNIT_DISC
10
-98.9215
20
-14.0776
41
0.4
42
0.4
50
0
0
INSERT
5
713
100
AcDbEntity
8
F_Cu_____________
62
256
100
AcDbBlockReference
2
UNIT_DISC
10
-98.9215
20
-14.0776
41
0.4
42
0.4
50
0
0
LWPOLYLINE
5
714
100
AcDbEntity
8
F_Cu_____________
62
256
100
AcDbPolyline
90
2
70
0
43
0.4
10
-98.9215
20
-14.0776
10
-98.939
20
-14.2769
0
INSERT
5
715
100
AcDbEntity
8
F_Cu_____________
62
256
100
AcDbBlockReference
2
UNIT_DISC
10
-98.939
20
-14.2769
41
0.4
42
0.4
50
0
0
INSERT
5
716
100
AcDbEntity
8
F_Cu_____________
62
256
100
AcDbBlockReference
2
UNIT_DISC
10
-98.939
20
-14.2769
41
0.4
42
0.4
50
0
0
LWPOLYLINE
5
717
100
AcDbEntity
8
F_Cu_____________
62
256
100
AcDbPolyline
90
2
70
0
43
0.4
10
-98.939
20
-14.2769
10
-99.038
20
-14.6711
0
INSERT
5
718
100
AcDbEntity
8
F_Cu_____________
62
256
100
AcDbBlockReference
2
UNIT_DISC
10
-99.038
20
-14.6711
41
0.4
42
0.4
50
0
0
INSERT
5
719
100
AcDbEntity
8
F_Cu_____________
62
256
100
AcDbBlockReference
2
UNIT_DISC
10
-99.038
20
-14.6711
41
0.4
42
0.4
50
0
0
LWPOLYLINE
5
720
100
AcDbEntity
8
F_Cu_____________
62
256
100
AcDbPolyline
90
2
70
0
43
0.4
10
-99.038
20
-14.6711
10
-99.0517
20
-14.7181
0
INSERT
5
721
100
AcDbEntity
8
F_Cu_____________
62
256
100
AcDbBlockReference
2
UNIT_DISC
10
-99.0517
20
-14.7181
41
0.4
42
0.4
50
0
0
INSERT
5
722
100
AcDbEntity
8
F_Cu_____________
62
256
100
AcDbBlockReference
2
UNIT_DISC
10
-99.0517
20
-14.7181
41
0.4
42
0.4
50
0
0
LWPOLYLINE
5
723
100
AcDbEntity
8
F_Cu_____________
62
256
100
AcDbPolyline
90
2
70
0
43
0.4
10
-99.0517
20
-14.7181
10
-99.3606
20
-15.4634
0
INSERT
5
724
100
AcDbEntity
8
F_Cu_____________
62
256
100
AcDbBlockReference
2
UNIT_DISC
10
-99.3606
20
-15.4634
41
0.4
42
0.4
50
0
0
INSERT
5
725
100
AcDbEntity
8
F_Cu_____________
62
256
100
AcDbBlockReference
2
UNIT_DISC
10
-99.3606
20
-15.4634
41
0.4
42
0.4
50
0
0
LWPOLYLINE
5
726
100
AcDbEntity
8
F_Cu_____________
62
256
100
AcDbPolyline
90
2
70
0
43
0.4
10
-99.3606
20
-15.4634
10
-103.4535
20
-23.8695
0
INSERT
5
727
100
AcDbEntity
8
F_Cu_____________
62
256
100
AcDbBlockReference
2
UNIT_DISC
10
-103.4535
20
-23.8695
41
0.4
42
0.4
50
0
0
INSERT
5
728
100
AcDbEntity
8
F_Cu_____________
62
256
100
AcDbBlockReference
2
UNIT_DISC
10
-103.4535
20
-23.8695
41
0.4
42
0.4
50
0
0
LWPOLYLINE
5
729
100
AcDbEntity
8
F_Cu_____________
62
256
100
AcDbPolyline
90
2
70
0
43
0.4
10
-103.4535
20
-23.8695
10
-103.4695
20
-23.8895
0
INSERT
5
730
100
AcDbEntity
8
F_Cu_____________
62
256
100
AcDbBlockReference
2
UNIT_DISC
10
-103.4695
20
-23.8895
41
0.4
42
0.4
50
0
0
INSERT
5
731
100
AcDbEntity
8
F_Cu_____________
62
256
100
AcDbBlockReference
2
UNIT_DISC
10
-103.4695
20
-23.8895
41
0.4
42
0.4
50
0
0
LWPOLYLINE
5
732
100
AcDbEntity
8
F_Cu_____________
62
256
100
AcDbPolyline
90
2
70
0
43
0.4
10
-103.4695
20
-23.8895
10
-103.5147
20
-23.9459
0
INSERT
5
733
100
AcDbEntity
8
F_Cu_____________
62
256
100
AcDbBlockReference
2
UNIT_DISC
10
-103.5147
20
-23.9459
41
0.4
42
0.4
50
0
0
INSERT
5
734
100
AcDbEntity
8
F_Cu_____________
62
256
100
AcDbBlockReference
2
UNIT_DISC
10
-103.5147
20
-23.9459
41
0.4
42
0.4
50
0
0
LWPOLYLINE
5
735
100
AcDbEntity
8
F_Cu_____________
62
256
100
AcDbPolyline
90
2
70
0
43
0.4
10
-103.5147
20
-23.9459
10
-104.1008
20
-24.532
0
INSERT
5
736
100
AcDbEntity
8
F_Cu_____________
62
256
100
AcDbBlockReference
2
UNIT_DISC
10
-104.1008
20
-24.532
41
0.4
42
0.4
50
0
0
INSERT
5
737
100
AcDbEntity
8
F_Cu_____________
62
256
100
AcDbBlockReference
2
UNIT_DISC
10
-104.1008
20
-24.532
41
0.4
42
0.4
50
0
0
LWPOLYLINE
5
738
100
AcDbEntity
8
F_Cu_____________
62
256
100
AcDbPolyline
90
2
70
0
43
0.4
10
-104.1008
20
-24.532
10
-104.5864
20
-24.7012
0
INSERT
5
739
100
AcDbEntity
8
F_Cu_____________
62
256
100
AcDbBlockReference
2
UNIT_DISC
10
-104.5864
20
-24.7012
41
0.4
42
0.4
50
0
0
INSERT
5
740
100
AcDbEntity
8
F_Cu_____________
62
256
100
AcDbBlockReference
2
UNIT_DISC
10
-104.5864
20
-24.7012
41
0.4
42
0.4
50
0
0
LWPOLYLINE
5
741
100
AcDbEntity
8
F_Cu_____________
62
256
100
AcDbPolyline
90
2
70
0
43
0.4
10
-104.5864
20
-24.7012
10
-104.5905
20
-24.7052
0
INSERT
5
742
100
AcDbEntity
8
F_Cu_____________
62
256
100
AcDbBlockReference
2
UNIT_DISC
10
-104.5905
20
-24.7052
41
0.4
42
0.4
50
0
0
INSERT
5
743
100
AcDbEntity
8
F_Cu_____________
62
256
100
AcDbBlockReference
2
UNIT_DISC
10
-104.5905
20
-24.7052
41
0.4
42
0.4
50
0
0
LWPOLYLINE
5
744
100
AcDbEntity
8
F_Cu_____________
62
256
100
AcDbPolyline
90
2
70
0
43
0.4
10
-104.5905
20
-24.7052
10
-105.5992
20
-25.2812
0
INSERT
5
745
100
AcDbEntity
8
F_Cu_____________
62
256
100
AcDbBlockReference
2
UNIT_DISC
10
-105.5992
20
-25.2812
41
0.4
42
0.4
50
0
0
INSERT
5
746
100
AcDbEntity
8
F_Cu_____________
62
256
100
AcDbBlockReference
2
UNIT_DISC
10
100.7088
20
-20.001
41
0.4
42
0.4
50
0
0
LWPOLYLINE
5
747
100
AcDbEntity
8
F_Cu_____________
62
256
100
AcDbPolyline
90
2
70
0
43
0.4
10
100.7088
20
-20.001
10
100.2148
20
-19.7924
0
INSERT
5
748
100
AcDbEntity
8
F_Cu_____________
62
256
100
AcDbBlockReference
2
UNIT_DISC
10
100.2148
20
-19.7924
41
0.4
42
0.4
50
0
0
INSERT
5
749
100
AcDbEntity
8
F_Cu_____________
62
256
100
AcDbBlockReference
2
UNIT_DISC
10
100.2148
20
-19.7924
41
0.4
42
0.4
50
0
0
LWPOLYLINE
5
750
100
AcDbEntity
8
F_Cu_____________
62
256
100
AcDbPolyline
90
2
70
0
43
0.4
10
100.2148
20
-19.7924
10
100.2076
20
-19.7924
0
INSERT
5
751
100
AcDbEntity
8
F_Cu_____________
62
256
100
AcDbBlockReference
2
UNIT_DISC
10
100.2076
20
-19.7924
41
0.4
42
0.4
50
0
0
INSERT
5
752
100
AcDbEntity
8
F_Cu_____________
62
256
100
AcDbBlockReference
2
UNIT_DISC
10
100.2076
20
-19.7924
41
0.4
42
0.4
50
0
0
LWPOLYLINE
5
753
100
AcDbEntity
8
F_Cu_____________
62
256
100
AcDbPolyline
90
2
70
0
43
0.4
10
100.2076
20
-19.7924
10
66.1099
20
-6.9073
0
INSERT
5
754
100
AcDbEntity
8
F_Cu_____________
62
256
100
AcDbBlockReference
2
UNIT_DISC
10
66.1099
20
-6.9073
41
0.4
42
0.4
50
0
0
INSERT
5
755
100
AcDbEntity
8
F_Cu_____________
62
256
100
AcDbBlockReference
2
UNIT_DISC
10
66.1099
20
-6.9073
41
0.4
42
0.4
50
0
0
LWPOLYLINE
5
756
100
AcDbEntity
8
F_Cu_____________
62
256
100
AcDbPolyline
90
2
70
0
43
0.4
10
66.1099
20
-6.9073
10
65.9924
20
-6.7898
0
INSERT
5
757
100
AcDbEntity
8
F_Cu_____________
62
256
100
AcDbBlockReference
2
UNIT_DISC
10
65.9924
20
-6.7898
41
0.4
42
0.4
50
0
0
INSERT
5
758
100
AcDbEntity
8
F_Cu_____________
62
256
100
AcDbBlockReference
2
UNIT_DISC
10
65.9924
20
-6.7898
41
0.4
42
0.4
50
0
0
LWPOLYLINE
5
759
100
AcDbEntity
8
F_Cu_____________
62
256
100
AcDbPolyline
90
2
70
0
43
0.4
10
65.9924
20
-6.7898
10
65.143
20
-5.9404
0
INSERT
5
760
100
AcDbEntity
8
F_Cu_____________
62
256
100
AcDbBlockReference
2
UNIT_DISC
10
65.143
20
-5.9404
41
0.4
42
0.4
50
0
0
INSERT
5
761
100
AcDbEntity
8
F_Cu_____________
62
256
100
AcDbBlockReference
2
UNIT_DISC
10
65.143
20
-5.9404
41
0.4
42
0.4
50
0
0
LWPOLYLINE
5
762
100
AcDbEntity
8
F_Cu_____________
62
256
100
AcDbPolyline
90
2
70
0
43
0.4
10
65.143
20
-5.9404
10
62.5082
20
-0.9919
0
INSERT
5
763
100
AcDbEntity
8
F_Cu_____________
62
256
100
AcDbBlockReference
2
UNIT_DISC
10
62.5082
20
-0.9919
41
0.4
42
0.4
50
0
0
INSERT
5
764
100
AcDbEntity
8
F_Cu_____________
62
256
100
AcDbBlockReference
2
UNIT_DISC
10
62.5082
20
-0.9919
41
0.4
42
0.4
50
0
0
LWPOLYLINE
5
765
100
AcDbEntity
8
F_Cu_____________
62
256
100
AcDbPolyline
90
2
70
0
43
0.4
10
62.5082
20
-0.9919
10
62.3904
20
-0.7955
0
INSERT
5
766
100
AcDbEntity
8
F_Cu_____________
62
256
100
AcDbBlockReference
2
UNIT_DISC
10
62.3904
20
-0.7955
41
0.4
42
0.4
50
0
0
INSERT
5
767
100
AcDbEntity
8
F_Cu_____________
62
256
100
AcDbBlockReference
2
UNIT_DISC
10
62.3904
20
-0.7955
41
0.4
42
0.4
50
0
0
LWPOLYLINE
5
768
100
AcDbEntity
8
F_Cu_____________
62
256
100
AcDbPolyline
90
2
70
0
43
0.4
10
62.3904
20
-0.7955
10
61.0877
20
0.5072
0
INSERT
5
769
100
AcDbEntity
8
F_Cu_____________
62
256
100
AcDbBlockReference
2
UNIT_DISC
10
61.0877
20
0.5072
41
0.4
42
0.4
50
0
0
INSERT
5
770
100
AcDbEntity
8
F_Cu_____________
62
256
100
AcDbBlockReference
2
UNIT_DISC
10
61.0877
20
0.5072
41
0.4
42
0.4
50
0
0
LWPOLYLINE
5
771
100
AcDbEntity
8
F_Cu_____________
62
256
100
AcDbPolyline
90
2
70
0
43
0.4
10
61.0877
20
0.5072
10
60.4449
20
0.955
0
INSERT
5
772
100
AcDbEntity
8
F_Cu_____________
62
256
100
AcDbBlockReference
2
UNIT_DISC
10
60.4449
20
0.955
41
0.4
42
0.4
50
0
0
INSERT
5
773
100
AcDbEntity
8
F_Cu_____________
62
256
100
AcDbBlockReference
2
UNIT_DISC
10
60.4449
20
0.955
41
0.4
42
0.4
50
0
0
LWPOLYLINE
5
774
100
AcDbEntity
8
F_Cu_____________
62
256
100
AcDbPolyline
90
2
70
0
43
0.4
10
60.4449
20
0.955
10
59.9932
20
1.1421
0
INSERT
5
775
100
AcDbEntity
8
F_Cu_____________
62
256
100
AcDbBlockReference
2
UNIT_DISC
10
59.9932
20
1.1421
41
0.4
42
0.4
50
0
0
INSERT
5
776
100
AcDbEntity
8
F_Cu_____________
62
256
100
AcDbBlockReference
2
UNIT_DISC
10
59.9932
20
1.1421
41
0.4
42
0.4
50
0
0
LWPOLYLINE
5
777
100
AcDbEntity
8
F_Cu_____________
62
256
100
AcDbPolyline
90
2
70
0
43
0.4
10
59.9932
20
1.1421
10
58.447
20
1.1421
0
INSERT
5
778
100
AcDbEntity
8
F_Cu_____________
62
256
100
AcDbBlockReference
2
UNIT_DISC
10
58.447
20
1.1421
41
0.4
42
0.4
50
0
0
INSERT
5
779
100
AcDbEntity
8
F_Cu_____________
62
256
100
AcDbBlockReference
2
UNIT_DISC
10
58.447
20
1.1421
41
0.4
42
0.4
50
0
0
LWPOLYLINE
5
780
100
AcDbEntity
8
F_Cu_____________
62
256
100
AcDbPolyline
90
2
70
0
43
0.4
10
58.447
20
1.1421
10
39.449
20
0.7549
0
INSERT
5
781
100
AcDbEntity
8
F_Cu_____________
62
256
100
AcDbBlockReference
2
UNIT_DISC
10
39.449
20
0.7549
41
0.4
42
0.4
50
0
0
INSERT
5
782
100
AcDbEntity
8
F_Cu_____________
62
256
100
AcDbBlockReference
2
UNIT_DISC
10
100.7088
20
-21.501
41
0.4
42
0.4
50
0
0
LWPOLYLINE
5
783
100
AcDbEntity
8
F_Cu_____________
62
256
100
AcDbPolyline
90
2
70
0
43
0.4
10
100.7088
20
-21.501
10
100.2081
20
-21.501
0
INSERT
5
784
100
AcDbEntity
8
F_Cu_____________
62
256
100
AcDbBlockReference
2
UNIT_DISC
10
100.2081
20
-21.501
41
0.4
42
0.4
50
0
0
INSERT
5
785
100
AcDbEntity
8
F_Cu_____________
62
256
100
AcDbBlockReference
2
UNIT_DISC
10
100.2081
20
-21.501
41
0.4
42
0.4
50
0
0
LWPOLYLINE
5
786
100
AcDbEntity
8
F_Cu_____________
62
256
100
AcDbPolyline
90
2
70
0
43
0.4
10
100.2081
20
-21.501
10
100.1356
20
-21.501
0
INSERT
5
787
100
AcDbEntity
8
F_Cu_____________
62
256
100
AcDbBlockReference
2
UNIT_DISC
10
100.1356
20
-21.501
41
0.4
42
0.4
50
0
0
INSERT
5
788
100
AcDbEntity
8
F_Cu_____________
62
256
100
AcDbBlockReference
2
UNIT_DISC
10
100.1356
20
-21.501
41
0.4
42
0.4
50
0
0
LWPOLYLINE
5
789
100
AcDbEntity
8
F_Cu_____________
62
256
100
AcDbPolyline
90
2
70
0
43
0.4
10
100.1356
20
-21.501
10
65.6386
20
-8.1078
0
INSERT
5
790
100
AcDbEntity
8
F_Cu_____________
62
256
100
AcDbBlockReference
2
UNIT_DISC
10
65.6386
20
-8.1078
41
0.4
42
0.4
50
0
0
INSERT
5
791
100
AcDbEntity
8
F_Cu_____________
62
256
100
AcDbBlockReference
2
UNIT_DISC
10
65.6386
20
-8.1078
41
0.4
42
0.4
50
0
0
LWPOLYLINE
5
792
100
AcDbEntity
8
F_Cu_____________
62
256
100
AcDbPolyline
90
2
70
0
43
0.4
10
65.6386
20
-8.1078
10
65.5912
20
-8.0882
0
INSERT
5
793
100
AcDbEntity
8
F_Cu_____________
62
256
100
AcDbBlockReference
2
UNIT_DISC
10
65.5912
20
-8.0882
41
0.4
42
0.4
50
0
0
INSERT
5
794
100
AcDbEntity
8
F_Cu_____________
62
256
100
AcDbBlockReference
2
UNIT_DISC
10
65.5912
20
-8.0882
41
0.4
42
0.4
50
0
0
LWPOLYLINE
5
795
100
AcDbEntity
8
F_Cu_____________
62
256
100
AcDbPolyline
90
2
70
0
43
0.4
10
65.5912
20
-8.0882
10
64.8115
20
-7.3085
0
INSERT
5
796
100
AcDbEntity
8
F_Cu_____________
62
256
100
AcDbBlockReference
2
UNIT_DISC
10
64.8115
20
-7.3085
41
0.4
42
0.4
50
0
0
INSERT
5
797
100
AcDbEntity
8
F_Cu_____________
62
256
100
AcDbBlockReference
2
UNIT_DISC
10
64.8115
20
-7.3085
41
0.4
42
0.4
50
0
0
LWPOLYLINE
5
798
100
AcDbEntity
8
F_Cu_____________
62
256
100
AcDbPolyline
90
2
70
0
43
0.4
10
64.8115
20
-7.3085
10
63.9621
20
-6.4591
0
INSERT
5
799
100
AcDbEntity
8
F_Cu_____________
62
256
100
AcDbBlockReference
2
UNIT_DISC
10
63.9621
20
-6.4591
41
0.4
42
0.4
50
0
0
INSERT
5
800
100
AcDbEntity
8
F_Cu_____________
62
256
100
AcDbBlockReference
2
UNIT_DISC
10
63.9621
20
-6.4591
41
0.4
42
0.4
50
0
0
LWPOLYLINE
5
801
100
AcDbEntity
8
F_Cu_____________
62
256
100
AcDbPolyline
90
2
70
0
43
0.4
10
63.9621
20
-6.4591
10
61.4345
20
-1.5378
0
INSERT
5
802
100
AcDbEntity
8
F_Cu_____________
62
256
100
AcDbBlockReference
2
UNIT_DISC
10
61.4345
20
-1.5378
41
0.4
42
0.4
50
0
0
INSERT
5
803
100
AcDbEntity
8
F_Cu_____________
62
256
100
AcDbBlockReference
2
UNIT_DISC
10
61.4345
20
-1.5378
41
0.4
42
0.4
50
0
0
LWPOLYLINE
5
804
100
AcDbEntity
8
F_Cu_____________
62
256
100
AcDbPolyline
90
2
70
0
43
0.4
10
61.4345
20
-1.5378
10
60.3454
20
-0.4487
0
INSERT
5
805
100
AcDbEntity
8
F_Cu_____________
62
256
100
AcDbBlockReference
2
UNIT_DISC
10
60.3454
20
-0.4487
41
0.4
42
0.4
50
0
0
INSERT
5
806
100
AcDbEntity
8
F_Cu_____________
62
256
100
AcDbBlockReference
2
UNIT_DISC
10
60.3454
20
-0.4487
41
0.4
42
0.4
50
0
0
LWPOLYLINE
5
807
100
AcDbEntity
8
F_Cu_____________
62
256
100
AcDbPolyline
90
2
70
0
43
0.4
10
60.3454
20
-0.4487
10
59.7648
20
-0.0627
0
INSERT
5
808
100
AcDbEntity
8
F_Cu_____________
62
256
100
AcDbBlockReference
2
UNIT_DISC
10
59.7648
20
-0.0627
41
0.4
42
0.4
50
0
0
INSERT
5
809
100
AcDbEntity
8
F_Cu_____________
62
256
100
AcDbBlockReference
2
UNIT_DISC
10
59.7648
20
-0.0627
41
0.4
42
0.4
50
0
0
LWPOLYLINE
5
810
100
AcDbEntity
8
F_Cu_____________
62
256
100
AcDbPolyline
90
2
70
0
43
0.4
10
59.7648
20
-0.0627
10
59.7544
20
-0.0584
0
INSERT
5
811
100
AcDbEntity
8
F_Cu_____________
62
256
100
AcDbBlockReference
2
UNIT_DISC
10
59.7544
20
-0.0584
41
0.4
42
0.4
50
0
0
INSERT
5
812
100
AcDbEntity
8
F_Cu_____________
62
256
100
AcDbBlockReference
2
UNIT_DISC
10
59.7544
20
-0.0584
41
0.4
42
0.4
50
0
0
LWPOLYLINE
5
813
100
AcDbEntity
8
F_Cu_____________
62
256
100
AcDbPolyline
90
2
70
0
43
0.4
10
59.7544
20
-0.0584
10
58.6858
20
-0.0584
0
INSERT
5
814
100
AcDbEntity
8
F_Cu_____________
62
256
100
AcDbBlockReference
2
UNIT_DISC
10
58.6858
20
-0.0584
41
0.4
42
0.4
50
0
0
INSERT
5
815
100
AcDbEntity
8
F_Cu_____________
62
256
100
AcDbBlockReference
2
UNIT_DISC
10
58.6858
20
-0.0584
41
0.4
42
0.4
50
0
0
LWPOLYLINE
5
816
100
AcDbEntity
8
F_Cu_____________
62
256
100
AcDbPolyline
90
2
70
0
43
0.4
10
58.6858
20
-0.0584
10
27.2908
20
-8.0879
0
INSERT
5
817
100
AcDbEntity
8
F_Cu_____________
62
256
100
AcDbBlockReference
2
UNIT_DISC
10
27.2908
20
-8.0879
41
0.4
42
0.4
50
0
0
INSERT
5
818
100
AcDbEntity
8
F_Cu_____________
62
256
100
AcDbBlockReference
2
UNIT_DISC
10
27.2908
20
-8.0879
41
0.4
42
0.4
50
0
0
LWPOLYLINE
5
819
100
AcDbEntity
8
F_Cu_____________
62
256
100
AcDbPolyline
90
2
70
0
43
0.4
10
27.2908
20
-8.0879
10
27.2804
20
-8.0922
0
INSERT
5
820
100
AcDbEntity
8
F_Cu_____________
62
256
100
AcDbBlockReference
2
UNIT_DISC
10
27.2804
20
-8.0922
41
0.4
42
0.4
50
0
0
INSERT
5
821
100
AcDbEntity
8
F_Cu_____________
62
256
100
AcDbBlockReference
2
UNIT_DISC
10
27.2804
20
-8.0922
41
0.4
42
0.4
50
0
0
LWPOLYLINE
5
822
100
AcDbEntity
8
F_Cu_____________
62
256
100
AcDbPolyline
90
2
70
0
43
0.4
10
27.2804
20
-8.0922
10
26.5289
20
-8.8437
0
INSERT
5
823
100
AcDbEntity
8
F_Cu_____________
62
256
100
AcDbBlockReference
2
UNIT_DISC
10
26.5289
20
-8.8437
41
0.4
42
0.4
50
0
0
INSERT
5
824
100
AcDbEntity
8
F_Cu_____________
62
256
100
AcDbBlockReference
2
UNIT_DISC
10
26.5289
20
-8.8437
41
0.4
42
0.4
50
0
0
LWPOLYLINE
5
825
100
AcDbEntity
8
F_Cu_____________
62
256
100
AcDbPolyline
90
2
70
0
43
0.4
10
26.5289
20
-8.8437
10
26.5246
20
-8.8541
0
INSERT
5
826
100
AcDbEntity
8
F_Cu_____________
62
256
100
AcDbBlockReference
2
UNIT_DISC
10
26.5246
20
-8.8541
41
0.4
42
0.4
50
0
0
INSERT
5
827
100
AcDbEntity
8
F_Cu_____________
62
256
100
AcDbBlockReference
2
UNIT_DISC
10
26.5246
20
-8.8541
41
0.4
42
0.4
50
0
0
LWPOLYLINE
5
828
100
AcDbEntity
8
F_Cu_____________
62
256
100
AcDbPolyline
90
2
70
0
43
0.4
10
26.5246
20
-8.8541
10
26.5246
20
-9.9227
0
INSERT
5
829
100
AcDbEntity
8
F_Cu_____________
62
256
100
AcDbBlockReference
2
UNIT_DISC
10
26.5246
20
-9.9227
41
0.4
42
0.4
50
0
0
INSERT
5
830
100
AcDbEntity
8
F_Cu_____________
62
256
100
AcDbBlockReference
2
UNIT_DISC
10
26.5246
20
-9.9227
41
0.4
42
0.4
50
0
0
LWPOLYLINE
5
831
100
AcDbEntity
8
F_Cu_____________
62
256
100
AcDbPolyline
90
2
70
0
43
0.4
10
26.5246
20
-9.9227
10
26.5289
20
-9.9331
0
INSERT
5
832
100
AcDbEntity
8
F_Cu_____________
62
256
100
AcDbBlockReference
2
UNIT_DISC
10
26.5289
20
-9.9331
41
0.4
42
0.4
50
0
0
INSERT
5
833
100
AcDbEntity
8
F_Cu_____________
62
256
100
AcDbBlockReference
2
UNIT_DISC
10
26.5289
20
-9.9331
41
0.4
42
0.4
50
0
0
LWPOLYLINE
5
834
100
AcDbEntity
8
F_Cu_____________
62
256
100
AcDbPolyline
90
2
70
0
43
0.4
10
26.5289
20
-9.9331
10
26.9322
20
-10.7944
0
INSERT
5
835
100
AcDbEntity
8
F_Cu_____________
62
256
100
AcDbBlockReference
2
UNIT_DISC
10
26.9322
20
-10.7944
41
0.4
42
0.4
50
0
0
INSERT
5
836
100
AcDbEntity
8
F_Cu_____________
62
256
100
AcDbBlockReference
2
UNIT_DISC
10
26.9322
20
-10.7944
41
0.4
42
0.4
50
0
0
LWPOLYLINE
5
837
100
AcDbEntity
8
F_Cu_____________
62
256
100
AcDbPolyline
90
2
70
0
43
0.4
10
26.9322
20
-10.7944
10
32.1637
20
-20.3765
0
INSERT
5
838
100
AcDbEntity
8
F_Cu_____________
62
256
100
AcDbBlockReference
2
UNIT_DISC
10
32.1637
20
-20.3765
41
0.4
42
0.4
50
0
0
INSERT
5
839
100
AcDbEntity
8
F_Cu_____________
62
256
100
AcDbBlockReference
2
UNIT_DISC
10
52.9345
20
-13.7259
41
0.4
42
0.4
50
0
0
LWPOLYLINE
5
840
100
AcDbEntity
8
F_Cu_____________
62
256
100
AcDbPolyline
90
2
70
0
43
0.4
10
52.9345
20
-13.7259
10
53.8835
20
-13.0851
0
INSERT
5
841
100
AcDbEntity
8
F_Cu_____________
62
256
100
AcDbBlockReference
2
UNIT_DISC
10
53.8835
20
-13.0851
41
0.4
42
0.4
50
0
0
INSERT
5
842
100
AcDbEntity
8
F_Cu_____________
62
256
100
AcDbBlockReference
2
UNIT_DISC
10
53.8835
20
-13.0851
41
0.4
42
0.4
50
0
0
LWPOLYLINE
5
843
100
AcDbEntity
8
F_Cu_____________
62
256
100
AcDbPolyline
90
2
70
0
43
0.4
10
53.8835
20
-13.0851
10
53.8902
20
-13.0851
0
INSERT
5
844
100
AcDbEntity
8
F_Cu_____________
62
256
100
AcDbBlockReference
2
UNIT_DISC
10
53.8902
20
-13.0851
41
0.4
42
0.4
50
0
0
INSERT
5
845
100
AcDbEntity
8
F_Cu_____________
62
256
100
AcDbBlockReference
2
UNIT_DISC
10
53.8902
20
-13.0851
41
0.4
42
0.4
50
0
0
LWPOLYLINE
5
846
100
AcDbEntity
8
F_Cu_____________
62
256
100
AcDbPolyline
90
2
70
0
43
0.4
10
53.8902
20
-13.0851
10
53.9178
20
-13.0575
0
INSERT
5
847
100
AcDbEntity
8
F_Cu_____________
62
256
100
AcDbBlockReference
2
UNIT_DISC
10
53.9178
20
-13.0575
41
0.4
42
0.4
50
0
0
INSERT
5
848
100
AcDbEntity
8
F_Cu_____________
62
256
100
AcDbBlockReference
2
UNIT_DISC
10
53.9178
20
-13.0575
41
0.4
42
0.4
50
0
0
LWPOLYLINE
5
849
100
AcDbEntity
8
F_Cu_____________
62
256
100
AcDbPolyline
90
2
70
0
43
0.4
10
53.9178
20
-13.0575
10
54.7805
20
-12.1574
0
INSERT
5
850
100
AcDbEntity
8
F_Cu_____________
62
256
100
AcDbBlockReference
2
UNIT_DISC
10
54.7805
20
-12.1574
41
0.4
42
0.4
50
0
0
INSERT
5
851
100
AcDbEntity
8
F_Cu_____________
62
256
100
AcDbBlockReference
2
UNIT_DISC
10
54.7805
20
-12.1574
41
0.4
42
0.4
50
0
0
LWPOLYLINE
5
852
100
AcDbEntity
8
F_Cu_____________
62
256
100
AcDbPolyline
90
2
70
0
43
0.4
10
54.7805
20
-12.1574
10
59.1206
20
-2.7626
0
INSERT
5
853
100
AcDbEntity
8
F_Cu_____________
62
256
100
AcDbBlockReference
2
UNIT_DISC
10
59.1206
20
-2.7626
41
0.4
42
0.4
50
0
0
INSERT
5
854
100
AcDbEntity
8
F_Cu_____________
62
256
100
AcDbBlockReference
2
UNIT_DISC
10
53.1116
20
-16.2597
41
0.4
42
0.4
50
0
0
LWPOLYLINE
5
855
100
AcDbEntity
8
F_Cu_____________
62
256
100
AcDbPolyline
90
2
70
0
43
0.4
10
53.1116
20
-16.2597
10
54.0606
20
-15.6189
0
INSERT
5
856
100
AcDbEntity
8
F_Cu_____________
62
256
100
AcDbBlockReference
2
UNIT_DISC
10
54.0606
20
-15.6189
41
0.4
42
0.4
50
0
0
INSERT
5
857
100
AcDbEntity
8
F_Cu_____________
62
256
100
AcDbBlockReference
2
UNIT_DISC
10
54.0606
20
-15.6189
41
0.4
42
0.4
50
0
0
LWPOLYLINE
5
858
100
AcDbEntity
8
F_Cu_____________
62
256
100
AcDbPolyline
90
2
70
0
43
0.4
10
54.0606
20
-15.6189
10
54.0673
20
-15.6189
0
INSERT
5
859
100
AcDbEntity
8
F_Cu_____________
62
256
100
AcDbBlockReference
2
UNIT_DISC
10
54.0673
20
-15.6189
41
0.4
42
0.4
50
0
0
INSERT
5
860
100
AcDbEntity
8
F_Cu_____________
62
256
100
AcDbBlockReference
2
UNIT_DISC
10
54.0673
20
-15.6189
41
0.4
42
0.4
50
0
0
LWPOLYLINE
5
861
100
AcDbEntity
8
F_Cu_____________
62
256
100
AcDbPolyline
90
2
70
0
43
0.4
10
54.0673
20
-15.6189
10
54.0949
20
-15.5913
0
INSERT
5
862
100
AcDbEntity
8
F_Cu_____________
62
256
100
AcDbBlockReference
2
UNIT_DISC
10
54.0949
20
-15.5913
41
0.4
42
0.4
50
0
0
INSERT
5
863
100
AcDbEntity
8
F_Cu_____________
62
256
100
AcDbBlockReference
2
UNIT_DISC
10
54.0949
20
-15.5913
41
0.4
42
0.4
50
0
0
LWPOLYLINE
5
864
100
AcDbEntity
8
F_Cu_____________
62
256
100
AcDbPolyline
90
2
70
0
43
0.4
10
54.0949
20
-15.5913
10
54.9577
20
-14.6913
0
INSERT
5
865
100
AcDbEntity
8
F_Cu_____________
62
256
100
AcDbBlockReference
2
UNIT_DISC
10
54.9577
20
-14.6913
41
0.4
42
0.4
50
0
0
INSERT
5
866
100
AcDbEntity
8
F_Cu_____________
62
256
100
AcDbBlockReference
2
UNIT_DISC
10
54.9577
20
-14.6913
41
0.4
42
0.4
50
0
0
LWPOLYLINE
5
867
100
AcDbEntity
8
F_Cu_____________
62
256
100
AcDbPolyline
90
2
70
0
43
0.4
10
54.9577
20
-14.6913
10
60.4168
20
-3.3073
0
INSERT
5
868
100
AcDbEntity
8
F_Cu_____________
62
256
100
AcDbBlockReference
2
UNIT_DISC
10
60.4168
20
-3.3073
41
0.4
42
0.4
50
0
0
INSERT
5
869
100
AcDbEntity
8
F_Cu_____________
62
256
100
AcDbBlockReference
2
UNIT_DISC
10
60.4168
20
-3.3073
41
0.4
42
0.4
50
0
0
LWPOLYLINE
5
870
100
AcDbEntity
8
F_Cu_____________
62
256
100
AcDbPolyline
90
2
70
0
43
0.4
10
60.4168
20
-3.3073
10
60.4211
20
-3.2969
0
INSERT
5
871
100
AcDbEntity
8
F_Cu_____________
62
256
100
AcDbBlockReference
2
UNIT_DISC
10
60.4211
20
-3.2969
41
0.4
42
0.4
50
0
0
INSERT
5
872
100
AcDbEntity
8
F_Cu_____________
62
256
100
AcDbBlockReference
2
UNIT_DISC
10
60.4211
20
-3.2969
41
0.4
42
0.4
50
0
0
LWPOLYLINE
5
873
100
AcDbEntity
8
F_Cu_____________
62
256
100
AcDbPolyline
90
2
70
0
43
0.4
10
60.4211
20
-3.2969
10
60.4211
20
-2.2283
0
INSERT
5
874
100
AcDbEntity
8
F_Cu_____________
62
256
100
AcDbBlockReference
2
UNIT_DISC
10
60.4211
20
-2.2283
41
0.4
42
0.4
50
0
0
INSERT
5
875
100
AcDbEntity
8
F_Cu_____________
62
256
100
AcDbBlockReference
2
UNIT_DISC
10
60.4211
20
-2.2283
41
0.4
42
0.4
50
0
0
LWPOLYLINE
5
876
100
AcDbEntity
8
F_Cu_____________
62
256
100
AcDbPolyline
90
2
70
0
43
0.4
10
60.4211
20
-2.2283
10
60.4168
20
-2.2179
0
INSERT
5
877
100
AcDbEntity
8
F_Cu_____________
62
256
100
AcDbBlockReference
2
UNIT_DISC
10
60.4168
20
-2.2179
41
0.4
42
0.4
50
0
0
INSERT
5
878
100
AcDbEntity
8
F_Cu_____________
62
256
100
AcDbBlockReference
2
UNIT_DISC
10
60.4168
20
-2.2179
41
0.4
42
0.4
50
0
0
LWPOLYLINE
5
879
100
AcDbEntity
8
F_Cu_____________
62
256
100
AcDbPolyline
90
2
70
0
43
0.4
10
60.4168
20
-2.2179
10
59.6653
20
-1.4664
0
INSERT
5
880
100
AcDbEntity
8
F_Cu_____________
62
256
100
AcDbBlockReference
2
UNIT_DISC
10
59.6653
20
-1.4664
41
0.4
42
0.4
50
0
0
INSERT
5
881
100
AcDbEntity
8
F_Cu_____________
62
256
100
AcDbBlockReference
2
UNIT_DISC
10
59.6653
20
-1.4664
41
0.4
42
0.4
50
0
0
LWPOLYLINE
5
882
100
AcDbEntity
8
F_Cu_____________
62
256
100
AcDbPolyline
90
2
70
0
43
0.4
10
59.6653
20
-1.4664
10
59.6549
20
-1.4621
0
INSERT
5
883
100
AcDbEntity
8
F_Cu_____________
62
256
100
AcDbBlockReference
2
UNIT_DISC
10
59.6549
20
-1.4621
41
0.4
42
0.4
50
0
0
INSERT
5
884
100
AcDbEntity
8
F_Cu_____________
62
256
100
AcDbBlockReference
2
UNIT_DISC
10
59.6549
20
-1.4621
41
0.4
42
0.4
50
0
0
LWPOLYLINE
5
885
100
AcDbEntity
8
F_Cu_____________
62
256
100
AcDbPolyline
90
2
70
0
43
0.4
10
59.6549
20
-1.4621
10
59.2201
20
-1.3589
0
INSERT
5
886
100
AcDbEntity
8
F_Cu_____________
62
256
100
AcDbBlockReference
2
UNIT_DISC
10
59.2201
20
-1.3589
41
0.4
42
0.4
50
0
0
INSERT
5
887
100
AcDbEntity
8
F_Cu_____________
62
256
100
AcDbBlockReference
2
UNIT_DISC
10
34.7987
20
-14.994
41
0.4
42
0.4
50
0
0
LWPOLYLINE
5
888
100
AcDbEntity
8
F_Cu_____________
62
256
100
AcDbPolyline
90
2
70
0
43
0.4
10
34.7987
20
-14.994
10
33.7697
20
-14.4915
0
INSERT
5
889
100
AcDbEntity
8
F_Cu_____________
62
256
100
AcDbBlockReference
2
UNIT_DISC
10
33.7697
20
-14.4915
41
0.4
42
0.4
50
0
0
INSERT
5
890
100
AcDbEntity
8
F_Cu_____________
62
256
100
AcDbBlockReference
2
UNIT_DISC
10
33.7697
20
-14.4915
41
0.4
42
0.4
50
0
0
LWPOLYLINE
5
891
100
AcDbEntity
8
F_Cu_____________
62
256
100
AcDbPolyline
90
2
70
0
43
0.4
10
33.7697
20
-14.4915
10
33.7559
20
-14.4915
0
INSERT
5
892
100
AcDbEntity
8
F_Cu_____________
62
256
100
AcDbBlockReference
2
UNIT_DISC
10
33.7559
20
-14.4915
41
0.4
42
0.4
50
0
0
INSERT
5
893
100
AcDbEntity
8
F_Cu_____________
62
256
100
AcDbBlockReference
2
UNIT_DISC
10
33.7559
20
-14.4915
41
0.4
42
0.4
50
0
0
LWPOLYLINE
5
894
100
AcDbEntity
8
F_Cu_____________
62
256
100
AcDbPolyline
90
2
70
0
43
0.4
10
33.7559
20
-14.4915
10
33.2711
20
-14.1487
0
INSERT
5
895
100
AcDbEntity
8
F_Cu_____________
62
256
100
AcDbBlockReference
2
UNIT_DISC
10
33.2711
20
-14.1487
41
0.4
42
0.4
50
0
0
INSERT
5
896
100
AcDbEntity
8
F_Cu_____________
62
256
100
AcDbBlockReference
2
UNIT_DISC
10
33.2711
20
-14.1487
41
0.4
42
0.4
50
0
0
LWPOLYLINE
5
897
100
AcDbEntity
8
F_Cu_____________
62
256
100
AcDbPolyline
90
2
70
0
43
0.4
10
33.2711
20
-14.1487
10
32.685
20
-13.5626
0
INSERT
5
898
100
AcDbEntity
8
F_Cu_____________
62
256
100
AcDbBlockReference
2
UNIT_DISC
10
32.685
20
-13.5626
41
0.4
42
0.4
50
0
0
INSERT
5
899
100
AcDbEntity
8
F_Cu_____________
62
256
100
AcDbBlockReference
2
UNIT_DISC
10
32.685
20
-13.5626
41
0.4
42
0.4
50
0
0
LWPOLYLINE
5
900
100
AcDbEntity
8
F_Cu_____________
62
256
100
AcDbPolyline
90
2
70
0
43
0.4
10
32.685
20
-13.5626
10
29.2461
20
-9.5696
0
INSERT
5
901
100
AcDbEntity
8
F_Cu_____________
62
256
100
AcDbBlockReference
2
UNIT_DISC
10
29.2461
20
-9.5696
41
0.4
42
0.4
50
0
0
INSERT
5
902
100
AcDbEntity
8
F_Cu_____________
62
256
100
AcDbBlockReference
2
UNIT_DISC
10
34.9759
20
-17.5278
41
0.4
42
0.4
50
0
0
LWPOLYLINE
5
903
100
AcDbEntity
8
F_Cu_____________
62
256
100
AcDbPolyline
90
2
70
0
43
0.4
10
34.9759
20
-17.5278
10
33.9469
20
-17.0253
0
INSERT
5
904
100
AcDbEntity
8
F_Cu_____________
62
256
100
AcDbBlockReference
2
UNIT_DISC
10
33.9469
20
-17.0253
41
0.4
42
0.4
50
0
0
INSERT
5
905
100
AcDbEntity
8
F_Cu_____________
62
256
100
AcDbBlockReference
2
UNIT_DISC
10
33.9469
20
-17.0253
41
0.4
42
0.4
50
0
0
LWPOLYLINE
5
906
100
AcDbEntity
8
F_Cu_____________
62
256
100
AcDbPolyline
90
2
70
0
43
0.4
10
33.9469
20
-17.0253
10
33.9331
20
-17.0253
0
INSERT
5
907
100
AcDbEntity
8
F_Cu_____________
62
256
100
AcDbBlockReference
2
UNIT_DISC
10
33.9331
20
-17.0253
41
0.4
42
0.4
50
0
0
INSERT
5
908
100
AcDbEntity
8
F_Cu_____________
62
256
100
AcDbBlockReference
2
UNIT_DISC
10
33.9331
20
-17.0253
41
0.4
42
0.4
50
0
0
LWPOLYLINE
5
909
100
AcDbEntity
8
F_Cu_____________
62
256
100
AcDbPolyline
90
2
70
0
43
0.4
10
33.9331
20
-17.0253
10
33.4482
20
-16.6825
0
INSERT
5
910
100
AcDbEntity
8
F_Cu_____________
62
256
100
AcDbBlockReference
2
UNIT_DISC
10
33.4482
20
-16.6825
41
0.4
42
0.4
50
0
0
INSERT
5
911
100
AcDbEntity
8
F_Cu_____________
62
256
100
AcDbBlockReference
2
UNIT_DISC
10
33.4482
20
-16.6825
41
0.4
42
0.4
50
0
0
LWPOLYLINE
5
912
100
AcDbEntity
8
F_Cu_____________
62
256
100
AcDbPolyline
90
2
70
0
43
0.4
10
33.4482
20
-16.6825
10
32.8621
20
-16.0964
0
INSERT
5
913
100
AcDbEntity
8
F_Cu_____________
62
256
100
AcDbBlockReference
2
UNIT_DISC
10
32.8621
20
-16.0964
41
0.4
42
0.4
50
0
0
INSERT
5
914
100
AcDbEntity
8
F_Cu_____________
62
256
100
AcDbBlockReference
2
UNIT_DISC
10
32.8621
20
-16.0964
41
0.4
42
0.4
50
0
0
LWPOLYLINE
5
915
100
AcDbEntity
8
F_Cu_____________
62
256
100
AcDbPolyline
90
2
70
0
43
0.4
10
32.8621
20
-16.0964
10
27.9499
20
-10.1143
0
INSERT
5
916
100
AcDbEntity
8
F_Cu_____________
62
256
100
AcDbBlockReference
2
UNIT_DISC
10
27.9499
20
-10.1143
41
0.4
42
0.4
50
0
0
INSERT
5
917
100
AcDbEntity
8
F_Cu_____________
62
256
100
AcDbBlockReference
2
UNIT_DISC
10
27.9499
20
-10.1143
41
0.4
42
0.4
50
0
0
LWPOLYLINE
5
918
100
AcDbEntity
8
F_Cu_____________
62
256
100
AcDbPolyline
90
2
70
0
43
0.4
10
27.9499
20
-10.1143
10
27.9456
20
-10.1039
0
INSERT
5
919
100
AcDbEntity
8
F_Cu_____________
62
256
100
AcDbBlockReference
2
UNIT_DISC
10
27.9456
20
-10.1039
41
0.4
42
0.4
50
0
0
INSERT
5
920
100
AcDbEntity
8
F_Cu_____________
62
256
100
AcDbBlockReference
2
UNIT_DISC
10
27.9456
20
-10.1039
41
0.4
42
0.4
50
0
0
LWPOLYLINE
5
921
100
AcDbEntity
8
F_Cu_____________
62
256
100
AcDbPolyline
90
2
70
0
43
0.4
10
27.9456
20
-10.1039
10
27.8251
20
-9.3884
0
INSERT
5
922
100
AcDbEntity
8
F_Cu_____________
62
256
100
AcDbBlockReference
2
UNIT_DISC
10
27.8251
20
-9.3884
41
0.4
42
0.4
50
0
0
INSERT
5
923
100
AcDbEntity
8
F_Cu_____________
62
256
100
AcDbBlockReference
2
UNIT_DISC
10
41.3056
20
42.1492
41
0.4
42
0.4
50
0
0
LWPOLYLINE
5
924
100
AcDbEntity
8
F_Cu_____________
62
256
100
AcDbPolyline
90
2
70
0
43
0.4
10
41.3056
20
42.1492
10
55.9309
20
36.7522
0
INSERT
5
925
100
AcDbEntity
8
F_Cu_____________
62
256
100
AcDbBlockReference
2
UNIT_DISC
10
55.9309
20
36.7522
41
0.4
42
0.4
50
0
0
INSERT
5
926
100
AcDbEntity
8
F_Cu_____________
62
256
100
AcDbBlockReference
2
UNIT_DISC
10
77.3448
20
32.4675
41
0.4
42
0.4
50
0
0
LWPOLYLINE
5
927
100
AcDbEntity
8
F_Cu_____________
62
256
100
AcDbPolyline
90
2
70
0
43
0.4
10
77.3448
20
32.4675
10
75.0047
20
32.8851
0
INSERT
5
928
100
AcDbEntity
8
F_Cu_____________
62
256
100
AcDbBlockReference
2
UNIT_DISC
10
75.0047
20
32.8851
41
0.4
42
0.4
50
0
0
INSERT
5
929
100
AcDbEntity
8
F_Cu_____________
62
256
100
AcDbBlockReference
2
UNIT_DISC
10
75.0047
20
32.8851
41
0.4
42
0.4
50
0
0
LWPOLYLINE
5
930
100
AcDbEntity
8
F_Cu_____________
62
256
100
AcDbPolyline
90
2
70
0
43
0.4
10
75.0047
20
32.8851
10
55.9309
20
36.7522
0
INSERT
5
931
100
AcDbEntity
8
F_Cu_____________
62
256
100
AcDbBlockReference
2
UNIT_DISC
10
55.9309
20
36.7522
41
0.4
42
0.4
50
0
0
INSERT
5
932
100
AcDbEntity
8
F_Cu_____________
62
256
100
AcDbBlockReference
2
UNIT_DISC
10
39.1788
20
25.0764
41
0.4
42
0.4
50
0
0
LWPOLYLINE
5
933
100
AcDbEntity
8
F_Cu_____________
62
256
100
AcDbPolyline
90
2
70
0
43
0.4
10
39.1788
20
25.0764
10
53.7779
20
22.964
0
INSERT
5
934
100
AcDbEntity
8
F_Cu_____________
62
256
100
AcDbBlockReference
2
UNIT_DISC
10
53.7779
20
22.964
41
0.4
42
0.4
50
0
0
INSERT
5
935
100
AcDbEntity
8
F_Cu_____________
62
256
100
AcDbBlockReference
2
UNIT_DISC
10
26.132
20
12.5559
41
0.4
42
0.4
50
0
0
LWPOLYLINE
5
936
100
AcDbEntity
8
F_Cu_____________
62
256
100
AcDbPolyline
90
2
70
0
43
0.4
10
26.132
20
12.5559
10
28.9462
20
16.4899
0
INSERT
5
937
100
AcDbEntity
8
F_Cu_____________
62
256
100
AcDbBlockReference
2
UNIT_DISC
10
28.9462
20
16.4899
41
0.4
42
0.4
50
0
0
INSERT
5
938
100
AcDbEntity
8
F_Cu_____________
62
256
100
AcDbBlockReference
2
UNIT_DISC
10
28.9462
20
16.4899
41
0.4
42
0.4
50
0
0
LWPOLYLINE
5
939
100
AcDbEntity
8
F_Cu_____________
62
256
100
AcDbPolyline
90
2
70
0
43
0.4
10
28.9462
20
16.4899
10
34.0443
20
23.0642
0
INSERT
5
940
100
AcDbEntity
8
F_Cu_____________
62
256
100
AcDbBlockReference
2
UNIT_DISC
10
34.0443
20
23.0642
41
0.4
42
0.4
50
0
0
INSERT
5
941
100
AcDbEntity
8
F_Cu_____________
62
256
100
AcDbBlockReference
2
UNIT_DISC
10
34.0443
20
23.0642
41
0.4
42
0.4
50
0
0
LWPOLYLINE
5
942
100
AcDbEntity
8
F_Cu_____________
62
256
100
AcDbPolyline
90
2
70
0
43
0.4
10
34.0443
20
23.0642
10
34.1618
20
23.1817
0
INSERT
5
943
100
AcDbEntity
8
F_Cu_____________
62
256
100
AcDbBlockReference
2
UNIT_DISC
10
34.1618
20
23.1817
41
0.4
42
0.4
50
0
0
INSERT
5
944
100
AcDbEntity
8
F_Cu_____________
62
256
100
AcDbBlockReference
2
UNIT_DISC
10
34.1618
20
23.1817
41
0.4
42
0.4
50
0
0
LWPOLYLINE
5
945
100
AcDbEntity
8
F_Cu_____________
62
256
100
AcDbPolyline
90
2
70
0
43
0.4
10
34.1618
20
23.1817
10
34.7244
20
23.7442
0
INSERT
5
946
100
AcDbEntity
8
F_Cu_____________
62
256
100
AcDbBlockReference
2
UNIT_DISC
10
34.7244
20
23.7442
41
0.4
42
0.4
50
0
0
INSERT
5
947
100
AcDbEntity
8
F_Cu_____________
62
256
100
AcDbBlockReference
2
UNIT_DISC
10
34.7244
20
23.7442
41
0.4
42
0.4
50
0
0
LWPOLYLINE
5
948
100
AcDbEntity
8
F_Cu_____________
62
256
100
AcDbPolyline
90
2
70
0
43
0.4
10
34.7244
20
23.7442
10
34.7482
20
23.7541
0
INSERT
5
949
100
AcDbEntity
8
F_Cu_____________
62
256
100
AcDbBlockReference
2
UNIT_DISC
10
34.7482
20
23.7541
41
0.4
42
0.4
50
0
0
INSERT
5
950
100
AcDbEntity
8
F_Cu_____________
62
256
100
AcDbBlockReference
2
UNIT_DISC
10
34.7482
20
23.7541
41
0.4
42
0.4
50
0
0
LWPOLYLINE
5
951
100
AcDbEntity
8
F_Cu_____________
62
256
100
AcDbPolyline
90
2
70
0
43
0.4
10
34.7482
20
23.7541
10
35.4596
20
24.0487
0
INSERT
5
952
100
AcDbEntity
8
F_Cu_____________
62
256
100
AcDbBlockReference
2
UNIT_DISC
10
35.4596
20
24.0487
41
0.4
42
0.4
50
0
0
INSERT
5
953
100
AcDbEntity
8
F_Cu_____________
62
256
100
AcDbBlockReference
2
UNIT_DISC
10
35.4596
20
24.0487
41
0.4
42
0.4
50
0
0
LWPOLYLINE
5
954
100
AcDbEntity
8
F_Cu_____________
62
256
100
AcDbPolyline
90
2
70
0
43
0.4
10
35.4596
20
24.0487
10
39.1788
20
25.0764
0
INSERT
5
955
100
AcDbEntity
8
F_Cu_____________
62
256
100
AcDbBlockReference
2
UNIT_DISC
10
39.1788
20
25.0764
41
0.4
42
0.4
50
0
0
INSERT
5
956
100
AcDbEntity
8
F_Cu_____________
62
256
100
AcDbBlockReference
2
UNIT_DISC
10
35.3303
20
-22.5955
41
0.4
42
0.4
50
0
0
LWPOLYLINE
5
957
100
AcDbEntity
8
F_Cu_____________
62
256
100
AcDbPolyline
90
2
70
0
43
0.4
10
35.3303
20
-22.5955
10
34.5229
20
-22.5327
0
INSERT
5
958
100
AcDbEntity
8
F_Cu_____________
62
256
100
AcDbBlockReference
2
UNIT_DISC
10
34.5229
20
-22.5327
41
0.4
42
0.4
50
0
0
INSERT
5
959
100
AcDbEntity
8
F_Cu_____________
62
256
100
AcDbBlockReference
2
UNIT_DISC
10
34.5229
20
-22.5327
41
0.4
42
0.4
50
0
0
LWPOLYLINE
5
960
100
AcDbEntity
8
F_Cu_____________
62
256
100
AcDbPolyline
90
2
70
0
43
0.4
10
34.5229
20
-22.5327
10
34.3234
20
-22.5467
0
INSERT
5
961
100
AcDbEntity
8
F_Cu_____________
62
256
100
AcDbBlockReference
2
UNIT_DISC
10
34.3234
20
-22.5467
41
0.4
42
0.4
50
0
0
INSERT
5
962
100
AcDbEntity
8
F_Cu_____________
62
256
100
AcDbBlockReference
2
UNIT_DISC
10
34.3234
20
-22.5467
41
0.4
42
0.4
50
0
0
LWPOLYLINE
5
963
100
AcDbEntity
8
F_Cu_____________
62
256
100
AcDbPolyline
90
2
70
0
43
0.4
10
34.3234
20
-22.5467
10
32.8909
20
-22.647
0
INSERT
5
964
100
AcDbEntity
8
F_Cu_____________
62
256
100
AcDbBlockReference
2
UNIT_DISC
10
32.8909
20
-22.647
41
0.4
42
0.4
50
0
0
INSERT
5
965
100
AcDbEntity
8
F_Cu_____________
62
256
100
AcDbBlockReference
2
UNIT_DISC
10
32.8909
20
-22.647
41
0.4
42
0.4
50
0
0
LWPOLYLINE
5
966
100
AcDbEntity
8
F_Cu_____________
62
256
100
AcDbPolyline
90
2
70
0
43
0.4
10
32.8909
20
-22.647
10
31.4365
20
-22.647
0
INSERT
5
967
100
AcDbEntity
8
F_Cu_____________
62
256
100
AcDbBlockReference
2
UNIT_DISC
10
31.4365
20
-22.647
41
0.4
42
0.4
50
0
0
INSERT
5
968
100
AcDbEntity
8
F_Cu_____________
62
256
100
AcDbBlockReference
2
UNIT_DISC
10
31.4365
20
-22.647
41
0.4
42
0.4
50
0
0
LWPOLYLINE
5
969
100
AcDbEntity
8
F_Cu_____________
62
256
100
AcDbPolyline
90
2
70
0
43
0.4
10
31.4365
20
-22.647
10
31.0695
20
-22.495
0
INSERT
5
970
100
AcDbEntity
8
F_Cu_____________
62
256
100
AcDbBlockReference
2
UNIT_DISC
10
31.0695
20
-22.495
41
0.4
42
0.4
50
0
0
INSERT
5
971
100
AcDbEntity
8
F_Cu_____________
62
256
100
AcDbBlockReference
2
UNIT_DISC
10
31.0695
20
-22.495
41
0.4
42
0.4
50
0
0
LWPOLYLINE
5
972
100
AcDbEntity
8
F_Cu_____________
62
256
100
AcDbPolyline
90
2
70
0
43
0.4
10
31.0695
20
-22.495
10
30.0452
20
-21.4707
0
INSERT
5
973
100
AcDbEntity
8
F_Cu_____________
62
256
100
AcDbBlockReference
2
UNIT_DISC
10
30.0452
20
-21.4707
41
0.4
42
0.4
50
0
0
INSERT
5
974
100
AcDbEntity
8
F_Cu_____________
62
256
100
AcDbBlockReference
2
UNIT_DISC
10
30.0452
20
-21.4707
41
0.4
42
0.4
50
0
0
LWPOLYLINE
5
975
100
AcDbEntity
8
F_Cu_____________
62
256
100
AcDbPolyline
90
2
70
0
43
0.4
10
30.0452
20
-21.4707
10
25.5112
20
-10.6132
0
INSERT
5
976
100
AcDbEntity
8
F_Cu_____________
62
256
100
AcDbBlockReference
2
UNIT_DISC
10
25.5112
20
-10.6132
41
0.4
42
0.4
50
0
0
INSERT
5
977
100
AcDbEntity
8
F_Cu_____________
62
256
100
AcDbBlockReference
2
UNIT_DISC
10
25.5112
20
-10.6132
41
0.4
42
0.4
50
0
0
LWPOLYLINE
5
978
100
AcDbEntity
8
F_Cu_____________
62
256
100
AcDbPolyline
90
2
70
0
43
0.4
10
25.5112
20
-10.6132
10
25.3241
20
-10.1615
0
INSERT
5
979
100
AcDbEntity
8
F_Cu_____________
62
256
100
AcDbBlockReference
2
UNIT_DISC
10
25.3241
20
-10.1615
41
0.4
42
0.4
50
0
0
INSERT
5
980
100
AcDbEntity
8
F_Cu_____________
62
256
100
AcDbBlockReference
2
UNIT_DISC
10
25.3241
20
-10.1615
41
0.4
42
0.4
50
0
0
LWPOLYLINE
5
981
100
AcDbEntity
8
F_Cu_____________
62
256
100
AcDbPolyline
90
2
70
0
43
0.4
10
25.3241
20
-10.1615
10
25.3241
20
-8.6153
0
INSERT
5
982
100
AcDbEntity
8
F_Cu_____________
62
256
100
AcDbBlockReference
2
UNIT_DISC
10
25.3241
20
-8.6153
41
0.4
42
0.4
50
0
0
INSERT
5
983
100
AcDbEntity
8
F_Cu_____________
62
256
100
AcDbBlockReference
2
UNIT_DISC
10
25.3241
20
-8.6153
41
0.4
42
0.4
50
0
0
LWPOLYLINE
5
984
100
AcDbEntity
8
F_Cu_____________
62
256
100
AcDbPolyline
90
2
70
0
43
0.4
10
25.3241
20
-8.6153
10
25.5112
20
-8.1636
0
INSERT
5
985
100
AcDbEntity
8
F_Cu_____________
62
256
100
AcDbBlockReference
2
UNIT_DISC
10
25.5112
20
-8.1636
41
0.4
42
0.4
50
0
0
INSERT
5
986
100
AcDbEntity
8
F_Cu_____________
62
256
100
AcDbBlockReference
2
UNIT_DISC
10
25.5112
20
-8.1636
41
0.4
42
0.4
50
0
0
LWPOLYLINE
5
987
100
AcDbEntity
8
F_Cu_____________
62
256
100
AcDbPolyline
90
2
70
0
43
0.4
10
25.5112
20
-8.1636
10
31.1643
20
0.5541
0
INSERT
5
988
100
AcDbEntity
8
F_Cu_____________
62
256
100
AcDbBlockReference
2
UNIT_DISC
10
31.1643
20
0.5541
41
0.4
42
0.4
50
0
0
INSERT
5
989
100
AcDbEntity
8
F_Cu_____________
62
256
100
AcDbBlockReference
2
UNIT_DISC
10
31.1643
20
0.5541
41
0.4
42
0.4
50
0
0
LWPOLYLINE
5
990
100
AcDbEntity
8
F_Cu_____________
62
256
100
AcDbPolyline
90
2
70
0
43
0.4
10
31.1643
20
0.5541
10
31.1686
20
0.5645
0
INSERT
5
991
100
AcDbEntity
8
F_Cu_____________
62
256
100
AcDbBlockReference
2
UNIT_DISC
10
31.1686
20
0.5645
41
0.4
42
0.4
50
0
0
INSERT
5
992
100
AcDbEntity
8
F_Cu_____________
62
256
100
AcDbBlockReference
2
UNIT_DISC
10
31.1686
20
0.5645
41
0.4
42
0.4
50
0
0
LWPOLYLINE
5
993
100
AcDbEntity
8
F_Cu_____________
62
256
100
AcDbPolyline
90
2
70
0
43
0.4
10
31.1686
20
0.5645
10
31.1686
20
1.6331
0
INSERT
5
994
100
AcDbEntity
8
F_Cu_____________
62
256
100
AcDbBlockReference
2
UNIT_DISC
10
31.1686
20
1.6331
41
0.4
42
0.4
50
0
0
INSERT
5
995
100
AcDbEntity
8
F_Cu_____________
62
256
100
AcDbBlockReference
2
UNIT_DISC
10
31.1686
20
1.6331
41
0.4
42
0.4
50
0
0
LWPOLYLINE
5
996
100
AcDbEntity
8
F_Cu_____________
62
256
100
AcDbPolyline
90
2
70
0
43
0.4
10
31.1686
20
1.6331
10
31.1643
20
1.6435
0
INSERT
5
997
100
AcDbEntity
8
F_Cu_____________
62
256
100
AcDbBlockReference
2
UNIT_DISC
10
31.1643
20
1.6435
41
0.4
42
0.4
50
0
0
INSERT
5
998
100
AcDbEntity
8
F_Cu_____________
62
256
100
AcDbBlockReference
2
UNIT_DISC
10
31.1643
20
1.6435
41
0.4
42
0.4
50
0
0
LWPOLYLINE
5
999
100
AcDbEntity
8
F_Cu_____________
62
256
100
AcDbPolyline
90
2
70
0
43
0.4
10
31.1643
20
1.6435
10
26.132
20
12.5559
0
INSERT
5
1000
100
AcDbEntity
8
F_Cu_____________
62
256
100
AcDbBlockReference
2
UNIT_DISC
10
26.132
20
12.5559
41
0.4
42
0.4
50
0
0
INSERT
5
1001
100
AcDbEntity
8
F_Cu_____________
62
256
100
AcDbBlockReference
2
UNIT_DISC
10
26.132
20
12.5559
41
0.4
42
0.4
50
0
0
LWPOLYLINE
5
1002
100
AcDbEntity
8
F_Cu_____________
62
256
100
AcDbPolyline
90
2
70
0
43
0.4
10
26.132
20
12.5559
10
17.6235
20
13.3953
0
INSERT
5
1003
100
AcDbEntity
8
F_Cu_____________
62
256
100
AcDbBlockReference
2
UNIT_DISC
10
17.6235
20
13.3953
41
0.4
42
0.4
50
0
0
INSERT
5
1004
100
AcDbEntity
8
F_Cu_____________
62
256
100
AcDbBlockReference
2
UNIT_DISC
10
5.9442
20
11.7846
41
0.4
42
0.4
50
0
0
LWPOLYLINE
5
1005
100
AcDbEntity
8
F_Cu_____________
62
256
100
AcDbPolyline
90
2
70
0
43
0.4
10
5.9442
20
11.7846
10
17.6235
20
13.3953
0
INSERT
5
1006
100
AcDbEntity
8
F_Cu_____________
62
256
100
AcDbBlockReference
2
UNIT_DISC
10
17.6235
20
13.3953
41
0.4
42
0.4
50
0
0
INSERT
5
1007
100
AcDbEntity
8
F_Cu_____________
62
256
100
AcDbBlockReference
2
UNIT_DISC
10
35.5075
20
-25.1293
41
0.4
42
0.4
50
0
0
LWPOLYLINE
5
1008
100
AcDbEntity
8
F_Cu_____________
62
256
100
AcDbPolyline
90
2
70
0
43
0.4
10
35.5075
20
-25.1293
10
34.4785
20
-24.6268
0
INSERT
5
1009
100
AcDbEntity
8
F_Cu_____________
62
256
100
AcDbBlockReference
2
UNIT_DISC
10
34.4785
20
-24.6268
41
0.4
42
0.4
50
0
0
INSERT
5
1010
100
AcDbEntity
8
F_Cu_____________
62
256
100
AcDbBlockReference
2
UNIT_DISC
10
34.4785
20
-24.6268
41
0.4
42
0.4
50
0
0
LWPOLYLINE
5
1011
100
AcDbEntity
8
F_Cu_____________
62
256
100
AcDbPolyline
90
2
70
0
43
0.4
10
34.4785
20
-24.6268
10
34.4647
20
-24.6268
0
INSERT
5
1012
100
AcDbEntity
8
F_Cu_____________
62
256
100
AcDbBlockReference
2
UNIT_DISC
10
34.4647
20
-24.6268
41
0.4
42
0.4
50
0
0
INSERT
5
1013
100
AcDbEntity
8
F_Cu_____________
62
256
100
AcDbBlockReference
2
UNIT_DISC
10
34.4647
20
-24.6268
41
0.4
42
0.4
50
0
0
LWPOLYLINE
5
1014
100
AcDbEntity
8
F_Cu_____________
62
256
100
AcDbPolyline
90
2
70
0
43
0.4
10
34.4647
20
-24.6268
10
31.2663
20
-23.8475
0
INSERT
5
1015
100
AcDbEntity
8
F_Cu_____________
62
256
100
AcDbBlockReference
2
UNIT_DISC
10
31.2663
20
-23.8475
41
0.4
42
0.4
50
0
0
INSERT
5
1016
100
AcDbEntity
8
F_Cu_____________
62
256
100
AcDbBlockReference
2
UNIT_DISC
10
31.2663
20
-23.8475
41
0.4
42
0.4
50
0
0
LWPOLYLINE
5
1017
100
AcDbEntity
8
F_Cu_____________
62
256
100
AcDbPolyline
90
2
70
0
43
0.4
10
31.2663
20
-23.8475
10
31.0883
20
-23.8028
0
INSERT
5
1018
100
AcDbEntity
8
F_Cu_____________
62
256
100
AcDbBlockReference
2
UNIT_DISC
10
31.0883
20
-23.8028
41
0.4
42
0.4
50
0
0
INSERT
5
1019
100
AcDbEntity
8
F_Cu_____________
62
256
100
AcDbBlockReference
2
UNIT_DISC
10
31.0883
20
-23.8028
41
0.4
42
0.4
50
0
0
LWPOLYLINE
5
1020
100
AcDbEntity
8
F_Cu_____________
62
256
100
AcDbPolyline
90
2
70
0
43
0.4
10
31.0883
20
-23.8028
10
30.4969
20
-23.5576
0
INSERT
5
1021
100
AcDbEntity
8
F_Cu_____________
62
256
100
AcDbBlockReference
2
UNIT_DISC
10
30.4969
20
-23.5576
41
0.4
42
0.4
50
0
0
INSERT
5
1022
100
AcDbEntity
8
F_Cu_____________
62
256
100
AcDbBlockReference
2
UNIT_DISC
10
30.4969
20
-23.5576
41
0.4
42
0.4
50
0
0
LWPOLYLINE
5
1023
100
AcDbEntity
8
F_Cu_____________
62
256
100
AcDbPolyline
90
2
70
0
43
0.4
10
30.4969
20
-23.5576
10
30.3395
20
-23.4633
0
INSERT
5
1024
100
AcDbEntity
8
F_Cu_____________
62
256
100
AcDbBlockReference
2
UNIT_DISC
10
30.3395
20
-23.4633
41
0.4
42
0.4
50
0
0
INSERT
5
1025
100
AcDbEntity
8
F_Cu_____________
62
256
100
AcDbBlockReference
2
UNIT_DISC
10
30.3395
20
-23.4633
41
0.4
42
0.4
50
0
0
LWPOLYLINE
5
1026
100
AcDbEntity
8
F_Cu_____________
62
256
100
AcDbPolyline
90
2
70
0
43
0.4
10
30.3395
20
-23.4633
10
29.0769
20
-22.2007
0
INSERT
5
1027
100
AcDbEntity
8
F_Cu_____________
62
256
100
AcDbBlockReference
2
UNIT_DISC
10
29.0769
20
-22.2007
41
0.4
42
0.4
50
0
0
INSERT
5
1028
100
AcDbEntity
8
F_Cu_____________
62
256
100
AcDbBlockReference
2
UNIT_DISC
10
29.0769
20
-22.2007
41
0.4
42
0.4
50
0
0
LWPOLYLINE
5
1029
100
AcDbEntity
8
F_Cu_____________
62
256
100
AcDbPolyline
90
2
70
0
43
0.4
10
29.0769
20
-22.2007
10
28.9826
20
-22.0433
0
INSERT
5
1030
100
AcDbEntity
8
F_Cu_____________
62
256
100
AcDbBlockReference
2
UNIT_DISC
10
28.9826
20
-22.0433
41
0.4
42
0.4
50
0
0
INSERT
5
1031
100
AcDbEntity
8
F_Cu_____________
62
256
100
AcDbBlockReference
2
UNIT_DISC
10
28.9826
20
-22.0433
41
0.4
42
0.4
50
0
0
LWPOLYLINE
5
1032
100
AcDbEntity
8
F_Cu_____________
62
256
100
AcDbPolyline
90
2
70
0
43
0.4
10
28.9826
20
-22.0433
10
24.4375
20
-11.1591
0
INSERT
5
1033
100
AcDbEntity
8
F_Cu_____________
62
256
100
AcDbBlockReference
2
UNIT_DISC
10
24.4375
20
-11.1591
41
0.4
42
0.4
50
0
0
INSERT
5
1034
100
AcDbEntity
8
F_Cu_____________
62
256
100
AcDbBlockReference
2
UNIT_DISC
10
24.4375
20
-11.1591
41
0.4
42
0.4
50
0
0
LWPOLYLINE
5
1035
100
AcDbEntity
8
F_Cu_____________
62
256
100
AcDbPolyline
90
2
70
0
43
0.4
10
24.4375
20
-11.1591
10
24.1793
20
-10.5363
0
INSERT
5
1036
100
AcDbEntity
8
F_Cu_____________
62
256
100
AcDbBlockReference
2
UNIT_DISC
10
24.1793
20
-10.5363
41
0.4
42
0.4
50
0
0
INSERT
5
1037
100
AcDbEntity
8
F_Cu_____________
62
256
100
AcDbBlockReference
2
UNIT_DISC
10
24.1793
20
-10.5363
41
0.4
42
0.4
50
0
0
LWPOLYLINE
5
1038
100
AcDbEntity
8
F_Cu_____________
62
256
100
AcDbPolyline
90
2
70
0
43
0.4
10
24.1793
20
-10.5363
10
22.7219
20
-6.1465
0
INSERT
5
1039
100
AcDbEntity
8
F_Cu_____________
62
256
100
AcDbBlockReference
2
UNIT_DISC
10
22.7219
20
-6.1465
41
0.4
42
0.4
50
0
0
INSERT
5
1040
100
AcDbEntity
8
F_Cu_____________
62
256
100
AcDbBlockReference
2
UNIT_DISC
10
29.8681
20
1.0988
41
0.4
42
0.4
50
0
0
LWPOLYLINE
5
1041
100
AcDbEntity
8
F_Cu_____________
62
256
100
AcDbPolyline
90
2
70
0
43
0.4
10
29.8681
20
1.0988
10
22.7219
20
-6.1465
0
INSERT
5
1042
100
AcDbEntity
8
F_Cu_____________
62
256
100
AcDbBlockReference
2
UNIT_DISC
10
22.7219
20
-6.1465
41
0.4
42
0.4
50
0
0
INSERT
5
1043
100
AcDbEntity
8
F_Cu_____________
62
256
100
AcDbBlockReference
2
UNIT_DISC
10
54.4815
20
-6.8668
41
0.4
42
0.4
50
0
0
LWPOLYLINE
5
1044
100
AcDbEntity
8
F_Cu_____________
62
256
100
AcDbPolyline
90
2
70
0
43
0.4
10
54.4815
20
-6.8668
10
53.5956
20
-10.3976
0
INSERT
5
1045
100
AcDbEntity
8
F_Cu_____________
62
256
100
AcDbBlockReference
2
UNIT_DISC
10
53.5956
20
-10.3976
41
0.4
42
0.4
50
0
0
INSERT
5
1046
100
AcDbEntity
8
F_Cu_____________
62
256
100
AcDbBlockReference
2
UNIT_DISC
10
53.5956
20
-10.3976
41
0.4
42
0.4
50
0
0
LWPOLYLINE
5
1047
100
AcDbEntity
8
F_Cu_____________
62
256
100
AcDbPolyline
90
2
70
0
43
0.4
10
53.5956
20
-10.3976
10
53.5909
20
-10.4023
0
INSERT
5
1048
100
AcDbEntity
8
F_Cu_____________
62
256
100
AcDbBlockReference
2
UNIT_DISC
10
53.5909
20
-10.4023
41
0.4
42
0.4
50
0
0
INSERT
5
1049
100
AcDbEntity
8
F_Cu_____________
62
256
100
AcDbBlockReference
2
UNIT_DISC
10
53.5909
20
-10.4023
41
0.4
42
0.4
50
0
0
LWPOLYLINE
5
1050
100
AcDbEntity
8
F_Cu_____________
62
256
100
AcDbPolyline
90
2
70
0
43
0.4
10
53.5909
20
-10.4023
10
52.7573
20
-11.192
0
INSERT
5
1051
100
AcDbEntity
8
F_Cu_____________
62
256
100
AcDbBlockReference
2
UNIT_DISC
10
52.7573
20
-11.192
41
0.4
42
0.4
50
0
0
ENDSEC
0
SECTION
2
OBJECTS
0
DICTIONARY
5
1052
100
AcDbDictionary
3
ACAD_GROUP
350
1053
3
ACAD_LAYOUT
350
1054
3
ACAD_MLINESTYLE
350
1055
3
ACDBHEADERROUNDTRIPXREC
350
1056
0
DICTIONARY
5
1053
100
AcDbDictionary
0
DICTIONARY
5
1054
100
AcDbDictionary
0
DICTIONARY
5
1055
100
AcDbDictionary
3
STANDARD
350
1058
0
DICTIONARY
5
1056
100
AcDbDictionary
3
STANDARD
350
1058
3
INSUNITS
350
1057
0
XRECORD
5
1057
100
AcDbXrecord
90
4
0
MLINESTYLE
5
1058
100
AcDbMlineStyle
2
STANDARD
71
2
49
0.5
49
-0.5
0
ENDSEC
0
EOF
