0
SECTION
2
HEADER
9
$ACADVER
1
AC1014
9
$DIMALTU
70
2
9
$DIMLUNIT
70
2
9
$LIMMIN
10
0.0
20
0.0
9
$LIMMAX
10
50.0
20
50.0
9
$HANDSEED
5
1048575
9
$LUNITS
70
4
0
ENDSEC
0
SECTION
2
TABLES
0
TABLE
2
APPID
5
1
100
AcDbSymbolTable
70
0
0
APPID
5
2
100
AcDbSymbolTableRecord
100
AcDbRegAppTableRecord
2
ACAD
70
0
0
ENDTAB
0
TABLE
2
DIMSTYLE
5
3
100
AcDbSymbolTable
70
0
0
ENDTAB
0
TABLE
2
UCS
5
4
100
AcDbSymbolTable
70
0
0
ENDTAB
0
TABLE
2
VIEW
5
5
100
AcDbSymbolTable
70
0
0
ENDTAB
0
TABLE
2
VPORT
5
6
100
AcDbSymbolTable
70
3
0
VPORT
5
7
100
AcDbSymbolTableRecord
100
AcDbViewportTableRecord
2
*ACTIVE
70
0
12
-35.0
22
9.1845
13
10.0
23
10.0
14
10.0
24
10.0
15
10.0
25
10.0
40
113.2739
41
2
74
3
75
0
76
1
77
0
0
ENDTAB
0
TABLE
2
STYLE
5
8
100
AcDbSymbolTable
70
1
0
STYLE
5
9
100
AcDbSymbolTableRecord
100
AcDbTextStyleTableRecord
2
STANDARD
70
0
40
0.0
41
1.0
50
0.0
71
0
3
txt
4

0
STYLE
5
10
100
AcDbSymbolTableRecord
100
AcDbTextStyleTableRecord
2
Default
70
0
40
1.0
41
1.0
50
0.0
71
0
3

4

1001
ACAD
1000

1071
10
0
ENDTAB
0
TABLE
2
LTYPE
5
11
100
AcDbSymbolTable
70
3
0
LTYPE
5
12
100
AcDbSymbolTableRecord
100
AcDbLinetypeTableRecord
2
BYBLOCK
70
0
3

72
65
73
0
40
0.0
0
LTYPE
5
13
100
AcDbSymbolTableRecord
100
AcDbLinetypeTableRecord
2
BYLAYER
70
0
3

72
65
73
0
40
0.0
0
LTYPE
5
14
100
AcDbSymbolTableRecord
100
AcDbLinetypeTableRecord
2
CONTINUOUS
70
0
3

72
65
73
0
40
0.0
0
ENDTAB
0
TABLE
2
LAYER
5
15
100
AcDbSymbolTable
70
9
0
LAYER
5
16
100
AcDbSymbolTableRecord
100
AcDbLayerTableRecord
2
0
70
0
6
CONTINUOUS
370
0.5
0
LAYER
5
17
100
AcDbSymbolTableRecord
100
AcDbLayerTableRecord
2
F_Cu_____________
70
0
62
0
6
CONTINUOUS
370
0.5
0
ENDTAB
0
TABLE
2
BLOCK_RECORD
5
18
100
AcDbSymbolTable
70
3
0
BLOCK_RECORD
5
19
100
AcDbSymbolTableRecord
100
AcDbBlockTableRecord
2
*MODEL_SPACE
0
BLOCK_RECORD
5
20
100
AcDbSymbolTableRecord
100
AcDbBlockTableRecord
2
*PAPER_SPACE
0
BLOCK_RECORD
5
21
100
AcDbSymbolTableRecord
100
AcDbBlockTableRecord
2
UNIT_DISC
0
BLOCK_RECORD
5
22
100
AcDbSymbolTableRecord
100
AcDbBlockTableRecord
2
MTHOLE
0
BLOCK_RECORD
5
23
100
AcDbSymbolTableRecord
100
AcDbBlockTableRecord
2
TARGET
0
BLOCK_RECORD
5
24
100
AcDbSymbolTableRecord
100
AcDbBlockTableRecord
2
SIGN_DIAM
0
ENDTAB
0
ENDSEC
0
SECTION
2
BLOCKS
0
BLOCK
5
26
330
25
100
AcDbEntity
8
0
100
AcDbBlockBegin
2
*MODEL_SPACE
0
ENDBLK
5
27
330
25
100
AcDbEntity
8
0
100
AcDbBlockEnd
0
BLOCK
5
29
330
28
100
AcDbEntity
67
1
8
0
100
AcDbBlockBegin
2
*PAPER_SPACE
0
ENDBLK
5
30
330
28
100
AcDbEntity
67
1
8
0
100
AcDbBlockEnd
0
BLOCK
5
32
330
31
100
AcDbEntity
8
0
100
AcDbBlockBegin
2
UNIT_DISC
0
LWPOLYLINE
5
33
100
AcDbEntity
8
0
62
256
100
AcDbPolyline
90
2
70
1
43
0.5
10
0.25
20
0.0
42
1.0
10
-0.25
20
0.0
42
1.0
0
ENDBLK
5
34
330
31
100
AcDbEntity
8
0
100
AcDbBlockEnd
0
BLOCK
5
36
330
35
100
AcDbEntity
8
0
100
AcDbBlockBegin
2
MTHOLE
0
LINE
5
37
100
AcDbEntity
8
0
62
256
100
AcDbLine
10
0.5
20
0.0
30
0.0
11
-0.5
21
0.0
31
0.0
0
LINE
5
38
100
AcDbEntity
8
0
62
256
100
AcDbLine
10
0.0
20
-0.5
30
0.0
11
0.0
21
0.5
31
0.0
0
CIRCLE
5
39
100
AcDbEntity
8
0
62
256
100
AcDbCircle
39
0.0
10
0.0
20
0.0
40
0.5
0
ENDBLK
5
40
330
35
100
AcDbEntity
8
0
100
AcDbBlockEnd
0
BLOCK
5
42
330
41
100
AcDbEntity
8
0
100
AcDbBlockBegin
2
TARGET
0
LINE
5
43
100
AcDbEntity
8
0
62
256
100
AcDbLine
10
0.5
20
0.0
30
0.0
11
-0.5
21
0.0
31
0.0
0
LINE
5
44
100
AcDbEntity
8
0
62
256
100
AcDbLine
10
0.0
20
-0.5
30
0.0
11
0.0
21
0.5
31
0.0
0
CIRCLE
5
45
100
AcDbEntity
8
0
62
256
100
AcDbCircle
39
0.0
10
0.0
20
0.0
40
0.4
0
CIRCLE
5
46
100
AcDbEntity
8
0
62
256
100
AcDbCircle
39
0.0
10
0.0
20
0.0
40
0.3
0
CIRCLE
5
47
100
AcDbEntity
8
0
62
256
100
AcDbCircle
39
0.0
10
0.0
20
0.0
40
0.2
0
CIRCLE
5
48
100
AcDbEntity
8
0
62
256
100
AcDbCircle
39
0.0
10
0.0
20
0.0
40
0.1
0
ENDBLK
5
49
330
41
100
AcDbEntity
8
0
100
AcDbBlockEnd
0
BLOCK
5
51
330
50
100
AcDbEntity
8
0
100
AcDbBlockBegin
2
SIGN_DIAM
0
LINE
5
52
100
AcDbEntity
8
0
62
256
100
AcDbLine
10
-0.5
20
-0.5
30
0.0
11
0.5
21
0.5
31
0.0
0
CIRCLE
5
53
100
AcDbEntity
8
0
62
256
100
AcDbCircle
39
0.0
10
0.0
20
0.0
40
0.3
0
ENDBLK
5
54
330
50
100
AcDbEntity
8
0
100
AcDbBlockEnd
0
ENDSEC
0
SECTION
2
ENTITIES
0
INSERT
5
55
100
AcDbEntity
8
F_Cu_____________
62
256
100
AcDbBlockReference
2
UNIT_DISC
10
-129.8955
20
-8.266
41
0.4
42
0.4
50
0
0
LWPOLYLINE
5
56
100
AcDbEntity
8
F_Cu_____________
62
256
100
AcDbPolyline
90
2
70
0
43
0.4
10
-129.8955
20
-8.266
10
-129.579
20
-8.5722
0
INSERT
5
57
100
AcDbEntity
8
F_Cu_____________
62
256
100
AcDbBlockReference
2
UNIT_DISC
10
-129.579
20
-8.5722
41
0.4
42
0.4
50
0
0
INSERT
5
58
100
AcDbEntity
8
F_Cu_____________
62
256
100
AcDbBlockReference
2
UNIT_DISC
10
-129.579
20
-8.5722
41
0.4
42
0.4
50
0
0
LWPOLYLINE
5
59
100
AcDbEntity
8
F_Cu_____________
62
256
100
AcDbPolyline
90
2
70
0
43
0.4
10
-129.579
20
-8.5722
10
-128.8275
20
-9.3237
0
INSERT
5
60
100
AcDbEntity
8
F_Cu_____________
62
256
100
AcDbBlockReference
2
UNIT_DISC
10
-128.8275
20
-9.3237
41
0.4
42
0.4
50
0
0
INSERT
5
61
100
AcDbEntity
8
F_Cu_____________
62
256
100
AcDbBlockReference
2
UNIT_DISC
10
-128.8275
20
-9.3237
41
0.4
42
0.4
50
0
0
LWPOLYLINE
5
62
100
AcDbEntity
8
F_Cu_____________
62
256
100
AcDbPolyline
90
2
70
0
43
0.4
10
-128.8275
20
-9.3237
10
-124.949
20
-16.9995
0
INSERT
5
63
100
AcDbEntity
8
F_Cu_____________
62
256
100
AcDbBlockReference
2
UNIT_DISC
10
-124.949
20
-16.9995
41
0.4
42
0.4
50
0
0
INSERT
5
64
100
AcDbEntity
8
F_Cu_____________
62
256
100
AcDbBlockReference
2
UNIT_DISC
10
-124.949
20
-16.9995
41
0.4
42
0.4
50
0
0
LWPOLYLINE
5
65
100
AcDbEntity
8
F_Cu_____________
62
256
100
AcDbPolyline
90
2
70
0
43
0.4
10
-124.949
20
-16.9995
10
-124.8935
20
-17.0819
0
INSERT
5
66
100
AcDbEntity
8
F_Cu_____________
62
256
100
AcDbBlockReference
2
UNIT_DISC
10
-124.8935
20
-17.0819
41
0.4
42
0.4
50
0
0
INSERT
5
67
100
AcDbEntity
8
F_Cu_____________
62
256
100
AcDbBlockReference
2
UNIT_DISC
10
-124.8935
20
-17.0819
41
0.4
42
0.4
50
0
0
LWPOLYLINE
5
68
100
AcDbEntity
8
F_Cu_____________
62
256
100
AcDbPolyline
90
2
70
0
43
0.4
10
-124.8935
20
-17.0819
10
-124.4152
20
-17.5622
0
INSERT
5
69
100
AcDbEntity
8
F_Cu_____________
62
256
100
AcDbBlockReference
2
UNIT_DISC
10
-124.4152
20
-17.5622
41
0.4
42
0.4
50
0
0
INSERT
5
70
100
AcDbEntity
8
F_Cu_____________
62
256
100
AcDbBlockReference
2
UNIT_DISC
10
-124.4152
20
-17.5622
41
0.4
42
0.4
50
0
0
LWPOLYLINE
5
71
100
AcDbEntity
8
F_Cu_____________
62
256
100
AcDbPolyline
90
2
70
0
43
0.4
10
-124.4152
20
-17.5622
10
-124.1786
20
-17.8755
0
INSERT
5
72
100
AcDbEntity
8
F_Cu_____________
62
256
100
AcDbBlockReference
2
UNIT_DISC
10
-124.1786
20
-17.8755
41
0.4
42
0.4
50
0
0
INSERT
5
73
100
AcDbEntity
8
F_Cu_____________
62
256
100
AcDbBlockReference
2
UNIT_DISC
10
-124.1786
20
-17.8755
41
0.4
42
0.4
50
0
0
LWPOLYLINE
5
74
100
AcDbEntity
8
F_Cu_____________
62
256
100
AcDbPolyline
90
2
70
0
43
0.4
10
-124.1786
20
-17.8755
10
-124.1606
20
-17.8936
0
INSERT
5
75
100
AcDbEntity
8
F_Cu_____________
62
256
100
AcDbBlockReference
2
UNIT_DISC
10
-124.1606
20
-17.8936
41
0.4
42
0.4
50
0
0
INSERT
5
76
100
AcDbEntity
8
F_Cu_____________
62
256
100
AcDbBlockReference
2
UNIT_DISC
10
-124.1606
20
-17.8936
41
0.4
42
0.4
50
0
0
LWPOLYLINE
5
77
100
AcDbEntity
8
F_Cu_____________
62
256
100
AcDbPolyline
90
2
70
0
43
0.4
10
-124.1606
20
-17.8936
10
-123.2673
20
-18.636
0
INSERT
5
78
100
AcDbEntity
8
F_Cu_____________
62
256
100
AcDbBlockReference
2
UNIT_DISC
10
-123.2673
20
-18.636
41
0.4
42
0.4
50
0
0
INSERT
5
79
100
AcDbEntity
8
F_Cu_____________
62
256
100
AcDbBlockReference
2
UNIT_DISC
10
-123.4887
20
-21.1664
41
0.4
42
0.4
50
0
0
LWPOLYLINE
5
80
100
AcDbEntity
8
F_Cu_____________
62
256
100
AcDbPolyline
90
2
70
0
43
0.4
10
-123.4887
20
-21.1664
10
-124.2771
20
-20.9876
0
INSERT
5
81
100
AcDbEntity
8
F_Cu_____________
62
256
100
AcDbBlockReference
2
UNIT_DISC
10
-124.2771
20
-20.9876
41
0.4
42
0.4
50
0
0
INSERT
5
82
100
AcDbEntity
8
F_Cu_____________
62
256
100
AcDbBlockReference
2
UNIT_DISC
10
-124.2771
20
-20.9876
41
0.4
42
0.4
50
0
0
LWPOLYLINE
5
83
100
AcDbEntity
8
F_Cu_____________
62
256
100
AcDbPolyline
90
2
70
0
43
0.4
10
-124.2771
20
-20.9876
10
-124.4763
20
-20.9702
0
INSERT
5
84
100
AcDbEntity
8
F_Cu_____________
62
256
100
AcDbBlockReference
2
UNIT_DISC
10
-124.4763
20
-20.9702
41
0.4
42
0.4
50
0
0
INSERT
5
85
100
AcDbEntity
8
F_Cu_____________
62
256
100
AcDbBlockReference
2
UNIT_DISC
10
-124.4763
20
-20.9702
41
0.4
42
0.4
50
0
0
LWPOLYLINE
5
86
100
AcDbEntity
8
F_Cu_____________
62
256
100
AcDbPolyline
90
2
70
0
43
0.4
10
-124.4763
20
-20.9702
10
-126.996
20
-20.7499
0
INSERT
5
87
100
AcDbEntity
8
F_Cu_____________
62
256
100
AcDbBlockReference
2
UNIT_DISC
10
-126.996
20
-20.7499
41
0.4
42
0.4
50
0
0
INSERT
5
88
100
AcDbEntity
8
F_Cu_____________
62
256
100
AcDbBlockReference
2
UNIT_DISC
10
-126.996
20
-20.7499
41
0.4
42
0.4
50
0
0
LWPOLYLINE
5
89
100
AcDbEntity
8
F_Cu_____________
62
256
100
AcDbPolyline
90
2
70
0
43
0.4
10
-126.996
20
-20.7499
10
-127.363
20
-20.5979
0
INSERT
5
90
100
AcDbEntity
8
F_Cu_____________
62
256
100
AcDbBlockReference
2
UNIT_DISC
10
-127.363
20
-20.5979
41
0.4
42
0.4
50
0
0
INSERT
5
91
100
AcDbEntity
8
F_Cu_____________
62
256
100
AcDbBlockReference
2
UNIT_DISC
10
-127.363
20
-20.5979
41
0.4
42
0.4
50
0
0
LWPOLYLINE
5
92
100
AcDbEntity
8
F_Cu_____________
62
256
100
AcDbPolyline
90
2
70
0
43
0.4
10
-127.363
20
-20.5979
10
-128.3873
20
-19.5736
0
INSERT
5
93
100
AcDbEntity
8
F_Cu_____________
62
256
100
AcDbBlockReference
2
UNIT_DISC
10
-128.3873
20
-19.5736
41
0.4
42
0.4
50
0
0
INSERT
5
94
100
AcDbEntity
8
F_Cu_____________
62
256
100
AcDbBlockReference
2
UNIT_DISC
10
-128.3873
20
-19.5736
41
0.4
42
0.4
50
0
0
LWPOLYLINE
5
95
100
AcDbEntity
8
F_Cu_____________
62
256
100
AcDbPolyline
90
2
70
0
43
0.4
10
-128.3873
20
-19.5736
10
-128.5393
20
-19.2066
0
INSERT
5
96
100
AcDbEntity
8
F_Cu_____________
62
256
100
AcDbBlockReference
2
UNIT_DISC
10
-128.5393
20
-19.2066
41
0.4
42
0.4
50
0
0
INSERT
5
97
100
AcDbEntity
8
F_Cu_____________
62
256
100
AcDbBlockReference
2
UNIT_DISC
10
-128.5393
20
-19.2066
41
0.4
42
0.4
50
0
0
LWPOLYLINE
5
98
100
AcDbEntity
8
F_Cu_____________
62
256
100
AcDbPolyline
90
2
70
0
43
0.4
10
-128.5393
20
-19.2066
10
-130.1237
20
-9.8684
0
INSERT
5
99
100
AcDbEntity
8
F_Cu_____________
62
256
100
AcDbBlockReference
2
UNIT_DISC
10
-130.1237
20
-9.8684
41
0.4
42
0.4
50
0
0
INSERT
5
100
100
AcDbEntity
8
F_Cu_____________
62
256
100
AcDbBlockReference
2
UNIT_DISC
10
-125.9498
20
-11.4043
41
0.4
42
0.4
50
0
0
LWPOLYLINE
5
101
100
AcDbEntity
8
F_Cu_____________
62
256
100
AcDbPolyline
90
2
70
0
43
0.4
10
-125.9498
20
-11.4043
10
-127.8098
20
-8.6436
0
INSERT
5
102
100
AcDbEntity
8
F_Cu_____________
62
256
100
AcDbBlockReference
2
UNIT_DISC
10
-127.8098
20
-8.6436
41
0.4
42
0.4
50
0
0
INSERT
5
103
100
AcDbEntity
8
F_Cu_____________
62
256
100
AcDbBlockReference
2
UNIT_DISC
10
-127.8098
20
-8.6436
41
0.4
42
0.4
50
0
0
LWPOLYLINE
5
104
100
AcDbEntity
8
F_Cu_____________
62
256
100
AcDbPolyline
90
2
70
0
43
0.4
10
-127.8098
20
-8.6436
10
-128.5993
20
-7.7213
0
INSERT
5
105
100
AcDbEntity
8
F_Cu_____________
62
256
100
AcDbBlockReference
2
UNIT_DISC
10
-128.5993
20
-7.7213
41
0.4
42
0.4
50
0
0
INSERT
5
106
100
AcDbEntity
8
F_Cu_____________
62
256
100
AcDbBlockReference
2
UNIT_DISC
10
-128.5993
20
-7.7213
41
0.4
42
0.4
50
0
0
LWPOLYLINE
5
107
100
AcDbEntity
8
F_Cu_____________
62
256
100
AcDbPolyline
90
2
70
0
43
0.4
10
-128.5993
20
-7.7213
10
-129.3508
20
-6.9698
0
INSERT
5
108
100
AcDbEntity
8
F_Cu_____________
62
256
100
AcDbBlockReference
2
UNIT_DISC
10
-129.3508
20
-6.9698
41
0.4
42
0.4
50
0
0
INSERT
5
109
100
AcDbEntity
8
F_Cu_____________
62
256
100
AcDbBlockReference
2
UNIT_DISC
10
-129.3508
20
-6.9698
41
0.4
42
0.4
50
0
0
LWPOLYLINE
5
110
100
AcDbEntity
8
F_Cu_____________
62
256
100
AcDbPolyline
90
2
70
0
43
0.4
10
-129.3508
20
-6.9698
10
-129.3612
20
-6.9655
0
INSERT
5
111
100
AcDbEntity
8
F_Cu_____________
62
256
100
AcDbBlockReference
2
UNIT_DISC
10
-129.3612
20
-6.9655
41
0.4
42
0.4
50
0
0
INSERT
5
112
100
AcDbEntity
8
F_Cu_____________
62
256
100
AcDbBlockReference
2
UNIT_DISC
10
-129.3612
20
-6.9655
41
0.4
42
0.4
50
0
0
LWPOLYLINE
5
113
100
AcDbEntity
8
F_Cu_____________
62
256
100
AcDbPolyline
90
2
70
0
43
0.4
10
-129.3612
20
-6.9655
10
-130.4298
20
-6.9655
0
INSERT
5
114
100
AcDbEntity
8
F_Cu_____________
62
256
100
AcDbBlockReference
2
UNIT_DISC
10
-130.4298
20
-6.9655
41
0.4
42
0.4
50
0
0
INSERT
5
115
100
AcDbEntity
8
F_Cu_____________
62
256
100
AcDbBlockReference
2
UNIT_DISC
10
-130.4298
20
-6.9655
41
0.4
42
0.4
50
0
0
LWPOLYLINE
5
116
100
AcDbEntity
8
F_Cu_____________
62
256
100
AcDbPolyline
90
2
70
0
43
0.4
10
-130.4298
20
-6.9655
10
-130.4402
20
-6.9698
0
INSERT
5
117
100
AcDbEntity
8
F_Cu_____________
62
256
100
AcDbBlockReference
2
UNIT_DISC
10
-130.4402
20
-6.9698
41
0.4
42
0.4
50
0
0
INSERT
5
118
100
AcDbEntity
8
F_Cu_____________
62
256
100
AcDbBlockReference
2
UNIT_DISC
10
-130.4402
20
-6.9698
41
0.4
42
0.4
50
0
0
LWPOLYLINE
5
119
100
AcDbEntity
8
F_Cu_____________
62
256
100
AcDbPolyline
90
2
70
0
43
0.4
10
-130.4402
20
-6.9698
10
-131.1917
20
-7.7213
0
INSERT
5
120
100
AcDbEntity
8
F_Cu_____________
62
256
100
AcDbBlockReference
2
UNIT_DISC
10
-131.1917
20
-7.7213
41
0.4
42
0.4
50
0
0
INSERT
5
121
100
AcDbEntity
8
F_Cu_____________
62
256
100
AcDbBlockReference
2
UNIT_DISC
10
-131.1917
20
-7.7213
41
0.4
42
0.4
50
0
0
LWPOLYLINE
5
122
100
AcDbEntity
8
F_Cu_____________
62
256
100
AcDbPolyline
90
2
70
0
43
0.4
10
-131.1917
20
-7.7213
10
-131.196
20
-7.7317
0
INSERT
5
123
100
AcDbEntity
8
F_Cu_____________
62
256
100
AcDbBlockReference
2
UNIT_DISC
10
-131.196
20
-7.7317
41
0.4
42
0.4
50
0
0
INSERT
5
124
100
AcDbEntity
8
F_Cu_____________
62
256
100
AcDbBlockReference
2
UNIT_DISC
10
-131.196
20
-7.7317
41
0.4
42
0.4
50
0
0
LWPOLYLINE
5
125
100
AcDbEntity
8
F_Cu_____________
62
256
100
AcDbPolyline
90
2
70
0
43
0.4
10
-131.196
20
-7.7317
10
-131.4242
20
-9.3341
0
INSERT
5
126
100
AcDbEntity
8
F_Cu_____________
62
256
100
AcDbBlockReference
2
UNIT_DISC
10
-131.4242
20
-9.3341
41
0.4
42
0.4
50
0
0
INSERT
5
127
100
AcDbEntity
8
F_Cu_____________
62
256
100
AcDbBlockReference
2
UNIT_DISC
10
-131.4242
20
-9.3341
41
0.4
42
0.4
50
0
0
LWPOLYLINE
5
128
100
AcDbEntity
8
F_Cu_____________
62
256
100
AcDbPolyline
90
2
70
0
43
0.4
10
-131.4242
20
-9.3341
10
-131.4242
20
-10.4027
0
INSERT
5
129
100
AcDbEntity
8
F_Cu_____________
62
256
100
AcDbBlockReference
2
UNIT_DISC
10
-131.4242
20
-10.4027
41
0.4
42
0.4
50
0
0
INSERT
5
130
100
AcDbEntity
8
F_Cu_____________
62
256
100
AcDbBlockReference
2
UNIT_DISC
10
-131.4242
20
-10.4027
41
0.4
42
0.4
50
0
0
LWPOLYLINE
5
131
100
AcDbEntity
8
F_Cu_____________
62
256
100
AcDbPolyline
90
2
70
0
43
0.4
10
-131.4242
20
-10.4027
10
-129.7398
20
-19.3768
0
INSERT
5
132
100
AcDbEntity
8
F_Cu_____________
62
256
100
AcDbBlockReference
2
UNIT_DISC
10
-129.7398
20
-19.3768
41
0.4
42
0.4
50
0
0
INSERT
5
133
100
AcDbEntity
8
F_Cu_____________
62
256
100
AcDbBlockReference
2
UNIT_DISC
10
-129.7398
20
-19.3768
41
0.4
42
0.4
50
0
0
LWPOLYLINE
5
134
100
AcDbEntity
8
F_Cu_____________
62
256
100
AcDbPolyline
90
2
70
0
43
0.4
10
-129.7398
20
-19.3768
10
-129.6951
20
-19.5548
0
INSERT
5
135
100
AcDbEntity
8
F_Cu_____________
62
256
100
AcDbBlockReference
2
UNIT_DISC
10
-129.6951
20
-19.5548
41
0.4
42
0.4
50
0
0
INSERT
5
136
100
AcDbEntity
8
F_Cu_____________
62
256
100
AcDbBlockReference
2
UNIT_DISC
10
-129.6951
20
-19.5548
41
0.4
42
0.4
50
0
0
LWPOLYLINE
5
137
100
AcDbEntity
8
F_Cu_____________
62
256
100
AcDbPolyline
90
2
70
0
43
0.4
10
-129.6951
20
-19.5548
10
-129.4499
20
-20.1462
0
INSERT
5
138
100
AcDbEntity
8
F_Cu_____________
62
256
100
AcDbBlockReference
2
UNIT_DISC
10
-129.4499
20
-20.1462
41
0.4
42
0.4
50
0
0
INSERT
5
139
100
AcDbEntity
8
F_Cu_____________
62
256
100
AcDbBlockReference
2
UNIT_DISC
10
-129.4499
20
-20.1462
41
0.4
42
0.4
50
0
0
LWPOLYLINE
5
140
100
AcDbEntity
8
F_Cu_____________
62
256
100
AcDbPolyline
90
2
70
0
43
0.4
10
-129.4499
20
-20.1462
10
-129.3556
20
-20.3036
0
INSERT
5
141
100
AcDbEntity
8
F_Cu_____________
62
256
100
AcDbBlockReference
2
UNIT_DISC
10
-129.3556
20
-20.3036
41
0.4
42
0.4
50
0
0
INSERT
5
142
100
AcDbEntity
8
F_Cu_____________
62
256
100
AcDbBlockReference
2
UNIT_DISC
10
-129.3556
20
-20.3036
41
0.4
42
0.4
50
0
0
LWPOLYLINE
5
143
100
AcDbEntity
8
F_Cu_____________
62
256
100
AcDbPolyline
90
2
70
0
43
0.4
10
-129.3556
20
-20.3036
10
-125.6957
20
-24.73
0
INSERT
5
144
100
AcDbEntity
8
F_Cu_____________
62
256
100
AcDbBlockReference
2
UNIT_DISC
10
-125.6957
20
-24.73
41
0.4
42
0.4
50
0
0
INSERT
5
145
100
AcDbEntity
8
F_Cu_____________
62
256
100
AcDbBlockReference
2
UNIT_DISC
10
-125.6957
20
-24.73
41
0.4
42
0.4
50
0
0
LWPOLYLINE
5
146
100
AcDbEntity
8
F_Cu_____________
62
256
100
AcDbPolyline
90
2
70
0
43
0.4
10
-125.6957
20
-24.73
10
-125.1096
20
-25.3161
0
INSERT
5
147
100
AcDbEntity
8
F_Cu_____________
62
256
100
AcDbBlockReference
2
UNIT_DISC
10
-125.1096
20
-25.3161
41
0.4
42
0.4
50
0
0
INSERT
5
148
100
AcDbEntity
8
F_Cu_____________
62
256
100
AcDbBlockReference
2
UNIT_DISC
10
-125.1096
20
-25.3161
41
0.4
42
0.4
50
0
0
LWPOLYLINE
5
149
100
AcDbEntity
8
F_Cu_____________
62
256
100
AcDbPolyline
90
2
70
0
43
0.4
10
-125.1096
20
-25.3161
10
-124.8352
20
-25.4742
0
INSERT
5
150
100
AcDbEntity
8
F_Cu_____________
62
256
100
AcDbBlockReference
2
UNIT_DISC
10
-124.8352
20
-25.4742
41
0.4
42
0.4
50
0
0
INSERT
5
151
100
AcDbEntity
8
F_Cu_____________
62
256
100
AcDbBlockReference
2
UNIT_DISC
10
-124.8352
20
-25.4742
41
0.4
42
0.4
50
0
0
LWPOLYLINE
5
152
100
AcDbEntity
8
F_Cu_____________
62
256
100
AcDbPolyline
90
2
70
0
43
0.4
10
-124.8352
20
-25.4742
10
-124.8247
20
-25.4846
0
INSERT
5
153
100
AcDbEntity
8
F_Cu_____________
62
256
100
AcDbBlockReference
2
UNIT_DISC
10
-124.8247
20
-25.4846
41
0.4
42
0.4
50
0
0
INSERT
5
154
100
AcDbEntity
8
F_Cu_____________
62
256
100
AcDbBlockReference
2
UNIT_DISC
10
-124.8247
20
-25.4846
41
0.4
42
0.4
50
0
0
LWPOLYLINE
5
155
100
AcDbEntity
8
F_Cu_____________
62
256
100
AcDbPolyline
90
2
70
0
43
0.4
10
-124.8247
20
-25.4846
10
-123.9314
20
-26.227
0
INSERT
5
156
100
AcDbEntity
8
F_Cu_____________
62
256
100
AcDbBlockReference
2
UNIT_DISC
10
-123.9314
20
-26.227
41
0.4
42
0.4
50
0
0
INSERT
5
157
100
AcDbEntity
8
F_Cu_____________
62
256
100
AcDbBlockReference
2
UNIT_DISC
10
-141.2866
20
-17.812
41
0.4
42
0.4
50
0
0
LWPOLYLINE
5
158
100
AcDbEntity
8
F_Cu_____________
62
256
100
AcDbPolyline
90
2
70
0
43
0.4
10
-141.2866
20
-17.812
10
-138.5305
20
-17.719
0
INSERT
5
159
100
AcDbEntity
8
F_Cu_____________
62
256
100
AcDbBlockReference
2
UNIT_DISC
10
-138.5305
20
-17.719
41
0.4
42
0.4
50
0
0
INSERT
5
160
100
AcDbEntity
8
F_Cu_____________
62
256
100
AcDbBlockReference
2
UNIT_DISC
10
-138.5305
20
-17.719
41
0.4
42
0.4
50
0
0
LWPOLYLINE
5
161
100
AcDbEntity
8
F_Cu_____________
62
256
100
AcDbPolyline
90
2
70
0
43
0.4
10
-138.5305
20
-17.719
10
-136.7471
20
-16.2808
0
INSERT
5
162
100
AcDbEntity
8
F_Cu_____________
62
256
100
AcDbBlockReference
2
UNIT_DISC
10
-136.7471
20
-16.2808
41
0.4
42
0.4
50
0
0
INSERT
5
163
100
AcDbEntity
8
F_Cu_____________
62
256
100
AcDbBlockReference
2
UNIT_DISC
10
-136.7471
20
-16.2808
41
0.4
42
0.4
50
0
0
LWPOLYLINE
5
164
100
AcDbEntity
8
F_Cu_____________
62
256
100
AcDbPolyline
90
2
70
0
43
0.4
10
-136.7471
20
-16.2808
10
-132.2094
20
-7.0412
0
INSERT
5
165
100
AcDbEntity
8
F_Cu_____________
62
256
100
AcDbBlockReference
2
UNIT_DISC
10
-132.2094
20
-7.0412
41
0.4
42
0.4
50
0
0
INSERT
5
166
100
AcDbEntity
8
F_Cu_____________
62
256
100
AcDbBlockReference
2
UNIT_DISC
10
-132.2094
20
-7.0412
41
0.4
42
0.4
50
0
0
LWPOLYLINE
5
167
100
AcDbEntity
8
F_Cu_____________
62
256
100
AcDbPolyline
90
2
70
0
43
0.4
10
-132.2094
20
-7.0412
10
-131.1203
20
-5.9521
0
INSERT
5
168
100
AcDbEntity
8
F_Cu_____________
62
256
100
AcDbBlockReference
2
UNIT_DISC
10
-131.1203
20
-5.9521
41
0.4
42
0.4
50
0
0
INSERT
5
169
100
AcDbEntity
8
F_Cu_____________
62
256
100
AcDbBlockReference
2
UNIT_DISC
10
-131.1203
20
-5.9521
41
0.4
42
0.4
50
0
0
LWPOLYLINE
5
170
100
AcDbEntity
8
F_Cu_____________
62
256
100
AcDbPolyline
90
2
70
0
43
0.4
10
-131.1203
20
-5.9521
10
-130.6686
20
-5.765
0
INSERT
5
171
100
AcDbEntity
8
F_Cu_____________
62
256
100
AcDbBlockReference
2
UNIT_DISC
10
-130.6686
20
-5.765
41
0.4
42
0.4
50
0
0
INSERT
5
172
100
AcDbEntity
8
F_Cu_____________
62
256
100
AcDbBlockReference
2
UNIT_DISC
10
-130.6686
20
-5.765
41
0.4
42
0.4
50
0
0
LWPOLYLINE
5
173
100
AcDbEntity
8
F_Cu_____________
62
256
100
AcDbPolyline
90
2
70
0
43
0.4
10
-130.6686
20
-5.765
10
-130.3106
20
-5.7558
0
INSERT
5
174
100
AcDbEntity
8
F_Cu_____________
62
256
100
AcDbBlockReference
2
UNIT_DISC
10
-130.3106
20
-5.7558
41
0.4
42
0.4
50
0
0
INSERT
5
175
100
AcDbEntity
8
F_Cu_____________
62
256
100
AcDbBlockReference
2
UNIT_DISC
10
-130.3106
20
-5.7558
41
0.4
42
0.4
50
0
0
LWPOLYLINE
5
176
100
AcDbEntity
8
F_Cu_____________
62
256
100
AcDbPolyline
90
2
70
0
43
0.4
10
-130.3106
20
-5.7558
10
-124.6239
20
-5.3894
0
INSERT
5
177
100
AcDbEntity
8
F_Cu_____________
62
256
100
AcDbBlockReference
2
UNIT_DISC
10
-124.6239
20
-5.3894
41
0.4
42
0.4
50
0
0
INSERT
5
178
100
AcDbEntity
8
F_Cu_____________
62
256
100
AcDbBlockReference
2
UNIT_DISC
10
-124.6239
20
-5.3894
41
0.4
42
0.4
50
0
0
LWPOLYLINE
5
179
100
AcDbEntity
8
F_Cu_____________
62
256
100
AcDbPolyline
90
2
70
0
43
0.4
10
-124.6239
20
-5.3894
10
-123.5553
20
-5.3894
0
INSERT
5
180
100
AcDbEntity
8
F_Cu_____________
62
256
100
AcDbBlockReference
2
UNIT_DISC
10
-123.5553
20
-5.3894
41
0.4
42
0.4
50
0
0
INSERT
5
181
100
AcDbEntity
8
F_Cu_____________
62
256
100
AcDbBlockReference
2
UNIT_DISC
10
-123.5553
20
-5.3894
41
0.4
42
0.4
50
0
0
LWPOLYLINE
5
182
100
AcDbEntity
8
F_Cu_____________
62
256
100
AcDbPolyline
90
2
70
0
43
0.4
10
-123.5553
20
-5.3894
10
-105.9107
20
-8.8766
0
INSERT
5
183
100
AcDbEntity
8
F_Cu_____________
62
256
100
AcDbBlockReference
2
UNIT_DISC
10
-105.9107
20
-8.8766
41
0.4
42
0.4
50
0
0
INSERT
5
184
100
AcDbEntity
8
F_Cu_____________
62
256
100
AcDbBlockReference
2
UNIT_DISC
10
-105.9107
20
-8.8766
41
0.4
42
0.4
50
0
0
LWPOLYLINE
5
185
100
AcDbEntity
8
F_Cu_____________
62
256
100
AcDbPolyline
90
2
70
0
43
0.4
10
-105.9107
20
-8.8766
10
-105.7677
20
-8.9129
0
INSERT
5
186
100
AcDbEntity
8
F_Cu_____________
62
256
100
AcDbBlockReference
2
UNIT_DISC
10
-105.7677
20
-8.9129
41
0.4
42
0.4
50
0
0
INSERT
5
187
100
AcDbEntity
8
F_Cu_____________
62
256
100
AcDbBlockReference
2
UNIT_DISC
10
-105.7677
20
-8.9129
41
0.4
42
0.4
50
0
0
LWPOLYLINE
5
188
100
AcDbEntity
8
F_Cu_____________
62
256
100
AcDbPolyline
90
2
70
0
43
0.4
10
-105.7677
20
-8.9129
10
-105.6247
20
-8.961
0
INSERT
5
189
100
AcDbEntity
8
F_Cu_____________
62
256
100
AcDbBlockReference
2
UNIT_DISC
10
-105.6247
20
-8.961
41
0.4
42
0.4
50
0
0
INSERT
5
190
100
AcDbEntity
8
F_Cu_____________
62
256
100
AcDbBlockReference
2
UNIT_DISC
10
-105.6247
20
-8.961
41
0.4
42
0.4
50
0
0
LWPOLYLINE
5
191
100
AcDbEntity
8
F_Cu_____________
62
256
100
AcDbPolyline
90
2
70
0
43
0.4
10
-105.6247
20
-8.961
10
-105.4847
20
-9.0203
0
INSERT
5
192
100
AcDbEntity
8
F_Cu_____________
62
256
100
AcDbBlockReference
2
UNIT_DISC
10
-105.4847
20
-9.0203
41
0.4
42
0.4
50
0
0
INSERT
5
193
100
AcDbEntity
8
F_Cu_____________
62
256
100
AcDbBlockReference
2
UNIT_DISC
10
-105.4847
20
-9.0203
41
0.4
42
0.4
50
0
0
LWPOLYLINE
5
194
100
AcDbEntity
8
F_Cu_____________
62
256
100
AcDbPolyline
90
2
70
0
43
0.4
10
-105.4847
20
-9.0203
10
-105.4619
20
-9.032
0
INSERT
5
195
100
AcDbEntity
8
F_Cu_____________
62
256
100
AcDbBlockReference
2
UNIT_DISC
10
-105.4619
20
-9.032
41
0.4
42
0.4
50
0
0
INSERT
5
196
100
AcDbEntity
8
F_Cu_____________
62
256
100
AcDbBlockReference
2
UNIT_DISC
10
-105.4619
20
-9.032
41
0.4
42
0.4
50
0
0
LWPOLYLINE
5
197
100
AcDbEntity
8
F_Cu_____________
62
256
100
AcDbPolyline
90
2
70
0
43
0.4
10
-105.4619
20
-9.032
10
-105.3487
20
-9.0902
0
INSERT
5
198
100
AcDbEntity
8
F_Cu_____________
62
256
100
AcDbBlockReference
2
UNIT_DISC
10
-105.3487
20
-9.0902
41
0.4
42
0.4
50
0
0
INSERT
5
199
100
AcDbEntity
8
F_Cu_____________
62
256
100
AcDbBlockReference
2
UNIT_DISC
10
-105.3487
20
-9.0902
41
0.4
42
0.4
50
0
0
LWPOLYLINE
5
200
100
AcDbEntity
8
F_Cu_____________
62
256
100
AcDbPolyline
90
2
70
0
43
0.4
10
-105.3487
20
-9.0902
10
-105.2237
20
-9.1673
0
INSERT
5
201
100
AcDbEntity
8
F_Cu_____________
62
256
100
AcDbBlockReference
2
UNIT_DISC
10
-105.2237
20
-9.1673
41
0.4
42
0.4
50
0
0
INSERT
5
202
100
AcDbEntity
8
F_Cu_____________
62
256
100
AcDbBlockReference
2
UNIT_DISC
10
-105.2237
20
-9.1673
41
0.4
42
0.4
50
0
0
LWPOLYLINE
5
203
100
AcDbEntity
8
F_Cu_____________
62
256
100
AcDbPolyline
90
2
70
0
43
0.4
10
-105.2237
20
-9.1673
10
-105.1007
20
-9.253
0
INSERT
5
204
100
AcDbEntity
8
F_Cu_____________
62
256
100
AcDbBlockReference
2
UNIT_DISC
10
-105.1007
20
-9.253
41
0.4
42
0.4
50
0
0
INSERT
5
205
100
AcDbEntity
8
F_Cu_____________
62
256
100
AcDbBlockReference
2
UNIT_DISC
10
-105.1007
20
-9.253
41
0.4
42
0.4
50
0
0
LWPOLYLINE
5
206
100
AcDbEntity
8
F_Cu_____________
62
256
100
AcDbPolyline
90
2
70
0
43
0.4
10
-105.1007
20
-9.253
10
-105.0809
20
-9.2693
0
INSERT
5
207
100
AcDbEntity
8
F_Cu_____________
62
256
100
AcDbBlockReference
2
UNIT_DISC
10
-105.0809
20
-9.2693
41
0.4
42
0.4
50
0
0
INSERT
5
208
100
AcDbEntity
8
F_Cu_____________
62
256
100
AcDbBlockReference
2
UNIT_DISC
10
-105.0809
20
-9.2693
41
0.4
42
0.4
50
0
0
LWPOLYLINE
5
209
100
AcDbEntity
8
F_Cu_____________
62
256
100
AcDbPolyline
90
2
70
0
43
0.4
10
-105.0809
20
-9.2693
10
-104.9847
20
-9.3489
0
INSERT
5
210
100
AcDbEntity
8
F_Cu_____________
62
256
100
AcDbBlockReference
2
UNIT_DISC
10
-104.9847
20
-9.3489
41
0.4
42
0.4
50
0
0
INSERT
5
211
100
AcDbEntity
8
F_Cu_____________
62
256
100
AcDbBlockReference
2
UNIT_DISC
10
-104.9847
20
-9.3489
41
0.4
42
0.4
50
0
0
LWPOLYLINE
5
212
100
AcDbEntity
8
F_Cu_____________
62
256
100
AcDbPolyline
90
2
70
0
43
0.4
10
-104.9847
20
-9.3489
10
-104.8747
20
-9.4507
0
INSERT
5
213
100
AcDbEntity
8
F_Cu_____________
62
256
100
AcDbBlockReference
2
UNIT_DISC
10
-104.8747
20
-9.4507
41
0.4
42
0.4
50
0
0
INSERT
5
214
100
AcDbEntity
8
F_Cu_____________
62
256
100
AcDbBlockReference
2
UNIT_DISC
10
-104.8747
20
-9.4507
41
0.4
42
0.4
50
0
0
LWPOLYLINE
5
215
100
AcDbEntity
8
F_Cu_____________
62
256
100
AcDbPolyline
90
2
70
0
43
0.4
10
-104.8747
20
-9.4507
10
-104.5815
20
-9.7439
0
INSERT
5
216
100
AcDbEntity
8
F_Cu_____________
62
256
100
AcDbBlockReference
2
UNIT_DISC
10
-104.5815
20
-9.7439
41
0.4
42
0.4
50
0
0
INSERT
5
217
100
AcDbEntity
8
F_Cu_____________
62
256
100
AcDbBlockReference
2
UNIT_DISC
10
-104.5815
20
-9.7439
41
0.4
42
0.4
50
0
0
LWPOLYLINE
5
218
100
AcDbEntity
8
F_Cu_____________
62
256
100
AcDbPolyline
90
2
70
0
43
0.4
10
-104.5815
20
-9.7439
10
-104.5643
20
-9.7629
0
INSERT
5
219
100
AcDbEntity
8
F_Cu_____________
62
256
100
AcDbBlockReference
2
UNIT_DISC
10
-104.5643
20
-9.7629
41
0.4
42
0.4
50
0
0
INSERT
5
220
100
AcDbEntity
8
F_Cu_____________
62
256
100
AcDbBlockReference
2
UNIT_DISC
10
-104.5643
20
-9.7629
41
0.4
42
0.4
50
0
0
LWPOLYLINE
5
221
100
AcDbEntity
8
F_Cu_____________
62
256
100
AcDbPolyline
90
2
70
0
43
0.4
10
-104.5643
20
-9.7629
10
-104.4805
20
-9.8561
0
INSERT
5
222
100
AcDbEntity
8
F_Cu_____________
62
256
100
AcDbBlockReference
2
UNIT_DISC
10
-104.4805
20
-9.8561
41
0.4
42
0.4
50
0
0
INSERT
5
223
100
AcDbEntity
8
F_Cu_____________
62
256
100
AcDbBlockReference
2
UNIT_DISC
10
-104.4805
20
-9.8561
41
0.4
42
0.4
50
0
0
LWPOLYLINE
5
224
100
AcDbEntity
8
F_Cu_____________
62
256
100
AcDbPolyline
90
2
70
0
43
0.4
10
-104.4805
20
-9.8561
10
-104.3845
20
-9.9736
0
INSERT
5
225
100
AcDbEntity
8
F_Cu_____________
62
256
100
AcDbBlockReference
2
UNIT_DISC
10
-104.3845
20
-9.9736
41
0.4
42
0.4
50
0
0
INSERT
5
226
100
AcDbEntity
8
F_Cu_____________
62
256
100
AcDbBlockReference
2
UNIT_DISC
10
-104.3845
20
-9.9736
41
0.4
42
0.4
50
0
0
LWPOLYLINE
5
227
100
AcDbEntity
8
F_Cu_____________
62
256
100
AcDbPolyline
90
2
70
0
43
0.4
10
-104.3845
20
-9.9736
10
-104.3015
20
-10.0986
0
INSERT
5
228
100
AcDbEntity
8
F_Cu_____________
62
256
100
AcDbBlockReference
2
UNIT_DISC
10
-104.3015
20
-10.0986
41
0.4
42
0.4
50
0
0
INSERT
5
229
100
AcDbEntity
8
F_Cu_____________
62
256
100
AcDbBlockReference
2
UNIT_DISC
10
-104.3015
20
-10.0986
41
0.4
42
0.4
50
0
0
LWPOLYLINE
5
230
100
AcDbEntity
8
F_Cu_____________
62
256
100
AcDbPolyline
90
2
70
0
43
0.4
10
-104.3015
20
-10.0986
10
-104.2859
20
-10.1251
0
INSERT
5
231
100
AcDbEntity
8
F_Cu_____________
62
256
100
AcDbBlockReference
2
UNIT_DISC
10
-104.2859
20
-10.1251
41
0.4
42
0.4
50
0
0
INSERT
5
232
100
AcDbEntity
8
F_Cu_____________
62
256
100
AcDbBlockReference
2
UNIT_DISC
10
-104.2859
20
-10.1251
41
0.4
42
0.4
50
0
0
LWPOLYLINE
5
233
100
AcDbEntity
8
F_Cu_____________
62
256
100
AcDbPolyline
90
2
70
0
43
0.4
10
-104.2859
20
-10.1251
10
-104.2255
20
-10.2278
0
INSERT
5
234
100
AcDbEntity
8
F_Cu_____________
62
256
100
AcDbBlockReference
2
UNIT_DISC
10
-104.2255
20
-10.2278
41
0.4
42
0.4
50
0
0
INSERT
5
235
100
AcDbEntity
8
F_Cu_____________
62
256
100
AcDbBlockReference
2
UNIT_DISC
10
-104.2255
20
-10.2278
41
0.4
42
0.4
50
0
0
LWPOLYLINE
5
236
100
AcDbEntity
8
F_Cu_____________
62
256
100
AcDbPolyline
90
2
70
0
43
0.4
10
-104.2255
20
-10.2278
10
-104.2141
20
-10.2509
0
INSERT
5
237
100
AcDbEntity
8
F_Cu_____________
62
256
100
AcDbBlockReference
2
UNIT_DISC
10
-104.2141
20
-10.2509
41
0.4
42
0.4
50
0
0
INSERT
5
238
100
AcDbEntity
8
F_Cu_____________
62
256
100
AcDbBlockReference
2
UNIT_DISC
10
-104.2141
20
-10.2509
41
0.4
42
0.4
50
0
0
LWPOLYLINE
5
239
100
AcDbEntity
8
F_Cu_____________
62
256
100
AcDbPolyline
90
2
70
0
43
0.4
10
-104.2141
20
-10.2509
10
-104.1595
20
-10.3625
0
INSERT
5
240
100
AcDbEntity
8
F_Cu_____________
62
256
100
AcDbBlockReference
2
UNIT_DISC
10
-104.1595
20
-10.3625
41
0.4
42
0.4
50
0
0
INSERT
5
241
100
AcDbEntity
8
F_Cu_____________
62
256
100
AcDbBlockReference
2
UNIT_DISC
10
-104.1595
20
-10.3625
41
0.4
42
0.4
50
0
0
LWPOLYLINE
5
242
100
AcDbEntity
8
F_Cu_____________
62
256
100
AcDbPolyline
90
2
70
0
43
0.4
10
-104.1595
20
-10.3625
10
-104.1497
20
-10.3862
0
INSERT
5
243
100
AcDbEntity
8
F_Cu_____________
62
256
100
AcDbBlockReference
2
UNIT_DISC
10
-104.1497
20
-10.3862
41
0.4
42
0.4
50
0
0
INSERT
5
244
100
AcDbEntity
8
F_Cu_____________
62
256
100
AcDbBlockReference
2
UNIT_DISC
10
-104.1497
20
-10.3862
41
0.4
42
0.4
50
0
0
LWPOLYLINE
5
245
100
AcDbEntity
8
F_Cu_____________
62
256
100
AcDbPolyline
90
2
70
0
43
0.4
10
-104.1497
20
-10.3862
10
-103.5351
20
-11.9292
0
INSERT
5
246
100
AcDbEntity
8
F_Cu_____________
62
256
100
AcDbBlockReference
2
UNIT_DISC
10
-103.5351
20
-11.9292
41
0.4
42
0.4
50
0
0
INSERT
5
247
100
AcDbEntity
8
F_Cu_____________
62
256
100
AcDbBlockReference
2
UNIT_DISC
10
-103.5351
20
-11.9292
41
0.4
42
0.4
50
0
0
LWPOLYLINE
5
248
100
AcDbEntity
8
F_Cu_____________
62
256
100
AcDbPolyline
90
2
70
0
43
0.4
10
-103.5351
20
-11.9292
10
-103.5351
20
-11.9694
0
INSERT
5
249
100
AcDbEntity
8
F_Cu_____________
62
256
100
AcDbBlockReference
2
UNIT_DISC
10
-103.5351
20
-11.9694
41
0.4
42
0.4
50
0
0
INSERT
5
250
100
AcDbEntity
8
F_Cu_____________
62
256
100
AcDbBlockReference
2
UNIT_DISC
10
-103.5351
20
-11.9694
41
0.4
42
0.4
50
0
0
LWPOLYLINE
5
251
100
AcDbEntity
8
F_Cu_____________
62
256
100
AcDbPolyline
90
2
70
0
43
0.4
10
-103.5351
20
-11.9694
10
-103.5455
20
-11.9799
0
INSERT
5
252
100
AcDbEntity
8
F_Cu_____________
62
256
100
AcDbBlockReference
2
UNIT_DISC
10
-103.5455
20
-11.9799
41
0.4
42
0.4
50
0
0
INSERT
5
253
100
AcDbEntity
8
F_Cu_____________
62
256
100
AcDbBlockReference
2
UNIT_DISC
10
-103.5455
20
-11.9799
41
0.4
42
0.4
50
0
0
LWPOLYLINE
5
254
100
AcDbEntity
8
F_Cu_____________
62
256
100
AcDbPolyline
90
2
70
0
43
0.4
10
-103.5455
20
-11.9799
10
-104.4924
20
-12.6295
0
INSERT
5
255
100
AcDbEntity
8
F_Cu_____________
62
256
100
AcDbBlockReference
2
UNIT_DISC
10
-104.4924
20
-12.6295
41
0.4
42
0.4
50
0
0
INSERT
5
256
100
AcDbEntity
8
F_Cu_____________
62
256
100
AcDbBlockReference
2
UNIT_DISC
10
-130.8449
20
-4.4553
41
0.4
42
0.4
50
0
0
LWPOLYLINE
5
257
100
AcDbEntity
8
F_Cu_____________
62
256
100
AcDbPolyline
90
2
70
0
43
0.4
10
-130.8449
20
-4.4553
10
-124.8627
20
-4.1889
0
INSERT
5
258
100
AcDbEntity
8
F_Cu_____________
62
256
100
AcDbBlockReference
2
UNIT_DISC
10
-124.8627
20
-4.1889
41
0.4
42
0.4
50
0
0
INSERT
5
259
100
AcDbEntity
8
F_Cu_____________
62
256
100
AcDbBlockReference
2
UNIT_DISC
10
-124.8627
20
-4.1889
41
0.4
42
0.4
50
0
0
LWPOLYLINE
5
260
100
AcDbEntity
8
F_Cu_____________
62
256
100
AcDbPolyline
90
2
70
0
43
0.4
10
-124.8627
20
-4.1889
10
-123.3165
20
-4.1889
0
INSERT
5
261
100
AcDbEntity
8
F_Cu_____________
62
256
100
AcDbBlockReference
2
UNIT_DISC
10
-123.3165
20
-4.1889
41
0.4
42
0.4
50
0
0
INSERT
5
262
100
AcDbEntity
8
F_Cu_____________
62
256
100
AcDbBlockReference
2
UNIT_DISC
10
-123.3165
20
-4.1889
41
0.4
42
0.4
50
0
0
LWPOLYLINE
5
263
100
AcDbEntity
8
F_Cu_____________
62
256
100
AcDbPolyline
90
2
70
0
43
0.4
10
-123.3165
20
-4.1889
10
-105.5041
20
-7.6761
0
INSERT
5
264
100
AcDbEntity
8
F_Cu_____________
62
256
100
AcDbBlockReference
2
UNIT_DISC
10
-105.5041
20
-7.6761
41
0.4
42
0.4
50
0
0
INSERT
5
265
100
AcDbEntity
8
F_Cu_____________
62
256
100
AcDbBlockReference
2
UNIT_DISC
10
-105.5041
20
-7.6761
41
0.4
42
0.4
50
0
0
LWPOLYLINE
5
266
100
AcDbEntity
8
F_Cu_____________
62
256
100
AcDbPolyline
90
2
70
0
43
0.4
10
-105.5041
20
-7.6761
10
-105.3611
20
-7.7124
0
INSERT
5
267
100
AcDbEntity
8
F_Cu_____________
62
256
100
AcDbBlockReference
2
UNIT_DISC
10
-105.3611
20
-7.7124
41
0.4
42
0.4
50
0
0
INSERT
5
268
100
AcDbEntity
8
F_Cu_____________
62
256
100
AcDbBlockReference
2
UNIT_DISC
10
-105.3611
20
-7.7124
41
0.4
42
0.4
50
0
0
LWPOLYLINE
5
269
100
AcDbEntity
8
F_Cu_____________
62
256
100
AcDbPolyline
90
2
70
0
43
0.4
10
-105.3611
20
-7.7124
10
-105.2181
20
-7.7605
0
INSERT
5
270
100
AcDbEntity
8
F_Cu_____________
62
256
100
AcDbBlockReference
2
UNIT_DISC
10
-105.2181
20
-7.7605
41
0.4
42
0.4
50
0
0
INSERT
5
271
100
AcDbEntity
8
F_Cu_____________
62
256
100
AcDbBlockReference
2
UNIT_DISC
10
-105.2181
20
-7.7605
41
0.4
42
0.4
50
0
0
LWPOLYLINE
5
272
100
AcDbEntity
8
F_Cu_____________
62
256
100
AcDbPolyline
90
2
70
0
43
0.4
10
-105.2181
20
-7.7605
10
-105.0604
20
-7.8258
0
INSERT
5
273
100
AcDbEntity
8
F_Cu_____________
62
256
100
AcDbBlockReference
2
UNIT_DISC
10
-105.0604
20
-7.8258
41
0.4
42
0.4
50
0
0
INSERT
5
274
100
AcDbEntity
8
F_Cu_____________
62
256
100
AcDbBlockReference
2
UNIT_DISC
10
-105.0604
20
-7.8258
41
0.4
42
0.4
50
0
0
LWPOLYLINE
5
275
100
AcDbEntity
8
F_Cu_____________
62
256
100
AcDbPolyline
90
2
70
0
43
0.4
10
-105.0604
20
-7.8258
10
-104.9204
20
-7.8851
0
INSERT
5
276
100
AcDbEntity
8
F_Cu_____________
62
256
100
AcDbBlockReference
2
UNIT_DISC
10
-104.9204
20
-7.8851
41
0.4
42
0.4
50
0
0
INSERT
5
277
100
AcDbEntity
8
F_Cu_____________
62
256
100
AcDbBlockReference
2
UNIT_DISC
10
-104.9204
20
-7.8851
41
0.4
42
0.4
50
0
0
LWPOLYLINE
5
278
100
AcDbEntity
8
F_Cu_____________
62
256
100
AcDbPolyline
90
2
70
0
43
0.4
10
-104.9204
20
-7.8851
10
-104.8976
20
-7.8968
0
INSERT
5
279
100
AcDbEntity
8
F_Cu_____________
62
256
100
AcDbBlockReference
2
UNIT_DISC
10
-104.8976
20
-7.8968
41
0.4
42
0.4
50
0
0
INSERT
5
280
100
AcDbEntity
8
F_Cu_____________
62
256
100
AcDbBlockReference
2
UNIT_DISC
10
-104.8976
20
-7.8968
41
0.4
42
0.4
50
0
0
LWPOLYLINE
5
281
100
AcDbEntity
8
F_Cu_____________
62
256
100
AcDbPolyline
90
2
70
0
43
0.4
10
-104.8976
20
-7.8968
10
-104.7844
20
-7.955
0
INSERT
5
282
100
AcDbEntity
8
F_Cu_____________
62
256
100
AcDbBlockReference
2
UNIT_DISC
10
-104.7844
20
-7.955
41
0.4
42
0.4
50
0
0
INSERT
5
283
100
AcDbEntity
8
F_Cu_____________
62
256
100
AcDbBlockReference
2
UNIT_DISC
10
-104.7844
20
-7.955
41
0.4
42
0.4
50
0
0
LWPOLYLINE
5
284
100
AcDbEntity
8
F_Cu_____________
62
256
100
AcDbPolyline
90
2
70
0
43
0.4
10
-104.7844
20
-7.955
10
-104.6594
20
-8.0321
0
INSERT
5
285
100
AcDbEntity
8
F_Cu_____________
62
256
100
AcDbBlockReference
2
UNIT_DISC
10
-104.6594
20
-8.0321
41
0.4
42
0.4
50
0
0
INSERT
5
286
100
AcDbEntity
8
F_Cu_____________
62
256
100
AcDbBlockReference
2
UNIT_DISC
10
-104.6594
20
-8.0321
41
0.4
42
0.4
50
0
0
LWPOLYLINE
5
287
100
AcDbEntity
8
F_Cu_____________
62
256
100
AcDbPolyline
90
2
70
0
43
0.4
10
-104.6594
20
-8.0321
10
-104.5364
20
-8.1178
0
INSERT
5
288
100
AcDbEntity
8
F_Cu_____________
62
256
100
AcDbBlockReference
2
UNIT_DISC
10
-104.5364
20
-8.1178
41
0.4
42
0.4
50
0
0
INSERT
5
289
100
AcDbEntity
8
F_Cu_____________
62
256
100
AcDbBlockReference
2
UNIT_DISC
10
-104.5364
20
-8.1178
41
0.4
42
0.4
50
0
0
LWPOLYLINE
5
290
100
AcDbEntity
8
F_Cu_____________
62
256
100
AcDbPolyline
90
2
70
0
43
0.4
10
-104.5364
20
-8.1178
10
-104.5166
20
-8.1341
0
INSERT
5
291
100
AcDbEntity
8
F_Cu_____________
62
256
100
AcDbBlockReference
2
UNIT_DISC
10
-104.5166
20
-8.1341
41
0.4
42
0.4
50
0
0
INSERT
5
292
100
AcDbEntity
8
F_Cu_____________
62
256
100
AcDbBlockReference
2
UNIT_DISC
10
-104.5166
20
-8.1341
41
0.4
42
0.4
50
0
0
LWPOLYLINE
5
293
100
AcDbEntity
8
F_Cu_____________
62
256
100
AcDbPolyline
90
2
70
0
43
0.4
10
-104.5166
20
-8.1341
10
-104.4204
20
-8.2137
0
INSERT
5
294
100
AcDbEntity
8
F_Cu_____________
62
256
100
AcDbBlockReference
2
UNIT_DISC
10
-104.4204
20
-8.2137
41
0.4
42
0.4
50
0
0
INSERT
5
295
100
AcDbEntity
8
F_Cu_____________
62
256
100
AcDbBlockReference
2
UNIT_DISC
10
-104.4204
20
-8.2137
41
0.4
42
0.4
50
0
0
LWPOLYLINE
5
296
100
AcDbEntity
8
F_Cu_____________
62
256
100
AcDbPolyline
90
2
70
0
43
0.4
10
-104.4204
20
-8.2137
10
-104.3104
20
-8.3155
0
INSERT
5
297
100
AcDbEntity
8
F_Cu_____________
62
256
100
AcDbBlockReference
2
UNIT_DISC
10
-104.3104
20
-8.3155
41
0.4
42
0.4
50
0
0
INSERT
5
298
100
AcDbEntity
8
F_Cu_____________
62
256
100
AcDbBlockReference
2
UNIT_DISC
10
-104.3104
20
-8.3155
41
0.4
42
0.4
50
0
0
LWPOLYLINE
5
299
100
AcDbEntity
8
F_Cu_____________
62
256
100
AcDbPolyline
90
2
70
0
43
0.4
10
-104.3104
20
-8.3155
10
-103.4463
20
-9.1796
0
INSERT
5
300
100
AcDbEntity
8
F_Cu_____________
62
256
100
AcDbBlockReference
2
UNIT_DISC
10
-103.4463
20
-9.1796
41
0.4
42
0.4
50
0
0
INSERT
5
301
100
AcDbEntity
8
F_Cu_____________
62
256
100
AcDbBlockReference
2
UNIT_DISC
10
-103.4463
20
-9.1796
41
0.4
42
0.4
50
0
0
LWPOLYLINE
5
302
100
AcDbEntity
8
F_Cu_____________
62
256
100
AcDbPolyline
90
2
70
0
43
0.4
10
-103.4463
20
-9.1796
10
-103.4291
20
-9.1986
0
INSERT
5
303
100
AcDbEntity
8
F_Cu_____________
62
256
100
AcDbBlockReference
2
UNIT_DISC
10
-103.4291
20
-9.1986
41
0.4
42
0.4
50
0
0
INSERT
5
304
100
AcDbEntity
8
F_Cu_____________
62
256
100
AcDbBlockReference
2
UNIT_DISC
10
-103.4291
20
-9.1986
41
0.4
42
0.4
50
0
0
LWPOLYLINE
5
305
100
AcDbEntity
8
F_Cu_____________
62
256
100
AcDbPolyline
90
2
70
0
43
0.4
10
-103.4291
20
-9.1986
10
-103.3453
20
-9.2918
0
INSERT
5
306
100
AcDbEntity
8
F_Cu_____________
62
256
100
AcDbBlockReference
2
UNIT_DISC
10
-103.3453
20
-9.2918
41
0.4
42
0.4
50
0
0
INSERT
5
307
100
AcDbEntity
8
F_Cu_____________
62
256
100
AcDbBlockReference
2
UNIT_DISC
10
-103.3453
20
-9.2918
41
0.4
42
0.4
50
0
0
LWPOLYLINE
5
308
100
AcDbEntity
8
F_Cu_____________
62
256
100
AcDbPolyline
90
2
70
0
43
0.4
10
-103.3453
20
-9.2918
10
-103.2493
20
-9.4093
0
INSERT
5
309
100
AcDbEntity
8
F_Cu_____________
62
256
100
AcDbBlockReference
2
UNIT_DISC
10
-103.2493
20
-9.4093
41
0.4
42
0.4
50
0
0
INSERT
5
310
100
AcDbEntity
8
F_Cu_____________
62
256
100
AcDbBlockReference
2
UNIT_DISC
10
-103.2493
20
-9.4093
41
0.4
42
0.4
50
0
0
LWPOLYLINE
5
311
100
AcDbEntity
8
F_Cu_____________
62
256
100
AcDbPolyline
90
2
70
0
43
0.4
10
-103.2493
20
-9.4093
10
-103.1663
20
-9.5343
0
INSERT
5
312
100
AcDbEntity
8
F_Cu_____________
62
256
100
AcDbBlockReference
2
UNIT_DISC
10
-103.1663
20
-9.5343
41
0.4
42
0.4
50
0
0
INSERT
5
313
100
AcDbEntity
8
F_Cu_____________
62
256
100
AcDbBlockReference
2
UNIT_DISC
10
-103.1663
20
-9.5343
41
0.4
42
0.4
50
0
0
LWPOLYLINE
5
314
100
AcDbEntity
8
F_Cu_____________
62
256
100
AcDbPolyline
90
2
70
0
43
0.4
10
-103.1663
20
-9.5343
10
-103.1507
20
-9.5608
0
INSERT
5
315
100
AcDbEntity
8
F_Cu_____________
62
256
100
AcDbBlockReference
2
UNIT_DISC
10
-103.1507
20
-9.5608
41
0.4
42
0.4
50
0
0
INSERT
5
316
100
AcDbEntity
8
F_Cu_____________
62
256
100
AcDbBlockReference
2
UNIT_DISC
10
-103.1507
20
-9.5608
41
0.4
42
0.4
50
0
0
LWPOLYLINE
5
317
100
AcDbEntity
8
F_Cu_____________
62
256
100
AcDbPolyline
90
2
70
0
43
0.4
10
-103.1507
20
-9.5608
10
-103.0903
20
-9.6635
0
INSERT
5
318
100
AcDbEntity
8
F_Cu_____________
62
256
100
AcDbBlockReference
2
UNIT_DISC
10
-103.0903
20
-9.6635
41
0.4
42
0.4
50
0
0
INSERT
5
319
100
AcDbEntity
8
F_Cu_____________
62
256
100
AcDbBlockReference
2
UNIT_DISC
10
-103.0903
20
-9.6635
41
0.4
42
0.4
50
0
0
LWPOLYLINE
5
320
100
AcDbEntity
8
F_Cu_____________
62
256
100
AcDbPolyline
90
2
70
0
43
0.4
10
-103.0903
20
-9.6635
10
-103.0789
20
-9.6866
0
INSERT
5
321
100
AcDbEntity
8
F_Cu_____________
62
256
100
AcDbBlockReference
2
UNIT_DISC
10
-103.0789
20
-9.6866
41
0.4
42
0.4
50
0
0
INSERT
5
322
100
AcDbEntity
8
F_Cu_____________
62
256
100
AcDbBlockReference
2
UNIT_DISC
10
-103.0789
20
-9.6866
41
0.4
42
0.4
50
0
0
LWPOLYLINE
5
323
100
AcDbEntity
8
F_Cu_____________
62
256
100
AcDbPolyline
90
2
70
0
43
0.4
10
-103.0789
20
-9.6866
10
-103.0136
20
-9.8443
0
INSERT
5
324
100
AcDbEntity
8
F_Cu_____________
62
256
100
AcDbBlockReference
2
UNIT_DISC
10
-103.0136
20
-9.8443
41
0.4
42
0.4
50
0
0
INSERT
5
325
100
AcDbEntity
8
F_Cu_____________
62
256
100
AcDbBlockReference
2
UNIT_DISC
10
-103.0136
20
-9.8443
41
0.4
42
0.4
50
0
0
LWPOLYLINE
5
326
100
AcDbEntity
8
F_Cu_____________
62
256
100
AcDbPolyline
90
2
70
0
43
0.4
10
-103.0136
20
-9.8443
10
-102.4597
20
-11.682
0
INSERT
5
327
100
AcDbEntity
8
F_Cu_____________
62
256
100
AcDbBlockReference
2
UNIT_DISC
10
-102.4597
20
-11.682
41
0.4
42
0.4
50
0
0
INSERT
5
328
100
AcDbEntity
8
F_Cu_____________
62
256
100
AcDbBlockReference
2
UNIT_DISC
10
-102.4597
20
-11.682
41
0.4
42
0.4
50
0
0
LWPOLYLINE
5
329
100
AcDbEntity
8
F_Cu_____________
62
256
100
AcDbPolyline
90
2
70
0
43
0.4
10
-102.4597
20
-11.682
10
-102.4543
20
-11.7306
0
INSERT
5
330
100
AcDbEntity
8
F_Cu_____________
62
256
100
AcDbBlockReference
2
UNIT_DISC
10
-102.4543
20
-11.7306
41
0.4
42
0.4
50
0
0
INSERT
5
331
100
AcDbEntity
8
F_Cu_____________
62
256
100
AcDbBlockReference
2
UNIT_DISC
10
-102.4543
20
-11.7306
41
0.4
42
0.4
50
0
0
LWPOLYLINE
5
332
100
AcDbEntity
8
F_Cu_____________
62
256
100
AcDbPolyline
90
2
70
0
43
0.4
10
-102.4543
20
-11.7306
10
-102.449
20
-11.7793
0
INSERT
5
333
100
AcDbEntity
8
F_Cu_____________
62
256
100
AcDbBlockReference
2
UNIT_DISC
10
-102.449
20
-11.7793
41
0.4
42
0.4
50
0
0
INSERT
5
334
100
AcDbEntity
8
F_Cu_____________
62
256
100
AcDbBlockReference
2
UNIT_DISC
10
-102.449
20
-11.7793
41
0.4
42
0.4
50
0
0
LWPOLYLINE
5
335
100
AcDbEntity
8
F_Cu_____________
62
256
100
AcDbPolyline
90
2
70
0
43
0.4
10
-102.449
20
-11.7793
10
-102.449
20
-12.6081
0
INSERT
5
336
100
AcDbEntity
8
F_Cu_____________
62
256
100
AcDbBlockReference
2
UNIT_DISC
10
-102.449
20
-12.6081
41
0.4
42
0.4
50
0
0
INSERT
5
337
100
AcDbEntity
8
F_Cu_____________
62
256
100
AcDbBlockReference
2
UNIT_DISC
10
-102.449
20
-12.6081
41
0.4
42
0.4
50
0
0
LWPOLYLINE
5
338
100
AcDbEntity
8
F_Cu_____________
62
256
100
AcDbPolyline
90
2
70
0
43
0.4
10
-102.449
20
-12.6081
10
-102.4664
20
-12.8074
0
INSERT
5
339
100
AcDbEntity
8
F_Cu_____________
62
256
100
AcDbBlockReference
2
UNIT_DISC
10
-102.4664
20
-12.8074
41
0.4
42
0.4
50
0
0
INSERT
5
340
100
AcDbEntity
8
F_Cu_____________
62
256
100
AcDbBlockReference
2
UNIT_DISC
10
-102.4664
20
-12.8074
41
0.4
42
0.4
50
0
0
LWPOLYLINE
5
341
100
AcDbEntity
8
F_Cu_____________
62
256
100
AcDbPolyline
90
2
70
0
43
0.4
10
-102.4664
20
-12.8074
10
-102.523
20
-13.4548
0
INSERT
5
342
100
AcDbEntity
8
F_Cu_____________
62
256
100
AcDbBlockReference
2
UNIT_DISC
10
-102.523
20
-13.4548
41
0.4
42
0.4
50
0
0
INSERT
5
343
100
AcDbEntity
8
F_Cu_____________
62
256
100
AcDbBlockReference
2
UNIT_DISC
10
-102.523
20
-13.4548
41
0.4
42
0.4
50
0
0
LWPOLYLINE
5
344
100
AcDbEntity
8
F_Cu_____________
62
256
100
AcDbPolyline
90
2
70
0
43
0.4
10
-102.523
20
-13.4548
10
-102.5405
20
-13.6541
0
INSERT
5
345
100
AcDbEntity
8
F_Cu_____________
62
256
100
AcDbBlockReference
2
UNIT_DISC
10
-102.5405
20
-13.6541
41
0.4
42
0.4
50
0
0
INSERT
5
346
100
AcDbEntity
8
F_Cu_____________
62
256
100
AcDbBlockReference
2
UNIT_DISC
10
-102.5405
20
-13.6541
41
0.4
42
0.4
50
0
0
LWPOLYLINE
5
347
100
AcDbEntity
8
F_Cu_____________
62
256
100
AcDbPolyline
90
2
70
0
43
0.4
10
-102.5405
20
-13.6541
10
-102.5542
20
-13.7011
0
INSERT
5
348
100
AcDbEntity
8
F_Cu_____________
62
256
100
AcDbBlockReference
2
UNIT_DISC
10
-102.5542
20
-13.7011
41
0.4
42
0.4
50
0
0
INSERT
5
349
100
AcDbEntity
8
F_Cu_____________
62
256
100
AcDbBlockReference
2
UNIT_DISC
10
-102.5542
20
-13.7011
41
0.4
42
0.4
50
0
0
LWPOLYLINE
5
350
100
AcDbEntity
8
F_Cu_____________
62
256
100
AcDbPolyline
90
2
70
0
43
0.4
10
-102.5542
20
-13.7011
10
-102.568
20
-13.7481
0
INSERT
5
351
100
AcDbEntity
8
F_Cu_____________
62
256
100
AcDbBlockReference
2
UNIT_DISC
10
-102.568
20
-13.7481
41
0.4
42
0.4
50
0
0
INSERT
5
352
100
AcDbEntity
8
F_Cu_____________
62
256
100
AcDbBlockReference
2
UNIT_DISC
10
-102.568
20
-13.7481
41
0.4
42
0.4
50
0
0
LWPOLYLINE
5
353
100
AcDbEntity
8
F_Cu_____________
62
256
100
AcDbPolyline
90
2
70
0
43
0.4
10
-102.568
20
-13.7481
10
-103.1541
20
-14.3342
0
INSERT
5
354
100
AcDbEntity
8
F_Cu_____________
62
256
100
AcDbBlockReference
2
UNIT_DISC
10
-103.1541
20
-14.3342
41
0.4
42
0.4
50
0
0
INSERT
5
355
100
AcDbEntity
8
F_Cu_____________
62
256
100
AcDbBlockReference
2
UNIT_DISC
10
-103.1541
20
-14.3342
41
0.4
42
0.4
50
0
0
LWPOLYLINE
5
356
100
AcDbEntity
8
F_Cu_____________
62
256
100
AcDbPolyline
90
2
70
0
43
0.4
10
-103.1541
20
-14.3342
10
-103.6614
20
-14.6754
0
INSERT
5
357
100
AcDbEntity
8
F_Cu_____________
62
256
100
AcDbBlockReference
2
UNIT_DISC
10
-103.6614
20
-14.6754
41
0.4
42
0.4
50
0
0
INSERT
5
358
100
AcDbEntity
8
F_Cu_____________
62
256
100
AcDbBlockReference
2
UNIT_DISC
10
-103.6614
20
-14.6754
41
0.4
42
0.4
50
0
0
LWPOLYLINE
5
359
100
AcDbEntity
8
F_Cu_____________
62
256
100
AcDbPolyline
90
2
70
0
43
0.4
10
-103.6614
20
-14.6754
10
-103.6761
20
-14.6754
0
INSERT
5
360
100
AcDbEntity
8
F_Cu_____________
62
256
100
AcDbBlockReference
2
UNIT_DISC
10
-103.6761
20
-14.6754
41
0.4
42
0.4
50
0
0
INSERT
5
361
100
AcDbEntity
8
F_Cu_____________
62
256
100
AcDbBlockReference
2
UNIT_DISC
10
-103.6761
20
-14.6754
41
0.4
42
0.4
50
0
0
LWPOLYLINE
5
362
100
AcDbEntity
8
F_Cu_____________
62
256
100
AcDbPolyline
90
2
70
0
43
0.4
10
-103.6761
20
-14.6754
10
-104.7137
20
-15.1599
0
INSERT
5
363
100
AcDbEntity
8
F_Cu_____________
62
256
100
AcDbBlockReference
2
UNIT_DISC
10
-104.7137
20
-15.1599
41
0.4
42
0.4
50
0
0
INSERT
5
364
100
AcDbEntity
8
F_Cu_____________
62
256
100
AcDbBlockReference
2
UNIT_DISC
10
-170.7088
20
-22.7535
41
0.4
42
0.4
50
0
0
LWPOLYLINE
5
365
100
AcDbEntity
8
F_Cu_____________
62
256
100
AcDbPolyline
90
2
70
0
43
0.4
10
-170.7088
20
-22.7535
10
-170.2081
20
-22.7535
0
INSERT
5
366
100
AcDbEntity
8
F_Cu_____________
62
256
100
AcDbBlockReference
2
UNIT_DISC
10
-170.2081
20
-22.7535
41
0.4
42
0.4
50
0
0
INSERT
5
367
100
AcDbEntity
8
F_Cu_____________
62
256
100
AcDbBlockReference
2
UNIT_DISC
10
-170.2081
20
-22.7535
41
0.4
42
0.4
50
0
0
LWPOLYLINE
5
368
100
AcDbEntity
8
F_Cu_____________
62
256
100
AcDbPolyline
90
2
70
0
43
0.4
10
-170.2081
20
-22.7535
10
-170.1356
20
-22.7535
0
INSERT
5
369
100
AcDbEntity
8
F_Cu_____________
62
256
100
AcDbBlockReference
2
UNIT_DISC
10
-170.1356
20
-22.7535
41
0.4
42
0.4
50
0
0
INSERT
5
370
100
AcDbEntity
8
F_Cu_____________
62
256
100
AcDbBlockReference
2
UNIT_DISC
10
-170.1356
20
-22.7535
41
0.4
42
0.4
50
0
0
LWPOLYLINE
5
371
100
AcDbEntity
8
F_Cu_____________
62
256
100
AcDbPolyline
90
2
70
0
43
0.4
10
-170.1356
20
-22.7535
10
-141.3119
20
-14.5631
0
INSERT
5
372
100
AcDbEntity
8
F_Cu_____________
62
256
100
AcDbBlockReference
2
UNIT_DISC
10
-141.3119
20
-14.5631
41
0.4
42
0.4
50
0
0
INSERT
5
373
100
AcDbEntity
8
F_Cu_____________
62
256
100
AcDbBlockReference
2
UNIT_DISC
10
-141.3119
20
-14.5631
41
0.4
42
0.4
50
0
0
LWPOLYLINE
5
374
100
AcDbEntity
8
F_Cu_____________
62
256
100
AcDbPolyline
90
2
70
0
43
0.4
10
-141.3119
20
-14.5631
10
-139.6763
20
-14.4907
0
INSERT
5
375
100
AcDbEntity
8
F_Cu_____________
62
256
100
AcDbBlockReference
2
UNIT_DISC
10
-139.6763
20
-14.4907
41
0.4
42
0.4
50
0
0
INSERT
5
376
100
AcDbEntity
8
F_Cu_____________
62
256
100
AcDbBlockReference
2
UNIT_DISC
10
-122.8246
20
-13.5754
41
0.4
42
0.4
50
0
0
LWPOLYLINE
5
377
100
AcDbEntity
8
F_Cu_____________
62
256
100
AcDbPolyline
90
2
70
0
43
0.4
10
-122.8246
20
-13.5754
10
-123.7179
20
-12.833
0
INSERT
5
378
100
AcDbEntity
8
F_Cu_____________
62
256
100
AcDbBlockReference
2
UNIT_DISC
10
-123.7179
20
-12.833
41
0.4
42
0.4
50
0
0
INSERT
5
379
100
AcDbEntity
8
F_Cu_____________
62
256
100
AcDbBlockReference
2
UNIT_DISC
10
-123.7179
20
-12.833
41
0.4
42
0.4
50
0
0
LWPOLYLINE
5
380
100
AcDbEntity
8
F_Cu_____________
62
256
100
AcDbPolyline
90
2
70
0
43
0.4
10
-123.7179
20
-12.833
10
-123.7284
20
-12.8226
0
INSERT
5
381
100
AcDbEntity
8
F_Cu_____________
62
256
100
AcDbBlockReference
2
UNIT_DISC
10
-123.7284
20
-12.8226
41
0.4
42
0.4
50
0
0
INSERT
5
382
100
AcDbEntity
8
F_Cu_____________
62
256
100
AcDbBlockReference
2
UNIT_DISC
10
-123.7284
20
-12.8226
41
0.4
42
0.4
50
0
0
LWPOLYLINE
5
383
100
AcDbEntity
8
F_Cu_____________
62
256
100
AcDbPolyline
90
2
70
0
43
0.4
10
-123.7284
20
-12.8226
10
-124.0027
20
-12.6644
0
INSERT
5
384
100
AcDbEntity
8
F_Cu_____________
62
256
100
AcDbBlockReference
2
UNIT_DISC
10
-124.0027
20
-12.6644
41
0.4
42
0.4
50
0
0
INSERT
5
385
100
AcDbEntity
8
F_Cu_____________
62
256
100
AcDbBlockReference
2
UNIT_DISC
10
-124.0027
20
-12.6644
41
0.4
42
0.4
50
0
0
LWPOLYLINE
5
386
100
AcDbEntity
8
F_Cu_____________
62
256
100
AcDbPolyline
90
2
70
0
43
0.4
10
-124.0027
20
-12.6644
10
-124.5888
20
-12.0783
0
INSERT
5
387
100
AcDbEntity
8
F_Cu_____________
62
256
100
AcDbBlockReference
2
UNIT_DISC
10
-124.5888
20
-12.0783
41
0.4
42
0.4
50
0
0
INSERT
5
388
100
AcDbEntity
8
F_Cu_____________
62
256
100
AcDbBlockReference
2
UNIT_DISC
10
-124.5888
20
-12.0783
41
0.4
42
0.4
50
0
0
LWPOLYLINE
5
389
100
AcDbEntity
8
F_Cu_____________
62
256
100
AcDbPolyline
90
2
70
0
43
0.4
10
-124.5888
20
-12.0783
10
-124.6359
20
-11.9925
0
INSERT
5
390
100
AcDbEntity
8
F_Cu_____________
62
256
100
AcDbBlockReference
2
UNIT_DISC
10
-124.6359
20
-11.9925
41
0.4
42
0.4
50
0
0
INSERT
5
391
100
AcDbEntity
8
F_Cu_____________
62
256
100
AcDbBlockReference
2
UNIT_DISC
10
-124.6359
20
-11.9925
41
0.4
42
0.4
50
0
0
LWPOLYLINE
5
392
100
AcDbEntity
8
F_Cu_____________
62
256
100
AcDbPolyline
90
2
70
0
43
0.4
10
-124.6359
20
-11.9925
10
-124.6466
20
-11.8952
0
INSERT
5
393
100
AcDbEntity
8
F_Cu_____________
62
256
100
AcDbBlockReference
2
UNIT_DISC
10
-124.6466
20
-11.8952
41
0.4
42
0.4
50
0
0
INSERT
5
394
100
AcDbEntity
8
F_Cu_____________
62
256
100
AcDbBlockReference
2
UNIT_DISC
10
-124.6466
20
-11.8952
41
0.4
42
0.4
50
0
0
LWPOLYLINE
5
395
100
AcDbEntity
8
F_Cu_____________
62
256
100
AcDbPolyline
90
2
70
0
43
0.4
10
-124.6466
20
-11.8952
10
-124.6466
20
-11.0664
0
INSERT
5
396
100
AcDbEntity
8
F_Cu_____________
62
256
100
AcDbBlockReference
2
UNIT_DISC
10
-124.6466
20
-11.0664
41
0.4
42
0.4
50
0
0
INSERT
5
397
100
AcDbEntity
8
F_Cu_____________
62
256
100
AcDbBlockReference
2
UNIT_DISC
10
-124.6466
20
-11.0664
41
0.4
42
0.4
50
0
0
LWPOLYLINE
5
398
100
AcDbEntity
8
F_Cu_____________
62
256
100
AcDbPolyline
90
2
70
0
43
0.4
10
-124.6466
20
-11.0664
10
-124.5551
20
-10.0204
0
INSERT
5
399
100
AcDbEntity
8
F_Cu_____________
62
256
100
AcDbBlockReference
2
UNIT_DISC
10
-124.5551
20
-10.0204
41
0.4
42
0.4
50
0
0
INSERT
5
400
100
AcDbEntity
8
F_Cu_____________
62
256
100
AcDbBlockReference
2
UNIT_DISC
10
-124.5551
20
-10.0204
41
0.4
42
0.4
50
0
0
LWPOLYLINE
5
401
100
AcDbEntity
8
F_Cu_____________
62
256
100
AcDbPolyline
90
2
70
0
43
0.4
10
-124.5551
20
-10.0204
10
-124.0896
20
-6.6899
0
INSERT
5
402
100
AcDbEntity
8
F_Cu_____________
62
256
100
AcDbBlockReference
2
UNIT_DISC
10
-124.0896
20
-6.6899
41
0.4
42
0.4
50
0
0
INSERT
5
403
100
AcDbEntity
8
F_Cu_____________
62
256
100
AcDbBlockReference
2
UNIT_DISC
10
-104.9351
20
-17.6902
41
0.4
42
0.4
50
0
0
LWPOLYLINE
5
404
100
AcDbEntity
8
F_Cu_____________
62
256
100
AcDbPolyline
90
2
70
0
43
0.4
10
-104.9351
20
-17.6902
10
-103.8975
20
-17.2057
0
INSERT
5
405
100
AcDbEntity
8
F_Cu_____________
62
256
100
AcDbBlockReference
2
UNIT_DISC
10
-103.8975
20
-17.2057
41
0.4
42
0.4
50
0
0
INSERT
5
406
100
AcDbEntity
8
F_Cu_____________
62
256
100
AcDbBlockReference
2
UNIT_DISC
10
-103.8975
20
-17.2057
41
0.4
42
0.4
50
0
0
LWPOLYLINE
5
407
100
AcDbEntity
8
F_Cu_____________
62
256
100
AcDbPolyline
90
2
70
0
43
0.4
10
-103.8975
20
-17.2057
10
-103.8828
20
-17.2057
0
INSERT
5
408
100
AcDbEntity
8
F_Cu_____________
62
256
100
AcDbBlockReference
2
UNIT_DISC
10
-103.8828
20
-17.2057
41
0.4
42
0.4
50
0
0
INSERT
5
409
100
AcDbEntity
8
F_Cu_____________
62
256
100
AcDbBlockReference
2
UNIT_DISC
10
-103.8828
20
-17.2057
41
0.4
42
0.4
50
0
0
LWPOLYLINE
5
410
100
AcDbEntity
8
F_Cu_____________
62
256
100
AcDbPolyline
90
2
70
0
43
0.4
10
-103.8828
20
-17.2057
10
-103.3754
20
-16.8646
0
INSERT
5
411
100
AcDbEntity
8
F_Cu_____________
62
256
100
AcDbBlockReference
2
UNIT_DISC
10
-103.3754
20
-16.8646
41
0.4
42
0.4
50
0
0
INSERT
5
412
100
AcDbEntity
8
F_Cu_____________
62
256
100
AcDbBlockReference
2
UNIT_DISC
10
-103.3754
20
-16.8646
41
0.4
42
0.4
50
0
0
LWPOLYLINE
5
413
100
AcDbEntity
8
F_Cu_____________
62
256
100
AcDbPolyline
90
2
70
0
43
0.4
10
-103.3754
20
-16.8646
10
-102.7893
20
-16.2785
0
INSERT
5
414
100
AcDbEntity
8
F_Cu_____________
62
256
100
AcDbBlockReference
2
UNIT_DISC
10
-102.7893
20
-16.2785
41
0.4
42
0.4
50
0
0
INSERT
5
415
100
AcDbEntity
8
F_Cu_____________
62
256
100
AcDbBlockReference
2
UNIT_DISC
10
-102.7893
20
-16.2785
41
0.4
42
0.4
50
0
0
LWPOLYLINE
5
416
100
AcDbEntity
8
F_Cu_____________
62
256
100
AcDbPolyline
90
2
70
0
43
0.4
10
-102.7893
20
-16.2785
10
-101.4951
20
-14.3415
0
INSERT
5
417
100
AcDbEntity
8
F_Cu_____________
62
256
100
AcDbBlockReference
2
UNIT_DISC
10
-101.4951
20
-14.3415
41
0.4
42
0.4
50
0
0
INSERT
5
418
100
AcDbEntity
8
F_Cu_____________
62
256
100
AcDbBlockReference
2
UNIT_DISC
10
-101.4951
20
-14.3415
41
0.4
42
0.4
50
0
0
LWPOLYLINE
5
419
100
AcDbEntity
8
F_Cu_____________
62
256
100
AcDbPolyline
90
2
70
0
43
0.4
10
-101.4951
20
-14.3415
10
-101.3537
20
-14.0001
0
INSERT
5
420
100
AcDbEntity
8
F_Cu_____________
62
256
100
AcDbBlockReference
2
UNIT_DISC
10
-101.3537
20
-14.0001
41
0.4
42
0.4
50
0
0
INSERT
5
421
100
AcDbEntity
8
F_Cu_____________
62
256
100
AcDbBlockReference
2
UNIT_DISC
10
-101.3537
20
-14.0001
41
0.4
42
0.4
50
0
0
LWPOLYLINE
5
422
100
AcDbEntity
8
F_Cu_____________
62
256
100
AcDbPolyline
90
2
70
0
43
0.4
10
-101.3537
20
-14.0001
10
-101.34
20
-13.9531
0
INSERT
5
423
100
AcDbEntity
8
F_Cu_____________
62
256
100
AcDbBlockReference
2
UNIT_DISC
10
-101.34
20
-13.9531
41
0.4
42
0.4
50
0
0
INSERT
5
424
100
AcDbEntity
8
F_Cu_____________
62
256
100
AcDbBlockReference
2
UNIT_DISC
10
-101.34
20
-13.9531
41
0.4
42
0.4
50
0
0
LWPOLYLINE
5
425
100
AcDbEntity
8
F_Cu_____________
62
256
100
AcDbPolyline
90
2
70
0
43
0.4
10
-101.34
20
-13.9531
10
-101.3225
20
-13.7538
0
INSERT
5
426
100
AcDbEntity
8
F_Cu_____________
62
256
100
AcDbBlockReference
2
UNIT_DISC
10
-101.3225
20
-13.7538
41
0.4
42
0.4
50
0
0
INSERT
5
427
100
AcDbEntity
8
F_Cu_____________
62
256
100
AcDbBlockReference
2
UNIT_DISC
10
-101.3225
20
-13.7538
41
0.4
42
0.4
50
0
0
LWPOLYLINE
5
428
100
AcDbEntity
8
F_Cu_____________
62
256
100
AcDbPolyline
90
2
70
0
43
0.4
10
-101.3225
20
-13.7538
10
-101.2659
20
-13.1064
0
INSERT
5
429
100
AcDbEntity
8
F_Cu_____________
62
256
100
AcDbBlockReference
2
UNIT_DISC
10
-101.2659
20
-13.1064
41
0.4
42
0.4
50
0
0
INSERT
5
430
100
AcDbEntity
8
F_Cu_____________
62
256
100
AcDbBlockReference
2
UNIT_DISC
10
-101.2659
20
-13.1064
41
0.4
42
0.4
50
0
0
LWPOLYLINE
5
431
100
AcDbEntity
8
F_Cu_____________
62
256
100
AcDbPolyline
90
2
70
0
43
0.4
10
-101.2659
20
-13.1064
10
-101.2485
20
-12.9071
0
INSERT
5
432
100
AcDbEntity
8
F_Cu_____________
62
256
100
AcDbBlockReference
2
UNIT_DISC
10
-101.2485
20
-12.9071
41
0.4
42
0.4
50
0
0
INSERT
5
433
100
AcDbEntity
8
F_Cu_____________
62
256
100
AcDbBlockReference
2
UNIT_DISC
10
-101.2485
20
-12.9071
41
0.4
42
0.4
50
0
0
LWPOLYLINE
5
434
100
AcDbEntity
8
F_Cu_____________
62
256
100
AcDbPolyline
90
2
70
0
43
0.4
10
-101.2485
20
-12.9071
10
-101.2485
20
-11.4803
0
INSERT
5
435
100
AcDbEntity
8
F_Cu_____________
62
256
100
AcDbBlockReference
2
UNIT_DISC
10
-101.2485
20
-11.4803
41
0.4
42
0.4
50
0
0
INSERT
5
436
100
AcDbEntity
8
F_Cu_____________
62
256
100
AcDbBlockReference
2
UNIT_DISC
10
-101.2485
20
-11.4803
41
0.4
42
0.4
50
0
0
LWPOLYLINE
5
437
100
AcDbEntity
8
F_Cu_____________
62
256
100
AcDbPolyline
90
2
70
0
43
0.4
10
-101.2485
20
-11.4803
10
-101.2538
20
-11.4316
0
INSERT
5
438
100
AcDbEntity
8
F_Cu_____________
62
256
100
AcDbBlockReference
2
UNIT_DISC
10
-101.2538
20
-11.4316
41
0.4
42
0.4
50
0
0
INSERT
5
439
100
AcDbEntity
8
F_Cu_____________
62
256
100
AcDbBlockReference
2
UNIT_DISC
10
-101.2538
20
-11.4316
41
0.4
42
0.4
50
0
0
LWPOLYLINE
5
440
100
AcDbEntity
8
F_Cu_____________
62
256
100
AcDbPolyline
90
2
70
0
43
0.4
10
-101.2538
20
-11.4316
10
-101.2592
20
-11.383
0
INSERT
5
441
100
AcDbEntity
8
F_Cu_____________
62
256
100
AcDbBlockReference
2
UNIT_DISC
10
-101.2592
20
-11.383
41
0.4
42
0.4
50
0
0
INSERT
5
442
100
AcDbEntity
8
F_Cu_____________
62
256
100
AcDbBlockReference
2
UNIT_DISC
10
-101.2592
20
-11.383
41
0.4
42
0.4
50
0
0
LWPOLYLINE
5
443
100
AcDbEntity
8
F_Cu_____________
62
256
100
AcDbPolyline
90
2
70
0
43
0.4
10
-101.2592
20
-11.383
10
-101.8304
20
-9.5621
0
INSERT
5
444
100
AcDbEntity
8
F_Cu_____________
62
256
100
AcDbBlockReference
2
UNIT_DISC
10
-101.8304
20
-9.5621
41
0.4
42
0.4
50
0
0
INSERT
5
445
100
AcDbEntity
8
F_Cu_____________
62
256
100
AcDbBlockReference
2
UNIT_DISC
10
-101.8304
20
-9.5621
41
0.4
42
0.4
50
0
0
LWPOLYLINE
5
446
100
AcDbEntity
8
F_Cu_____________
62
256
100
AcDbPolyline
90
2
70
0
43
0.4
10
-101.8304
20
-9.5621
10
-102.0436
20
-9.0482
0
INSERT
5
447
100
AcDbEntity
8
F_Cu_____________
62
256
100
AcDbBlockReference
2
UNIT_DISC
10
-102.0436
20
-9.0482
41
0.4
42
0.4
50
0
0
INSERT
5
448
100
AcDbEntity
8
F_Cu_____________
62
256
100
AcDbBlockReference
2
UNIT_DISC
10
-102.0436
20
-9.0482
41
0.4
42
0.4
50
0
0
LWPOLYLINE
5
449
100
AcDbEntity
8
F_Cu_____________
62
256
100
AcDbPolyline
90
2
70
0
43
0.4
10
-102.0436
20
-9.0482
10
-102.055
20
-9.0251
0
INSERT
5
450
100
AcDbEntity
8
F_Cu_____________
62
256
100
AcDbBlockReference
2
UNIT_DISC
10
-102.055
20
-9.0251
41
0.4
42
0.4
50
0
0
INSERT
5
451
100
AcDbEntity
8
F_Cu_____________
62
256
100
AcDbBlockReference
2
UNIT_DISC
10
-102.055
20
-9.0251
41
0.4
42
0.4
50
0
0
LWPOLYLINE
5
452
100
AcDbEntity
8
F_Cu_____________
62
256
100
AcDbPolyline
90
2
70
0
43
0.4
10
-102.055
20
-9.0251
10
-106.6301
20
-0.9119
0
INSERT
5
453
100
AcDbEntity
8
F_Cu_____________
62
256
100
AcDbBlockReference
2
UNIT_DISC
10
-106.6301
20
-0.9119
41
0.4
42
0.4
50
0
0
INSERT
5
454
100
AcDbEntity
8
F_Cu_____________
62
256
100
AcDbBlockReference
2
UNIT_DISC
10
-106.6301
20
-0.9119
41
0.4
42
0.4
50
0
0
LWPOLYLINE
5
455
100
AcDbEntity
8
F_Cu_____________
62
256
100
AcDbPolyline
90
2
70
0
43
0.4
10
-106.6301
20
-0.9119
10
-106.8753
20
-0.3205
0
INSERT
5
456
100
AcDbEntity
8
F_Cu_____________
62
256
100
AcDbBlockReference
2
UNIT_DISC
10
-106.8753
20
-0.3205
41
0.4
42
0.4
50
0
0
INSERT
5
457
100
AcDbEntity
8
F_Cu_____________
62
256
100
AcDbBlockReference
2
UNIT_DISC
10
-106.8753
20
-0.3205
41
0.4
42
0.4
50
0
0
LWPOLYLINE
5
458
100
AcDbEntity
8
F_Cu_____________
62
256
100
AcDbPolyline
90
2
70
0
43
0.4
10
-106.8753
20
-0.3205
10
-106.92
20
-0.1425
0
INSERT
5
459
100
AcDbEntity
8
F_Cu_____________
62
256
100
AcDbBlockReference
2
UNIT_DISC
10
-106.92
20
-0.1425
41
0.4
42
0.4
50
0
0
INSERT
5
460
100
AcDbEntity
8
F_Cu_____________
62
256
100
AcDbBlockReference
2
UNIT_DISC
10
-106.92
20
-0.1425
41
0.4
42
0.4
50
0
0
LWPOLYLINE
5
461
100
AcDbEntity
8
F_Cu_____________
62
256
100
AcDbPolyline
90
2
70
0
43
0.4
10
-106.92
20
-0.1425
10
-107.1785
20
1.4821
0
INSERT
5
462
100
AcDbEntity
8
F_Cu_____________
62
256
100
AcDbBlockReference
2
UNIT_DISC
10
-107.1785
20
1.4821
41
0.4
42
0.4
50
0
0
INSERT
5
463
100
AcDbEntity
8
F_Cu_____________
62
256
100
AcDbBlockReference
2
UNIT_DISC
10
-107.1785
20
1.4821
41
0.4
42
0.4
50
0
0
LWPOLYLINE
5
464
100
AcDbEntity
8
F_Cu_____________
62
256
100
AcDbPolyline
90
2
70
0
43
0.4
10
-107.1785
20
1.4821
10
-107.3305
20
1.8491
0
INSERT
5
465
100
AcDbEntity
8
F_Cu_____________
62
256
100
AcDbBlockReference
2
UNIT_DISC
10
-107.3305
20
1.8491
41
0.4
42
0.4
50
0
0
INSERT
5
466
100
AcDbEntity
8
F_Cu_____________
62
256
100
AcDbBlockReference
2
UNIT_DISC
10
-107.3305
20
1.8491
41
0.4
42
0.4
50
0
0
LWPOLYLINE
5
467
100
AcDbEntity
8
F_Cu_____________
62
256
100
AcDbPolyline
90
2
70
0
43
0.4
10
-107.3305
20
1.8491
10
-114.474
20
15.942
0
INSERT
5
468
100
AcDbEntity
8
F_Cu_____________
62
256
100
AcDbBlockReference
2
UNIT_DISC
10
-114.474
20
15.942
41
0.4
42
0.4
50
0
0
INSERT
5
469
100
AcDbEntity
8
F_Cu_____________
62
256
100
AcDbBlockReference
2
UNIT_DISC
10
-116.4135
20
44.4306
41
0.4
42
0.4
50
0
0
LWPOLYLINE
5
470
100
AcDbEntity
8
F_Cu_____________
62
256
100
AcDbPolyline
90
2
70
0
43
0.4
10
-116.4135
20
44.4306
10
-115.789
20
34.4945
0
INSERT
5
471
100
AcDbEntity
8
F_Cu_____________
62
256
100
AcDbBlockReference
2
UNIT_DISC
10
-115.789
20
34.4945
41
0.4
42
0.4
50
0
0
INSERT
5
472
100
AcDbEntity
8
F_Cu_____________
62
256
100
AcDbBlockReference
2
UNIT_DISC
10
-114.474
20
15.942
41
0.4
42
0.4
50
0
0
LWPOLYLINE
5
473
100
AcDbEntity
8
F_Cu_____________
62
256
100
AcDbPolyline
90
2
70
0
43
0.4
10
-114.474
20
15.942
10
-115.789
20
34.4945
0
INSERT
5
474
100
AcDbEntity
8
F_Cu_____________
62
256
100
AcDbBlockReference
2
UNIT_DISC
10
-115.789
20
34.4945
41
0.4
42
0.4
50
0
0
INSERT
5
475
100
AcDbEntity
8
F_Cu_____________
62
256
100
AcDbBlockReference
2
UNIT_DISC
10
-170.7088
20
-24.2535
41
0.4
42
0.4
50
0
0
LWPOLYLINE
5
476
100
AcDbEntity
8
F_Cu_____________
62
256
100
AcDbPolyline
90
2
70
0
43
0.4
10
-170.7088
20
-24.2535
10
-170.2081
20
-24.2535
0
INSERT
5
477
100
AcDbEntity
8
F_Cu_____________
62
256
100
AcDbBlockReference
2
UNIT_DISC
10
-170.2081
20
-24.2535
41
0.4
42
0.4
50
0
0
INSERT
5
478
100
AcDbEntity
8
F_Cu_____________
62
256
100
AcDbBlockReference
2
UNIT_DISC
10
-170.2081
20
-24.2535
41
0.4
42
0.4
50
0
0
LWPOLYLINE
5
479
100
AcDbEntity
8
F_Cu_____________
62
256
100
AcDbPolyline
90
2
70
0
43
0.4
10
-170.2081
20
-24.2535
10
-170.1356
20
-24.2535
0
INSERT
5
480
100
AcDbEntity
8
F_Cu_____________
62
256
100
AcDbBlockReference
2
UNIT_DISC
10
-170.1356
20
-24.2535
41
0.4
42
0.4
50
0
0
INSERT
5
481
100
AcDbEntity
8
F_Cu_____________
62
256
100
AcDbBlockReference
2
UNIT_DISC
10
-170.1356
20
-24.2535
41
0.4
42
0.4
50
0
0
LWPOLYLINE
5
482
100
AcDbEntity
8
F_Cu_____________
62
256
100
AcDbPolyline
90
2
70
0
43
0.4
10
-170.1356
20
-24.2535
10
-143.1329
20
-16.626
0
INSERT
5
483
100
AcDbEntity
8
F_Cu_____________
62
256
100
AcDbBlockReference
2
UNIT_DISC
10
-143.1329
20
-16.626
41
0.4
42
0.4
50
0
0
INSERT
5
484
100
AcDbEntity
8
F_Cu_____________
62
256
100
AcDbBlockReference
2
UNIT_DISC
10
-143.1329
20
-16.626
41
0.4
42
0.4
50
0
0
LWPOLYLINE
5
485
100
AcDbEntity
8
F_Cu_____________
62
256
100
AcDbPolyline
90
2
70
0
43
0.4
10
-143.1329
20
-16.626
10
-139.6236
20
-16.1657
0
INSERT
5
486
100
AcDbEntity
8
F_Cu_____________
62
256
100
AcDbBlockReference
2
UNIT_DISC
10
-139.6236
20
-16.1657
41
0.4
42
0.4
50
0
0
INSERT
5
487
100
AcDbEntity
8
F_Cu_____________
62
256
100
AcDbBlockReference
2
UNIT_DISC
10
-139.6236
20
-16.1657
41
0.4
42
0.4
50
0
0
LWPOLYLINE
5
488
100
AcDbEntity
8
F_Cu_____________
62
256
100
AcDbPolyline
90
2
70
0
43
0.4
10
-139.6236
20
-16.1657
10
-137.9552
20
-15.2453
0
INSERT
5
489
100
AcDbEntity
8
F_Cu_____________
62
256
100
AcDbBlockReference
2
UNIT_DISC
10
-137.9552
20
-15.2453
41
0.4
42
0.4
50
0
0
INSERT
5
490
100
AcDbEntity
8
F_Cu_____________
62
256
100
AcDbBlockReference
2
UNIT_DISC
10
-137.9552
20
-15.2453
41
0.4
42
0.4
50
0
0
LWPOLYLINE
5
491
100
AcDbEntity
8
F_Cu_____________
62
256
100
AcDbPolyline
90
2
70
0
43
0.4
10
-137.9552
20
-15.2453
10
-132.1411
20
-3.9106
0
INSERT
5
492
100
AcDbEntity
8
F_Cu_____________
62
256
100
AcDbBlockReference
2
UNIT_DISC
10
-132.1411
20
-3.9106
41
0.4
42
0.4
50
0
0
INSERT
5
493
100
AcDbEntity
8
F_Cu_____________
62
256
100
AcDbBlockReference
2
UNIT_DISC
10
-132.1411
20
-3.9106
41
0.4
42
0.4
50
0
0
LWPOLYLINE
5
494
100
AcDbEntity
8
F_Cu_____________
62
256
100
AcDbPolyline
90
2
70
0
43
0.4
10
-132.1411
20
-3.9106
10
-131.3896
20
-3.1591
0
INSERT
5
495
100
AcDbEntity
8
F_Cu_____________
62
256
100
AcDbBlockReference
2
UNIT_DISC
10
-131.3896
20
-3.1591
41
0.4
42
0.4
50
0
0
INSERT
5
496
100
AcDbEntity
8
F_Cu_____________
62
256
100
AcDbBlockReference
2
UNIT_DISC
10
-131.3896
20
-3.1591
41
0.4
42
0.4
50
0
0
LWPOLYLINE
5
497
100
AcDbEntity
8
F_Cu_____________
62
256
100
AcDbPolyline
90
2
70
0
43
0.4
10
-131.3896
20
-3.1591
10
-131.3792
20
-3.1548
0
INSERT
5
498
100
AcDbEntity
8
F_Cu_____________
62
256
100
AcDbBlockReference
2
UNIT_DISC
10
-131.3792
20
-3.1548
41
0.4
42
0.4
50
0
0
INSERT
5
499
100
AcDbEntity
8
F_Cu_____________
62
256
100
AcDbBlockReference
2
UNIT_DISC
10
-131.3792
20
-3.1548
41
0.4
42
0.4
50
0
0
LWPOLYLINE
5
500
100
AcDbEntity
8
F_Cu_____________
62
256
100
AcDbPolyline
90
2
70
0
43
0.4
10
-131.3792
20
-3.1548
10
-109.449
20
0.7549
0
INSERT
5
501
100
AcDbEntity
8
F_Cu_____________
62
256
100
AcDbBlockReference
2
UNIT_DISC
10
-109.449
20
0.7549
41
0.4
42
0.4
50
0
0
INSERT
5
502
100
AcDbEntity
8
F_Cu_____________
62
256
100
AcDbBlockReference
2
UNIT_DISC
10
-96.2539
20
31.762
41
0.4
42
0.4
50
0
0
LWPOLYLINE
5
503
100
AcDbEntity
8
F_Cu_____________
62
256
100
AcDbPolyline
90
2
70
0
43
0.4
10
-96.2539
20
31.762
10
-95.5708
20
18.5417
0
INSERT
5
504
100
AcDbEntity
8
F_Cu_____________
62
256
100
AcDbBlockReference
2
UNIT_DISC
10
-95.5708
20
18.5417
41
0.4
42
0.4
50
0
0
INSERT
5
505
100
AcDbEntity
8
F_Cu_____________
62
256
100
AcDbBlockReference
2
UNIT_DISC
10
-105.1565
20
-20.2205
41
0.4
42
0.4
50
0
0
LWPOLYLINE
5
506
100
AcDbEntity
8
F_Cu_____________
62
256
100
AcDbPolyline
90
2
70
0
43
0.4
10
-105.1565
20
-20.2205
10
-104.1189
20
-19.736
0
INSERT
5
507
100
AcDbEntity
8
F_Cu_____________
62
256
100
AcDbBlockReference
2
UNIT_DISC
10
-104.1189
20
-19.736
41
0.4
42
0.4
50
0
0
INSERT
5
508
100
AcDbEntity
8
F_Cu_____________
62
256
100
AcDbBlockReference
2
UNIT_DISC
10
-104.1189
20
-19.736
41
0.4
42
0.4
50
0
0
LWPOLYLINE
5
509
100
AcDbEntity
8
F_Cu_____________
62
256
100
AcDbPolyline
90
2
70
0
43
0.4
10
-104.1189
20
-19.736
10
-104.1042
20
-19.736
0
INSERT
5
510
100
AcDbEntity
8
F_Cu_____________
62
256
100
AcDbBlockReference
2
UNIT_DISC
10
-104.1042
20
-19.736
41
0.4
42
0.4
50
0
0
INSERT
5
511
100
AcDbEntity
8
F_Cu_____________
62
256
100
AcDbBlockReference
2
UNIT_DISC
10
-104.1042
20
-19.736
41
0.4
42
0.4
50
0
0
LWPOLYLINE
5
512
100
AcDbEntity
8
F_Cu_____________
62
256
100
AcDbPolyline
90
2
70
0
43
0.4
10
-104.1042
20
-19.736
10
-103.5968
20
-19.3949
0
INSERT
5
513
100
AcDbEntity
8
F_Cu_____________
62
256
100
AcDbBlockReference
2
UNIT_DISC
10
-103.5968
20
-19.3949
41
0.4
42
0.4
50
0
0
INSERT
5
514
100
AcDbEntity
8
F_Cu_____________
62
256
100
AcDbBlockReference
2
UNIT_DISC
10
-103.5968
20
-19.3949
41
0.4
42
0.4
50
0
0
LWPOLYLINE
5
515
100
AcDbEntity
8
F_Cu_____________
62
256
100
AcDbPolyline
90
2
70
0
43
0.4
10
-103.5968
20
-19.3949
10
-103.0107
20
-18.8088
0
INSERT
5
516
100
AcDbEntity
8
F_Cu_____________
62
256
100
AcDbBlockReference
2
UNIT_DISC
10
-103.0107
20
-18.8088
41
0.4
42
0.4
50
0
0
INSERT
5
517
100
AcDbEntity
8
F_Cu_____________
62
256
100
AcDbBlockReference
2
UNIT_DISC
10
-103.0107
20
-18.8088
41
0.4
42
0.4
50
0
0
LWPOLYLINE
5
518
100
AcDbEntity
8
F_Cu_____________
62
256
100
AcDbPolyline
90
2
70
0
43
0.4
10
-103.0107
20
-18.8088
10
-101.7164
20
-16.8719
0
INSERT
5
519
100
AcDbEntity
8
F_Cu_____________
62
256
100
AcDbBlockReference
2
UNIT_DISC
10
-101.7164
20
-16.8719
41
0.4
42
0.4
50
0
0
INSERT
5
520
100
AcDbEntity
8
F_Cu_____________
62
256
100
AcDbBlockReference
2
UNIT_DISC
10
-101.7164
20
-16.8719
41
0.4
42
0.4
50
0
0
LWPOLYLINE
5
521
100
AcDbEntity
8
F_Cu_____________
62
256
100
AcDbPolyline
90
2
70
0
43
0.4
10
-101.7164
20
-16.8719
10
-100.5231
20
-15.0678
0
INSERT
5
522
100
AcDbEntity
8
F_Cu_____________
62
256
100
AcDbBlockReference
2
UNIT_DISC
10
-100.5231
20
-15.0678
41
0.4
42
0.4
50
0
0
INSERT
5
523
100
AcDbEntity
8
F_Cu_____________
62
256
100
AcDbBlockReference
2
UNIT_DISC
10
-100.5231
20
-15.0678
41
0.4
42
0.4
50
0
0
LWPOLYLINE
5
524
100
AcDbEntity
8
F_Cu_____________
62
256
100
AcDbPolyline
90
2
70
0
43
0.4
10
-100.5231
20
-15.0678
10
-100.4358
20
-14.9222
0
INSERT
5
525
100
AcDbEntity
8
F_Cu_____________
62
256
100
AcDbBlockReference
2
UNIT_DISC
10
-100.4358
20
-14.9222
41
0.4
42
0.4
50
0
0
INSERT
5
526
100
AcDbEntity
8
F_Cu_____________
62
256
100
AcDbBlockReference
2
UNIT_DISC
10
-100.4358
20
-14.9222
41
0.4
42
0.4
50
0
0
LWPOLYLINE
5
527
100
AcDbEntity
8
F_Cu_____________
62
256
100
AcDbPolyline
90
2
70
0
43
0.4
10
-100.4358
20
-14.9222
10
-100.1945
20
-14.3402
0
INSERT
5
528
100
AcDbEntity
8
F_Cu_____________
62
256
100
AcDbBlockReference
2
UNIT_DISC
10
-100.1945
20
-14.3402
41
0.4
42
0.4
50
0
0
INSERT
5
529
100
AcDbEntity
8
F_Cu_____________
62
256
100
AcDbBlockReference
2
UNIT_DISC
10
-100.1945
20
-14.3402
41
0.4
42
0.4
50
0
0
LWPOLYLINE
5
530
100
AcDbEntity
8
F_Cu_____________
62
256
100
AcDbPolyline
90
2
70
0
43
0.4
10
-100.1945
20
-14.3402
10
-100.1808
20
-14.2932
0
INSERT
5
531
100
AcDbEntity
8
F_Cu_____________
62
256
100
AcDbBlockReference
2
UNIT_DISC
10
-100.1808
20
-14.2932
41
0.4
42
0.4
50
0
0
INSERT
5
532
100
AcDbEntity
8
F_Cu_____________
62
256
100
AcDbBlockReference
2
UNIT_DISC
10
-100.1808
20
-14.2932
41
0.4
42
0.4
50
0
0
LWPOLYLINE
5
533
100
AcDbEntity
8
F_Cu_____________
62
256
100
AcDbPolyline
90
2
70
0
43
0.4
10
-100.1808
20
-14.2932
10
-100.1395
20
-14.1285
0
INSERT
5
534
100
AcDbEntity
8
F_Cu_____________
62
256
100
AcDbBlockReference
2
UNIT_DISC
10
-100.1395
20
-14.1285
41
0.4
42
0.4
50
0
0
INSERT
5
535
100
AcDbEntity
8
F_Cu_____________
62
256
100
AcDbBlockReference
2
UNIT_DISC
10
-100.1395
20
-14.1285
41
0.4
42
0.4
50
0
0
LWPOLYLINE
5
536
100
AcDbEntity
8
F_Cu_____________
62
256
100
AcDbPolyline
90
2
70
0
43
0.4
10
-100.1395
20
-14.1285
10
-100.122
20
-13.9292
0
INSERT
5
537
100
AcDbEntity
8
F_Cu_____________
62
256
100
AcDbBlockReference
2
UNIT_DISC
10
-100.122
20
-13.9292
41
0.4
42
0.4
50
0
0
INSERT
5
538
100
AcDbEntity
8
F_Cu_____________
62
256
100
AcDbBlockReference
2
UNIT_DISC
10
-100.122
20
-13.9292
41
0.4
42
0.4
50
0
0
LWPOLYLINE
5
539
100
AcDbEntity
8
F_Cu_____________
62
256
100
AcDbPolyline
90
2
70
0
43
0.4
10
-100.122
20
-13.9292
10
-100.0654
20
-13.2818
0
INSERT
5
540
100
AcDbEntity
8
F_Cu_____________
62
256
100
AcDbBlockReference
2
UNIT_DISC
10
-100.0654
20
-13.2818
41
0.4
42
0.4
50
0
0
INSERT
5
541
100
AcDbEntity
8
F_Cu_____________
62
256
100
AcDbBlockReference
2
UNIT_DISC
10
-100.0654
20
-13.2818
41
0.4
42
0.4
50
0
0
LWPOLYLINE
5
542
100
AcDbEntity
8
F_Cu_____________
62
256
100
AcDbPolyline
90
2
70
0
43
0.4
10
-100.0654
20
-13.2818
10
-100.048
20
-13.0825
0
INSERT
5
543
100
AcDbEntity
8
F_Cu_____________
62
256
100
AcDbBlockReference
2
UNIT_DISC
10
-100.048
20
-13.0825
41
0.4
42
0.4
50
0
0
INSERT
5
544
100
AcDbEntity
8
F_Cu_____________
62
256
100
AcDbBlockReference
2
UNIT_DISC
10
-100.048
20
-13.0825
41
0.4
42
0.4
50
0
0
LWPOLYLINE
5
545
100
AcDbEntity
8
F_Cu_____________
62
256
100
AcDbPolyline
90
2
70
0
43
0.4
10
-100.048
20
-13.0825
10
-100.048
20
-11.3049
0
INSERT
5
546
100
AcDbEntity
8
F_Cu_____________
62
256
100
AcDbBlockReference
2
UNIT_DISC
10
-100.048
20
-11.3049
41
0.4
42
0.4
50
0
0
INSERT
5
547
100
AcDbEntity
8
F_Cu_____________
62
256
100
AcDbBlockReference
2
UNIT_DISC
10
-100.048
20
-11.3049
41
0.4
42
0.4
50
0
0
LWPOLYLINE
5
548
100
AcDbEntity
8
F_Cu_____________
62
256
100
AcDbPolyline
90
2
70
0
43
0.4
10
-100.048
20
-11.3049
10
-100.0533
20
-11.2562
0
INSERT
5
549
100
AcDbEntity
8
F_Cu_____________
62
256
100
AcDbBlockReference
2
UNIT_DISC
10
-100.0533
20
-11.2562
41
0.4
42
0.4
50
0
0
INSERT
5
550
100
AcDbEntity
8
F_Cu_____________
62
256
100
AcDbBlockReference
2
UNIT_DISC
10
-100.0533
20
-11.2562
41
0.4
42
0.4
50
0
0
LWPOLYLINE
5
551
100
AcDbEntity
8
F_Cu_____________
62
256
100
AcDbPolyline
90
2
70
0
43
0.4
10
-100.0533
20
-11.2562
10
-100.0587
20
-11.2076
0
INSERT
5
552
100
AcDbEntity
8
F_Cu_____________
62
256
100
AcDbBlockReference
2
UNIT_DISC
10
-100.0587
20
-11.2076
41
0.4
42
0.4
50
0
0
INSERT
5
553
100
AcDbEntity
8
F_Cu_____________
62
256
100
AcDbBlockReference
2
UNIT_DISC
10
-100.0587
20
-11.2076
41
0.4
42
0.4
50
0
0
LWPOLYLINE
5
554
100
AcDbEntity
8
F_Cu_____________
62
256
100
AcDbPolyline
90
2
70
0
43
0.4
10
-100.0587
20
-11.2076
10
-100.1
20
-11.0429
0
INSERT
5
555
100
AcDbEntity
8
F_Cu_____________
62
256
100
AcDbBlockReference
2
UNIT_DISC
10
-100.1
20
-11.0429
41
0.4
42
0.4
50
0
0
INSERT
5
556
100
AcDbEntity
8
F_Cu_____________
62
256
100
AcDbBlockReference
2
UNIT_DISC
10
-100.1
20
-11.0429
41
0.4
42
0.4
50
0
0
LWPOLYLINE
5
557
100
AcDbEntity
8
F_Cu_____________
62
256
100
AcDbPolyline
90
2
70
0
43
0.4
10
-100.1
20
-11.0429
10
-100.6876
20
-9.1842
0
INSERT
5
558
100
AcDbEntity
8
F_Cu_____________
62
256
100
AcDbBlockReference
2
UNIT_DISC
10
-100.6876
20
-9.1842
41
0.4
42
0.4
50
0
0
INSERT
5
559
100
AcDbEntity
8
F_Cu_____________
62
256
100
AcDbBlockReference
2
UNIT_DISC
10
-100.6876
20
-9.1842
41
0.4
42
0.4
50
0
0
LWPOLYLINE
5
560
100
AcDbEntity
8
F_Cu_____________
62
256
100
AcDbPolyline
90
2
70
0
43
0.4
10
-100.6876
20
-9.1842
10
-100.9683
20
-8.5069
0
INSERT
5
561
100
AcDbEntity
8
F_Cu_____________
62
256
100
AcDbBlockReference
2
UNIT_DISC
10
-100.9683
20
-8.5069
41
0.4
42
0.4
50
0
0
INSERT
5
562
100
AcDbEntity
8
F_Cu_____________
62
256
100
AcDbBlockReference
2
UNIT_DISC
10
-100.9683
20
-8.5069
41
0.4
42
0.4
50
0
0
LWPOLYLINE
5
563
100
AcDbEntity
8
F_Cu_____________
62
256
100
AcDbPolyline
90
2
70
0
43
0.4
10
-100.9683
20
-8.5069
10
-100.9797
20
-8.4838
0
INSERT
5
564
100
AcDbEntity
8
F_Cu_____________
62
256
100
AcDbBlockReference
2
UNIT_DISC
10
-100.9797
20
-8.4838
41
0.4
42
0.4
50
0
0
INSERT
5
565
100
AcDbEntity
8
F_Cu_____________
62
256
100
AcDbBlockReference
2
UNIT_DISC
10
-100.9797
20
-8.4838
41
0.4
42
0.4
50
0
0
LWPOLYLINE
5
566
100
AcDbEntity
8
F_Cu_____________
62
256
100
AcDbPolyline
90
2
70
0
43
0.4
10
-100.9797
20
-8.4838
10
-105.5675
20
-0.3393
0
INSERT
5
567
100
AcDbEntity
8
F_Cu_____________
62
256
100
AcDbBlockReference
2
UNIT_DISC
10
-105.5675
20
-0.3393
41
0.4
42
0.4
50
0
0
INSERT
5
568
100
AcDbEntity
8
F_Cu_____________
62
256
100
AcDbBlockReference
2
UNIT_DISC
10
-105.5675
20
-0.3393
41
0.4
42
0.4
50
0
0
LWPOLYLINE
5
569
100
AcDbEntity
8
F_Cu_____________
62
256
100
AcDbPolyline
90
2
70
0
43
0.4
10
-105.5675
20
-0.3393
10
-105.7195
20
0.0277
0
INSERT
5
570
100
AcDbEntity
8
F_Cu_____________
62
256
100
AcDbBlockReference
2
UNIT_DISC
10
-105.7195
20
0.0277
41
0.4
42
0.4
50
0
0
INSERT
5
571
100
AcDbEntity
8
F_Cu_____________
62
256
100
AcDbBlockReference
2
UNIT_DISC
10
-105.7195
20
0.0277
41
0.4
42
0.4
50
0
0
LWPOLYLINE
5
572
100
AcDbEntity
8
F_Cu_____________
62
256
100
AcDbPolyline
90
2
70
0
43
0.4
10
-105.7195
20
0.0277
10
-105.7195
20
1.4821
0
INSERT
5
573
100
AcDbEntity
8
F_Cu_____________
62
256
100
AcDbBlockReference
2
UNIT_DISC
10
-105.7195
20
1.4821
41
0.4
42
0.4
50
0
0
INSERT
5
574
100
AcDbEntity
8
F_Cu_____________
62
256
100
AcDbBlockReference
2
UNIT_DISC
10
-105.7195
20
1.4821
41
0.4
42
0.4
50
0
0
LWPOLYLINE
5
575
100
AcDbEntity
8
F_Cu_____________
62
256
100
AcDbPolyline
90
2
70
0
43
0.4
10
-105.7195
20
1.4821
10
-105.5675
20
1.8491
0
INSERT
5
576
100
AcDbEntity
8
F_Cu_____________
62
256
100
AcDbBlockReference
2
UNIT_DISC
10
-105.5675
20
1.8491
41
0.4
42
0.4
50
0
0
INSERT
5
577
100
AcDbEntity
8
F_Cu_____________
62
256
100
AcDbBlockReference
2
UNIT_DISC
10
-105.5675
20
1.8491
41
0.4
42
0.4
50
0
0
LWPOLYLINE
5
578
100
AcDbEntity
8
F_Cu_____________
62
256
100
AcDbPolyline
90
2
70
0
43
0.4
10
-105.5675
20
1.8491
10
-95.5708
20
18.5417
0
INSERT
5
579
100
AcDbEntity
8
F_Cu_____________
62
256
100
AcDbBlockReference
2
UNIT_DISC
10
-95.5708
20
18.5417
41
0.4
42
0.4
50
0
0
INSERT
5
580
100
AcDbEntity
8
F_Cu_____________
62
256
100
AcDbBlockReference
2
UNIT_DISC
10
-103.449
20
0.7549
41
0.4
42
0.4
50
0
0
LWPOLYLINE
5
581
100
AcDbEntity
8
F_Cu_____________
62
256
100
AcDbPolyline
90
2
70
0
43
0.4
10
-103.449
20
0.7549
10
-99.5476
20
-8.7988
0
INSERT
5
582
100
AcDbEntity
8
F_Cu_____________
62
256
100
AcDbBlockReference
2
UNIT_DISC
10
-99.5476
20
-8.7988
41
0.4
42
0.4
50
0
0
INSERT
5
583
100
AcDbEntity
8
F_Cu_____________
62
256
100
AcDbBlockReference
2
UNIT_DISC
10
-99.5476
20
-8.7988
41
0.4
42
0.4
50
0
0
LWPOLYLINE
5
584
100
AcDbEntity
8
F_Cu_____________
62
256
100
AcDbPolyline
90
2
70
0
43
0.4
10
-99.5476
20
-8.7988
10
-99.5423
20
-8.815
0
INSERT
5
585
100
AcDbEntity
8
F_Cu_____________
62
256
100
AcDbBlockReference
2
UNIT_DISC
10
-99.5423
20
-8.815
41
0.4
42
0.4
50
0
0
INSERT
5
586
100
AcDbEntity
8
F_Cu_____________
62
256
100
AcDbBlockReference
2
UNIT_DISC
10
-99.5423
20
-8.815
41
0.4
42
0.4
50
0
0
LWPOLYLINE
5
587
100
AcDbEntity
8
F_Cu_____________
62
256
100
AcDbPolyline
90
2
70
0
43
0.4
10
-99.5423
20
-8.815
10
-98.9572
20
-10.665
0
INSERT
5
588
100
AcDbEntity
8
F_Cu_____________
62
256
100
AcDbBlockReference
2
UNIT_DISC
10
-98.9572
20
-10.665
41
0.4
42
0.4
50
0
0
INSERT
5
589
100
AcDbEntity
8
F_Cu_____________
62
256
100
AcDbBlockReference
2
UNIT_DISC
10
-98.9572
20
-10.665
41
0.4
42
0.4
50
0
0
LWPOLYLINE
5
590
100
AcDbEntity
8
F_Cu_____________
62
256
100
AcDbPolyline
90
2
70
0
43
0.4
10
-98.9572
20
-10.665
10
-98.8582
20
-11.0592
0
INSERT
5
591
100
AcDbEntity
8
F_Cu_____________
62
256
100
AcDbBlockReference
2
UNIT_DISC
10
-98.8582
20
-11.0592
41
0.4
42
0.4
50
0
0
INSERT
5
592
100
AcDbEntity
8
F_Cu_____________
62
256
100
AcDbBlockReference
2
UNIT_DISC
10
-98.8582
20
-11.0592
41
0.4
42
0.4
50
0
0
LWPOLYLINE
5
593
100
AcDbEntity
8
F_Cu_____________
62
256
100
AcDbPolyline
90
2
70
0
43
0.4
10
-98.8582
20
-11.0592
10
-98.8528
20
-11.1078
0
INSERT
5
594
100
AcDbEntity
8
F_Cu_____________
62
256
100
AcDbBlockReference
2
UNIT_DISC
10
-98.8528
20
-11.1078
41
0.4
42
0.4
50
0
0
INSERT
5
595
100
AcDbEntity
8
F_Cu_____________
62
256
100
AcDbBlockReference
2
UNIT_DISC
10
-98.8528
20
-11.1078
41
0.4
42
0.4
50
0
0
LWPOLYLINE
5
596
100
AcDbEntity
8
F_Cu_____________
62
256
100
AcDbPolyline
90
2
70
0
43
0.4
10
-98.8528
20
-11.1078
10
-98.8475
20
-11.1565
0
INSERT
5
597
100
AcDbEntity
8
F_Cu_____________
62
256
100
AcDbBlockReference
2
UNIT_DISC
10
-98.8475
20
-11.1565
41
0.4
42
0.4
50
0
0
INSERT
5
598
100
AcDbEntity
8
F_Cu_____________
62
256
100
AcDbBlockReference
2
UNIT_DISC
10
-98.8475
20
-11.1565
41
0.4
42
0.4
50
0
0
LWPOLYLINE
5
599
100
AcDbEntity
8
F_Cu_____________
62
256
100
AcDbPolyline
90
2
70
0
43
0.4
10
-98.8475
20
-11.1565
10
-98.8475
20
-13.2309
0
INSERT
5
600
100
AcDbEntity
8
F_Cu_____________
62
256
100
AcDbBlockReference
2
UNIT_DISC
10
-98.8475
20
-13.2309
41
0.4
42
0.4
50
0
0
INSERT
5
601
100
AcDbEntity
8
F_Cu_____________
62
256
100
AcDbBlockReference
2
UNIT_DISC
10
-98.8475
20
-13.2309
41
0.4
42
0.4
50
0
0
LWPOLYLINE
5
602
100
AcDbEntity
8
F_Cu_____________
62
256
100
AcDbPolyline
90
2
70
0
43
0.4
10
-98.8475
20
-13.2309
10
-98.8649
20
-13.4302
0
INSERT
5
603
100
AcDbEntity
8
F_Cu_____________
62
256
100
AcDbBlockReference
2
UNIT_DISC
10
-98.8649
20
-13.4302
41
0.4
42
0.4
50
0
0
INSERT
5
604
100
AcDbEntity
8
F_Cu_____________
62
256
100
AcDbBlockReference
2
UNIT_DISC
10
-98.8649
20
-13.4302
41
0.4
42
0.4
50
0
0
LWPOLYLINE
5
605
100
AcDbEntity
8
F_Cu_____________
62
256
100
AcDbPolyline
90
2
70
0
43
0.4
10
-98.8649
20
-13.4302
10
-98.9215
20
-14.0776
0
INSERT
5
606
100
AcDbEntity
8
F_Cu_____________
62
256
100
AcDbBlockReference
2
UNIT_DISC
10
-98.9215
20
-14.0776
41
0.4
42
0.4
50
0
0
INSERT
5
607
100
AcDbEntity
8
F_Cu_____________
62
256
100
AcDbBlockReference
2
UNIT_DISC
10
-98.9215
20
-14.0776
41
0.4
42
0.4
50
0
0
LWPOLYLINE
5
608
100
AcDbEntity
8
F_Cu_____________
62
256
100
AcDbPolyline
90
2
70
0
43
0.4
10
-98.9215
20
-14.0776
10
-98.939
20
-14.2769
0
INSERT
5
609
100
AcDbEntity
8
F_Cu_____________
62
256
100
AcDbBlockReference
2
UNIT_DISC
10
-98.939
20
-14.2769
41
0.4
42
0.4
50
0
0
INSERT
5
610
100
AcDbEntity
8
F_Cu_____________
62
256
100
AcDbBlockReference
2
UNIT_DISC
10
-98.939
20
-14.2769
41
0.4
42
0.4
50
0
0
LWPOLYLINE
5
611
100
AcDbEntity
8
F_Cu_____________
62
256
100
AcDbPolyline
90
2
70
0
43
0.4
10
-98.939
20
-14.2769
10
-99.038
20
-14.6711
0
INSERT
5
612
100
AcDbEntity
8
F_Cu_____________
62
256
100
AcDbBlockReference
2
UNIT_DISC
10
-99.038
20
-14.6711
41
0.4
42
0.4
50
0
0
INSERT
5
613
100
AcDbEntity
8
F_Cu_____________
62
256
100
AcDbBlockReference
2
UNIT_DISC
10
-99.038
20
-14.6711
41
0.4
42
0.4
50
0
0
LWPOLYLINE
5
614
100
AcDbEntity
8
F_Cu_____________
62
256
100
AcDbPolyline
90
2
70
0
43
0.4
10
-99.038
20
-14.6711
10
-99.0517
20
-14.7181
0
INSERT
5
615
100
AcDbEntity
8
F_Cu_____________
62
256
100
AcDbBlockReference
2
UNIT_DISC
10
-99.0517
20
-14.7181
41
0.4
42
0.4
50
0
0
INSERT
5
616
100
AcDbEntity
8
F_Cu_____________
62
256
100
AcDbBlockReference
2
UNIT_DISC
10
-99.0517
20
-14.7181
41
0.4
42
0.4
50
0
0
LWPOLYLINE
5
617
100
AcDbEntity
8
F_Cu_____________
62
256
100
AcDbPolyline
90
2
70
0
43
0.4
10
-99.0517
20
-14.7181
10
-99.3606
20
-15.4634
0
INSERT
5
618
100
AcDbEntity
8
F_Cu_____________
62
256
100
AcDbBlockReference
2
UNIT_DISC
10
-99.3606
20
-15.4634
41
0.4
42
0.4
50
0
0
INSERT
5
619
100
AcDbEntity
8
F_Cu_____________
62
256
100
AcDbBlockReference
2
UNIT_DISC
10
-99.3606
20
-15.4634
41
0.4
42
0.4
50
0
0
LWPOLYLINE
5
620
100
AcDbEntity
8
F_Cu_____________
62
256
100
AcDbPolyline
90
2
70
0
43
0.4
10
-99.3606
20
-15.4634
10
-103.4535
20
-23.8695
0
INSERT
5
621
100
AcDbEntity
8
F_Cu_____________
62
256
100
AcDbBlockReference
2
UNIT_DISC
10
-103.4535
20
-23.8695
41
0.4
42
0.4
50
0
0
INSERT
5
622
100
AcDbEntity
8
F_Cu_____________
62
256
100
AcDbBlockReference
2
UNIT_DISC
10
-103.4535
20
-23.8695
41
0.4
42
0.4
50
0
0
LWPOLYLINE
5
623
100
AcDbEntity
8
F_Cu_____________
62
256
100
AcDbPolyline
90
2
70
0
43
0.4
10
-103.4535
20
-23.8695
10
-103.4695
20
-23.8895
0
INSERT
5
624
100
AcDbEntity
8
F_Cu_____________
62
256
100
AcDbBlockReference
2
UNIT_DISC
10
-103.4695
20
-23.8895
41
0.4
42
0.4
50
0
0
INSERT
5
625
100
AcDbEntity
8
F_Cu_____________
62
256
100
AcDbBlockReference
2
UNIT_DISC
10
-103.4695
20
-23.8895
41
0.4
42
0.4
50
0
0
LWPOLYLINE
5
626
100
AcDbEntity
8
F_Cu_____________
62
256
100
AcDbPolyline
90
2
70
0
43
0.4
10
-103.4695
20
-23.8895
10
-103.5147
20
-23.9459
0
INSERT
5
627
100
AcDbEntity
8
F_Cu_____________
62
256
100
AcDbBlockReference
2
UNIT_DISC
10
-103.5147
20
-23.9459
41
0.4
42
0.4
50
0
0
INSERT
5
628
100
AcDbEntity
8
F_Cu_____________
62
256
100
AcDbBlockReference
2
UNIT_DISC
10
-103.5147
20
-23.9459
41
0.4
42
0.4
50
0
0
LWPOLYLINE
5
629
100
AcDbEntity
8
F_Cu_____________
62
256
100
AcDbPolyline
90
2
70
0
43
0.4
10
-103.5147
20
-23.9459
10
-104.1008
20
-24.532
0
INSERT
5
630
100
AcDbEntity
8
F_Cu_____________
62
256
100
AcDbBlockReference
2
UNIT_DISC
10
-104.1008
20
-24.532
41
0.4
42
0.4
50
0
0
INSERT
5
631
100
AcDbEntity
8
F_Cu_____________
62
256
100
AcDbBlockReference
2
UNIT_DISC
10
-104.1008
20
-24.532
41
0.4
42
0.4
50
0
0
LWPOLYLINE
5
632
100
AcDbEntity
8
F_Cu_____________
62
256
100
AcDbPolyline
90
2
70
0
43
0.4
10
-104.1008
20
-24.532
10
-104.5864
20
-24.7012
0
INSERT
5
633
100
AcDbEntity
8
F_Cu_____________
62
256
100
AcDbBlockReference
2
UNIT_DISC
10
-104.5864
20
-24.7012
41
0.4
42
0.4
50
0
0
INSERT
5
634
100
AcDbEntity
8
F_Cu_____________
62
256
100
AcDbBlockReference
2
UNIT_DISC
10
-104.5864
20
-24.7012
41
0.4
42
0.4
50
0
0
LWPOLYLINE
5
635
100
AcDbEntity
8
F_Cu_____________
62
256
100
AcDbPolyline
90
2
70
0
43
0.4
10
-104.5864
20
-24.7012
10
-104.5905
20
-24.7052
0
INSERT
5
636
100
AcDbEntity
8
F_Cu_____________
62
256
100
AcDbBlockReference
2
UNIT_DISC
10
-104.5905
20
-24.7052
41
0.4
42
0.4
50
0
0
INSERT
5
637
100
AcDbEntity
8
F_Cu_____________
62
256
100
AcDbBlockReference
2
UNIT_DISC
10
-104.5905
20
-24.7052
41
0.4
42
0.4
50
0
0
LWPOLYLINE
5
638
100
AcDbEntity
8
F_Cu_____________
62
256
100
AcDbPolyline
90
2
70
0
43
0.4
10
-104.5905
20
-24.7052
10
-105.5992
20
-25.2812
0
INSERT
5
639
100
AcDbEntity
8
F_Cu_____________
62
256
100
AcDbBlockReference
2
UNIT_DISC
10
-105.5992
20
-25.2812
41
0.4
42
0.4
50
0
0
INSERT
5
640
100
AcDbEntity
8
F_Cu_____________
62
256
100
AcDbBlockReference
2
UNIT_DISC
10
100.7088
20
-20.001
41
0.4
42
0.4
50
0
0
LWPOLYLINE
5
641
100
AcDbEntity
8
F_Cu_____________
62
256
100
AcDbPolyline
90
2
70
0
43
0.4
10
100.7088
20
-20.001
10
100.2148
20
-19.7924
0
INSERT
5
642
100
AcDbEntity
8
F_Cu_____________
62
256
100
AcDbBlockReference
2
UNIT_DISC
10
100.2148
20
-19.7924
41
0.4
42
0.4
50
0
0
INSERT
5
643
100
AcDbEntity
8
F_Cu_____________
62
256
100
AcDbBlockReference
2
UNIT_DISC
10
100.2148
20
-19.7924
41
0.4
42
0.4
50
0
0
LWPOLYLINE
5
644
100
AcDbEntity
8
F_Cu_____________
62
256
100
AcDbPolyline
90
2
70
0
43
0.4
10
100.2148
20
-19.7924
10
100.2076
20
-19.7924
0
INSERT
5
645
100
AcDbEntity
8
F_Cu_____________
62
256
100
AcDbBlockReference
2
UNIT_DISC
10
100.2076
20
-19.7924
41
0.4
42
0.4
50
0
0
INSERT
5
646
100
AcDbEntity
8
F_Cu_____________
62
256
100
AcDbBlockReference
2
UNIT_DISC
10
100.2076
20
-19.7924
41
0.4
42
0.4
50
0
0
LWPOLYLINE
5
647
100
AcDbEntity
8
F_Cu_____________
62
256
100
AcDbPolyline
90
2
70
0
43
0.4
10
100.2076
20
-19.7924
10
66.1099
20
-6.9073
0
INSERT
5
648
100
AcDbEntity
8
F_Cu_____________
62
256
100
AcDbBlockReference
2
UNIT_DISC
10
66.1099
20
-6.9073
41
0.4
42
0.4
50
0
0
INSERT
5
649
100
AcDbEntity
8
F_Cu_____________
62
256
100
AcDbBlockReference
2
UNIT_DISC
10
66.1099
20
-6.9073
41
0.4
42
0.4
50
0
0
LWPOLYLINE
5
650
100
AcDbEntity
8
F_Cu_____________
62
256
100
AcDbPolyline
90
2
70
0
43
0.4
10
66.1099
20
-6.9073
10
65.9924
20
-6.7898
0
INSERT
5
651
100
AcDbEntity
8
F_Cu_____________
62
256
100
AcDbBlockReference
2
UNIT_DISC
10
65.9924
20
-6.7898
41
0.4
42
0.4
50
0
0
INSERT
5
652
100
AcDbEntity
8
F_Cu_____________
62
256
100
AcDbBlockReference
2
UNIT_DISC
10
65.9924
20
-6.7898
41
0.4
42
0.4
50
0
0
LWPOLYLINE
5
653
100
AcDbEntity
8
F_Cu_____________
62
256
100
AcDbPolyline
90
2
70
0
43
0.4
10
65.9924
20
-6.7898
10
65.143
20
-5.9404
0
INSERT
5
654
100
AcDbEntity
8
F_Cu_____________
62
256
100
AcDbBlockReference
2
UNIT_DISC
10
65.143
20
-5.9404
41
0.4
42
0.4
50
0
0
INSERT
5
655
100
AcDbEntity
8
F_Cu_____________
62
256
100
AcDbBlockReference
2
UNIT_DISC
10
65.143
20
-5.9404
41
0.4
42
0.4
50
0
0
LWPOLYLINE
5
656
100
AcDbEntity
8
F_Cu_____________
62
256
100
AcDbPolyline
90
2
70
0
43
0.4
10
65.143
20
-5.9404
10
64.2335
20
-0.5948
0
INSERT
5
657
100
AcDbEntity
8
F_Cu_____________
62
256
100
AcDbBlockReference
2
UNIT_DISC
10
64.2335
20
-0.5948
41
0.4
42
0.4
50
0
0
INSERT
5
658
100
AcDbEntity
8
F_Cu_____________
62
256
100
AcDbBlockReference
2
UNIT_DISC
10
64.2335
20
-0.5948
41
0.4
42
0.4
50
0
0
LWPOLYLINE
5
659
100
AcDbEntity
8
F_Cu_____________
62
256
100
AcDbPolyline
90
2
70
0
43
0.4
10
64.2335
20
-0.5948
10
63.3083
20
0.6939
0
INSERT
5
660
100
AcDbEntity
8
F_Cu_____________
62
256
100
AcDbBlockReference
2
UNIT_DISC
10
63.3083
20
0.6939
41
0.4
42
0.4
50
0
0
INSERT
5
661
100
AcDbEntity
8
F_Cu_____________
62
256
100
AcDbBlockReference
2
UNIT_DISC
10
63.3083
20
0.6939
41
0.4
42
0.4
50
0
0
LWPOLYLINE
5
662
100
AcDbEntity
8
F_Cu_____________
62
256
100
AcDbPolyline
90
2
70
0
43
0.4
10
63.3083
20
0.6939
10
62.1518
20
1.3878
0
INSERT
5
663
100
AcDbEntity
8
F_Cu_____________
62
256
100
AcDbBlockReference
2
UNIT_DISC
10
62.1518
20
1.3878
41
0.4
42
0.4
50
0
0
INSERT
5
664
100
AcDbEntity
8
F_Cu_____________
62
256
100
AcDbBlockReference
2
UNIT_DISC
10
62.1518
20
1.3878
41
0.4
42
0.4
50
0
0
LWPOLYLINE
5
665
100
AcDbEntity
8
F_Cu_____________
62
256
100
AcDbPolyline
90
2
70
0
43
0.4
10
62.1518
20
1.3878
10
60.9623
20
1.7512
0
INSERT
5
666
100
AcDbEntity
8
F_Cu_____________
62
256
100
AcDbBlockReference
2
UNIT_DISC
10
60.9623
20
1.7512
41
0.4
42
0.4
50
0
0
INSERT
5
667
100
AcDbEntity
8
F_Cu_____________
62
256
100
AcDbBlockReference
2
UNIT_DISC
10
60.9623
20
1.7512
41
0.4
42
0.4
50
0
0
LWPOLYLINE
5
668
100
AcDbEntity
8
F_Cu_____________
62
256
100
AcDbPolyline
90
2
70
0
43
0.4
10
60.9623
20
1.7512
10
57.592
20
1.7512
0
INSERT
5
669
100
AcDbEntity
8
F_Cu_____________
62
256
100
AcDbBlockReference
2
UNIT_DISC
10
57.592
20
1.7512
41
0.4
42
0.4
50
0
0
INSERT
5
670
100
AcDbEntity
8
F_Cu_____________
62
256
100
AcDbBlockReference
2
UNIT_DISC
10
57.592
20
1.7512
41
0.4
42
0.4
50
0
0
LWPOLYLINE
5
671
100
AcDbEntity
8
F_Cu_____________
62
256
100
AcDbPolyline
90
2
70
0
43
0.4
10
57.592
20
1.7512
10
39.449
20
0.7549
0
INSERT
5
672
100
AcDbEntity
8
F_Cu_____________
62
256
100
AcDbBlockReference
2
UNIT_DISC
10
39.449
20
0.7549
41
0.4
42
0.4
50
0
0
INSERT
5
673
100
AcDbEntity
8
F_Cu_____________
62
256
100
AcDbBlockReference
2
UNIT_DISC
10
100.7088
20
-21.501
41
0.4
42
0.4
50
0
0
LWPOLYLINE
5
674
100
AcDbEntity
8
F_Cu_____________
62
256
100
AcDbPolyline
90
2
70
0
43
0.4
10
100.7088
20
-21.501
10
100.2081
20
-21.501
0
INSERT
5
675
100
AcDbEntity
8
F_Cu_____________
62
256
100
AcDbBlockReference
2
UNIT_DISC
10
100.2081
20
-21.501
41
0.4
42
0.4
50
0
0
INSERT
5
676
100
AcDbEntity
8
F_Cu_____________
62
256
100
AcDbBlockReference
2
UNIT_DISC
10
100.2081
20
-21.501
41
0.4
42
0.4
50
0
0
LWPOLYLINE
5
677
100
AcDbEntity
8
F_Cu_____________
62
256
100
AcDbPolyline
90
2
70
0
43
0.4
10
100.2081
20
-21.501
10
100.1356
20
-21.501
0
INSERT
5
678
100
AcDbEntity
8
F_Cu_____________
62
256
100
AcDbBlockReference
2
UNIT_DISC
10
100.1356
20
-21.501
41
0.4
42
0.4
50
0
0
INSERT
5
679
100
AcDbEntity
8
F_Cu_____________
62
256
100
AcDbBlockReference
2
UNIT_DISC
10
100.1356
20
-21.501
41
0.4
42
0.4
50
0
0
LWPOLYLINE
5
680
100
AcDbEntity
8
F_Cu_____________
62
256
100
AcDbPolyline
90
2
70
0
43
0.4
10
100.1356
20
-21.501
10
65.6386
20
-8.1078
0
INSERT
5
681
100
AcDbEntity
8
F_Cu_____________
62
256
100
AcDbBlockReference
2
UNIT_DISC
10
65.6386
20
-8.1078
41
0.4
42
0.4
50
0
0
INSERT
5
682
100
AcDbEntity
8
F_Cu_____________
62
256
100
AcDbBlockReference
2
UNIT_DISC
10
65.6386
20
-8.1078
41
0.4
42
0.4
50
0
0
LWPOLYLINE
5
683
100
AcDbEntity
8
F_Cu_____________
62
256
100
AcDbPolyline
90
2
70
0
43
0.4
10
65.6386
20
-8.1078
10
65.5912
20
-8.0882
0
INSERT
5
684
100
AcDbEntity
8
F_Cu_____________
62
256
100
AcDbBlockReference
2
UNIT_DISC
10
65.5912
20
-8.0882
41
0.4
42
0.4
50
0
0
INSERT
5
685
100
AcDbEntity
8
F_Cu_____________
62
256
100
AcDbBlockReference
2
UNIT_DISC
10
65.5912
20
-8.0882
41
0.4
42
0.4
50
0
0
LWPOLYLINE
5
686
100
AcDbEntity
8
F_Cu_____________
62
256
100
AcDbPolyline
90
2
70
0
43
0.4
10
65.5912
20
-8.0882
10
64.8115
20
-7.3085
0
INSERT
5
687
100
AcDbEntity
8
F_Cu_____________
62
256
100
AcDbBlockReference
2
UNIT_DISC
10
64.8115
20
-7.3085
41
0.4
42
0.4
50
0
0
INSERT
5
688
100
AcDbEntity
8
F_Cu_____________
62
256
100
AcDbBlockReference
2
UNIT_DISC
10
64.8115
20
-7.3085
41
0.4
42
0.4
50
0
0
LWPOLYLINE
5
689
100
AcDbEntity
8
F_Cu_____________
62
256
100
AcDbPolyline
90
2
70
0
43
0.4
10
64.8115
20
-7.3085
10
63.9621
20
-6.4591
0
INSERT
5
690
100
AcDbEntity
8
F_Cu_____________
62
256
100
AcDbBlockReference
2
UNIT_DISC
10
63.9621
20
-6.4591
41
0.4
42
0.4
50
0
0
INSERT
5
691
100
AcDbEntity
8
F_Cu_____________
62
256
100
AcDbBlockReference
2
UNIT_DISC
10
63.9621
20
-6.4591
41
0.4
42
0.4
50
0
0
LWPOLYLINE
5
692
100
AcDbEntity
8
F_Cu_____________
62
256
100
AcDbPolyline
90
2
70
0
43
0.4
10
63.9621
20
-6.4591
10
62.9779
20
-1.2226
0
INSERT
5
693
100
AcDbEntity
8
F_Cu_____________
62
256
100
AcDbBlockReference
2
UNIT_DISC
10
62.9779
20
-1.2226
41
0.4
42
0.4
50
0
0
INSERT
5
694
100
AcDbEntity
8
F_Cu_____________
62
256
100
AcDbBlockReference
2
UNIT_DISC
10
62.9779
20
-1.2226
41
0.4
42
0.4
50
0
0
LWPOLYLINE
5
695
100
AcDbEntity
8
F_Cu_____________
62
256
100
AcDbPolyline
90
2
70
0
43
0.4
10
62.9779
20
-1.2226
10
61.5901
20
-0.033
0
INSERT
5
696
100
AcDbEntity
8
F_Cu_____________
62
256
100
AcDbBlockReference
2
UNIT_DISC
10
61.5901
20
-0.033
41
0.4
42
0.4
50
0
0
INSERT
5
697
100
AcDbEntity
8
F_Cu_____________
62
256
100
AcDbBlockReference
2
UNIT_DISC
10
61.5901
20
-0.033
41
0.4
42
0.4
50
0
0
LWPOLYLINE
5
698
100
AcDbEntity
8
F_Cu_____________
62
256
100
AcDbPolyline
90
2
70
0
43
0.4
10
61.5901
20
-0.033
10
60.3345
20
0.1652
0
INSERT
5
699
100
AcDbEntity
8
F_Cu_____________
62
256
100
AcDbBlockReference
2
UNIT_DISC
10
60.3345
20
0.1652
41
0.4
42
0.4
50
0
0
INSERT
5
700
100
AcDbEntity
8
F_Cu_____________
62
256
100
AcDbBlockReference
2
UNIT_DISC
10
60.3345
20
0.1652
41
0.4
42
0.4
50
0
0
LWPOLYLINE
5
701
100
AcDbEntity
8
F_Cu_____________
62
256
100
AcDbPolyline
90
2
70
0
43
0.4
10
60.3345
20
0.1652
10
58.7485
20
0.0991
0
INSERT
5
702
100
AcDbEntity
8
F_Cu_____________
62
256
100
AcDbBlockReference
2
UNIT_DISC
10
58.7485
20
0.0991
41
0.4
42
0.4
50
0
0
INSERT
5
703
100
AcDbEntity
8
F_Cu_____________
62
256
100
AcDbBlockReference
2
UNIT_DISC
10
58.7485
20
0.0991
41
0.4
42
0.4
50
0
0
LWPOLYLINE
5
704
100
AcDbEntity
8
F_Cu_____________
62
256
100
AcDbPolyline
90
2
70
0
43
0.4
10
58.7485
20
0.0991
10
27.138
20
-6.8319
0
INSERT
5
705
100
AcDbEntity
8
F_Cu_____________
62
256
100
AcDbBlockReference
2
UNIT_DISC
10
27.138
20
-6.8319
41
0.4
42
0.4
50
0
0
INSERT
5
706
100
AcDbEntity
8
F_Cu_____________
62
256
100
AcDbBlockReference
2
UNIT_DISC
10
27.138
20
-6.8319
41
0.4
42
0.4
50
0
0
LWPOLYLINE
5
707
100
AcDbEntity
8
F_Cu_____________
62
256
100
AcDbPolyline
90
2
70
0
43
0.4
10
27.138
20
-6.8319
10
26.1132
20
-8.6158
0
INSERT
5
708
100
AcDbEntity
8
F_Cu_____________
62
256
100
AcDbBlockReference
2
UNIT_DISC
10
26.1132
20
-8.6158
41
0.4
42
0.4
50
0
0
INSERT
5
709
100
AcDbEntity
8
F_Cu_____________
62
256
100
AcDbBlockReference
2
UNIT_DISC
10
26.1132
20
-8.6158
41
0.4
42
0.4
50
0
0
LWPOLYLINE
5
710
100
AcDbEntity
8
F_Cu_____________
62
256
100
AcDbPolyline
90
2
70
0
43
0.4
10
26.1132
20
-8.6158
10
26.5273
20
-9.9472
0
INSERT
5
711
100
AcDbEntity
8
F_Cu_____________
62
256
100
AcDbBlockReference
2
UNIT_DISC
10
26.5273
20
-9.9472
41
0.4
42
0.4
50
0
0
INSERT
5
712
100
AcDbEntity
8
F_Cu_____________
62
256
100
AcDbBlockReference
2
UNIT_DISC
10
26.5273
20
-9.9472
41
0.4
42
0.4
50
0
0
LWPOLYLINE
5
713
100
AcDbEntity
8
F_Cu_____________
62
256
100
AcDbPolyline
90
2
70
0
43
0.4
10
26.5273
20
-9.9472
10
26.5316
20
-9.9576
0
INSERT
5
714
100
AcDbEntity
8
F_Cu_____________
62
256
100
AcDbBlockReference
2
UNIT_DISC
10
26.5316
20
-9.9576
41
0.4
42
0.4
50
0
0
INSERT
5
715
100
AcDbEntity
8
F_Cu_____________
62
256
100
AcDbBlockReference
2
UNIT_DISC
10
26.5316
20
-9.9576
41
0.4
42
0.4
50
0
0
LWPOLYLINE
5
716
100
AcDbEntity
8
F_Cu_____________
62
256
100
AcDbPolyline
90
2
70
0
43
0.4
10
26.5316
20
-9.9576
10
26.9162
20
-10.8116
0
INSERT
5
717
100
AcDbEntity
8
F_Cu_____________
62
256
100
AcDbBlockReference
2
UNIT_DISC
10
26.9162
20
-10.8116
41
0.4
42
0.4
50
0
0
INSERT
5
718
100
AcDbEntity
8
F_Cu_____________
62
256
100
AcDbBlockReference
2
UNIT_DISC
10
26.9162
20
-10.8116
41
0.4
42
0.4
50
0
0
LWPOLYLINE
5
719
100
AcDbEntity
8
F_Cu_____________
62
256
100
AcDbPolyline
90
2
70
0
43
0.4
10
26.9162
20
-10.8116
10
32.1637
20
-20.3765
0
INSERT
5
720
100
AcDbEntity
8
F_Cu_____________
62
256
100
AcDbBlockReference
2
UNIT_DISC
10
32.1637
20
-20.3765
41
0.4
42
0.4
50
0
0
INSERT
5
721
100
AcDbEntity
8
F_Cu_____________
62
256
100
AcDbBlockReference
2
UNIT_DISC
10
52.9345
20
-13.7259
41
0.4
42
0.4
50
0
0
LWPOLYLINE
5
722
100
AcDbEntity
8
F_Cu_____________
62
256
100
AcDbPolyline
90
2
70
0
43
0.4
10
52.9345
20
-13.7259
10
53.8835
20
-13.0851
0
INSERT
5
723
100
AcDbEntity
8
F_Cu_____________
62
256
100
AcDbBlockReference
2
UNIT_DISC
10
53.8835
20
-13.0851
41
0.4
42
0.4
50
0
0
INSERT
5
724
100
AcDbEntity
8
F_Cu_____________
62
256
100
AcDbBlockReference
2
UNIT_DISC
10
53.8835
20
-13.0851
41
0.4
42
0.4
50
0
0
LWPOLYLINE
5
725
100
AcDbEntity
8
F_Cu_____________
62
256
100
AcDbPolyline
90
2
70
0
43
0.4
10
53.8835
20
-13.0851
10
53.8902
20
-13.0851
0
INSERT
5
726
100
AcDbEntity
8
F_Cu_____________
62
256
100
AcDbBlockReference
2
UNIT_DISC
10
53.8902
20
-13.0851
41
0.4
42
0.4
50
0
0
INSERT
5
727
100
AcDbEntity
8
F_Cu_____________
62
256
100
AcDbBlockReference
2
UNIT_DISC
10
53.8902
20
-13.0851
41
0.4
42
0.4
50
0
0
LWPOLYLINE
5
728
100
AcDbEntity
8
F_Cu_____________
62
256
100
AcDbPolyline
90
2
70
0
43
0.4
10
53.8902
20
-13.0851
10
54.6032
20
-12.4376
0
INSERT
5
729
100
AcDbEntity
8
F_Cu_____________
62
256
100
AcDbBlockReference
2
UNIT_DISC
10
54.6032
20
-12.4376
41
0.4
42
0.4
50
0
0
INSERT
5
730
100
AcDbEntity
8
F_Cu_____________
62
256
100
AcDbBlockReference
2
UNIT_DISC
10
54.6032
20
-12.4376
41
0.4
42
0.4
50
0
0
LWPOLYLINE
5
731
100
AcDbEntity
8
F_Cu_____________
62
256
100
AcDbPolyline
90
2
70
0
43
0.4
10
54.6032
20
-12.4376
10
55.608
20
-11.4328
0
INSERT
5
732
100
AcDbEntity
8
F_Cu_____________
62
256
100
AcDbBlockReference
2
UNIT_DISC
10
55.608
20
-11.4328
41
0.4
42
0.4
50
0
0
INSERT
5
733
100
AcDbEntity
8
F_Cu_____________
62
256
100
AcDbBlockReference
2
UNIT_DISC
10
55.608
20
-11.4328
41
0.4
42
0.4
50
0
0
LWPOLYLINE
5
734
100
AcDbEntity
8
F_Cu_____________
62
256
100
AcDbPolyline
90
2
70
0
43
0.4
10
55.608
20
-11.4328
10
57.8507
20
-8.9206
0
INSERT
5
735
100
AcDbEntity
8
F_Cu_____________
62
256
100
AcDbBlockReference
2
UNIT_DISC
10
57.8507
20
-8.9206
41
0.4
42
0.4
50
0
0
INSERT
5
736
100
AcDbEntity
8
F_Cu_____________
62
256
100
AcDbBlockReference
2
UNIT_DISC
10
57.8507
20
-8.9206
41
0.4
42
0.4
50
0
0
LWPOLYLINE
5
737
100
AcDbEntity
8
F_Cu_____________
62
256
100
AcDbPolyline
90
2
70
0
43
0.4
10
57.8507
20
-8.9206
10
57.855
20
-8.9102
0
INSERT
5
738
100
AcDbEntity
8
F_Cu_____________
62
256
100
AcDbBlockReference
2
UNIT_DISC
10
57.855
20
-8.9102
41
0.4
42
0.4
50
0
0
INSERT
5
739
100
AcDbEntity
8
F_Cu_____________
62
256
100
AcDbBlockReference
2
UNIT_DISC
10
57.855
20
-8.9102
41
0.4
42
0.4
50
0
0
LWPOLYLINE
5
740
100
AcDbEntity
8
F_Cu_____________
62
256
100
AcDbPolyline
90
2
70
0
43
0.4
10
57.855
20
-8.9102
10
59.5065
20
-3.2482
0
INSERT
5
741
100
AcDbEntity
8
F_Cu_____________
62
256
100
AcDbBlockReference
2
UNIT_DISC
10
59.5065
20
-3.2482
41
0.4
42
0.4
50
0
0
INSERT
5
742
100
AcDbEntity
8
F_Cu_____________
62
256
100
AcDbBlockReference
2
UNIT_DISC
10
53.1116
20
-16.2597
41
0.4
42
0.4
50
0
0
LWPOLYLINE
5
743
100
AcDbEntity
8
F_Cu_____________
62
256
100
AcDbPolyline
90
2
70
0
43
0.4
10
53.1116
20
-16.2597
10
54.0606
20
-15.6189
0
INSERT
5
744
100
AcDbEntity
8
F_Cu_____________
62
256
100
AcDbBlockReference
2
UNIT_DISC
10
54.0606
20
-15.6189
41
0.4
42
0.4
50
0
0
INSERT
5
745
100
AcDbEntity
8
F_Cu_____________
62
256
100
AcDbBlockReference
2
UNIT_DISC
10
54.0606
20
-15.6189
41
0.4
42
0.4
50
0
0
LWPOLYLINE
5
746
100
AcDbEntity
8
F_Cu_____________
62
256
100
AcDbPolyline
90
2
70
0
43
0.4
10
54.0606
20
-15.6189
10
54.0673
20
-15.6189
0
INSERT
5
747
100
AcDbEntity
8
F_Cu_____________
62
256
100
AcDbBlockReference
2
UNIT_DISC
10
54.0673
20
-15.6189
41
0.4
42
0.4
50
0
0
INSERT
5
748
100
AcDbEntity
8
F_Cu_____________
62
256
100
AcDbBlockReference
2
UNIT_DISC
10
54.0673
20
-15.6189
41
0.4
42
0.4
50
0
0
LWPOLYLINE
5
749
100
AcDbEntity
8
F_Cu_____________
62
256
100
AcDbPolyline
90
2
70
0
43
0.4
10
54.0673
20
-15.6189
10
54.0949
20
-15.5913
0
INSERT
5
750
100
AcDbEntity
8
F_Cu_____________
62
256
100
AcDbBlockReference
2
UNIT_DISC
10
54.0949
20
-15.5913
41
0.4
42
0.4
50
0
0
INSERT
5
751
100
AcDbEntity
8
F_Cu_____________
62
256
100
AcDbBlockReference
2
UNIT_DISC
10
54.0949
20
-15.5913
41
0.4
42
0.4
50
0
0
LWPOLYLINE
5
752
100
AcDbEntity
8
F_Cu_____________
62
256
100
AcDbPolyline
90
2
70
0
43
0.4
10
54.0949
20
-15.5913
10
54.9577
20
-14.6913
0
INSERT
5
753
100
AcDbEntity
8
F_Cu_____________
62
256
100
AcDbBlockReference
2
UNIT_DISC
10
54.9577
20
-14.6913
41
0.4
42
0.4
50
0
0
INSERT
5
754
100
AcDbEntity
8
F_Cu_____________
62
256
100
AcDbBlockReference
2
UNIT_DISC
10
54.9577
20
-14.6913
41
0.4
42
0.4
50
0
0
LWPOLYLINE
5
755
100
AcDbEntity
8
F_Cu_____________
62
256
100
AcDbPolyline
90
2
70
0
43
0.4
10
54.9577
20
-14.6913
10
59.3702
20
-10.0101
0
INSERT
5
756
100
AcDbEntity
8
F_Cu_____________
62
256
100
AcDbBlockReference
2
UNIT_DISC
10
59.3702
20
-10.0101
41
0.4
42
0.4
50
0
0
INSERT
5
757
100
AcDbEntity
8
F_Cu_____________
62
256
100
AcDbBlockReference
2
UNIT_DISC
10
59.3702
20
-10.0101
41
0.4
42
0.4
50
0
0
LWPOLYLINE
5
758
100
AcDbEntity
8
F_Cu_____________
62
256
100
AcDbPolyline
90
2
70
0
43
0.4
10
59.3702
20
-10.0101
10
61.2927
20
-3.932
0
INSERT
5
759
100
AcDbEntity
8
F_Cu_____________
62
256
100
AcDbBlockReference
2
UNIT_DISC
10
61.2927
20
-3.932
41
0.4
42
0.4
50
0
0
INSERT
5
760
100
AcDbEntity
8
F_Cu_____________
62
256
100
AcDbBlockReference
2
UNIT_DISC
10
61.2927
20
-3.932
41
0.4
42
0.4
50
0
0
LWPOLYLINE
5
761
100
AcDbEntity
8
F_Cu_____________
62
256
100
AcDbPolyline
90
2
70
0
43
0.4
10
61.2927
20
-3.932
10
61.2927
20
-2.4451
0
INSERT
5
762
100
AcDbEntity
8
F_Cu_____________
62
256
100
AcDbBlockReference
2
UNIT_DISC
10
61.2927
20
-2.4451
41
0.4
42
0.4
50
0
0
INSERT
5
763
100
AcDbEntity
8
F_Cu_____________
62
256
100
AcDbBlockReference
2
UNIT_DISC
10
61.2927
20
-2.4451
41
0.4
42
0.4
50
0
0
LWPOLYLINE
5
764
100
AcDbEntity
8
F_Cu_____________
62
256
100
AcDbPolyline
90
2
70
0
43
0.4
10
61.2927
20
-2.4451
10
60.7971
20
-1.7182
0
INSERT
5
765
100
AcDbEntity
8
F_Cu_____________
62
256
100
AcDbBlockReference
2
UNIT_DISC
10
60.7971
20
-1.7182
41
0.4
42
0.4
50
0
0
INSERT
5
766
100
AcDbEntity
8
F_Cu_____________
62
256
100
AcDbBlockReference
2
UNIT_DISC
10
60.7971
20
-1.7182
41
0.4
42
0.4
50
0
0
LWPOLYLINE
5
767
100
AcDbEntity
8
F_Cu_____________
62
256
100
AcDbPolyline
90
2
70
0
43
0.4
10
60.7971
20
-1.7182
10
59.8663
20
-1.1009
0
INSERT
5
768
100
AcDbEntity
8
F_Cu_____________
62
256
100
AcDbBlockReference
2
UNIT_DISC
10
59.8663
20
-1.1009
41
0.4
42
0.4
50
0
0
INSERT
5
769
100
AcDbEntity
8
F_Cu_____________
62
256
100
AcDbBlockReference
2
UNIT_DISC
10
34.7987
20
-14.994
41
0.4
42
0.4
50
0
0
LWPOLYLINE
5
770
100
AcDbEntity
8
F_Cu_____________
62
256
100
AcDbPolyline
90
2
70
0
43
0.4
10
34.7987
20
-14.994
10
33.7697
20
-14.4915
0
INSERT
5
771
100
AcDbEntity
8
F_Cu_____________
62
256
100
AcDbBlockReference
2
UNIT_DISC
10
33.7697
20
-14.4915
41
0.4
42
0.4
50
0
0
INSERT
5
772
100
AcDbEntity
8
F_Cu_____________
62
256
100
AcDbBlockReference
2
UNIT_DISC
10
33.7697
20
-14.4915
41
0.4
42
0.4
50
0
0
LWPOLYLINE
5
773
100
AcDbEntity
8
F_Cu_____________
62
256
100
AcDbPolyline
90
2
70
0
43
0.4
10
33.7697
20
-14.4915
10
33.7559
20
-14.4915
0
INSERT
5
774
100
AcDbEntity
8
F_Cu_____________
62
256
100
AcDbBlockReference
2
UNIT_DISC
10
33.7559
20
-14.4915
41
0.4
42
0.4
50
0
0
INSERT
5
775
100
AcDbEntity
8
F_Cu_____________
62
256
100
AcDbBlockReference
2
UNIT_DISC
10
33.7559
20
-14.4915
41
0.4
42
0.4
50
0
0
LWPOLYLINE
5
776
100
AcDbEntity
8
F_Cu_____________
62
256
100
AcDbPolyline
90
2
70
0
43
0.4
10
33.7559
20
-14.4915
10
33.2711
20
-14.1487
0
INSERT
5
777
100
AcDbEntity
8
F_Cu_____________
62
256
100
AcDbBlockReference
2
UNIT_DISC
10
33.2711
20
-14.1487
41
0.4
42
0.4
50
0
0
INSERT
5
778
100
AcDbEntity
8
F_Cu_____________
62
256
100
AcDbBlockReference
2
UNIT_DISC
10
33.2711
20
-14.1487
41
0.4
42
0.4
50
0
0
LWPOLYLINE
5
779
100
AcDbEntity
8
F_Cu_____________
62
256
100
AcDbPolyline
90
2
70
0
43
0.4
10
33.2711
20
-14.1487
10
32.685
20
-13.5626
0
INSERT
5
780
100
AcDbEntity
8
F_Cu_____________
62
256
100
AcDbBlockReference
2
UNIT_DISC
10
32.685
20
-13.5626
41
0.4
42
0.4
50
0
0
INSERT
5
781
100
AcDbEntity
8
F_Cu_____________
62
256
100
AcDbBlockReference
2
UNIT_DISC
10
32.685
20
-13.5626
41
0.4
42
0.4
50
0
0
LWPOLYLINE
5
782
100
AcDbEntity
8
F_Cu_____________
62
256
100
AcDbPolyline
90
2
70
0
43
0.4
10
32.685
20
-13.5626
10
29.2301
20
-9.5868
0
INSERT
5
783
100
AcDbEntity
8
F_Cu_____________
62
256
100
AcDbBlockReference
2
UNIT_DISC
10
29.2301
20
-9.5868
41
0.4
42
0.4
50
0
0
INSERT
5
784
100
AcDbEntity
8
F_Cu_____________
62
256
100
AcDbBlockReference
2
UNIT_DISC
10
34.9759
20
-17.5278
41
0.4
42
0.4
50
0
0
LWPOLYLINE
5
785
100
AcDbEntity
8
F_Cu_____________
62
256
100
AcDbPolyline
90
2
70
0
43
0.4
10
34.9759
20
-17.5278
10
33.9469
20
-17.0253
0
INSERT
5
786
100
AcDbEntity
8
F_Cu_____________
62
256
100
AcDbBlockReference
2
UNIT_DISC
10
33.9469
20
-17.0253
41
0.4
42
0.4
50
0
0
INSERT
5
787
100
AcDbEntity
8
F_Cu_____________
62
256
100
AcDbBlockReference
2
UNIT_DISC
10
33.9469
20
-17.0253
41
0.4
42
0.4
50
0
0
LWPOLYLINE
5
788
100
AcDbEntity
8
F_Cu_____________
62
256
100
AcDbPolyline
90
2
70
0
43
0.4
10
33.9469
20
-17.0253
10
33.9331
20
-17.0253
0
INSERT
5
789
100
AcDbEntity
8
F_Cu_____________
62
256
100
AcDbBlockReference
2
UNIT_DISC
10
33.9331
20
-17.0253
41
0.4
42
0.4
50
0
0
INSERT
5
790
100
AcDbEntity
8
F_Cu_____________
62
256
100
AcDbBlockReference
2
UNIT_DISC
10
33.9331
20
-17.0253
41
0.4
42
0.4
50
0
0
LWPOLYLINE
5
791
100
AcDbEntity
8
F_Cu_____________
62
256
100
AcDbPolyline
90
2
70
0
43
0.4
10
33.9331
20
-17.0253
10
33.4482
20
-16.6825
0
INSERT
5
792
100
AcDbEntity
8
F_Cu_____________
62
256
100
AcDbBlockReference
2
UNIT_DISC
10
33.4482
20
-16.6825
41
0.4
42
0.4
50
0
0
INSERT
5
793
100
AcDbEntity
8
F_Cu_____________
62
256
100
AcDbBlockReference
2
UNIT_DISC
10
33.4482
20
-16.6825
41
0.4
42
0.4
50
0
0
LWPOLYLINE
5
794
100
AcDbEntity
8
F_Cu_____________
62
256
100
AcDbPolyline
90
2
70
0
43
0.4
10
33.4482
20
-16.6825
10
32.8621
20
-16.0964
0
INSERT
5
795
100
AcDbEntity
8
F_Cu_____________
62
256
100
AcDbBlockReference
2
UNIT_DISC
10
32.8621
20
-16.0964
41
0.4
42
0.4
50
0
0
INSERT
5
796
100
AcDbEntity
8
F_Cu_____________
62
256
100
AcDbBlockReference
2
UNIT_DISC
10
32.8621
20
-16.0964
41
0.4
42
0.4
50
0
0
LWPOLYLINE
5
797
100
AcDbEntity
8
F_Cu_____________
62
256
100
AcDbPolyline
90
2
70
0
43
0.4
10
32.8621
20
-16.0964
10
27.9339
20
-10.1315
0
INSERT
5
798
100
AcDbEntity
8
F_Cu_____________
62
256
100
AcDbBlockReference
2
UNIT_DISC
10
27.9339
20
-10.1315
41
0.4
42
0.4
50
0
0
INSERT
5
799
100
AcDbEntity
8
F_Cu_____________
62
256
100
AcDbBlockReference
2
UNIT_DISC
10
27.9339
20
-10.1315
41
0.4
42
0.4
50
0
0
LWPOLYLINE
5
800
100
AcDbEntity
8
F_Cu_____________
62
256
100
AcDbPolyline
90
2
70
0
43
0.4
10
27.9339
20
-10.1315
10
27.9296
20
-10.1211
0
INSERT
5
801
100
AcDbEntity
8
F_Cu_____________
62
256
100
AcDbBlockReference
2
UNIT_DISC
10
27.9296
20
-10.1211
41
0.4
42
0.4
50
0
0
INSERT
5
802
100
AcDbEntity
8
F_Cu_____________
62
256
100
AcDbBlockReference
2
UNIT_DISC
10
27.9296
20
-10.1211
41
0.4
42
0.4
50
0
0
LWPOLYLINE
5
803
100
AcDbEntity
8
F_Cu_____________
62
256
100
AcDbPolyline
90
2
70
0
43
0.4
10
27.9296
20
-10.1211
10
27.676
20
-8.5399
0
INSERT
5
804
100
AcDbEntity
8
F_Cu_____________
62
256
100
AcDbBlockReference
2
UNIT_DISC
10
27.676
20
-8.5399
41
0.4
42
0.4
50
0
0
INSERT
5
805
100
AcDbEntity
8
F_Cu_____________
62
256
100
AcDbBlockReference
2
UNIT_DISC
10
41.3056
20
42.1492
41
0.4
42
0.4
50
0
0
LWPOLYLINE
5
806
100
AcDbEntity
8
F_Cu_____________
62
256
100
AcDbPolyline
90
2
70
0
43
0.4
10
41.3056
20
42.1492
10
55.9309
20
36.7522
0
INSERT
5
807
100
AcDbEntity
8
F_Cu_____________
62
256
100
AcDbBlockReference
2
UNIT_DISC
10
55.9309
20
36.7522
41
0.4
42
0.4
50
0
0
INSERT
5
808
100
AcDbEntity
8
F_Cu_____________
62
256
100
AcDbBlockReference
2
UNIT_DISC
10
77.3448
20
32.4675
41
0.4
42
0.4
50
0
0
LWPOLYLINE
5
809
100
AcDbEntity
8
F_Cu_____________
62
256
100
AcDbPolyline
90
2
70
0
43
0.4
10
77.3448
20
32.4675
10
75.0047
20
32.8851
0
INSERT
5
810
100
AcDbEntity
8
F_Cu_____________
62
256
100
AcDbBlockReference
2
UNIT_DISC
10
75.0047
20
32.8851
41
0.4
42
0.4
50
0
0
INSERT
5
811
100
AcDbEntity
8
F_Cu_____________
62
256
100
AcDbBlockReference
2
UNIT_DISC
10
75.0047
20
32.8851
41
0.4
42
0.4
50
0
0
LWPOLYLINE
5
812
100
AcDbEntity
8
F_Cu_____________
62
256
100
AcDbPolyline
90
2
70
0
43
0.4
10
75.0047
20
32.8851
10
55.9309
20
36.7522
0
INSERT
5
813
100
AcDbEntity
8
F_Cu_____________
62
256
100
AcDbBlockReference
2
UNIT_DISC
10
55.9309
20
36.7522
41
0.4
42
0.4
50
0
0
INSERT
5
814
100
AcDbEntity
8
F_Cu_____________
62
256
100
AcDbBlockReference
2
UNIT_DISC
10
39.173
20
25.0705
41
0.4
42
0.4
50
0
0
LWPOLYLINE
5
815
100
AcDbEntity
8
F_Cu_____________
62
256
100
AcDbPolyline
90
2
70
0
43
0.4
10
39.173
20
25.0705
10
54.6889
20
22.8801
0
INSERT
5
816
100
AcDbEntity
8
F_Cu_____________
62
256
100
AcDbBlockReference
2
UNIT_DISC
10
54.6889
20
22.8801
41
0.4
42
0.4
50
0
0
INSERT
5
817
100
AcDbEntity
8
F_Cu_____________
62
256
100
AcDbBlockReference
2
UNIT_DISC
10
26.1312
20
12.509
41
0.4
42
0.4
50
0
0
LWPOLYLINE
5
818
100
AcDbEntity
8
F_Cu_____________
62
256
100
AcDbPolyline
90
2
70
0
43
0.4
10
26.1312
20
12.509
10
28.9462
20
16.4899
0
INSERT
5
819
100
AcDbEntity
8
F_Cu_____________
62
256
100
AcDbBlockReference
2
UNIT_DISC
10
28.9462
20
16.4899
41
0.4
42
0.4
50
0
0
INSERT
5
820
100
AcDbEntity
8
F_Cu_____________
62
256
100
AcDbBlockReference
2
UNIT_DISC
10
28.9462
20
16.4899
41
0.4
42
0.4
50
0
0
LWPOLYLINE
5
821
100
AcDbEntity
8
F_Cu_____________
62
256
100
AcDbPolyline
90
2
70
0
43
0.4
10
28.9462
20
16.4899
10
34.0443
20
23.0642
0
INSERT
5
822
100
AcDbEntity
8
F_Cu_____________
62
256
100
AcDbBlockReference
2
UNIT_DISC
10
34.0443
20
23.0642
41
0.4
42
0.4
50
0
0
INSERT
5
823
100
AcDbEntity
8
F_Cu_____________
62
256
100
AcDbBlockReference
2
UNIT_DISC
10
34.0443
20
23.0642
41
0.4
42
0.4
50
0
0
LWPOLYLINE
5
824
100
AcDbEntity
8
F_Cu_____________
62
256
100
AcDbPolyline
90
2
70
0
43
0.4
10
34.0443
20
23.0642
10
34.1618
20
23.1817
0
INSERT
5
825
100
AcDbEntity
8
F_Cu_____________
62
256
100
AcDbBlockReference
2
UNIT_DISC
10
34.1618
20
23.1817
41
0.4
42
0.4
50
0
0
INSERT
5
826
100
AcDbEntity
8
F_Cu_____________
62
256
100
AcDbBlockReference
2
UNIT_DISC
10
34.1618
20
23.1817
41
0.4
42
0.4
50
0
0
LWPOLYLINE
5
827
100
AcDbEntity
8
F_Cu_____________
62
256
100
AcDbPolyline
90
2
70
0
43
0.4
10
34.1618
20
23.1817
10
34.7244
20
23.7442
0
INSERT
5
828
100
AcDbEntity
8
F_Cu_____________
62
256
100
AcDbBlockReference
2
UNIT_DISC
10
34.7244
20
23.7442
41
0.4
42
0.4
50
0
0
INSERT
5
829
100
AcDbEntity
8
F_Cu_____________
62
256
100
AcDbBlockReference
2
UNIT_DISC
10
34.7244
20
23.7442
41
0.4
42
0.4
50
0
0
LWPOLYLINE
5
830
100
AcDbEntity
8
F_Cu_____________
62
256
100
AcDbPolyline
90
2
70
0
43
0.4
10
34.7244
20
23.7442
10
34.7482
20
23.7541
0
INSERT
5
831
100
AcDbEntity
8
F_Cu_____________
62
256
100
AcDbBlockReference
2
UNIT_DISC
10
34.7482
20
23.7541
41
0.4
42
0.4
50
0
0
INSERT
5
832
100
AcDbEntity
8
F_Cu_____________
62
256
100
AcDbBlockReference
2
UNIT_DISC
10
34.7482
20
23.7541
41
0.4
42
0.4
50
0
0
LWPOLYLINE
5
833
100
AcDbEntity
8
F_Cu_____________
62
256
100
AcDbPolyline
90
2
70
0
43
0.4
10
34.7482
20
23.7541
10
35.4596
20
24.0487
0
INSERT
5
834
100
AcDbEntity
8
F_Cu_____________
62
256
100
AcDbBlockReference
2
UNIT_DISC
10
35.4596
20
24.0487
41
0.4
42
0.4
50
0
0
INSERT
5
835
100
AcDbEntity
8
F_Cu_____________
62
256
100
AcDbBlockReference
2
UNIT_DISC
10
35.4596
20
24.0487
41
0.4
42
0.4
50
0
0
LWPOLYLINE
5
836
100
AcDbEntity
8
F_Cu_____________
62
256
100
AcDbPolyline
90
2
70
0
43
0.4
10
35.4596
20
24.0487
10
39.173
20
25.0705
0
INSERT
5
837
100
AcDbEntity
8
F_Cu_____________
62
256
100
AcDbBlockReference
2
UNIT_DISC
10
39.173
20
25.0705
41
0.4
42
0.4
50
0
0
INSERT
5
838
100
AcDbEntity
8
F_Cu_____________
62
256
100
AcDbBlockReference
2
UNIT_DISC
10
35.3303
20
-22.5955
41
0.4
42
0.4
50
0
0
LWPOLYLINE
5
839
100
AcDbEntity
8
F_Cu_____________
62
256
100
AcDbPolyline
90
2
70
0
43
0.4
10
35.3303
20
-22.5955
10
34.5229
20
-22.5327
0
INSERT
5
840
100
AcDbEntity
8
F_Cu_____________
62
256
100
AcDbBlockReference
2
UNIT_DISC
10
34.5229
20
-22.5327
41
0.4
42
0.4
50
0
0
INSERT
5
841
100
AcDbEntity
8
F_Cu_____________
62
256
100
AcDbBlockReference
2
UNIT_DISC
10
34.5229
20
-22.5327
41
0.4
42
0.4
50
0
0
LWPOLYLINE
5
842
100
AcDbEntity
8
F_Cu_____________
62
256
100
AcDbPolyline
90
2
70
0
43
0.4
10
34.5229
20
-22.5327
10
34.3234
20
-22.5467
0
INSERT
5
843
100
AcDbEntity
8
F_Cu_____________
62
256
100
AcDbBlockReference
2
UNIT_DISC
10
34.3234
20
-22.5467
41
0.4
42
0.4
50
0
0
INSERT
5
844
100
AcDbEntity
8
F_Cu_____________
62
256
100
AcDbBlockReference
2
UNIT_DISC
10
34.3234
20
-22.5467
41
0.4
42
0.4
50
0
0
LWPOLYLINE
5
845
100
AcDbEntity
8
F_Cu_____________
62
256
100
AcDbPolyline
90
2
70
0
43
0.4
10
34.3234
20
-22.5467
10
32.8909
20
-22.647
0
INSERT
5
846
100
AcDbEntity
8
F_Cu_____________
62
256
100
AcDbBlockReference
2
UNIT_DISC
10
32.8909
20
-22.647
41
0.4
42
0.4
50
0
0
INSERT
5
847
100
AcDbEntity
8
F_Cu_____________
62
256
100
AcDbBlockReference
2
UNIT_DISC
10
32.8909
20
-22.647
41
0.4
42
0.4
50
0
0
LWPOLYLINE
5
848
100
AcDbEntity
8
F_Cu_____________
62
256
100
AcDbPolyline
90
2
70
0
43
0.4
10
32.8909
20
-22.647
10
31.4365
20
-22.647
0
INSERT
5
849
100
AcDbEntity
8
F_Cu_____________
62
256
100
AcDbBlockReference
2
UNIT_DISC
10
31.4365
20
-22.647
41
0.4
42
0.4
50
0
0
INSERT
5
850
100
AcDbEntity
8
F_Cu_____________
62
256
100
AcDbBlockReference
2
UNIT_DISC
10
31.4365
20
-22.647
41
0.4
42
0.4
50
0
0
LWPOLYLINE
5
851
100
AcDbEntity
8
F_Cu_____________
62
256
100
AcDbPolyline
90
2
70
0
43
0.4
10
31.4365
20
-22.647
10
31.0695
20
-22.495
0
INSERT
5
852
100
AcDbEntity
8
F_Cu_____________
62
256
100
AcDbBlockReference
2
UNIT_DISC
10
31.0695
20
-22.495
41
0.4
42
0.4
50
0
0
INSERT
5
853
100
AcDbEntity
8
F_Cu_____________
62
256
100
AcDbBlockReference
2
UNIT_DISC
10
31.0695
20
-22.495
41
0.4
42
0.4
50
0
0
LWPOLYLINE
5
854
100
AcDbEntity
8
F_Cu_____________
62
256
100
AcDbPolyline
90
2
70
0
43
0.4
10
31.0695
20
-22.495
10
30.0452
20
-21.4707
0
INSERT
5
855
100
AcDbEntity
8
F_Cu_____________
62
256
100
AcDbBlockReference
2
UNIT_DISC
10
30.0452
20
-21.4707
41
0.4
42
0.4
50
0
0
INSERT
5
856
100
AcDbEntity
8
F_Cu_____________
62
256
100
AcDbBlockReference
2
UNIT_DISC
10
30.0452
20
-21.4707
41
0.4
42
0.4
50
0
0
LWPOLYLINE
5
857
100
AcDbEntity
8
F_Cu_____________
62
256
100
AcDbPolyline
90
2
70
0
43
0.4
10
30.0452
20
-21.4707
10
24.9366
20
-9.1852
0
INSERT
5
858
100
AcDbEntity
8
F_Cu_____________
62
256
100
AcDbBlockReference
2
UNIT_DISC
10
24.9366
20
-9.1852
41
0.4
42
0.4
50
0
0
INSERT
5
859
100
AcDbEntity
8
F_Cu_____________
62
256
100
AcDbBlockReference
2
UNIT_DISC
10
24.9366
20
-9.1852
41
0.4
42
0.4
50
0
0
LWPOLYLINE
5
860
100
AcDbEntity
8
F_Cu_____________
62
256
100
AcDbPolyline
90
2
70
0
43
0.4
10
24.9366
20
-9.1852
10
25.392
20
-6.5283
0
INSERT
5
861
100
AcDbEntity
8
F_Cu_____________
62
256
100
AcDbBlockReference
2
UNIT_DISC
10
25.392
20
-6.5283
41
0.4
42
0.4
50
0
0
INSERT
5
862
100
AcDbEntity
8
F_Cu_____________
62
256
100
AcDbBlockReference
2
UNIT_DISC
10
25.392
20
-6.5283
41
0.4
42
0.4
50
0
0
LWPOLYLINE
5
863
100
AcDbEntity
8
F_Cu_____________
62
256
100
AcDbPolyline
90
2
70
0
43
0.4
10
25.392
20
-6.5283
10
31.1642
20
0.7174
0
INSERT
5
864
100
AcDbEntity
8
F_Cu_____________
62
256
100
AcDbBlockReference
2
UNIT_DISC
10
31.1642
20
0.7174
41
0.4
42
0.4
50
0
0
INSERT
5
865
100
AcDbEntity
8
F_Cu_____________
62
256
100
AcDbBlockReference
2
UNIT_DISC
10
31.1642
20
0.7174
41
0.4
42
0.4
50
0
0
LWPOLYLINE
5
866
100
AcDbEntity
8
F_Cu_____________
62
256
100
AcDbPolyline
90
2
70
0
43
0.4
10
31.1642
20
0.7174
10
31.1685
20
0.7278
0
INSERT
5
867
100
AcDbEntity
8
F_Cu_____________
62
256
100
AcDbBlockReference
2
UNIT_DISC
10
31.1685
20
0.7278
41
0.4
42
0.4
50
0
0
INSERT
5
868
100
AcDbEntity
8
F_Cu_____________
62
256
100
AcDbBlockReference
2
UNIT_DISC
10
31.1685
20
0.7278
41
0.4
42
0.4
50
0
0
LWPOLYLINE
5
869
100
AcDbEntity
8
F_Cu_____________
62
256
100
AcDbPolyline
90
2
70
0
43
0.4
10
31.1685
20
0.7278
10
31.1685
20
1.7964
0
INSERT
5
870
100
AcDbEntity
8
F_Cu_____________
62
256
100
AcDbBlockReference
2
UNIT_DISC
10
31.1685
20
1.7964
41
0.4
42
0.4
50
0
0
INSERT
5
871
100
AcDbEntity
8
F_Cu_____________
62
256
100
AcDbBlockReference
2
UNIT_DISC
10
31.1685
20
1.7964
41
0.4
42
0.4
50
0
0
LWPOLYLINE
5
872
100
AcDbEntity
8
F_Cu_____________
62
256
100
AcDbPolyline
90
2
70
0
43
0.4
10
31.1685
20
1.7964
10
31.1642
20
1.8068
0
INSERT
5
873
100
AcDbEntity
8
F_Cu_____________
62
256
100
AcDbBlockReference
2
UNIT_DISC
10
31.1642
20
1.8068
41
0.4
42
0.4
50
0
0
INSERT
5
874
100
AcDbEntity
8
F_Cu_____________
62
256
100
AcDbBlockReference
2
UNIT_DISC
10
31.1642
20
1.8068
41
0.4
42
0.4
50
0
0
LWPOLYLINE
5
875
100
AcDbEntity
8
F_Cu_____________
62
256
100
AcDbPolyline
90
2
70
0
43
0.4
10
31.1642
20
1.8068
10
26.1312
20
12.509
0
INSERT
5
876
100
AcDbEntity
8
F_Cu_____________
62
256
100
AcDbBlockReference
2
UNIT_DISC
10
26.1312
20
12.509
41
0.4
42
0.4
50
0
0
INSERT
5
877
100
AcDbEntity
8
F_Cu_____________
62
256
100
AcDbBlockReference
2
UNIT_DISC
10
26.1312
20
12.509
41
0.4
42
0.4
50
0
0
LWPOLYLINE
5
878
100
AcDbEntity
8
F_Cu_____________
62
256
100
AcDbPolyline
90
2
70
0
43
0.4
10
26.1312
20
12.509
10
17.5475
20
13.3212
0
INSERT
5
879
100
AcDbEntity
8
F_Cu_____________
62
256
100
AcDbBlockReference
2
UNIT_DISC
10
17.5475
20
13.3212
41
0.4
42
0.4
50
0
0
INSERT
5
880
100
AcDbEntity
8
F_Cu_____________
62
256
100
AcDbBlockReference
2
UNIT_DISC
10
5.9475
20
11.7654
41
0.4
42
0.4
50
0
0
LWPOLYLINE
5
881
100
AcDbEntity
8
F_Cu_____________
62
256
100
AcDbPolyline
90
2
70
0
43
0.4
10
5.9475
20
11.7654
10
17.5475
20
13.3212
0
INSERT
5
882
100
AcDbEntity
8
F_Cu_____________
62
256
100
AcDbBlockReference
2
UNIT_DISC
10
17.5475
20
13.3212
41
0.4
42
0.4
50
0
0
INSERT
5
883
100
AcDbEntity
8
F_Cu_____________
62
256
100
AcDbBlockReference
2
UNIT_DISC
10
35.5075
20
-25.1293
41
0.4
42
0.4
50
0
0
LWPOLYLINE
5
884
100
AcDbEntity
8
F_Cu_____________
62
256
100
AcDbPolyline
90
2
70
0
43
0.4
10
35.5075
20
-25.1293
10
34.4785
20
-24.6268
0
INSERT
5
885
100
AcDbEntity
8
F_Cu_____________
62
256
100
AcDbBlockReference
2
UNIT_DISC
10
34.4785
20
-24.6268
41
0.4
42
0.4
50
0
0
INSERT
5
886
100
AcDbEntity
8
F_Cu_____________
62
256
100
AcDbBlockReference
2
UNIT_DISC
10
34.4785
20
-24.6268
41
0.4
42
0.4
50
0
0
LWPOLYLINE
5
887
100
AcDbEntity
8
F_Cu_____________
62
256
100
AcDbPolyline
90
2
70
0
43
0.4
10
34.4785
20
-24.6268
10
34.4647
20
-24.6268
0
INSERT
5
888
100
AcDbEntity
8
F_Cu_____________
62
256
100
AcDbBlockReference
2
UNIT_DISC
10
34.4647
20
-24.6268
41
0.4
42
0.4
50
0
0
INSERT
5
889
100
AcDbEntity
8
F_Cu_____________
62
256
100
AcDbBlockReference
2
UNIT_DISC
10
34.4647
20
-24.6268
41
0.4
42
0.4
50
0
0
LWPOLYLINE
5
890
100
AcDbEntity
8
F_Cu_____________
62
256
100
AcDbPolyline
90
2
70
0
43
0.4
10
34.4647
20
-24.6268
10
31.2663
20
-23.8475
0
INSERT
5
891
100
AcDbEntity
8
F_Cu_____________
62
256
100
AcDbBlockReference
2
UNIT_DISC
10
31.2663
20
-23.8475
41
0.4
42
0.4
50
0
0
INSERT
5
892
100
AcDbEntity
8
F_Cu_____________
62
256
100
AcDbBlockReference
2
UNIT_DISC
10
31.2663
20
-23.8475
41
0.4
42
0.4
50
0
0
LWPOLYLINE
5
893
100
AcDbEntity
8
F_Cu_____________
62
256
100
AcDbPolyline
90
2
70
0
43
0.4
10
31.2663
20
-23.8475
10
31.0883
20
-23.8028
0
INSERT
5
894
100
AcDbEntity
8
F_Cu_____________
62
256
100
AcDbBlockReference
2
UNIT_DISC
10
31.0883
20
-23.8028
41
0.4
42
0.4
50
0
0
INSERT
5
895
100
AcDbEntity
8
F_Cu_____________
62
256
100
AcDbBlockReference
2
UNIT_DISC
10
31.0883
20
-23.8028
41
0.4
42
0.4
50
0
0
LWPOLYLINE
5
896
100
AcDbEntity
8
F_Cu_____________
62
256
100
AcDbPolyline
90
2
70
0
43
0.4
10
31.0883
20
-23.8028
10
30.4969
20
-23.5576
0
INSERT
5
897
100
AcDbEntity
8
F_Cu_____________
62
256
100
AcDbBlockReference
2
UNIT_DISC
10
30.4969
20
-23.5576
41
0.4
42
0.4
50
0
0
INSERT
5
898
100
AcDbEntity
8
F_Cu_____________
62
256
100
AcDbBlockReference
2
UNIT_DISC
10
30.4969
20
-23.5576
41
0.4
42
0.4
50
0
0
LWPOLYLINE
5
899
100
AcDbEntity
8
F_Cu_____________
62
256
100
AcDbPolyline
90
2
70
0
43
0.4
10
30.4969
20
-23.5576
10
30.3395
20
-23.4633
0
INSERT
5
900
100
AcDbEntity
8
F_Cu_____________
62
256
100
AcDbBlockReference
2
UNIT_DISC
10
30.3395
20
-23.4633
41
0.4
42
0.4
50
0
0
INSERT
5
901
100
AcDbEntity
8
F_Cu_____________
62
256
100
AcDbBlockReference
2
UNIT_DISC
10
30.3395
20
-23.4633
41
0.4
42
0.4
50
0
0
LWPOLYLINE
5
902
100
AcDbEntity
8
F_Cu_____________
62
256
100
AcDbPolyline
90
2
70
0
43
0.4
10
30.3395
20
-23.4633
10
29.0769
20
-22.2007
0
INSERT
5
903
100
AcDbEntity
8
F_Cu_____________
62
256
100
AcDbBlockReference
2
UNIT_DISC
10
29.0769
20
-22.2007
41
0.4
42
0.4
50
0
0
INSERT
5
904
100
AcDbEntity
8
F_Cu_____________
62
256
100
AcDbBlockReference
2
UNIT_DISC
10
29.0769
20
-22.2007
41
0.4
42
0.4
50
0
0
LWPOLYLINE
5
905
100
AcDbEntity
8
F_Cu_____________
62
256
100
AcDbPolyline
90
2
70
0
43
0.4
10
29.0769
20
-22.2007
10
28.9826
20
-22.0433
0
INSERT
5
906
100
AcDbEntity
8
F_Cu_____________
62
256
100
AcDbBlockReference
2
UNIT_DISC
10
28.9826
20
-22.0433
41
0.4
42
0.4
50
0
0
INSERT
5
907
100
AcDbEntity
8
F_Cu_____________
62
256
100
AcDbBlockReference
2
UNIT_DISC
10
28.9826
20
-22.0433
41
0.4
42
0.4
50
0
0
LWPOLYLINE
5
908
100
AcDbEntity
8
F_Cu_____________
62
256
100
AcDbPolyline
90
2
70
0
43
0.4
10
28.9826
20
-22.0433
10
24.4402
20
-11.1836
0
INSERT
5
909
100
AcDbEntity
8
F_Cu_____________
62
256
100
AcDbBlockReference
2
UNIT_DISC
10
24.4402
20
-11.1836
41
0.4
42
0.4
50
0
0
INSERT
5
910
100
AcDbEntity
8
F_Cu_____________
62
256
100
AcDbBlockReference
2
UNIT_DISC
10
24.4402
20
-11.1836
41
0.4
42
0.4
50
0
0
LWPOLYLINE
5
911
100
AcDbEntity
8
F_Cu_____________
62
256
100
AcDbPolyline
90
2
70
0
43
0.4
10
24.4402
20
-11.1836
10
24.182
20
-10.5608
0
INSERT
5
912
100
AcDbEntity
8
F_Cu_____________
62
256
100
AcDbBlockReference
2
UNIT_DISC
10
24.182
20
-10.5608
41
0.4
42
0.4
50
0
0
INSERT
5
913
100
AcDbEntity
8
F_Cu_____________
62
256
100
AcDbBlockReference
2
UNIT_DISC
10
24.182
20
-10.5608
41
0.4
42
0.4
50
0
0
LWPOLYLINE
5
914
100
AcDbEntity
8
F_Cu_____________
62
256
100
AcDbPolyline
90
2
70
0
43
0.4
10
24.182
20
-10.5608
10
22.7318
20
-6.0247
0
INSERT
5
915
100
AcDbEntity
8
F_Cu_____________
62
256
100
AcDbBlockReference
2
UNIT_DISC
10
22.7318
20
-6.0247
41
0.4
42
0.4
50
0
0
INSERT
5
916
100
AcDbEntity
8
F_Cu_____________
62
256
100
AcDbBlockReference
2
UNIT_DISC
10
29.868
20
1.2621
41
0.4
42
0.4
50
0
0
LWPOLYLINE
5
917
100
AcDbEntity
8
F_Cu_____________
62
256
100
AcDbPolyline
90
2
70
0
43
0.4
10
29.868
20
1.2621
10
22.7318
20
-6.0247
0
INSERT
5
918
100
AcDbEntity
8
F_Cu_____________
62
256
100
AcDbBlockReference
2
UNIT_DISC
10
22.7318
20
-6.0247
41
0.4
42
0.4
50
0
0
INSERT
5
919
100
AcDbEntity
8
F_Cu_____________
62
256
100
AcDbBlockReference
2
UNIT_DISC
10
56.5545
20
-8.3759
41
0.4
42
0.4
50
0
0
LWPOLYLINE
5
920
100
AcDbEntity
8
F_Cu_____________
62
256
100
AcDbPolyline
90
2
70
0
43
0.4
10
56.5545
20
-8.3759
10
53.629
20
-10.3645
0
INSERT
5
921
100
AcDbEntity
8
F_Cu_____________
62
256
100
AcDbBlockReference
2
UNIT_DISC
10
53.629
20
-10.3645
41
0.4
42
0.4
50
0
0
INSERT
5
922
100
AcDbEntity
8
F_Cu_____________
62
256
100
AcDbBlockReference
2
UNIT_DISC
10
53.629
20
-10.3645
41
0.4
42
0.4
50
0
0
LWPOLYLINE
5
923
100
AcDbEntity
8
F_Cu_____________
62
256
100
AcDbPolyline
90
2
70
0
43
0.4
10
53.629
20
-10.3645
10
53.5909
20
-10.4023
0
INSERT
5
924
100
AcDbEntity
8
F_Cu_____________
62
256
100
AcDbBlockReference
2
UNIT_DISC
10
53.5909
20
-10.4023
41
0.4
42
0.4
50
0
0
INSERT
5
925
100
AcDbEntity
8
F_Cu_____________
62
256
100
AcDbBlockReference
2
UNIT_DISC
10
53.5909
20
-10.4023
41
0.4
42
0.4
50
0
0
LWPOLYLINE
5
926
100
AcDbEntity
8
F_Cu_____________
62
256
100
AcDbPolyline
90
2
70
0
43
0.4
10
53.5909
20
-10.4023
10
52.7573
20
-11.192
0
INSERT
5
927
100
AcDbEntity
8
F_Cu_____________
62
256
100
AcDbBlockReference
2
UNIT_DISC
10
52.7573
20
-11.192
41
0.4
42
0.4
50
0
0
ENDSEC
0
SECTION
2
OBJECTS
0
DICTIONARY
5
928
100
AcDbDictionary
3
ACAD_GROUP
350
929
3
ACAD_LAYOUT
350
930
3
ACAD_MLINESTYLE
350
931
3
ACDBHEADERROUNDTRIPXREC
350
932
0
DICTIONARY
5
929
100
AcDbDictionary
0
DICTIONARY
5
930
100
AcDbDictionary
0
DICTIONARY
5
931
100
AcDbDictionary
3
STANDARD
350
934
0
DICTIONARY
5
932
100
AcDbDictionary
3
STANDARD
350
934
3
INSUNITS
350
933
0
XRECORD
5
933
100
AcDbXrecord
90
4
0
MLINESTYLE
5
934
100
AcDbMlineStyle
2
STANDARD
71
2
49
0.5
49
-0.5
0
ENDSEC
0
EOF
